# PSO Extracted Authentic Geometry
v -0.0001 0.0007 0.3739
v 6.0014 -0.0000 -0.0000
v -176.6375 0.0000 -0.0000
v -2.0000 0.0000 -0.0000
v 0.0000 1043.4688 0.0000
v -0.0000 704.0186 -0.0000
v -32.0001 0.0000 0.0000
v -0.0000 704.0186 -0.0000
v 0.0000 0.0000 2.0000
v 0.0000 0.5000 0.0000
v 2.0000 0.0000 0.5000
vn 0.0000 1.0000 0.0000
vn 0.0000 1.0000 0.0000
vn 0.0000 1.0000 0.0000
vn 0.0000 1.0000 0.0000
vn 0.0000 1.0000 0.0000
vn 0.0000 1.0000 0.0000
vn 0.0000 1.0000 0.0000
vn 0.0000 1.0000 0.0000
vn 0.0000 1.0000 0.0000
vn 0.0000 1.0000 0.0000
vn 0.0000 1.0000 0.0000
f 1 2 3
f 4 5 6
f 7 8 9
