# PSO Extracted Authentic Geometry
v 0.0000 -0.0000 -71.6223
v -0.0000 -71.6223 -0.0000
v -71.6223 -0.0000 0.0000
v -0.0000 -71.6223 -0.0000
v -71.6223 -0.0000 0.0000
v 0.0000 -0.0000 -71.6223
v -0.0000 -71.6223 -0.0000
v -71.6223 -0.0000 0.0000
v 0.0000 -0.0000 -71.6223
v -0.0000 -71.6223 -0.0000
v -71.6223 -0.0000 0.0000
v -71.6223 -0.0000 0.0000
v 0.0000 -0.0000 -71.6223
v 0.0000 -0.0000 -71.6223
v 0.0000 -0.0000 -71.6223
v -0.0000 -71.6223 -0.0000
v -71.6223 -0.0000 0.0000
v 0.0000 -0.0000 -71.6223
v -0.0000 -71.6223 -0.0000
v 0.0000 -0.0000 -71.6223
v -0.0000 -71.6223 -0.0000
v -71.6223 -0.0000 0.0000
v -71.6223 -0.0000 0.0000
v -0.0000 -71.6223 -0.0000
v -71.6223 -0.0000 0.0000
v 0.0000 -0.0000 -71.6223
v -0.0000 -71.6223 -0.0000
v -71.6223 -0.0000 0.0000
v 0.0000 -0.0000 -71.6223
v 0.0000 -0.0000 -71.6223
v 0.0000 -0.0000 -71.6223
v 0.0000 -0.0000 -71.6223
v 0.0000 -0.0000 -71.6223
v 0.0000 -0.0000 -71.6223
v 11.0259 0.0000 0.0000
v -236.2593 0.0000 -0.0000
v 0.3770 0.0000 0.0000
v 0.0000 0.0000 0.8284
v 0.0000 0.0126 0.0000
v 0.0000 0.0623 0.0000
v 0.0000 0.0000 0.1021
v 0.2988 0.0000 0.0000
v 0.0000 0.0000 0.9531
v 1.7734 0.0000 0.0000
v -0.0000 0.0078 0.3906
v -0.0000 -0.0000 0.0938
v 0.0000 -0.0000 705.5967
v -236.2593 0.0000 -0.0000
v -0.0000 705.6279 0.0000
v -0.0000 -0.0000 44.0930
v 0.0000 -0.5007 0.0000
v -0.0000 -0.0000 -0.0126
v 0.0000 -0.0000 -3.6964
v 0.0000 0.0138 0.2123
v 0.0000 0.0000 0.0127
v 0.0000 -0.0000 -0.0137
v 3304.7800 -0.0000 0.0000
v 0.0000 0.0138 0.2123
v -0.0176 -0.0000 0.8352
v -0.0000 0.0000 3576.5249
v 0.0000 0.0000 3.2507
v -277.5895 0.0000 -0.0000
v 0.0138 0.2123 0.0000
v 0.0000 -3.9091 0.0000
v 0.0000 0.0564 0.0000
v 0.0000 0.0000 0.0903
v 0.2559 0.0000 0.0000
v 0.0000 0.0000 0.8594
v 1.5859 0.0000 0.0000
v -0.0000 -236.2593 0.0000
v -0.0000 44.1428 -0.0000
v 0.0598 0.3770 0.0000
vn 0.0000 1.0000 0.0000
vn 0.0000 1.0000 0.0000
vn 0.0000 1.0000 0.0000
vn 0.0000 1.0000 0.0000
vn 0.0000 1.0000 0.0000
vn 0.0000 1.0000 0.0000
vn 0.0000 1.0000 0.0000
vn 0.0000 1.0000 0.0000
vn 0.0000 1.0000 0.0000
vn 0.0000 1.0000 0.0000
vn 0.0000 1.0000 0.0000
vn 0.0000 1.0000 0.0000
vn 0.0000 1.0000 0.0000
vn 0.0000 1.0000 0.0000
vn 0.0000 1.0000 0.0000
vn 0.0000 1.0000 0.0000
vn 0.0000 1.0000 0.0000
vn 0.0000 1.0000 0.0000
vn 0.0000 1.0000 0.0000
vn 0.0000 1.0000 0.0000
vn 0.0000 1.0000 0.0000
vn 0.0000 1.0000 0.0000
vn 0.0000 1.0000 0.0000
vn 0.0000 1.0000 0.0000
vn 0.0000 1.0000 0.0000
vn 0.0000 1.0000 0.0000
vn 0.0000 1.0000 0.0000
vn 0.0000 1.0000 0.0000
vn 0.0000 1.0000 0.0000
vn 0.0000 1.0000 0.0000
vn 0.0000 1.0000 0.0000
vn 0.0000 1.0000 0.0000
vn 0.0000 1.0000 0.0000
vn 0.0000 1.0000 0.0000
vn 0.0000 1.0000 0.0000
vn 0.0000 1.0000 0.0000
vn 0.0000 1.0000 0.0000
vn 0.0000 1.0000 0.0000
vn 0.0000 1.0000 0.0000
vn 0.0000 1.0000 0.0000
vn 0.0000 1.0000 0.0000
vn 0.0000 1.0000 0.0000
vn 0.0000 1.0000 0.0000
vn 0.0000 1.0000 0.0000
vn 0.0000 1.0000 0.0000
vn 0.0000 1.0000 0.0000
vn 0.0000 1.0000 0.0000
vn 0.0000 1.0000 0.0000
vn 0.0000 1.0000 0.0000
vn 0.0000 1.0000 0.0000
vn 0.0000 1.0000 0.0000
vn 0.0000 1.0000 0.0000
vn 0.0000 1.0000 0.0000
vn 0.0000 1.0000 0.0000
vn 0.0000 1.0000 0.0000
vn 0.0000 1.0000 0.0000
vn 0.0000 1.0000 0.0000
vn 0.0000 1.0000 0.0000
vn 0.0000 1.0000 0.0000
vn 0.0000 1.0000 0.0000
vn 0.0000 1.0000 0.0000
vn 0.0000 1.0000 0.0000
vn 0.0000 1.0000 0.0000
vn 0.0000 1.0000 0.0000
vn 0.0000 1.0000 0.0000
vn 0.0000 1.0000 0.0000
vn 0.0000 1.0000 0.0000
vn 0.0000 1.0000 0.0000
vn 0.0000 1.0000 0.0000
vn 0.0000 1.0000 0.0000
vn 0.0000 1.0000 0.0000
vn 0.0000 1.0000 0.0000
f 1 2 3
f 4 5 6
f 7 8 9
f 10 11 12
f 13 14 15
f 16 17 18
f 19 20 21
f 22 23 24
f 25 26 27
f 28 29 30
f 31 32 33
f 34 35 36
f 37 38 39
f 40 41 42
f 43 44 45
f 46 47 48
f 49 50 51
f 52 53 54
f 55 56 57
f 58 59 60
f 61 62 63
f 64 65 66
f 67 68 69
f 70 71 72
