# PSO Extracted Authentic Geometry
v -0.0000 -0.0000 11.5132
v 0.0000 -0.0000 11.5132
v -0.0000 1.9995 -0.0000
v 0.0117 0.0000 -0.0000
v 2539.5000 0.0000 0.0000
v -0.0000 0.0000 2539.5000
v 2539.5000 0.0000 0.0000
v 1.9995 -0.0000 -0.0000
v -0.0000 1.9995 -0.0000
v 1.9995 0.0000 -0.0000
v 0.4364 -0.0000 -0.0000
v 11.0259 0.0000 0.0000
v 44.1037 0.0000 0.0000
v -0.6897 -0.0000 -0.0000
v -0.0000 705.6279 0.0000
v 0.0000 -0.0000 14.0003
v -0.0000 0.0000 -3370.0625
v -0.0000 -220.0598 0.0000
v 0.0000 226.0641 0.0000
v -226.7716 0.0000 0.0000
v 0.0000 -0.0000 0.0126
v 0.0000 0.0000 0.0126
v -0.0000 -0.0000 -15.1507
v 0.0008 0.0000 -3766.1616
v 14.3866 -0.0000 0.0000
v 0.0000 2.0000 0.0000
v 0.5000 0.0000 0.0312
v 2.0000 0.0000 0.5000
v 0.0000 2.0000 0.0000
v -0.6897 -0.0000 -0.0000
v 512.5029 705.6592 -0.0000
v 2.0000 0.0000 0.5000
v 0.0138 0.2123 0.0000
v -0.0000 0.0000 0.0138
v 0.0000 -0.9630 0.0000
v 0.0000 0.0000 -3.6099
v 0.0000 -0.0177 0.0000
v 0.0000 0.0000 3304.7800
v -0.0000 56.9087 0.0000
v -0.0000 68.7529 0.0000
v 0.0000 72.3190 0.0000
v 0.0000 2.0000 0.0000
v 0.5000 0.0000 0.0312
v 0.0000 -0.0126 -0.0000
v -228.8302 0.0000 0.0000
v -0.0000 -0.0126 0.8296
v 0.0000 0.0000 3.2507
v -0.0008 0.0000 -3766.1616
v 0.0000 0.0000 -0.0126
v -220.0607 -0.0000 0.0000
v 0.2669 0.0000 -0.0000
v 0.0000 -0.0000 705.3623
v -0.0000 -0.6897 -0.0000
v 705.6592 -0.0000 0.0000
v -0.6912 -0.0007 -0.0000
v -0.0000 0.0000 -3301.0000
v 0.0000 0.0000 0.0103
v 0.0000 0.0000 0.0637
v 0.0000 0.0000 0.0126
v -0.0000 -0.0000 0.0126
v -0.0000 0.0000 -0.0682
v 0.0000 -170.0031 0.0000
v -680.0627 0.0000 0.0000
v 0.0000 0.0000 0.0103
v 0.0000 0.0000 0.0637
v 0.0000 0.0000 0.0126
v -0.0000 -0.0000 0.0126
v -0.0000 0.0000 -0.0682
v 0.0000 -170.0031 0.0000
v -680.0627 0.0000 0.0000
v 0.0000 0.0000 3.2656
v 3.2656 0.0000 0.0000
v 0.0000 -170.0031 0.0000
v -680.0627 0.0000 0.0000
v 0.0000 0.0000 3.2656
v 3.2656 0.0000 0.0000
v 0.0000 3.2656 0.0000
v 0.0000 0.0000 -170.0031
v 0.0000 -680.0627 0.0000
v 3.2656 0.0000 0.0000
v 0.0000 3.2656 0.0000
v 3.2656 0.0000 0.0000
vn 0.0000 1.0000 0.0000
vn 0.0000 1.0000 0.0000
vn 0.0000 1.0000 0.0000
vn 0.0000 1.0000 0.0000
vn 0.0000 1.0000 0.0000
vn 0.0000 1.0000 0.0000
vn 0.0000 1.0000 0.0000
vn 0.0000 1.0000 0.0000
vn 0.0000 1.0000 0.0000
vn 0.0000 1.0000 0.0000
vn 0.0000 1.0000 0.0000
vn 0.0000 1.0000 0.0000
vn 0.0000 1.0000 0.0000
vn 0.0000 1.0000 0.0000
vn 0.0000 1.0000 0.0000
vn 0.0000 1.0000 0.0000
vn 0.0000 1.0000 0.0000
vn 0.0000 1.0000 0.0000
vn 0.0000 1.0000 0.0000
vn 0.0000 1.0000 0.0000
vn 0.0000 1.0000 0.0000
vn 0.0000 1.0000 0.0000
vn 0.0000 1.0000 0.0000
vn 0.0000 1.0000 0.0000
vn 0.0000 1.0000 0.0000
vn 0.0000 1.0000 0.0000
vn 0.0000 1.0000 0.0000
vn 0.0000 1.0000 0.0000
vn 0.0000 1.0000 0.0000
vn 0.0000 1.0000 0.0000
vn 0.0000 1.0000 0.0000
vn 0.0000 1.0000 0.0000
vn 0.0000 1.0000 0.0000
vn 0.0000 1.0000 0.0000
vn 0.0000 1.0000 0.0000
vn 0.0000 1.0000 0.0000
vn 0.0000 1.0000 0.0000
vn 0.0000 1.0000 0.0000
vn 0.0000 1.0000 0.0000
vn 0.0000 1.0000 0.0000
vn 0.0000 1.0000 0.0000
vn 0.0000 1.0000 0.0000
vn 0.0000 1.0000 0.0000
vn 0.0000 1.0000 0.0000
vn 0.0000 1.0000 0.0000
vn 0.0000 1.0000 0.0000
vn 0.0000 1.0000 0.0000
vn 0.0000 1.0000 0.0000
vn 0.0000 1.0000 0.0000
vn 0.0000 1.0000 0.0000
vn 0.0000 1.0000 0.0000
vn 0.0000 1.0000 0.0000
vn 0.0000 1.0000 0.0000
vn 0.0000 1.0000 0.0000
vn 0.0000 1.0000 0.0000
vn 0.0000 1.0000 0.0000
vn 0.0000 1.0000 0.0000
vn 0.0000 1.0000 0.0000
vn 0.0000 1.0000 0.0000
vn 0.0000 1.0000 0.0000
vn 0.0000 1.0000 0.0000
vn 0.0000 1.0000 0.0000
vn 0.0000 1.0000 0.0000
vn 0.0000 1.0000 0.0000
vn 0.0000 1.0000 0.0000
vn 0.0000 1.0000 0.0000
vn 0.0000 1.0000 0.0000
vn 0.0000 1.0000 0.0000
vn 0.0000 1.0000 0.0000
vn 0.0000 1.0000 0.0000
vn 0.0000 1.0000 0.0000
vn 0.0000 1.0000 0.0000
vn 0.0000 1.0000 0.0000
vn 0.0000 1.0000 0.0000
vn 0.0000 1.0000 0.0000
vn 0.0000 1.0000 0.0000
vn 0.0000 1.0000 0.0000
vn 0.0000 1.0000 0.0000
vn 0.0000 1.0000 0.0000
vn 0.0000 1.0000 0.0000
vn 0.0000 1.0000 0.0000
vn 0.0000 1.0000 0.0000
f 1 2 3
f 4 5 6
f 7 8 9
f 10 11 12
f 13 14 15
f 16 17 18
f 19 20 21
f 22 23 24
f 25 26 27
f 28 29 30
f 31 32 33
f 34 35 36
f 37 38 39
f 40 41 42
f 43 44 45
f 46 47 48
f 49 50 51
f 52 53 54
f 55 56 57
f 58 59 60
f 61 62 63
f 64 65 66
f 67 68 69
f 70 71 72
f 73 74 75
f 76 77 78
f 79 80 81
