# PSO Extracted Authentic Geometry
v -0.0001 0.0007 0.3739
v 6.0014 -0.0000 -0.0000
v -176.6375 0.0000 -0.0000
v -2.0000 0.0000 -0.0000
v 0.0000 1043.4688 0.0000
v -0.0000 704.0186 -0.0000
v -32.0001 0.0000 0.0000
v -0.0000 704.0186 -0.0000
v 0.0000 0.0000 2.0000
v 0.0000 0.5000 0.0000
v 2.0000 0.0000 0.5000
v 0.0000 0.0000 2.0000
v 0.0000 0.5000 0.0000
v 0.0000 0.0000 2.0000
v 0.0000 0.5000 0.0000
v 0.1254 0.0000 0.0000
v 0.0000 0.0000 2.0000
v 0.0000 0.5000 0.0000
v 0.0000 -3.6099 0.0000
v 0.0000 -0.0000 68.7529
v 0.0000 0.0000 2.0000
v 0.0000 0.5000 0.0000
v 0.2247 -0.0009 0.0000
v 3304.7161 -0.0000 0.0000
v 0.0000 0.0000 -3576.5249
v -941.5469 0.0000 0.0000
v 0.0000 -0.2519 -0.0000
v 0.0000 -0.0001 3304.7148
v 0.0000 0.0000 2.0000
v 0.0000 0.5000 0.0000
v 705.3311 0.0000 0.0000
v -8.0001 0.0000 0.0000
v 2.0000 0.0000 0.5000
v 0.0000 8.0000 -0.0000
v 0.0000 0.0000 -0.0126
v 0.0000 0.0000 3789.3401
v -0.0000 -0.0137 0.0000
v -0.0000 0.0126 0.0000
v 0.0000 0.0546 0.0000
v 3.2507 -0.0000 0.0000
v -0.0000 -0.2167 0.0000
v 14.3866 -0.0000 0.0000
v 0.0000 0.1252 0.0000
v 2.0000 0.0000 0.5000
v 0.0000 0.0312 0.0000
v -0.0000 705.4873 -0.0000
v 705.1924 -0.0007 -0.0000
v -8.0001 0.0000 0.0000
v -0.0000 705.6592 -0.0007
v -0.0000 -0.0000 705.6592
v -8.0000 -0.0000 0.0000
v -0.0000 -0.5000 0.0000
v -8.0000 0.1250 -0.0020
v 705.0186 0.0000 0.0000
v 3.2656 0.0000 0.0000
v 0.0000 0.0637 0.0000
v 0.0000 0.0138 0.0000
v 0.8494 0.0000 0.0000
v -0.0000 0.8494 0.0000
v 3.2656 0.0000 0.0000
v 0.0126 0.0000 -0.0682
v 3.2656 0.0000 0.0000
v 0.0000 0.0637 0.0000
v 0.0000 0.0138 0.0000
v 0.8494 0.0000 0.0000
v -0.0000 0.8494 0.0000
v 3.2656 0.0000 0.0000
v 0.0126 0.0000 -0.0682
v 0.0000 0.0000 3.2656
v 3.2656 0.0000 0.0000
v 0.0000 0.0000 0.1250
v -0.0313 0.0000 0.0000
vn 0.0000 1.0000 0.0000
vn 0.0000 1.0000 0.0000
vn 0.0000 1.0000 0.0000
vn 0.0000 1.0000 0.0000
vn 0.0000 1.0000 0.0000
vn 0.0000 1.0000 0.0000
vn 0.0000 1.0000 0.0000
vn 0.0000 1.0000 0.0000
vn 0.0000 1.0000 0.0000
vn 0.0000 1.0000 0.0000
vn 0.0000 1.0000 0.0000
vn 0.0000 1.0000 0.0000
vn 0.0000 1.0000 0.0000
vn 0.0000 1.0000 0.0000
vn 0.0000 1.0000 0.0000
vn 0.0000 1.0000 0.0000
vn 0.0000 1.0000 0.0000
vn 0.0000 1.0000 0.0000
vn 0.0000 1.0000 0.0000
vn 0.0000 1.0000 0.0000
vn 0.0000 1.0000 0.0000
vn 0.0000 1.0000 0.0000
vn 0.0000 1.0000 0.0000
vn 0.0000 1.0000 0.0000
vn 0.0000 1.0000 0.0000
vn 0.0000 1.0000 0.0000
vn 0.0000 1.0000 0.0000
vn 0.0000 1.0000 0.0000
vn 0.0000 1.0000 0.0000
vn 0.0000 1.0000 0.0000
vn 0.0000 1.0000 0.0000
vn 0.0000 1.0000 0.0000
vn 0.0000 1.0000 0.0000
vn 0.0000 1.0000 0.0000
vn 0.0000 1.0000 0.0000
vn 0.0000 1.0000 0.0000
vn 0.0000 1.0000 0.0000
vn 0.0000 1.0000 0.0000
vn 0.0000 1.0000 0.0000
vn 0.0000 1.0000 0.0000
vn 0.0000 1.0000 0.0000
vn 0.0000 1.0000 0.0000
vn 0.0000 1.0000 0.0000
vn 0.0000 1.0000 0.0000
vn 0.0000 1.0000 0.0000
vn 0.0000 1.0000 0.0000
vn 0.0000 1.0000 0.0000
vn 0.0000 1.0000 0.0000
vn 0.0000 1.0000 0.0000
vn 0.0000 1.0000 0.0000
vn 0.0000 1.0000 0.0000
vn 0.0000 1.0000 0.0000
vn 0.0000 1.0000 0.0000
vn 0.0000 1.0000 0.0000
vn 0.0000 1.0000 0.0000
vn 0.0000 1.0000 0.0000
vn 0.0000 1.0000 0.0000
vn 0.0000 1.0000 0.0000
vn 0.0000 1.0000 0.0000
vn 0.0000 1.0000 0.0000
vn 0.0000 1.0000 0.0000
vn 0.0000 1.0000 0.0000
vn 0.0000 1.0000 0.0000
vn 0.0000 1.0000 0.0000
vn 0.0000 1.0000 0.0000
vn 0.0000 1.0000 0.0000
vn 0.0000 1.0000 0.0000
vn 0.0000 1.0000 0.0000
vn 0.0000 1.0000 0.0000
vn 0.0000 1.0000 0.0000
vn 0.0000 1.0000 0.0000
vn 0.0000 1.0000 0.0000
f 1 2 3
f 4 5 6
f 7 8 9
f 10 11 12
f 13 14 15
f 16 17 18
f 19 20 21
f 22 23 24
f 25 26 27
f 28 29 30
f 31 32 33
f 34 35 36
f 37 38 39
f 40 41 42
f 43 44 45
f 46 47 48
f 49 50 51
f 52 53 54
f 55 56 57
f 58 59 60
f 61 62 63
f 64 65 66
f 67 68 69
f 70 71 72
