# PSO Extracted Authentic Geometry
v 0.0000 0.0000 -0.1250
v 0.0000 0.0000 128.0000
v 0.0000 0.0000 -2.0000
v 0.0000 0.0000 -128.0000
v 0.0000 0.0000 128.0000
v 0.0000 0.0000 2.0000
v 0.0000 0.0000 -0.0312
v 0.0000 0.0000 8.0000
v 0.0000 0.0000 -32.0000
v 0.0000 0.0000 8.0000
v 0.0000 0.0000 -2.0000
v 0.0000 0.0000 -512.0000
v 0.0000 0.0000 2048.0000
v 0.0000 0.0000 2.0000
v 0.0000 0.0000 -32.0000
v 0.0000 0.0000 512.0000
v 0.0000 0.0000 2.0000
v 0.0000 0.0000 -0.1250
v 0.0000 0.0000 -512.0000
v 0.0000 0.0000 2.0000
v 0.0000 0.0000 32.0000
v 0.0000 0.0000 -0.0312
v 0.0000 0.0000 -2.0000
v 0.0000 0.0000 -512.0000
v 0.0000 0.0000 0.5000
v 0.0000 0.0000 -0.5000
v 0.0000 0.0000 -128.0000
v 0.0000 0.0000 2.0000
v 0.0000 0.0000 -2.0000
v 0.0000 0.0000 -2048.0000
v 0.0000 0.0000 0.1250
v 0.0000 0.0000 2.0000
v 0.0000 0.0000 -2.0000
v 0.0000 0.0000 -512.0000
v 0.0000 0.0000 512.0000
v 0.0000 0.0000 2048.0000
v 0.0000 0.0000 -32.0000
v 0.0000 0.0000 0.1250
v 0.0000 0.0000 -128.0000
v 0.0000 0.0000 -512.0000
v 0.0000 0.0000 8.0000
v 0.0000 0.0000 32.0000
v 0.0000 0.0000 512.0000
v 0.0000 0.0000 -128.0000
v 0.0000 0.0000 0.1250
v 0.0000 0.0000 512.0000
v 0.0000 0.0000 -0.0312
v 0.0000 0.0000 0.5000
v 0.0000 0.0000 8.0000
v 0.0000 0.0000 32.0000
v 0.0000 0.0000 0.0312
vn 0.0000 1.0000 0.0000
vn 0.0000 1.0000 0.0000
vn 0.0000 1.0000 0.0000
vn 0.0000 1.0000 0.0000
vn 0.0000 1.0000 0.0000
vn 0.0000 1.0000 0.0000
vn 0.0000 1.0000 0.0000
vn 0.0000 1.0000 0.0000
vn 0.0000 1.0000 0.0000
vn 0.0000 1.0000 0.0000
vn 0.0000 1.0000 0.0000
vn 0.0000 1.0000 0.0000
vn 0.0000 1.0000 0.0000
vn 0.0000 1.0000 0.0000
vn 0.0000 1.0000 0.0000
vn 0.0000 1.0000 0.0000
vn 0.0000 1.0000 0.0000
vn 0.0000 1.0000 0.0000
vn 0.0000 1.0000 0.0000
vn 0.0000 1.0000 0.0000
vn 0.0000 1.0000 0.0000
vn 0.0000 1.0000 0.0000
vn 0.0000 1.0000 0.0000
vn 0.0000 1.0000 0.0000
vn 0.0000 1.0000 0.0000
vn 0.0000 1.0000 0.0000
vn 0.0000 1.0000 0.0000
vn 0.0000 1.0000 0.0000
vn 0.0000 1.0000 0.0000
vn 0.0000 1.0000 0.0000
vn 0.0000 1.0000 0.0000
vn 0.0000 1.0000 0.0000
vn 0.0000 1.0000 0.0000
vn 0.0000 1.0000 0.0000
vn 0.0000 1.0000 0.0000
vn 0.0000 1.0000 0.0000
vn 0.0000 1.0000 0.0000
vn 0.0000 1.0000 0.0000
vn 0.0000 1.0000 0.0000
vn 0.0000 1.0000 0.0000
vn 0.0000 1.0000 0.0000
vn 0.0000 1.0000 0.0000
vn 0.0000 1.0000 0.0000
vn 0.0000 1.0000 0.0000
vn 0.0000 1.0000 0.0000
vn 0.0000 1.0000 0.0000
vn 0.0000 1.0000 0.0000
vn 0.0000 1.0000 0.0000
vn 0.0000 1.0000 0.0000
vn 0.0000 1.0000 0.0000
vn 0.0000 1.0000 0.0000
f 1 2 3
f 4 5 6
f 7 8 9
f 10 11 12
f 13 14 15
f 16 17 18
f 19 20 21
f 22 23 24
f 25 26 27
f 28 29 30
f 31 32 33
f 34 35 36
f 37 38 39
f 40 41 42
f 43 44 45
f 46 47 48
f 49 50 51
