# PSO Extracted Authentic Geometry
v 11.5132 0.0000 -0.0000
v 11.5132 0.0000 -0.0000
v -0.0000 -0.0000 1.9995
v -0.0000 2.0003 0.0000
v 2.0003 0.0000 0.0000
v 0.0000 0.2133 -0.0000
v 0.0000 -0.0000 4384.0308
v 2539.5000 0.0000 0.0000
v -0.0000 0.0000 2539.5000
v 3.8239 -0.0000 -0.0000
v -0.0000 1.9995 -0.0000
v -0.0000 -0.0000 1.9995
v -0.0000 1.9995 0.0000
v -0.0000 0.4364 -0.0000
v 705.4873 0.0000 0.0000
v 705.4873 0.0000 0.0000
v 0.0000 32.0099 -0.0000
v 0.0000 -8.0025 0.0000
v -11.0616 0.0000 1195.7188
v 705.3623 44.1037 0.0000
v 0.0000 -8.0025 0.0000
vn 0.0000 1.0000 0.0000
vn 0.0000 1.0000 0.0000
vn 0.0000 1.0000 0.0000
vn 0.0000 1.0000 0.0000
vn 0.0000 1.0000 0.0000
vn 0.0000 1.0000 0.0000
vn 0.0000 1.0000 0.0000
vn 0.0000 1.0000 0.0000
vn 0.0000 1.0000 0.0000
vn 0.0000 1.0000 0.0000
vn 0.0000 1.0000 0.0000
vn 0.0000 1.0000 0.0000
vn 0.0000 1.0000 0.0000
vn 0.0000 1.0000 0.0000
vn 0.0000 1.0000 0.0000
vn 0.0000 1.0000 0.0000
vn 0.0000 1.0000 0.0000
vn 0.0000 1.0000 0.0000
vn 0.0000 1.0000 0.0000
vn 0.0000 1.0000 0.0000
vn 0.0000 1.0000 0.0000
f 1 2 3
f 4 5 6
f 7 8 9
f 10 11 12
f 13 14 15
f 16 17 18
f 19 20 21
