# PSO Extracted Authentic Geometry
v 0.0000 0.0000 0.0471
v 0.0000 0.0000 0.0938
v 0.0000 0.0000 0.0957
v 0.0000 0.0000 0.0981
v 0.0000 0.0000 0.1006
v 0.0000 0.0000 0.1572
v 0.0000 0.0000 0.3457
v 0.0000 0.0000 0.8477
v 0.0000 0.0000 1.9766
v 0.0000 0.0000 2.0625
v 0.0000 0.0000 2.7656
v 0.0000 0.0000 2.8906
v 0.0000 0.0000 2.9688
v 0.0000 0.0000 3.7344
v 0.0000 0.0000 4.8125
v 0.0000 0.0000 5.0312
v 0.0000 0.0000 5.2500
v 0.0000 0.0000 6.2812
v 0.0000 0.0000 6.4375
v 0.0000 0.0000 22.7500
v 0.0000 0.0000 27.0000
v 0.0000 0.0000 29.1250
v 0.0000 0.0000 63.0000
v 0.0000 0.0000 72.5000
v 0.0000 0.0000 81.0000
v 0.0000 0.0000 103.5000
v 0.0000 0.0000 112.5000
v 0.0000 0.0000 120.0000
v 0.0000 0.0000 392.0000
v 0.0000 0.0000 494.0000
v 0.0000 0.0000 506.0000
v 0.0000 0.0000 528.0000
v 0.0000 0.0000 540.0000
v 0.0000 0.0000 736.0000
v 0.0000 0.0000 752.0000
v 0.0000 0.0000 788.0000
v 0.0000 0.0000 800.0000
v 0.0000 0.0000 1352.0000
v 0.0000 0.0000 1384.0000
v 0.0000 0.0000 1456.0000
v 0.0000 0.0000 1504.0000
v 0.0000 0.0000 1536.0000
v 0.0000 0.0000 1552.0000
v 0.0000 0.0000 1592.0000
v 0.0000 0.0000 1776.0000
v 0.0000 0.0000 2064.0000
v 0.0000 0.0000 2160.0000
v 0.0000 0.0000 2304.0000
v 0.0000 0.0000 3824.0000
v 0.0000 0.0000 4288.0000
v 0.0000 0.0000 4576.0000
v -71.6223 -0.0000 0.0000
v 0.0000 -0.0000 -71.6223
v -0.0000 -71.6223 -0.0000
v 0.0000 -0.0000 -71.6223
v -0.0000 -71.6223 -0.0000
v -71.6223 -0.0000 0.0000
v 0.0000 -0.0000 -71.6223
v -0.0000 -71.6223 -0.0000
v -71.6223 -0.0000 0.0000
v 0.0000 -0.0000 -71.6223
v -0.0000 -71.6223 -0.0000
v -0.0000 -71.6223 -0.0000
v 0.0000 -0.0000 -71.6223
v 0.0000 -0.0000 -71.6223
v 0.0000 -0.0000 -71.6223
v 0.0000 -0.0000 -71.6223
v 0.0000 -0.0000 -71.6223
v -0.0000 -71.6223 -0.0000
v -71.6223 -0.0000 0.0000
v 0.0000 -0.0000 -71.6223
v -0.0000 -71.6223 -0.0000
v -71.6223 -0.0000 0.0000
v 0.0000 -0.0000 -71.6223
v -0.0000 -71.6223 -0.0000
v -0.0000 -71.6223 -0.0000
v 0.0000 -0.0000 -71.6223
v -0.0000 -71.6223 -0.0000
v -71.6223 -0.0000 0.0000
v 0.0000 -0.0000 -71.6223
v -0.0000 -71.6223 -0.0000
v -71.6223 -0.0000 0.0000
v 0.0000 -0.0000 -71.6223
v 0.0000 -0.0000 -71.6223
v 0.0000 -0.0000 -71.6223
v 0.0000 -0.0000 -71.6223
v 0.0000 -0.0000 -71.6223
v 0.0000 -0.0000 -71.6223
v -0.0000 705.6592 0.0000
v -0.0000 0.0000 828.4062
v -0.0000 -236.2593 0.0000
v -0.0000 44.1428 -0.0000
v 0.0598 0.3770 0.0000
v -3.6974 -0.0000 -0.0000
v 0.8284 0.0008 -279.3539
v 0.0000 0.0000 0.0623
v 0.1021 0.0000 0.0000
v 0.1670 0.2988 0.0000
v 0.9531 1.7734 0.0000
v 0.0603 0.0000 0.0000
v -0.0000 0.0586 3.6875
v -0.0000 -236.2593 0.0000
v -0.0000 44.1428 -0.0000
v -0.0000 0.0078 0.3906
v -3.6964 -0.0000 -0.0000
v 0.2123 0.0000 0.0000
v 0.0000 0.0000 0.0138
v 0.0000 -0.0176 -0.0000
v -0.9630 -0.0000 0.0000
v 3.2507 -0.0000 0.0000
v 0.0000 -277.5895 0.0000
v 0.0000 0.0138 0.2123
v 0.0000 0.0000 0.0564
v 0.0903 0.0000 0.0000
v 0.1436 0.2559 0.0000
v 0.8594 1.5859 0.0000
v 0.0544 0.0000 0.0000
v 0.0000 -0.0000 2822.8940
v 0.0000 -0.0000 44.1428
v -0.0000 0.0000 825.4219
v -0.0000 0.0000 -0.0536
v 705.3311 0.0000 0.0000
vn 0.0000 1.0000 0.0000
vn 0.0000 1.0000 0.0000
vn 0.0000 1.0000 0.0000
vn 0.0000 1.0000 0.0000
vn 0.0000 1.0000 0.0000
vn 0.0000 1.0000 0.0000
vn 0.0000 1.0000 0.0000
vn 0.0000 1.0000 0.0000
vn 0.0000 1.0000 0.0000
vn 0.0000 1.0000 0.0000
vn 0.0000 1.0000 0.0000
vn 0.0000 1.0000 0.0000
vn 0.0000 1.0000 0.0000
vn 0.0000 1.0000 0.0000
vn 0.0000 1.0000 0.0000
vn 0.0000 1.0000 0.0000
vn 0.0000 1.0000 0.0000
vn 0.0000 1.0000 0.0000
vn 0.0000 1.0000 0.0000
vn 0.0000 1.0000 0.0000
vn 0.0000 1.0000 0.0000
vn 0.0000 1.0000 0.0000
vn 0.0000 1.0000 0.0000
vn 0.0000 1.0000 0.0000
vn 0.0000 1.0000 0.0000
vn 0.0000 1.0000 0.0000
vn 0.0000 1.0000 0.0000
vn 0.0000 1.0000 0.0000
vn 0.0000 1.0000 0.0000
vn 0.0000 1.0000 0.0000
vn 0.0000 1.0000 0.0000
vn 0.0000 1.0000 0.0000
vn 0.0000 1.0000 0.0000
vn 0.0000 1.0000 0.0000
vn 0.0000 1.0000 0.0000
vn 0.0000 1.0000 0.0000
vn 0.0000 1.0000 0.0000
vn 0.0000 1.0000 0.0000
vn 0.0000 1.0000 0.0000
vn 0.0000 1.0000 0.0000
vn 0.0000 1.0000 0.0000
vn 0.0000 1.0000 0.0000
vn 0.0000 1.0000 0.0000
vn 0.0000 1.0000 0.0000
vn 0.0000 1.0000 0.0000
vn 0.0000 1.0000 0.0000
vn 0.0000 1.0000 0.0000
vn 0.0000 1.0000 0.0000
vn 0.0000 1.0000 0.0000
vn 0.0000 1.0000 0.0000
vn 0.0000 1.0000 0.0000
vn 0.0000 1.0000 0.0000
vn 0.0000 1.0000 0.0000
vn 0.0000 1.0000 0.0000
vn 0.0000 1.0000 0.0000
vn 0.0000 1.0000 0.0000
vn 0.0000 1.0000 0.0000
vn 0.0000 1.0000 0.0000
vn 0.0000 1.0000 0.0000
vn 0.0000 1.0000 0.0000
vn 0.0000 1.0000 0.0000
vn 0.0000 1.0000 0.0000
vn 0.0000 1.0000 0.0000
vn 0.0000 1.0000 0.0000
vn 0.0000 1.0000 0.0000
vn 0.0000 1.0000 0.0000
vn 0.0000 1.0000 0.0000
vn 0.0000 1.0000 0.0000
vn 0.0000 1.0000 0.0000
vn 0.0000 1.0000 0.0000
vn 0.0000 1.0000 0.0000
vn 0.0000 1.0000 0.0000
vn 0.0000 1.0000 0.0000
vn 0.0000 1.0000 0.0000
vn 0.0000 1.0000 0.0000
vn 0.0000 1.0000 0.0000
vn 0.0000 1.0000 0.0000
vn 0.0000 1.0000 0.0000
vn 0.0000 1.0000 0.0000
vn 0.0000 1.0000 0.0000
vn 0.0000 1.0000 0.0000
vn 0.0000 1.0000 0.0000
vn 0.0000 1.0000 0.0000
vn 0.0000 1.0000 0.0000
vn 0.0000 1.0000 0.0000
vn 0.0000 1.0000 0.0000
vn 0.0000 1.0000 0.0000
vn 0.0000 1.0000 0.0000
vn 0.0000 1.0000 0.0000
vn 0.0000 1.0000 0.0000
vn 0.0000 1.0000 0.0000
vn 0.0000 1.0000 0.0000
vn 0.0000 1.0000 0.0000
vn 0.0000 1.0000 0.0000
vn 0.0000 1.0000 0.0000
vn 0.0000 1.0000 0.0000
vn 0.0000 1.0000 0.0000
vn 0.0000 1.0000 0.0000
vn 0.0000 1.0000 0.0000
vn 0.0000 1.0000 0.0000
vn 0.0000 1.0000 0.0000
vn 0.0000 1.0000 0.0000
vn 0.0000 1.0000 0.0000
vn 0.0000 1.0000 0.0000
vn 0.0000 1.0000 0.0000
vn 0.0000 1.0000 0.0000
vn 0.0000 1.0000 0.0000
vn 0.0000 1.0000 0.0000
vn 0.0000 1.0000 0.0000
vn 0.0000 1.0000 0.0000
vn 0.0000 1.0000 0.0000
vn 0.0000 1.0000 0.0000
vn 0.0000 1.0000 0.0000
vn 0.0000 1.0000 0.0000
vn 0.0000 1.0000 0.0000
vn 0.0000 1.0000 0.0000
vn 0.0000 1.0000 0.0000
vn 0.0000 1.0000 0.0000
vn 0.0000 1.0000 0.0000
vn 0.0000 1.0000 0.0000
vn 0.0000 1.0000 0.0000
vn 0.0000 1.0000 0.0000
f 1 2 3
f 4 5 6
f 7 8 9
f 10 11 12
f 13 14 15
f 16 17 18
f 19 20 21
f 22 23 24
f 25 26 27
f 28 29 30
f 31 32 33
f 34 35 36
f 37 38 39
f 40 41 42
f 43 44 45
f 46 47 48
f 49 50 51
f 52 53 54
f 55 56 57
f 58 59 60
f 61 62 63
f 64 65 66
f 67 68 69
f 70 71 72
f 73 74 75
f 76 77 78
f 79 80 81
f 82 83 84
f 85 86 87
f 88 89 90
f 91 92 93
f 94 95 96
f 97 98 99
f 100 101 102
f 103 104 105
f 106 107 108
f 109 110 111
f 112 113 114
f 115 116 117
f 118 119 120
