# PSO Extracted Authentic Geometry
v 0.0000 117.2007 0.0000
v 0.0000 0.0000 800.0000
v 0.0000 0.0000 50.0000
v -5.0000 0.0000 0.1172
v 0.0000 0.0000 1.0000
v 1.0000 1.0000 0.0000
v 8.0314 -42.4980 -1600.0001
v 0.0000 -1599.9998 0.0000
v 8.0314 -35.8078 -1600.0001
v 0.0000 -799.9998 0.0000
v 8.0314 -32.4588 -1600.0000
v 8.0314 -29.1137 -1599.9998
v 0.0000 800.0002 0.0000
v 8.0314 -25.7686 -1599.9998
v 0.0000 1600.0001 0.0000
v 5.0196 -42.4980 -400.0003
v 0.0000 -1600.0000 -0.0000
v 5.0196 -35.8078 -400.0001
v 0.0000 -799.9999 -0.0000
v 5.0196 -32.4588 -400.0000
v 5.0196 -29.1137 -399.9999
v 0.0000 800.0001 -0.0000
v 5.0196 -25.7686 -399.9997
v 0.0000 1600.0000 -0.0000
v 4.0157 -42.4980 -0.0003
v 0.0000 -1600.0000 -0.0000
v 4.0157 -35.8078 -0.0001
v 0.0000 -800.0000 -0.0000
v 4.0157 -32.4588 0.0000
v 4.0157 -29.1137 0.0001
v 0.0000 800.0000 -0.0000
v 4.0157 -25.7686 0.0003
v 0.0000 1600.0000 -0.0000
v 3.0118 -42.4980 399.9997
v 0.0000 -1600.0000 -0.0000
v 3.0118 -35.8078 399.9999
v 0.0000 -800.0001 -0.0000
v 3.0118 -32.4588 400.0000
v 3.0118 -29.1137 400.0001
v 0.0000 799.9999 -0.0000
v 3.0118 -25.7686 400.0003
v 0.0000 1600.0000 -0.0000
v 0.0000 -42.4980 1599.9998
v 0.0000 -1600.0001 0.0000
v 0.0000 -35.8078 1599.9998
v 0.0000 -800.0002 0.0000
v 0.0000 -32.4588 1600.0000
v 0.0000 -29.1137 1600.0001
v 0.0000 799.9998 0.0000
v 0.0000 -25.7686 1600.0001
v 0.0000 1599.9998 0.0000
v 0.0000 1.0000 0.0000
v 1.0000 1.0000 1.0000
v 0.3216 0.0000 0.0000
v -0.0000 10.5000 -6.5000
v 53.6889 0.0000 0.0000
v 0.0000 -3.5000 0.0000
v 1.0000 1.0000 1.0000
v 1.0000 0.0000 0.0000
v -0.0000 -0.3195 1.5000
v 126.6244 0.0000 0.0000
v 1.0000 1.0000 1.0000
v 10.5000 -6.5000 53.6889
v -0.5000 0.0000 0.0000
v 0.0000 0.0000 1.0000
v 1.0000 1.0000 0.0000
v 72.7500 -0.0000 308.6949
v 0.0000 0.0000 1.0000
v 1.0000 1.0000 0.0000
vn 0.0000 1.0000 0.0000
vn 0.0000 1.0000 0.0000
vn 0.0000 1.0000 0.0000
vn 0.0000 1.0000 0.0000
vn 0.0000 1.0000 0.0000
vn 0.0000 1.0000 0.0000
vn 0.0000 1.0000 0.0000
vn 0.0000 1.0000 0.0000
vn 0.0000 1.0000 0.0000
vn 0.0000 1.0000 0.0000
vn 0.0000 1.0000 0.0000
vn 0.0000 1.0000 0.0000
vn 0.0000 1.0000 0.0000
vn 0.0000 1.0000 0.0000
vn 0.0000 1.0000 0.0000
vn 0.0000 1.0000 0.0000
vn 0.0000 1.0000 0.0000
vn 0.0000 1.0000 0.0000
vn 0.0000 1.0000 0.0000
vn 0.0000 1.0000 0.0000
vn 0.0000 1.0000 0.0000
vn 0.0000 1.0000 0.0000
vn 0.0000 1.0000 0.0000
vn 0.0000 1.0000 0.0000
vn 0.0000 1.0000 0.0000
vn 0.0000 1.0000 0.0000
vn 0.0000 1.0000 0.0000
vn 0.0000 1.0000 0.0000
vn 0.0000 1.0000 0.0000
vn 0.0000 1.0000 0.0000
vn 0.0000 1.0000 0.0000
vn 0.0000 1.0000 0.0000
vn 0.0000 1.0000 0.0000
vn 0.0000 1.0000 0.0000
vn 0.0000 1.0000 0.0000
vn 0.0000 1.0000 0.0000
vn 0.0000 1.0000 0.0000
vn 0.0000 1.0000 0.0000
vn 0.0000 1.0000 0.0000
vn 0.0000 1.0000 0.0000
vn 0.0000 1.0000 0.0000
vn 0.0000 1.0000 0.0000
vn 0.0000 1.0000 0.0000
vn 0.0000 1.0000 0.0000
vn 0.0000 1.0000 0.0000
vn 0.0000 1.0000 0.0000
vn 0.0000 1.0000 0.0000
vn 0.0000 1.0000 0.0000
vn 0.0000 1.0000 0.0000
vn 0.0000 1.0000 0.0000
vn 0.0000 1.0000 0.0000
vn 0.0000 1.0000 0.0000
vn 0.0000 1.0000 0.0000
vn 0.0000 1.0000 0.0000
vn 0.0000 1.0000 0.0000
vn 0.0000 1.0000 0.0000
vn 0.0000 1.0000 0.0000
vn 0.0000 1.0000 0.0000
vn 0.0000 1.0000 0.0000
vn 0.0000 1.0000 0.0000
vn 0.0000 1.0000 0.0000
vn 0.0000 1.0000 0.0000
vn 0.0000 1.0000 0.0000
vn 0.0000 1.0000 0.0000
vn 0.0000 1.0000 0.0000
vn 0.0000 1.0000 0.0000
vn 0.0000 1.0000 0.0000
vn 0.0000 1.0000 0.0000
vn 0.0000 1.0000 0.0000
f 1 2 3
f 4 5 6
f 7 8 9
f 10 11 12
f 13 14 15
f 16 17 18
f 19 20 21
f 22 23 24
f 25 26 27
f 28 29 30
f 31 32 33
f 34 35 36
f 37 38 39
f 40 41 42
f 43 44 45
f 46 47 48
f 49 50 51
f 52 53 54
f 55 56 57
f 58 59 60
f 61 62 63
f 64 65 66
f 67 68 69
