# PSO Extracted Authentic Geometry
v 0.0000 0.0000 0.2000
v 0.0000 0.2000 0.0000
v 0.2000 0.0000 0.0000
v 0.0000 0.0000 0.2000
v 0.0000 0.2000 0.0000
v 0.2000 0.0000 0.0000
v 0.0000 0.0000 0.2000
v 0.0000 0.2000 0.0000
v 0.2000 0.0000 0.0000
v 0.0000 0.0000 0.2000
v 0.0000 -5.0000 0.0000
v 5.0000 0.0000 0.0000
v 0.0000 71.3018 0.0000
v 0.0000 0.0000 -595.0000
v 0.0000 40.0000 0.0000
v 0.0000 0.0000 71.3018
v -1115.0000 0.0000 -360.0000
v 71.3018 0.0000 0.0000
v 0.0000 310.0000 0.0000
v -430.0000 0.0000 0.0000
v 0.0000 71.3018 0.0000
v 0.0000 0.0000 -5.0000
v 0.0000 -170.0000 0.0000
v 0.0000 0.0000 113.2450
v -5.0000 0.0000 545.0000
v 82.3520 0.0000 0.0000
v 0.0000 590.0000 0.0000
v -170.0000 0.0000 0.0000
v 0.0000 82.3520 0.0000
v 0.0000 0.0000 -855.0000
v 0.0000 720.0000 0.0000
v 0.0000 0.0000 82.3520
v -855.0000 0.0000 -640.0000
v 82.3520 0.0000 0.0000
v 0.0000 -455.0000 0.0000
v 40.0000 0.0000 0.0000
v 0.0000 82.3520 0.0000
v 0.0000 0.0000 -1255.0000
v 0.0000 -360.0000 0.0000
v 0.0000 0.0000 82.3520
v 310.0000 0.0000 -570.0000
v 82.3520 0.0000 0.0000
v -170.0000 0.0000 0.0000
v 0.0000 239.5387 0.0000
v 0.0000 40.0000 0.0000
v 0.0000 0.0000 239.5387
v 310.0000 0.0000 -170.0000
v 226.3150 0.0000 0.0000
v 0.0000 -855.0000 0.0000
v 40.0000 0.0000 0.0000
v 0.0000 226.3150 0.0000
v 0.0000 -370.0000 0.0000
v 0.0000 0.0000 39.3393
v 310.0000 0.0000 30.0000
v 39.3393 0.0000 0.0000
v 265.0000 0.0000 0.0000
v 0.0000 39.3393 0.0000
v 0.0000 265.0000 0.0000
v 0.0000 0.0000 39.3393
v -1055.0000 0.0000 440.0000
v 39.3393 0.0000 0.0000
v 40.0000 0.0000 0.0000
v 0.0000 39.3393 0.0000
v 0.0000 -360.0000 0.0000
v 0.0000 0.0000 39.3393
v -655.0000 0.0000 -360.0000
v 39.3393 0.0000 0.0000
v 440.0000 0.0000 0.0000
v 0.0000 39.3393 0.0000
v 0.0000 40.0000 0.0000
v 0.0000 0.0000 39.3393
v -5.0000 0.0000 265.0000
v 215.5620 0.0000 0.0000
v 440.0000 0.0000 0.0000
v 0.0000 215.5620 0.0000
v 0.0000 -360.0000 0.0000
v 0.0000 0.0000 215.5620
v -5.0000 0.0000 265.0000
v 165.8735 0.0000 0.0000
v 0.0000 -855.0000 0.0000
v 440.0000 0.0000 0.0000
v 0.0000 165.8735 0.0000
v 0.0000 0.0000 -855.0000
v 0.0000 -360.0000 0.0000
v 0.0000 0.0000 165.8735
v 0.0000 0.0000 800.0000
v 0.0000 0.3253 40.0456
v 0.0000 89.6303 0.0000
v 0.0000 1.0000 1.0000
v 1.0000 0.0000 0.0000
v 1.0000 0.0000 0.0000
v 0.0000 20.0000 0.0000
v -0.0000 7.0711 0.0000
v 0.0000 1.0000 1.0000
v 1.0000 0.0000 0.0000
v -20.0000 0.0000 0.0000
v 7.0711 0.0000 0.0000
v 1.0000 1.0000 1.0000
v 2.5098 -4.0157 0.0000
v 0.0000 25.0000 0.0000
v 0.0000 37.6198 0.0000
v 0.0000 1.0000 1.0000
v 1.0000 0.0000 0.0000
v -4.0157 0.0000 0.0000
v -25.0000 0.0000 0.0000
v 37.6198 0.0000 0.0000
v 1.0000 1.0000 1.0000
v 0.0000 0.0000 45.0000
v -0.0000 95.9844 0.0000
v 0.0000 1.0000 1.0000
v 1.0000 0.0000 0.0000
v 0.3205 40.0456 0.0000
v 105.6375 0.0000 0.0000
v 1.0000 1.0000 1.0000
v 1.0000 0.0000 0.0000
v 0.0000 20.0000 0.0000
v -0.0000 7.0711 0.0000
v 0.0000 1.0000 1.0000
v 1.0000 0.0000 0.0000
v -20.0000 0.0000 0.0000
v 7.0711 0.0000 0.0000
v 1.0000 1.0000 1.0000
v 2.0078 -1.0039 0.0000
v 0.0000 25.0000 0.0000
v 0.0000 75.0600 0.0000
v 0.0000 1.0000 1.0000
v 1.0000 0.0000 0.0000
v 2.0078 -1.0039 0.0000
v 0.0000 -25.0000 0.0000
v 0.0000 75.0600 0.0000
v 0.0000 1.0000 1.0000
v 1.0000 0.0000 0.0000
v 2.0078 -1.3137 0.0000
v 0.0000 45.0000 -0.0000
v 113.2829 0.0000 0.0000
v 1.0000 1.0000 1.0000
v 0.0000 1.0000 0.0000
v 0.3205 40.0456 0.0000
v 124.6366 0.0000 0.0000
v 1.0000 1.0000 1.0000
v 20.0000 0.0000 -0.0000
v 7.0711 0.0000 0.0000
v 1.0000 1.0000 1.0000
v 0.3333 1.0000 0.0000
v 0.0000 0.0000 20.0000
v 0.0000 70.0000 7.0711
v 0.0000 0.0000 1.0000
v 1.0000 1.0000 0.0000
v 1.0000 0.0000 0.0000
v 0.0000 -20.0000 0.0000
v 70.0000 7.0711 0.0000
v 0.0000 1.0000 1.0000
v 1.0000 0.0000 0.0000
v -20.0000 0.0000 0.0000
v 7.0711 0.0000 0.0000
v 1.0000 1.0000 1.0000
v 25.0000 0.0000 0.0000
v 110.0409 0.0000 0.0000
v 1.0000 1.0000 1.0000
v -25.0000 0.0000 0.0000
v 110.0409 0.0000 0.0000
v 1.0000 1.0000 1.0000
v 2.0078 -1.3137 0.0000
v 0.0000 45.0000 -0.0000
v 133.0526 0.0000 0.0000
v 1.0000 1.0000 1.0000
v 0.3333 1.0000 0.0000
v 0.0000 0.0000 -20.0000
v 0.0000 -70.0000 7.0711
v 0.0000 0.0000 1.0000
v 1.0000 1.0000 0.0000
v 1.0000 0.0000 0.0000
v 0.0000 20.0000 0.0000
v -70.0000 7.0711 0.0000
v 0.0000 1.0000 1.0000
v 1.0000 0.0000 0.0000
v -4.7047 90.0181 12.8102
v 140.9080 0.0000 0.0000
v 1.0000 1.0000 1.0000
v 1.0353 -2.3098 0.0000
v -100.0000 88.7025 -0.0000
v 150.1192 0.0000 0.0000
v 1.0000 1.0000 1.0000
v 88.7746 0.0000 150.0655
v 0.0000 0.0000 1.0000
v 1.0000 1.0000 0.0000
v 0.0000 0.0000 -59.9561
v -0.0000 59.8569 56.7008
v 0.0000 0.0000 1.0000
v 1.0000 1.0000 0.0000
v 0.0314 0.0039 0.0000
v 0.0000 -33.4561 -0.0000
v 33.3569 94.1774 0.0000
v 0.0000 1.0000 1.0000
v 1.0000 0.0000 0.0000
v -2.0078 0.0000 0.0000
v 0.0000 0.0000 85.9512
v -26.1267 122.5979 0.0000
v 0.0000 1.0000 1.0000
v 1.0000 0.0000 0.0000
v 1.0000 0.0000 0.0000
v 0.0000 -0.0000 86.3665
v 56.9744 122.1291 0.0000
v 0.0000 1.0000 1.0000
v 1.0000 0.0000 0.0000
v -2.3216 0.0000 0.0000
v -0.0000 88.3329 0.0000
v 150.3951 0.0000 0.0000
v 1.0000 1.0000 1.0000
v -2.3216 0.0000 0.0000
v -0.0000 88.3329 -0.0000
v 150.3951 0.0000 0.0000
v 1.0000 1.0000 1.0000
v 0.9922 0.0000 0.0000
v 0.0000 -0.0000 -31.5000
v 100.3852 0.0000 0.0000
v 1.0000 1.0000 1.0000
v 59.8569 107.7565 0.0000
v 0.0000 1.0000 1.0000
v 1.0000 0.0000 0.0000
v -0.0000 90.8380 0.0000
v 148.4910 0.0000 0.0000
v 1.0000 1.0000 1.0000
v 86.8043 -0.0000 151.4972
v 0.0000 0.0000 1.0000
v 1.0000 1.0000 0.0000
v -3.4784 0.0000 0.0000
v 0.0000 -0.0000 86.8043
v -0.0000 151.4973 0.0000
v 0.0000 1.0000 1.0000
v 1.0000 0.0000 0.0000
v 3.9843 0.4902 0.0000
v 0.0000 141.4213 0.0000
v 0.0000 1.0000 1.0000
v 1.0000 0.0000 0.0000
v -2.6314 0.0000 0.0000
v 0.0000 0.4356 86.8406
v -0.6205 281.9836 0.0000
v 0.0000 1.0000 1.0000
v 1.0000 0.0000 0.0000
v 187.4500 0.0000 283.2588
v 0.0000 0.0000 1.0000
v 1.0000 1.0000 0.0000
v 140.4000 0.0000 -99.6000
v 0.0000 89.1000 0.0000
v -85.0000 0.0000 61.4000
v 0.0000 -50.0000 0.0000
v 60.4000 0.0000 -54.5000
v 0.0000 91.0000 0.0000
v -78.4000 0.0000 101.2000
v 0.0000 -117.6000 0.0000
v 122.5000 0.0000 -139.1000
v 0.0000 117.2000 0.0000
v -100.2000 0.0000 45.3000
v 0.0000 -14.7000 0.0000
v 44.6000 0.0000 -17.2000
v 0.0000 17.8000 0.0000
v 6.5000 0.0000 14.3000
v 0.0000 5.4000 0.0000
v 3.3000 0.0000 32.5000
v 0.0000 3.7000 0.0000
v 27.9000 0.0000 -29.1000
v 0.0000 51.6000 0.0000
v -14.0000 0.0000 44.2000
v 0.0000 -65.1000 0.0000
v 65.3000 0.0000 -46.7000
v 0.0000 59.3000 0.0000
v -96.8000 0.0000 79.4000
v 0.0000 -80.3000 0.0000
v 87.2000 0.0000 -93.3000
v 0.0000 123.1000 0.0000
v -119.7000 0.0000 131.6000
v 0.0000 -148.3000 0.0000
v 102.7000 0.0000 -132.1000
v 0.0000 82.6000 0.0000
v -156.7000 0.0000 123.5000
v 0.0000 -144.7000 0.0000
v 134.4000 0.0000 145.4000
v 0.0000 -140.2000 0.0000
v 143.8000 0.0000 -119.5000
v 0.0000 -7.0087 0.0000
v 0.1455 223.2489 0.0000
v 0.0000 0.0000 -9.9000
v 0.0000 1.0000 1.0000
v 1.0000 0.0000 0.0000
v 0.0000 0.4980 0.0000
v -1.4182 100.9913 2.7226
v 356.6649 0.0000 0.0000
v 0.0000 -20.0000 0.0000
v 1.0000 1.5000 1.0000
v 0.0000 0.0000 88.2000
v -19.9000 89.0000 0.0000
v 198.7000 -19.9000 90.0000
v 0.0000 200.0000 -19.9000
v 137.0000 0.0000 198.7000
v -19.9000 218.8000 0.0000
v 102.3000 -19.9000 264.0000
v 0.0000 35.4000 -19.9000
v 238.6000 0.0000 31.4000
v -19.9000 168.1000 0.0000
v -19.9000 249.3000 0.0000
v 157.1000 -19.9000 77.8000
v 0.0000 115.7000 -19.9000
v 170.9000 125.5950 0.0000
v 0.0000 1.0000 1.0000
v 1.0000 0.0000 0.0000
v 0.4980 0.0000 0.0000
v 29.9000 0.0000 39.3393
v 0.0000 0.0000 1.0000
v 1.0000 1.0000 0.0000
v 30.0000 -0.0000 30.1040
v 0.0000 0.0000 1.0000
v 1.0000 1.0000 0.0000
v -0.2941 0.0000 0.0000
v 0.0000 -484.6418 183.7281
v 10.3547 598.0405 0.0000
v 0.0000 1.0000 1.0000
v 1.0000 0.0000 0.0000
v -0.1843 0.0000 0.0000
v 486.1785 186.5232 -2.8989
v 582.8547 0.0000 0.0000
v 1.0000 1.0000 1.0000
v 1.0000 0.0000 0.0000
v 125.0000 -329.3768 703.5765
v 0.0000 0.0000 1.0000
v 1.0000 1.0000 0.0000
v 125.0000 319.3719 703.4062
v 0.0000 0.0000 1.0000
v 1.0000 1.0000 0.0000
v 0.0000 -3.0118 0.0000
v -6.0000 145.0000 247.0324
v 0.0000 0.0000 1.0000
v 1.0000 1.0000 0.0000
v 0.0000 -6.0000 -145.0000
v 247.0324 0.0000 0.0000
v 1.0000 1.0000 1.0000
v 1.0000 0.0000 0.0000
v 0.0000 0.0000 -45.0000
v 0.0000 84.8528 0.0000
v 0.0000 1.0000 1.0000
v 1.0000 0.0000 0.0000
v 4.0157 0.7804 0.0000
v 0.0000 0.0000 -0.7015
v 75.2149 0.6770 280.3215
v 0.0000 0.0000 1.0000
v 1.0000 1.0000 0.0000
v -0.0000 0.0000 160.0000
v 0.0000 4.0157 0.0000
v 0.0000 0.0000 -162.0000
v -168.0000 0.0000 1.0000
v 0.0000 2.0353 0.0000
v 162.0000 0.0000 0.0000
v 0.0000 2.0275 1.0000
v 162.0000 0.0000 0.0000
v 0.0000 2.0275 1.0000
v 119.0000 0.0000 -121.0000
v 0.0000 0.9725 1.0000
v 91.0000 0.0000 -137.0000
v 0.0000 0.7294 1.0000
v 63.0000 0.0000 -156.0000
v 0.0000 0.4745 1.0000
v 31.0000 0.0000 -161.0000
v 0.0000 0.2314 1.0000
v 133.0000 0.0000 -88.0000
v 0.0000 1.2431 1.0000
v 133.0000 0.0000 -88.0000
v 0.0000 1.2431 1.0000
v 164.0000 0.0000 -66.0000
v 0.0000 1.5255 1.0000
v 167.0000 0.0000 -32.0000
v 0.0000 1.7843 1.0000
v 120.0000 0.0000 118.0000
v 0.0000 3.0118 1.0000
v 141.0000 0.0000 92.0000
v 0.0000 2.7608 1.0000
v 141.0000 0.0000 92.0000
v 0.0000 2.7608 1.0000
v 147.0000 0.0000 59.0000
v 0.0000 2.5098 1.0000
v 165.0000 0.0000 31.0000
v 0.0000 2.2588 1.0000
v 87.0000 0.0000 128.0000
v 0.0000 3.2706 1.0000
v 60.0000 0.0000 150.0000
v 0.0000 3.5333 1.0000
v 60.0000 0.0000 150.0000
v 0.0000 3.5333 1.0000
v 33.0000 0.0000 165.0000
v 0.0000 3.7647 1.0000
v -31.0000 0.0000 162.0000
v 0.0000 3.7725 0.0000
v -59.0000 0.0000 148.0000
v 0.0000 3.5255 0.0000
v -85.0000 0.0000 127.0000
v 0.0000 3.2667 0.0000
v -114.0000 0.0000 113.0000
v 0.0000 3.0118 0.0000
v -127.0000 0.0000 87.0000
v 0.0000 2.7843 0.0000
v -127.0000 0.0000 87.0000
v 0.0000 2.7843 0.0000
v -145.0000 0.0000 59.0000
v 0.0000 2.5255 0.0000
v -159.0000 0.0000 30.0000
v 0.0000 2.2745 0.0000
v -118.0000 0.0000 -116.0000
v 0.0000 1.0314 0.0000
v -118.0000 0.0000 -116.0000
v 0.0000 1.0314 0.0000
v -145.0000 0.0000 -61.0000
v 0.0000 1.5176 0.0000
v -136.0000 0.0000 -91.0000
v 0.0000 1.2706 0.0000
v -159.0000 0.0000 -29.0000
v 0.0000 1.7882 0.0000
v -62.0000 0.0000 -150.0000
v 0.0000 0.5137 0.0000
v -62.0000 0.0000 -150.0000
v 0.0000 0.5137 0.0000
v -88.0000 0.0000 -131.0000
v 0.0000 0.7686 0.0000
v -88.0000 0.0000 -131.0000
v 0.0000 0.7686 0.0000
v -33.0000 0.0000 -165.0000
v 0.0000 0.2588 0.0000
v -0.0000 0.0000 160.0000
v 0.0000 4.0157 1.0000
v 0.0000 0.0000 -162.0000
v 0.0000 0.0000 1.0000
v 0.0000 0.0000 -162.0000
v 0.0000 0.0000 1.0000
v 0.0000 0.0000 -3.1418
v 0.2500 0.4544 247.8060
v 0.0000 0.0000 1.0000
v 1.0000 1.0000 0.0000
v 0.0000 0.0000 148.4975
v 73.8943 131.6259 109.6439
v 0.0000 0.0000 1.0000
v 1.0000 1.0000 0.0000
v 0.0000 1.0000 0.0000
v 0.0000 131.0643 70.3583
v -155.0445 97.8528 0.0000
v 0.0000 1.0000 1.0000
v 1.0000 0.0000 0.0000
v 0.0000 187.4500 0.0000
v 283.2588 0.0000 0.0000
v 1.0000 1.0000 1.0000
v 0.0000 0.0000 9.3512
v -20.0000 0.0000 88.3129
v 0.0000 0.0000 1.0000
v 1.0000 1.0000 0.0000
v 9.3512 -20.0000 0.0000
v 106.8839 0.0000 0.0000
v 1.0000 1.0000 1.0000
v -4.0157 0.0000 0.0000
v 0.0000 7.6328 -20.0000
v 0.0000 128.5489 0.0000
v 0.0000 1.0000 1.0000
v 1.0000 0.0000 0.0000
v 5.0196 -4.0157 0.0000
v 0.0000 -19.0000 0.0000
v 140.9839 0.0000 0.0000
v 1.0000 1.0000 1.0000
v 0.0000 0.0000 -19.0000
v 0.0000 140.9839 0.0000
v 0.0000 1.0000 1.0000
v 1.0000 0.0000 0.0000
v -4.0157 0.0000 0.0000
v -19.0000 0.0000 140.9839
v 0.0000 0.0000 1.0000
v 1.0000 1.0000 0.0000
v 9.8431 -4.4431 0.0000
v 1.6696 58.7695 4.9360
v 108.9695 0.0000 0.0000
v 1.0000 1.0000 1.0000
v 0.0000 -0.0219 1.5000
v 0.1784 282.9843 0.0000
v 0.0000 1.0000 1.0000
v 1.0000 0.0000 0.0000
v 115.5473 20.0000 -157.3280
v 0.0000 165.6901 20.0000
v -159.5387 0.0000 160.5491
v 20.0000 -116.5645 0.0000
v -118.1156 20.0000 161.4059
v 0.0000 -159.4323 20.0000
v 155.3528 0.0000 -182.3522
v 20.0000 124.8199 0.0000
v 53.0000 20.0000 -9.0000
v 0.0000 -40.0000 20.0000
v 71.6000 0.0000 -5.1000
v 20.0000 59.8000 0.0000
v -83.0000 20.0000 142.0000
v 0.0000 98.0001 20.0000
v -73.9000 0.0000 71.8000
v 20.0000 -47.4000 0.0000
v 149.0000 20.0000 -85.0000
v 0.0000 32.5000 20.0000
v -24.0000 0.0000 -168.0000
v 20.0000 91.0000 0.0000
v -71.0000 20.0000 46.0000
v 0.0000 78.6000 20.0000
v -87.0000 0.0000 -143.5000
v 20.0000 61.8000 0.0000
v 86.0000 20.0000 -134.0000
v 0.0000 46.9000 20.0000
v -59.3000 0.0000 22.0000
v 20.0000 12.0000 0.0000
v -4.7000 20.0000 22.6000
v -65.7265 20.0000 103.9372
v 0.0000 8.9000 20.0000
v 36.4000 0.0000 -100.0500
v 20.0000 61.8000 0.0000
v 20.0000 -83.2000 0.0000
v -8.3310 10.0000 0.9336
v 236.7165 0.0000 0.0000
v 0.0000 -9.9000 0.0000
v 1.0000 1.0000 1.0000
v 1.0000 0.0000 0.0000
v 0.0000 0.0500 2.0000
v 0.0000 282.8781 0.0000
v 0.0000 0.0000 -0.1000
v 0.0000 1.0000 1.0000
v 1.0000 0.0000 0.0000
v -10.0000 0.0000 268.7389
v 0.0000 0.0000 1.0000
v 1.0000 1.0000 0.0000
v 2.0078 -19.0745 0.0000
v -1.4311 -20.0000 6.1938
v 353.5060 0.0000 0.0000
v 1.0000 1.0000 1.0000
v -2.2118 0.0000 0.0000
v 0.0000 0.0000 138.7869
v 138.3012 190.4256 176.8007
v 0.0000 0.0000 1.0000
v 1.0000 1.0000 0.0000
v 1.0000 -30.0000 10.0000
v -10.0000 0.0000 0.0000
v 0.0000 -30.0000 10.0000
v 10.0000 0.0000 0.0000
v 0.0000 -10.0000 10.0000
v 30.0000 0.0000 0.3333
v 0.0000 10.0000 10.0000
v 30.0000 0.0000 0.6706
v 0.0000 30.0000 10.0000
v 10.0000 0.0000 1.0039
v 0.0000 30.0000 10.0000
v -10.0000 0.0000 1.0039
v 0.0000 -10.0000 10.0000
v -30.0000 0.0000 0.3333
v 0.0000 10.0000 10.0000
v -30.0000 0.0000 0.6706
v 0.0000 30.0000 10.0000
v -10.0000 0.0000 0.0000
v 0.0000 30.0000 10.0000
v -10.0000 0.0000 0.0000
v 0.0000 30.0000 10.0000
v 10.0000 0.0000 0.0000
v 1.0000 0.0000 0.0000
v 5.0000 0.0000 42.4264
v 10.0000 0.0000 0.0000
v 0.0000 0.0000 1.0000
v 1.0000 1.0000 0.0000
v -19.9999 0.0000 365.0000
v -240.0000 33.0000 0.0000
v 0.0000 -240.0000 33.0000
v -211.0000 33.0000 164.0000
v 33.0000 289.0000 0.0000
v 33.0000 350.0000 0.0000
v -136.0000 33.0000 318.0000
v 0.0000 -49.9999 -2.0000
v 365.0000 0.0000 -49.9999
v 33.0000 365.0000 0.0000
v -130.0000 15.5000 182.5000
v 213.0874 0.0000 0.0000
v 1.0000 1.0000 1.0000
v 19.9999 0.0000 -365.0000
v 240.0000 33.0000 -0.0000
v 0.0000 240.0000 33.0000
v 225.0000 33.0000 -168.0000
v 33.0000 -295.0000 0.0000
v 33.0000 -348.0000 0.0000
v 150.0000 33.0000 -325.0000
v 0.0000 49.9999 -2.0000
v -365.0000 0.0000 49.9999
v 33.0000 -365.0000 0.0000
v 129.9999 15.5000 -182.5000
v 213.0874 0.0000 0.0000
v 1.0000 1.0000 1.0000
v -20.0000 0.0000 -365.0000
v -240.0000 33.0000 0.0000
v 0.0000 -240.0000 33.0000
v -210.0000 33.0000 -160.0000
v 33.0000 -289.0000 0.0000
v 33.0000 -324.0000 0.0000
v -81.0001 33.0000 -347.0000
v 0.0000 -50.0000 33.0000
v -365.0000 0.0000 -50.0000
v -2.0000 -365.0000 0.0000
v 0.0000 0.0000 -130.0000
v 15.5000 -182.5000 213.0874
v 0.0000 0.0000 1.0000
v 1.0000 1.0000 0.0000
v 20.0000 0.0000 365.0000
v 240.0000 33.0000 -0.0000
v 0.0000 240.0000 33.0000
v 191.0000 33.0000 159.0000
v 33.0000 298.9999 0.0000
v 33.0000 329.0000 0.0000
v 98.0001 33.0000 350.0000
v 0.0000 57.0000 33.0000
v 365.0000 0.0000 57.0000
v -2.0000 365.0000 0.0000
v 0.0000 0.0000 130.0000
v 15.5000 182.5000 213.0874
v 0.0000 0.0000 1.0000
v 1.0000 1.0000 0.0000
v 0.0000 -605.5602 125.6266
v -129.9054 551.9793 0.0000
v 0.0000 1.0000 1.0000
v 1.0000 0.0000 0.0000
v 0.0000 -17.0667 0.0000
v -654.5015 159.9438 12.6875
v 475.2690 0.0000 0.0000
v 1.0000 1.0000 1.0000
v -17.0667 0.0000 0.0000
v 0.0000 0.0000 331.0091
v 52.6516 -232.7446 238.5266
v 0.0000 0.0000 1.0000
v 1.0000 1.0000 0.0000
v 579.9723 181.3061 251.5005
v 487.6804 0.0000 0.0000
v 1.0000 1.0000 1.0000
v 0.0000 -17.0667 0.0000
v 0.0000 0.0000 572.3912
v 156.5437 -127.2309 499.0118
v 0.0000 0.0000 1.0000
v 1.0000 1.0000 0.0000
v -17.0667 0.0000 0.0000
v 636.1745 182.9170 14.0127
v 429.0781 0.0000 0.0000
v 1.0000 1.0000 1.0000
v -17.0667 0.0000 0.0000
v 0.0000 -536.8552 149.3772
v -244.5991 454.6036 0.0000
v 0.0000 1.0000 1.0000
v 1.0000 0.0000 0.0000
v -17.0667 0.0000 0.0000
v -396.2457 80.0819 108.4814
v 426.6423 0.0000 0.0000
v 1.0000 1.0000 1.0000
v 480.4070 95.1206 120.0259
v 312.8792 0.0000 0.0000
v 1.0000 1.0000 1.0000
v 0.0000 0.0000 17.6777
v 0.0000 -17.6777 0.0000
v 0.0000 0.0000 -25.0000
v 0.0000 -17.6777 0.0000
v -17.6777 0.0000 -25.0000
v -17.6777 0.0000 17.6777
v 25.0000 0.0000 17.6777
v 0.0000 17.6777 0.0000
v 25.0000 0.0000 0.0000
v 65.0000 0.1000 -29.0000
v 1.0000 1.0000 1.0000
v 17.6777 0.0000 -17.6777
v -25.0000 0.0000 -17.6777
v 0.0000 -17.6777 0.0000
v -25.0000 0.0000 0.0000
v 0.0000 -17.6777 0.0000
v 17.6777 0.0000 0.0000
v 0.0000 25.0000 0.0000
v 17.6777 0.0000 17.6777
v 0.0000 25.0000 0.0000
v 0.0000 -26.0000 0.1000
v 104.0000 0.0000 0.0000
v 0.0000 1.0000 1.0000
v 1.0000 0.0000 0.0000
v 25.0000 0.0000 0.0000
v 0.0000 17.6777 0.0000
v -17.6777 0.0000 0.0000
v 0.0000 -25.0000 0.0000
v -17.6777 0.0000 -17.6777
v 0.0000 -25.0000 0.0000
v 0.0000 0.0000 -17.6777
v 0.0000 17.6777 0.0000
v 0.0000 0.0000 25.0000
v 0.0000 17.6777 0.0000
v 17.6777 0.0000 0.0000
v 0.0000 0.0000 25.0000
v 0.0000 0.0000 -111.0000
v 0.1000 -25.0000 0.0000
v 0.0000 0.0000 1.0000
v 1.0000 1.0000 0.0000
v 0.0000 0.0000 17.6777
v 0.0000 -17.6777 0.0000
v 0.0000 0.0000 -25.0000
v 0.0000 -17.6777 0.0000
v -17.6777 0.0000 -25.0000
v -17.6777 0.0000 17.6777
v 25.0000 0.0000 17.6777
v 0.0000 17.6777 0.0000
v 25.0000 0.0000 0.0000
v -103.0000 0.1000 -113.0000
v 1.0000 1.0000 1.0000
v 17.6777 0.0000 -17.6777
v -25.0000 0.0000 -17.6777
v 0.0000 -17.6777 0.0000
v -25.0000 0.0000 0.0000
v 0.0000 -17.6777 0.0000
v 17.6777 0.0000 0.0000
v 0.0000 25.0000 0.0000
v 17.6777 0.0000 17.6777
v 0.0000 25.0000 0.0000
v 0.0000 -36.0000 0.1000
v -106.0000 0.0000 0.0000
v 0.0000 1.0000 1.0000
v 1.0000 0.0000 0.0000
v 25.0000 0.0000 0.0000
v 0.0000 17.6777 0.0000
v -17.6777 0.0000 0.0000
v 0.0000 -25.0000 0.0000
v -17.6777 0.0000 -17.6777
v 0.0000 -25.0000 0.0000
v 0.0000 0.0000 -17.6777
v 0.0000 17.6777 0.0000
v 0.0000 0.0000 25.0000
v 0.0000 17.6777 0.0000
v 17.6777 0.0000 0.0000
v 0.0000 0.0000 25.0000
v 0.0000 0.0000 -105.0000
v 0.1000 86.0000 0.0000
v 0.0000 0.0000 1.0000
v 1.0000 1.0000 0.0000
v 0.0000 0.0000 17.6777
v 0.0000 -17.6777 0.0000
v 0.0000 0.0000 -25.0000
v 0.0000 -17.6777 0.0000
v -17.6777 0.0000 -25.0000
v -17.6777 0.0000 17.6777
v 25.0000 0.0000 17.6777
v 0.0000 17.6777 0.0000
v 25.0000 0.0000 0.0000
v 128.0000 0.1000 58.0000
v 1.0000 1.0000 1.0000
v 17.6777 0.0000 -17.6777
v -25.0000 0.0000 -17.6777
v 0.0000 -17.6777 0.0000
v -25.0000 0.0000 0.0000
v 0.0000 -17.6777 0.0000
v 17.6777 0.0000 0.0000
v 0.0000 25.0000 0.0000
v 17.6777 0.0000 17.6777
v 0.0000 25.0000 0.0000
v 0.0000 84.0000 0.1000
v 120.0000 0.0000 0.0000
v 0.0000 1.0000 1.0000
v 1.0000 0.0000 0.0000
v 25.0000 0.0000 0.0000
v 0.0000 17.6777 0.0000
v -17.6777 0.0000 0.0000
v 0.0000 -25.0000 0.0000
v -17.6777 0.0000 -17.6777
v 0.0000 -25.0000 0.0000
v 0.0000 0.0000 -17.6777
v 0.0000 17.6777 0.0000
v 0.0000 0.0000 25.0000
v 0.0000 17.6777 0.0000
v 17.6777 0.0000 0.0000
v 0.0000 0.0000 25.0000
v 0.0000 0.0000 119.0000
v 0.1000 -106.0000 0.0000
v 0.0000 0.0000 1.0000
v 1.0000 1.0000 0.0000
v 0.0000 0.0000 17.6777
v 0.0000 -17.6777 0.0000
v 0.0000 0.0000 -25.0000
v 0.0000 -17.6777 0.0000
v -17.6777 0.0000 -25.0000
v -17.6777 0.0000 17.6777
v 25.0000 0.0000 17.6777
v 0.0000 17.6777 0.0000
v 25.0000 0.0000 0.0000
v 15.0000 0.1000 17.0000
v 1.0000 1.0000 1.0000
v -7.5647 0.0000 0.0000
v -0.0500 0.0000 200.0000
v 0.0000 0.0000 1.0000
v 1.0000 1.0000 0.0000
v 0.0000 0.0000 17.6777
v 0.0000 -17.6777 0.0000
v 0.0000 0.0000 -25.0000
v 0.0000 -17.6777 0.0000
v -17.6777 0.0000 -25.0000
v -17.6777 0.0000 17.6777
v 25.0000 0.0000 17.6777
v 0.0000 17.6777 0.0000
v 25.0000 0.0000 0.0000
v 65.0000 0.1000 -29.0000
v 1.0000 1.0000 1.0000
v 17.6777 0.0000 -17.6777
v -25.0000 0.0000 -17.6777
v 0.0000 -17.6777 0.0000
v -25.0000 0.0000 0.0000
v 0.0000 -17.6777 0.0000
v 17.6777 0.0000 0.0000
v 0.0000 25.0000 0.0000
v 17.6777 0.0000 17.6777
v 0.0000 25.0000 0.0000
v 0.0000 -26.0000 0.1000
v 104.0000 0.0000 0.0000
v 0.0000 1.0000 1.0000
v 1.0000 0.0000 0.0000
v 25.0000 0.0000 0.0000
v 0.0000 17.6777 0.0000
v -17.6777 0.0000 0.0000
v 0.0000 -25.0000 0.0000
v -17.6777 0.0000 -17.6777
v 0.0000 -25.0000 0.0000
v 0.0000 0.0000 -17.6777
v 0.0000 17.6777 0.0000
v 0.0000 0.0000 25.0000
v 0.0000 17.6777 0.0000
v 17.6777 0.0000 0.0000
v 0.0000 0.0000 25.0000
v 0.0000 0.0000 -111.0000
v 0.1000 -25.0000 0.0000
v 0.0000 0.0000 1.0000
v 1.0000 1.0000 0.0000
v 0.0000 0.0000 17.6777
v 0.0000 -17.6777 0.0000
v 0.0000 0.0000 -25.0000
v 0.0000 -17.6777 0.0000
v -17.6777 0.0000 -25.0000
v -17.6777 0.0000 17.6777
v 25.0000 0.0000 17.6777
v 0.0000 17.6777 0.0000
v 25.0000 0.0000 0.0000
v -103.0000 0.1000 -113.0000
v 1.0000 1.0000 1.0000
v 17.6777 0.0000 -17.6777
v -25.0000 0.0000 -17.6777
v 0.0000 -17.6777 0.0000
v -25.0000 0.0000 0.0000
v 0.0000 -17.6777 0.0000
v 17.6777 0.0000 0.0000
v 0.0000 25.0000 0.0000
v 17.6777 0.0000 17.6777
v 0.0000 25.0000 0.0000
v 0.0000 -36.0000 0.1000
v -106.0000 0.0000 0.0000
v 0.0000 1.0000 1.0000
v 1.0000 0.0000 0.0000
v 25.0000 0.0000 0.0000
v 0.0000 17.6777 0.0000
v -17.6777 0.0000 0.0000
v 0.0000 -25.0000 0.0000
v -17.6777 0.0000 -17.6777
v 0.0000 -25.0000 0.0000
v 0.0000 0.0000 -17.6777
v 0.0000 17.6777 0.0000
v 0.0000 0.0000 25.0000
v 0.0000 17.6777 0.0000
v 17.6777 0.0000 0.0000
v 0.0000 0.0000 25.0000
v 0.0000 0.0000 -105.0000
v 0.1000 86.0000 0.0000
v 0.0000 0.0000 1.0000
v 1.0000 1.0000 0.0000
v 0.0000 0.0000 17.6777
v 0.0000 -17.6777 0.0000
v 0.0000 0.0000 -25.0000
v 0.0000 -17.6777 0.0000
v -17.6777 0.0000 -25.0000
v -17.6777 0.0000 17.6777
v 25.0000 0.0000 17.6777
v 0.0000 17.6777 0.0000
v 25.0000 0.0000 0.0000
v 128.0000 0.1000 58.0000
v 1.0000 1.0000 1.0000
v 17.6777 0.0000 -17.6777
v -25.0000 0.0000 -17.6777
v 0.0000 -17.6777 0.0000
v -25.0000 0.0000 0.0000
v 0.0000 -17.6777 0.0000
v 17.6777 0.0000 0.0000
v 0.0000 25.0000 0.0000
v 17.6777 0.0000 17.6777
v 0.0000 25.0000 0.0000
v 0.0000 84.0000 0.1000
v 120.0000 0.0000 0.0000
v 0.0000 1.0000 1.0000
v 1.0000 0.0000 0.0000
v 25.0000 0.0000 0.0000
v 0.0000 17.6777 0.0000
v -17.6777 0.0000 0.0000
v 0.0000 -25.0000 0.0000
v -17.6777 0.0000 -17.6777
v 0.0000 -25.0000 0.0000
v 0.0000 0.0000 -17.6777
v 0.0000 17.6777 0.0000
v 0.0000 0.0000 25.0000
v 0.0000 17.6777 0.0000
v 17.6777 0.0000 0.0000
v 0.0000 0.0000 25.0000
v 0.0000 0.0000 119.0000
v 0.1000 -106.0000 0.0000
v 0.0000 0.0000 1.0000
v 1.0000 1.0000 0.0000
v 0.0000 0.0000 17.6777
v 0.0000 -17.6777 0.0000
v 0.0000 0.0000 -25.0000
v 0.0000 -17.6777 0.0000
v -17.6777 0.0000 -25.0000
v -17.6777 0.0000 17.6777
v 25.0000 0.0000 17.6777
v 0.0000 17.6777 0.0000
v 25.0000 0.0000 0.0000
v 15.0000 0.1000 17.0000
v 1.0000 1.0000 1.0000
v -3.6784 0.0000 0.0000
v -0.0500 0.0000 282.8427
v 0.0000 0.0000 1.0000
v 1.0000 1.0000 0.0000
v 0.0000 30.5000 0.0000
v 36.1257 0.0000 0.0000
v 1.0000 1.0000 1.0000
v 1.0000 0.0000 0.0000
v 0.0000 30.5000 0.0000
v 35.8653 0.0000 0.0000
v 1.0000 1.0000 1.0000
v -24.0941 0.0000 0.0000
v 0.0000 0.0000 30.5000
v 0.0000 50.0507 0.0000
v 0.0000 1.0000 1.0000
v 1.0000 0.0000 0.0000
v 42.5000 0.0000 0.0000
v 1.0000 1.0000 1.0000
v 0.0000 0.0000 35.5000
v -42.5000 47.8174 0.0000
v 0.0000 1.0000 1.0000
v 1.0000 0.0000 0.0000
v 0.0196 0.0000 0.0000
v 0.0000 35.5000 42.5000
v 47.8174 0.0000 0.0000
v 1.0000 1.0000 1.0000
v 77.6209 0.0000 0.0000
v 1.0000 1.0000 1.0000
v 0.0196 0.0000 0.0000
v 35.5000 -67.5000 47.8174
v 0.0000 0.0000 1.0000
v 1.0000 1.0000 0.0000
v 0.0000 0.0196 0.0000
v 0.0000 0.0000 35.5000
v 67.5000 47.8174 0.0000
v 0.0000 1.0000 1.0000
v 1.0000 0.0000 0.0000
v -3.0353 0.0000 0.0000
v 111.8034 0.0000 0.0000
v 1.0000 1.0000 1.0000
v 0.0000 0.0000 35.5000
v -92.5000 47.8174 0.0000
v 0.0000 1.0000 1.0000
v 1.0000 0.0000 0.0000
v 0.0196 0.0000 0.0000
v 0.0000 35.5000 92.5000
v 47.8174 0.0000 0.0000
v 1.0000 1.0000 1.0000
v -0.0000 35.5000 97.5000
v 47.8174 0.0000 0.0000
v 1.0000 1.0000 1.0000
v 0.0000 0.0000 -97.5000
v 35.5000 0.0000 59.8352
v 0.0000 0.0000 1.0000
v 1.0000 1.0000 0.0000
v 1.0039 0.7451 0.0000
v 0.0000 0.0000 -37.6910
v 0.0273 37.7566 88.0719
v 0.0000 0.0000 1.0000
v 1.0000 1.0000 0.0000
v 0.6157 0.0000 0.0000
v 97.5000 35.5000 0.0000
v 59.8352 0.0000 0.0000
v 1.0000 1.0000 1.0000
v -97.5000 35.5000 0.0000
v 59.8352 0.0000 0.0000
v 1.0000 1.0000 1.0000
v 0.0000 35.5000 97.5000
v 47.8174 0.0000 0.0000
v 1.0000 1.0000 1.0000
v 0.0000 0.0273 37.7566
v 117.7890 0.0000 0.0000
v 1.0000 1.0000 1.0000
v 0.0000 0.0196 0.0000
v 35.5000 -97.5000 47.8174
v 0.0000 0.0000 1.0000
v 1.0000 1.0000 0.0000
v 2.4784 0.6157 0.0000
v 35.5000 97.5000 47.8174
v 0.0000 0.0000 1.0000
v 1.0000 1.0000 0.0000
v 2.4784 0.6157 0.0000
v 0.0000 97.5000 35.5000
v 0.0000 59.8352 0.0000
v 0.0000 1.0000 1.0000
v 1.0000 0.0000 0.0000
v 0.0196 0.0000 0.0000
v 0.0000 -97.5000 35.5000
v 0.0000 59.8352 0.0000
v 0.0000 1.0000 1.0000
v 1.0000 0.0000 0.0000
v 0.7451 0.0000 0.0000
v 0.0000 -0.0000 0.0273
v 0.0000 141.4213 0.0000
v 0.0000 1.0000 1.0000
v 1.0000 0.0000 0.0000
v 0.5333 -1.3059 0.0000
v 0.0000 0.0000 1.6531
v 58.6826 4.8872 107.8906
v 0.0000 0.0000 1.0000
v 1.0000 1.0000 0.0000
v 0.0000 0.0000 -4.5315
v -0.5000 3.0681 94.1501
v 0.0000 0.0000 1.0000
v 1.0000 1.0000 0.0000
v 0.0000 0.0000 35.5000
v -62.5000 47.8174 0.0000
v 0.0000 1.0000 1.0000
v 1.0000 0.0000 0.0000
v 0.0196 0.0000 0.0000
v 0.0000 0.0000 182.5000
v 35.5000 0.0000 59.8352
v 0.0000 0.0000 1.0000
v 1.0000 1.0000 0.0000
v 0.0000 0.0196 0.0000
v 0.0000 -0.0000 35.5000
v -182.5000 47.8174 0.0000
v 0.0000 1.0000 1.0000
v 1.0000 0.0000 0.0000
v 0.0196 0.0000 0.0000
v 0.0000 -182.5000 35.5000
v 0.0000 59.8352 0.0000
v 0.0000 1.0000 1.0000
v 1.0000 0.0000 0.0000
v 0.0196 0.0000 0.0000
v 35.5000 182.5000 47.8174
v 0.0000 0.0000 1.0000
v 1.0000 1.0000 0.0000
v 2.6235 -5.2118 0.0000
v 0.0000 -0.0219 2.0500
v 0.1784 282.9843 0.0000
v 0.0000 1.0000 1.0000
v 1.0000 0.0000 0.0000
v 0.0000 0.0500 -3.0000
v 0.0000 282.8781 0.0000
v 0.0000 1.0000 1.0000
v 1.0000 0.0000 0.0000
v 0.0000 1.0000 0.0000
v 0.0000 60.7735 -4.9500
v -79.2921 44.1574 0.0000
v 0.0000 1.0000 1.0000
v 1.0000 0.0000 0.0000
v 1.0000 0.0000 0.0000
v -14.1017 -4.9500 110.4147
v 42.4676 0.0000 0.0000
v 1.0000 1.0000 1.0000
v 0.0000 0.0000 -38.5421
v -4.9500 -83.3206 48.5441
v 0.0000 0.0000 1.0000
v 1.0000 1.0000 0.0000
v 0.0000 0.0196 0.0000
v 0.0000 -182.5000 35.5000
v 0.0000 59.8352 0.0000
v 0.0000 1.0000 1.0000
v 1.0000 0.0000 0.0000
v 0.0196 0.0000 0.0000
v 0.0000 -0.0000 35.5000
v 282.5000 47.8174 0.0000
v 0.0000 1.0000 1.0000
v 1.0000 0.0000 0.0000
v 0.0196 0.0000 0.0000
v 0.0000 0.0000 35.5000
v -282.5000 47.8174 0.0000
v 0.0000 1.0000 1.0000
v 1.0000 0.0000 0.0000
v 0.0196 0.0000 0.0000
v 0.0000 182.5000 35.5000
v 0.0000 59.8352 0.0000
v 0.0000 1.0000 1.0000
v 1.0000 0.0000 0.0000
v -10.0000 0.0000 360.5551
v 0.0000 0.0000 1.0000
v 1.0000 1.0000 0.0000
v -200.0000 0.1000 -20.0000
v 0.0000 0.0000 -9.0353
v -200.0000 0.1000 20.0000
v 0.0000 2.0078 -9.0353
v -159.0000 0.1000 20.0000
v 0.0000 2.0078 -8.0275
v -140.0000 0.1000 -20.0000
v 0.0000 0.0000 -7.5882
v -140.0000 0.1000 -20.0000
v 0.0000 0.0000 -7.5882
v -106.0000 -9.9000 40.0000
v 0.0000 2.0078 -6.6157
v -79.0000 -9.9000 34.0000
v 0.0000 2.0078 -5.9373
v -40.0000 -9.9000 32.0000
v 0.0000 2.0078 -4.9765
v -40.0000 -9.9000 32.0000
v 0.0000 2.0078 -4.9765
v 29.0000 -9.9000 29.0000
v 0.0000 2.0078 -3.2824
v 29.0000 -9.9000 29.0000
v 0.0000 2.0078 -3.2824
v 64.0000 -9.9000 26.0000
v 0.0000 2.0078 -2.4196
v 98.0637 -9.9000 27.6306
v 0.0000 2.0078 -1.5804
v 130.0000 -4.9000 30.0000
v 0.0000 2.0078 -0.7882
v 150.0000 0.1000 20.0000
v 0.0000 2.0078 -0.2235
v 150.0000 0.1000 20.0000
v 0.0000 2.0078 -0.2235
v 200.0000 0.1000 20.0000
v 0.0000 2.0078 1.0000
v 200.0000 0.1000 -20.0000
v 0.0000 0.0000 1.0000
v 160.0000 0.1000 -20.0000
v 0.0000 0.0000 0.0353
v 113.0000 -9.9000 -30.0000
v 0.0000 0.0000 -1.1451
v 113.0000 -9.9000 -30.0000
v 0.0000 0.0000 -1.1451
v 90.0000 -9.9000 -35.0000
v 0.0000 0.0000 -1.7137
v 25.5000 -9.9000 -14.5000
v 0.0000 0.0000 -3.3490
v -3.0000 -9.9000 -18.0000
v 0.0000 0.0000 -4.0431
v -52.0000 -9.9000 -31.0000
v 0.0000 0.0000 -5.2667
v -89.0000 -9.9000 -34.0000
v 0.0000 0.0000 -6.1608
v -114.0000 -9.9000 -39.0000
v 0.0000 0.0000 -6.7765
v -149.5000 0.1000 0.0000
v -1.0387 1.0039 -7.7804
v -110.0000 -9.9000 0.5000
v -0.9206 1.0039 -6.7686
v -84.0000 -9.9000 0.0000
v -0.8730 1.0039 -6.1216
v -84.0000 -9.9000 0.0000
v -0.8691 1.0039 -6.1216
v -8.0000 -9.9000 6.0000
v 1.6863 1.0039 -4.2235
v 27.2500 -9.9000 7.2500
v 1.4431 1.0039 -3.3451
v 121.5000 -7.4000 0.0000
v -0.9561 1.0039 -0.9686
v 155.0000 0.1000 0.0000
v -1.0150 1.0039 -0.1137
v 55.0000 -9.9000 -27.0000
v 0.0000 0.0000 -2.5765
v -13.0000 -9.9000 30.0000
v 0.0000 2.0078 -4.3137
v 0.0000 -4.9000 0.5000
v 203.8633 0.0000 0.0000
v 1.0000 1.0000 1.0000
v 0.0000 -20.0000 0.1000
v -300.0000 0.0000 0.0000
v 1.0000 -18.0000 0.1000
v -229.0000 0.0000 0.0000
v -0.8667 -25.0000 0.1000
v -199.0000 0.0000 0.0000
v -1.6745 -37.0000 0.1000
v -163.0000 0.0000 0.0000
v -2.6745 -47.0000 0.1000
v -113.0000 0.0000 0.0000
v -4.0157 -17.0000 0.1000
v -95.0000 0.0000 2.0078
v -4.0157 -6.0000 0.1000
v -145.0000 0.0000 2.0078
v -2.8000 14.0000 0.1000
v -123.0000 0.0000 0.0000
v -0.0471 31.0000 0.1000
v -94.5000 0.0000 0.0000
v -0.8667 84.0000 0.1000
v -110.0000 0.0000 2.0078
v -0.7529 59.0000 0.1000
v -144.0000 0.0000 2.0078
v 0.0510 11.0000 0.1000
v -180.0000 0.0000 2.0078
v 1.0000 22.0000 0.1000
v -226.0000 0.0000 2.0078
v -0.7529 20.0000 0.1000
v -300.0000 0.0000 2.0078
v 1.0000 -20.0000 0.1000
v -260.0000 0.0000 0.0000
v -0.0471 20.0000 0.1000
v -260.0000 0.0000 2.0078
v 1.0000 0.0000 0.1000
v -260.0000 -0.9838 1.0039
v 0.0000 2.0000 0.1000
v -227.5000 1.0385 1.0039
v -0.8118 36.5000 0.1000
v -133.5000 -1.5608 1.0039
v -2.3373 11.0000 0.1000
v -180.0000 0.0000 2.0078
v -1.8784 -6.0000 0.1000
v -145.0000 0.0000 0.0000
v 1.0000 0.0000 0.0000
v 0.0000 18.5000 0.1000
v -197.2500 121.8516 0.0000
v 0.0000 1.0000 1.0000
v 1.0000 0.0000 0.0000
v -20.0000 0.1000 300.0000
v 0.0000 3.0118 1.0000
v -20.0000 0.1000 265.0000
v 0.0000 2.4118 1.0000
v -27.0000 0.1000 251.0000
v 0.0000 2.1412 1.0000
v -32.0000 0.1000 199.0000
v 0.0000 1.2431 1.0000
v -46.0000 0.1000 128.0000
v 0.0000 0.0000 1.0000
v 12.0000 0.1000 140.0000
v 0.0000 0.0000 -1.0039
v 7.0000 0.1000 190.0000
v 0.0000 0.9255 -1.0039
v 24.0000 0.1000 243.0000
v 0.0000 1.9529 -1.0039
v 20.0000 0.1000 265.0000
v 0.0000 2.3647 -1.0039
v 20.0000 0.1000 300.0000
v 0.0000 3.0118 -1.0039
v 0.0000 0.1000 265.0000
v -0.9680 2.3804 0.0000
v 0.0000 0.0000 -11.0000
v 0.1000 214.0000 92.8493
v 0.0000 0.0000 1.0000
v 1.0000 1.0000 0.0000
v 0.0000 5.0000 185.0000
v 279.8660 0.0000 0.0000
v 1.0000 1.0000 1.0000
v 1.0039 0.8039 0.0000
v 0.0001 5.0000 -184.9999
v 279.8661 0.0000 0.0000
v 1.0000 1.0000 1.0000
v 0.2000 0.5490 0.0000
v 65.0000 0.0000 155.0000
v 71.0633 0.0000 0.0000
v 1.0000 1.0000 1.0000
v 0.0000 55.0000 0.0000
v 231.5000 54.2886 0.0000
v 0.0000 1.0000 1.0000
v 1.0000 0.0000 0.0000
v -3.9608 0.0000 0.0000
v 0.0000 0.0000 -65.0000
v 0.0000 -70.0000 67.2681
v 0.0000 0.0000 1.0000
v 1.0000 1.0000 0.0000
v 1.8078 -3.9608 0.0000
v 65.0000 0.0000 -70.0000
v 67.2681 0.0000 0.0000
v 1.0000 1.0000 1.0000
v 0.0000 -65.0000 0.0000
v -155.0000 71.0633 0.0000
v 0.0000 1.0000 1.0000
v 1.0000 0.0000 0.0000
v 0.5490 0.0000 0.0000
v 0.0000 0.0000 65.0000
v 0.0000 -155.0000 71.0633
v 0.0000 0.0000 1.0000
v 1.0000 1.0000 0.0000
v 1.8078 -2.9569 0.0000
v -55.0000 0.0000 -231.5000
v 54.2886 0.0000 0.0000
v 1.0000 1.0000 1.0000
v 0.0000 55.0000 0.0000
v -231.5000 54.2886 0.0000
v 0.0000 1.0000 1.0000
v 1.0000 0.0000 0.0000
v -3.9608 0.0000 0.0000
v 0.0000 0.0000 -65.0000
v 0.0000 70.0000 67.2681
v 0.0000 0.0000 1.0000
v 1.0000 1.0000 0.0000
v 1.8078 -2.9569 0.0000
v 0.0000 -55.0000 0.0000
v 231.5000 54.2886 0.0000
v 0.0000 1.0000 1.0000
v 1.0000 0.0000 0.0000
v 0.2000 0.5490 0.0000
v -65.0000 0.0000 155.0000
v 71.0633 0.0000 0.0000
v 1.0000 1.0000 1.0000
v 0.0000 0.0000 65.0000
v 0.0000 70.0000 67.2681
v 0.0000 0.0000 1.0000
v 1.0000 1.0000 0.0000
v 0.0000 0.0001 35.5000
v -382.5000 47.8174 0.0000
v 0.0000 1.0000 1.0000
v 1.0000 0.0000 0.0000
v 0.0196 0.0000 0.0000
v 0.0000 0.0001 35.5000
v 382.5000 47.8174 0.0000
v 0.0000 1.0000 1.0000
v 1.0000 0.0000 0.0000
v 1.0000 0.0000 0.0000
v 82.3891 5.5000 -328.5000
v 68.1109 0.0000 0.0000
v 1.0000 1.0000 1.0000
v -82.3891 5.5000 328.5000
v 68.1109 0.0000 0.0000
v 1.0000 1.0000 1.0000
v 0.0000 -82.3891 5.5000
v -328.5000 68.1109 0.0000
v 0.0000 1.0000 1.0000
v 1.0000 0.0000 0.0000
v 2.6353 0.0000 0.0000
v 0.0000 0.0000 82.3891
v 5.5000 328.5000 68.1109
v 0.0000 0.0000 1.0000
v 1.0000 1.0000 0.0000
v 0.0000 0.0000 162.3891
v 5.5000 -187.3891 118.1493
v 0.0000 0.0000 1.0000
v 1.0000 1.0000 0.0000
v 3.3020 0.8667 0.0000
v 0.0000 162.3891 5.5000
v 187.3891 118.1493 0.0000
v 0.0000 1.0000 1.0000
v 1.0000 0.0000 0.0000
v 0.6941 0.0000 0.0000
v 0.0000 0.0000 -162.3891
v 5.5000 187.3891 118.1493
v 0.0000 0.0000 1.0000
v 1.0000 1.0000 0.0000
v 3.3020 0.6941 0.0000
v 0.0000 0.0000 -162.3891
v 5.5000 -187.3891 118.1493
v 0.0000 0.0000 1.0000
v 1.0000 1.0000 0.0000
v 3.0118 0.0000 0.0000
v 0.0000 0.0000 202.5000
v 5.5000 0.0000 80.4344
v 0.0000 0.0000 1.0000
v 1.0000 1.0000 0.0000
v 3.0118 0.0000 0.0000
v -202.5000 5.5000 0.0000
v 80.4344 0.0000 0.0000
v 1.0000 1.0000 1.0000
v 0.0000 0.0000 -106.5000
v 1.0000 110.0000 13.3135
v 0.0000 0.0000 1.0000
v 1.0000 1.0000 0.0000
v 0.0000 0.0000 23.5000
v 1.0000 200.0000 13.3135
v 0.0000 0.0000 1.0000
v 1.0000 1.0000 0.0000
v 106.5000 1.0000 110.0000
v 13.3135 0.0000 0.0000
v 1.0000 1.0000 1.0000
v 0.0000 -106.5000 1.0000
v -110.0000 13.3135 0.0000
v 0.0000 1.0000 1.0000
v 1.0000 0.0000 0.0000
v 0.0000 0.0000 23.5000
v 1.0000 -200.0000 13.3135
v 0.0000 0.0000 1.0000
v 1.0000 1.0000 0.0000
v -90.0000 1.0000 -266.4999
v 13.3135 0.0000 0.0000
v 1.0000 1.0000 1.0000
v 1.0039 0.0000 0.0000
v 0.0000 90.0000 1.0000
v -266.4999 13.3135 0.0000
v 0.0000 1.0000 1.0000
v 1.0000 0.0000 0.0000
v 0.0000 0.0000 106.5000
v 1.0000 -110.0000 13.3135
v 0.0000 0.0000 1.0000
v 1.0000 1.0000 0.0000
v -23.5000 1.0000 -200.0000
v 13.3135 0.0000 0.0000
v 1.0000 1.0000 1.0000
v 0.0000 -23.5000 1.0000
v 200.0000 13.3135 0.0000
v 0.0000 1.0000 1.0000
v 1.0000 0.0000 0.0000
v 0.0000 0.0000 -90.0000
v 1.0000 266.5000 13.3135
v 0.0000 0.0000 1.0000
v 1.0000 1.0000 0.0000
v 0.0000 0.0000 90.0000
v 1.0000 266.5000 13.3135
v 0.0000 0.0000 1.0000
v 1.0000 1.0000 0.0000
v 0.0196 0.0000 0.0000
v 0.0000 182.5000 35.5000
v 0.0000 59.8352 0.0000
v 0.0000 1.0000 1.0000
v 1.0000 0.0000 0.0000
v 0.0196 0.0000 0.0000
v 0.0000 0.0000 35.5000
v -182.5000 47.8174 0.0000
v 0.0000 1.0000 1.0000
v 1.0000 0.0000 0.0000
v 0.0196 0.0000 0.0000
v 0.0000 0.0000 -182.5000
v 35.5000 0.0001 59.8352
v 0.0000 0.0000 1.0000
v 1.0000 1.0000 0.0000
v 0.0000 0.0196 0.0000
v 35.5000 182.5000 47.8174
v 0.0000 0.0000 1.0000
v 1.0000 1.0000 0.0000
v 0.0000 1.0000 0.0000
v 0.0000 0.0000 282.8427
v 0.0000 0.0000 1.0000
v 1.0000 1.0000 0.0000
v 282.8427 0.0000 0.0000
v 1.0000 1.0000 1.0000
v 0.0000 1.0000 1.0000
v 1.0000 0.0000 0.7500
v 1.0000 0.7500 0.0000
v 1.0000 1.0000 1.0000
v 0.0000 1.0000 1.0000
v 1.0000 0.0000 1.0000
v 1.1000 1.0000 0.0000
v 1.0000 1.0000 1.0000
vn 0.0000 1.0000 0.0000
vn 0.0000 1.0000 0.0000
vn 0.0000 1.0000 0.0000
vn 0.0000 1.0000 0.0000
vn 0.0000 1.0000 0.0000
vn 0.0000 1.0000 0.0000
vn 0.0000 1.0000 0.0000
vn 0.0000 1.0000 0.0000
vn 0.0000 1.0000 0.0000
vn 0.0000 1.0000 0.0000
vn 0.0000 1.0000 0.0000
vn 0.0000 1.0000 0.0000
vn 0.0000 1.0000 0.0000
vn 0.0000 1.0000 0.0000
vn 0.0000 1.0000 0.0000
vn 0.0000 1.0000 0.0000
vn 0.0000 1.0000 0.0000
vn 0.0000 1.0000 0.0000
vn 0.0000 1.0000 0.0000
vn 0.0000 1.0000 0.0000
vn 0.0000 1.0000 0.0000
vn 0.0000 1.0000 0.0000
vn 0.0000 1.0000 0.0000
vn 0.0000 1.0000 0.0000
vn 0.0000 1.0000 0.0000
vn 0.0000 1.0000 0.0000
vn 0.0000 1.0000 0.0000
vn 0.0000 1.0000 0.0000
vn 0.0000 1.0000 0.0000
vn 0.0000 1.0000 0.0000
vn 0.0000 1.0000 0.0000
vn 0.0000 1.0000 0.0000
vn 0.0000 1.0000 0.0000
vn 0.0000 1.0000 0.0000
vn 0.0000 1.0000 0.0000
vn 0.0000 1.0000 0.0000
vn 0.0000 1.0000 0.0000
vn 0.0000 1.0000 0.0000
vn 0.0000 1.0000 0.0000
vn 0.0000 1.0000 0.0000
vn 0.0000 1.0000 0.0000
vn 0.0000 1.0000 0.0000
vn 0.0000 1.0000 0.0000
vn 0.0000 1.0000 0.0000
vn 0.0000 1.0000 0.0000
vn 0.0000 1.0000 0.0000
vn 0.0000 1.0000 0.0000
vn 0.0000 1.0000 0.0000
vn 0.0000 1.0000 0.0000
vn 0.0000 1.0000 0.0000
vn 0.0000 1.0000 0.0000
vn 0.0000 1.0000 0.0000
vn 0.0000 1.0000 0.0000
vn 0.0000 1.0000 0.0000
vn 0.0000 1.0000 0.0000
vn 0.0000 1.0000 0.0000
vn 0.0000 1.0000 0.0000
vn 0.0000 1.0000 0.0000
vn 0.0000 1.0000 0.0000
vn 0.0000 1.0000 0.0000
vn 0.0000 1.0000 0.0000
vn 0.0000 1.0000 0.0000
vn 0.0000 1.0000 0.0000
vn 0.0000 1.0000 0.0000
vn 0.0000 1.0000 0.0000
vn 0.0000 1.0000 0.0000
vn 0.0000 1.0000 0.0000
vn 0.0000 1.0000 0.0000
vn 0.0000 1.0000 0.0000
vn 0.0000 1.0000 0.0000
vn 0.0000 1.0000 0.0000
vn 0.0000 1.0000 0.0000
vn 0.0000 1.0000 0.0000
vn 0.0000 1.0000 0.0000
vn 0.0000 1.0000 0.0000
vn 0.0000 1.0000 0.0000
vn 0.0000 1.0000 0.0000
vn 0.0000 1.0000 0.0000
vn 0.0000 1.0000 0.0000
vn 0.0000 1.0000 0.0000
vn 0.0000 1.0000 0.0000
vn 0.0000 1.0000 0.0000
vn 0.0000 1.0000 0.0000
vn 0.0000 1.0000 0.0000
vn 0.0000 1.0000 0.0000
vn 0.0000 1.0000 0.0000
vn 0.0000 1.0000 0.0000
vn 0.0000 1.0000 0.0000
vn 0.0000 1.0000 0.0000
vn 0.0000 1.0000 0.0000
vn 0.0000 1.0000 0.0000
vn 0.0000 1.0000 0.0000
vn 0.0000 1.0000 0.0000
vn 0.0000 1.0000 0.0000
vn 0.0000 1.0000 0.0000
vn 0.0000 1.0000 0.0000
vn 0.0000 1.0000 0.0000
vn 0.0000 1.0000 0.0000
vn 0.0000 1.0000 0.0000
vn 0.0000 1.0000 0.0000
vn 0.0000 1.0000 0.0000
vn 0.0000 1.0000 0.0000
vn 0.0000 1.0000 0.0000
vn 0.0000 1.0000 0.0000
vn 0.0000 1.0000 0.0000
vn 0.0000 1.0000 0.0000
vn 0.0000 1.0000 0.0000
vn 0.0000 1.0000 0.0000
vn 0.0000 1.0000 0.0000
vn 0.0000 1.0000 0.0000
vn 0.0000 1.0000 0.0000
vn 0.0000 1.0000 0.0000
vn 0.0000 1.0000 0.0000
vn 0.0000 1.0000 0.0000
vn 0.0000 1.0000 0.0000
vn 0.0000 1.0000 0.0000
vn 0.0000 1.0000 0.0000
vn 0.0000 1.0000 0.0000
vn 0.0000 1.0000 0.0000
vn 0.0000 1.0000 0.0000
vn 0.0000 1.0000 0.0000
vn 0.0000 1.0000 0.0000
vn 0.0000 1.0000 0.0000
vn 0.0000 1.0000 0.0000
vn 0.0000 1.0000 0.0000
vn 0.0000 1.0000 0.0000
vn 0.0000 1.0000 0.0000
vn 0.0000 1.0000 0.0000
vn 0.0000 1.0000 0.0000
vn 0.0000 1.0000 0.0000
vn 0.0000 1.0000 0.0000
vn 0.0000 1.0000 0.0000
vn 0.0000 1.0000 0.0000
vn 0.0000 1.0000 0.0000
vn 0.0000 1.0000 0.0000
vn 0.0000 1.0000 0.0000
vn 0.0000 1.0000 0.0000
vn 0.0000 1.0000 0.0000
vn 0.0000 1.0000 0.0000
vn 0.0000 1.0000 0.0000
vn 0.0000 1.0000 0.0000
vn 0.0000 1.0000 0.0000
vn 0.0000 1.0000 0.0000
vn 0.0000 1.0000 0.0000
vn 0.0000 1.0000 0.0000
vn 0.0000 1.0000 0.0000
vn 0.0000 1.0000 0.0000
vn 0.0000 1.0000 0.0000
vn 0.0000 1.0000 0.0000
vn 0.0000 1.0000 0.0000
vn 0.0000 1.0000 0.0000
vn 0.0000 1.0000 0.0000
vn 0.0000 1.0000 0.0000
vn 0.0000 1.0000 0.0000
vn 0.0000 1.0000 0.0000
vn 0.0000 1.0000 0.0000
vn 0.0000 1.0000 0.0000
vn 0.0000 1.0000 0.0000
vn 0.0000 1.0000 0.0000
vn 0.0000 1.0000 0.0000
vn 0.0000 1.0000 0.0000
vn 0.0000 1.0000 0.0000
vn 0.0000 1.0000 0.0000
vn 0.0000 1.0000 0.0000
vn 0.0000 1.0000 0.0000
vn 0.0000 1.0000 0.0000
vn 0.0000 1.0000 0.0000
vn 0.0000 1.0000 0.0000
vn 0.0000 1.0000 0.0000
vn 0.0000 1.0000 0.0000
vn 0.0000 1.0000 0.0000
vn 0.0000 1.0000 0.0000
vn 0.0000 1.0000 0.0000
vn 0.0000 1.0000 0.0000
vn 0.0000 1.0000 0.0000
vn 0.0000 1.0000 0.0000
vn 0.0000 1.0000 0.0000
vn 0.0000 1.0000 0.0000
vn 0.0000 1.0000 0.0000
vn 0.0000 1.0000 0.0000
vn 0.0000 1.0000 0.0000
vn 0.0000 1.0000 0.0000
vn 0.0000 1.0000 0.0000
vn 0.0000 1.0000 0.0000
vn 0.0000 1.0000 0.0000
vn 0.0000 1.0000 0.0000
vn 0.0000 1.0000 0.0000
vn 0.0000 1.0000 0.0000
vn 0.0000 1.0000 0.0000
vn 0.0000 1.0000 0.0000
vn 0.0000 1.0000 0.0000
vn 0.0000 1.0000 0.0000
vn 0.0000 1.0000 0.0000
vn 0.0000 1.0000 0.0000
vn 0.0000 1.0000 0.0000
vn 0.0000 1.0000 0.0000
vn 0.0000 1.0000 0.0000
vn 0.0000 1.0000 0.0000
vn 0.0000 1.0000 0.0000
vn 0.0000 1.0000 0.0000
vn 0.0000 1.0000 0.0000
vn 0.0000 1.0000 0.0000
vn 0.0000 1.0000 0.0000
vn 0.0000 1.0000 0.0000
vn 0.0000 1.0000 0.0000
vn 0.0000 1.0000 0.0000
vn 0.0000 1.0000 0.0000
vn 0.0000 1.0000 0.0000
vn 0.0000 1.0000 0.0000
vn 0.0000 1.0000 0.0000
vn 0.0000 1.0000 0.0000
vn 0.0000 1.0000 0.0000
vn 0.0000 1.0000 0.0000
vn 0.0000 1.0000 0.0000
vn 0.0000 1.0000 0.0000
vn 0.0000 1.0000 0.0000
vn 0.0000 1.0000 0.0000
vn 0.0000 1.0000 0.0000
vn 0.0000 1.0000 0.0000
vn 0.0000 1.0000 0.0000
vn 0.0000 1.0000 0.0000
vn 0.0000 1.0000 0.0000
vn 0.0000 1.0000 0.0000
vn 0.0000 1.0000 0.0000
vn 0.0000 1.0000 0.0000
vn 0.0000 1.0000 0.0000
vn 0.0000 1.0000 0.0000
vn 0.0000 1.0000 0.0000
vn 0.0000 1.0000 0.0000
vn 0.0000 1.0000 0.0000
vn 0.0000 1.0000 0.0000
vn 0.0000 1.0000 0.0000
vn 0.0000 1.0000 0.0000
vn 0.0000 1.0000 0.0000
vn 0.0000 1.0000 0.0000
vn 0.0000 1.0000 0.0000
vn 0.0000 1.0000 0.0000
vn 0.0000 1.0000 0.0000
vn 0.0000 1.0000 0.0000
vn 0.0000 1.0000 0.0000
vn 0.0000 1.0000 0.0000
vn 0.0000 1.0000 0.0000
vn 0.0000 1.0000 0.0000
vn 0.0000 1.0000 0.0000
vn 0.0000 1.0000 0.0000
vn 0.0000 1.0000 0.0000
vn 0.0000 1.0000 0.0000
vn 0.0000 1.0000 0.0000
vn 0.0000 1.0000 0.0000
vn 0.0000 1.0000 0.0000
vn 0.0000 1.0000 0.0000
vn 0.0000 1.0000 0.0000
vn 0.0000 1.0000 0.0000
vn 0.0000 1.0000 0.0000
vn 0.0000 1.0000 0.0000
vn 0.0000 1.0000 0.0000
vn 0.0000 1.0000 0.0000
vn 0.0000 1.0000 0.0000
vn 0.0000 1.0000 0.0000
vn 0.0000 1.0000 0.0000
vn 0.0000 1.0000 0.0000
vn 0.0000 1.0000 0.0000
vn 0.0000 1.0000 0.0000
vn 0.0000 1.0000 0.0000
vn 0.0000 1.0000 0.0000
vn 0.0000 1.0000 0.0000
vn 0.0000 1.0000 0.0000
vn 0.0000 1.0000 0.0000
vn 0.0000 1.0000 0.0000
vn 0.0000 1.0000 0.0000
vn 0.0000 1.0000 0.0000
vn 0.0000 1.0000 0.0000
vn 0.0000 1.0000 0.0000
vn 0.0000 1.0000 0.0000
vn 0.0000 1.0000 0.0000
vn 0.0000 1.0000 0.0000
vn 0.0000 1.0000 0.0000
vn 0.0000 1.0000 0.0000
vn 0.0000 1.0000 0.0000
vn 0.0000 1.0000 0.0000
vn 0.0000 1.0000 0.0000
vn 0.0000 1.0000 0.0000
vn 0.0000 1.0000 0.0000
vn 0.0000 1.0000 0.0000
vn 0.0000 1.0000 0.0000
vn 0.0000 1.0000 0.0000
vn 0.0000 1.0000 0.0000
vn 0.0000 1.0000 0.0000
vn 0.0000 1.0000 0.0000
vn 0.0000 1.0000 0.0000
vn 0.0000 1.0000 0.0000
vn 0.0000 1.0000 0.0000
vn 0.0000 1.0000 0.0000
vn 0.0000 1.0000 0.0000
vn 0.0000 1.0000 0.0000
vn 0.0000 1.0000 0.0000
vn 0.0000 1.0000 0.0000
vn 0.0000 1.0000 0.0000
vn 0.0000 1.0000 0.0000
vn 0.0000 1.0000 0.0000
vn 0.0000 1.0000 0.0000
vn 0.0000 1.0000 0.0000
vn 0.0000 1.0000 0.0000
vn 0.0000 1.0000 0.0000
vn 0.0000 1.0000 0.0000
vn 0.0000 1.0000 0.0000
vn 0.0000 1.0000 0.0000
vn 0.0000 1.0000 0.0000
vn 0.0000 1.0000 0.0000
vn 0.0000 1.0000 0.0000
vn 0.0000 1.0000 0.0000
vn 0.0000 1.0000 0.0000
vn 0.0000 1.0000 0.0000
vn 0.0000 1.0000 0.0000
vn 0.0000 1.0000 0.0000
vn 0.0000 1.0000 0.0000
vn 0.0000 1.0000 0.0000
vn 0.0000 1.0000 0.0000
vn 0.0000 1.0000 0.0000
vn 0.0000 1.0000 0.0000
vn 0.0000 1.0000 0.0000
vn 0.0000 1.0000 0.0000
vn 0.0000 1.0000 0.0000
vn 0.0000 1.0000 0.0000
vn 0.0000 1.0000 0.0000
vn 0.0000 1.0000 0.0000
vn 0.0000 1.0000 0.0000
vn 0.0000 1.0000 0.0000
vn 0.0000 1.0000 0.0000
vn 0.0000 1.0000 0.0000
vn 0.0000 1.0000 0.0000
vn 0.0000 1.0000 0.0000
vn 0.0000 1.0000 0.0000
vn 0.0000 1.0000 0.0000
vn 0.0000 1.0000 0.0000
vn 0.0000 1.0000 0.0000
vn 0.0000 1.0000 0.0000
vn 0.0000 1.0000 0.0000
vn 0.0000 1.0000 0.0000
vn 0.0000 1.0000 0.0000
vn 0.0000 1.0000 0.0000
vn 0.0000 1.0000 0.0000
vn 0.0000 1.0000 0.0000
vn 0.0000 1.0000 0.0000
vn 0.0000 1.0000 0.0000
vn 0.0000 1.0000 0.0000
vn 0.0000 1.0000 0.0000
vn 0.0000 1.0000 0.0000
vn 0.0000 1.0000 0.0000
vn 0.0000 1.0000 0.0000
vn 0.0000 1.0000 0.0000
vn 0.0000 1.0000 0.0000
vn 0.0000 1.0000 0.0000
vn 0.0000 1.0000 0.0000
vn 0.0000 1.0000 0.0000
vn 0.0000 1.0000 0.0000
vn 0.0000 1.0000 0.0000
vn 0.0000 1.0000 0.0000
vn 0.0000 1.0000 0.0000
vn 0.0000 1.0000 0.0000
vn 0.0000 1.0000 0.0000
vn 0.0000 1.0000 0.0000
vn 0.0000 1.0000 0.0000
vn 0.0000 1.0000 0.0000
vn 0.0000 1.0000 0.0000
vn 0.0000 1.0000 0.0000
vn 0.0000 1.0000 0.0000
vn 0.0000 1.0000 0.0000
vn 0.0000 1.0000 0.0000
vn 0.0000 1.0000 0.0000
vn 0.0000 1.0000 0.0000
vn 0.0000 1.0000 0.0000
vn 0.0000 1.0000 0.0000
vn 0.0000 1.0000 0.0000
vn 0.0000 1.0000 0.0000
vn 0.0000 1.0000 0.0000
vn 0.0000 1.0000 0.0000
vn 0.0000 1.0000 0.0000
vn 0.0000 1.0000 0.0000
vn 0.0000 1.0000 0.0000
vn 0.0000 1.0000 0.0000
vn 0.0000 1.0000 0.0000
vn 0.0000 1.0000 0.0000
vn 0.0000 1.0000 0.0000
vn 0.0000 1.0000 0.0000
vn 0.0000 1.0000 0.0000
vn 0.0000 1.0000 0.0000
vn 0.0000 1.0000 0.0000
vn 0.0000 1.0000 0.0000
vn 0.0000 1.0000 0.0000
vn 0.0000 1.0000 0.0000
vn 0.0000 1.0000 0.0000
vn 0.0000 1.0000 0.0000
vn 0.0000 1.0000 0.0000
vn 0.0000 1.0000 0.0000
vn 0.0000 1.0000 0.0000
vn 0.0000 1.0000 0.0000
vn 0.0000 1.0000 0.0000
vn 0.0000 1.0000 0.0000
vn 0.0000 1.0000 0.0000
vn 0.0000 1.0000 0.0000
vn 0.0000 1.0000 0.0000
vn 0.0000 1.0000 0.0000
vn 0.0000 1.0000 0.0000
vn 0.0000 1.0000 0.0000
vn 0.0000 1.0000 0.0000
vn 0.0000 1.0000 0.0000
vn 0.0000 1.0000 0.0000
vn 0.0000 1.0000 0.0000
vn 0.0000 1.0000 0.0000
vn 0.0000 1.0000 0.0000
vn 0.0000 1.0000 0.0000
vn 0.0000 1.0000 0.0000
vn 0.0000 1.0000 0.0000
vn 0.0000 1.0000 0.0000
vn 0.0000 1.0000 0.0000
vn 0.0000 1.0000 0.0000
vn 0.0000 1.0000 0.0000
vn 0.0000 1.0000 0.0000
vn 0.0000 1.0000 0.0000
vn 0.0000 1.0000 0.0000
vn 0.0000 1.0000 0.0000
vn 0.0000 1.0000 0.0000
vn 0.0000 1.0000 0.0000
vn 0.0000 1.0000 0.0000
vn 0.0000 1.0000 0.0000
vn 0.0000 1.0000 0.0000
vn 0.0000 1.0000 0.0000
vn 0.0000 1.0000 0.0000
vn 0.0000 1.0000 0.0000
vn 0.0000 1.0000 0.0000
vn 0.0000 1.0000 0.0000
vn 0.0000 1.0000 0.0000
vn 0.0000 1.0000 0.0000
vn 0.0000 1.0000 0.0000
vn 0.0000 1.0000 0.0000
vn 0.0000 1.0000 0.0000
vn 0.0000 1.0000 0.0000
vn 0.0000 1.0000 0.0000
vn 0.0000 1.0000 0.0000
vn 0.0000 1.0000 0.0000
vn 0.0000 1.0000 0.0000
vn 0.0000 1.0000 0.0000
vn 0.0000 1.0000 0.0000
vn 0.0000 1.0000 0.0000
vn 0.0000 1.0000 0.0000
vn 0.0000 1.0000 0.0000
vn 0.0000 1.0000 0.0000
vn 0.0000 1.0000 0.0000
vn 0.0000 1.0000 0.0000
vn 0.0000 1.0000 0.0000
vn 0.0000 1.0000 0.0000
vn 0.0000 1.0000 0.0000
vn 0.0000 1.0000 0.0000
vn 0.0000 1.0000 0.0000
vn 0.0000 1.0000 0.0000
vn 0.0000 1.0000 0.0000
vn 0.0000 1.0000 0.0000
vn 0.0000 1.0000 0.0000
vn 0.0000 1.0000 0.0000
vn 0.0000 1.0000 0.0000
vn 0.0000 1.0000 0.0000
vn 0.0000 1.0000 0.0000
vn 0.0000 1.0000 0.0000
vn 0.0000 1.0000 0.0000
vn 0.0000 1.0000 0.0000
vn 0.0000 1.0000 0.0000
vn 0.0000 1.0000 0.0000
vn 0.0000 1.0000 0.0000
vn 0.0000 1.0000 0.0000
vn 0.0000 1.0000 0.0000
vn 0.0000 1.0000 0.0000
vn 0.0000 1.0000 0.0000
vn 0.0000 1.0000 0.0000
vn 0.0000 1.0000 0.0000
vn 0.0000 1.0000 0.0000
vn 0.0000 1.0000 0.0000
vn 0.0000 1.0000 0.0000
vn 0.0000 1.0000 0.0000
vn 0.0000 1.0000 0.0000
vn 0.0000 1.0000 0.0000
vn 0.0000 1.0000 0.0000
vn 0.0000 1.0000 0.0000
vn 0.0000 1.0000 0.0000
vn 0.0000 1.0000 0.0000
vn 0.0000 1.0000 0.0000
vn 0.0000 1.0000 0.0000
vn 0.0000 1.0000 0.0000
vn 0.0000 1.0000 0.0000
vn 0.0000 1.0000 0.0000
vn 0.0000 1.0000 0.0000
vn 0.0000 1.0000 0.0000
vn 0.0000 1.0000 0.0000
vn 0.0000 1.0000 0.0000
vn 0.0000 1.0000 0.0000
vn 0.0000 1.0000 0.0000
vn 0.0000 1.0000 0.0000
vn 0.0000 1.0000 0.0000
vn 0.0000 1.0000 0.0000
vn 0.0000 1.0000 0.0000
vn 0.0000 1.0000 0.0000
vn 0.0000 1.0000 0.0000
vn 0.0000 1.0000 0.0000
vn 0.0000 1.0000 0.0000
vn 0.0000 1.0000 0.0000
vn 0.0000 1.0000 0.0000
vn 0.0000 1.0000 0.0000
vn 0.0000 1.0000 0.0000
vn 0.0000 1.0000 0.0000
vn 0.0000 1.0000 0.0000
vn 0.0000 1.0000 0.0000
vn 0.0000 1.0000 0.0000
vn 0.0000 1.0000 0.0000
vn 0.0000 1.0000 0.0000
vn 0.0000 1.0000 0.0000
vn 0.0000 1.0000 0.0000
vn 0.0000 1.0000 0.0000
vn 0.0000 1.0000 0.0000
vn 0.0000 1.0000 0.0000
vn 0.0000 1.0000 0.0000
vn 0.0000 1.0000 0.0000
vn 0.0000 1.0000 0.0000
vn 0.0000 1.0000 0.0000
vn 0.0000 1.0000 0.0000
vn 0.0000 1.0000 0.0000
vn 0.0000 1.0000 0.0000
vn 0.0000 1.0000 0.0000
vn 0.0000 1.0000 0.0000
vn 0.0000 1.0000 0.0000
vn 0.0000 1.0000 0.0000
vn 0.0000 1.0000 0.0000
vn 0.0000 1.0000 0.0000
vn 0.0000 1.0000 0.0000
vn 0.0000 1.0000 0.0000
vn 0.0000 1.0000 0.0000
vn 0.0000 1.0000 0.0000
vn 0.0000 1.0000 0.0000
vn 0.0000 1.0000 0.0000
vn 0.0000 1.0000 0.0000
vn 0.0000 1.0000 0.0000
vn 0.0000 1.0000 0.0000
vn 0.0000 1.0000 0.0000
vn 0.0000 1.0000 0.0000
vn 0.0000 1.0000 0.0000
vn 0.0000 1.0000 0.0000
vn 0.0000 1.0000 0.0000
vn 0.0000 1.0000 0.0000
vn 0.0000 1.0000 0.0000
vn 0.0000 1.0000 0.0000
vn 0.0000 1.0000 0.0000
vn 0.0000 1.0000 0.0000
vn 0.0000 1.0000 0.0000
vn 0.0000 1.0000 0.0000
vn 0.0000 1.0000 0.0000
vn 0.0000 1.0000 0.0000
vn 0.0000 1.0000 0.0000
vn 0.0000 1.0000 0.0000
vn 0.0000 1.0000 0.0000
vn 0.0000 1.0000 0.0000
vn 0.0000 1.0000 0.0000
vn 0.0000 1.0000 0.0000
vn 0.0000 1.0000 0.0000
vn 0.0000 1.0000 0.0000
vn 0.0000 1.0000 0.0000
vn 0.0000 1.0000 0.0000
vn 0.0000 1.0000 0.0000
vn 0.0000 1.0000 0.0000
vn 0.0000 1.0000 0.0000
vn 0.0000 1.0000 0.0000
vn 0.0000 1.0000 0.0000
vn 0.0000 1.0000 0.0000
vn 0.0000 1.0000 0.0000
vn 0.0000 1.0000 0.0000
vn 0.0000 1.0000 0.0000
vn 0.0000 1.0000 0.0000
vn 0.0000 1.0000 0.0000
vn 0.0000 1.0000 0.0000
vn 0.0000 1.0000 0.0000
vn 0.0000 1.0000 0.0000
vn 0.0000 1.0000 0.0000
vn 0.0000 1.0000 0.0000
vn 0.0000 1.0000 0.0000
vn 0.0000 1.0000 0.0000
vn 0.0000 1.0000 0.0000
vn 0.0000 1.0000 0.0000
vn 0.0000 1.0000 0.0000
vn 0.0000 1.0000 0.0000
vn 0.0000 1.0000 0.0000
vn 0.0000 1.0000 0.0000
vn 0.0000 1.0000 0.0000
vn 0.0000 1.0000 0.0000
vn 0.0000 1.0000 0.0000
vn 0.0000 1.0000 0.0000
vn 0.0000 1.0000 0.0000
vn 0.0000 1.0000 0.0000
vn 0.0000 1.0000 0.0000
vn 0.0000 1.0000 0.0000
vn 0.0000 1.0000 0.0000
vn 0.0000 1.0000 0.0000
vn 0.0000 1.0000 0.0000
vn 0.0000 1.0000 0.0000
vn 0.0000 1.0000 0.0000
vn 0.0000 1.0000 0.0000
vn 0.0000 1.0000 0.0000
vn 0.0000 1.0000 0.0000
vn 0.0000 1.0000 0.0000
vn 0.0000 1.0000 0.0000
vn 0.0000 1.0000 0.0000
vn 0.0000 1.0000 0.0000
vn 0.0000 1.0000 0.0000
vn 0.0000 1.0000 0.0000
vn 0.0000 1.0000 0.0000
vn 0.0000 1.0000 0.0000
vn 0.0000 1.0000 0.0000
vn 0.0000 1.0000 0.0000
vn 0.0000 1.0000 0.0000
vn 0.0000 1.0000 0.0000
vn 0.0000 1.0000 0.0000
vn 0.0000 1.0000 0.0000
vn 0.0000 1.0000 0.0000
vn 0.0000 1.0000 0.0000
vn 0.0000 1.0000 0.0000
vn 0.0000 1.0000 0.0000
vn 0.0000 1.0000 0.0000
vn 0.0000 1.0000 0.0000
vn 0.0000 1.0000 0.0000
vn 0.0000 1.0000 0.0000
vn 0.0000 1.0000 0.0000
vn 0.0000 1.0000 0.0000
vn 0.0000 1.0000 0.0000
vn 0.0000 1.0000 0.0000
vn 0.0000 1.0000 0.0000
vn 0.0000 1.0000 0.0000
vn 0.0000 1.0000 0.0000
vn 0.0000 1.0000 0.0000
vn 0.0000 1.0000 0.0000
vn 0.0000 1.0000 0.0000
vn 0.0000 1.0000 0.0000
vn 0.0000 1.0000 0.0000
vn 0.0000 1.0000 0.0000
vn 0.0000 1.0000 0.0000
vn 0.0000 1.0000 0.0000
vn 0.0000 1.0000 0.0000
vn 0.0000 1.0000 0.0000
vn 0.0000 1.0000 0.0000
vn 0.0000 1.0000 0.0000
vn 0.0000 1.0000 0.0000
vn 0.0000 1.0000 0.0000
vn 0.0000 1.0000 0.0000
vn 0.0000 1.0000 0.0000
vn 0.0000 1.0000 0.0000
vn 0.0000 1.0000 0.0000
vn 0.0000 1.0000 0.0000
vn 0.0000 1.0000 0.0000
vn 0.0000 1.0000 0.0000
vn 0.0000 1.0000 0.0000
vn 0.0000 1.0000 0.0000
vn 0.0000 1.0000 0.0000
vn 0.0000 1.0000 0.0000
vn 0.0000 1.0000 0.0000
vn 0.0000 1.0000 0.0000
vn 0.0000 1.0000 0.0000
vn 0.0000 1.0000 0.0000
vn 0.0000 1.0000 0.0000
vn 0.0000 1.0000 0.0000
vn 0.0000 1.0000 0.0000
vn 0.0000 1.0000 0.0000
vn 0.0000 1.0000 0.0000
vn 0.0000 1.0000 0.0000
vn 0.0000 1.0000 0.0000
vn 0.0000 1.0000 0.0000
vn 0.0000 1.0000 0.0000
vn 0.0000 1.0000 0.0000
vn 0.0000 1.0000 0.0000
vn 0.0000 1.0000 0.0000
vn 0.0000 1.0000 0.0000
vn 0.0000 1.0000 0.0000
vn 0.0000 1.0000 0.0000
vn 0.0000 1.0000 0.0000
vn 0.0000 1.0000 0.0000
vn 0.0000 1.0000 0.0000
vn 0.0000 1.0000 0.0000
vn 0.0000 1.0000 0.0000
vn 0.0000 1.0000 0.0000
vn 0.0000 1.0000 0.0000
vn 0.0000 1.0000 0.0000
vn 0.0000 1.0000 0.0000
vn 0.0000 1.0000 0.0000
vn 0.0000 1.0000 0.0000
vn 0.0000 1.0000 0.0000
vn 0.0000 1.0000 0.0000
vn 0.0000 1.0000 0.0000
vn 0.0000 1.0000 0.0000
vn 0.0000 1.0000 0.0000
vn 0.0000 1.0000 0.0000
vn 0.0000 1.0000 0.0000
vn 0.0000 1.0000 0.0000
vn 0.0000 1.0000 0.0000
vn 0.0000 1.0000 0.0000
vn 0.0000 1.0000 0.0000
vn 0.0000 1.0000 0.0000
vn 0.0000 1.0000 0.0000
vn 0.0000 1.0000 0.0000
vn 0.0000 1.0000 0.0000
vn 0.0000 1.0000 0.0000
vn 0.0000 1.0000 0.0000
vn 0.0000 1.0000 0.0000
vn 0.0000 1.0000 0.0000
vn 0.0000 1.0000 0.0000
vn 0.0000 1.0000 0.0000
vn 0.0000 1.0000 0.0000
vn 0.0000 1.0000 0.0000
vn 0.0000 1.0000 0.0000
vn 0.0000 1.0000 0.0000
vn 0.0000 1.0000 0.0000
vn 0.0000 1.0000 0.0000
vn 0.0000 1.0000 0.0000
vn 0.0000 1.0000 0.0000
vn 0.0000 1.0000 0.0000
vn 0.0000 1.0000 0.0000
vn 0.0000 1.0000 0.0000
vn 0.0000 1.0000 0.0000
vn 0.0000 1.0000 0.0000
vn 0.0000 1.0000 0.0000
vn 0.0000 1.0000 0.0000
vn 0.0000 1.0000 0.0000
vn 0.0000 1.0000 0.0000
vn 0.0000 1.0000 0.0000
vn 0.0000 1.0000 0.0000
vn 0.0000 1.0000 0.0000
vn 0.0000 1.0000 0.0000
vn 0.0000 1.0000 0.0000
vn 0.0000 1.0000 0.0000
vn 0.0000 1.0000 0.0000
vn 0.0000 1.0000 0.0000
vn 0.0000 1.0000 0.0000
vn 0.0000 1.0000 0.0000
vn 0.0000 1.0000 0.0000
vn 0.0000 1.0000 0.0000
vn 0.0000 1.0000 0.0000
vn 0.0000 1.0000 0.0000
vn 0.0000 1.0000 0.0000
vn 0.0000 1.0000 0.0000
vn 0.0000 1.0000 0.0000
vn 0.0000 1.0000 0.0000
vn 0.0000 1.0000 0.0000
vn 0.0000 1.0000 0.0000
vn 0.0000 1.0000 0.0000
vn 0.0000 1.0000 0.0000
vn 0.0000 1.0000 0.0000
vn 0.0000 1.0000 0.0000
vn 0.0000 1.0000 0.0000
vn 0.0000 1.0000 0.0000
vn 0.0000 1.0000 0.0000
vn 0.0000 1.0000 0.0000
vn 0.0000 1.0000 0.0000
vn 0.0000 1.0000 0.0000
vn 0.0000 1.0000 0.0000
vn 0.0000 1.0000 0.0000
vn 0.0000 1.0000 0.0000
vn 0.0000 1.0000 0.0000
vn 0.0000 1.0000 0.0000
vn 0.0000 1.0000 0.0000
vn 0.0000 1.0000 0.0000
vn 0.0000 1.0000 0.0000
vn 0.0000 1.0000 0.0000
vn 0.0000 1.0000 0.0000
vn 0.0000 1.0000 0.0000
vn 0.0000 1.0000 0.0000
vn 0.0000 1.0000 0.0000
vn 0.0000 1.0000 0.0000
vn 0.0000 1.0000 0.0000
vn 0.0000 1.0000 0.0000
vn 0.0000 1.0000 0.0000
vn 0.0000 1.0000 0.0000
vn 0.0000 1.0000 0.0000
vn 0.0000 1.0000 0.0000
vn 0.0000 1.0000 0.0000
vn 0.0000 1.0000 0.0000
vn 0.0000 1.0000 0.0000
vn 0.0000 1.0000 0.0000
vn 0.0000 1.0000 0.0000
vn 0.0000 1.0000 0.0000
vn 0.0000 1.0000 0.0000
vn 0.0000 1.0000 0.0000
vn 0.0000 1.0000 0.0000
vn 0.0000 1.0000 0.0000
vn 0.0000 1.0000 0.0000
vn 0.0000 1.0000 0.0000
vn 0.0000 1.0000 0.0000
vn 0.0000 1.0000 0.0000
vn 0.0000 1.0000 0.0000
vn 0.0000 1.0000 0.0000
vn 0.0000 1.0000 0.0000
vn 0.0000 1.0000 0.0000
vn 0.0000 1.0000 0.0000
vn 0.0000 1.0000 0.0000
vn 0.0000 1.0000 0.0000
vn 0.0000 1.0000 0.0000
vn 0.0000 1.0000 0.0000
vn 0.0000 1.0000 0.0000
vn 0.0000 1.0000 0.0000
vn 0.0000 1.0000 0.0000
vn 0.0000 1.0000 0.0000
vn 0.0000 1.0000 0.0000
vn 0.0000 1.0000 0.0000
vn 0.0000 1.0000 0.0000
vn 0.0000 1.0000 0.0000
vn 0.0000 1.0000 0.0000
vn 0.0000 1.0000 0.0000
vn 0.0000 1.0000 0.0000
vn 0.0000 1.0000 0.0000
vn 0.0000 1.0000 0.0000
vn 0.0000 1.0000 0.0000
vn 0.0000 1.0000 0.0000
vn 0.0000 1.0000 0.0000
vn 0.0000 1.0000 0.0000
vn 0.0000 1.0000 0.0000
vn 0.0000 1.0000 0.0000
vn 0.0000 1.0000 0.0000
vn 0.0000 1.0000 0.0000
vn 0.0000 1.0000 0.0000
vn 0.0000 1.0000 0.0000
vn 0.0000 1.0000 0.0000
vn 0.0000 1.0000 0.0000
vn 0.0000 1.0000 0.0000
vn 0.0000 1.0000 0.0000
vn 0.0000 1.0000 0.0000
vn 0.0000 1.0000 0.0000
vn 0.0000 1.0000 0.0000
vn 0.0000 1.0000 0.0000
vn 0.0000 1.0000 0.0000
vn 0.0000 1.0000 0.0000
vn 0.0000 1.0000 0.0000
vn 0.0000 1.0000 0.0000
vn 0.0000 1.0000 0.0000
vn 0.0000 1.0000 0.0000
vn 0.0000 1.0000 0.0000
vn 0.0000 1.0000 0.0000
vn 0.0000 1.0000 0.0000
vn 0.0000 1.0000 0.0000
vn 0.0000 1.0000 0.0000
vn 0.0000 1.0000 0.0000
vn 0.0000 1.0000 0.0000
vn 0.0000 1.0000 0.0000
vn 0.0000 1.0000 0.0000
vn 0.0000 1.0000 0.0000
vn 0.0000 1.0000 0.0000
vn 0.0000 1.0000 0.0000
vn 0.0000 1.0000 0.0000
vn 0.0000 1.0000 0.0000
vn 0.0000 1.0000 0.0000
vn 0.0000 1.0000 0.0000
vn 0.0000 1.0000 0.0000
vn 0.0000 1.0000 0.0000
vn 0.0000 1.0000 0.0000
vn 0.0000 1.0000 0.0000
vn 0.0000 1.0000 0.0000
vn 0.0000 1.0000 0.0000
vn 0.0000 1.0000 0.0000
vn 0.0000 1.0000 0.0000
vn 0.0000 1.0000 0.0000
vn 0.0000 1.0000 0.0000
vn 0.0000 1.0000 0.0000
vn 0.0000 1.0000 0.0000
vn 0.0000 1.0000 0.0000
vn 0.0000 1.0000 0.0000
vn 0.0000 1.0000 0.0000
vn 0.0000 1.0000 0.0000
vn 0.0000 1.0000 0.0000
vn 0.0000 1.0000 0.0000
vn 0.0000 1.0000 0.0000
vn 0.0000 1.0000 0.0000
vn 0.0000 1.0000 0.0000
vn 0.0000 1.0000 0.0000
vn 0.0000 1.0000 0.0000
vn 0.0000 1.0000 0.0000
vn 0.0000 1.0000 0.0000
vn 0.0000 1.0000 0.0000
vn 0.0000 1.0000 0.0000
vn 0.0000 1.0000 0.0000
vn 0.0000 1.0000 0.0000
vn 0.0000 1.0000 0.0000
vn 0.0000 1.0000 0.0000
vn 0.0000 1.0000 0.0000
vn 0.0000 1.0000 0.0000
vn 0.0000 1.0000 0.0000
vn 0.0000 1.0000 0.0000
vn 0.0000 1.0000 0.0000
vn 0.0000 1.0000 0.0000
vn 0.0000 1.0000 0.0000
vn 0.0000 1.0000 0.0000
vn 0.0000 1.0000 0.0000
vn 0.0000 1.0000 0.0000
vn 0.0000 1.0000 0.0000
vn 0.0000 1.0000 0.0000
vn 0.0000 1.0000 0.0000
vn 0.0000 1.0000 0.0000
vn 0.0000 1.0000 0.0000
vn 0.0000 1.0000 0.0000
vn 0.0000 1.0000 0.0000
vn 0.0000 1.0000 0.0000
vn 0.0000 1.0000 0.0000
vn 0.0000 1.0000 0.0000
vn 0.0000 1.0000 0.0000
vn 0.0000 1.0000 0.0000
vn 0.0000 1.0000 0.0000
vn 0.0000 1.0000 0.0000
vn 0.0000 1.0000 0.0000
vn 0.0000 1.0000 0.0000
vn 0.0000 1.0000 0.0000
vn 0.0000 1.0000 0.0000
vn 0.0000 1.0000 0.0000
vn 0.0000 1.0000 0.0000
vn 0.0000 1.0000 0.0000
vn 0.0000 1.0000 0.0000
vn 0.0000 1.0000 0.0000
vn 0.0000 1.0000 0.0000
vn 0.0000 1.0000 0.0000
vn 0.0000 1.0000 0.0000
vn 0.0000 1.0000 0.0000
vn 0.0000 1.0000 0.0000
vn 0.0000 1.0000 0.0000
vn 0.0000 1.0000 0.0000
vn 0.0000 1.0000 0.0000
vn 0.0000 1.0000 0.0000
vn 0.0000 1.0000 0.0000
vn 0.0000 1.0000 0.0000
vn 0.0000 1.0000 0.0000
vn 0.0000 1.0000 0.0000
vn 0.0000 1.0000 0.0000
vn 0.0000 1.0000 0.0000
vn 0.0000 1.0000 0.0000
vn 0.0000 1.0000 0.0000
vn 0.0000 1.0000 0.0000
vn 0.0000 1.0000 0.0000
vn 0.0000 1.0000 0.0000
vn 0.0000 1.0000 0.0000
vn 0.0000 1.0000 0.0000
vn 0.0000 1.0000 0.0000
vn 0.0000 1.0000 0.0000
vn 0.0000 1.0000 0.0000
vn 0.0000 1.0000 0.0000
vn 0.0000 1.0000 0.0000
vn 0.0000 1.0000 0.0000
vn 0.0000 1.0000 0.0000
vn 0.0000 1.0000 0.0000
vn 0.0000 1.0000 0.0000
vn 0.0000 1.0000 0.0000
vn 0.0000 1.0000 0.0000
vn 0.0000 1.0000 0.0000
vn 0.0000 1.0000 0.0000
vn 0.0000 1.0000 0.0000
vn 0.0000 1.0000 0.0000
vn 0.0000 1.0000 0.0000
vn 0.0000 1.0000 0.0000
vn 0.0000 1.0000 0.0000
vn 0.0000 1.0000 0.0000
vn 0.0000 1.0000 0.0000
vn 0.0000 1.0000 0.0000
vn 0.0000 1.0000 0.0000
vn 0.0000 1.0000 0.0000
vn 0.0000 1.0000 0.0000
vn 0.0000 1.0000 0.0000
vn 0.0000 1.0000 0.0000
vn 0.0000 1.0000 0.0000
vn 0.0000 1.0000 0.0000
vn 0.0000 1.0000 0.0000
vn 0.0000 1.0000 0.0000
vn 0.0000 1.0000 0.0000
vn 0.0000 1.0000 0.0000
vn 0.0000 1.0000 0.0000
vn 0.0000 1.0000 0.0000
vn 0.0000 1.0000 0.0000
vn 0.0000 1.0000 0.0000
vn 0.0000 1.0000 0.0000
vn 0.0000 1.0000 0.0000
vn 0.0000 1.0000 0.0000
vn 0.0000 1.0000 0.0000
vn 0.0000 1.0000 0.0000
vn 0.0000 1.0000 0.0000
vn 0.0000 1.0000 0.0000
vn 0.0000 1.0000 0.0000
vn 0.0000 1.0000 0.0000
vn 0.0000 1.0000 0.0000
vn 0.0000 1.0000 0.0000
vn 0.0000 1.0000 0.0000
vn 0.0000 1.0000 0.0000
vn 0.0000 1.0000 0.0000
vn 0.0000 1.0000 0.0000
vn 0.0000 1.0000 0.0000
vn 0.0000 1.0000 0.0000
vn 0.0000 1.0000 0.0000
vn 0.0000 1.0000 0.0000
vn 0.0000 1.0000 0.0000
vn 0.0000 1.0000 0.0000
vn 0.0000 1.0000 0.0000
vn 0.0000 1.0000 0.0000
vn 0.0000 1.0000 0.0000
vn 0.0000 1.0000 0.0000
vn 0.0000 1.0000 0.0000
vn 0.0000 1.0000 0.0000
vn 0.0000 1.0000 0.0000
vn 0.0000 1.0000 0.0000
vn 0.0000 1.0000 0.0000
vn 0.0000 1.0000 0.0000
vn 0.0000 1.0000 0.0000
vn 0.0000 1.0000 0.0000
vn 0.0000 1.0000 0.0000
vn 0.0000 1.0000 0.0000
vn 0.0000 1.0000 0.0000
vn 0.0000 1.0000 0.0000
vn 0.0000 1.0000 0.0000
vn 0.0000 1.0000 0.0000
vn 0.0000 1.0000 0.0000
vn 0.0000 1.0000 0.0000
vn 0.0000 1.0000 0.0000
vn 0.0000 1.0000 0.0000
vn 0.0000 1.0000 0.0000
vn 0.0000 1.0000 0.0000
vn 0.0000 1.0000 0.0000
vn 0.0000 1.0000 0.0000
vn 0.0000 1.0000 0.0000
vn 0.0000 1.0000 0.0000
vn 0.0000 1.0000 0.0000
vn 0.0000 1.0000 0.0000
vn 0.0000 1.0000 0.0000
vn 0.0000 1.0000 0.0000
vn 0.0000 1.0000 0.0000
vn 0.0000 1.0000 0.0000
vn 0.0000 1.0000 0.0000
vn 0.0000 1.0000 0.0000
vn 0.0000 1.0000 0.0000
vn 0.0000 1.0000 0.0000
vn 0.0000 1.0000 0.0000
vn 0.0000 1.0000 0.0000
vn 0.0000 1.0000 0.0000
vn 0.0000 1.0000 0.0000
vn 0.0000 1.0000 0.0000
vn 0.0000 1.0000 0.0000
vn 0.0000 1.0000 0.0000
vn 0.0000 1.0000 0.0000
vn 0.0000 1.0000 0.0000
vn 0.0000 1.0000 0.0000
vn 0.0000 1.0000 0.0000
vn 0.0000 1.0000 0.0000
vn 0.0000 1.0000 0.0000
vn 0.0000 1.0000 0.0000
vn 0.0000 1.0000 0.0000
vn 0.0000 1.0000 0.0000
vn 0.0000 1.0000 0.0000
vn 0.0000 1.0000 0.0000
vn 0.0000 1.0000 0.0000
vn 0.0000 1.0000 0.0000
vn 0.0000 1.0000 0.0000
vn 0.0000 1.0000 0.0000
vn 0.0000 1.0000 0.0000
vn 0.0000 1.0000 0.0000
vn 0.0000 1.0000 0.0000
vn 0.0000 1.0000 0.0000
vn 0.0000 1.0000 0.0000
vn 0.0000 1.0000 0.0000
vn 0.0000 1.0000 0.0000
vn 0.0000 1.0000 0.0000
vn 0.0000 1.0000 0.0000
vn 0.0000 1.0000 0.0000
vn 0.0000 1.0000 0.0000
vn 0.0000 1.0000 0.0000
vn 0.0000 1.0000 0.0000
vn 0.0000 1.0000 0.0000
vn 0.0000 1.0000 0.0000
vn 0.0000 1.0000 0.0000
vn 0.0000 1.0000 0.0000
vn 0.0000 1.0000 0.0000
vn 0.0000 1.0000 0.0000
vn 0.0000 1.0000 0.0000
vn 0.0000 1.0000 0.0000
vn 0.0000 1.0000 0.0000
vn 0.0000 1.0000 0.0000
vn 0.0000 1.0000 0.0000
vn 0.0000 1.0000 0.0000
vn 0.0000 1.0000 0.0000
vn 0.0000 1.0000 0.0000
vn 0.0000 1.0000 0.0000
vn 0.0000 1.0000 0.0000
vn 0.0000 1.0000 0.0000
vn 0.0000 1.0000 0.0000
vn 0.0000 1.0000 0.0000
vn 0.0000 1.0000 0.0000
vn 0.0000 1.0000 0.0000
vn 0.0000 1.0000 0.0000
vn 0.0000 1.0000 0.0000
vn 0.0000 1.0000 0.0000
vn 0.0000 1.0000 0.0000
vn 0.0000 1.0000 0.0000
vn 0.0000 1.0000 0.0000
vn 0.0000 1.0000 0.0000
vn 0.0000 1.0000 0.0000
vn 0.0000 1.0000 0.0000
vn 0.0000 1.0000 0.0000
vn 0.0000 1.0000 0.0000
vn 0.0000 1.0000 0.0000
vn 0.0000 1.0000 0.0000
vn 0.0000 1.0000 0.0000
vn 0.0000 1.0000 0.0000
vn 0.0000 1.0000 0.0000
vn 0.0000 1.0000 0.0000
vn 0.0000 1.0000 0.0000
vn 0.0000 1.0000 0.0000
vn 0.0000 1.0000 0.0000
vn 0.0000 1.0000 0.0000
vn 0.0000 1.0000 0.0000
vn 0.0000 1.0000 0.0000
vn 0.0000 1.0000 0.0000
vn 0.0000 1.0000 0.0000
vn 0.0000 1.0000 0.0000
vn 0.0000 1.0000 0.0000
vn 0.0000 1.0000 0.0000
vn 0.0000 1.0000 0.0000
vn 0.0000 1.0000 0.0000
vn 0.0000 1.0000 0.0000
vn 0.0000 1.0000 0.0000
vn 0.0000 1.0000 0.0000
vn 0.0000 1.0000 0.0000
vn 0.0000 1.0000 0.0000
vn 0.0000 1.0000 0.0000
vn 0.0000 1.0000 0.0000
vn 0.0000 1.0000 0.0000
vn 0.0000 1.0000 0.0000
vn 0.0000 1.0000 0.0000
vn 0.0000 1.0000 0.0000
vn 0.0000 1.0000 0.0000
vn 0.0000 1.0000 0.0000
vn 0.0000 1.0000 0.0000
vn 0.0000 1.0000 0.0000
vn 0.0000 1.0000 0.0000
vn 0.0000 1.0000 0.0000
vn 0.0000 1.0000 0.0000
vn 0.0000 1.0000 0.0000
vn 0.0000 1.0000 0.0000
vn 0.0000 1.0000 0.0000
vn 0.0000 1.0000 0.0000
vn 0.0000 1.0000 0.0000
vn 0.0000 1.0000 0.0000
vn 0.0000 1.0000 0.0000
vn 0.0000 1.0000 0.0000
vn 0.0000 1.0000 0.0000
vn 0.0000 1.0000 0.0000
vn 0.0000 1.0000 0.0000
vn 0.0000 1.0000 0.0000
vn 0.0000 1.0000 0.0000
vn 0.0000 1.0000 0.0000
vn 0.0000 1.0000 0.0000
vn 0.0000 1.0000 0.0000
vn 0.0000 1.0000 0.0000
vn 0.0000 1.0000 0.0000
vn 0.0000 1.0000 0.0000
vn 0.0000 1.0000 0.0000
vn 0.0000 1.0000 0.0000
vn 0.0000 1.0000 0.0000
vn 0.0000 1.0000 0.0000
vn 0.0000 1.0000 0.0000
vn 0.0000 1.0000 0.0000
vn 0.0000 1.0000 0.0000
vn 0.0000 1.0000 0.0000
vn 0.0000 1.0000 0.0000
vn 0.0000 1.0000 0.0000
vn 0.0000 1.0000 0.0000
vn 0.0000 1.0000 0.0000
vn 0.0000 1.0000 0.0000
vn 0.0000 1.0000 0.0000
vn 0.0000 1.0000 0.0000
vn 0.0000 1.0000 0.0000
vn 0.0000 1.0000 0.0000
vn 0.0000 1.0000 0.0000
vn 0.0000 1.0000 0.0000
vn 0.0000 1.0000 0.0000
vn 0.0000 1.0000 0.0000
vn 0.0000 1.0000 0.0000
vn 0.0000 1.0000 0.0000
vn 0.0000 1.0000 0.0000
vn 0.0000 1.0000 0.0000
vn 0.0000 1.0000 0.0000
vn 0.0000 1.0000 0.0000
vn 0.0000 1.0000 0.0000
vn 0.0000 1.0000 0.0000
vn 0.0000 1.0000 0.0000
vn 0.0000 1.0000 0.0000
vn 0.0000 1.0000 0.0000
vn 0.0000 1.0000 0.0000
vn 0.0000 1.0000 0.0000
vn 0.0000 1.0000 0.0000
vn 0.0000 1.0000 0.0000
vn 0.0000 1.0000 0.0000
vn 0.0000 1.0000 0.0000
vn 0.0000 1.0000 0.0000
vn 0.0000 1.0000 0.0000
vn 0.0000 1.0000 0.0000
vn 0.0000 1.0000 0.0000
vn 0.0000 1.0000 0.0000
vn 0.0000 1.0000 0.0000
vn 0.0000 1.0000 0.0000
vn 0.0000 1.0000 0.0000
vn 0.0000 1.0000 0.0000
vn 0.0000 1.0000 0.0000
vn 0.0000 1.0000 0.0000
vn 0.0000 1.0000 0.0000
vn 0.0000 1.0000 0.0000
vn 0.0000 1.0000 0.0000
vn 0.0000 1.0000 0.0000
vn 0.0000 1.0000 0.0000
vn 0.0000 1.0000 0.0000
vn 0.0000 1.0000 0.0000
vn 0.0000 1.0000 0.0000
vn 0.0000 1.0000 0.0000
vn 0.0000 1.0000 0.0000
vn 0.0000 1.0000 0.0000
vn 0.0000 1.0000 0.0000
vn 0.0000 1.0000 0.0000
vn 0.0000 1.0000 0.0000
vn 0.0000 1.0000 0.0000
vn 0.0000 1.0000 0.0000
vn 0.0000 1.0000 0.0000
vn 0.0000 1.0000 0.0000
vn 0.0000 1.0000 0.0000
vn 0.0000 1.0000 0.0000
vn 0.0000 1.0000 0.0000
vn 0.0000 1.0000 0.0000
vn 0.0000 1.0000 0.0000
vn 0.0000 1.0000 0.0000
vn 0.0000 1.0000 0.0000
vn 0.0000 1.0000 0.0000
vn 0.0000 1.0000 0.0000
vn 0.0000 1.0000 0.0000
vn 0.0000 1.0000 0.0000
vn 0.0000 1.0000 0.0000
vn 0.0000 1.0000 0.0000
vn 0.0000 1.0000 0.0000
vn 0.0000 1.0000 0.0000
vn 0.0000 1.0000 0.0000
vn 0.0000 1.0000 0.0000
vn 0.0000 1.0000 0.0000
vn 0.0000 1.0000 0.0000
vn 0.0000 1.0000 0.0000
vn 0.0000 1.0000 0.0000
vn 0.0000 1.0000 0.0000
vn 0.0000 1.0000 0.0000
vn 0.0000 1.0000 0.0000
vn 0.0000 1.0000 0.0000
vn 0.0000 1.0000 0.0000
vn 0.0000 1.0000 0.0000
vn 0.0000 1.0000 0.0000
vn 0.0000 1.0000 0.0000
vn 0.0000 1.0000 0.0000
vn 0.0000 1.0000 0.0000
vn 0.0000 1.0000 0.0000
vn 0.0000 1.0000 0.0000
vn 0.0000 1.0000 0.0000
vn 0.0000 1.0000 0.0000
vn 0.0000 1.0000 0.0000
vn 0.0000 1.0000 0.0000
vn 0.0000 1.0000 0.0000
vn 0.0000 1.0000 0.0000
vn 0.0000 1.0000 0.0000
vn 0.0000 1.0000 0.0000
vn 0.0000 1.0000 0.0000
vn 0.0000 1.0000 0.0000
vn 0.0000 1.0000 0.0000
vn 0.0000 1.0000 0.0000
vn 0.0000 1.0000 0.0000
vn 0.0000 1.0000 0.0000
vn 0.0000 1.0000 0.0000
vn 0.0000 1.0000 0.0000
vn 0.0000 1.0000 0.0000
vn 0.0000 1.0000 0.0000
vn 0.0000 1.0000 0.0000
vn 0.0000 1.0000 0.0000
vn 0.0000 1.0000 0.0000
vn 0.0000 1.0000 0.0000
vn 0.0000 1.0000 0.0000
vn 0.0000 1.0000 0.0000
vn 0.0000 1.0000 0.0000
vn 0.0000 1.0000 0.0000
vn 0.0000 1.0000 0.0000
vn 0.0000 1.0000 0.0000
vn 0.0000 1.0000 0.0000
vn 0.0000 1.0000 0.0000
vn 0.0000 1.0000 0.0000
vn 0.0000 1.0000 0.0000
vn 0.0000 1.0000 0.0000
vn 0.0000 1.0000 0.0000
vn 0.0000 1.0000 0.0000
vn 0.0000 1.0000 0.0000
vn 0.0000 1.0000 0.0000
vn 0.0000 1.0000 0.0000
vn 0.0000 1.0000 0.0000
vn 0.0000 1.0000 0.0000
vn 0.0000 1.0000 0.0000
vn 0.0000 1.0000 0.0000
vn 0.0000 1.0000 0.0000
vn 0.0000 1.0000 0.0000
vn 0.0000 1.0000 0.0000
vn 0.0000 1.0000 0.0000
vn 0.0000 1.0000 0.0000
vn 0.0000 1.0000 0.0000
vn 0.0000 1.0000 0.0000
vn 0.0000 1.0000 0.0000
vn 0.0000 1.0000 0.0000
vn 0.0000 1.0000 0.0000
vn 0.0000 1.0000 0.0000
vn 0.0000 1.0000 0.0000
vn 0.0000 1.0000 0.0000
vn 0.0000 1.0000 0.0000
vn 0.0000 1.0000 0.0000
vn 0.0000 1.0000 0.0000
vn 0.0000 1.0000 0.0000
vn 0.0000 1.0000 0.0000
vn 0.0000 1.0000 0.0000
vn 0.0000 1.0000 0.0000
vn 0.0000 1.0000 0.0000
vn 0.0000 1.0000 0.0000
vn 0.0000 1.0000 0.0000
vn 0.0000 1.0000 0.0000
vn 0.0000 1.0000 0.0000
vn 0.0000 1.0000 0.0000
vn 0.0000 1.0000 0.0000
vn 0.0000 1.0000 0.0000
vn 0.0000 1.0000 0.0000
vn 0.0000 1.0000 0.0000
vn 0.0000 1.0000 0.0000
vn 0.0000 1.0000 0.0000
vn 0.0000 1.0000 0.0000
vn 0.0000 1.0000 0.0000
vn 0.0000 1.0000 0.0000
vn 0.0000 1.0000 0.0000
vn 0.0000 1.0000 0.0000
vn 0.0000 1.0000 0.0000
vn 0.0000 1.0000 0.0000
vn 0.0000 1.0000 0.0000
vn 0.0000 1.0000 0.0000
vn 0.0000 1.0000 0.0000
vn 0.0000 1.0000 0.0000
vn 0.0000 1.0000 0.0000
vn 0.0000 1.0000 0.0000
vn 0.0000 1.0000 0.0000
vn 0.0000 1.0000 0.0000
vn 0.0000 1.0000 0.0000
vn 0.0000 1.0000 0.0000
vn 0.0000 1.0000 0.0000
vn 0.0000 1.0000 0.0000
vn 0.0000 1.0000 0.0000
vn 0.0000 1.0000 0.0000
vn 0.0000 1.0000 0.0000
vn 0.0000 1.0000 0.0000
vn 0.0000 1.0000 0.0000
vn 0.0000 1.0000 0.0000
vn 0.0000 1.0000 0.0000
vn 0.0000 1.0000 0.0000
vn 0.0000 1.0000 0.0000
vn 0.0000 1.0000 0.0000
vn 0.0000 1.0000 0.0000
vn 0.0000 1.0000 0.0000
vn 0.0000 1.0000 0.0000
vn 0.0000 1.0000 0.0000
vn 0.0000 1.0000 0.0000
vn 0.0000 1.0000 0.0000
vn 0.0000 1.0000 0.0000
vn 0.0000 1.0000 0.0000
vn 0.0000 1.0000 0.0000
vn 0.0000 1.0000 0.0000
vn 0.0000 1.0000 0.0000
vn 0.0000 1.0000 0.0000
vn 0.0000 1.0000 0.0000
vn 0.0000 1.0000 0.0000
vn 0.0000 1.0000 0.0000
vn 0.0000 1.0000 0.0000
vn 0.0000 1.0000 0.0000
vn 0.0000 1.0000 0.0000
vn 0.0000 1.0000 0.0000
vn 0.0000 1.0000 0.0000
vn 0.0000 1.0000 0.0000
vn 0.0000 1.0000 0.0000
vn 0.0000 1.0000 0.0000
vn 0.0000 1.0000 0.0000
vn 0.0000 1.0000 0.0000
vn 0.0000 1.0000 0.0000
vn 0.0000 1.0000 0.0000
vn 0.0000 1.0000 0.0000
vn 0.0000 1.0000 0.0000
vn 0.0000 1.0000 0.0000
vn 0.0000 1.0000 0.0000
vn 0.0000 1.0000 0.0000
vn 0.0000 1.0000 0.0000
vn 0.0000 1.0000 0.0000
vn 0.0000 1.0000 0.0000
vn 0.0000 1.0000 0.0000
vn 0.0000 1.0000 0.0000
vn 0.0000 1.0000 0.0000
vn 0.0000 1.0000 0.0000
vn 0.0000 1.0000 0.0000
vn 0.0000 1.0000 0.0000
vn 0.0000 1.0000 0.0000
vn 0.0000 1.0000 0.0000
vn 0.0000 1.0000 0.0000
vn 0.0000 1.0000 0.0000
vn 0.0000 1.0000 0.0000
vn 0.0000 1.0000 0.0000
vn 0.0000 1.0000 0.0000
vn 0.0000 1.0000 0.0000
vn 0.0000 1.0000 0.0000
vn 0.0000 1.0000 0.0000
vn 0.0000 1.0000 0.0000
vn 0.0000 1.0000 0.0000
vn 0.0000 1.0000 0.0000
vn 0.0000 1.0000 0.0000
vn 0.0000 1.0000 0.0000
vn 0.0000 1.0000 0.0000
vn 0.0000 1.0000 0.0000
vn 0.0000 1.0000 0.0000
vn 0.0000 1.0000 0.0000
vn 0.0000 1.0000 0.0000
vn 0.0000 1.0000 0.0000
vn 0.0000 1.0000 0.0000
vn 0.0000 1.0000 0.0000
vn 0.0000 1.0000 0.0000
vn 0.0000 1.0000 0.0000
vn 0.0000 1.0000 0.0000
vn 0.0000 1.0000 0.0000
vn 0.0000 1.0000 0.0000
vn 0.0000 1.0000 0.0000
vn 0.0000 1.0000 0.0000
vn 0.0000 1.0000 0.0000
vn 0.0000 1.0000 0.0000
f 1 2 3
f 4 5 6
f 7 8 9
f 10 11 12
f 13 14 15
f 16 17 18
f 19 20 21
f 22 23 24
f 25 26 27
f 28 29 30
f 31 32 33
f 34 35 36
f 37 38 39
f 40 41 42
f 43 44 45
f 46 47 48
f 49 50 51
f 52 53 54
f 55 56 57
f 58 59 60
f 61 62 63
f 64 65 66
f 67 68 69
f 70 71 72
f 73 74 75
f 76 77 78
f 79 80 81
f 82 83 84
f 85 86 87
f 88 89 90
f 91 92 93
f 94 95 96
f 97 98 99
f 100 101 102
f 103 104 105
f 106 107 108
f 109 110 111
f 112 113 114
f 115 116 117
f 118 119 120
f 121 122 123
f 124 125 126
f 127 128 129
f 130 131 132
f 133 134 135
f 136 137 138
f 139 140 141
f 142 143 144
f 145 146 147
f 148 149 150
f 151 152 153
f 154 155 156
f 157 158 159
f 160 161 162
f 163 164 165
f 166 167 168
f 169 170 171
f 172 173 174
f 175 176 177
f 178 179 180
f 181 182 183
f 184 185 186
f 187 188 189
f 190 191 192
f 193 194 195
f 196 197 198
f 199 200 201
f 202 203 204
f 205 206 207
f 208 209 210
f 211 212 213
f 214 215 216
f 217 218 219
f 220 221 222
f 223 224 225
f 226 227 228
f 229 230 231
f 232 233 234
f 235 236 237
f 238 239 240
f 241 242 243
f 244 245 246
f 247 248 249
f 250 251 252
f 253 254 255
f 256 257 258
f 259 260 261
f 262 263 264
f 265 266 267
f 268 269 270
f 271 272 273
f 274 275 276
f 277 278 279
f 280 281 282
f 283 284 285
f 286 287 288
f 289 290 291
f 292 293 294
f 295 296 297
f 298 299 300
f 301 302 303
f 304 305 306
f 307 308 309
f 310 311 312
f 313 314 315
f 316 317 318
f 319 320 321
f 322 323 324
f 325 326 327
f 328 329 330
f 331 332 333
f 334 335 336
f 337 338 339
f 340 341 342
f 343 344 345
f 346 347 348
f 349 350 351
f 352 353 354
f 355 356 357
f 358 359 360
f 361 362 363
f 364 365 366
f 367 368 369
f 370 371 372
f 373 374 375
f 376 377 378
f 379 380 381
f 382 383 384
f 385 386 387
f 388 389 390
f 391 392 393
f 394 395 396
f 397 398 399
f 400 401 402
f 403 404 405
f 406 407 408
f 409 410 411
f 412 413 414
f 415 416 417
f 418 419 420
f 421 422 423
f 424 425 426
f 427 428 429
f 430 431 432
f 433 434 435
f 436 437 438
f 439 440 441
f 442 443 444
f 445 446 447
f 448 449 450
f 451 452 453
f 454 455 456
f 457 458 459
f 460 461 462
f 463 464 465
f 466 467 468
f 469 470 471
f 472 473 474
f 475 476 477
f 478 479 480
f 481 482 483
f 484 485 486
f 487 488 489
f 490 491 492
f 493 494 495
f 496 497 498
f 499 500 501
f 502 503 504
f 505 506 507
f 508 509 510
f 511 512 513
f 514 515 516
f 517 518 519
f 520 521 522
f 523 524 525
f 526 527 528
f 529 530 531
f 532 533 534
f 535 536 537
f 538 539 540
f 541 542 543
f 544 545 546
f 547 548 549
f 550 551 552
f 553 554 555
f 556 557 558
f 559 560 561
f 562 563 564
f 565 566 567
f 568 569 570
f 571 572 573
f 574 575 576
f 577 578 579
f 580 581 582
f 583 584 585
f 586 587 588
f 589 590 591
f 592 593 594
f 595 596 597
f 598 599 600
f 601 602 603
f 604 605 606
f 607 608 609
f 610 611 612
f 613 614 615
f 616 617 618
f 619 620 621
f 622 623 624
f 625 626 627
f 628 629 630
f 631 632 633
f 634 635 636
f 637 638 639
f 640 641 642
f 643 644 645
f 646 647 648
f 649 650 651
f 652 653 654
f 655 656 657
f 658 659 660
f 661 662 663
f 664 665 666
f 667 668 669
f 670 671 672
f 673 674 675
f 676 677 678
f 679 680 681
f 682 683 684
f 685 686 687
f 688 689 690
f 691 692 693
f 694 695 696
f 697 698 699
f 700 701 702
f 703 704 705
f 706 707 708
f 709 710 711
f 712 713 714
f 715 716 717
f 718 719 720
f 721 722 723
f 724 725 726
f 727 728 729
f 730 731 732
f 733 734 735
f 736 737 738
f 739 740 741
f 742 743 744
f 745 746 747
f 748 749 750
f 751 752 753
f 754 755 756
f 757 758 759
f 760 761 762
f 763 764 765
f 766 767 768
f 769 770 771
f 772 773 774
f 775 776 777
f 778 779 780
f 781 782 783
f 784 785 786
f 787 788 789
f 790 791 792
f 793 794 795
f 796 797 798
f 799 800 801
f 802 803 804
f 805 806 807
f 808 809 810
f 811 812 813
f 814 815 816
f 817 818 819
f 820 821 822
f 823 824 825
f 826 827 828
f 829 830 831
f 832 833 834
f 835 836 837
f 838 839 840
f 841 842 843
f 844 845 846
f 847 848 849
f 850 851 852
f 853 854 855
f 856 857 858
f 859 860 861
f 862 863 864
f 865 866 867
f 868 869 870
f 871 872 873
f 874 875 876
f 877 878 879
f 880 881 882
f 883 884 885
f 886 887 888
f 889 890 891
f 892 893 894
f 895 896 897
f 898 899 900
f 901 902 903
f 904 905 906
f 907 908 909
f 910 911 912
f 913 914 915
f 916 917 918
f 919 920 921
f 922 923 924
f 925 926 927
f 928 929 930
f 931 932 933
f 934 935 936
f 937 938 939
f 940 941 942
f 943 944 945
f 946 947 948
f 949 950 951
f 952 953 954
f 955 956 957
f 958 959 960
f 961 962 963
f 964 965 966
f 967 968 969
f 970 971 972
f 973 974 975
f 976 977 978
f 979 980 981
f 982 983 984
f 985 986 987
f 988 989 990
f 991 992 993
f 994 995 996
f 997 998 999
f 1000 1001 1002
f 1003 1004 1005
f 1006 1007 1008
f 1009 1010 1011
f 1012 1013 1014
f 1015 1016 1017
f 1018 1019 1020
f 1021 1022 1023
f 1024 1025 1026
f 1027 1028 1029
f 1030 1031 1032
f 1033 1034 1035
f 1036 1037 1038
f 1039 1040 1041
f 1042 1043 1044
f 1045 1046 1047
f 1048 1049 1050
f 1051 1052 1053
f 1054 1055 1056
f 1057 1058 1059
f 1060 1061 1062
f 1063 1064 1065
f 1066 1067 1068
f 1069 1070 1071
f 1072 1073 1074
f 1075 1076 1077
f 1078 1079 1080
f 1081 1082 1083
f 1084 1085 1086
f 1087 1088 1089
f 1090 1091 1092
f 1093 1094 1095
f 1096 1097 1098
f 1099 1100 1101
f 1102 1103 1104
f 1105 1106 1107
f 1108 1109 1110
f 1111 1112 1113
f 1114 1115 1116
f 1117 1118 1119
f 1120 1121 1122
f 1123 1124 1125
f 1126 1127 1128
f 1129 1130 1131
f 1132 1133 1134
f 1135 1136 1137
f 1138 1139 1140
f 1141 1142 1143
f 1144 1145 1146
f 1147 1148 1149
f 1150 1151 1152
f 1153 1154 1155
f 1156 1157 1158
f 1159 1160 1161
f 1162 1163 1164
f 1165 1166 1167
f 1168 1169 1170
f 1171 1172 1173
f 1174 1175 1176
f 1177 1178 1179
f 1180 1181 1182
f 1183 1184 1185
f 1186 1187 1188
f 1189 1190 1191
f 1192 1193 1194
f 1195 1196 1197
f 1198 1199 1200
f 1201 1202 1203
f 1204 1205 1206
f 1207 1208 1209
f 1210 1211 1212
f 1213 1214 1215
f 1216 1217 1218
f 1219 1220 1221
f 1222 1223 1224
f 1225 1226 1227
f 1228 1229 1230
f 1231 1232 1233
f 1234 1235 1236
f 1237 1238 1239
f 1240 1241 1242
f 1243 1244 1245
f 1246 1247 1248
f 1249 1250 1251
f 1252 1253 1254
f 1255 1256 1257
f 1258 1259 1260
f 1261 1262 1263
f 1264 1265 1266
f 1267 1268 1269
f 1270 1271 1272
f 1273 1274 1275
f 1276 1277 1278
f 1279 1280 1281
f 1282 1283 1284
f 1285 1286 1287
f 1288 1289 1290
f 1291 1292 1293
f 1294 1295 1296
f 1297 1298 1299
f 1300 1301 1302
f 1303 1304 1305
f 1306 1307 1308
f 1309 1310 1311
f 1312 1313 1314
f 1315 1316 1317
f 1318 1319 1320
f 1321 1322 1323
f 1324 1325 1326
f 1327 1328 1329
f 1330 1331 1332
f 1333 1334 1335
f 1336 1337 1338
f 1339 1340 1341
f 1342 1343 1344
f 1345 1346 1347
f 1348 1349 1350
f 1351 1352 1353
f 1354 1355 1356
f 1357 1358 1359
f 1360 1361 1362
f 1363 1364 1365
f 1366 1367 1368
f 1369 1370 1371
f 1372 1373 1374
f 1375 1376 1377
f 1378 1379 1380
f 1381 1382 1383
f 1384 1385 1386
f 1387 1388 1389
f 1390 1391 1392
f 1393 1394 1395
f 1396 1397 1398
f 1399 1400 1401
f 1402 1403 1404
f 1405 1406 1407
f 1408 1409 1410
f 1411 1412 1413
f 1414 1415 1416
f 1417 1418 1419
f 1420 1421 1422
f 1423 1424 1425
f 1426 1427 1428
f 1429 1430 1431
