# PSO Extracted Authentic Geometry
v 0.0000 0.2000 0.0000
v -345.0000 0.0000 460.0000
v 130.0000 0.0000 0.0000
v 0.0000 -345.0000 0.0000
v -260.0000 0.0000 0.0000
v 0.0000 130.0000 0.0000
v 0.0000 0.0000 375.0000
v 0.0000 220.0000 0.0000
v 0.0000 0.0000 130.0000
v -585.0000 0.0000 220.0000
v 130.0000 0.0000 0.0000
v 0.0000 -1005.0000 0.0000
v -20.0000 0.0000 0.0000
v 0.0000 78.1025 0.0000
v 0.0000 0.0000 555.0000
v 0.0000 -260.0000 0.0000
v 0.0000 0.0000 78.1025
v -825.0000 0.0000 -560.0000
v 78.1025 0.0000 0.0000
v 0.0000 -1005.0000 0.0000
v -980.0000 0.0000 0.0000
v 0.0000 78.1025 0.0000
v 0.0000 0.0000 15.0000
v 0.0000 760.0000 0.0000
v 0.0000 0.0000 78.1025
v 375.0000 0.0000 -920.0000
v 78.1025 0.0000 0.0000
v 0.0000 -825.0000 0.0000
v -200.0000 0.0000 0.0000
v 0.0000 78.1025 0.0000
v 0.0000 0.0000 375.0000
v 0.0000 -560.0000 0.0000
v 0.0000 0.0000 78.1025
v -345.0000 0.0000 -1160.0000
v 78.1025 0.0000 0.0000
v 0.0000 -1185.0000 0.0000
v -200.0000 0.0000 0.0000
v 0.0000 78.1025 0.0000
v 0.0000 0.0000 15.0000
v 0.0000 340.0000 0.0000
v 0.0000 0.0000 130.0000
v 15.0000 0.0000 -380.0000
v 130.0000 0.0000 0.0000
v 0.0000 615.0000 0.0000
v -740.0000 0.0000 0.0000
v 0.0000 130.0000 0.0000
v 0.0000 0.0000 195.0000
v 0.0000 40.0000 0.0000
v 0.0000 0.0000 118.3216
v -165.0000 0.0000 640.0000
v 118.3216 0.0000 0.0000
v 0.0000 -165.0000 0.0000
v 160.0000 0.0000 0.0000
v 0.0000 118.3216 0.0000
v 0.0000 0.0000 -165.0000
v 0.0000 -560.0000 0.0000
v 0.0000 0.0000 118.3216
v 195.0000 0.0000 520.0000
v 118.3216 0.0000 0.0000
v 0.0000 195.0000 0.0000
v -680.0000 0.0000 0.0000
v 0.0000 118.3216 0.0000
v 0.0000 -740.0000 0.0000
v 0.0000 0.0000 174.3559
v -345.0000 0.0000 -500.0000
v 174.3559 0.0000 0.0000
v 700.0000 0.0000 0.0000
v 0.0000 174.3559 0.0000
v 0.0000 460.0000 0.0000
v 0.0000 0.0000 174.3559
v -345.0000 0.0000 700.0000
v 142.8364 0.0000 0.0000
v 0.0000 -345.0000 0.0000
v -500.0000 0.0000 0.0000
v 0.0000 142.8364 0.0000
v 0.0000 0.0000 375.0000
v 0.0000 460.0000 0.0000
v 0.0000 0.0000 148.1966
v 375.0000 0.0000 -740.0000
v 144.4654 0.0000 0.0000
v 0.0000 -825.0000 0.0000
v 100.0000 0.0000 0.0000
v 0.0000 275.5109 0.0000
v 0.0000 0.0000 -825.0000
v 0.0000 -860.0000 0.0000
v 0.0000 0.0000 275.5109
v 15.0000 0.0000 -20.0000
v 270.6012 0.0000 0.0000
v 0.0000 375.0000 0.0000
v -140.0000 0.0000 0.0000
v 0.0000 270.6011 0.0000
v 0.0000 0.0000 -345.0000
v 0.0000 -860.0000 0.0000
v 0.0000 0.0000 270.6011
v -345.0000 0.0000 100.0000
v 272.9469 0.0000 0.0000
v -260.0000 0.0000 0.0000
v 0.0000 44.5602 0.0000
v 0.0000 -20.0000 0.0000
v 0.0000 0.0000 44.5602
v -465.0000 0.0000 700.0000
v 44.5602 0.0000 0.0000
v -1100.0000 0.0000 0.0000
v 0.0000 44.5602 0.0000
v 0.0000 -975.0000 0.0000
v 0.0000 0.0000 44.5602
v -705.0000 0.0000 -20.0000
v 44.5602 0.0000 0.0000
v 220.0000 0.0000 0.0000
v 0.0000 44.5602 0.0000
v 0.0000 -20.0000 0.0000
v 0.0000 0.0000 44.5602
v -945.0000 0.0000 -740.0000
v 44.5602 0.0000 0.0000
v -740.0000 0.0000 0.0000
v 0.0000 44.5602 0.0000
v 0.0000 340.0000 0.0000
v 0.0000 0.0000 44.5602
v -345.0000 0.0000 820.0000
v 44.5602 0.0000 0.0000
v -140.0000 0.0000 0.0000
v 0.0000 44.5602 0.0000
v 0.0000 -980.0000 0.0000
v 0.0000 0.0000 44.5602
v 495.0000 0.0000 -20.0000
v 44.5602 0.0000 0.0000
v -980.0000 0.0000 0.0000
v 0.0000 44.5602 0.0000
v 0.0000 -140.0000 0.0000
v 0.0000 0.0000 44.5602
v -705.0000 0.0000 -740.0000
v 44.5602 0.0000 0.0000
v 0.0000 15.0000 0.0000
v 880.0000 0.0000 0.0000
v 0.0000 87.4128 0.0000
v 0.0000 0.0000 375.0000
v 0.0000 -1040.0000 0.0000
v 0.0000 0.0000 87.4128
v 675.0000 0.0000 -260.0000
v 87.4128 0.0000 0.0000
v 0.0000 -1185.0000 0.0000
v -320.0000 0.0000 0.0000
v 0.0000 87.4128 0.0000
v 0.0000 0.0000 -345.0000
v 0.0000 -1280.0000 0.0000
v 0.0000 0.0000 87.4128
v -1125.0000 0.0000 -980.0000
v 87.4128 0.0000 0.0000
v 0.0000 15.0000 0.0000
v -740.0000 0.0000 0.0000
v 0.0000 61.7651 0.0000
v 0.0000 0.0000 -1305.0000
v 0.0000 -20.0000 0.0000
v 0.0000 0.0000 61.7651
v 375.0000 0.0000 -500.0000
v 61.7651 0.0000 0.0000
v 0.0000 -945.0000 0.0000
v -380.0000 0.0000 0.0000
v 0.0000 61.7651 0.0000
v 0.0000 0.0000 -705.0000
v 0.0000 -380.0000 0.0000
v 0.0000 0.0000 61.7651
v -1185.0000 0.0000 100.0000
v 61.7651 0.0000 0.0000
v 0.0000 -465.0000 0.0000
v -620.0000 0.0000 0.0000
v 0.0000 173.0816 0.0000
v 0.0000 0.0000 495.0000
v 0.0000 580.0000 0.0000
v 0.0000 0.0000 144.9069
v 855.0000 0.0000 -740.0000
v 220.0000 0.0000 0.0000
v 0.0000 -1185.0000 0.0000
v -20.0000 0.0000 0.0000
v 0.0000 172.3369 0.0000
v 0.0000 0.0000 -825.0000
v 0.0000 -380.0000 0.0000
v 0.0000 0.0000 172.3369
v 15.0000 0.0000 580.0000
v 172.3369 0.0000 0.0000
v 0.0000 15.0000 0.0000
v -620.0000 0.0000 0.0000
v 0.0000 172.3369 0.0000
v 0.0000 0.0000 800.0000
v 0.0000 -14.0009 -2.3216
v 190.9472 0.0000 0.0000
v 1.0000 1.0000 1.0000
v 1.0000 0.0000 0.0000
v -38.7027 45.8867 -13.0889
v 102.1329 0.0000 0.0000
v 1.0000 1.0000 1.0000
v 5.0196 0.0000 0.0000
v 0.0000 0.0000 0.2500
v 0.0000 220.1592 0.0000
v 0.0000 0.0000 20.0000
v 0.0000 1.0000 1.0000
v 1.0000 0.0000 0.0000
v 1.0039 1.0000 0.0000
v -58.0000 11.6327 -58.0000
v 137.7448 0.0000 0.0000
v 1.0000 1.0000 1.0000
v 0.6196 0.0000 0.0000
v 0.0000 11.6327 33.7500
v 171.4789 0.0000 0.0000
v 1.0000 1.0000 1.0000
v 1.0000 0.0000 0.0000
v 0.0000 11.6327 21.9997
v 68.9197 0.0000 0.0000
v 1.0000 1.0000 1.0000
v 0.0000 9.9136 24.1237
v -1.3428 57.4706 0.0000
v 0.0000 1.0000 1.0000
v 1.0000 0.0000 0.0000
v -2.0078 0.0000 0.0000
v 0.0000 0.0000 11.0000
v 15.6682 -0.5000 57.2132
v 0.0000 0.0000 1.0000
v 1.0000 1.0000 0.0000
v 1.0039 0.0000 0.0000
v 0.0000 0.0000 21.0159
v 113.6734 -49.8520 45.8685
v -80.0000 0.0000 0.0000
v 0.0000 0.0000 1.0000
v 1.0000 1.0000 0.0000
v 0.0000 0.0000 -0.5330
v 3.9400 -8.0277 71.0235
v 0.0000 0.0000 1.0000
v 1.0000 1.0000 0.0000
v 0.0000 -1.4044 0.2400
v 1.8399 58.8574 0.0000
v 0.0000 1.0000 1.0000
v 1.0000 0.0000 0.0000
v 0.0000 0.2588 0.0000
v 0.0000 -0.6037 1.5000
v -0.2747 65.1102 0.0000
v 0.0000 1.0000 1.0000
v 1.0000 0.0000 0.0000
v 60.0000 0.0000 103.9230
v -80.0000 0.0000 0.0000
v 0.0000 0.0000 1.0000
v 1.0000 1.0000 0.0000
v 0.0000 1.0000 0.0000
v -0.0000 33.1662 0.0000
v 0.0000 1.0000 1.0000
v 1.0000 0.0000 0.0000
v -0.0000 26.5160 4.0095
v 38.4020 0.0000 0.0000
v 1.0000 1.0000 1.0000
v 0.0000 -4.0157 0.0000
v 0.0000 0.0000 30.0000
v 0.0000 209.3442 0.0000
v 0.0000 1.0000 1.0000
v 1.0000 0.0000 0.0000
v 0.0000 30.0000 0.0000
v 192.9274 0.0000 0.0000
v 1.0000 1.0000 1.0000
v -0.9922 0.0000 0.0000
v 35.0300 0.0000 243.7972
v 0.0000 0.0000 1.0000
v 1.0000 1.0000 0.0000
v 0.0000 1.0000 0.0000
v 0.0000 0.0000 98.2500
v 22.5000 0.0000 55.3020
v 0.0000 0.0000 1.0000
v 1.0000 1.0000 0.0000
v 0.1490 0.0000 0.0000
v 0.0000 109.2500 26.5657
v 0.9039 47.2420 0.0000
v 0.0000 1.0000 1.0000
v 1.0000 0.0000 0.0000
v 108.0000 28.9701 -18.9259
v 14.2599 0.0000 0.0000
v 1.0000 1.0000 1.0000
v 1.0000 0.0000 0.0000
v 108.0000 26.7396 11.6680
v 10.1840 0.0000 0.0000
v 1.0000 1.0000 1.0000
v 108.0593 25.4595 -12.2823
v 9.1194 0.0000 0.0000
v 1.0000 1.0000 1.0000
v 0.9725 0.0000 0.0000
v 108.0719 30.0152 -32.4757
v 16.3195 0.0000 0.0000
v 1.0000 1.0000 1.0000
v 0.9922 0.4863 0.0000
v 0.0000 0.0000 108.0000
v 28.1252 23.9947 11.9380
v 0.0000 0.0000 1.0000
v 1.0000 1.0000 0.0000
v 0.0000 0.0000 108.0000
v 31.0000 34.0000 17.0497
v 0.0000 0.0000 1.0000
v 1.0000 1.0000 0.0000
v 0.0000 1.0000 0.0000
v 0.0500 8.2500 -0.4000
v 259.7556 0.0000 0.0000
v 1.0000 1.0000 1.0000
v 0.0000 88.0000 0.0000
v 268.9312 0.0000 0.0000
v 1.0000 1.0000 1.0000
v 0.0000 1.0000 0.0000
v 0.0000 8.5500 0.0000
v 260.4292 0.0000 0.0000
v 1.0000 1.0000 1.0000
v 2.0078 -1.0039 0.0000
v 55.0000 -7.5000 166.0640
v 0.0000 0.0000 1.0000
v 1.0000 1.0000 0.0000
v -98.0000 37.5000 -0.0000
v 61.5732 0.0000 0.0000
v 1.0000 1.0000 1.0000
v -102.1075 33.7484 0.0000
v 23.4126 0.0000 0.0000
v 1.0000 1.0000 1.0000
v 0.0000 -63.2555 2.7294
v 219.8372 17.7821 0.0000
v 0.0000 1.0000 1.0000
v 1.0000 0.0000 0.0000
v 1.0039 0.0000 0.0000
v 0.0000 0.0000 -98.4234
v 4.4151 185.9636 16.0480
v 0.0000 0.0000 1.0000
v 1.0000 1.0000 0.0000
v -97.5168 4.6981 224.3697
v 17.9298 0.0000 0.0000
v 1.0000 1.0000 1.0000
v 0.0000 -47.8154 6.2653
v 221.7031 17.7537 0.0000
v 0.0000 1.0000 1.0000
v 1.0000 0.0000 0.0000
v 1.0039 0.0000 0.0000
v 0.0000 0.0000 -100.9515
v 7.1404 209.9886 17.7900
v 0.0000 0.0000 1.0000
v 1.0000 1.0000 0.0000
v 93.6295 3.3764 -220.9489
v 17.8897 0.0000 0.0000
v 1.0000 1.0000 1.0000
v 0.0000 104.5986 5.1321
v -209.4010 17.9000 0.0000
v 0.0000 1.0000 1.0000
v 1.0000 0.0000 0.0000
v 1.0039 0.0000 0.0000
v 0.0000 0.0000 102.3499
v 7.1404 -219.2488 17.7900
v 0.0000 0.0000 1.0000
v 1.0000 1.0000 0.0000
v -101.3388 2.6162 194.2897
v 15.8682 0.0000 0.0000
v 1.0000 1.0000 1.0000
v 1.0000 0.0000 0.0000
v 0.0000 -5.0000 0.0000
v 278.6126 0.0000 0.0000
v 1.0000 1.0000 1.0000
v 6.0235 -1.0039 0.0000
v 0.0000 35.0000 0.0000
v 262.6347 0.0000 0.0000
v 1.0000 1.0000 1.0000
v 0.0000 1.0000 0.0000
v 0.0000 144.2540 -140.0000
v 132.6757 0.0000 0.0000
v 1.0000 1.0000 1.0000
v 0.0000 0.0000 -0.0250
v 9.0000 73.8040 196.5311
v 0.0000 0.0000 1.0000
v 1.0000 1.0000 0.0000
v 0.2471 0.4314 0.0000
v 0.0000 -0.8085 20.3380
v 57.6102 200.7699 0.0000
v 0.0000 1.0000 1.0000
v 1.0000 0.0000 0.0000
v 0.0000 1.0000 0.0000
v 0.0000 30.0000 -137.0000
v 149.7364 0.0000 0.0000
v 1.0000 1.0000 1.0000
v 0.0000 0.0000 32.2500
v 82.0000 114.0003 0.0000
v 0.0000 1.0000 1.0000
v 1.0000 0.0000 0.0000
v -0.9922 0.0000 0.0000
v 0.0000 35.0300 43.5000
v 232.3797 0.0000 0.0000
v 1.0000 1.0000 1.0000
v 88.0000 0.0000 268.9312
v 0.0000 0.0000 1.0000
v 1.0000 1.0000 0.0000
v 0.0000 -94.4374 2.5554
v 214.0988 14.9609 0.0000
v 0.0000 1.0000 1.0000
v 1.0000 0.0000 0.0000
v 1.0039 0.0000 0.0000
v 0.0000 0.0000 -75.4215
v 2.8061 225.9115 15.0815
v 0.0000 0.0000 1.0000
v 1.0000 1.0000 0.0000
v -79.7856 4.3489 218.7338
v 15.1610 0.0000 0.0000
v 1.0000 1.0000 1.0000
v 0.0000 -42.2147 5.2916
v 223.9671 13.9086 0.0000
v 0.0000 1.0000 1.0000
v 1.0000 0.0000 0.0000
v 1.0039 0.0000 0.0000
v 0.0000 0.0000 103.6324
v 4.4744 193.7990 13.9672
v 0.0000 0.0000 1.0000
v 1.0000 1.0000 0.0000
v 93.8779 2.5174 209.6710
v 15.0469 0.0000 0.0000
v 1.0000 1.0000 1.0000
v 0.0000 103.0774 6.7652
v 224.6105 15.0498 0.0000
v 0.0000 1.0000 1.0000
v 1.0000 0.0000 0.0000
v 1.0039 0.0000 0.0000
v 0.0000 0.0000 104.1736
v 4.5227 160.1015 13.9657
v 0.0000 0.0000 1.0000
v 1.0000 1.0000 0.0000
v 57.4896 2.5174 224.8515
v 15.0469 0.0000 0.0000
v 1.0000 1.0000 1.0000
v 0.0000 104.1865 4.9750
v 57.9734 12.8163 0.0000
v 0.0000 1.0000 1.0000
v 1.0000 0.0000 0.0000
v 1.0039 0.0000 0.0000
v 0.0000 0.0000 105.2700
v 3.4555 71.1515 12.7805
v 0.0000 0.0000 1.0000
v 1.0000 1.0000 0.0000
v -104.5055 4.8652 35.7383
v 12.7812 0.0000 0.0000
v 1.0000 1.0000 1.0000
v 0.0000 -104.9803 4.5022
v 76.5924 12.7663 0.0000
v 0.0000 1.0000 1.0000
v 1.0000 0.0000 0.0000
v 1.0039 0.0000 0.0000
v 0.0000 0.0000 -104.9720
v 8.0086 52.9130 13.6294
v 0.0000 0.0000 1.0000
v 1.0000 1.0000 0.0000
v -105.7639 4.7533 191.7778
v 13.9646 0.0000 0.0000
v 1.0000 1.0000 1.0000
v 0.0000 -102.7962 10.4190
v 221.5056 15.1065 0.0000
v 0.0000 1.0000 1.0000
v 1.0000 0.0000 0.0000
v 1.0039 0.0000 0.0000
v 0.0000 0.0000 103.3312
v 2.5174 167.9717 15.0469
v 0.0000 0.0000 1.0000
v 1.0000 1.0000 0.0000
v 104.9340 2.8000 23.0865
v 12.6048 0.0000 0.0000
v 1.0000 1.0000 1.0000
v -5.0000 0.0000 278.6126
v 0.0000 0.0000 1.0000
v 1.0000 1.0000 0.0000
v 35.0000 0.0000 262.6347
v 0.0000 0.0000 1.0000
v 1.0000 1.0000 0.0000
v 0.0000 1.0000 5.0000
v 40.0000 169.6033 0.0000
v 0.0000 1.0000 1.0000
v 1.0000 0.0000 0.0000
v 14.0549 -2.0078 0.0000
v -0.0000 -2.5000 0.0000
v 147.8251 0.0000 0.0000
v 1.0000 1.0000 1.0000
v 0.0000 0.5903 8.2071
v -189.7181 114.5485 0.0000
v 0.0000 1.0000 1.0000
v 1.0000 0.0000 0.0000
v 0.0000 81.0000 0.0000
v 268.5535 0.0000 0.0000
v 1.0000 1.0000 1.0000
v 0.0000 5.0500 -74.4000
v 179.4927 0.0000 0.0000
v 1.0000 1.0000 1.0000
v 0.0000 0.0000 34.9259
v 200.0650 123.8422 0.0000
v 0.0000 1.0000 1.0000
v 1.0000 0.0000 0.0000
v 0.0000 35.0000 -13.6625
v 142.3111 0.0000 0.0000
v 1.0000 1.0000 1.0000
v -0.9922 0.0000 0.0000
v 0.0000 0.0000 35.0300
v 0.0000 243.7971 0.0000
v 0.0000 1.0000 1.0000
v 1.0000 0.0000 0.0000
v 1.0000 0.0000 0.0000
v 0.0000 0.0000 35.0000
v -224.0000 119.6704 0.0000
v 0.0000 1.0000 1.0000
v 1.0000 0.0000 0.0000
v 0.0000 -105.0823 3.5932
v -79.5292 11.2379 0.0000
v 0.0000 1.0000 1.0000
v 1.0000 0.0000 0.0000
v 1.0039 0.0000 0.0000
v 0.0000 0.0000 -46.0381
v 2.1314 -70.5590 11.1077
v 0.0000 0.0000 1.0000
v 1.0000 1.0000 0.0000
v 105.5022 3.5932 -78.7478
v 11.2379 0.0000 0.0000
v 1.0000 1.0000 1.0000
v 0.0000 83.2423 2.1314
v -72.4021 11.1077 0.0000
v 0.0000 1.0000 1.0000
v 1.0000 0.0000 0.0000
v 1.0039 0.0000 0.0000
v 0.0000 0.0000 -103.1312
v 5.0685 -71.4127 11.1065
v 0.0000 0.0000 1.0000
v 1.0000 1.0000 0.0000
v -40.2893 2.1314 -207.1842
v 11.1077 0.0000 0.0000
v 1.0000 1.0000 1.0000
v 0.0000 -79.8059 2.1314
v -205.7115 11.1077 0.0000
v 0.0000 1.0000 1.0000
v 1.0000 0.0000 0.0000
v 1.0039 0.0000 0.0000
v 0.0000 0.0000 102.4925
v 2.1301 -168.0268 11.0664
v 0.0000 0.0000 1.0000
v 1.0000 1.0000 0.0000
v 73.7939 2.6162 -205.1811
v 15.8682 0.0000 0.0000
v 1.0000 1.0000 1.0000
v 0.0000 -89.9907 5.4907
v -187.3414 17.8577 0.0000
v 0.0000 1.0000 1.0000
v 1.0000 0.0000 0.0000
v 1.0039 0.0000 0.0000
v 0.0000 0.0000 101.8323
v 5.4907 -188.9489 17.8577
v 0.0000 0.0000 1.0000
v 1.0000 1.0000 0.0000
v -5.0000 0.0000 278.6126
v 0.0000 0.0000 1.0000
v 1.0000 1.0000 0.0000
v -1.0039 0.0000 0.0000
v 0.0000 0.0000 1.0000
v 35.0000 0.0000 262.6347
v 0.0000 0.0000 1.0000
v 1.0000 1.0000 0.0000
v -0.9922 0.0000 0.0000
v 0.0000 0.0000 35.0300
v 0.0000 243.7971 0.0000
v 0.0000 1.0000 1.0000
v 1.0000 0.0000 0.0000
v 1.0000 0.0000 0.0000
v 0.0000 12.5000 0.1000
v 260.3687 0.0000 0.0000
v 1.0000 1.0000 1.0000
v 2.9352 8.1590 127.1332
v 145.2377 0.0000 0.0000
v 1.0000 1.0000 1.0000
v 0.0000 0.0000 84.5000
v 0.0000 252.1946 0.0000
v 0.0000 1.0000 1.0000
v 1.0000 0.0000 0.0000
v 20.0784 0.0000 0.0000
v 0.0000 0.0000 88.0000
v 0.0000 268.9312 0.0000
v 0.0000 1.0000 1.0000
v 1.0000 0.0000 0.0000
v 0.0000 0.8497 24.0882
v 19.1924 224.4096 0.0000
v 0.0000 1.0000 1.0000
v 1.0000 0.0000 0.0000
v -101.8649 14.8051 -0.3541
v 88.7082 0.0000 0.0000
v 1.0000 1.0000 1.0000
v 0.0000 0.0000 100.1500
v 35.0000 0.0000 94.7936
v 0.0000 0.0000 1.0000
v 1.0000 1.0000 0.0000
v 0.0902 -9.0431 0.0000
v 5.0000 0.0000 260.3401
v 0.0000 0.0000 1.0000
v 1.0000 1.0000 0.0000
v 0.0000 1.0000 0.0000
v 0.0000 0.0000 -5.0000
v 0.0000 278.6126 0.0000
v 0.0000 1.0000 1.0000
v 1.0000 0.0000 0.0000
v 0.0000 0.0000 35.0000
v 0.0000 262.6347 0.0000
v 0.0000 1.0000 1.0000
v 1.0000 0.0000 0.0000
v 1.0000 0.0000 0.0000
v 0.5000 30.5000 0.0000
v 52.2924 0.0000 0.0000
v 1.0000 1.0000 1.0000
v 0.0000 -35.0000 0.0000
v 74.8331 0.0000 0.0000
v 1.0000 1.0000 1.0000
v 0.0000 0.0000 0.4238
v -0.0000 -22.7848 137.4596
v 0.0000 0.0000 1.0000
v 1.0000 1.0000 0.0000
v 4.0157 1.0000 0.0000
v 187.6166 0.0000 0.0000
v 1.0000 1.0000 1.0000
v 0.2902 0.0000 0.0000
v 0.0000 0.0000 -2.1839
v -0.0000 0.4234 146.8605
v 0.0000 0.0000 1.0000
v 1.0000 1.0000 0.0000
v 0.0039 0.4941 0.0000
v 0.0000 0.0000 0.0199
v 29.7438 0.0000 125.2536
v 0.0000 0.0000 1.0000
v 1.0000 1.0000 0.0000
v 102.7764 -0.0000 -84.2193
v 14.2935 0.0000 0.0000
v 1.0000 1.0000 1.0000
v 0.0000 0.0000 -11.5710
v 14.2125 1.1665 141.4850
v 0.0000 0.0000 1.0000
v 1.0000 1.0000 0.0000
v -0.2235 -44.9922 0.0000
v -0.5000 0.0000 155.5643
v 0.0000 0.0000 1.0000
v 1.0000 1.0000 0.0000
v 12.0471 -11.0431 0.0000
v 0.0000 155.5635 0.0000
v 0.0000 0.0000 -65.0000
v 0.0000 1.0000 1.0000
v 1.0000 0.0000 0.0000
v 0.0000 0.0000 -4.0000
v 0.0000 167.1765 0.0000
v 0.0000 0.0000 46.0000
v 0.0000 1.0000 1.0000
v 1.0000 0.0000 0.0000
v 63.5000 -1.5000 163.8704
v 0.0000 0.0000 1.0000
v 1.0000 1.0000 0.0000
v 23.6863 1.0000 0.0000
v 0.0000 0.0000 125.7100
v 0.0000 0.0000 1.0000
v 1.0000 1.0000 0.0000
v -14.0549 0.0000 0.0000
v 71.9622 0.0000 0.0000
v 75.9705 0.0000 99.3364
v 1.0000 1.0000 1.0000
v 0.0000 1.0000 0.0000
v 12.6077 0.0000 64.1595
v 0.0000 0.0000 -86.0426
v 0.0000 74.4781 0.0000
v 0.0000 0.0000 1.0000
v 1.0000 1.0000 0.0000
v 71.9622 0.0000 0.0000
v -73.5294 0.0000 -99.3364
v 1.0000 1.0000 1.0000
v 2.0078 1.0000 0.0000
v 0.0000 122.5604 0.0000
v 0.0000 0.0000 55.0385
v 0.0000 1.0000 1.0000
v 1.0000 0.0000 0.0000
v 170.3673 0.0000 0.0000
v -0.0000 -20.0000 -0.0000
v 1.0000 1.0000 1.0000
v 2.8863 0.6784 0.0000
v 0.0000 20.0000 -0.0000
v 109.6586 0.0000 0.0000
v 1.0000 1.0000 1.0000
v 21.5000 0.0000 102.9186
v 0.0000 0.0000 1.0000
v 1.0000 1.0000 0.0000
v 0.0000 25.0000 0.0000
v 121.7579 0.0000 0.0000
v 1.0000 1.0000 1.0000
v 0.0000 0.0000 -8.0000
v 0.0000 145.5472 0.0000
v 0.0000 1.0000 1.0000
v 1.0000 0.0000 0.0000
v -39.2500 0.0000 112.9140
v 0.0000 0.0000 1.0000
v 1.0000 1.0000 0.0000
v 2.8627 1.0000 0.0000
v 0.0000 -33.2500 0.0000
v 64.6959 0.0000 0.0000
v 1.0000 1.0000 1.0000
v -0.0000 10.0000 -0.0000
v 110.4547 0.0000 0.0000
v 1.0000 1.0000 1.0000
v 1.0000 0.0000 0.0000
v -8.0000 0.0000 145.5472
v 0.0000 0.0000 1.0000
v 1.0000 1.0000 0.0000
v 1.0000 0.0000 0.0000
v 0.0000 0.0000 12.7500
v 0.0000 62.7898 0.0000
v 0.0000 1.0000 1.0000
v 1.0000 0.0000 0.0000
v 0.0000 0.0000 -8.0000
v 0.0000 101.9019 0.0000
v 0.0000 1.0000 1.0000
v 1.0000 0.0000 0.0000
v 0.0000 12.7500 0.0000
v 111.0971 0.0000 0.0000
v 1.0000 1.0000 1.0000
v 1.0000 0.0000 0.0000
v -8.0000 0.0000 145.5472
v 0.0000 0.0000 1.0000
v 1.0000 1.0000 0.0000
v 0.2000 0.0000 0.0000
v 0.0000 -0.5000 0.0000
v 58.2752 0.0000 0.0000
v 1.0000 1.0000 1.0000
v 1.0000 0.0000 0.0000
v -8.0000 0.0000 101.9019
v 0.0000 0.0000 1.0000
v 1.0000 1.0000 0.0000
v 0.2000 0.0000 0.0000
v 0.0000 -0.5000 0.0000
v 108.6094 0.0000 0.0000
v 1.0000 1.0000 1.0000
v 1.0000 0.0000 0.0000
v -8.0000 0.0000 145.5472
v 0.0000 0.0000 1.0000
v 1.0000 1.0000 0.0000
v 0.0000 0.0000 -30.0000
v 0.0000 0.0000 20.3412
v -3899.9998 0.0000 65.2078
v -36.6431 1824.7926 -30.0000
v -1053.5432 0.0000 17.6157
v -9.0824 1053.5432 -30.0000
v -1824.7926 0.0000 10.1686
v 1.0000 -0.0001 -30.0000
v -2107.0864 0.0000 75.2941
v -9.0824 -1053.5432 -30.0000
v -1824.7926 0.0000 65.1255
v -3899.9993 0.0000 10.0863
v -36.6431 -1824.7926 -30.0000
v -1053.5432 0.0000 57.6784
v 0.0001 0.0000 54.9529
v 3899.9995 0.0000 10.0863
v -36.6431 -1824.7920 -30.0000
v 1053.5432 0.0000 57.6784
v -64.2039 -1053.5426 -30.0000
v 1824.7926 0.0000 65.1255
v -74.2902 0.0002 -30.0000
v 2107.0864 0.0000 0.0000
v -64.2039 1053.5432 -30.0000
v 1824.7920 0.0000 10.1686
v 3899.9985 0.0000 65.2078
v -36.6431 1824.7926 -30.0000
v 1053.5426 0.0000 17.6157
v -3.9059 0.0000 -30.0000
v 1.0000 0.0000 -30.0000
v 0.0000 0.0000 75.2941
v 1.0000 -0.0001 -30.0000
v -2107.0864 0.0000 0.0000
v -64.4706 0.0000 -30.0000
v -74.2902 0.0000 -30.0000
v -74.2902 0.0002 -30.0000
v 2107.0864 0.0000 75.2941
v -74.2902 0.0002 -30.0000
v 2107.0864 0.0000 75.2941
v -19.3373 0.0002 -30.0000
v 2107.0864 0.0000 75.2941
v -8.8157 0.0000 -30.0000
v 0.0000 -0.0000 75.2941
v 1.0000 0.0000 0.0000
v 0.0000 0.0000 1.0000
v 1.0000 1.0000 0.0000
v 0.0000 56.0000 -229.2447
v 102.1157 0.0000 0.0000
v 1.0000 1.0000 1.0000
v 0.3216 89.0000 -9.9000
v 110.0000 -0.0000 8.0314
v 1.0000 -89.0000 -9.9000
v 110.0000 -0.0000 0.0000
v 0.2000 -89.0000 -29.9000
v 52.0000 -0.0000 0.0000
v 0.0000 89.0000 -29.9000
v 52.0000 -0.0000 8.0314
v -19.9000 81.0000 94.1382
v 0.0000 0.0000 1.0000
v 1.0000 1.0000 0.0000
v 0.3216 89.0000 -9.9000
v -110.0000 -0.0000 8.0314
v 1.0000 -89.0000 -9.9000
v -110.0000 -0.0000 0.0000
v 0.2000 -89.0000 -29.9000
v -52.0000 -0.0000 0.0000
v 0.0000 89.0000 -29.9000
v -52.0000 -0.0000 8.0314
v -19.9000 -81.0000 94.1382
v 0.0000 0.0000 1.0000
v 1.0000 1.0000 0.0000
v 0.0000 77.8001 6.0000
v 234.0000 -0.0000 1.0039
v -0.6314 82.6500 6.0000
v 215.9000 -0.0000 0.6706
v -0.6314 95.9001 6.0000
v 202.6499 -0.0000 0.3333
v -0.6314 114.0001 6.0000
v 197.8000 -0.0000 0.0000
v -0.6314 89.7461 20.2000
v 234.0000 -0.0000 1.0039
v -0.3137 92.9955 20.2000
v 221.8730 -0.0000 0.6706
v -0.3137 101.8731 20.2000
v 212.9954 -0.0000 0.3333
v -0.3137 114.0001 20.2000
v 209.7460 -0.0000 0.0000
v 1.0000 0.0000 0.0000
v 95.9001 38.1000 215.9000
v 41.0564 0.0000 0.0000
v 1.0000 1.0000 1.0000
v 0.0000 -77.8000 6.0000
v 234.0000 -0.0000 1.0039
v -0.6314 -82.6499 6.0000
v 215.9000 -0.0000 0.6706
v -0.6314 -95.9000 6.0000
v 202.6499 -0.0000 0.3333
v -0.6314 -114.0000 6.0000
v 197.8000 -0.0000 0.0000
v -0.6314 -89.7460 20.2000
v 234.0000 -0.0000 1.0039
v -0.3137 -92.9954 20.2000
v 221.8730 -0.0000 0.6706
v -0.3137 -101.8730 20.2000
v 212.9954 -0.0000 0.3333
v -0.3137 -114.0000 20.2000
v 209.7460 -0.0000 0.0000
v 1.0000 0.0000 0.0000
v -95.9000 38.1000 215.9000
v 41.0564 0.0000 0.0000
v 1.0000 1.0000 1.0000
v 0.0000 114.0000 6.0000
v 234.0000 -0.0000 0.0000
v 1.0000 51.9225 6.0000
v 234.0000 -0.0000 2.0078
v 1.0000 114.0000 6.0000
v 171.9225 -0.0000 0.0000
v -1.0039 94.8170 6.0000
v 174.9608 -0.0000 0.6196
v -0.9059 77.5117 6.0000
v 183.7782 -0.0000 1.1804
v -0.6196 63.7782 6.0000
v 197.5117 -0.0000 1.6235
v -0.1765 54.9608 6.0000
v 214.8170 -0.0000 1.9098
v 0.3804 0.0000 0.0000
v 0.0000 0.0000 82.9613
v 6.0000 202.9612 43.8954
v 0.0000 0.0000 1.0000
v 1.0000 1.0000 0.0000
v -114.0000 6.0000 234.0000
v -0.0000 0.0000 -1.0039
v -51.9225 6.0000 234.0000
v -0.0000 2.0078 -1.0039
v -114.0000 6.0000 171.9225
v -0.0000 0.0000 1.0000
v -94.8170 6.0000 174.9608
v -0.0000 0.6196 0.9020
v -77.5117 6.0000 183.7782
v -0.0000 1.1804 0.6157
v -63.7782 6.0000 197.5117
v -0.0000 1.6235 0.1725
v -54.9608 6.0000 214.8170
v -0.0000 1.9098 -0.3843
v 0.0000 -82.9612 6.0000
v 202.9612 43.8954 0.0000
v 0.0000 1.0000 1.0000
v 1.0000 0.0000 0.0000
v 1.0039 -0.6039 0.0000
v 0.0000 0.0000 109.2447
v 56.0000 0.0000 81.1456
v 0.0000 0.0000 1.0000
v 1.0000 1.0000 0.0000
v 0.0000 141.9798 0.0000
v 0.0000 8.5000 -22.0000
v 0.0000 1.0000 1.0000
v 1.0000 0.0000 0.0000
v 2.2392 0.0000 0.0000
v 142.0558 0.0000 0.0000
v 0.0000 -22.0000 3.0000
v 1.0000 1.0000 1.0000
v 0.0000 0.0000 141.9798
v 0.0000 0.0000 8.5000
v 22.0000 0.0000 0.0000
v 0.0000 0.0000 1.0000
v 1.0000 1.0000 0.0000
v 0.0000 142.0558 0.0000
v 0.0000 0.0000 22.0000
v 3.0000 0.0000 0.0000
v 0.0000 1.0000 1.0000
v 1.0000 0.0000 0.0000
v 0.9882 0.9843 34.2000
v 30.0000 10.0000 0.0000
v 0.9882 0.0118 16.2000
v 13.0000 10.0000 0.0000
v 0.5176 0.0118 34.2000
v 13.0000 10.0000 0.0000
v 0.3608 0.9843 16.2000
v 30.0000 10.0000 0.0000
v 0.0157 0.9843 34.2000
v 30.0000 10.0000 0.0000
v 0.0157 0.9843 0.0000
v 0.0000 0.0000 25.2000
v 26.5000 -7.5000 23.8642
v 0.0000 0.0000 1.0000
v 1.0000 1.0000 0.0000
v 4.1000 30.0000 10.0000
v 0.0000 0.9882 0.0118
v -13.9000 13.0000 10.0000
v 0.0000 0.5176 0.0118
v 4.1000 13.0000 10.0000
v 0.0000 0.8000 0.0118
v -13.9000 30.0000 10.0000
v 0.0000 0.2980 0.0118
v 4.1000 30.0000 10.0000
v 0.0000 0.0157 0.0118
v -4.9000 26.5000 -7.5000
v 23.8642 0.0000 0.0000
v 1.0000 1.0000 1.0000
v 1.0000 -28.0000 -1.0000
v 100.0000 0.0000 0.5098
v 1.0000 28.0000 -1.0000
v 100.0000 0.0000 0.5020
v 1.0000 28.0000 -1.0000
v -100.0000 0.0000 0.5020
v -5.0196 -28.0000 -1.0000
v -100.0000 0.0000 0.5098
v -5.0196 -28.0000 -1.0000
v 100.0000 0.0000 0.5098
v 0.9529 0.0000 0.0000
v 0.0000 -1.0000 0.0000
v 105.3043 0.0000 0.0000
v 1.0000 1.0000 1.0000
v 1.0000 -28.0000 -1.0000
v 40.0000 0.0000 0.5098
v 1.0000 28.0000 -1.0000
v 40.0000 0.0000 0.5020
v 1.0000 28.0000 -1.0000
v -40.0000 0.0000 0.5020
v -2.0078 -28.0000 -1.0000
v -40.0000 0.0000 0.5098
v -2.0078 -28.0000 -1.0000
v 40.0000 0.0000 0.5098
v 0.9765 0.0000 0.0000
v 0.0000 -1.0000 0.0000
v 51.8556 0.0000 0.0000
v 1.0000 1.0000 1.0000
v 1.0000 -28.0000 -1.0000
v 100.0000 0.0000 0.5098
v 1.0000 28.0000 -1.0000
v 100.0000 0.0000 0.5020
v 1.0000 28.0000 -1.0000
v -100.0000 0.0000 0.5020
v -5.0196 -28.0000 -1.0000
v -100.0000 0.0000 0.5098
v -5.0196 -28.0000 -1.0000
v 100.0000 0.0000 0.5098
v 0.9529 0.0000 0.0000
v 0.0000 -1.0000 0.0000
v 105.3043 0.0000 0.0000
v 1.0000 1.0000 1.0000
v 1.0000 -28.0000 -1.0000
v 40.0000 0.0000 0.5098
v 1.0000 28.0000 -1.0000
v 40.0000 0.0000 0.5020
v 1.0000 28.0000 -1.0000
v -40.0000 0.0000 0.5020
v -2.0078 -28.0000 -1.0000
v -40.0000 0.0000 0.5098
v -2.0078 -28.0000 -1.0000
v 40.0000 0.0000 0.5098
v 0.9765 0.0000 0.0000
v 0.0000 -1.0000 0.0000
v 51.8556 0.0000 0.0000
v 1.0000 1.0000 1.0000
v 1.0000 -28.0000 -1.0000
v 100.0000 0.0000 0.5098
v 1.0000 28.0000 -1.0000
v 100.0000 0.0000 0.5020
v 1.0000 28.0000 -1.0000
v -100.0000 0.0000 0.5020
v -9.0353 -28.0000 -1.0000
v -100.0000 0.0000 0.5098
v -9.0353 -28.0000 -1.0000
v 100.0000 0.0000 0.5098
v 0.9216 0.0000 0.0000
v 0.0000 -1.0000 0.0000
v 105.3043 0.0000 0.0000
v 1.0000 1.0000 1.0000
v -3899.9998 0.0000 112.4000
v -29.1137 1832.1747 -80.0000
v -7.0667 1057.8051 -80.0000
v -1832.1747 -0.0000 68.4039
v 1.0000 -0.0001 -80.0000
v -7.0667 -1057.8051 -80.0000
v -3899.9993 0.0000 8.0706
v -29.1137 -1832.1743 -80.0000
v 3899.9995 0.0000 8.0706
v -89.3490 -1832.1743 -80.0000
v -111.3961 -1057.8048 -80.0000
v 1832.1743 -0.0000 52.0667
v -119.4667 0.0002 -80.0000
v -111.3961 1057.8051 -80.0000
v 3899.9985 0.0000 112.4000
v -89.3490 1832.1743 -80.0000
v 1057.8048 -0.0000 74.3843
v -67.4000 0.0000 0.0000
v 0.0000 1.0000 1.0000
v 1.0000 0.0000 0.0000
v -0.6941 0.0000 0.0000
v 0.0000 0.0000 -1642.1077
v 139.7673 -284.8128 1792.0012
v 0.0000 0.0000 1.0000
v 1.0000 1.0000 0.0000
v 0.0000 1.0000 0.0000
v -849.2089 30.0004 -1180.8241
v 4081.9690 0.0000 0.0000
v 1.0000 1.0000 1.0000
v -10.0000 0.0000 183.5756
v 0.0000 0.0000 1.0000
v 1.0000 1.0000 0.0000
v 16.0627 -7.0275 0.0000
v 0.0000 70.0000 0.0000
v 183.5756 0.0000 0.0000
v 0.0000 -80.0000 0.0000
v 1.0000 1.0000 1.0000
v 6.0235 -5.0196 0.0000
v 0.0000 0.0000 169.7793
v 55.0000 0.0000 0.0000
v 0.0000 0.0000 1.0000
v 1.0000 1.0000 0.0000
v -2.5000 36.8327 24.1151
v 146.0211 0.0000 0.0000
v 1.0000 1.0000 1.0000
v 3.0118 0.0000 0.0000
v 35.3567 30.7500 38.1754
v 80.6873 0.0000 0.0000
v 1.0000 1.0000 1.0000
v 0.0000 141.4213 0.0000
v 0.0000 1.0000 1.0000
v 1.0000 0.0000 0.0000
v -5.0196 0.0000 0.0000
v 0.0000 -0.0000 3.4630
v -21.7000 158.9564 0.0000
v 0.0000 1.0000 1.0000
v 1.0000 0.0000 0.0000
v 0.3529 0.0000 0.0000
v -0.5000 -30.0000 27.5000
v 168.2038 0.0000 0.0000
v 1.0000 1.0000 1.0000
v 0.2667 0.0000 0.0000
v 0.0000 -58.0000 0.0000
v -58.0000 134.0634 0.0000
v 0.0000 1.0000 1.0000
v 1.0000 0.0000 0.0000
v 0.0039 -5.0196 0.0000
v 0.0000 0.0000 36.5000
v 164.1105 0.0000 0.0000
v 1.0000 1.0000 1.0000
v 1.0000 0.0000 0.0000
v 0.0000 22.0000 45.6508
v 0.0000 0.0000 1.0000
v 1.0000 1.0000 0.0000
v 0.0000 0.9451 0.0000
v -40.0000 0.0000 82.4621
v 0.0000 0.0000 1.0000
v 1.0000 1.0000 0.0000
v 0.0000 0.1529 0.0000
v 0.0000 0.2500 15.7160
v 24.1640 0.0000 0.0000
v 1.0000 1.0000 1.0000
v 0.1000 0.0000 240.8311
v 0.0000 0.0000 1.0000
v 1.0000 1.0000 0.0000
v 0.1000 0.0000 260.2921
v 0.0000 0.0000 1.0000
v 1.0000 1.0000 0.0000
v 268.3282 0.0000 0.0000
v 1.0000 1.0000 1.0000
v 0.1000 50.0050 224.7178
v 0.0000 0.0000 1.0000
v 1.0000 1.0000 0.0000
v 0.0000 0.0000 268.3282
v 0.0000 0.0000 1.0000
v 1.0000 1.0000 0.0000
v 0.0000 0.0000 0.1000
v 193.5200 120.9737 0.0000
v 0.0000 1.0000 1.0000
v 1.0000 0.0000 0.0000
v 0.0000 -2.0013 0.1000
v 0.0001 117.4159 0.0000
v 0.0000 1.0000 1.0000
v 1.0000 0.0000 0.0000
v 1.0000 0.0000 0.0000
v 0.0000 0.1000 0.0000
v 240.8311 0.0000 0.0000
v 1.0000 1.0000 1.0000
v 1.0000 0.0000 0.0000
v 0.1000 -183.4998 118.0121
v 0.0000 0.0000 1.0000
v 1.0000 1.0000 0.0000
v 1.0000 0.0000 0.0000
v 268.3282 0.0000 0.0000
v 1.0000 1.0000 1.0000
v 0.6588 1.0000 0.0000
v 0.0000 0.0000 0.1000
v 0.0000 240.8311 0.0000
v 0.0000 1.0000 1.0000
v 1.0000 0.0000 0.0000
v 20.0784 0.0000 0.0000
v 0.0000 -90.0000 0.1000
v 0.0000 90.2497 0.0000
v 0.0000 1.0000 1.0000
v 1.0000 0.0000 0.0000
v 1.0000 0.0000 0.0000
v 90.0000 0.1000 0.0000
v 90.2497 0.0000 0.0000
v 1.0000 1.0000 1.0000
v 268.3282 0.0000 0.0000
v 1.0000 1.0000 1.0000
v 1.0000 0.0000 0.0000
v 0.0000 0.0000 139.2121
v 0.0000 0.0000 1.0000
v 1.0000 1.0000 0.0000
v 1.0039 0.0000 0.0000
v 141.4213 0.0000 0.0000
v 1.0000 1.0000 1.0000
v -2.0078 0.0000 0.0000
v 0.0000 0.0000 0.5000
v 50.8860 17.2801 0.0000
v 0.0000 1.0000 1.0000
v 1.0000 0.0000 0.0000
v -10.0235 0.0000 0.0000
v 0.0000 0.0000 -2.0000
v 0.0000 70.7248 0.0000
v 0.0000 1.0000 1.0000
v 1.0000 0.0000 0.0000
v 1.6745 1.0000 0.0000
v 0.0000 0.0000 -27.5000
v 0.0000 129.4459 0.0000
v 0.0000 1.0000 1.0000
v 1.0000 0.0000 0.0000
v 0.0000 0.0000 141.4213
v 0.0000 0.0000 1.0000
v 1.0000 1.0000 0.0000
v 0.0000 -2.0000 0.0000
v 70.7248 0.0000 0.0000
v 1.0000 1.0000 1.0000
v -1.0039 0.0000 0.0000
v -39.0000 0.0000 132.3669
v 0.0000 0.0000 1.0000
v 1.0000 1.0000 0.0000
v 0.0000 141.4213 0.0000
v 0.0000 1.0000 1.0000
v 1.0000 0.0000 0.0000
v 0.0000 1.0000 0.0000
v 0.0000 0.0000 1.5000
v 0.0000 101.2534 0.0000
v 0.0000 1.0000 1.0000
v 1.0000 0.0000 0.0000
v 4.0157 0.0000 0.0000
v -33.2500 0.0000 126.1172
v 0.0000 0.0000 1.0000
v 1.0000 1.0000 0.0000
v 0.0000 0.0000 12.0000
v 0.0000 122.2456 0.0000
v 0.0000 1.0000 1.0000
v 1.0000 0.0000 0.0000
v 1.0000 0.0000 0.0000
v 0.0000 0.0000 -2.2500
v 0.0000 63.2856 0.0000
v 0.0000 1.0000 1.0000
v 1.0000 0.0000 0.0000
v 1.0039 1.0000 0.0000
v -2.2500 0.0000 121.6761
v 0.0000 0.0000 1.0000
v 1.0000 1.0000 0.0000
v 0.0000 -2.2500 0.0000
v 63.2856 0.0000 0.0000
v 1.0000 1.0000 1.0000
v 1.0000 0.0000 0.0000
v 0.0000 0.0000 -2.2500
v 0.0000 121.6761 0.0000
v 0.0000 1.0000 1.0000
v 1.0000 0.0000 0.0000
v 1.0039 0.0000 0.0000
v 0.0000 94.2238 56.5000
v -15.0120 702.5106 0.0000
v 0.0000 1.0000 1.0000
v 1.0000 0.0000 0.0000
v 0.0000 -467.7300 -28.9999
v -4450.1548 -0.0000 0.5020
v -1.4510 500.5680 -28.9999
v -4551.9272 -0.0000 1.0039
v 1.0000 -1436.0280 -28.9999
v -4348.3833 -0.0000 0.0000
v 1.0000 747.6035 -28.9999
v -2201.5400 -0.0000 1.0039
v -3.2157 -220.6945 -28.9999
v -2099.7683 -0.0000 0.5020
v -3.2157 -21.9509 -28.9999
v -208.8504 0.0000 0.5020
v -5.0196 946.3472 -28.9999
v -310.6226 0.0000 1.0039
v -5.0196 -1188.9926 -28.9999
v -1997.9961 -0.0000 0.0000
v -3.2157 -990.2496 -28.9999
v -107.0781 0.0000 0.0000
v -5.0196 0.0000 0.0000
v 0.0000 1.0000 1.0000
v 1.0000 0.0000 0.0000
v 0.7294 0.1020 0.0000
v 0.0000 0.0000 1.0000
v 1.0000 1.0000 0.0000
v 5.3529 0.8431 0.0000
v 0.0000 1.0000 1.0000
v 1.0000 0.0000 0.0000
vn 0.0000 1.0000 0.0000
vn 0.0000 1.0000 0.0000
vn 0.0000 1.0000 0.0000
vn 0.0000 1.0000 0.0000
vn 0.0000 1.0000 0.0000
vn 0.0000 1.0000 0.0000
vn 0.0000 1.0000 0.0000
vn 0.0000 1.0000 0.0000
vn 0.0000 1.0000 0.0000
vn 0.0000 1.0000 0.0000
vn 0.0000 1.0000 0.0000
vn 0.0000 1.0000 0.0000
vn 0.0000 1.0000 0.0000
vn 0.0000 1.0000 0.0000
vn 0.0000 1.0000 0.0000
vn 0.0000 1.0000 0.0000
vn 0.0000 1.0000 0.0000
vn 0.0000 1.0000 0.0000
vn 0.0000 1.0000 0.0000
vn 0.0000 1.0000 0.0000
vn 0.0000 1.0000 0.0000
vn 0.0000 1.0000 0.0000
vn 0.0000 1.0000 0.0000
vn 0.0000 1.0000 0.0000
vn 0.0000 1.0000 0.0000
vn 0.0000 1.0000 0.0000
vn 0.0000 1.0000 0.0000
vn 0.0000 1.0000 0.0000
vn 0.0000 1.0000 0.0000
vn 0.0000 1.0000 0.0000
vn 0.0000 1.0000 0.0000
vn 0.0000 1.0000 0.0000
vn 0.0000 1.0000 0.0000
vn 0.0000 1.0000 0.0000
vn 0.0000 1.0000 0.0000
vn 0.0000 1.0000 0.0000
vn 0.0000 1.0000 0.0000
vn 0.0000 1.0000 0.0000
vn 0.0000 1.0000 0.0000
vn 0.0000 1.0000 0.0000
vn 0.0000 1.0000 0.0000
vn 0.0000 1.0000 0.0000
vn 0.0000 1.0000 0.0000
vn 0.0000 1.0000 0.0000
vn 0.0000 1.0000 0.0000
vn 0.0000 1.0000 0.0000
vn 0.0000 1.0000 0.0000
vn 0.0000 1.0000 0.0000
vn 0.0000 1.0000 0.0000
vn 0.0000 1.0000 0.0000
vn 0.0000 1.0000 0.0000
vn 0.0000 1.0000 0.0000
vn 0.0000 1.0000 0.0000
vn 0.0000 1.0000 0.0000
vn 0.0000 1.0000 0.0000
vn 0.0000 1.0000 0.0000
vn 0.0000 1.0000 0.0000
vn 0.0000 1.0000 0.0000
vn 0.0000 1.0000 0.0000
vn 0.0000 1.0000 0.0000
vn 0.0000 1.0000 0.0000
vn 0.0000 1.0000 0.0000
vn 0.0000 1.0000 0.0000
vn 0.0000 1.0000 0.0000
vn 0.0000 1.0000 0.0000
vn 0.0000 1.0000 0.0000
vn 0.0000 1.0000 0.0000
vn 0.0000 1.0000 0.0000
vn 0.0000 1.0000 0.0000
vn 0.0000 1.0000 0.0000
vn 0.0000 1.0000 0.0000
vn 0.0000 1.0000 0.0000
vn 0.0000 1.0000 0.0000
vn 0.0000 1.0000 0.0000
vn 0.0000 1.0000 0.0000
vn 0.0000 1.0000 0.0000
vn 0.0000 1.0000 0.0000
vn 0.0000 1.0000 0.0000
vn 0.0000 1.0000 0.0000
vn 0.0000 1.0000 0.0000
vn 0.0000 1.0000 0.0000
vn 0.0000 1.0000 0.0000
vn 0.0000 1.0000 0.0000
vn 0.0000 1.0000 0.0000
vn 0.0000 1.0000 0.0000
vn 0.0000 1.0000 0.0000
vn 0.0000 1.0000 0.0000
vn 0.0000 1.0000 0.0000
vn 0.0000 1.0000 0.0000
vn 0.0000 1.0000 0.0000
vn 0.0000 1.0000 0.0000
vn 0.0000 1.0000 0.0000
vn 0.0000 1.0000 0.0000
vn 0.0000 1.0000 0.0000
vn 0.0000 1.0000 0.0000
vn 0.0000 1.0000 0.0000
vn 0.0000 1.0000 0.0000
vn 0.0000 1.0000 0.0000
vn 0.0000 1.0000 0.0000
vn 0.0000 1.0000 0.0000
vn 0.0000 1.0000 0.0000
vn 0.0000 1.0000 0.0000
vn 0.0000 1.0000 0.0000
vn 0.0000 1.0000 0.0000
vn 0.0000 1.0000 0.0000
vn 0.0000 1.0000 0.0000
vn 0.0000 1.0000 0.0000
vn 0.0000 1.0000 0.0000
vn 0.0000 1.0000 0.0000
vn 0.0000 1.0000 0.0000
vn 0.0000 1.0000 0.0000
vn 0.0000 1.0000 0.0000
vn 0.0000 1.0000 0.0000
vn 0.0000 1.0000 0.0000
vn 0.0000 1.0000 0.0000
vn 0.0000 1.0000 0.0000
vn 0.0000 1.0000 0.0000
vn 0.0000 1.0000 0.0000
vn 0.0000 1.0000 0.0000
vn 0.0000 1.0000 0.0000
vn 0.0000 1.0000 0.0000
vn 0.0000 1.0000 0.0000
vn 0.0000 1.0000 0.0000
vn 0.0000 1.0000 0.0000
vn 0.0000 1.0000 0.0000
vn 0.0000 1.0000 0.0000
vn 0.0000 1.0000 0.0000
vn 0.0000 1.0000 0.0000
vn 0.0000 1.0000 0.0000
vn 0.0000 1.0000 0.0000
vn 0.0000 1.0000 0.0000
vn 0.0000 1.0000 0.0000
vn 0.0000 1.0000 0.0000
vn 0.0000 1.0000 0.0000
vn 0.0000 1.0000 0.0000
vn 0.0000 1.0000 0.0000
vn 0.0000 1.0000 0.0000
vn 0.0000 1.0000 0.0000
vn 0.0000 1.0000 0.0000
vn 0.0000 1.0000 0.0000
vn 0.0000 1.0000 0.0000
vn 0.0000 1.0000 0.0000
vn 0.0000 1.0000 0.0000
vn 0.0000 1.0000 0.0000
vn 0.0000 1.0000 0.0000
vn 0.0000 1.0000 0.0000
vn 0.0000 1.0000 0.0000
vn 0.0000 1.0000 0.0000
vn 0.0000 1.0000 0.0000
vn 0.0000 1.0000 0.0000
vn 0.0000 1.0000 0.0000
vn 0.0000 1.0000 0.0000
vn 0.0000 1.0000 0.0000
vn 0.0000 1.0000 0.0000
vn 0.0000 1.0000 0.0000
vn 0.0000 1.0000 0.0000
vn 0.0000 1.0000 0.0000
vn 0.0000 1.0000 0.0000
vn 0.0000 1.0000 0.0000
vn 0.0000 1.0000 0.0000
vn 0.0000 1.0000 0.0000
vn 0.0000 1.0000 0.0000
vn 0.0000 1.0000 0.0000
vn 0.0000 1.0000 0.0000
vn 0.0000 1.0000 0.0000
vn 0.0000 1.0000 0.0000
vn 0.0000 1.0000 0.0000
vn 0.0000 1.0000 0.0000
vn 0.0000 1.0000 0.0000
vn 0.0000 1.0000 0.0000
vn 0.0000 1.0000 0.0000
vn 0.0000 1.0000 0.0000
vn 0.0000 1.0000 0.0000
vn 0.0000 1.0000 0.0000
vn 0.0000 1.0000 0.0000
vn 0.0000 1.0000 0.0000
vn 0.0000 1.0000 0.0000
vn 0.0000 1.0000 0.0000
vn 0.0000 1.0000 0.0000
vn 0.0000 1.0000 0.0000
vn 0.0000 1.0000 0.0000
vn 0.0000 1.0000 0.0000
vn 0.0000 1.0000 0.0000
vn 0.0000 1.0000 0.0000
vn 0.0000 1.0000 0.0000
vn 0.0000 1.0000 0.0000
vn 0.0000 1.0000 0.0000
vn 0.0000 1.0000 0.0000
vn 0.0000 1.0000 0.0000
vn 0.0000 1.0000 0.0000
vn 0.0000 1.0000 0.0000
vn 0.0000 1.0000 0.0000
vn 0.0000 1.0000 0.0000
vn 0.0000 1.0000 0.0000
vn 0.0000 1.0000 0.0000
vn 0.0000 1.0000 0.0000
vn 0.0000 1.0000 0.0000
vn 0.0000 1.0000 0.0000
vn 0.0000 1.0000 0.0000
vn 0.0000 1.0000 0.0000
vn 0.0000 1.0000 0.0000
vn 0.0000 1.0000 0.0000
vn 0.0000 1.0000 0.0000
vn 0.0000 1.0000 0.0000
vn 0.0000 1.0000 0.0000
vn 0.0000 1.0000 0.0000
vn 0.0000 1.0000 0.0000
vn 0.0000 1.0000 0.0000
vn 0.0000 1.0000 0.0000
vn 0.0000 1.0000 0.0000
vn 0.0000 1.0000 0.0000
vn 0.0000 1.0000 0.0000
vn 0.0000 1.0000 0.0000
vn 0.0000 1.0000 0.0000
vn 0.0000 1.0000 0.0000
vn 0.0000 1.0000 0.0000
vn 0.0000 1.0000 0.0000
vn 0.0000 1.0000 0.0000
vn 0.0000 1.0000 0.0000
vn 0.0000 1.0000 0.0000
vn 0.0000 1.0000 0.0000
vn 0.0000 1.0000 0.0000
vn 0.0000 1.0000 0.0000
vn 0.0000 1.0000 0.0000
vn 0.0000 1.0000 0.0000
vn 0.0000 1.0000 0.0000
vn 0.0000 1.0000 0.0000
vn 0.0000 1.0000 0.0000
vn 0.0000 1.0000 0.0000
vn 0.0000 1.0000 0.0000
vn 0.0000 1.0000 0.0000
vn 0.0000 1.0000 0.0000
vn 0.0000 1.0000 0.0000
vn 0.0000 1.0000 0.0000
vn 0.0000 1.0000 0.0000
vn 0.0000 1.0000 0.0000
vn 0.0000 1.0000 0.0000
vn 0.0000 1.0000 0.0000
vn 0.0000 1.0000 0.0000
vn 0.0000 1.0000 0.0000
vn 0.0000 1.0000 0.0000
vn 0.0000 1.0000 0.0000
vn 0.0000 1.0000 0.0000
vn 0.0000 1.0000 0.0000
vn 0.0000 1.0000 0.0000
vn 0.0000 1.0000 0.0000
vn 0.0000 1.0000 0.0000
vn 0.0000 1.0000 0.0000
vn 0.0000 1.0000 0.0000
vn 0.0000 1.0000 0.0000
vn 0.0000 1.0000 0.0000
vn 0.0000 1.0000 0.0000
vn 0.0000 1.0000 0.0000
vn 0.0000 1.0000 0.0000
vn 0.0000 1.0000 0.0000
vn 0.0000 1.0000 0.0000
vn 0.0000 1.0000 0.0000
vn 0.0000 1.0000 0.0000
vn 0.0000 1.0000 0.0000
vn 0.0000 1.0000 0.0000
vn 0.0000 1.0000 0.0000
vn 0.0000 1.0000 0.0000
vn 0.0000 1.0000 0.0000
vn 0.0000 1.0000 0.0000
vn 0.0000 1.0000 0.0000
vn 0.0000 1.0000 0.0000
vn 0.0000 1.0000 0.0000
vn 0.0000 1.0000 0.0000
vn 0.0000 1.0000 0.0000
vn 0.0000 1.0000 0.0000
vn 0.0000 1.0000 0.0000
vn 0.0000 1.0000 0.0000
vn 0.0000 1.0000 0.0000
vn 0.0000 1.0000 0.0000
vn 0.0000 1.0000 0.0000
vn 0.0000 1.0000 0.0000
vn 0.0000 1.0000 0.0000
vn 0.0000 1.0000 0.0000
vn 0.0000 1.0000 0.0000
vn 0.0000 1.0000 0.0000
vn 0.0000 1.0000 0.0000
vn 0.0000 1.0000 0.0000
vn 0.0000 1.0000 0.0000
vn 0.0000 1.0000 0.0000
vn 0.0000 1.0000 0.0000
vn 0.0000 1.0000 0.0000
vn 0.0000 1.0000 0.0000
vn 0.0000 1.0000 0.0000
vn 0.0000 1.0000 0.0000
vn 0.0000 1.0000 0.0000
vn 0.0000 1.0000 0.0000
vn 0.0000 1.0000 0.0000
vn 0.0000 1.0000 0.0000
vn 0.0000 1.0000 0.0000
vn 0.0000 1.0000 0.0000
vn 0.0000 1.0000 0.0000
vn 0.0000 1.0000 0.0000
vn 0.0000 1.0000 0.0000
vn 0.0000 1.0000 0.0000
vn 0.0000 1.0000 0.0000
vn 0.0000 1.0000 0.0000
vn 0.0000 1.0000 0.0000
vn 0.0000 1.0000 0.0000
vn 0.0000 1.0000 0.0000
vn 0.0000 1.0000 0.0000
vn 0.0000 1.0000 0.0000
vn 0.0000 1.0000 0.0000
vn 0.0000 1.0000 0.0000
vn 0.0000 1.0000 0.0000
vn 0.0000 1.0000 0.0000
vn 0.0000 1.0000 0.0000
vn 0.0000 1.0000 0.0000
vn 0.0000 1.0000 0.0000
vn 0.0000 1.0000 0.0000
vn 0.0000 1.0000 0.0000
vn 0.0000 1.0000 0.0000
vn 0.0000 1.0000 0.0000
vn 0.0000 1.0000 0.0000
vn 0.0000 1.0000 0.0000
vn 0.0000 1.0000 0.0000
vn 0.0000 1.0000 0.0000
vn 0.0000 1.0000 0.0000
vn 0.0000 1.0000 0.0000
vn 0.0000 1.0000 0.0000
vn 0.0000 1.0000 0.0000
vn 0.0000 1.0000 0.0000
vn 0.0000 1.0000 0.0000
vn 0.0000 1.0000 0.0000
vn 0.0000 1.0000 0.0000
vn 0.0000 1.0000 0.0000
vn 0.0000 1.0000 0.0000
vn 0.0000 1.0000 0.0000
vn 0.0000 1.0000 0.0000
vn 0.0000 1.0000 0.0000
vn 0.0000 1.0000 0.0000
vn 0.0000 1.0000 0.0000
vn 0.0000 1.0000 0.0000
vn 0.0000 1.0000 0.0000
vn 0.0000 1.0000 0.0000
vn 0.0000 1.0000 0.0000
vn 0.0000 1.0000 0.0000
vn 0.0000 1.0000 0.0000
vn 0.0000 1.0000 0.0000
vn 0.0000 1.0000 0.0000
vn 0.0000 1.0000 0.0000
vn 0.0000 1.0000 0.0000
vn 0.0000 1.0000 0.0000
vn 0.0000 1.0000 0.0000
vn 0.0000 1.0000 0.0000
vn 0.0000 1.0000 0.0000
vn 0.0000 1.0000 0.0000
vn 0.0000 1.0000 0.0000
vn 0.0000 1.0000 0.0000
vn 0.0000 1.0000 0.0000
vn 0.0000 1.0000 0.0000
vn 0.0000 1.0000 0.0000
vn 0.0000 1.0000 0.0000
vn 0.0000 1.0000 0.0000
vn 0.0000 1.0000 0.0000
vn 0.0000 1.0000 0.0000
vn 0.0000 1.0000 0.0000
vn 0.0000 1.0000 0.0000
vn 0.0000 1.0000 0.0000
vn 0.0000 1.0000 0.0000
vn 0.0000 1.0000 0.0000
vn 0.0000 1.0000 0.0000
vn 0.0000 1.0000 0.0000
vn 0.0000 1.0000 0.0000
vn 0.0000 1.0000 0.0000
vn 0.0000 1.0000 0.0000
vn 0.0000 1.0000 0.0000
vn 0.0000 1.0000 0.0000
vn 0.0000 1.0000 0.0000
vn 0.0000 1.0000 0.0000
vn 0.0000 1.0000 0.0000
vn 0.0000 1.0000 0.0000
vn 0.0000 1.0000 0.0000
vn 0.0000 1.0000 0.0000
vn 0.0000 1.0000 0.0000
vn 0.0000 1.0000 0.0000
vn 0.0000 1.0000 0.0000
vn 0.0000 1.0000 0.0000
vn 0.0000 1.0000 0.0000
vn 0.0000 1.0000 0.0000
vn 0.0000 1.0000 0.0000
vn 0.0000 1.0000 0.0000
vn 0.0000 1.0000 0.0000
vn 0.0000 1.0000 0.0000
vn 0.0000 1.0000 0.0000
vn 0.0000 1.0000 0.0000
vn 0.0000 1.0000 0.0000
vn 0.0000 1.0000 0.0000
vn 0.0000 1.0000 0.0000
vn 0.0000 1.0000 0.0000
vn 0.0000 1.0000 0.0000
vn 0.0000 1.0000 0.0000
vn 0.0000 1.0000 0.0000
vn 0.0000 1.0000 0.0000
vn 0.0000 1.0000 0.0000
vn 0.0000 1.0000 0.0000
vn 0.0000 1.0000 0.0000
vn 0.0000 1.0000 0.0000
vn 0.0000 1.0000 0.0000
vn 0.0000 1.0000 0.0000
vn 0.0000 1.0000 0.0000
vn 0.0000 1.0000 0.0000
vn 0.0000 1.0000 0.0000
vn 0.0000 1.0000 0.0000
vn 0.0000 1.0000 0.0000
vn 0.0000 1.0000 0.0000
vn 0.0000 1.0000 0.0000
vn 0.0000 1.0000 0.0000
vn 0.0000 1.0000 0.0000
vn 0.0000 1.0000 0.0000
vn 0.0000 1.0000 0.0000
vn 0.0000 1.0000 0.0000
vn 0.0000 1.0000 0.0000
vn 0.0000 1.0000 0.0000
vn 0.0000 1.0000 0.0000
vn 0.0000 1.0000 0.0000
vn 0.0000 1.0000 0.0000
vn 0.0000 1.0000 0.0000
vn 0.0000 1.0000 0.0000
vn 0.0000 1.0000 0.0000
vn 0.0000 1.0000 0.0000
vn 0.0000 1.0000 0.0000
vn 0.0000 1.0000 0.0000
vn 0.0000 1.0000 0.0000
vn 0.0000 1.0000 0.0000
vn 0.0000 1.0000 0.0000
vn 0.0000 1.0000 0.0000
vn 0.0000 1.0000 0.0000
vn 0.0000 1.0000 0.0000
vn 0.0000 1.0000 0.0000
vn 0.0000 1.0000 0.0000
vn 0.0000 1.0000 0.0000
vn 0.0000 1.0000 0.0000
vn 0.0000 1.0000 0.0000
vn 0.0000 1.0000 0.0000
vn 0.0000 1.0000 0.0000
vn 0.0000 1.0000 0.0000
vn 0.0000 1.0000 0.0000
vn 0.0000 1.0000 0.0000
vn 0.0000 1.0000 0.0000
vn 0.0000 1.0000 0.0000
vn 0.0000 1.0000 0.0000
vn 0.0000 1.0000 0.0000
vn 0.0000 1.0000 0.0000
vn 0.0000 1.0000 0.0000
vn 0.0000 1.0000 0.0000
vn 0.0000 1.0000 0.0000
vn 0.0000 1.0000 0.0000
vn 0.0000 1.0000 0.0000
vn 0.0000 1.0000 0.0000
vn 0.0000 1.0000 0.0000
vn 0.0000 1.0000 0.0000
vn 0.0000 1.0000 0.0000
vn 0.0000 1.0000 0.0000
vn 0.0000 1.0000 0.0000
vn 0.0000 1.0000 0.0000
vn 0.0000 1.0000 0.0000
vn 0.0000 1.0000 0.0000
vn 0.0000 1.0000 0.0000
vn 0.0000 1.0000 0.0000
vn 0.0000 1.0000 0.0000
vn 0.0000 1.0000 0.0000
vn 0.0000 1.0000 0.0000
vn 0.0000 1.0000 0.0000
vn 0.0000 1.0000 0.0000
vn 0.0000 1.0000 0.0000
vn 0.0000 1.0000 0.0000
vn 0.0000 1.0000 0.0000
vn 0.0000 1.0000 0.0000
vn 0.0000 1.0000 0.0000
vn 0.0000 1.0000 0.0000
vn 0.0000 1.0000 0.0000
vn 0.0000 1.0000 0.0000
vn 0.0000 1.0000 0.0000
vn 0.0000 1.0000 0.0000
vn 0.0000 1.0000 0.0000
vn 0.0000 1.0000 0.0000
vn 0.0000 1.0000 0.0000
vn 0.0000 1.0000 0.0000
vn 0.0000 1.0000 0.0000
vn 0.0000 1.0000 0.0000
vn 0.0000 1.0000 0.0000
vn 0.0000 1.0000 0.0000
vn 0.0000 1.0000 0.0000
vn 0.0000 1.0000 0.0000
vn 0.0000 1.0000 0.0000
vn 0.0000 1.0000 0.0000
vn 0.0000 1.0000 0.0000
vn 0.0000 1.0000 0.0000
vn 0.0000 1.0000 0.0000
vn 0.0000 1.0000 0.0000
vn 0.0000 1.0000 0.0000
vn 0.0000 1.0000 0.0000
vn 0.0000 1.0000 0.0000
vn 0.0000 1.0000 0.0000
vn 0.0000 1.0000 0.0000
vn 0.0000 1.0000 0.0000
vn 0.0000 1.0000 0.0000
vn 0.0000 1.0000 0.0000
vn 0.0000 1.0000 0.0000
vn 0.0000 1.0000 0.0000
vn 0.0000 1.0000 0.0000
vn 0.0000 1.0000 0.0000
vn 0.0000 1.0000 0.0000
vn 0.0000 1.0000 0.0000
vn 0.0000 1.0000 0.0000
vn 0.0000 1.0000 0.0000
vn 0.0000 1.0000 0.0000
vn 0.0000 1.0000 0.0000
vn 0.0000 1.0000 0.0000
vn 0.0000 1.0000 0.0000
vn 0.0000 1.0000 0.0000
vn 0.0000 1.0000 0.0000
vn 0.0000 1.0000 0.0000
vn 0.0000 1.0000 0.0000
vn 0.0000 1.0000 0.0000
vn 0.0000 1.0000 0.0000
vn 0.0000 1.0000 0.0000
vn 0.0000 1.0000 0.0000
vn 0.0000 1.0000 0.0000
vn 0.0000 1.0000 0.0000
vn 0.0000 1.0000 0.0000
vn 0.0000 1.0000 0.0000
vn 0.0000 1.0000 0.0000
vn 0.0000 1.0000 0.0000
vn 0.0000 1.0000 0.0000
vn 0.0000 1.0000 0.0000
vn 0.0000 1.0000 0.0000
vn 0.0000 1.0000 0.0000
vn 0.0000 1.0000 0.0000
vn 0.0000 1.0000 0.0000
vn 0.0000 1.0000 0.0000
vn 0.0000 1.0000 0.0000
vn 0.0000 1.0000 0.0000
vn 0.0000 1.0000 0.0000
vn 0.0000 1.0000 0.0000
vn 0.0000 1.0000 0.0000
vn 0.0000 1.0000 0.0000
vn 0.0000 1.0000 0.0000
vn 0.0000 1.0000 0.0000
vn 0.0000 1.0000 0.0000
vn 0.0000 1.0000 0.0000
vn 0.0000 1.0000 0.0000
vn 0.0000 1.0000 0.0000
vn 0.0000 1.0000 0.0000
vn 0.0000 1.0000 0.0000
vn 0.0000 1.0000 0.0000
vn 0.0000 1.0000 0.0000
vn 0.0000 1.0000 0.0000
vn 0.0000 1.0000 0.0000
vn 0.0000 1.0000 0.0000
vn 0.0000 1.0000 0.0000
vn 0.0000 1.0000 0.0000
vn 0.0000 1.0000 0.0000
vn 0.0000 1.0000 0.0000
vn 0.0000 1.0000 0.0000
vn 0.0000 1.0000 0.0000
vn 0.0000 1.0000 0.0000
vn 0.0000 1.0000 0.0000
vn 0.0000 1.0000 0.0000
vn 0.0000 1.0000 0.0000
vn 0.0000 1.0000 0.0000
vn 0.0000 1.0000 0.0000
vn 0.0000 1.0000 0.0000
vn 0.0000 1.0000 0.0000
vn 0.0000 1.0000 0.0000
vn 0.0000 1.0000 0.0000
vn 0.0000 1.0000 0.0000
vn 0.0000 1.0000 0.0000
vn 0.0000 1.0000 0.0000
vn 0.0000 1.0000 0.0000
vn 0.0000 1.0000 0.0000
vn 0.0000 1.0000 0.0000
vn 0.0000 1.0000 0.0000
vn 0.0000 1.0000 0.0000
vn 0.0000 1.0000 0.0000
vn 0.0000 1.0000 0.0000
vn 0.0000 1.0000 0.0000
vn 0.0000 1.0000 0.0000
vn 0.0000 1.0000 0.0000
vn 0.0000 1.0000 0.0000
vn 0.0000 1.0000 0.0000
vn 0.0000 1.0000 0.0000
vn 0.0000 1.0000 0.0000
vn 0.0000 1.0000 0.0000
vn 0.0000 1.0000 0.0000
vn 0.0000 1.0000 0.0000
vn 0.0000 1.0000 0.0000
vn 0.0000 1.0000 0.0000
vn 0.0000 1.0000 0.0000
vn 0.0000 1.0000 0.0000
vn 0.0000 1.0000 0.0000
vn 0.0000 1.0000 0.0000
vn 0.0000 1.0000 0.0000
vn 0.0000 1.0000 0.0000
vn 0.0000 1.0000 0.0000
vn 0.0000 1.0000 0.0000
vn 0.0000 1.0000 0.0000
vn 0.0000 1.0000 0.0000
vn 0.0000 1.0000 0.0000
vn 0.0000 1.0000 0.0000
vn 0.0000 1.0000 0.0000
vn 0.0000 1.0000 0.0000
vn 0.0000 1.0000 0.0000
vn 0.0000 1.0000 0.0000
vn 0.0000 1.0000 0.0000
vn 0.0000 1.0000 0.0000
vn 0.0000 1.0000 0.0000
vn 0.0000 1.0000 0.0000
vn 0.0000 1.0000 0.0000
vn 0.0000 1.0000 0.0000
vn 0.0000 1.0000 0.0000
vn 0.0000 1.0000 0.0000
vn 0.0000 1.0000 0.0000
vn 0.0000 1.0000 0.0000
vn 0.0000 1.0000 0.0000
vn 0.0000 1.0000 0.0000
vn 0.0000 1.0000 0.0000
vn 0.0000 1.0000 0.0000
vn 0.0000 1.0000 0.0000
vn 0.0000 1.0000 0.0000
vn 0.0000 1.0000 0.0000
vn 0.0000 1.0000 0.0000
vn 0.0000 1.0000 0.0000
vn 0.0000 1.0000 0.0000
vn 0.0000 1.0000 0.0000
vn 0.0000 1.0000 0.0000
vn 0.0000 1.0000 0.0000
vn 0.0000 1.0000 0.0000
vn 0.0000 1.0000 0.0000
vn 0.0000 1.0000 0.0000
vn 0.0000 1.0000 0.0000
vn 0.0000 1.0000 0.0000
vn 0.0000 1.0000 0.0000
vn 0.0000 1.0000 0.0000
vn 0.0000 1.0000 0.0000
vn 0.0000 1.0000 0.0000
vn 0.0000 1.0000 0.0000
vn 0.0000 1.0000 0.0000
vn 0.0000 1.0000 0.0000
vn 0.0000 1.0000 0.0000
vn 0.0000 1.0000 0.0000
vn 0.0000 1.0000 0.0000
vn 0.0000 1.0000 0.0000
vn 0.0000 1.0000 0.0000
vn 0.0000 1.0000 0.0000
vn 0.0000 1.0000 0.0000
vn 0.0000 1.0000 0.0000
vn 0.0000 1.0000 0.0000
vn 0.0000 1.0000 0.0000
vn 0.0000 1.0000 0.0000
vn 0.0000 1.0000 0.0000
vn 0.0000 1.0000 0.0000
vn 0.0000 1.0000 0.0000
vn 0.0000 1.0000 0.0000
vn 0.0000 1.0000 0.0000
vn 0.0000 1.0000 0.0000
vn 0.0000 1.0000 0.0000
vn 0.0000 1.0000 0.0000
vn 0.0000 1.0000 0.0000
vn 0.0000 1.0000 0.0000
vn 0.0000 1.0000 0.0000
vn 0.0000 1.0000 0.0000
vn 0.0000 1.0000 0.0000
vn 0.0000 1.0000 0.0000
vn 0.0000 1.0000 0.0000
vn 0.0000 1.0000 0.0000
vn 0.0000 1.0000 0.0000
vn 0.0000 1.0000 0.0000
vn 0.0000 1.0000 0.0000
vn 0.0000 1.0000 0.0000
vn 0.0000 1.0000 0.0000
vn 0.0000 1.0000 0.0000
vn 0.0000 1.0000 0.0000
vn 0.0000 1.0000 0.0000
vn 0.0000 1.0000 0.0000
vn 0.0000 1.0000 0.0000
vn 0.0000 1.0000 0.0000
vn 0.0000 1.0000 0.0000
vn 0.0000 1.0000 0.0000
vn 0.0000 1.0000 0.0000
vn 0.0000 1.0000 0.0000
vn 0.0000 1.0000 0.0000
vn 0.0000 1.0000 0.0000
vn 0.0000 1.0000 0.0000
vn 0.0000 1.0000 0.0000
vn 0.0000 1.0000 0.0000
vn 0.0000 1.0000 0.0000
vn 0.0000 1.0000 0.0000
vn 0.0000 1.0000 0.0000
vn 0.0000 1.0000 0.0000
vn 0.0000 1.0000 0.0000
vn 0.0000 1.0000 0.0000
vn 0.0000 1.0000 0.0000
vn 0.0000 1.0000 0.0000
vn 0.0000 1.0000 0.0000
vn 0.0000 1.0000 0.0000
vn 0.0000 1.0000 0.0000
vn 0.0000 1.0000 0.0000
vn 0.0000 1.0000 0.0000
vn 0.0000 1.0000 0.0000
vn 0.0000 1.0000 0.0000
vn 0.0000 1.0000 0.0000
vn 0.0000 1.0000 0.0000
vn 0.0000 1.0000 0.0000
vn 0.0000 1.0000 0.0000
vn 0.0000 1.0000 0.0000
vn 0.0000 1.0000 0.0000
vn 0.0000 1.0000 0.0000
vn 0.0000 1.0000 0.0000
vn 0.0000 1.0000 0.0000
vn 0.0000 1.0000 0.0000
vn 0.0000 1.0000 0.0000
vn 0.0000 1.0000 0.0000
vn 0.0000 1.0000 0.0000
vn 0.0000 1.0000 0.0000
vn 0.0000 1.0000 0.0000
vn 0.0000 1.0000 0.0000
vn 0.0000 1.0000 0.0000
vn 0.0000 1.0000 0.0000
vn 0.0000 1.0000 0.0000
vn 0.0000 1.0000 0.0000
vn 0.0000 1.0000 0.0000
vn 0.0000 1.0000 0.0000
vn 0.0000 1.0000 0.0000
vn 0.0000 1.0000 0.0000
vn 0.0000 1.0000 0.0000
vn 0.0000 1.0000 0.0000
vn 0.0000 1.0000 0.0000
vn 0.0000 1.0000 0.0000
vn 0.0000 1.0000 0.0000
vn 0.0000 1.0000 0.0000
vn 0.0000 1.0000 0.0000
vn 0.0000 1.0000 0.0000
vn 0.0000 1.0000 0.0000
vn 0.0000 1.0000 0.0000
vn 0.0000 1.0000 0.0000
vn 0.0000 1.0000 0.0000
vn 0.0000 1.0000 0.0000
vn 0.0000 1.0000 0.0000
vn 0.0000 1.0000 0.0000
vn 0.0000 1.0000 0.0000
vn 0.0000 1.0000 0.0000
vn 0.0000 1.0000 0.0000
vn 0.0000 1.0000 0.0000
vn 0.0000 1.0000 0.0000
vn 0.0000 1.0000 0.0000
vn 0.0000 1.0000 0.0000
vn 0.0000 1.0000 0.0000
vn 0.0000 1.0000 0.0000
vn 0.0000 1.0000 0.0000
vn 0.0000 1.0000 0.0000
vn 0.0000 1.0000 0.0000
vn 0.0000 1.0000 0.0000
vn 0.0000 1.0000 0.0000
vn 0.0000 1.0000 0.0000
vn 0.0000 1.0000 0.0000
vn 0.0000 1.0000 0.0000
vn 0.0000 1.0000 0.0000
vn 0.0000 1.0000 0.0000
vn 0.0000 1.0000 0.0000
vn 0.0000 1.0000 0.0000
vn 0.0000 1.0000 0.0000
vn 0.0000 1.0000 0.0000
vn 0.0000 1.0000 0.0000
vn 0.0000 1.0000 0.0000
vn 0.0000 1.0000 0.0000
vn 0.0000 1.0000 0.0000
vn 0.0000 1.0000 0.0000
vn 0.0000 1.0000 0.0000
vn 0.0000 1.0000 0.0000
vn 0.0000 1.0000 0.0000
vn 0.0000 1.0000 0.0000
vn 0.0000 1.0000 0.0000
vn 0.0000 1.0000 0.0000
vn 0.0000 1.0000 0.0000
vn 0.0000 1.0000 0.0000
vn 0.0000 1.0000 0.0000
vn 0.0000 1.0000 0.0000
vn 0.0000 1.0000 0.0000
vn 0.0000 1.0000 0.0000
vn 0.0000 1.0000 0.0000
vn 0.0000 1.0000 0.0000
vn 0.0000 1.0000 0.0000
vn 0.0000 1.0000 0.0000
vn 0.0000 1.0000 0.0000
vn 0.0000 1.0000 0.0000
vn 0.0000 1.0000 0.0000
vn 0.0000 1.0000 0.0000
vn 0.0000 1.0000 0.0000
vn 0.0000 1.0000 0.0000
vn 0.0000 1.0000 0.0000
vn 0.0000 1.0000 0.0000
vn 0.0000 1.0000 0.0000
vn 0.0000 1.0000 0.0000
vn 0.0000 1.0000 0.0000
vn 0.0000 1.0000 0.0000
vn 0.0000 1.0000 0.0000
vn 0.0000 1.0000 0.0000
vn 0.0000 1.0000 0.0000
vn 0.0000 1.0000 0.0000
vn 0.0000 1.0000 0.0000
vn 0.0000 1.0000 0.0000
vn 0.0000 1.0000 0.0000
vn 0.0000 1.0000 0.0000
vn 0.0000 1.0000 0.0000
vn 0.0000 1.0000 0.0000
vn 0.0000 1.0000 0.0000
vn 0.0000 1.0000 0.0000
vn 0.0000 1.0000 0.0000
vn 0.0000 1.0000 0.0000
vn 0.0000 1.0000 0.0000
vn 0.0000 1.0000 0.0000
vn 0.0000 1.0000 0.0000
vn 0.0000 1.0000 0.0000
vn 0.0000 1.0000 0.0000
vn 0.0000 1.0000 0.0000
vn 0.0000 1.0000 0.0000
vn 0.0000 1.0000 0.0000
vn 0.0000 1.0000 0.0000
vn 0.0000 1.0000 0.0000
vn 0.0000 1.0000 0.0000
vn 0.0000 1.0000 0.0000
vn 0.0000 1.0000 0.0000
vn 0.0000 1.0000 0.0000
vn 0.0000 1.0000 0.0000
vn 0.0000 1.0000 0.0000
vn 0.0000 1.0000 0.0000
vn 0.0000 1.0000 0.0000
vn 0.0000 1.0000 0.0000
vn 0.0000 1.0000 0.0000
vn 0.0000 1.0000 0.0000
vn 0.0000 1.0000 0.0000
vn 0.0000 1.0000 0.0000
vn 0.0000 1.0000 0.0000
vn 0.0000 1.0000 0.0000
vn 0.0000 1.0000 0.0000
vn 0.0000 1.0000 0.0000
vn 0.0000 1.0000 0.0000
vn 0.0000 1.0000 0.0000
vn 0.0000 1.0000 0.0000
vn 0.0000 1.0000 0.0000
vn 0.0000 1.0000 0.0000
vn 0.0000 1.0000 0.0000
vn 0.0000 1.0000 0.0000
vn 0.0000 1.0000 0.0000
vn 0.0000 1.0000 0.0000
vn 0.0000 1.0000 0.0000
vn 0.0000 1.0000 0.0000
vn 0.0000 1.0000 0.0000
vn 0.0000 1.0000 0.0000
vn 0.0000 1.0000 0.0000
vn 0.0000 1.0000 0.0000
vn 0.0000 1.0000 0.0000
vn 0.0000 1.0000 0.0000
vn 0.0000 1.0000 0.0000
vn 0.0000 1.0000 0.0000
vn 0.0000 1.0000 0.0000
vn 0.0000 1.0000 0.0000
vn 0.0000 1.0000 0.0000
vn 0.0000 1.0000 0.0000
vn 0.0000 1.0000 0.0000
vn 0.0000 1.0000 0.0000
vn 0.0000 1.0000 0.0000
vn 0.0000 1.0000 0.0000
vn 0.0000 1.0000 0.0000
vn 0.0000 1.0000 0.0000
vn 0.0000 1.0000 0.0000
vn 0.0000 1.0000 0.0000
vn 0.0000 1.0000 0.0000
vn 0.0000 1.0000 0.0000
vn 0.0000 1.0000 0.0000
vn 0.0000 1.0000 0.0000
vn 0.0000 1.0000 0.0000
vn 0.0000 1.0000 0.0000
vn 0.0000 1.0000 0.0000
vn 0.0000 1.0000 0.0000
vn 0.0000 1.0000 0.0000
vn 0.0000 1.0000 0.0000
vn 0.0000 1.0000 0.0000
vn 0.0000 1.0000 0.0000
vn 0.0000 1.0000 0.0000
vn 0.0000 1.0000 0.0000
vn 0.0000 1.0000 0.0000
vn 0.0000 1.0000 0.0000
vn 0.0000 1.0000 0.0000
vn 0.0000 1.0000 0.0000
vn 0.0000 1.0000 0.0000
vn 0.0000 1.0000 0.0000
vn 0.0000 1.0000 0.0000
vn 0.0000 1.0000 0.0000
vn 0.0000 1.0000 0.0000
vn 0.0000 1.0000 0.0000
vn 0.0000 1.0000 0.0000
vn 0.0000 1.0000 0.0000
vn 0.0000 1.0000 0.0000
vn 0.0000 1.0000 0.0000
vn 0.0000 1.0000 0.0000
vn 0.0000 1.0000 0.0000
vn 0.0000 1.0000 0.0000
vn 0.0000 1.0000 0.0000
vn 0.0000 1.0000 0.0000
vn 0.0000 1.0000 0.0000
vn 0.0000 1.0000 0.0000
vn 0.0000 1.0000 0.0000
vn 0.0000 1.0000 0.0000
vn 0.0000 1.0000 0.0000
vn 0.0000 1.0000 0.0000
vn 0.0000 1.0000 0.0000
vn 0.0000 1.0000 0.0000
vn 0.0000 1.0000 0.0000
vn 0.0000 1.0000 0.0000
vn 0.0000 1.0000 0.0000
vn 0.0000 1.0000 0.0000
vn 0.0000 1.0000 0.0000
vn 0.0000 1.0000 0.0000
vn 0.0000 1.0000 0.0000
vn 0.0000 1.0000 0.0000
vn 0.0000 1.0000 0.0000
vn 0.0000 1.0000 0.0000
vn 0.0000 1.0000 0.0000
vn 0.0000 1.0000 0.0000
vn 0.0000 1.0000 0.0000
vn 0.0000 1.0000 0.0000
vn 0.0000 1.0000 0.0000
vn 0.0000 1.0000 0.0000
vn 0.0000 1.0000 0.0000
vn 0.0000 1.0000 0.0000
vn 0.0000 1.0000 0.0000
vn 0.0000 1.0000 0.0000
vn 0.0000 1.0000 0.0000
vn 0.0000 1.0000 0.0000
vn 0.0000 1.0000 0.0000
vn 0.0000 1.0000 0.0000
vn 0.0000 1.0000 0.0000
vn 0.0000 1.0000 0.0000
vn 0.0000 1.0000 0.0000
vn 0.0000 1.0000 0.0000
vn 0.0000 1.0000 0.0000
vn 0.0000 1.0000 0.0000
vn 0.0000 1.0000 0.0000
vn 0.0000 1.0000 0.0000
vn 0.0000 1.0000 0.0000
vn 0.0000 1.0000 0.0000
vn 0.0000 1.0000 0.0000
vn 0.0000 1.0000 0.0000
vn 0.0000 1.0000 0.0000
vn 0.0000 1.0000 0.0000
vn 0.0000 1.0000 0.0000
vn 0.0000 1.0000 0.0000
vn 0.0000 1.0000 0.0000
vn 0.0000 1.0000 0.0000
vn 0.0000 1.0000 0.0000
vn 0.0000 1.0000 0.0000
vn 0.0000 1.0000 0.0000
vn 0.0000 1.0000 0.0000
vn 0.0000 1.0000 0.0000
vn 0.0000 1.0000 0.0000
vn 0.0000 1.0000 0.0000
vn 0.0000 1.0000 0.0000
vn 0.0000 1.0000 0.0000
vn 0.0000 1.0000 0.0000
vn 0.0000 1.0000 0.0000
vn 0.0000 1.0000 0.0000
vn 0.0000 1.0000 0.0000
vn 0.0000 1.0000 0.0000
vn 0.0000 1.0000 0.0000
vn 0.0000 1.0000 0.0000
vn 0.0000 1.0000 0.0000
vn 0.0000 1.0000 0.0000
vn 0.0000 1.0000 0.0000
vn 0.0000 1.0000 0.0000
vn 0.0000 1.0000 0.0000
vn 0.0000 1.0000 0.0000
vn 0.0000 1.0000 0.0000
vn 0.0000 1.0000 0.0000
vn 0.0000 1.0000 0.0000
vn 0.0000 1.0000 0.0000
vn 0.0000 1.0000 0.0000
vn 0.0000 1.0000 0.0000
vn 0.0000 1.0000 0.0000
vn 0.0000 1.0000 0.0000
vn 0.0000 1.0000 0.0000
vn 0.0000 1.0000 0.0000
vn 0.0000 1.0000 0.0000
vn 0.0000 1.0000 0.0000
vn 0.0000 1.0000 0.0000
vn 0.0000 1.0000 0.0000
vn 0.0000 1.0000 0.0000
vn 0.0000 1.0000 0.0000
vn 0.0000 1.0000 0.0000
vn 0.0000 1.0000 0.0000
vn 0.0000 1.0000 0.0000
vn 0.0000 1.0000 0.0000
vn 0.0000 1.0000 0.0000
vn 0.0000 1.0000 0.0000
vn 0.0000 1.0000 0.0000
vn 0.0000 1.0000 0.0000
vn 0.0000 1.0000 0.0000
vn 0.0000 1.0000 0.0000
vn 0.0000 1.0000 0.0000
vn 0.0000 1.0000 0.0000
vn 0.0000 1.0000 0.0000
vn 0.0000 1.0000 0.0000
vn 0.0000 1.0000 0.0000
vn 0.0000 1.0000 0.0000
vn 0.0000 1.0000 0.0000
vn 0.0000 1.0000 0.0000
vn 0.0000 1.0000 0.0000
vn 0.0000 1.0000 0.0000
vn 0.0000 1.0000 0.0000
vn 0.0000 1.0000 0.0000
vn 0.0000 1.0000 0.0000
vn 0.0000 1.0000 0.0000
vn 0.0000 1.0000 0.0000
vn 0.0000 1.0000 0.0000
vn 0.0000 1.0000 0.0000
vn 0.0000 1.0000 0.0000
vn 0.0000 1.0000 0.0000
vn 0.0000 1.0000 0.0000
vn 0.0000 1.0000 0.0000
vn 0.0000 1.0000 0.0000
vn 0.0000 1.0000 0.0000
vn 0.0000 1.0000 0.0000
vn 0.0000 1.0000 0.0000
vn 0.0000 1.0000 0.0000
vn 0.0000 1.0000 0.0000
vn 0.0000 1.0000 0.0000
vn 0.0000 1.0000 0.0000
vn 0.0000 1.0000 0.0000
vn 0.0000 1.0000 0.0000
vn 0.0000 1.0000 0.0000
vn 0.0000 1.0000 0.0000
vn 0.0000 1.0000 0.0000
vn 0.0000 1.0000 0.0000
vn 0.0000 1.0000 0.0000
vn 0.0000 1.0000 0.0000
vn 0.0000 1.0000 0.0000
vn 0.0000 1.0000 0.0000
vn 0.0000 1.0000 0.0000
vn 0.0000 1.0000 0.0000
vn 0.0000 1.0000 0.0000
vn 0.0000 1.0000 0.0000
vn 0.0000 1.0000 0.0000
vn 0.0000 1.0000 0.0000
vn 0.0000 1.0000 0.0000
vn 0.0000 1.0000 0.0000
vn 0.0000 1.0000 0.0000
vn 0.0000 1.0000 0.0000
vn 0.0000 1.0000 0.0000
vn 0.0000 1.0000 0.0000
vn 0.0000 1.0000 0.0000
vn 0.0000 1.0000 0.0000
vn 0.0000 1.0000 0.0000
vn 0.0000 1.0000 0.0000
vn 0.0000 1.0000 0.0000
vn 0.0000 1.0000 0.0000
vn 0.0000 1.0000 0.0000
vn 0.0000 1.0000 0.0000
vn 0.0000 1.0000 0.0000
vn 0.0000 1.0000 0.0000
vn 0.0000 1.0000 0.0000
vn 0.0000 1.0000 0.0000
vn 0.0000 1.0000 0.0000
vn 0.0000 1.0000 0.0000
vn 0.0000 1.0000 0.0000
vn 0.0000 1.0000 0.0000
vn 0.0000 1.0000 0.0000
vn 0.0000 1.0000 0.0000
vn 0.0000 1.0000 0.0000
vn 0.0000 1.0000 0.0000
vn 0.0000 1.0000 0.0000
vn 0.0000 1.0000 0.0000
vn 0.0000 1.0000 0.0000
vn 0.0000 1.0000 0.0000
vn 0.0000 1.0000 0.0000
vn 0.0000 1.0000 0.0000
vn 0.0000 1.0000 0.0000
vn 0.0000 1.0000 0.0000
vn 0.0000 1.0000 0.0000
vn 0.0000 1.0000 0.0000
vn 0.0000 1.0000 0.0000
vn 0.0000 1.0000 0.0000
vn 0.0000 1.0000 0.0000
vn 0.0000 1.0000 0.0000
vn 0.0000 1.0000 0.0000
vn 0.0000 1.0000 0.0000
vn 0.0000 1.0000 0.0000
vn 0.0000 1.0000 0.0000
vn 0.0000 1.0000 0.0000
vn 0.0000 1.0000 0.0000
vn 0.0000 1.0000 0.0000
vn 0.0000 1.0000 0.0000
vn 0.0000 1.0000 0.0000
vn 0.0000 1.0000 0.0000
vn 0.0000 1.0000 0.0000
vn 0.0000 1.0000 0.0000
vn 0.0000 1.0000 0.0000
vn 0.0000 1.0000 0.0000
vn 0.0000 1.0000 0.0000
vn 0.0000 1.0000 0.0000
vn 0.0000 1.0000 0.0000
vn 0.0000 1.0000 0.0000
vn 0.0000 1.0000 0.0000
vn 0.0000 1.0000 0.0000
vn 0.0000 1.0000 0.0000
vn 0.0000 1.0000 0.0000
vn 0.0000 1.0000 0.0000
vn 0.0000 1.0000 0.0000
vn 0.0000 1.0000 0.0000
vn 0.0000 1.0000 0.0000
vn 0.0000 1.0000 0.0000
vn 0.0000 1.0000 0.0000
vn 0.0000 1.0000 0.0000
vn 0.0000 1.0000 0.0000
vn 0.0000 1.0000 0.0000
vn 0.0000 1.0000 0.0000
vn 0.0000 1.0000 0.0000
vn 0.0000 1.0000 0.0000
vn 0.0000 1.0000 0.0000
vn 0.0000 1.0000 0.0000
vn 0.0000 1.0000 0.0000
vn 0.0000 1.0000 0.0000
vn 0.0000 1.0000 0.0000
vn 0.0000 1.0000 0.0000
vn 0.0000 1.0000 0.0000
vn 0.0000 1.0000 0.0000
vn 0.0000 1.0000 0.0000
vn 0.0000 1.0000 0.0000
vn 0.0000 1.0000 0.0000
vn 0.0000 1.0000 0.0000
vn 0.0000 1.0000 0.0000
vn 0.0000 1.0000 0.0000
vn 0.0000 1.0000 0.0000
vn 0.0000 1.0000 0.0000
vn 0.0000 1.0000 0.0000
vn 0.0000 1.0000 0.0000
vn 0.0000 1.0000 0.0000
vn 0.0000 1.0000 0.0000
vn 0.0000 1.0000 0.0000
vn 0.0000 1.0000 0.0000
vn 0.0000 1.0000 0.0000
vn 0.0000 1.0000 0.0000
vn 0.0000 1.0000 0.0000
vn 0.0000 1.0000 0.0000
vn 0.0000 1.0000 0.0000
vn 0.0000 1.0000 0.0000
vn 0.0000 1.0000 0.0000
vn 0.0000 1.0000 0.0000
vn 0.0000 1.0000 0.0000
vn 0.0000 1.0000 0.0000
vn 0.0000 1.0000 0.0000
vn 0.0000 1.0000 0.0000
vn 0.0000 1.0000 0.0000
vn 0.0000 1.0000 0.0000
vn 0.0000 1.0000 0.0000
vn 0.0000 1.0000 0.0000
vn 0.0000 1.0000 0.0000
vn 0.0000 1.0000 0.0000
vn 0.0000 1.0000 0.0000
vn 0.0000 1.0000 0.0000
vn 0.0000 1.0000 0.0000
vn 0.0000 1.0000 0.0000
vn 0.0000 1.0000 0.0000
vn 0.0000 1.0000 0.0000
vn 0.0000 1.0000 0.0000
vn 0.0000 1.0000 0.0000
vn 0.0000 1.0000 0.0000
vn 0.0000 1.0000 0.0000
vn 0.0000 1.0000 0.0000
vn 0.0000 1.0000 0.0000
vn 0.0000 1.0000 0.0000
vn 0.0000 1.0000 0.0000
vn 0.0000 1.0000 0.0000
vn 0.0000 1.0000 0.0000
vn 0.0000 1.0000 0.0000
vn 0.0000 1.0000 0.0000
vn 0.0000 1.0000 0.0000
vn 0.0000 1.0000 0.0000
vn 0.0000 1.0000 0.0000
vn 0.0000 1.0000 0.0000
vn 0.0000 1.0000 0.0000
vn 0.0000 1.0000 0.0000
vn 0.0000 1.0000 0.0000
vn 0.0000 1.0000 0.0000
vn 0.0000 1.0000 0.0000
vn 0.0000 1.0000 0.0000
vn 0.0000 1.0000 0.0000
vn 0.0000 1.0000 0.0000
vn 0.0000 1.0000 0.0000
vn 0.0000 1.0000 0.0000
vn 0.0000 1.0000 0.0000
vn 0.0000 1.0000 0.0000
vn 0.0000 1.0000 0.0000
vn 0.0000 1.0000 0.0000
vn 0.0000 1.0000 0.0000
vn 0.0000 1.0000 0.0000
vn 0.0000 1.0000 0.0000
vn 0.0000 1.0000 0.0000
vn 0.0000 1.0000 0.0000
vn 0.0000 1.0000 0.0000
vn 0.0000 1.0000 0.0000
vn 0.0000 1.0000 0.0000
vn 0.0000 1.0000 0.0000
vn 0.0000 1.0000 0.0000
vn 0.0000 1.0000 0.0000
vn 0.0000 1.0000 0.0000
vn 0.0000 1.0000 0.0000
vn 0.0000 1.0000 0.0000
vn 0.0000 1.0000 0.0000
vn 0.0000 1.0000 0.0000
vn 0.0000 1.0000 0.0000
vn 0.0000 1.0000 0.0000
vn 0.0000 1.0000 0.0000
vn 0.0000 1.0000 0.0000
vn 0.0000 1.0000 0.0000
vn 0.0000 1.0000 0.0000
vn 0.0000 1.0000 0.0000
vn 0.0000 1.0000 0.0000
vn 0.0000 1.0000 0.0000
vn 0.0000 1.0000 0.0000
vn 0.0000 1.0000 0.0000
f 1 2 3
f 4 5 6
f 7 8 9
f 10 11 12
f 13 14 15
f 16 17 18
f 19 20 21
f 22 23 24
f 25 26 27
f 28 29 30
f 31 32 33
f 34 35 36
f 37 38 39
f 40 41 42
f 43 44 45
f 46 47 48
f 49 50 51
f 52 53 54
f 55 56 57
f 58 59 60
f 61 62 63
f 64 65 66
f 67 68 69
f 70 71 72
f 73 74 75
f 76 77 78
f 79 80 81
f 82 83 84
f 85 86 87
f 88 89 90
f 91 92 93
f 94 95 96
f 97 98 99
f 100 101 102
f 103 104 105
f 106 107 108
f 109 110 111
f 112 113 114
f 115 116 117
f 118 119 120
f 121 122 123
f 124 125 126
f 127 128 129
f 130 131 132
f 133 134 135
f 136 137 138
f 139 140 141
f 142 143 144
f 145 146 147
f 148 149 150
f 151 152 153
f 154 155 156
f 157 158 159
f 160 161 162
f 163 164 165
f 166 167 168
f 169 170 171
f 172 173 174
f 175 176 177
f 178 179 180
f 181 182 183
f 184 185 186
f 187 188 189
f 190 191 192
f 193 194 195
f 196 197 198
f 199 200 201
f 202 203 204
f 205 206 207
f 208 209 210
f 211 212 213
f 214 215 216
f 217 218 219
f 220 221 222
f 223 224 225
f 226 227 228
f 229 230 231
f 232 233 234
f 235 236 237
f 238 239 240
f 241 242 243
f 244 245 246
f 247 248 249
f 250 251 252
f 253 254 255
f 256 257 258
f 259 260 261
f 262 263 264
f 265 266 267
f 268 269 270
f 271 272 273
f 274 275 276
f 277 278 279
f 280 281 282
f 283 284 285
f 286 287 288
f 289 290 291
f 292 293 294
f 295 296 297
f 298 299 300
f 301 302 303
f 304 305 306
f 307 308 309
f 310 311 312
f 313 314 315
f 316 317 318
f 319 320 321
f 322 323 324
f 325 326 327
f 328 329 330
f 331 332 333
f 334 335 336
f 337 338 339
f 340 341 342
f 343 344 345
f 346 347 348
f 349 350 351
f 352 353 354
f 355 356 357
f 358 359 360
f 361 362 363
f 364 365 366
f 367 368 369
f 370 371 372
f 373 374 375
f 376 377 378
f 379 380 381
f 382 383 384
f 385 386 387
f 388 389 390
f 391 392 393
f 394 395 396
f 397 398 399
f 400 401 402
f 403 404 405
f 406 407 408
f 409 410 411
f 412 413 414
f 415 416 417
f 418 419 420
f 421 422 423
f 424 425 426
f 427 428 429
f 430 431 432
f 433 434 435
f 436 437 438
f 439 440 441
f 442 443 444
f 445 446 447
f 448 449 450
f 451 452 453
f 454 455 456
f 457 458 459
f 460 461 462
f 463 464 465
f 466 467 468
f 469 470 471
f 472 473 474
f 475 476 477
f 478 479 480
f 481 482 483
f 484 485 486
f 487 488 489
f 490 491 492
f 493 494 495
f 496 497 498
f 499 500 501
f 502 503 504
f 505 506 507
f 508 509 510
f 511 512 513
f 514 515 516
f 517 518 519
f 520 521 522
f 523 524 525
f 526 527 528
f 529 530 531
f 532 533 534
f 535 536 537
f 538 539 540
f 541 542 543
f 544 545 546
f 547 548 549
f 550 551 552
f 553 554 555
f 556 557 558
f 559 560 561
f 562 563 564
f 565 566 567
f 568 569 570
f 571 572 573
f 574 575 576
f 577 578 579
f 580 581 582
f 583 584 585
f 586 587 588
f 589 590 591
f 592 593 594
f 595 596 597
f 598 599 600
f 601 602 603
f 604 605 606
f 607 608 609
f 610 611 612
f 613 614 615
f 616 617 618
f 619 620 621
f 622 623 624
f 625 626 627
f 628 629 630
f 631 632 633
f 634 635 636
f 637 638 639
f 640 641 642
f 643 644 645
f 646 647 648
f 649 650 651
f 652 653 654
f 655 656 657
f 658 659 660
f 661 662 663
f 664 665 666
f 667 668 669
f 670 671 672
f 673 674 675
f 676 677 678
f 679 680 681
f 682 683 684
f 685 686 687
f 688 689 690
f 691 692 693
f 694 695 696
f 697 698 699
f 700 701 702
f 703 704 705
f 706 707 708
f 709 710 711
f 712 713 714
f 715 716 717
f 718 719 720
f 721 722 723
f 724 725 726
f 727 728 729
f 730 731 732
f 733 734 735
f 736 737 738
f 739 740 741
f 742 743 744
f 745 746 747
f 748 749 750
f 751 752 753
f 754 755 756
f 757 758 759
f 760 761 762
f 763 764 765
f 766 767 768
f 769 770 771
f 772 773 774
f 775 776 777
f 778 779 780
f 781 782 783
f 784 785 786
f 787 788 789
f 790 791 792
f 793 794 795
f 796 797 798
f 799 800 801
f 802 803 804
f 805 806 807
f 808 809 810
f 811 812 813
f 814 815 816
f 817 818 819
f 820 821 822
f 823 824 825
f 826 827 828
f 829 830 831
f 832 833 834
f 835 836 837
f 838 839 840
f 841 842 843
f 844 845 846
f 847 848 849
f 850 851 852
f 853 854 855
f 856 857 858
f 859 860 861
f 862 863 864
f 865 866 867
f 868 869 870
f 871 872 873
f 874 875 876
f 877 878 879
f 880 881 882
f 883 884 885
f 886 887 888
f 889 890 891
f 892 893 894
f 895 896 897
f 898 899 900
f 901 902 903
f 904 905 906
f 907 908 909
f 910 911 912
f 913 914 915
f 916 917 918
f 919 920 921
f 922 923 924
f 925 926 927
f 928 929 930
f 931 932 933
f 934 935 936
f 937 938 939
f 940 941 942
f 943 944 945
f 946 947 948
f 949 950 951
f 952 953 954
f 955 956 957
f 958 959 960
f 961 962 963
f 964 965 966
f 967 968 969
f 970 971 972
f 973 974 975
f 976 977 978
f 979 980 981
f 982 983 984
f 985 986 987
f 988 989 990
f 991 992 993
f 994 995 996
f 997 998 999
f 1000 1001 1002
f 1003 1004 1005
f 1006 1007 1008
f 1009 1010 1011
f 1012 1013 1014
f 1015 1016 1017
f 1018 1019 1020
f 1021 1022 1023
f 1024 1025 1026
f 1027 1028 1029
f 1030 1031 1032
f 1033 1034 1035
f 1036 1037 1038
f 1039 1040 1041
f 1042 1043 1044
f 1045 1046 1047
f 1048 1049 1050
f 1051 1052 1053
f 1054 1055 1056
f 1057 1058 1059
f 1060 1061 1062
f 1063 1064 1065
f 1066 1067 1068
f 1069 1070 1071
f 1072 1073 1074
f 1075 1076 1077
f 1078 1079 1080
f 1081 1082 1083
f 1084 1085 1086
f 1087 1088 1089
f 1090 1091 1092
f 1093 1094 1095
f 1096 1097 1098
f 1099 1100 1101
f 1102 1103 1104
f 1105 1106 1107
f 1108 1109 1110
f 1111 1112 1113
f 1114 1115 1116
f 1117 1118 1119
f 1120 1121 1122
f 1123 1124 1125
f 1126 1127 1128
f 1129 1130 1131
f 1132 1133 1134
f 1135 1136 1137
f 1138 1139 1140
f 1141 1142 1143
f 1144 1145 1146
f 1147 1148 1149
f 1150 1151 1152
f 1153 1154 1155
f 1156 1157 1158
f 1159 1160 1161
f 1162 1163 1164
f 1165 1166 1167
f 1168 1169 1170
f 1171 1172 1173
f 1174 1175 1176
f 1177 1178 1179
f 1180 1181 1182
f 1183 1184 1185
f 1186 1187 1188
f 1189 1190 1191
f 1192 1193 1194
f 1195 1196 1197
f 1198 1199 1200
f 1201 1202 1203
f 1204 1205 1206
f 1207 1208 1209
f 1210 1211 1212
f 1213 1214 1215
f 1216 1217 1218
f 1219 1220 1221
f 1222 1223 1224
