# PSO Extracted Authentic Geometry
v 0.0000 0.0000 -300.0000
v 0.0000 -525.0000 0.0000
v 0.0000 0.0000 130.0000
v 965.0000 0.0000 245.0000
v 130.0000 0.0000 0.0000
v 0.0000 485.0000 0.0000
v 485.0000 0.0000 0.0000
v 0.0000 130.0000 0.0000
v 0.0000 0.0000 785.0000
v 0.0000 -355.0000 0.0000
v 0.0000 0.0000 78.1025
v 965.0000 0.0000 -175.0000
v 78.1025 0.0000 0.0000
v 0.0000 -840.0000 0.0000
v -165.0000 0.0000 0.0000
v 0.0000 78.1025 0.0000
v 0.0000 0.0000 725.0000
v 0.0000 5.0000 0.0000
v 0.0000 0.0000 130.0000
v 245.0000 0.0000 5.0000
v 130.0000 0.0000 0.0000
v 0.0000 -720.0000 0.0000
v -345.0000 0.0000 0.0000
v 0.0000 118.3216 0.0000
v 0.0000 0.0000 -600.0000
v 0.0000 255.0000 0.0000
v 0.0000 0.0000 118.3216
v 965.0000 0.0000 5.0000
v 174.3559 0.0000 0.0000
v -355.0000 0.0000 0.0000
v 0.0000 174.3559 0.0000
v 0.0000 0.0000 965.0000
v 0.0000 -355.0000 0.0000
v 0.0000 0.0000 148.1966
v 965.0000 0.0000 5.0000
v 144.4654 0.0000 0.0000
v 0.0000 485.0000 0.0000
v 125.0000 0.0000 0.0000
v 0.0000 270.6012 0.0000
v 0.0000 0.0000 -660.0000
v 0.0000 -525.0000 0.0000
v 0.0000 0.0000 272.9469
v 365.0000 0.0000 245.0000
v 44.5602 0.0000 0.0000
v -115.0000 0.0000 0.0000
v 0.0000 44.5602 0.0000
v 0.0000 -475.0000 0.0000
v 0.0000 0.0000 44.5602
v 1085.0000 0.0000 5.0000
v 44.5602 0.0000 0.0000
v -405.0000 0.0000 0.0000
v 0.0000 44.5602 0.0000
v 0.0000 245.0000 0.0000
v 0.0000 0.0000 44.5602
v 1085.0000 0.0000 -355.0000
v 44.5602 0.0000 0.0000
v -645.0000 0.0000 0.0000
v 0.0000 44.5602 0.0000
v 0.0000 0.0000 965.0000
v 0.0000 425.0000 0.0000
v 0.0000 0.0000 87.4128
v 665.0000 0.0000 -355.0000
v 87.4128 0.0000 0.0000
v 0.0000 -960.0000 0.0000
v -165.0000 0.0000 0.0000
v 0.0000 87.4128 0.0000
v 0.0000 0.0000 485.0000
v 0.0000 665.0000 0.0000
v 0.0000 0.0000 87.4128
v -120.0000 0.0000 -525.0000
v 87.4128 0.0000 0.0000
v 0.0000 -540.0000 0.0000
v 375.0000 0.0000 0.0000
v 0.0000 87.4128 0.0000
v 0.0000 0.0000 -540.0000
v 0.0000 75.0000 0.0000
v 0.0000 0.0000 60.6960
v -540.0000 0.0000 -165.0000
v 60.6960 0.0000 0.0000
v 0.0000 -780.0000 0.0000
v 75.0000 0.0000 0.0000
v 0.0000 60.6960 0.0000
v 0.0000 0.0000 -900.0000
v 0.0000 -645.0000 0.0000
v 0.0000 0.0000 144.9069
v 5.0000 0.0000 5.0000
v 220.0000 0.0000 0.0000
v 0.0000 -660.0000 0.0000
v -165.0000 0.0000 0.0000
v 0.0000 172.3369 0.0000
v 0.0000 0.0000 -660.0000
v 0.0000 75.0000 0.0000
v 0.0000 0.0000 172.3369
v 800.0000 0.0000 0.0000
v 1.0039 -9.0353 0.0000
v -14.0009 -2.3216 190.9472
v 0.0000 0.0000 1.0000
v 1.0000 1.0000 0.0000
v 0.2500 0.0000 220.1592
v 20.0000 0.0000 0.0000
v 0.0000 0.0000 1.0000
v 1.0000 1.0000 0.0000
v 0.0000 -58.0000 11.6327
v -58.0000 137.7448 0.0000
v 0.0000 1.0000 1.0000
v 1.0000 0.0000 0.0000
v 0.2431 0.6196 0.0000
v 0.0000 0.0000 11.6327
v 33.7500 171.4789 0.0000
v 0.0000 1.0000 1.0000
v 1.0000 0.0000 0.0000
v 0.8118 1.0000 0.0000
v 0.0000 0.0000 11.6327
v 21.9997 68.9197 0.0000
v 0.0000 1.0000 1.0000
v 1.0000 0.0000 0.0000
v 0.0000 0.0000 9.9136
v 24.1237 -1.3428 57.4706
v 0.0000 0.0000 1.0000
v 1.0000 1.0000 0.0000
v 1.0039 -2.0078 0.0000
v 11.0000 15.6682 -0.5000
v 57.2132 0.0000 0.0000
v 1.0000 1.0000 1.0000
v 21.0159 113.6734 -49.8520
v 45.8685 0.0000 0.0000
v 0.0000 -80.0000 0.0000
v 1.0000 1.0000 1.0000
v 0.8118 0.0000 0.0000
v -0.5330 3.9400 -8.0277
v 71.0235 0.0000 0.0000
v 1.0000 1.0000 1.0000
v 0.0000 0.0000 -1.4044
v 0.2400 1.8399 58.8574
v 0.0000 0.0000 1.0000
v 1.0000 1.0000 0.0000
v 0.0000 0.0000 -0.6037
v 1.5000 -0.2747 65.1102
v 0.0000 0.0000 1.0000
v 1.0000 1.0000 0.0000
v 0.0000 60.0000 0.0000
v 103.9230 0.0000 0.0000
v 0.0000 -80.0000 0.0000
v 1.0000 1.0000 1.0000
v 0.0000 -0.0000 33.1662
v 0.0000 0.0000 -6.4912
v 1.0000 1.0000 0.0000
v 1.0039 0.0000 0.0000
v 0.0000 -0.0000 26.5160
v 4.0095 38.4020 0.0000
v 0.0000 1.0000 1.0000
v 1.0000 0.0000 0.0000
v 30.0000 0.0000 209.3442
v 0.0000 0.0000 1.0000
v 1.0000 1.0000 0.0000
v -1.0039 0.0000 0.0000
v 0.0000 0.0000 30.0000
v 0.0000 192.9274 0.0000
v 0.0000 1.0000 1.0000
v 1.0000 0.0000 0.0000
v 0.8941 -0.9922 0.0000
v 0.0000 35.0300 0.0000
v 243.7972 0.0000 0.0000
v 1.0000 1.0000 1.0000
v 98.2500 22.5000 0.0000
v 55.3020 0.0000 0.0000
v 1.0000 1.0000 1.0000
v 0.6471 0.1490 0.0000
v 0.0000 0.0000 109.2500
v 26.5657 0.9039 47.2420
v 0.0000 0.0000 1.0000
v 1.0000 1.0000 0.0000
v 0.2863 0.0000 0.0000
v 0.0000 108.0000 28.9701
v -18.9259 14.2599 0.0000
v 0.0000 1.0000 1.0000
v 1.0000 0.0000 0.0000
v 0.0000 1.0000 0.0000
v 0.0000 108.0000 26.7396
v 11.6680 10.1840 0.0000
v 0.0000 1.0000 1.0000
v 1.0000 0.0000 0.0000
v 0.5059 0.0000 0.0000
v 0.0000 108.0593 25.4595
v -12.2823 9.1194 0.0000
v 0.0000 1.0000 1.0000
v 1.0000 0.0000 0.0000
v 0.8588 0.9725 0.0000
v 0.0000 108.0719 30.0152
v -32.4757 16.3195 0.0000
v 0.0000 1.0000 1.0000
v 1.0000 0.0000 0.0000
v 108.0000 28.1252 23.9947
v 11.9380 0.0000 0.0000
v 1.0000 1.0000 1.0000
v 0.4627 0.0000 0.0000
v 108.0000 31.0000 34.0000
v 17.0497 0.0000 0.0000
v 1.0000 1.0000 1.0000
v 0.0000 0.0500 8.2500
v -0.4000 259.7556 0.0000
v 0.0000 1.0000 1.0000
v 1.0000 0.0000 0.0000
v 20.0784 0.0000 0.0000
v 0.0000 0.0000 88.0000
v 0.0000 268.9312 0.0000
v 0.0000 1.0000 1.0000
v 1.0000 0.0000 0.0000
v 0.0000 0.0000 8.5500
v 0.0000 260.4292 0.0000
v 0.0000 1.0000 1.0000
v 1.0000 0.0000 0.0000
v 0.0000 55.0000 -7.5000
v 166.0640 0.0000 0.0000
v 1.0000 1.0000 1.0000
v 1.0000 0.0000 0.0000
v 0.0000 -98.0000 37.5000
v -0.0000 61.5732 0.0000
v 0.0000 1.0000 1.0000
v 1.0000 0.0000 0.0000
v 0.0118 0.0000 0.0000
v 0.0000 -102.1075 33.7484
v 0.0000 23.4126 0.0000
v 0.0000 1.0000 1.0000
v 1.0000 0.0000 0.0000
v 1.0039 0.0000 0.0000
v 0.0000 0.0000 -63.2555
v 2.7294 219.8372 17.7821
v 0.0000 0.0000 1.0000
v 1.0000 1.0000 0.0000
v -98.4234 4.4151 185.9636
v 16.0480 0.0000 0.0000
v 1.0000 1.0000 1.0000
v 0.0000 -97.5168 4.6981
v 224.3697 17.9298 0.0000
v 0.0000 1.0000 1.0000
v 1.0000 0.0000 0.0000
v 1.0039 0.0000 0.0000
v 0.0000 0.0000 -47.8154
v 6.2653 221.7031 17.7537
v 0.0000 0.0000 1.0000
v 1.0000 1.0000 0.0000
v -100.9515 7.1404 209.9886
v 17.7900 0.0000 0.0000
v 1.0000 1.0000 1.0000
v 0.0000 93.6295 3.3764
v -220.9489 17.8897 0.0000
v 0.0000 1.0000 1.0000
v 1.0000 0.0000 0.0000
v 1.0039 0.0000 0.0000
v 0.0000 0.0000 104.5986
v 5.1321 -209.4010 17.9000
v 0.0000 0.0000 1.0000
v 1.0000 1.0000 0.0000
v 102.3499 7.1404 -219.2488
v 17.7900 0.0000 0.0000
v 1.0000 1.0000 1.0000
v 0.0000 -101.3388 2.6162
v 194.2897 15.8682 0.0000
v 0.0000 1.0000 1.0000
v 1.0000 0.0000 0.0000
v 0.0000 1.0000 0.0000
v 0.0000 0.0000 -5.0000
v 0.0000 278.6126 0.0000
v 0.0000 1.0000 1.0000
v 1.0000 0.0000 0.0000
v 0.0000 0.0000 35.0000
v 0.0000 262.6347 0.0000
v 0.0000 1.0000 1.0000
v 1.0000 0.0000 0.0000
v 0.0000 0.0000 144.2540
v -140.0000 132.6757 0.0000
v 0.0000 1.0000 1.0000
v 1.0000 0.0000 0.0000
v -0.0250 9.0000 73.8040
v 196.5311 0.0000 0.0000
v 1.0000 1.0000 1.0000
v 0.0000 0.0000 -0.8085
v 20.3380 57.6102 200.7699
v 0.0000 0.0000 1.0000
v 1.0000 1.0000 0.0000
v 0.0000 0.0000 30.0000
v -137.0000 149.7364 0.0000
v 0.0000 1.0000 1.0000
v 1.0000 0.0000 0.0000
v 32.2500 82.0000 114.0003
v 0.0000 0.0000 1.0000
v 1.0000 1.0000 0.0000
v 0.0000 -0.9922 0.0000
v 0.0000 0.0000 35.0300
v 43.5000 232.3797 0.0000
v 0.0000 1.0000 1.0000
v 1.0000 0.0000 0.0000
v 0.0000 88.0000 0.0000
v 268.9312 0.0000 0.0000
v 1.0000 1.0000 1.0000
v 1.0039 0.0000 0.0000
v 0.0000 0.0000 -94.4374
v 2.5554 214.0988 14.9609
v 0.0000 0.0000 1.0000
v 1.0000 1.0000 0.0000
v -75.4215 2.8061 225.9115
v 15.0815 0.0000 0.0000
v 1.0000 1.0000 1.0000
v 0.0000 -79.7856 4.3489
v 218.7338 15.1610 0.0000
v 0.0000 1.0000 1.0000
v 1.0000 0.0000 0.0000
v 1.0039 0.0000 0.0000
v 0.0000 0.0000 -42.2147
v 5.2916 223.9671 13.9086
v 0.0000 0.0000 1.0000
v 1.0000 1.0000 0.0000
v 103.6324 4.4744 193.7990
v 13.9672 0.0000 0.0000
v 1.0000 1.0000 1.0000
v 0.0000 93.8779 2.5174
v 209.6710 15.0469 0.0000
v 0.0000 1.0000 1.0000
v 1.0000 0.0000 0.0000
v 1.0039 0.0000 0.0000
v 0.0000 0.0000 103.0774
v 6.7652 224.6105 15.0498
v 0.0000 0.0000 1.0000
v 1.0000 1.0000 0.0000
v 104.1736 4.5227 160.1015
v 13.9657 0.0000 0.0000
v 1.0000 1.0000 1.0000
v 0.0000 57.4896 2.5174
v 224.8515 15.0469 0.0000
v 0.0000 1.0000 1.0000
v 1.0000 0.0000 0.0000
v 1.0039 0.0000 0.0000
v 0.0000 0.0000 104.1865
v 4.9750 57.9734 12.8163
v 0.0000 0.0000 1.0000
v 1.0000 1.0000 0.0000
v 105.2700 3.4555 71.1515
v 12.7805 0.0000 0.0000
v 1.0000 1.0000 1.0000
v 0.0000 -104.5055 4.8652
v 35.7383 12.7812 0.0000
v 0.0000 1.0000 1.0000
v 1.0000 0.0000 0.0000
v 1.0039 0.0000 0.0000
v 0.0000 0.0000 -104.9803
v 4.5022 76.5924 12.7663
v 0.0000 0.0000 1.0000
v 1.0000 1.0000 0.0000
v 103.3312 2.5174 167.9717
v 15.0469 0.0000 0.0000
v 1.0000 1.0000 1.0000
v 0.0000 -104.9720 8.0086
v 52.9130 13.6294 0.0000
v 0.0000 1.0000 1.0000
v 1.0000 0.0000 0.0000
v 1.0039 0.0000 0.0000
v 0.0000 0.0000 -105.7639
v 4.7533 191.7778 13.9646
v 0.0000 0.0000 1.0000
v 1.0000 1.0000 0.0000
v -102.7962 10.4190 221.5056
v 15.1065 0.0000 0.0000
v 1.0000 1.0000 1.0000
v 0.0000 104.9340 2.8000
v 23.0865 12.6048 0.0000
v 0.0000 1.0000 1.0000
v 1.0000 0.0000 0.0000
v 5.6902 0.0000 0.0000
v 0.0000 -5.0000 0.0000
v 278.6126 0.0000 0.0000
v 1.0000 1.0000 1.0000
v 0.0000 35.0000 0.0000
v 262.6347 0.0000 0.0000
v 1.0000 1.0000 1.0000
v 0.0000 0.0000 1.0000
v 5.0000 40.0000 169.6033
v 0.0000 0.0000 1.0000
v 1.0000 1.0000 0.0000
v 0.0000 -0.0000 -2.5000
v 0.0000 147.8251 0.0000
v 0.0000 1.0000 1.0000
v 1.0000 0.0000 0.0000
v 0.4314 0.0000 0.0000
v 0.0000 0.0000 0.5903
v 8.2071 -189.7181 114.5485
v 0.0000 0.0000 1.0000
v 1.0000 1.0000 0.0000
v 32.1255 0.0000 0.0000
v 0.0000 0.0000 81.0000
v 0.0000 268.5535 0.0000
v 0.0000 1.0000 1.0000
v 1.0000 0.0000 0.0000
v 0.0000 0.0000 5.0500
v -74.4000 179.4927 0.0000
v 0.0000 1.0000 1.0000
v 1.0000 0.0000 0.0000
v 8.0314 0.0000 0.0000
v 34.9259 200.0650 123.8422
v 0.0000 0.0000 1.0000
v 1.0000 1.0000 0.0000
v 0.0000 0.0000 35.0000
v -13.6625 142.3111 0.0000
v 0.0000 1.0000 1.0000
v 1.0000 0.0000 0.0000
v 0.8941 -0.9922 0.0000
v 35.0300 0.0000 243.7971
v 0.0000 0.0000 1.0000
v 1.0000 1.0000 0.0000
v 6.0235 1.0000 0.0000
v 35.0000 -224.0000 119.6704
v 0.0000 0.0000 1.0000
v 1.0000 1.0000 0.0000
v 1.0039 0.0000 0.0000
v 0.0000 0.0000 -105.0823
v 3.5932 -79.5292 11.2379
v 0.0000 0.0000 1.0000
v 1.0000 1.0000 0.0000
v -46.0381 2.1314 -70.5590
v 11.1077 0.0000 0.0000
v 1.0000 1.0000 1.0000
v 0.0000 105.5022 3.5932
v -78.7478 11.2379 0.0000
v 0.0000 1.0000 1.0000
v 1.0000 0.0000 0.0000
v 1.0039 0.0000 0.0000
v 0.0000 0.0000 83.2423
v 2.1314 -72.4021 11.1077
v 0.0000 0.0000 1.0000
v 1.0000 1.0000 0.0000
v -103.1312 5.0685 -71.4127
v 11.1065 0.0000 0.0000
v 1.0000 1.0000 1.0000
v 0.0000 -40.2893 2.1314
v -207.1842 11.1077 0.0000
v 0.0000 1.0000 1.0000
v 1.0000 0.0000 0.0000
v 1.0039 0.0000 0.0000
v 0.0000 0.0000 -79.8059
v 2.1314 -205.7115 11.1077
v 0.0000 0.0000 1.0000
v 1.0000 1.0000 0.0000
v 102.4925 2.1301 -168.0268
v 11.0664 0.0000 0.0000
v 1.0000 1.0000 1.0000
v 0.0000 73.7939 2.6162
v -205.1811 15.8682 0.0000
v 0.0000 1.0000 1.0000
v 1.0000 0.0000 0.0000
v 1.0039 0.0000 0.0000
v 0.0000 0.0000 -89.9907
v 5.4907 -187.3414 17.8577
v 0.0000 0.0000 1.0000
v 1.0000 1.0000 0.0000
v 101.8323 5.4907 -188.9489
v 17.8577 0.0000 0.0000
v 1.0000 1.0000 1.0000
v 1.0000 0.0000 0.0000
v 0.0000 -5.0000 0.0000
v 278.6126 0.0000 0.0000
v 1.0000 1.0000 1.0000
v 6.0235 -1.0039 0.0000
v 1.0000 35.0000 0.0000
v 262.6347 0.0000 0.0000
v 1.0000 1.0000 1.0000
v 0.8941 -0.9922 0.0000
v 35.0300 0.0000 243.7971
v 0.0000 0.0000 1.0000
v 1.0000 1.0000 0.0000
v 1.0039 1.0000 0.0000
v 0.0000 0.0000 12.5000
v 0.1000 260.3687 0.0000
v 0.0000 1.0000 1.0000
v 1.0000 0.0000 0.0000
v 1.0039 0.0000 0.0000
v 0.0000 2.9352 8.1590
v 127.1332 145.2377 0.0000
v 0.0000 1.0000 1.0000
v 1.0000 0.0000 0.0000
v 84.5000 0.0000 252.1946
v 0.0000 0.0000 1.0000
v 1.0000 1.0000 0.0000
v 88.0000 0.0000 268.9312
v 0.0000 0.0000 1.0000
v 1.0000 1.0000 0.0000
v 0.8353 0.0000 0.0000
v 0.0000 0.0000 0.8497
v 24.0882 19.1924 224.4096
v 0.0000 0.0000 1.0000
v 1.0000 1.0000 0.0000
v 0.0000 -101.8649 14.8051
v -0.3541 88.7082 0.0000
v 0.0000 1.0000 1.0000
v 1.0000 0.0000 0.0000
v 100.1500 35.0000 0.0000
v 94.7936 0.0000 0.0000
v 1.0000 1.0000 1.0000
v 0.0000 5.0000 0.0000
v 260.3401 0.0000 0.0000
v 1.0000 1.0000 1.0000
v -5.0000 0.0000 278.6126
v 0.0000 0.0000 1.0000
v 1.0000 1.0000 0.0000
v 1.0000 0.0000 0.0000
v 35.0000 0.0000 262.6347
v 0.0000 0.0000 1.0000
v 1.0000 1.0000 0.0000
v 2.3608 1.0000 0.0000
v 0.0000 0.5000 30.5000
v 0.0000 52.2924 0.0000
v 0.0000 1.0000 1.0000
v 1.0000 0.0000 0.0000
v 0.0000 0.0000 -35.0000
v 0.0000 74.8331 0.0000
v 0.0000 1.0000 1.0000
v 1.0000 0.0000 0.0000
v 0.2902 0.0000 0.0000
v 0.4238 -0.0000 -22.7848
v 137.4596 0.0000 0.0000
v 1.0000 1.0000 1.0000
v 0.0000 187.6166 0.0000
v 0.0000 1.0000 1.0000
v 1.0000 0.0000 0.0000
v 0.0000 0.2902 0.0000
v -2.1839 -0.0000 0.4234
v 146.8605 0.0000 0.0000
v 1.0000 1.0000 1.0000
v 0.0199 29.7438 0.0000
v 125.2536 0.0000 0.0000
v 1.0000 1.0000 1.0000
v 0.8118 0.0000 0.0000
v 0.0000 102.7764 -0.0000
v -84.2193 14.2935 0.0000
v 0.0000 1.0000 1.0000
v 1.0000 0.0000 0.0000
v 1.0000 0.0000 0.0000
v -11.5710 14.2125 1.1665
v 141.4850 0.0000 0.0000
v 1.0000 1.0000 1.0000
v 0.0000 -0.5000 0.0000
v 155.5643 0.0000 0.0000
v 1.0000 1.0000 1.0000
v 0.0000 0.0000 155.5635
v -65.0000 0.0000 0.0000
v 0.0000 0.0000 1.0000
v 1.0000 1.0000 0.0000
v 12.0471 0.0000 0.0000
v -4.0000 0.0000 167.1765
v 46.0000 0.0000 0.0000
v 0.0000 0.0000 1.0000
v 1.0000 1.0000 0.0000
v 14.0549 0.0000 0.0000
v 0.0000 63.5000 -1.5000
v 163.8704 0.0000 0.0000
v 1.0000 1.0000 1.0000
v 125.7100 0.0000 0.0000
v 1.0000 1.0000 1.0000
v 0.0000 -14.0549 0.0000
v -0.0000 71.9622 0.0000
v 0.0000 75.9705 0.0000
v 99.3364 0.0000 0.0000
v 0.0000 1.0000 1.0000
v 1.0000 0.0000 0.0000
v 0.0000 12.6077 0.0000
v 64.1595 0.0000 0.0000
v -86.0426 0.0000 74.4781
v 1.0000 1.0000 1.0000
v 1.0000 0.0000 0.0000
v 0.0000 71.9622 0.0000
v 0.0000 -73.5294 0.0000
v -99.3364 0.0000 0.0000
v 0.0000 1.0000 1.0000
v 1.0000 0.0000 0.0000
v 0.0000 0.0000 122.5604
v 55.0385 0.0000 0.0000
v 0.0000 0.0000 1.0000
v 1.0000 1.0000 0.0000
v -3.0118 0.0000 0.0000
v 0.0000 170.3673 0.0000
v 0.0000 -0.0000 -20.0000
v 0.0000 1.0000 1.0000
v 1.0000 0.0000 0.0000
v 0.0000 0.0000 20.0000
v -0.0000 109.6586 0.0000
v 0.0000 1.0000 1.0000
v 1.0000 0.0000 0.0000
v 0.8275 0.0000 0.0000
v 0.0000 21.5000 0.0000
v 102.9186 0.0000 0.0000
v 1.0000 1.0000 1.0000
v 0.1529 0.0000 0.0000
v 0.0000 0.0000 25.0000
v 0.0000 121.7579 0.0000
v 0.0000 1.0000 1.0000
v 1.0000 0.0000 0.0000
v 1.0000 0.0000 0.0000
v -8.0000 0.0000 145.5472
v 0.0000 0.0000 1.0000
v 1.0000 1.0000 0.0000
v 1.0000 0.0000 0.0000
v 0.0000 -39.2500 0.0000
v 112.9140 0.0000 0.0000
v 1.0000 1.0000 1.0000
v 0.0000 0.0000 -33.2500
v 0.0000 64.6959 0.0000
v 0.0000 1.0000 1.0000
v 1.0000 0.0000 0.0000
v 1.0000 0.0000 0.0000
v 0.0000 -0.0000 10.0000
v -0.0000 110.4547 0.0000
v 0.0000 1.0000 1.0000
v 1.0000 0.0000 0.0000
v 0.3804 1.0000 0.0000
v 0.0000 -8.0000 0.0000
v 145.5472 0.0000 0.0000
v 1.0000 1.0000 1.0000
v 3.0118 1.0000 0.0000
v 12.7500 0.0000 62.7898
v 0.0000 0.0000 1.0000
v 1.0000 1.0000 0.0000
v 1.0000 0.0000 0.0000
v -8.0000 0.0000 101.9019
v 0.0000 0.0000 1.0000
v 1.0000 1.0000 0.0000
v 0.8431 0.0000 0.0000
v 0.0000 0.0000 12.7500
v 0.0000 111.0971 0.0000
v 0.0000 1.0000 1.0000
v 1.0000 0.0000 0.0000
v 0.3804 1.0000 0.0000
v 0.0000 -8.0000 0.0000
v 145.5472 0.0000 0.0000
v 1.0000 1.0000 1.0000
v 0.0000 0.2000 0.0000
v 0.0000 0.0000 -0.5000
v 0.0000 58.2752 0.0000
v 0.0000 1.0000 1.0000
v 1.0000 0.0000 0.0000
v 0.3804 1.0000 0.0000
v 0.0000 -8.0000 0.0000
v 101.9019 0.0000 0.0000
v 1.0000 1.0000 1.0000
v 0.0000 0.2000 0.0000
v 0.0000 0.0000 -0.5000
v 0.0000 108.6094 0.0000
v 0.0000 1.0000 1.0000
v 1.0000 0.0000 0.0000
v 0.3804 1.0000 0.0000
v 0.0000 -8.0000 0.0000
v 145.5472 0.0000 0.0000
v 1.0000 1.0000 1.0000
v -30.0000 0.0000 0.0000
v 75.2941 1.0000 2107.0864
v -30.0000 0.0000 0.0000
v 65.2078 -36.6431 1824.7926
v -30.0000 -1053.5432 0.0000
v 37.6471 -9.0824 1053.5432
v -30.0000 -1824.7926 0.0000
v 37.6471 -9.0824 -1053.5432
v -30.0000 -1824.7926 0.0000
v 10.0863 -36.6431 -1824.7926
v -30.0000 -1053.5432 0.0000
v -30.0000 0.0002 0.0000
v 0.0000 -74.2902 -2107.0864
v -30.0000 0.0001 0.0000
v 10.0863 -36.6431 -1824.7920
v -30.0000 1053.5432 0.0000
v 37.6471 -64.2039 -1053.5426
v -30.0000 1824.7926 0.0000
v 37.6471 -64.2039 1053.5432
v -30.0000 1824.7920 0.0000
v 65.2078 -36.6431 1824.7926
v -30.0000 1053.5426 0.0000
v 8.5020 -3.9059 0.0000
v -30.0000 0.0000 -0.0000
v 0.0000 1.0000 0.0000
v -30.0000 0.0000 -0.0000
v 9.8196 -74.2902 2107.0864
v -30.0000 0.0000 0.0000
v 0.0000 -64.4706 0.0000
v -30.0000 0.0000 -0.0000
v 0.0000 -74.2902 0.0000
v -30.0000 0.0000 -0.0000
v 75.2941 -8.8157 0.0000
v -30.0000 0.0000 -0.0000
v 65.4745 1.0000 -2107.0864
v -30.0000 0.0002 0.0000
v 0.0000 1.0000 0.0000
v 1.0000 1.0000 1.0000
v -0.6039 0.0000 0.0000
v 0.0000 0.0000 56.0000
v -229.2447 102.1157 0.0000
v 0.0000 1.0000 1.0000
v 1.0000 0.0000 0.0000
v 8.0314 0.3216 89.0000
v -9.9000 110.0000 -0.0000
v 8.0314 1.0000 -89.0000
v -9.9000 110.0000 -0.0000
v 0.0000 0.2000 -89.0000
v -29.9000 52.0000 -0.0000
v 0.0000 0.0000 89.0000
v -29.9000 52.0000 -0.0000
v 8.0314 0.0000 0.0000
v 0.0000 -19.9000 81.0000
v 94.1382 0.0000 0.0000
v 1.0000 1.0000 1.0000
v 8.0314 0.3216 89.0000
v -9.9000 -110.0000 -0.0000
v 8.0314 1.0000 -89.0000
v -9.9000 -110.0000 -0.0000
v 0.0000 0.2000 -89.0000
v -29.9000 -52.0000 -0.0000
v 0.0000 0.0000 89.0000
v -29.9000 -52.0000 -0.0000
v 8.0314 0.0000 0.0000
v 0.0000 -19.9000 -81.0000
v 94.1382 0.0000 0.0000
v 1.0000 1.0000 1.0000
v 0.0000 0.0000 77.8001
v 6.0000 234.0000 -0.0000
v 1.0039 -0.6314 82.6500
v 6.0000 215.9000 -0.0000
v 0.6706 -0.6314 95.9001
v 6.0000 202.6499 -0.0000
v 0.3333 -0.6314 114.0001
v 6.0000 197.8000 -0.0000
v 0.0000 -0.6314 89.7461
v 20.2000 234.0000 -0.0000
v 1.0039 -0.3137 92.9955
v 20.2000 221.8730 -0.0000
v 0.6706 -0.3137 101.8731
v 20.2000 212.9954 -0.0000
v 0.3333 -0.3137 114.0001
v 20.2000 209.7460 -0.0000
v 0.0000 1.0000 0.0000
v 0.0000 95.9001 38.1000
v 215.9000 41.0564 0.0000
v 0.0000 1.0000 1.0000
v 1.0000 0.0000 0.0000
v 0.0000 0.0000 -77.8000
v 6.0000 234.0000 -0.0000
v 1.0039 -0.6314 -82.6499
v 6.0000 215.9000 -0.0000
v 0.6706 -0.6314 -95.9000
v 6.0000 202.6499 -0.0000
v 0.3333 -0.6314 -114.0000
v 6.0000 197.8000 -0.0000
v 0.0000 -0.6314 -89.7460
v 20.2000 234.0000 -0.0000
v 1.0039 -0.3137 -92.9954
v 20.2000 221.8730 -0.0000
v 0.6706 -0.3137 -101.8730
v 20.2000 212.9954 -0.0000
v 0.3333 -0.3137 -114.0000
v 20.2000 209.7460 -0.0000
v 0.0000 1.0000 0.0000
v 0.0000 -95.9000 38.1000
v 215.9000 41.0564 0.0000
v 0.0000 1.0000 1.0000
v 1.0000 0.0000 0.0000
v 0.0000 0.0000 114.0000
v 6.0000 234.0000 -0.0000
v 0.0000 1.0000 51.9225
v 6.0000 234.0000 -0.0000
v 2.0078 1.0000 114.0000
v 6.0000 171.9225 -0.0000
v 0.0000 -1.0039 94.8170
v 6.0000 174.9608 -0.0000
v 0.6196 -0.9059 77.5117
v 6.0000 183.7782 -0.0000
v 1.1804 -0.6196 63.7782
v 6.0000 197.5117 -0.0000
v 1.6235 -0.1765 54.9608
v 6.0000 214.8170 -0.0000
v 1.9098 0.3804 0.0000
v 82.9613 6.0000 202.9612
v 43.8954 0.0000 0.0000
v 1.0000 1.0000 1.0000
v 0.0000 -114.0000 6.0000
v 234.0000 -0.0000 0.0000
v -1.0039 -51.9225 6.0000
v 234.0000 -0.0000 2.0078
v -1.0039 -114.0000 6.0000
v 171.9225 -0.0000 0.0000
v 1.0000 -94.8170 6.0000
v 174.9608 -0.0000 0.6196
v 0.9020 -77.5117 6.0000
v 183.7782 -0.0000 1.1804
v 0.6157 -63.7782 6.0000
v 197.5117 -0.0000 1.6235
v 0.1725 -54.9608 6.0000
v 214.8170 -0.0000 1.9098
v -0.3843 0.0000 0.0000
v 0.0000 0.0000 -82.9612
v 6.0000 202.9612 43.8954
v 0.0000 0.0000 1.0000
v 1.0000 1.0000 0.0000
v 109.2447 56.0000 0.0000
v 81.1456 0.0000 0.0000
v 1.0000 1.0000 1.0000
v 0.0000 0.0000 141.9798
v 0.0000 0.0000 8.5000
v -22.0000 0.0000 0.0000
v 0.0000 0.0000 1.0000
v 1.0000 1.0000 0.0000
v 0.0000 142.0558 0.0000
v 0.0000 0.0000 -22.0000
v 3.0000 0.0000 0.0000
v 0.0000 1.0000 1.0000
v 1.0000 0.0000 0.0000
v 1.2431 0.0000 0.0000
v 141.9798 0.0000 0.0000
v 8.5000 22.0000 0.0000
v 1.0000 1.0000 1.0000
v 0.0000 0.0000 142.0558
v 22.0000 3.0000 0.0000
v 0.0000 0.0000 1.0000
v 1.0000 1.0000 0.0000
v 34.2000 30.0000 10.0000
v 0.0000 0.9882 0.0118
v 16.2000 13.0000 10.0000
v 0.0000 0.5176 0.0118
v 34.2000 13.0000 10.0000
v 0.0000 0.8000 0.0118
v 16.2000 30.0000 10.0000
v 0.0000 0.2980 0.0118
v 34.2000 30.0000 10.0000
v 0.0000 0.0157 0.0118
v 25.2000 26.5000 -7.5000
v 23.8642 0.0000 0.0000
v 1.0000 1.0000 1.0000
v 0.9843 4.1000 30.0000
v 10.0000 0.0000 0.9882
v 0.0118 -13.9000 13.0000
v 10.0000 0.0000 0.5176
v 0.0118 4.1000 13.0000
v 10.0000 0.0000 0.8000
v 0.9843 -13.9000 30.0000
v 10.0000 0.0000 0.2980
v 0.9843 4.1000 30.0000
v 10.0000 0.0000 0.0157
v 0.9843 0.0000 0.0000
v 0.0000 -4.9000 26.5000
v -7.5000 23.8642 0.0000
v 0.0000 1.0000 1.0000
v 1.0000 0.0000 0.0000
v 0.0000 1.0000 -28.0000
v -1.0000 100.0000 0.0000
v 0.5098 1.0000 28.0000
v -1.0000 100.0000 0.0000
v 0.5020 1.0000 28.0000
v -1.0000 -100.0000 0.0000
v 0.5020 -5.0196 -28.0000
v -1.0000 -100.0000 0.0000
v 0.5098 -5.0196 -28.0000
v -1.0000 100.0000 0.0000
v 0.5098 0.9529 0.0000
v 0.0000 0.0000 -1.0000
v 0.0000 105.3043 0.0000
v 0.0000 1.0000 1.0000
v 1.0000 0.0000 0.0000
v 0.0000 1.0000 -28.0000
v -1.0000 40.0000 0.0000
v 0.5098 1.0000 28.0000
v -1.0000 40.0000 0.0000
v 0.5020 1.0000 28.0000
v -1.0000 -40.0000 0.0000
v 0.5020 -2.0078 -28.0000
v -1.0000 -40.0000 0.0000
v 0.5098 -2.0078 -28.0000
v -1.0000 40.0000 0.0000
v 0.5098 0.9765 0.0000
v 0.0000 0.0000 -1.0000
v 0.0000 51.8556 0.0000
v 0.0000 1.0000 1.0000
v 1.0000 0.0000 0.0000
v 0.0000 1.0000 -28.0000
v -1.0000 100.0000 0.0000
v 0.5098 1.0000 28.0000
v -1.0000 100.0000 0.0000
v 0.5020 1.0000 28.0000
v -1.0000 -100.0000 0.0000
v 0.5020 -5.0196 -28.0000
v -1.0000 -100.0000 0.0000
v 0.5098 -5.0196 -28.0000
v -1.0000 100.0000 0.0000
v 0.5098 0.9529 0.0000
v 0.0000 0.0000 -1.0000
v 0.0000 105.3043 0.0000
v 0.0000 1.0000 1.0000
v 1.0000 0.0000 0.0000
v 0.0000 1.0000 -28.0000
v -1.0000 40.0000 0.0000
v 0.5098 1.0000 28.0000
v -1.0000 40.0000 0.0000
v 0.5020 1.0000 28.0000
v -1.0000 -40.0000 0.0000
v 0.5020 -2.0078 -28.0000
v -1.0000 -40.0000 0.0000
v 0.5098 -2.0078 -28.0000
v -1.0000 40.0000 0.0000
v 0.5098 0.9765 0.0000
v 0.0000 0.0000 -1.0000
v 0.0000 51.8556 0.0000
v 0.0000 1.0000 1.0000
v 1.0000 0.0000 0.0000
v 0.0000 1.0000 -28.0000
v -1.0000 100.0000 0.0000
v 0.5098 1.0000 28.0000
v -1.0000 100.0000 0.0000
v 0.5020 1.0000 28.0000
v -1.0000 -100.0000 0.0000
v 0.5020 -9.0353 -28.0000
v -1.0000 -100.0000 0.0000
v 0.5098 -9.0353 -28.0000
v -1.0000 100.0000 0.0000
v 0.5098 0.9216 0.0000
v 0.0000 0.0000 -1.0000
v 0.0000 105.3043 0.0000
v 0.0000 1.0000 1.0000
v 1.0000 0.0000 0.0000
v -80.0000 0.0000 0.0000
v 120.4706 -59.2314 2115.6099
v 112.4000 -29.1137 1832.1747
v -80.0000 -1057.8051 -0.0000
v 90.3529 -7.0667 1057.8051
v -80.0000 -1832.1747 -0.0000
v 30.1176 -7.0667 -1057.8051
v 8.0706 -29.1137 -1832.1743
v -80.0000 0.0002 0.0000
v 0.0000 -59.2314 -2115.6099
v 8.0706 -89.3490 -1832.1743
v -80.0000 1057.8051 -0.0000
v 30.1176 -111.3961 -1057.8048
v -80.0000 1832.1743 -0.0000
v 90.3529 -111.3961 1057.8051
v 112.4000 -89.3490 1832.1743
v -80.0000 1057.8048 -0.0000
v 74.3843 -67.4000 0.0000
v 0.0000 0.0000 1.0000
v 1.0000 1.0000 0.0000
v 0.6039 -0.6941 0.0000
v -1642.1077 139.7673 -284.8128
v 1792.0012 0.0000 0.0000
v 1.0000 1.0000 1.0000
v 0.0000 1.0000 1.0000
v 1.0000 0.0000 0.0000
v 0.0000 -10.0000 0.0000
v 183.5756 0.0000 0.0000
v 1.0000 1.0000 1.0000
v 0.0000 0.0000 70.0000
v 0.0000 183.5756 0.0000
v 0.0000 0.0000 -80.0000
v 0.0000 1.0000 1.0000
v 1.0000 0.0000 0.0000
v 169.7793 0.0000 0.0000
v 0.0000 55.0000 0.0000
v 1.0000 1.0000 1.0000
v 0.0000 -2.5000 36.8327
v 24.1151 146.0211 0.0000
v 0.0000 1.0000 1.0000
v 1.0000 0.0000 0.0000
v 0.0000 0.0000 -38.7027
v 45.8867 -13.0889 102.1329
v 0.0000 0.0000 1.0000
v 1.0000 1.0000 0.0000
v 0.0000 0.0000 35.3567
v 30.7500 38.1754 80.6873
v 0.0000 0.0000 1.0000
v 1.0000 1.0000 0.0000
v 6.0235 -2.5098 0.0000
v 141.4213 0.0000 0.0000
v 1.0000 1.0000 1.0000
v -0.0000 3.4630 -21.7000
v 158.9564 0.0000 0.0000
v 1.0000 1.0000 1.0000
v 0.0000 0.0000 -0.5000
v -30.0000 27.5000 168.2038
v 0.0000 0.0000 1.0000
v 1.0000 1.0000 0.0000
v -58.0000 0.0000 -58.0000
v 134.0634 0.0000 0.0000
v 1.0000 1.0000 1.0000
v -5.0196 0.0000 0.0000
v 0.0000 36.5000 164.1105
v 0.0000 0.0000 1.0000
v 1.0000 1.0000 0.0000
v 22.0000 45.6508 0.0000
v 0.0000 1.0000 1.0000
v 1.0000 0.0000 0.0000
v 0.9451 0.0000 0.0000
v 0.0000 0.0000 -40.0000
v 0.0000 82.4621 0.0000
v 0.0000 1.0000 1.0000
v 1.0000 0.0000 0.0000
v 0.1529 0.0000 0.0000
v 0.2500 15.7160 24.1640
v 0.0000 0.0000 1.0000
v 1.0000 1.0000 0.0000
v 0.6588 1.0000 0.0000
v 0.0000 0.0000 0.1000
v 0.0000 240.8311 0.0000
v 0.0000 1.0000 1.0000
v 1.0000 0.0000 0.0000
v 42.1647 0.0000 0.0000
v 0.0000 0.0000 0.1000
v 0.0000 260.2921 0.0000
v 0.0000 1.0000 1.0000
v 1.0000 0.0000 0.0000
v 5.0196 1.0000 0.0000
v 0.0000 0.0000 268.3282
v 0.0000 0.0000 1.0000
v 1.0000 1.0000 0.0000
v 0.6588 1.0000 0.0000
v 0.0000 0.0000 0.1000
v 50.0050 224.7178 0.0000
v 0.0000 1.0000 1.0000
v 1.0000 0.0000 0.0000
v 5.0196 0.0000 0.0000
v 0.0000 268.3282 0.0000
v 0.0000 1.0000 1.0000
v 1.0000 0.0000 0.0000
v 1.0039 -3.0118 0.0000
v 0.0000 0.1000 193.5200
v 120.9737 0.0000 0.0000
v 1.0000 1.0000 1.0000
v 20.0784 1.0000 0.0000
v -2.0013 0.1000 0.0001
v 117.4159 0.0000 0.0000
v 1.0000 1.0000 1.0000
v 0.1000 0.0000 240.8311
v 0.0000 0.0000 1.0000
v 1.0000 1.0000 0.0000
v 0.0000 0.0000 0.1000
v -183.4998 118.0121 0.0000
v 0.0000 1.0000 1.0000
v 1.0000 0.0000 0.0000
v 0.0000 0.0000 268.3282
v 0.0000 0.0000 1.0000
v 1.0000 1.0000 0.0000
v 1.0000 0.0000 0.0000
v 0.0000 0.1000 0.0000
v 240.8311 0.0000 0.0000
v 1.0000 1.0000 1.0000
v -90.0000 0.1000 0.0000
v 90.2497 0.0000 0.0000
v 1.0000 1.0000 1.0000
v 0.0000 0.0000 90.0000
v 0.1000 0.0000 90.2497
v 0.0000 0.0000 1.0000
v 1.0000 1.0000 0.0000
v 5.0196 -6.1059 0.0000
v 0.0000 0.0000 268.3282
v 0.0000 0.0000 1.0000
v 1.0000 1.0000 0.0000
v 0.0000 139.2121 0.0000
v 0.0000 1.0000 1.0000
v 1.0000 0.0000 0.0000
v 0.0000 0.0000 141.4213
v 0.0000 0.0000 1.0000
v 1.0000 1.0000 0.0000
v 0.0000 0.5000 50.8860
v 17.2801 0.0000 0.0000
v 1.0000 1.0000 1.0000
v 0.0000 -2.0000 0.0000
v 70.7248 0.0000 0.0000
v 1.0000 1.0000 1.0000
v 1.0000 0.0000 0.0000
v 0.0000 -27.5000 0.0000
v 129.4459 0.0000 0.0000
v 1.0000 1.0000 1.0000
v 0.0000 141.4213 0.0000
v 0.0000 1.0000 1.0000
v 1.0000 0.0000 0.0000
v 10.0039 -10.0235 0.0000
v -2.0000 0.0000 70.7248
v 0.0000 0.0000 1.0000
v 1.0000 1.0000 0.0000
v 0.0000 0.0000 -39.0000
v 0.0000 132.3669 0.0000
v 0.0000 1.0000 1.0000
v 1.0000 0.0000 0.0000
v 1.0039 0.0000 0.0000
v 141.4213 0.0000 0.0000
v 1.0000 1.0000 1.0000
v 1.0000 0.0000 0.0000
v 0.0000 1.5000 0.0000
v 101.2534 0.0000 0.0000
v 1.0000 1.0000 1.0000
v 0.0000 0.0000 -33.2500
v 0.0000 126.1172 0.0000
v 0.0000 1.0000 1.0000
v 1.0000 0.0000 0.0000
v 0.0000 0.5804 0.0000
v 0.0000 12.0000 0.0000
v 122.2456 0.0000 0.0000
v 1.0000 1.0000 1.0000
v 0.0000 -2.2500 0.0000
v 63.2856 0.0000 0.0000
v 1.0000 1.0000 1.0000
v 1.0000 0.0000 0.0000
v 0.0000 0.0000 -2.2500
v 0.0000 121.6761 0.0000
v 0.0000 1.0000 1.0000
v 1.0000 0.0000 0.0000
v 1.0039 1.0000 0.0000
v -2.2500 0.0000 63.2856
v 0.0000 0.0000 1.0000
v 1.0000 1.0000 0.0000
v 0.0000 -2.2500 0.0000
v 121.6761 0.0000 0.0000
v 1.0000 1.0000 1.0000
v 0.0000 -467.7300 -28.9999
v -4450.1548 -0.0000 0.5020
v -1.4510 500.5680 -28.9999
v -4551.9272 -0.0000 1.0039
v 1.0000 -1436.0280 -28.9999
v -4348.3833 -0.0000 0.0000
v 1.0000 747.6035 -28.9999
v -2201.5400 -0.0000 1.0039
v -3.2157 -220.6945 -28.9999
v -2099.7683 -0.0000 0.5020
v -3.2157 -21.9509 -28.9999
v -208.8504 0.0000 0.5020
v -5.0196 946.3472 -28.9999
v -310.6226 0.0000 1.0039
v -5.0196 -1188.9926 -28.9999
v -1997.9961 -0.0000 0.0000
v -3.2157 -990.2496 -28.9999
v -107.0781 0.0000 0.0000
v -5.0196 0.0000 0.0000
v 0.0000 1.0000 1.0000
v 1.0000 0.0000 0.0000
v 1.0039 0.0000 0.0000
v 0.0000 394.2238 -53.5000
v -15.0120 702.5106 0.0000
v 0.0000 1.0000 1.0000
v 0.8431 0.0000 0.0000
v 1.0000 1.0000 1.0000
vn 0.0000 1.0000 0.0000
vn 0.0000 1.0000 0.0000
vn 0.0000 1.0000 0.0000
vn 0.0000 1.0000 0.0000
vn 0.0000 1.0000 0.0000
vn 0.0000 1.0000 0.0000
vn 0.0000 1.0000 0.0000
vn 0.0000 1.0000 0.0000
vn 0.0000 1.0000 0.0000
vn 0.0000 1.0000 0.0000
vn 0.0000 1.0000 0.0000
vn 0.0000 1.0000 0.0000
vn 0.0000 1.0000 0.0000
vn 0.0000 1.0000 0.0000
vn 0.0000 1.0000 0.0000
vn 0.0000 1.0000 0.0000
vn 0.0000 1.0000 0.0000
vn 0.0000 1.0000 0.0000
vn 0.0000 1.0000 0.0000
vn 0.0000 1.0000 0.0000
vn 0.0000 1.0000 0.0000
vn 0.0000 1.0000 0.0000
vn 0.0000 1.0000 0.0000
vn 0.0000 1.0000 0.0000
vn 0.0000 1.0000 0.0000
vn 0.0000 1.0000 0.0000
vn 0.0000 1.0000 0.0000
vn 0.0000 1.0000 0.0000
vn 0.0000 1.0000 0.0000
vn 0.0000 1.0000 0.0000
vn 0.0000 1.0000 0.0000
vn 0.0000 1.0000 0.0000
vn 0.0000 1.0000 0.0000
vn 0.0000 1.0000 0.0000
vn 0.0000 1.0000 0.0000
vn 0.0000 1.0000 0.0000
vn 0.0000 1.0000 0.0000
vn 0.0000 1.0000 0.0000
vn 0.0000 1.0000 0.0000
vn 0.0000 1.0000 0.0000
vn 0.0000 1.0000 0.0000
vn 0.0000 1.0000 0.0000
vn 0.0000 1.0000 0.0000
vn 0.0000 1.0000 0.0000
vn 0.0000 1.0000 0.0000
vn 0.0000 1.0000 0.0000
vn 0.0000 1.0000 0.0000
vn 0.0000 1.0000 0.0000
vn 0.0000 1.0000 0.0000
vn 0.0000 1.0000 0.0000
vn 0.0000 1.0000 0.0000
vn 0.0000 1.0000 0.0000
vn 0.0000 1.0000 0.0000
vn 0.0000 1.0000 0.0000
vn 0.0000 1.0000 0.0000
vn 0.0000 1.0000 0.0000
vn 0.0000 1.0000 0.0000
vn 0.0000 1.0000 0.0000
vn 0.0000 1.0000 0.0000
vn 0.0000 1.0000 0.0000
vn 0.0000 1.0000 0.0000
vn 0.0000 1.0000 0.0000
vn 0.0000 1.0000 0.0000
vn 0.0000 1.0000 0.0000
vn 0.0000 1.0000 0.0000
vn 0.0000 1.0000 0.0000
vn 0.0000 1.0000 0.0000
vn 0.0000 1.0000 0.0000
vn 0.0000 1.0000 0.0000
vn 0.0000 1.0000 0.0000
vn 0.0000 1.0000 0.0000
vn 0.0000 1.0000 0.0000
vn 0.0000 1.0000 0.0000
vn 0.0000 1.0000 0.0000
vn 0.0000 1.0000 0.0000
vn 0.0000 1.0000 0.0000
vn 0.0000 1.0000 0.0000
vn 0.0000 1.0000 0.0000
vn 0.0000 1.0000 0.0000
vn 0.0000 1.0000 0.0000
vn 0.0000 1.0000 0.0000
vn 0.0000 1.0000 0.0000
vn 0.0000 1.0000 0.0000
vn 0.0000 1.0000 0.0000
vn 0.0000 1.0000 0.0000
vn 0.0000 1.0000 0.0000
vn 0.0000 1.0000 0.0000
vn 0.0000 1.0000 0.0000
vn 0.0000 1.0000 0.0000
vn 0.0000 1.0000 0.0000
vn 0.0000 1.0000 0.0000
vn 0.0000 1.0000 0.0000
vn 0.0000 1.0000 0.0000
vn 0.0000 1.0000 0.0000
vn 0.0000 1.0000 0.0000
vn 0.0000 1.0000 0.0000
vn 0.0000 1.0000 0.0000
vn 0.0000 1.0000 0.0000
vn 0.0000 1.0000 0.0000
vn 0.0000 1.0000 0.0000
vn 0.0000 1.0000 0.0000
vn 0.0000 1.0000 0.0000
vn 0.0000 1.0000 0.0000
vn 0.0000 1.0000 0.0000
vn 0.0000 1.0000 0.0000
vn 0.0000 1.0000 0.0000
vn 0.0000 1.0000 0.0000
vn 0.0000 1.0000 0.0000
vn 0.0000 1.0000 0.0000
vn 0.0000 1.0000 0.0000
vn 0.0000 1.0000 0.0000
vn 0.0000 1.0000 0.0000
vn 0.0000 1.0000 0.0000
vn 0.0000 1.0000 0.0000
vn 0.0000 1.0000 0.0000
vn 0.0000 1.0000 0.0000
vn 0.0000 1.0000 0.0000
vn 0.0000 1.0000 0.0000
vn 0.0000 1.0000 0.0000
vn 0.0000 1.0000 0.0000
vn 0.0000 1.0000 0.0000
vn 0.0000 1.0000 0.0000
vn 0.0000 1.0000 0.0000
vn 0.0000 1.0000 0.0000
vn 0.0000 1.0000 0.0000
vn 0.0000 1.0000 0.0000
vn 0.0000 1.0000 0.0000
vn 0.0000 1.0000 0.0000
vn 0.0000 1.0000 0.0000
vn 0.0000 1.0000 0.0000
vn 0.0000 1.0000 0.0000
vn 0.0000 1.0000 0.0000
vn 0.0000 1.0000 0.0000
vn 0.0000 1.0000 0.0000
vn 0.0000 1.0000 0.0000
vn 0.0000 1.0000 0.0000
vn 0.0000 1.0000 0.0000
vn 0.0000 1.0000 0.0000
vn 0.0000 1.0000 0.0000
vn 0.0000 1.0000 0.0000
vn 0.0000 1.0000 0.0000
vn 0.0000 1.0000 0.0000
vn 0.0000 1.0000 0.0000
vn 0.0000 1.0000 0.0000
vn 0.0000 1.0000 0.0000
vn 0.0000 1.0000 0.0000
vn 0.0000 1.0000 0.0000
vn 0.0000 1.0000 0.0000
vn 0.0000 1.0000 0.0000
vn 0.0000 1.0000 0.0000
vn 0.0000 1.0000 0.0000
vn 0.0000 1.0000 0.0000
vn 0.0000 1.0000 0.0000
vn 0.0000 1.0000 0.0000
vn 0.0000 1.0000 0.0000
vn 0.0000 1.0000 0.0000
vn 0.0000 1.0000 0.0000
vn 0.0000 1.0000 0.0000
vn 0.0000 1.0000 0.0000
vn 0.0000 1.0000 0.0000
vn 0.0000 1.0000 0.0000
vn 0.0000 1.0000 0.0000
vn 0.0000 1.0000 0.0000
vn 0.0000 1.0000 0.0000
vn 0.0000 1.0000 0.0000
vn 0.0000 1.0000 0.0000
vn 0.0000 1.0000 0.0000
vn 0.0000 1.0000 0.0000
vn 0.0000 1.0000 0.0000
vn 0.0000 1.0000 0.0000
vn 0.0000 1.0000 0.0000
vn 0.0000 1.0000 0.0000
vn 0.0000 1.0000 0.0000
vn 0.0000 1.0000 0.0000
vn 0.0000 1.0000 0.0000
vn 0.0000 1.0000 0.0000
vn 0.0000 1.0000 0.0000
vn 0.0000 1.0000 0.0000
vn 0.0000 1.0000 0.0000
vn 0.0000 1.0000 0.0000
vn 0.0000 1.0000 0.0000
vn 0.0000 1.0000 0.0000
vn 0.0000 1.0000 0.0000
vn 0.0000 1.0000 0.0000
vn 0.0000 1.0000 0.0000
vn 0.0000 1.0000 0.0000
vn 0.0000 1.0000 0.0000
vn 0.0000 1.0000 0.0000
vn 0.0000 1.0000 0.0000
vn 0.0000 1.0000 0.0000
vn 0.0000 1.0000 0.0000
vn 0.0000 1.0000 0.0000
vn 0.0000 1.0000 0.0000
vn 0.0000 1.0000 0.0000
vn 0.0000 1.0000 0.0000
vn 0.0000 1.0000 0.0000
vn 0.0000 1.0000 0.0000
vn 0.0000 1.0000 0.0000
vn 0.0000 1.0000 0.0000
vn 0.0000 1.0000 0.0000
vn 0.0000 1.0000 0.0000
vn 0.0000 1.0000 0.0000
vn 0.0000 1.0000 0.0000
vn 0.0000 1.0000 0.0000
vn 0.0000 1.0000 0.0000
vn 0.0000 1.0000 0.0000
vn 0.0000 1.0000 0.0000
vn 0.0000 1.0000 0.0000
vn 0.0000 1.0000 0.0000
vn 0.0000 1.0000 0.0000
vn 0.0000 1.0000 0.0000
vn 0.0000 1.0000 0.0000
vn 0.0000 1.0000 0.0000
vn 0.0000 1.0000 0.0000
vn 0.0000 1.0000 0.0000
vn 0.0000 1.0000 0.0000
vn 0.0000 1.0000 0.0000
vn 0.0000 1.0000 0.0000
vn 0.0000 1.0000 0.0000
vn 0.0000 1.0000 0.0000
vn 0.0000 1.0000 0.0000
vn 0.0000 1.0000 0.0000
vn 0.0000 1.0000 0.0000
vn 0.0000 1.0000 0.0000
vn 0.0000 1.0000 0.0000
vn 0.0000 1.0000 0.0000
vn 0.0000 1.0000 0.0000
vn 0.0000 1.0000 0.0000
vn 0.0000 1.0000 0.0000
vn 0.0000 1.0000 0.0000
vn 0.0000 1.0000 0.0000
vn 0.0000 1.0000 0.0000
vn 0.0000 1.0000 0.0000
vn 0.0000 1.0000 0.0000
vn 0.0000 1.0000 0.0000
vn 0.0000 1.0000 0.0000
vn 0.0000 1.0000 0.0000
vn 0.0000 1.0000 0.0000
vn 0.0000 1.0000 0.0000
vn 0.0000 1.0000 0.0000
vn 0.0000 1.0000 0.0000
vn 0.0000 1.0000 0.0000
vn 0.0000 1.0000 0.0000
vn 0.0000 1.0000 0.0000
vn 0.0000 1.0000 0.0000
vn 0.0000 1.0000 0.0000
vn 0.0000 1.0000 0.0000
vn 0.0000 1.0000 0.0000
vn 0.0000 1.0000 0.0000
vn 0.0000 1.0000 0.0000
vn 0.0000 1.0000 0.0000
vn 0.0000 1.0000 0.0000
vn 0.0000 1.0000 0.0000
vn 0.0000 1.0000 0.0000
vn 0.0000 1.0000 0.0000
vn 0.0000 1.0000 0.0000
vn 0.0000 1.0000 0.0000
vn 0.0000 1.0000 0.0000
vn 0.0000 1.0000 0.0000
vn 0.0000 1.0000 0.0000
vn 0.0000 1.0000 0.0000
vn 0.0000 1.0000 0.0000
vn 0.0000 1.0000 0.0000
vn 0.0000 1.0000 0.0000
vn 0.0000 1.0000 0.0000
vn 0.0000 1.0000 0.0000
vn 0.0000 1.0000 0.0000
vn 0.0000 1.0000 0.0000
vn 0.0000 1.0000 0.0000
vn 0.0000 1.0000 0.0000
vn 0.0000 1.0000 0.0000
vn 0.0000 1.0000 0.0000
vn 0.0000 1.0000 0.0000
vn 0.0000 1.0000 0.0000
vn 0.0000 1.0000 0.0000
vn 0.0000 1.0000 0.0000
vn 0.0000 1.0000 0.0000
vn 0.0000 1.0000 0.0000
vn 0.0000 1.0000 0.0000
vn 0.0000 1.0000 0.0000
vn 0.0000 1.0000 0.0000
vn 0.0000 1.0000 0.0000
vn 0.0000 1.0000 0.0000
vn 0.0000 1.0000 0.0000
vn 0.0000 1.0000 0.0000
vn 0.0000 1.0000 0.0000
vn 0.0000 1.0000 0.0000
vn 0.0000 1.0000 0.0000
vn 0.0000 1.0000 0.0000
vn 0.0000 1.0000 0.0000
vn 0.0000 1.0000 0.0000
vn 0.0000 1.0000 0.0000
vn 0.0000 1.0000 0.0000
vn 0.0000 1.0000 0.0000
vn 0.0000 1.0000 0.0000
vn 0.0000 1.0000 0.0000
vn 0.0000 1.0000 0.0000
vn 0.0000 1.0000 0.0000
vn 0.0000 1.0000 0.0000
vn 0.0000 1.0000 0.0000
vn 0.0000 1.0000 0.0000
vn 0.0000 1.0000 0.0000
vn 0.0000 1.0000 0.0000
vn 0.0000 1.0000 0.0000
vn 0.0000 1.0000 0.0000
vn 0.0000 1.0000 0.0000
vn 0.0000 1.0000 0.0000
vn 0.0000 1.0000 0.0000
vn 0.0000 1.0000 0.0000
vn 0.0000 1.0000 0.0000
vn 0.0000 1.0000 0.0000
vn 0.0000 1.0000 0.0000
vn 0.0000 1.0000 0.0000
vn 0.0000 1.0000 0.0000
vn 0.0000 1.0000 0.0000
vn 0.0000 1.0000 0.0000
vn 0.0000 1.0000 0.0000
vn 0.0000 1.0000 0.0000
vn 0.0000 1.0000 0.0000
vn 0.0000 1.0000 0.0000
vn 0.0000 1.0000 0.0000
vn 0.0000 1.0000 0.0000
vn 0.0000 1.0000 0.0000
vn 0.0000 1.0000 0.0000
vn 0.0000 1.0000 0.0000
vn 0.0000 1.0000 0.0000
vn 0.0000 1.0000 0.0000
vn 0.0000 1.0000 0.0000
vn 0.0000 1.0000 0.0000
vn 0.0000 1.0000 0.0000
vn 0.0000 1.0000 0.0000
vn 0.0000 1.0000 0.0000
vn 0.0000 1.0000 0.0000
vn 0.0000 1.0000 0.0000
vn 0.0000 1.0000 0.0000
vn 0.0000 1.0000 0.0000
vn 0.0000 1.0000 0.0000
vn 0.0000 1.0000 0.0000
vn 0.0000 1.0000 0.0000
vn 0.0000 1.0000 0.0000
vn 0.0000 1.0000 0.0000
vn 0.0000 1.0000 0.0000
vn 0.0000 1.0000 0.0000
vn 0.0000 1.0000 0.0000
vn 0.0000 1.0000 0.0000
vn 0.0000 1.0000 0.0000
vn 0.0000 1.0000 0.0000
vn 0.0000 1.0000 0.0000
vn 0.0000 1.0000 0.0000
vn 0.0000 1.0000 0.0000
vn 0.0000 1.0000 0.0000
vn 0.0000 1.0000 0.0000
vn 0.0000 1.0000 0.0000
vn 0.0000 1.0000 0.0000
vn 0.0000 1.0000 0.0000
vn 0.0000 1.0000 0.0000
vn 0.0000 1.0000 0.0000
vn 0.0000 1.0000 0.0000
vn 0.0000 1.0000 0.0000
vn 0.0000 1.0000 0.0000
vn 0.0000 1.0000 0.0000
vn 0.0000 1.0000 0.0000
vn 0.0000 1.0000 0.0000
vn 0.0000 1.0000 0.0000
vn 0.0000 1.0000 0.0000
vn 0.0000 1.0000 0.0000
vn 0.0000 1.0000 0.0000
vn 0.0000 1.0000 0.0000
vn 0.0000 1.0000 0.0000
vn 0.0000 1.0000 0.0000
vn 0.0000 1.0000 0.0000
vn 0.0000 1.0000 0.0000
vn 0.0000 1.0000 0.0000
vn 0.0000 1.0000 0.0000
vn 0.0000 1.0000 0.0000
vn 0.0000 1.0000 0.0000
vn 0.0000 1.0000 0.0000
vn 0.0000 1.0000 0.0000
vn 0.0000 1.0000 0.0000
vn 0.0000 1.0000 0.0000
vn 0.0000 1.0000 0.0000
vn 0.0000 1.0000 0.0000
vn 0.0000 1.0000 0.0000
vn 0.0000 1.0000 0.0000
vn 0.0000 1.0000 0.0000
vn 0.0000 1.0000 0.0000
vn 0.0000 1.0000 0.0000
vn 0.0000 1.0000 0.0000
vn 0.0000 1.0000 0.0000
vn 0.0000 1.0000 0.0000
vn 0.0000 1.0000 0.0000
vn 0.0000 1.0000 0.0000
vn 0.0000 1.0000 0.0000
vn 0.0000 1.0000 0.0000
vn 0.0000 1.0000 0.0000
vn 0.0000 1.0000 0.0000
vn 0.0000 1.0000 0.0000
vn 0.0000 1.0000 0.0000
vn 0.0000 1.0000 0.0000
vn 0.0000 1.0000 0.0000
vn 0.0000 1.0000 0.0000
vn 0.0000 1.0000 0.0000
vn 0.0000 1.0000 0.0000
vn 0.0000 1.0000 0.0000
vn 0.0000 1.0000 0.0000
vn 0.0000 1.0000 0.0000
vn 0.0000 1.0000 0.0000
vn 0.0000 1.0000 0.0000
vn 0.0000 1.0000 0.0000
vn 0.0000 1.0000 0.0000
vn 0.0000 1.0000 0.0000
vn 0.0000 1.0000 0.0000
vn 0.0000 1.0000 0.0000
vn 0.0000 1.0000 0.0000
vn 0.0000 1.0000 0.0000
vn 0.0000 1.0000 0.0000
vn 0.0000 1.0000 0.0000
vn 0.0000 1.0000 0.0000
vn 0.0000 1.0000 0.0000
vn 0.0000 1.0000 0.0000
vn 0.0000 1.0000 0.0000
vn 0.0000 1.0000 0.0000
vn 0.0000 1.0000 0.0000
vn 0.0000 1.0000 0.0000
vn 0.0000 1.0000 0.0000
vn 0.0000 1.0000 0.0000
vn 0.0000 1.0000 0.0000
vn 0.0000 1.0000 0.0000
vn 0.0000 1.0000 0.0000
vn 0.0000 1.0000 0.0000
vn 0.0000 1.0000 0.0000
vn 0.0000 1.0000 0.0000
vn 0.0000 1.0000 0.0000
vn 0.0000 1.0000 0.0000
vn 0.0000 1.0000 0.0000
vn 0.0000 1.0000 0.0000
vn 0.0000 1.0000 0.0000
vn 0.0000 1.0000 0.0000
vn 0.0000 1.0000 0.0000
vn 0.0000 1.0000 0.0000
vn 0.0000 1.0000 0.0000
vn 0.0000 1.0000 0.0000
vn 0.0000 1.0000 0.0000
vn 0.0000 1.0000 0.0000
vn 0.0000 1.0000 0.0000
vn 0.0000 1.0000 0.0000
vn 0.0000 1.0000 0.0000
vn 0.0000 1.0000 0.0000
vn 0.0000 1.0000 0.0000
vn 0.0000 1.0000 0.0000
vn 0.0000 1.0000 0.0000
vn 0.0000 1.0000 0.0000
vn 0.0000 1.0000 0.0000
vn 0.0000 1.0000 0.0000
vn 0.0000 1.0000 0.0000
vn 0.0000 1.0000 0.0000
vn 0.0000 1.0000 0.0000
vn 0.0000 1.0000 0.0000
vn 0.0000 1.0000 0.0000
vn 0.0000 1.0000 0.0000
vn 0.0000 1.0000 0.0000
vn 0.0000 1.0000 0.0000
vn 0.0000 1.0000 0.0000
vn 0.0000 1.0000 0.0000
vn 0.0000 1.0000 0.0000
vn 0.0000 1.0000 0.0000
vn 0.0000 1.0000 0.0000
vn 0.0000 1.0000 0.0000
vn 0.0000 1.0000 0.0000
vn 0.0000 1.0000 0.0000
vn 0.0000 1.0000 0.0000
vn 0.0000 1.0000 0.0000
vn 0.0000 1.0000 0.0000
vn 0.0000 1.0000 0.0000
vn 0.0000 1.0000 0.0000
vn 0.0000 1.0000 0.0000
vn 0.0000 1.0000 0.0000
vn 0.0000 1.0000 0.0000
vn 0.0000 1.0000 0.0000
vn 0.0000 1.0000 0.0000
vn 0.0000 1.0000 0.0000
vn 0.0000 1.0000 0.0000
vn 0.0000 1.0000 0.0000
vn 0.0000 1.0000 0.0000
vn 0.0000 1.0000 0.0000
vn 0.0000 1.0000 0.0000
vn 0.0000 1.0000 0.0000
vn 0.0000 1.0000 0.0000
vn 0.0000 1.0000 0.0000
vn 0.0000 1.0000 0.0000
vn 0.0000 1.0000 0.0000
vn 0.0000 1.0000 0.0000
vn 0.0000 1.0000 0.0000
vn 0.0000 1.0000 0.0000
vn 0.0000 1.0000 0.0000
vn 0.0000 1.0000 0.0000
vn 0.0000 1.0000 0.0000
vn 0.0000 1.0000 0.0000
vn 0.0000 1.0000 0.0000
vn 0.0000 1.0000 0.0000
vn 0.0000 1.0000 0.0000
vn 0.0000 1.0000 0.0000
vn 0.0000 1.0000 0.0000
vn 0.0000 1.0000 0.0000
vn 0.0000 1.0000 0.0000
vn 0.0000 1.0000 0.0000
vn 0.0000 1.0000 0.0000
vn 0.0000 1.0000 0.0000
vn 0.0000 1.0000 0.0000
vn 0.0000 1.0000 0.0000
vn 0.0000 1.0000 0.0000
vn 0.0000 1.0000 0.0000
vn 0.0000 1.0000 0.0000
vn 0.0000 1.0000 0.0000
vn 0.0000 1.0000 0.0000
vn 0.0000 1.0000 0.0000
vn 0.0000 1.0000 0.0000
vn 0.0000 1.0000 0.0000
vn 0.0000 1.0000 0.0000
vn 0.0000 1.0000 0.0000
vn 0.0000 1.0000 0.0000
vn 0.0000 1.0000 0.0000
vn 0.0000 1.0000 0.0000
vn 0.0000 1.0000 0.0000
vn 0.0000 1.0000 0.0000
vn 0.0000 1.0000 0.0000
vn 0.0000 1.0000 0.0000
vn 0.0000 1.0000 0.0000
vn 0.0000 1.0000 0.0000
vn 0.0000 1.0000 0.0000
vn 0.0000 1.0000 0.0000
vn 0.0000 1.0000 0.0000
vn 0.0000 1.0000 0.0000
vn 0.0000 1.0000 0.0000
vn 0.0000 1.0000 0.0000
vn 0.0000 1.0000 0.0000
vn 0.0000 1.0000 0.0000
vn 0.0000 1.0000 0.0000
vn 0.0000 1.0000 0.0000
vn 0.0000 1.0000 0.0000
vn 0.0000 1.0000 0.0000
vn 0.0000 1.0000 0.0000
vn 0.0000 1.0000 0.0000
vn 0.0000 1.0000 0.0000
vn 0.0000 1.0000 0.0000
vn 0.0000 1.0000 0.0000
vn 0.0000 1.0000 0.0000
vn 0.0000 1.0000 0.0000
vn 0.0000 1.0000 0.0000
vn 0.0000 1.0000 0.0000
vn 0.0000 1.0000 0.0000
vn 0.0000 1.0000 0.0000
vn 0.0000 1.0000 0.0000
vn 0.0000 1.0000 0.0000
vn 0.0000 1.0000 0.0000
vn 0.0000 1.0000 0.0000
vn 0.0000 1.0000 0.0000
vn 0.0000 1.0000 0.0000
vn 0.0000 1.0000 0.0000
vn 0.0000 1.0000 0.0000
vn 0.0000 1.0000 0.0000
vn 0.0000 1.0000 0.0000
vn 0.0000 1.0000 0.0000
vn 0.0000 1.0000 0.0000
vn 0.0000 1.0000 0.0000
vn 0.0000 1.0000 0.0000
vn 0.0000 1.0000 0.0000
vn 0.0000 1.0000 0.0000
vn 0.0000 1.0000 0.0000
vn 0.0000 1.0000 0.0000
vn 0.0000 1.0000 0.0000
vn 0.0000 1.0000 0.0000
vn 0.0000 1.0000 0.0000
vn 0.0000 1.0000 0.0000
vn 0.0000 1.0000 0.0000
vn 0.0000 1.0000 0.0000
vn 0.0000 1.0000 0.0000
vn 0.0000 1.0000 0.0000
vn 0.0000 1.0000 0.0000
vn 0.0000 1.0000 0.0000
vn 0.0000 1.0000 0.0000
vn 0.0000 1.0000 0.0000
vn 0.0000 1.0000 0.0000
vn 0.0000 1.0000 0.0000
vn 0.0000 1.0000 0.0000
vn 0.0000 1.0000 0.0000
vn 0.0000 1.0000 0.0000
vn 0.0000 1.0000 0.0000
vn 0.0000 1.0000 0.0000
vn 0.0000 1.0000 0.0000
vn 0.0000 1.0000 0.0000
vn 0.0000 1.0000 0.0000
vn 0.0000 1.0000 0.0000
vn 0.0000 1.0000 0.0000
vn 0.0000 1.0000 0.0000
vn 0.0000 1.0000 0.0000
vn 0.0000 1.0000 0.0000
vn 0.0000 1.0000 0.0000
vn 0.0000 1.0000 0.0000
vn 0.0000 1.0000 0.0000
vn 0.0000 1.0000 0.0000
vn 0.0000 1.0000 0.0000
vn 0.0000 1.0000 0.0000
vn 0.0000 1.0000 0.0000
vn 0.0000 1.0000 0.0000
vn 0.0000 1.0000 0.0000
vn 0.0000 1.0000 0.0000
vn 0.0000 1.0000 0.0000
vn 0.0000 1.0000 0.0000
vn 0.0000 1.0000 0.0000
vn 0.0000 1.0000 0.0000
vn 0.0000 1.0000 0.0000
vn 0.0000 1.0000 0.0000
vn 0.0000 1.0000 0.0000
vn 0.0000 1.0000 0.0000
vn 0.0000 1.0000 0.0000
vn 0.0000 1.0000 0.0000
vn 0.0000 1.0000 0.0000
vn 0.0000 1.0000 0.0000
vn 0.0000 1.0000 0.0000
vn 0.0000 1.0000 0.0000
vn 0.0000 1.0000 0.0000
vn 0.0000 1.0000 0.0000
vn 0.0000 1.0000 0.0000
vn 0.0000 1.0000 0.0000
vn 0.0000 1.0000 0.0000
vn 0.0000 1.0000 0.0000
vn 0.0000 1.0000 0.0000
vn 0.0000 1.0000 0.0000
vn 0.0000 1.0000 0.0000
vn 0.0000 1.0000 0.0000
vn 0.0000 1.0000 0.0000
vn 0.0000 1.0000 0.0000
vn 0.0000 1.0000 0.0000
vn 0.0000 1.0000 0.0000
vn 0.0000 1.0000 0.0000
vn 0.0000 1.0000 0.0000
vn 0.0000 1.0000 0.0000
vn 0.0000 1.0000 0.0000
vn 0.0000 1.0000 0.0000
vn 0.0000 1.0000 0.0000
vn 0.0000 1.0000 0.0000
vn 0.0000 1.0000 0.0000
vn 0.0000 1.0000 0.0000
vn 0.0000 1.0000 0.0000
vn 0.0000 1.0000 0.0000
vn 0.0000 1.0000 0.0000
vn 0.0000 1.0000 0.0000
vn 0.0000 1.0000 0.0000
vn 0.0000 1.0000 0.0000
vn 0.0000 1.0000 0.0000
vn 0.0000 1.0000 0.0000
vn 0.0000 1.0000 0.0000
vn 0.0000 1.0000 0.0000
vn 0.0000 1.0000 0.0000
vn 0.0000 1.0000 0.0000
vn 0.0000 1.0000 0.0000
vn 0.0000 1.0000 0.0000
vn 0.0000 1.0000 0.0000
vn 0.0000 1.0000 0.0000
vn 0.0000 1.0000 0.0000
vn 0.0000 1.0000 0.0000
vn 0.0000 1.0000 0.0000
vn 0.0000 1.0000 0.0000
vn 0.0000 1.0000 0.0000
vn 0.0000 1.0000 0.0000
vn 0.0000 1.0000 0.0000
vn 0.0000 1.0000 0.0000
vn 0.0000 1.0000 0.0000
vn 0.0000 1.0000 0.0000
vn 0.0000 1.0000 0.0000
vn 0.0000 1.0000 0.0000
vn 0.0000 1.0000 0.0000
vn 0.0000 1.0000 0.0000
vn 0.0000 1.0000 0.0000
vn 0.0000 1.0000 0.0000
vn 0.0000 1.0000 0.0000
vn 0.0000 1.0000 0.0000
vn 0.0000 1.0000 0.0000
vn 0.0000 1.0000 0.0000
vn 0.0000 1.0000 0.0000
vn 0.0000 1.0000 0.0000
vn 0.0000 1.0000 0.0000
vn 0.0000 1.0000 0.0000
vn 0.0000 1.0000 0.0000
vn 0.0000 1.0000 0.0000
vn 0.0000 1.0000 0.0000
vn 0.0000 1.0000 0.0000
vn 0.0000 1.0000 0.0000
vn 0.0000 1.0000 0.0000
vn 0.0000 1.0000 0.0000
vn 0.0000 1.0000 0.0000
vn 0.0000 1.0000 0.0000
vn 0.0000 1.0000 0.0000
vn 0.0000 1.0000 0.0000
vn 0.0000 1.0000 0.0000
vn 0.0000 1.0000 0.0000
vn 0.0000 1.0000 0.0000
vn 0.0000 1.0000 0.0000
vn 0.0000 1.0000 0.0000
vn 0.0000 1.0000 0.0000
vn 0.0000 1.0000 0.0000
vn 0.0000 1.0000 0.0000
vn 0.0000 1.0000 0.0000
vn 0.0000 1.0000 0.0000
vn 0.0000 1.0000 0.0000
vn 0.0000 1.0000 0.0000
vn 0.0000 1.0000 0.0000
vn 0.0000 1.0000 0.0000
vn 0.0000 1.0000 0.0000
vn 0.0000 1.0000 0.0000
vn 0.0000 1.0000 0.0000
vn 0.0000 1.0000 0.0000
vn 0.0000 1.0000 0.0000
vn 0.0000 1.0000 0.0000
vn 0.0000 1.0000 0.0000
vn 0.0000 1.0000 0.0000
vn 0.0000 1.0000 0.0000
vn 0.0000 1.0000 0.0000
vn 0.0000 1.0000 0.0000
vn 0.0000 1.0000 0.0000
vn 0.0000 1.0000 0.0000
vn 0.0000 1.0000 0.0000
vn 0.0000 1.0000 0.0000
vn 0.0000 1.0000 0.0000
vn 0.0000 1.0000 0.0000
vn 0.0000 1.0000 0.0000
vn 0.0000 1.0000 0.0000
vn 0.0000 1.0000 0.0000
vn 0.0000 1.0000 0.0000
vn 0.0000 1.0000 0.0000
vn 0.0000 1.0000 0.0000
vn 0.0000 1.0000 0.0000
vn 0.0000 1.0000 0.0000
vn 0.0000 1.0000 0.0000
vn 0.0000 1.0000 0.0000
vn 0.0000 1.0000 0.0000
vn 0.0000 1.0000 0.0000
vn 0.0000 1.0000 0.0000
vn 0.0000 1.0000 0.0000
vn 0.0000 1.0000 0.0000
vn 0.0000 1.0000 0.0000
vn 0.0000 1.0000 0.0000
vn 0.0000 1.0000 0.0000
vn 0.0000 1.0000 0.0000
vn 0.0000 1.0000 0.0000
vn 0.0000 1.0000 0.0000
vn 0.0000 1.0000 0.0000
vn 0.0000 1.0000 0.0000
vn 0.0000 1.0000 0.0000
vn 0.0000 1.0000 0.0000
vn 0.0000 1.0000 0.0000
vn 0.0000 1.0000 0.0000
vn 0.0000 1.0000 0.0000
vn 0.0000 1.0000 0.0000
vn 0.0000 1.0000 0.0000
vn 0.0000 1.0000 0.0000
vn 0.0000 1.0000 0.0000
vn 0.0000 1.0000 0.0000
vn 0.0000 1.0000 0.0000
vn 0.0000 1.0000 0.0000
vn 0.0000 1.0000 0.0000
vn 0.0000 1.0000 0.0000
vn 0.0000 1.0000 0.0000
vn 0.0000 1.0000 0.0000
vn 0.0000 1.0000 0.0000
vn 0.0000 1.0000 0.0000
vn 0.0000 1.0000 0.0000
vn 0.0000 1.0000 0.0000
vn 0.0000 1.0000 0.0000
vn 0.0000 1.0000 0.0000
vn 0.0000 1.0000 0.0000
vn 0.0000 1.0000 0.0000
vn 0.0000 1.0000 0.0000
vn 0.0000 1.0000 0.0000
vn 0.0000 1.0000 0.0000
vn 0.0000 1.0000 0.0000
vn 0.0000 1.0000 0.0000
vn 0.0000 1.0000 0.0000
vn 0.0000 1.0000 0.0000
vn 0.0000 1.0000 0.0000
vn 0.0000 1.0000 0.0000
vn 0.0000 1.0000 0.0000
vn 0.0000 1.0000 0.0000
vn 0.0000 1.0000 0.0000
vn 0.0000 1.0000 0.0000
vn 0.0000 1.0000 0.0000
vn 0.0000 1.0000 0.0000
vn 0.0000 1.0000 0.0000
vn 0.0000 1.0000 0.0000
vn 0.0000 1.0000 0.0000
vn 0.0000 1.0000 0.0000
vn 0.0000 1.0000 0.0000
vn 0.0000 1.0000 0.0000
vn 0.0000 1.0000 0.0000
vn 0.0000 1.0000 0.0000
vn 0.0000 1.0000 0.0000
vn 0.0000 1.0000 0.0000
vn 0.0000 1.0000 0.0000
vn 0.0000 1.0000 0.0000
vn 0.0000 1.0000 0.0000
vn 0.0000 1.0000 0.0000
vn 0.0000 1.0000 0.0000
vn 0.0000 1.0000 0.0000
vn 0.0000 1.0000 0.0000
vn 0.0000 1.0000 0.0000
vn 0.0000 1.0000 0.0000
vn 0.0000 1.0000 0.0000
vn 0.0000 1.0000 0.0000
vn 0.0000 1.0000 0.0000
vn 0.0000 1.0000 0.0000
vn 0.0000 1.0000 0.0000
vn 0.0000 1.0000 0.0000
vn 0.0000 1.0000 0.0000
vn 0.0000 1.0000 0.0000
vn 0.0000 1.0000 0.0000
vn 0.0000 1.0000 0.0000
vn 0.0000 1.0000 0.0000
vn 0.0000 1.0000 0.0000
vn 0.0000 1.0000 0.0000
vn 0.0000 1.0000 0.0000
vn 0.0000 1.0000 0.0000
vn 0.0000 1.0000 0.0000
vn 0.0000 1.0000 0.0000
vn 0.0000 1.0000 0.0000
vn 0.0000 1.0000 0.0000
vn 0.0000 1.0000 0.0000
vn 0.0000 1.0000 0.0000
vn 0.0000 1.0000 0.0000
vn 0.0000 1.0000 0.0000
vn 0.0000 1.0000 0.0000
vn 0.0000 1.0000 0.0000
vn 0.0000 1.0000 0.0000
vn 0.0000 1.0000 0.0000
vn 0.0000 1.0000 0.0000
vn 0.0000 1.0000 0.0000
vn 0.0000 1.0000 0.0000
vn 0.0000 1.0000 0.0000
vn 0.0000 1.0000 0.0000
vn 0.0000 1.0000 0.0000
vn 0.0000 1.0000 0.0000
vn 0.0000 1.0000 0.0000
vn 0.0000 1.0000 0.0000
vn 0.0000 1.0000 0.0000
vn 0.0000 1.0000 0.0000
vn 0.0000 1.0000 0.0000
vn 0.0000 1.0000 0.0000
vn 0.0000 1.0000 0.0000
vn 0.0000 1.0000 0.0000
vn 0.0000 1.0000 0.0000
vn 0.0000 1.0000 0.0000
vn 0.0000 1.0000 0.0000
vn 0.0000 1.0000 0.0000
vn 0.0000 1.0000 0.0000
vn 0.0000 1.0000 0.0000
vn 0.0000 1.0000 0.0000
vn 0.0000 1.0000 0.0000
vn 0.0000 1.0000 0.0000
vn 0.0000 1.0000 0.0000
vn 0.0000 1.0000 0.0000
vn 0.0000 1.0000 0.0000
vn 0.0000 1.0000 0.0000
vn 0.0000 1.0000 0.0000
vn 0.0000 1.0000 0.0000
vn 0.0000 1.0000 0.0000
vn 0.0000 1.0000 0.0000
vn 0.0000 1.0000 0.0000
vn 0.0000 1.0000 0.0000
vn 0.0000 1.0000 0.0000
vn 0.0000 1.0000 0.0000
vn 0.0000 1.0000 0.0000
vn 0.0000 1.0000 0.0000
vn 0.0000 1.0000 0.0000
vn 0.0000 1.0000 0.0000
vn 0.0000 1.0000 0.0000
vn 0.0000 1.0000 0.0000
vn 0.0000 1.0000 0.0000
vn 0.0000 1.0000 0.0000
vn 0.0000 1.0000 0.0000
vn 0.0000 1.0000 0.0000
vn 0.0000 1.0000 0.0000
vn 0.0000 1.0000 0.0000
vn 0.0000 1.0000 0.0000
vn 0.0000 1.0000 0.0000
vn 0.0000 1.0000 0.0000
vn 0.0000 1.0000 0.0000
vn 0.0000 1.0000 0.0000
vn 0.0000 1.0000 0.0000
vn 0.0000 1.0000 0.0000
vn 0.0000 1.0000 0.0000
vn 0.0000 1.0000 0.0000
vn 0.0000 1.0000 0.0000
vn 0.0000 1.0000 0.0000
vn 0.0000 1.0000 0.0000
vn 0.0000 1.0000 0.0000
vn 0.0000 1.0000 0.0000
vn 0.0000 1.0000 0.0000
vn 0.0000 1.0000 0.0000
vn 0.0000 1.0000 0.0000
vn 0.0000 1.0000 0.0000
vn 0.0000 1.0000 0.0000
vn 0.0000 1.0000 0.0000
vn 0.0000 1.0000 0.0000
vn 0.0000 1.0000 0.0000
vn 0.0000 1.0000 0.0000
vn 0.0000 1.0000 0.0000
vn 0.0000 1.0000 0.0000
vn 0.0000 1.0000 0.0000
vn 0.0000 1.0000 0.0000
vn 0.0000 1.0000 0.0000
vn 0.0000 1.0000 0.0000
vn 0.0000 1.0000 0.0000
vn 0.0000 1.0000 0.0000
vn 0.0000 1.0000 0.0000
vn 0.0000 1.0000 0.0000
vn 0.0000 1.0000 0.0000
vn 0.0000 1.0000 0.0000
vn 0.0000 1.0000 0.0000
vn 0.0000 1.0000 0.0000
vn 0.0000 1.0000 0.0000
vn 0.0000 1.0000 0.0000
vn 0.0000 1.0000 0.0000
vn 0.0000 1.0000 0.0000
vn 0.0000 1.0000 0.0000
vn 0.0000 1.0000 0.0000
vn 0.0000 1.0000 0.0000
vn 0.0000 1.0000 0.0000
vn 0.0000 1.0000 0.0000
vn 0.0000 1.0000 0.0000
vn 0.0000 1.0000 0.0000
vn 0.0000 1.0000 0.0000
vn 0.0000 1.0000 0.0000
vn 0.0000 1.0000 0.0000
vn 0.0000 1.0000 0.0000
vn 0.0000 1.0000 0.0000
vn 0.0000 1.0000 0.0000
vn 0.0000 1.0000 0.0000
vn 0.0000 1.0000 0.0000
vn 0.0000 1.0000 0.0000
vn 0.0000 1.0000 0.0000
vn 0.0000 1.0000 0.0000
vn 0.0000 1.0000 0.0000
vn 0.0000 1.0000 0.0000
vn 0.0000 1.0000 0.0000
vn 0.0000 1.0000 0.0000
vn 0.0000 1.0000 0.0000
vn 0.0000 1.0000 0.0000
vn 0.0000 1.0000 0.0000
vn 0.0000 1.0000 0.0000
vn 0.0000 1.0000 0.0000
vn 0.0000 1.0000 0.0000
vn 0.0000 1.0000 0.0000
vn 0.0000 1.0000 0.0000
vn 0.0000 1.0000 0.0000
vn 0.0000 1.0000 0.0000
vn 0.0000 1.0000 0.0000
vn 0.0000 1.0000 0.0000
vn 0.0000 1.0000 0.0000
vn 0.0000 1.0000 0.0000
vn 0.0000 1.0000 0.0000
vn 0.0000 1.0000 0.0000
vn 0.0000 1.0000 0.0000
vn 0.0000 1.0000 0.0000
vn 0.0000 1.0000 0.0000
vn 0.0000 1.0000 0.0000
vn 0.0000 1.0000 0.0000
vn 0.0000 1.0000 0.0000
vn 0.0000 1.0000 0.0000
vn 0.0000 1.0000 0.0000
vn 0.0000 1.0000 0.0000
vn 0.0000 1.0000 0.0000
vn 0.0000 1.0000 0.0000
vn 0.0000 1.0000 0.0000
vn 0.0000 1.0000 0.0000
vn 0.0000 1.0000 0.0000
vn 0.0000 1.0000 0.0000
vn 0.0000 1.0000 0.0000
vn 0.0000 1.0000 0.0000
vn 0.0000 1.0000 0.0000
vn 0.0000 1.0000 0.0000
vn 0.0000 1.0000 0.0000
vn 0.0000 1.0000 0.0000
vn 0.0000 1.0000 0.0000
vn 0.0000 1.0000 0.0000
vn 0.0000 1.0000 0.0000
vn 0.0000 1.0000 0.0000
vn 0.0000 1.0000 0.0000
vn 0.0000 1.0000 0.0000
vn 0.0000 1.0000 0.0000
vn 0.0000 1.0000 0.0000
vn 0.0000 1.0000 0.0000
vn 0.0000 1.0000 0.0000
vn 0.0000 1.0000 0.0000
vn 0.0000 1.0000 0.0000
vn 0.0000 1.0000 0.0000
vn 0.0000 1.0000 0.0000
vn 0.0000 1.0000 0.0000
vn 0.0000 1.0000 0.0000
vn 0.0000 1.0000 0.0000
vn 0.0000 1.0000 0.0000
vn 0.0000 1.0000 0.0000
vn 0.0000 1.0000 0.0000
vn 0.0000 1.0000 0.0000
vn 0.0000 1.0000 0.0000
vn 0.0000 1.0000 0.0000
vn 0.0000 1.0000 0.0000
vn 0.0000 1.0000 0.0000
vn 0.0000 1.0000 0.0000
vn 0.0000 1.0000 0.0000
vn 0.0000 1.0000 0.0000
vn 0.0000 1.0000 0.0000
vn 0.0000 1.0000 0.0000
vn 0.0000 1.0000 0.0000
vn 0.0000 1.0000 0.0000
vn 0.0000 1.0000 0.0000
vn 0.0000 1.0000 0.0000
vn 0.0000 1.0000 0.0000
vn 0.0000 1.0000 0.0000
vn 0.0000 1.0000 0.0000
vn 0.0000 1.0000 0.0000
vn 0.0000 1.0000 0.0000
vn 0.0000 1.0000 0.0000
vn 0.0000 1.0000 0.0000
vn 0.0000 1.0000 0.0000
vn 0.0000 1.0000 0.0000
vn 0.0000 1.0000 0.0000
vn 0.0000 1.0000 0.0000
vn 0.0000 1.0000 0.0000
vn 0.0000 1.0000 0.0000
vn 0.0000 1.0000 0.0000
vn 0.0000 1.0000 0.0000
vn 0.0000 1.0000 0.0000
vn 0.0000 1.0000 0.0000
vn 0.0000 1.0000 0.0000
vn 0.0000 1.0000 0.0000
vn 0.0000 1.0000 0.0000
vn 0.0000 1.0000 0.0000
vn 0.0000 1.0000 0.0000
vn 0.0000 1.0000 0.0000
vn 0.0000 1.0000 0.0000
vn 0.0000 1.0000 0.0000
vn 0.0000 1.0000 0.0000
vn 0.0000 1.0000 0.0000
vn 0.0000 1.0000 0.0000
vn 0.0000 1.0000 0.0000
vn 0.0000 1.0000 0.0000
vn 0.0000 1.0000 0.0000
vn 0.0000 1.0000 0.0000
vn 0.0000 1.0000 0.0000
vn 0.0000 1.0000 0.0000
vn 0.0000 1.0000 0.0000
vn 0.0000 1.0000 0.0000
vn 0.0000 1.0000 0.0000
vn 0.0000 1.0000 0.0000
vn 0.0000 1.0000 0.0000
vn 0.0000 1.0000 0.0000
vn 0.0000 1.0000 0.0000
vn 0.0000 1.0000 0.0000
vn 0.0000 1.0000 0.0000
vn 0.0000 1.0000 0.0000
vn 0.0000 1.0000 0.0000
vn 0.0000 1.0000 0.0000
vn 0.0000 1.0000 0.0000
vn 0.0000 1.0000 0.0000
vn 0.0000 1.0000 0.0000
vn 0.0000 1.0000 0.0000
vn 0.0000 1.0000 0.0000
vn 0.0000 1.0000 0.0000
vn 0.0000 1.0000 0.0000
vn 0.0000 1.0000 0.0000
vn 0.0000 1.0000 0.0000
vn 0.0000 1.0000 0.0000
vn 0.0000 1.0000 0.0000
vn 0.0000 1.0000 0.0000
vn 0.0000 1.0000 0.0000
vn 0.0000 1.0000 0.0000
vn 0.0000 1.0000 0.0000
vn 0.0000 1.0000 0.0000
vn 0.0000 1.0000 0.0000
vn 0.0000 1.0000 0.0000
vn 0.0000 1.0000 0.0000
vn 0.0000 1.0000 0.0000
vn 0.0000 1.0000 0.0000
vn 0.0000 1.0000 0.0000
vn 0.0000 1.0000 0.0000
vn 0.0000 1.0000 0.0000
vn 0.0000 1.0000 0.0000
vn 0.0000 1.0000 0.0000
vn 0.0000 1.0000 0.0000
vn 0.0000 1.0000 0.0000
vn 0.0000 1.0000 0.0000
vn 0.0000 1.0000 0.0000
vn 0.0000 1.0000 0.0000
vn 0.0000 1.0000 0.0000
vn 0.0000 1.0000 0.0000
vn 0.0000 1.0000 0.0000
vn 0.0000 1.0000 0.0000
vn 0.0000 1.0000 0.0000
vn 0.0000 1.0000 0.0000
vn 0.0000 1.0000 0.0000
vn 0.0000 1.0000 0.0000
vn 0.0000 1.0000 0.0000
vn 0.0000 1.0000 0.0000
vn 0.0000 1.0000 0.0000
vn 0.0000 1.0000 0.0000
vn 0.0000 1.0000 0.0000
vn 0.0000 1.0000 0.0000
vn 0.0000 1.0000 0.0000
vn 0.0000 1.0000 0.0000
vn 0.0000 1.0000 0.0000
vn 0.0000 1.0000 0.0000
vn 0.0000 1.0000 0.0000
vn 0.0000 1.0000 0.0000
vn 0.0000 1.0000 0.0000
vn 0.0000 1.0000 0.0000
vn 0.0000 1.0000 0.0000
vn 0.0000 1.0000 0.0000
vn 0.0000 1.0000 0.0000
vn 0.0000 1.0000 0.0000
vn 0.0000 1.0000 0.0000
vn 0.0000 1.0000 0.0000
vn 0.0000 1.0000 0.0000
vn 0.0000 1.0000 0.0000
vn 0.0000 1.0000 0.0000
vn 0.0000 1.0000 0.0000
vn 0.0000 1.0000 0.0000
vn 0.0000 1.0000 0.0000
vn 0.0000 1.0000 0.0000
vn 0.0000 1.0000 0.0000
vn 0.0000 1.0000 0.0000
vn 0.0000 1.0000 0.0000
vn 0.0000 1.0000 0.0000
vn 0.0000 1.0000 0.0000
vn 0.0000 1.0000 0.0000
vn 0.0000 1.0000 0.0000
vn 0.0000 1.0000 0.0000
vn 0.0000 1.0000 0.0000
vn 0.0000 1.0000 0.0000
vn 0.0000 1.0000 0.0000
f 1 2 3
f 4 5 6
f 7 8 9
f 10 11 12
f 13 14 15
f 16 17 18
f 19 20 21
f 22 23 24
f 25 26 27
f 28 29 30
f 31 32 33
f 34 35 36
f 37 38 39
f 40 41 42
f 43 44 45
f 46 47 48
f 49 50 51
f 52 53 54
f 55 56 57
f 58 59 60
f 61 62 63
f 64 65 66
f 67 68 69
f 70 71 72
f 73 74 75
f 76 77 78
f 79 80 81
f 82 83 84
f 85 86 87
f 88 89 90
f 91 92 93
f 94 95 96
f 97 98 99
f 100 101 102
f 103 104 105
f 106 107 108
f 109 110 111
f 112 113 114
f 115 116 117
f 118 119 120
f 121 122 123
f 124 125 126
f 127 128 129
f 130 131 132
f 133 134 135
f 136 137 138
f 139 140 141
f 142 143 144
f 145 146 147
f 148 149 150
f 151 152 153
f 154 155 156
f 157 158 159
f 160 161 162
f 163 164 165
f 166 167 168
f 169 170 171
f 172 173 174
f 175 176 177
f 178 179 180
f 181 182 183
f 184 185 186
f 187 188 189
f 190 191 192
f 193 194 195
f 196 197 198
f 199 200 201
f 202 203 204
f 205 206 207
f 208 209 210
f 211 212 213
f 214 215 216
f 217 218 219
f 220 221 222
f 223 224 225
f 226 227 228
f 229 230 231
f 232 233 234
f 235 236 237
f 238 239 240
f 241 242 243
f 244 245 246
f 247 248 249
f 250 251 252
f 253 254 255
f 256 257 258
f 259 260 261
f 262 263 264
f 265 266 267
f 268 269 270
f 271 272 273
f 274 275 276
f 277 278 279
f 280 281 282
f 283 284 285
f 286 287 288
f 289 290 291
f 292 293 294
f 295 296 297
f 298 299 300
f 301 302 303
f 304 305 306
f 307 308 309
f 310 311 312
f 313 314 315
f 316 317 318
f 319 320 321
f 322 323 324
f 325 326 327
f 328 329 330
f 331 332 333
f 334 335 336
f 337 338 339
f 340 341 342
f 343 344 345
f 346 347 348
f 349 350 351
f 352 353 354
f 355 356 357
f 358 359 360
f 361 362 363
f 364 365 366
f 367 368 369
f 370 371 372
f 373 374 375
f 376 377 378
f 379 380 381
f 382 383 384
f 385 386 387
f 388 389 390
f 391 392 393
f 394 395 396
f 397 398 399
f 400 401 402
f 403 404 405
f 406 407 408
f 409 410 411
f 412 413 414
f 415 416 417
f 418 419 420
f 421 422 423
f 424 425 426
f 427 428 429
f 430 431 432
f 433 434 435
f 436 437 438
f 439 440 441
f 442 443 444
f 445 446 447
f 448 449 450
f 451 452 453
f 454 455 456
f 457 458 459
f 460 461 462
f 463 464 465
f 466 467 468
f 469 470 471
f 472 473 474
f 475 476 477
f 478 479 480
f 481 482 483
f 484 485 486
f 487 488 489
f 490 491 492
f 493 494 495
f 496 497 498
f 499 500 501
f 502 503 504
f 505 506 507
f 508 509 510
f 511 512 513
f 514 515 516
f 517 518 519
f 520 521 522
f 523 524 525
f 526 527 528
f 529 530 531
f 532 533 534
f 535 536 537
f 538 539 540
f 541 542 543
f 544 545 546
f 547 548 549
f 550 551 552
f 553 554 555
f 556 557 558
f 559 560 561
f 562 563 564
f 565 566 567
f 568 569 570
f 571 572 573
f 574 575 576
f 577 578 579
f 580 581 582
f 583 584 585
f 586 587 588
f 589 590 591
f 592 593 594
f 595 596 597
f 598 599 600
f 601 602 603
f 604 605 606
f 607 608 609
f 610 611 612
f 613 614 615
f 616 617 618
f 619 620 621
f 622 623 624
f 625 626 627
f 628 629 630
f 631 632 633
f 634 635 636
f 637 638 639
f 640 641 642
f 643 644 645
f 646 647 648
f 649 650 651
f 652 653 654
f 655 656 657
f 658 659 660
f 661 662 663
f 664 665 666
f 667 668 669
f 670 671 672
f 673 674 675
f 676 677 678
f 679 680 681
f 682 683 684
f 685 686 687
f 688 689 690
f 691 692 693
f 694 695 696
f 697 698 699
f 700 701 702
f 703 704 705
f 706 707 708
f 709 710 711
f 712 713 714
f 715 716 717
f 718 719 720
f 721 722 723
f 724 725 726
f 727 728 729
f 730 731 732
f 733 734 735
f 736 737 738
f 739 740 741
f 742 743 744
f 745 746 747
f 748 749 750
f 751 752 753
f 754 755 756
f 757 758 759
f 760 761 762
f 763 764 765
f 766 767 768
f 769 770 771
f 772 773 774
f 775 776 777
f 778 779 780
f 781 782 783
f 784 785 786
f 787 788 789
f 790 791 792
f 793 794 795
f 796 797 798
f 799 800 801
f 802 803 804
f 805 806 807
f 808 809 810
f 811 812 813
f 814 815 816
f 817 818 819
f 820 821 822
f 823 824 825
f 826 827 828
f 829 830 831
f 832 833 834
f 835 836 837
f 838 839 840
f 841 842 843
f 844 845 846
f 847 848 849
f 850 851 852
f 853 854 855
f 856 857 858
f 859 860 861
f 862 863 864
f 865 866 867
f 868 869 870
f 871 872 873
f 874 875 876
f 877 878 879
f 880 881 882
f 883 884 885
f 886 887 888
f 889 890 891
f 892 893 894
f 895 896 897
f 898 899 900
f 901 902 903
f 904 905 906
f 907 908 909
f 910 911 912
f 913 914 915
f 916 917 918
f 919 920 921
f 922 923 924
f 925 926 927
f 928 929 930
f 931 932 933
f 934 935 936
f 937 938 939
f 940 941 942
f 943 944 945
f 946 947 948
f 949 950 951
f 952 953 954
f 955 956 957
f 958 959 960
f 961 962 963
f 964 965 966
f 967 968 969
f 970 971 972
f 973 974 975
f 976 977 978
f 979 980 981
f 982 983 984
f 985 986 987
f 988 989 990
f 991 992 993
f 994 995 996
f 997 998 999
f 1000 1001 1002
f 1003 1004 1005
f 1006 1007 1008
f 1009 1010 1011
f 1012 1013 1014
f 1015 1016 1017
f 1018 1019 1020
f 1021 1022 1023
f 1024 1025 1026
f 1027 1028 1029
f 1030 1031 1032
f 1033 1034 1035
f 1036 1037 1038
f 1039 1040 1041
f 1042 1043 1044
f 1045 1046 1047
f 1048 1049 1050
f 1051 1052 1053
f 1054 1055 1056
f 1057 1058 1059
f 1060 1061 1062
f 1063 1064 1065
f 1066 1067 1068
f 1069 1070 1071
f 1072 1073 1074
f 1075 1076 1077
f 1078 1079 1080
f 1081 1082 1083
f 1084 1085 1086
f 1087 1088 1089
f 1090 1091 1092
f 1093 1094 1095
f 1096 1097 1098
f 1099 1100 1101
f 1102 1103 1104
f 1105 1106 1107
f 1108 1109 1110
f 1111 1112 1113
f 1114 1115 1116
f 1117 1118 1119
f 1120 1121 1122
f 1123 1124 1125
f 1126 1127 1128
f 1129 1130 1131
f 1132 1133 1134
f 1135 1136 1137
