# PSO Extracted Authentic Geometry
v 0.0000 0.2000 0.0000
v 0.2000 0.0000 0.0000
v 0.0000 0.0000 0.2000
v 0.0000 0.2000 0.0000
v 0.2000 0.0000 0.0000
v 0.2000 0.0000 0.0000
v 0.0000 0.0000 0.2000
v 0.0000 0.2000 0.0000
v 0.2000 0.0000 0.0000
v 0.0000 0.0000 0.2000
v 0.0000 0.2000 0.0000
v 0.2000 0.0000 0.0000
v 0.0000 0.0000 0.2000
v 0.0000 0.2000 0.0000
v 0.0000 0.0000 0.2000
v 0.0000 0.2000 0.0000
v 0.2000 0.0000 0.0000
v 0.0000 0.0000 0.2000
v 0.0000 0.2000 0.0000
v 0.2000 0.0000 0.0000
v 0.0000 0.0000 0.2000
v 0.0000 0.2000 0.0000
v 0.0000 0.0000 0.2000
v 0.0000 0.2000 0.0000
v 0.2000 0.0000 0.0000
v 0.0000 0.0000 0.2000
v 0.0000 0.2000 0.0000
v 0.2000 0.0000 0.0000
v 0.0000 0.0000 0.2000
v 0.0000 0.2000 0.0000
v 0.2000 0.0000 0.0000
v 0.0000 0.0000 0.2000
v 0.0000 0.2000 0.0000
v 0.0000 0.0000 228.0000
v 0.0000 291.0000 0.0000
v 0.0000 0.0000 233.0363
v 524.6406 0.0000 0.0000
v 0.0000 -165.0000 0.0000
v 202.0000 0.0000 0.0000
v 0.0000 426.5731 0.0000
v 0.0000 0.0000 212.5000
v 0.0000 -187.5000 0.0000
v 0.0000 0.0000 245.6975
v 0.0000 0.0000 -2000.0000
v 374.4592 0.0000 0.0000
v 0.0000 800.0000 0.0000
v 0.6980 0.3961 0.0000
v -17.0780 26.0000 92.1687
v 11.2216 0.0000 0.0000
v 1.0000 1.0000 1.0000
v 0.0000 -92.1638 26.0000
v 17.1897 11.2215 0.0000
v 0.0000 1.0000 1.0000
v 1.0000 0.0000 0.0000
v 0.0000 0.0000 -68.0000
v 33.5000 68.0000 16.0078
v 0.0000 0.0000 1.0000
v 1.0000 1.0000 0.0000
v 0.0000 0.0000 14.5825
v 37.5000 12.8143 117.3758
v 0.0000 0.0000 1.0000
v 1.0000 1.0000 0.0000
v -0.2081 26.7914 -0.3096
v 90.3094 0.0000 0.0000
v 1.0000 1.0000 1.0000
v 0.0000 15.9195 37.5000
v 15.9199 161.5806 0.0000
v 0.0000 1.0000 1.0000
v 1.0000 0.0000 0.0000
v 0.0000 -60.9448 23.0000
v 61.4448 57.2681 0.0000
v 0.0000 1.0000 1.0000
v 1.0000 0.0000 0.0000
v -10.6627 0.0000 0.0000
v 3.0285 35.9750 -12.6708
v 148.5943 0.0000 0.0000
v 1.0000 1.0000 1.0000
v 0.0000 -68.9213 8.5000
v 68.5764 34.9405 0.0000
v 0.0000 1.0000 1.0000
v 1.0000 0.0000 0.0000
v -1.0000 -0.5000 1.1180
v 0.0000 0.0000 1.0000
v 1.0000 1.0000 0.0000
v 0.0000 80.6806 23.0000
v -80.6804 50.2486 0.0000
v 0.0000 1.0000 1.0000
v 1.0000 0.0000 0.0000
v 0.0000 0.0000 5.0000
v 0.0000 0.0000 176.3165
v 0.0000 0.0000 62.5000
v -45.0000 -322.5000 0.0000
v 0.0000 0.0000 1.0000
v 1.0000 1.0000 0.0000
v 2.2627 0.0000 0.0000
v 231.3553 -37.5000 133.3884
v 276.3376 0.0000 0.0000
v -288.8553 100.0000 186.6116
v 1.0000 1.0000 1.0000
v 0.0000 -5.0000 -35.0000
v 0.0000 154.5154 0.0000
v 0.0000 350.0000 50.0000
v 25.0000 0.0000 0.0000
v 0.0000 1.0000 1.0000
v 1.0000 0.0000 0.0000
v 4.0157 -4.4275 0.0000
v 0.0000 0.0000 -6.5000
v 0.0000 65.4272 0.0000
v 0.0000 360.0000 119.2977
v 25.0037 0.0000 0.0000
v 0.0000 1.0000 1.0000
v 1.0000 0.0000 0.0000
v 0.0000 55.0000 30.3135
v 218.1200 0.0000 0.0000
v -229.9999 -50.0000 -100.0000
v 1.0000 1.0000 1.0000
v 4.0157 -1.9765 0.0000
v 73.5664 0.0000 0.0000
v 360.0000 59.9000 25.0000
v 1.0000 1.0000 1.0000
v -10.0000 -19.4856 51.2805
v 36.0000 -60.0000 0.0000
v 0.0000 0.0000 1.0000
v 1.0000 1.0000 0.0000
v 362.9474 -20.0000 25.0000
v 92.0564 0.0000 0.0000
v 1.0000 1.0000 1.0000
v 0.0000 0.0000 -169.9999
v 5.5000 -154.8746 151.6740
v 0.0000 0.0000 -59.9999
v -5.5000 6.0635 0.0000
v 0.0000 0.0000 1.0000
v 1.0000 1.0000 0.0000
v 0.0000 0.0000 -69.7955
v 0.5000 -6.0635 250.6111
v 0.0000 0.0000 -59.9999
v -0.5000 6.0635 0.0000
v 0.0000 0.0000 1.0000
v 1.0000 1.0000 0.0000
v -13.7098 0.0000 0.0000
v 247.3930 0.0000 0.0000
v -127.7805 -2.3505 0.0000
v 1.0000 1.0000 1.0000
v 1.0000 0.0000 0.0000
v 0.0000 48.2999 0.0000
v 0.0000 0.0000 13.0000
v -51.0000 0.0000 0.0000
v 0.0000 1.0000 1.0000
v 1.0000 0.0000 0.0000
v -19.0745 0.0000 0.0000
v -5.0000 0.0000 0.0000
v 329.3934 0.0000 0.0000
v -195.0000 100.0000 -330.0000
v 1.0000 1.0000 1.0000
v 0.0000 16.0000 0.0000
v 90.3659 0.0000 0.0000
v -300.0000 30.0000 -10.0000
v 1.0000 1.0000 1.0000
v 0.0000 0.0000 0.5000
v -40.0000 0.5000 144.9871
v 0.0000 0.0000 77.5000
v 245.0000 275.0000 0.0000
v 0.0000 0.0000 1.0000
v 1.0000 1.0000 0.0000
v 0.0000 1.0000 0.0000
v 0.0000 -70.0000 0.0000
v 163.7262 0.0000 0.0000
v 77.5000 275.0000 275.0000
v 1.0000 1.0000 1.0000
v 0.0000 0.9882 0.0000
v 0.0000 0.0000 10.3553
v 25.0000 -117.5000 457.0412
v 0.0000 0.0000 -288.8553
v 100.0000 136.6116 0.0000
v 0.0000 0.0000 1.0000
v 1.0000 1.0000 0.0000
v 0.0000 10.0000 0.0000
v 509.5341 0.0000 0.0000
v 245.0000 50.0000 0.0000
v 1.0000 1.0000 1.0000
v -4.4549 0.0000 0.0000
v -5.5000 0.0000 185.1306
v 0.0000 0.0000 -82.5000
v 135.0000 189.3301 0.0000
v 0.0000 0.0000 1.0000
v 1.0000 1.0000 0.0000
v -8.3020 0.0000 0.0000
v 0.0000 -20.0000 0.0000
v 210.8677 0.0000 0.0000
v -238.1066 200.0000 -27.0096
v 1.0000 1.0000 1.0000
v 15.0588 -1.0039 0.0000
v -27.5000 0.0000 0.0000
v 127.8916 0.0000 0.0000
v 127.5000 168.5000 -310.0000
v 1.0000 1.0000 1.0000
v 1.0000 0.0000 0.0000
v 0.0000 0.0000 107.9105
v 0.0000 0.0000 230.0000
v 180.0000 -192.5000 0.0000
v 0.0000 0.0000 1.0000
v 1.0000 1.0000 0.0000
v 0.0000 0.7655 -5.0000
v -0.9655 129.2689 0.0000
v 0.0000 -398.5571 3.7500
v -107.7565 0.0000 0.0000
v 0.0000 1.0000 1.0000
v 1.0000 0.0000 0.0000
v 1.0000 0.0000 0.0000
v 0.0000 -3.1612 0.0000
v -0.0830 99.0010 0.0000
v 0.0000 -88.0000 -97.5000
v -136.0000 0.0000 0.0000
v 0.0000 1.0000 1.0000
v 1.0000 0.0000 0.0000
v 0.4314 -6.0235 0.0000
v 162.1465 0.0000 0.0000
v 75.0000 -17.5000 104.5000
v 1.0000 1.0000 1.0000
v 0.4627 0.9843 0.0000
v 0.0000 0.0000 17.0000
v -1.5000 22.9837 0.0000
v 0.0000 78.0001 47.0000
v 103.9999 0.0000 0.0000
v 0.0000 1.0000 1.0000
v 1.0000 0.0000 0.0000
v -3.0118 0.0000 0.0000
v -7.0000 2.0000 28.0223
v 0.0000 0.0000 -72.0000
v 25.0000 -56.5000 0.0000
v 0.0000 0.0000 1.0000
v 1.0000 1.0000 0.0000
v 0.3451 1.0000 0.0000
v 0.0000 0.0000 27.7074
v 0.0000 0.0000 -340.3045
v 15.0000 -76.3045 0.0000
v 0.0000 0.0000 1.0000
v 1.0000 1.0000 0.0000
v 3.0118 -2.0078 0.0000
v 0.0000 3.2500 3.0000
v 25.6527 0.0000 0.0000
v -308.5000 10.5000 -0.5000
v 1.0000 1.0000 1.0000
v 0.0000 0.0000 17.6421
v -116.6738 -0.3211 149.0396
v 0.0000 0.0000 360.0000
v 119.2977 27.0037 0.0000
v 0.0000 0.0000 1.0000
v 1.0000 1.0000 0.0000
v 0.0000 2.7500 30.4178
v -0.0000 27.3070 0.0000
v 0.0000 1.0000 1.0000
v 1.0000 0.0000 0.0000
v 1.0431 0.9765 0.0000
v 2.7500 29.8421 -0.0000
v 27.8678 0.0000 0.0000
v 1.0000 1.0000 1.0000
v 1.0000 0.0000 0.0000
v 0.0000 2.7500 30.4178
v -0.0000 27.3070 0.0000
v 0.0000 -123.5000 -7.0000
v -189.5000 0.0000 0.0000
v 0.0000 1.0000 1.0000
v 1.0000 0.0000 0.0000
v 1.0431 1.0000 0.0000
v 2.7500 30.4178 -0.0000
v 27.3070 0.0000 0.0000
v -90.5000 -7.0000 -100.5000
v 1.0000 1.0000 1.0000
v -2.2078 0.0000 0.0000
v 0.0000 0.0000 -53.1601
v 0.0000 134.6291 0.0000
v 0.0000 350.0000 128.1601
v 25.0000 0.0000 0.0000
v 0.0000 1.0000 1.0000
v 1.0000 0.0000 0.0000
v 0.0000 0.0000 -27.5000
v 70.0000 167.5000 220.9921
v 0.0000 0.0000 220.0000
v 135.0000 -220.0000 0.0000
v 0.0000 0.0000 1.0000
v 1.0000 1.0000 0.0000
v 0.0000 57.8446 -50.0000
v 106.0635 276.1422 0.0000
v 0.0000 -229.9999 -50.0000
v -100.0000 0.0000 0.0000
v 0.0000 1.0000 1.0000
v 1.0000 0.0000 0.0000
v 11.0000 -11.6506 62.7036
v -25.0000 -60.0000 0.0000
v 0.0000 0.0000 1.0000
v 1.0000 1.0000 0.0000
v 0.0000 14.6962 40.0000
v 14.6962 136.3909 0.0000
v 0.0000 -170.0000 150.0000
v -330.0000 0.0000 0.0000
v 0.0000 1.0000 1.0000
v 1.0000 0.0000 0.0000
v 1.0000 0.0000 0.0000
v 157.5001 100.0000 50.0000
v 301.2992 0.0000 0.0000
v 1.0000 1.0000 1.0000
v 0.0000 -25.0000 60.0000
v -42.5000 113.0542 0.0000
v 0.0000 150.0000 150.2116
v 190.0000 0.0000 0.0000
v 0.0000 1.0000 1.0000
v 1.0000 0.0000 0.0000
v 0.0000 -1.0039 0.0000
v 0.0000 113.7500 50.0000
v -55.0000 202.7044 0.0000
v 0.0000 1.0000 1.0000
v 1.0000 0.0000 0.0000
v 1.0039 0.0000 0.0000
v 0.0000 0.0000 3.0000
v 0.0000 21.2368 0.0000
v 0.0000 -88.0000 0.0000
v -136.0000 0.0000 0.0000
v 0.0000 1.0000 1.0000
v 1.0000 0.0000 0.0000
v 0.0000 -250.0000 -182.5000
v 250.0000 -182.5000 38.0000
v 0.0000 0.0000 -182.5000
v 288.0000 353.5534 0.0000
v 0.0000 1.0000 1.0000
v 1.0000 0.0000 0.0000
v 1.0000 0.0000 0.0000
v 0.0000 -25.0000 -25.0000
v 0.0000 141.9507 0.0000
v 0.0000 375.0000 0.0000
v 25.0000 0.0000 0.0000
v 0.0000 1.0000 1.0000
v 1.0000 0.0000 0.0000
v 0.0000 0.0000 32.5000
v 100.0000 7.5000 358.6258
v 0.0000 0.0000 -225.0000
v 0.0000 -385.0000 0.0000
v 0.0000 0.0000 1.0000
v 1.0000 1.0000 0.0000
v 1.0000 0.0000 0.0000
v 0.0000 0.0000 147.4999
v 100.0000 -1.3909 310.3898
v 0.0000 0.0000 -495.0000
v 1.0000 1.0000 0.0000
v 0.0000 1.0000 0.0000
v 0.0000 -37.5000 50.0000
v 37.5000 53.0330 0.0000
v 0.0000 300.0000 0.0000
v -100.0000 0.0000 0.0000
v 0.0000 1.0000 1.0000
v 1.0000 0.0000 0.0000
v 0.0000 4.2827 -5.3741
v 48.8898 0.0000 0.0000
v 0.0000 22.0000 -54.5000
v 1.0000 1.0000 1.0000
v 0.0000 0.0000 360.0000
v 287.0000 25.0000 214.4621
v 0.0000 0.0000 1.0000
v 1.0000 1.0000 0.0000
v 0.0000 0.0000 -53.4537
v 80.2500 59.0847 405.0001
v 0.0000 0.0000 1.0000
v 1.0000 1.0000 0.0000
v 0.9961 1.0000 0.0000
v 0.0000 -230.1138 7.0000
v -177.9146 143.7247 0.0000
v 0.0000 1.0000 1.0000
v 1.0000 0.0000 0.0000
v 0.7529 1.0000 0.0000
v 25.0000 43.5000 19.0000
v 33.0341 0.0000 0.0000
v 335.0000 0.0000 6.0000
v 1.0000 1.0000 1.0000
v 1.0039 0.0000 0.0000
v 0.0000 0.0000 17.0000
v -1.5000 22.9837 0.0000
v 0.0000 1.0000 1.0000
v 1.0000 0.0000 0.0000
v 0.0000 17.0000 -1.5000
v 22.9837 0.0000 0.0000
v 1.0000 1.0000 1.0000
v 0.0000 0.0000 12.7279
v 0.0000 0.0000 313.0001
v 47.5000 108.4999 0.0000
v 0.0000 0.0000 1.0000
v 1.0000 1.0000 0.0000
v 1.0039 0.0000 0.0000
v 0.0000 12.7279 0.0000
v 0.0000 313.0001 28.5000
v 108.4999 0.0000 0.0000
v 0.0000 1.0000 1.0000
v 1.0000 0.0000 0.0000
v 0.0235 0.0000 0.0000
v 20.5730 0.0000 0.0000
v 332.0001 38.0000 108.4999
v 1.0000 1.0000 1.0000
v 1.0039 0.0000 0.0000
v 0.0000 12.7279 0.0000
v 0.0000 294.0001 28.5000
v 108.4999 0.0000 0.0000
v 0.0000 1.0000 1.0000
v 1.0000 0.0000 0.0000
v 12.7279 0.0000 0.0000
v 294.0001 47.5000 108.4999
v 1.0000 1.0000 1.0000
v -259.9762 45.0000 -37.4067
v 32.1511 0.0000 0.0000
v 1.0000 1.0000 1.0000
v -7.0275 0.0000 0.0000
v 0.0000 0.0000 62.5000
v 102.0000 109.6870 0.0000
v 0.0000 1.0000 1.0000
v 1.0000 0.0000 0.0000
v 1.0000 0.0000 0.0000
v 18.7000 98.0000 -29.7500
v 124.3493 0.0000 0.0000
v 1.0000 1.0000 1.0000
v -2.5000 50.0000 36.0000
v 107.1798 0.0000 0.0000
v 1.0000 1.0000 1.0000
v 5.0196 0.4784 0.0000
v 0.0000 0.0000 50.0000
v 54.5000 57.3708 0.0000
v 0.0000 1.0000 1.0000
v 1.0000 0.0000 0.0000
v 1.0000 0.0000 0.0000
v 0.0000 18.4059 50.0000
v -28.9529 136.4279 0.0000
v 0.0000 1.0000 1.0000
v 1.0000 0.0000 0.0000
v 2.0078 0.0000 0.0000
v 0.0500 50.0000 65.5000
v 86.4017 0.0000 0.0000
v 1.0000 1.0000 1.0000
v 14.3750 50.0000 -17.4569
v 105.0644 0.0000 0.0000
v 1.0000 1.0000 1.0000
v 0.4980 0.0000 0.0000
v 0.0000 0.0000 14.3750
v 26.0000 -15.1500 93.6165
v 0.0000 0.0000 1.0000
v 1.0000 1.0000 0.0000
v 5.0000 119.7500 55.2409
v 0.0000 0.0000 1.0000
v 1.0000 1.0000 0.0000
v -3.0118 0.0000 0.0000
v 0.0000 58.0315 50.0000
v -58.0750 81.8849 0.0000
v 0.0000 1.0000 1.0000
v 1.0000 0.0000 0.0000
v 1.0000 0.0000 0.0000
v 0.0000 0.0000 58.5378
v 50.0000 -58.0595 82.2197
v 0.0000 0.0000 1.0000
v 1.0000 1.0000 0.0000
v -66.5000 50.0000 43.5000
v 51.4247 0.0000 0.0000
v 1.0000 1.0000 1.0000
v -0.0000 50.0000 82.0000
v 95.0000 0.0000 0.0000
v 1.0000 1.0000 1.0000
v 1.0000 0.0000 0.0000
v -0.0000 31.0000 118.5000
v 67.8473 0.0000 0.0000
v 1.0000 1.0000 1.0000
v 0.5529 0.0000 0.0000
v 0.0000 0.0000 29.3750
v 7.7500 -47.1507 63.4270
v 0.0000 0.0000 1.0000
v 1.0000 1.0000 0.0000
v 0.0000 0.7412 0.0000
v 0.0000 32.6286 36.2500
v -56.8266 53.9611 0.0000
v 0.0000 1.0000 1.0000
v 1.0000 0.0000 0.0000
v 1.0000 0.0000 0.0000
v -54.4192 51.2500 -68.8260
v 51.3580 0.0000 0.0000
v 1.0000 1.0000 1.0000
v 0.0000 0.0000 -0.5500
v 28.7500 -11.8250 98.8094
v 0.0000 0.0000 1.0000
v 1.0000 1.0000 0.0000
v 0.0000 1.0000 0.0000
v 0.0000 0.0000 -31.9402
v 62.5217 38.3892 117.3923
v 0.0000 0.0000 1.0000
v 1.0000 1.0000 0.0000
v 0.0000 0.0000 -40.0753
v 50.0000 37.4999 173.9118
v 0.0000 0.0000 1.0000
v 1.0000 1.0000 0.0000
v 0.0000 0.0000 49.5000
v -23.0000 181.9904 0.0000
v 0.0000 1.0000 1.0000
v 1.0000 0.0000 0.0000
v -0.9059 0.0000 0.0000
v 0.0000 -0.0000 50.1667
v -60.4500 187.7868 0.0000
v 0.0000 1.0000 1.0000
v 1.0000 0.0000 0.0000
v 0.9216 0.0000 0.0000
v 0.0000 0.0000 23.9167
v -79.7250 81.4486 0.0000
v 0.0000 1.0000 1.0000
v 1.0000 0.0000 0.0000
v 0.0000 -5.0000 0.0000
v 7.0711 0.0000 0.0000
v 1.0000 1.0000 1.0000
v 0.9569 0.9922 0.0000
v 118.0369 -0.0000 772.8953
v 0.0000 0.0000 1.0000
v 1.0000 1.0000 0.0000
v 0.0044 23.7500 109.4860
v 237.4262 0.0000 0.0000
v 1.0000 1.0000 1.0000
v 0.0000 0.0000 -49.5000
v -0.0000 297.2542 0.0000
v 0.0000 13.0000 34.0000
v -544.6447 0.0000 0.0000
v 0.0000 1.0000 1.0000
v 1.0000 0.0000 0.0000
v 1.0039 0.4980 0.0000
v 0.0000 176.4983 49.9500
v 156.5000 105.3553 0.0000
v 0.0000 1.0000 1.0000
v 1.0000 0.0000 0.0000
v 0.0000 3.3333 0.0000
v -3.5346 -1.6667 0.0000
v 0.0000 0.0000 0.8333
v 0.0000 4.3518 0.0000
v 0.0000 0.0000 23.5000
v 0.0000 1.0000 1.0000
v 1.0000 0.0000 0.0000
v -0.0000 1.6667 -0.0000
v -0.0000 1.6667 -3.5620
v -0.8333 0.0000 4.3518
v 20.0000 0.0000 0.0000
v 0.0000 0.0000 1.0000
v 1.0000 1.0000 0.0000
v -1.0039 0.0000 0.0000
v 9.8995 0.0000 0.0000
v 0.0000 22.0000 0.0000
v 1.0000 1.0000 1.0000
v 0.0000 0.0000 9.8995
v 22.0000 0.0000 0.0000
v 0.0000 0.0000 1.0000
v 1.0000 1.0000 0.0000
v 0.0000 1.0000 0.0000
v -8.5000 0.0000 14.7254
v 0.0000 0.0000 -68.0000
v 40.0000 68.0000 0.0000
v 0.0000 0.0000 1.0000
v 1.0000 1.0000 0.0000
v 2.0078 0.0000 0.0000
v 0.0000 -52.4576 36.4139
v 52.2125 43.0464 0.0000
v 0.0000 1.0000 1.0000
v 1.0000 0.0000 0.0000
v 0.0000 0.0000 -77.8378
v 21.0000 78.0988 25.4326
v 0.0000 0.0000 1.0000
v 1.0000 1.0000 0.0000
v -91.5874 26.0000 16.9934
v 9.6653 0.0000 0.0000
v 1.0000 1.0000 1.0000
v 0.0000 0.0000 -16.9002
v 26.0000 91.6079 7.2000
v 0.0000 0.0000 1.0000
v 1.0000 1.0000 0.0000
v 0.3490 0.0000 0.0000
v 0.0000 -69.6480 24.0000
v 69.5720 28.2971 0.0000
v 0.0000 1.0000 1.0000
v 1.0000 0.0000 0.0000
v 1.0039 -20.9569 0.0000
v 0.0000 -0.1923 36.0000
v 0.1680 99.9516 0.0000
v 0.0000 1.0000 1.0000
v 1.0000 0.0000 0.0000
v 0.0000 0.0000 282.0094
v 0.0000 1.0000 282.0094
v 0.0000 0.0000 314.0088
v 1.0039 1.0000 314.0088
v 1.0039 0.0000 0.0000
v 298.0091 36.0000 -64.5001
v 22.9837 0.0000 0.0000
v 1.0000 1.0000 1.0000
v 317.0094 19.5000 -64.5960
v 317.0094 52.5000 -64.5960
v 349.0088 19.5000 -64.4041
v 349.0088 52.5000 -64.4041
v 0.0000 333.0091 36.0000
v -64.5001 22.9837 0.0000
v 0.0000 1.0000 1.0000
v 1.0000 0.0000 0.0000
v 0.0000 322.0001 38.5000
v 1.0000 322.0001 56.5000
v 0.0000 304.0001 38.5000
v 1.0000 304.0001 56.5000
v 0.0000 0.0000 313.0001
v 47.5000 108.4999 12.7279
v 0.0000 0.0000 1.0000
v 1.0000 1.0000 0.0000
v 0.0000 0.0000 322.0001
v 0.0000 1.0000 322.0001
v 0.0000 0.0000 304.0001
v 1.0039 1.0000 304.0001
v 1.0039 0.0000 0.0000
v 313.0001 28.5000 108.4999
v 12.7279 0.0000 0.0000
v 1.0000 1.0000 1.0000
v 341.0001 38.5000 108.4999
v 341.0001 56.5000 108.4999
v 323.0001 38.5000 108.4999
v 323.0001 56.5000 108.4999
v 341.0001 19.5000 108.4999
v 341.0001 37.5000 108.4999
v 323.0001 19.5000 108.4999
v 323.0001 37.5000 108.4999
v 0.0000 0.0000 332.0001
v 38.0000 108.4999 20.5730
v 0.0000 0.0000 1.0000
v 1.0000 1.0000 0.0000
v 0.0000 303.0001 19.5000
v 1.0000 303.0001 37.5000
v 0.0000 285.0001 19.5000
v 1.0000 285.0001 37.5000
v 0.0000 0.0000 294.0001
v 28.5000 108.4999 12.7279
v 0.0000 0.0000 1.0000
v 1.0000 1.0000 0.0000
v 0.0000 0.0000 303.0001
v 0.0000 1.0000 303.0001
v 0.0000 0.0000 285.0001
v 1.0039 1.0000 285.0001
v 1.0039 0.0000 0.0000
v 294.0001 47.5000 108.4999
v 12.7279 0.0000 0.0000
v 1.0000 1.0000 1.0000
v 0.0000 0.3161 -6.8822
v 5.7663 4.0842 0.0000
v 0.0000 -0.0245 30.0000
v -104.0499 0.0000 0.0000
v 0.0000 1.2000 1.2000
v 1.2000 0.0000 0.0000
v 0.8706 0.0000 0.0000
v 0.0000 0.0000 -5.4085
v -4.2671 -3.3717 7.6154
v 0.0000 0.0000 -0.0245
v 30.0000 -104.0490 0.0000
v 0.0000 0.0000 1.1000
v 1.1000 1.1000 0.0000
v 0.1137 0.5176 0.0000
v 0.0000 5.1494 -6.1232
v -3.0784 4.8133 0.0000
v 0.0000 -0.0245 30.0000
v -104.0490 0.0000 0.0000
v 0.0000 1.1000 1.1000
v 1.1000 0.0000 0.0000
v 0.0000 0.0000 3.5041
v 0.0000 0.0000 53.7814
v 22.5000 -92.6614 0.0000
v 0.0000 0.0000 1.0000
v 1.0000 1.0000 0.0000
v 1.0039 -5.0196 0.0000
v 0.0000 64.3169 45.0000
v -63.8225 69.4886 0.0000
v 0.0000 1.0000 1.0000
v 1.0000 0.0000 0.0000
v 0.0000 0.0000 102.0000
v 0.0000 398.4969 0.0000
v 0.0000 1.0000 1.0000
v 1.0000 0.0000 0.0000
v 0.0000 0.0000 9.5523
v 1.0000 -9.5523 135.8989
v 0.0000 0.0000 1.0000
v 1.0000 1.0000 0.0000
v -0.5020 0.0000 0.0000
v 354.6673 0.5000 25.0000
v 39.4751 0.0000 0.0000
v 1.0000 1.0000 1.0000
v 0.0000 0.0000 -54.7954
v -5.5000 -38.8111 334.9612
v 0.0000 0.0000 1.0000
v 1.0000 1.0000 0.0000
v 32.4636 1.3000 -57.0114
v 59.2099 0.0000 0.0000
v 1.0000 1.0000 1.0000
v 0.0000 0.0000 18.5750
v 1.3000 20.2494 161.6050
v 0.0000 0.0000 1.0000
v 1.0000 1.0000 0.0000
v 0.2392 0.0000 0.0000
v 0.0000 32.5385 2.6000
v -56.9365 54.7659 0.0000
v 0.0000 1.0000 1.0000
v 1.0000 0.0000 0.0000
v 0.0000 0.7490 0.0000
v 3.0000 -85.1227 62.3024
v 0.0000 0.0000 1.0000
v 1.0000 1.0000 0.0000
v 0.0000 0.7500 1.0000
v 163.5469 0.0000 0.0000
v 1.0000 1.0000 1.0000
v 1.0000 0.0000 0.0000
v -0.0000 -2.0000 122.6673
v 181.1783 0.0000 0.0000
v 1.0000 1.0000 1.0000
v -5.2980 0.0000 0.0000
v 176.4483 0.0000 147.2467
v 88.4163 0.0000 0.0000
v 1.0000 1.0000 1.0000
v 0.0000 -70.0000 0.0000
v -78.2954 -0.0000 0.0941
v 0.8471 70.0000 0.0000
v -78.2954 -0.0000 0.9098
v 0.8471 19.2046 0.0000
v -78.2954 -0.0000 0.6157
v 0.8471 -19.2046 0.0000
v -78.2954 -0.0000 0.3882
v 0.8471 19.2046 0.0000
v -7.5000 -0.0000 0.6157
v 0.1569 -19.2046 0.0000
v -7.5000 -0.0000 0.3882
v 0.1569 -50.0000 0.0000
v -7.5000 -0.0000 0.2118
v 0.1569 -70.0000 0.0000
v -27.5000 -0.0000 0.0941
v 0.3490 50.0000 0.0000
v -7.5000 -0.0000 0.7922
v 0.1569 70.0000 0.0000
v -27.5000 -0.0000 0.9098
v 0.3490 0.0000 0.0000
v 0.0000 0.0000 -42.8977
v 78.4410 0.0000 0.0000
v 1.0000 1.0000 1.0000
v 0.2000 0.0000 0.0000
v 0.0000 52.6540 22.1500
v -91.8220 8.5839 0.0000
v 0.0000 1.0000 1.0000
v 1.0000 0.0000 0.0000
v 0.6118 0.9922 0.0000
v 0.0000 0.0000 -0.0350
v 25.2500 -104.1500 13.0486
v 0.0000 0.0000 1.0000
v 1.0000 1.0000 0.0000
v 0.2118 0.9529 0.0000
v -66.9500 34.5000 43.9500
v 22.1496 0.0000 0.0000
v 1.0000 1.0000 1.0000
v 0.0000 3.7949 31.7500
v -51.0529 72.6245 0.0000
v 0.0000 1.0000 1.0000
v 1.0000 0.0000 0.0000
v 0.0000 67.5000 74.0500
v 66.5496 0.0000 0.0000
v 0.0000 0.0000 4.0000
v 1.0000 1.0000 1.0000
v 0.5569 0.9451 0.0000
v 0.0000 0.0000 0.0500
v 34.6500 65.0500 72.9694
v 0.0000 0.0000 1.0000
v 1.0000 1.0000 0.0000
v 0.0000 0.0000 60.2928
v 35.5000 -59.9178 65.8829
v 0.0000 0.0000 1.0000
v 1.0000 1.0000 0.0000
v 0.0000 -0.1000 30.0000
v 118.5000 59.0877 0.0000
v 0.1000 0.0000 0.0000
v 0.0000 1.0000 1.0000
v 1.0000 0.0000 0.0000
v 1.0000 26.6406 5.0000
v -123.9000 0.0000 0.8784
v 0.8745 26.6406 47.8333
v -123.9000 0.0000 0.8784
v 0.1216 -26.6406 5.0000
v -123.9000 0.0000 0.1255
v 0.8745 -26.6406 47.8333
v -123.9000 0.0000 0.1255
v 0.1216 -18.8226 5.0000
v -123.9493 0.0000 0.3569
v 0.1216 18.8226 5.0000
v -123.9493 0.0000 0.6471
v 0.1216 0.0000 0.0000
v 28.9250 -6.2686 162.5543
v 0.0000 0.0000 1.0000
v 1.0000 1.0000 0.0000
v 196.7868 0.0000 526.1199
v 0.0000 0.0000 1.0000
v 1.0000 1.0000 0.0000
v 7.2275 1.0000 0.0000
v 0.0000 1.0000 1.0000
v 1.0000 0.0000 0.0000
v 194.6541 0.0000 1287.1162
v 0.0000 0.0000 1.0000
v 1.0000 1.0000 0.0000
v 0.7059 0.4039 0.0000
v 0.0000 -0.0000 74.6000
v -0.0000 78.4194 0.0000
v 0.0000 -99.5000 9.5000
v -126.0000 0.0000 0.0000
v 0.0000 1.0000 1.0000
v 1.0000 0.0000 0.0000
v 0.4039 0.0000 0.0000
v -0.0000 74.6000 -0.0000
v 78.4194 0.0000 0.0000
v -144.5000 9.5000 -200.0000
v 1.0000 1.0000 1.0000
v 74.6000 -0.0000 78.4194
v 0.0000 0.0000 -316.5000
v 9.5000 -201.5000 0.0000
v 0.0000 0.0000 1.0000
v 1.0000 1.0000 0.0000
v 0.7059 0.4039 0.0000
v 0.0000 -0.0000 74.6000
v -0.0000 78.4194 0.0000
v 0.0000 -231.5000 9.5000
v -233.5000 0.0000 0.0000
v 0.0000 1.0000 1.0000
v 1.0000 0.0000 0.0000
v 0.4039 0.0000 0.0000
v -0.0000 74.6000 -0.0000
v 78.4194 0.0000 0.0000
v -361.0000 9.5000 -122.5000
v 1.0000 1.0000 1.0000
v 74.6000 -0.0000 78.4194
v 0.0000 0.0000 1.0000
v 1.0000 1.0000 0.0000
v 0.7059 0.4039 0.0000
v 0.0000 -0.0000 74.6000
v -0.0000 78.4194 0.0000
v 0.0000 65.0000 2.8391
v 306.5000 0.0000 0.0000
v 0.0000 1.0000 1.0000
v 1.0000 0.0000 0.0000
v 0.4039 0.0000 0.0000
v -0.0000 74.6000 -0.0000
v 78.4194 0.0000 0.0000
v 1.0000 1.0000 1.0000
v 74.6000 -0.0000 78.4194
v 0.0000 0.0000 -48.1880
v 1.0000 1.0000 0.0000
v 0.5490 0.2392 0.0000
v 0.0000 -18.2499 27.5000
v 79.2499 64.6557 0.0000
v 0.0000 1.0000 1.0000
v 1.0000 0.0000 0.0000
v 0.0000 1.0000 0.0000
v 0.0000 -80.7925 84.2488
v 49.7562 390.8515 0.0000
v 0.0000 0.0000 12.0000
v 0.0000 1.0000 1.0000
v 1.0000 0.0000 0.0000
v 0.0000 1.0000 0.0000
v 0.0000 0.0000 -75.0000
v 4.6194 -75.0000 217.0763
v 60.0000 0.0000 0.0000
v 0.0000 0.0000 1.0000
v 1.0000 1.0000 0.0000
v 1.0000 0.0000 0.0000
v 90.1897 23.9000 -51.5806
v 11.8322 0.0000 0.0000
v 1.0000 1.0000 1.0000
v 0.0000 0.0000 -1.3183
v 25.1750 -28.9897 81.8573
v 0.0000 0.0000 1.0000
v 1.0000 1.0000 0.0000
v 1.0000 0.0000 0.0000
v 0.0000 0.0000 90.1897
v 23.6500 -51.5806 23.9615
v 0.0000 0.0000 1.0000
v 1.0000 1.0000 0.0000
v 0.0000 0.0000 51.8358
v 7.6000 -89.8030 11.8322
v 0.0000 0.0000 1.0000
v 1.0000 1.0000 0.0000
v 0.0000 0.4902 0.0000
v 0.0000 51.8358 39.9500
v -89.8030 11.7180 0.0000
v 0.0000 1.0000 1.0000
v 1.0000 0.0000 0.0000
v 2.4016 23.0000 -19.9736
v 83.7542 0.0000 0.0000
v 1.0000 1.0000 1.0000
v 0.0000 0.0000 55.6046
v 24.2000 -96.1526 9.7648
v 0.0000 0.0000 1.0000
v 1.0000 1.0000 0.0000
v 0.0000 1.0000 0.0000
v 0.0000 -47.5000 27.8500
v -61.0000 29.4600 0.0000
v 0.0000 1.0000 1.0000
v 1.0000 0.0000 0.0000
v 0.0000 0.0000 -47.5000
v 27.8500 -61.0000 29.4600
v 0.0000 0.0000 1.0000
v 1.0000 1.0000 0.0000
v 1.0000 0.0000 0.0000
v 0.0000 73.0000 54.5000
v 41.5482 0.0000 0.0000
v 1.0000 1.0000 1.0000
v 1.0000 0.0000 0.0000
v 34.4577 26.2500 -62.9189
v 71.6019 0.0000 0.0000
v 1.0000 1.0000 1.0000
v 1.9765 -0.9725 0.0000
v 0.0000 10.6066 0.0000
v 0.0000 -55.0000 -0.9500
v -58.5000 0.0000 0.0000
v 0.0000 1.0000 1.0000
v 1.0000 0.0000 0.0000
v -0.9725 0.0000 0.0000
v 10.6066 0.0000 0.0000
v 55.0000 -0.9500 -58.5000
v 1.0000 1.0000 1.0000
v 0.0000 0.0000 10.6066
v 0.0000 0.0000 -37.0000
v -0.9500 -28.5000 0.0000
v 0.0000 0.0000 1.0000
v 1.0000 1.0000 0.0000
v 1.9765 -0.9725 0.0000
v 0.0000 10.6066 0.0000
v 0.0000 37.0000 -0.9500
v -28.5000 0.0000 0.0000
v 0.0000 1.0000 1.0000
v 1.0000 0.0000 0.0000
v 1.0000 0.0000 0.0000
v -0.0000 23.7500 0.0000
v 118.7770 0.0000 0.0000
v 1.0000 1.0000 1.0000
v 164.9999 0.0000 825.4080
v 0.0000 0.0000 1.0000
v 1.0000 1.0000 0.0000
v -6.0000 0.0901 19.2573
v 0.0000 0.0000 -78.7500
v 0.0000 93.7500 0.0000
v 0.0000 0.0000 0.5005
v 1.0000 0.5005 0.0000
v 1.9765 -0.9725 0.0000
v 0.0000 0.0111 -6.0000
v -0.0782 19.2574 0.0000
v 0.0000 -120.6500 0.0000
v 21.3500 0.0000 0.0000
v 0.0000 0.5000 1.0000
v 0.5000 0.0000 0.0000
v -0.9725 0.0000 0.0000
v 0.0120 -6.0000 -0.0002
v 19.2574 0.0000 0.0000
v -106.1000 0.0000 -61.2500
v 0.5000 1.0000 0.5000
v -6.0000 -0.0121 19.2574
v 0.0000 0.0000 -41.9000
v 0.0000 -115.1000 0.0000
v 0.0000 0.0000 0.5000
v 1.0000 0.5000 0.0000
v 1.9765 -0.9725 0.0000
v 0.0000 0.0475 -6.0000
v -0.0126 19.2574 0.0000
v 0.0000 41.8500 0.0000
v -115.1000 0.0000 0.0000
v 0.0000 0.5000 1.0000
v 0.5000 0.0000 0.0000
v -0.9725 0.0000 0.0000
v -0.0119 -6.0000 -0.0499
v 19.2573 0.0000 0.0000
v 106.1000 0.0000 -61.2000
v 0.5000 1.0000 0.5000
v 0.0000 0.0000 0.0390
v -6.0000 -0.0280 19.2573
v 0.0000 0.0000 120.6000
v 0.0000 21.3000 0.0000
v 0.0000 0.0000 0.5000
v 1.0000 0.5000 0.0000
v 1.9765 -0.9725 0.0000
v 0.0000 0.0414 -6.0000
v 0.0406 19.2573 0.0000
v 0.0000 78.7000 0.0000
v 93.8000 0.0000 0.0000
v 0.0000 0.5000 1.0000
v 0.5000 0.0000 0.0000
v 0.7569 0.0000 0.0000
v -0.2842 30.1500 -19.4033
v 79.7740 0.0000 0.0000
v 1.0000 1.0000 1.0000
v 29.1123 -22.0350 75.7724
v 0.0000 0.0000 1.0000
v 1.0000 1.0000 0.0000
v 0.9961 0.9922 0.0000
v 0.0000 -0.9827 23.0155
v -25.5504 73.7314 0.0000
v 0.0000 1.0000 1.0000
v 1.0000 0.0000 0.0000
v 0.0000 0.0000 53.7814
v 22.5000 -92.6614 0.0000
v 53.7814 27.0000 -92.6614
v 0.0000 53.7814 22.5000
v -92.6614 0.0000 53.7814
v 27.0000 -92.6614 0.0000
v 53.7814 22.6500 -92.6614
v 0.0000 0.5000 1.0000
v 0.5000 0.0000 0.5466
v 1.0000 0.5466 0.0000
v 0.7183 1.0000 0.7183
v 0.0000 1.3123 1.0000
v 1.3123 0.0000 1.4452
v 1.0000 1.4452 0.0000
v 1.5000 1.0000 1.5000
v 0.0000 1.4658 1.0000
v 1.4658 0.0000 1.3526
v 1.0000 1.3529 0.0000
v 0.8972 1.0000 0.8973
v 0.0000 0.6793 1.0000
v 0.6794 0.0000 0.5339
v 1.0000 0.5339 0.0000
v 0.5000 1.0000 0.5000
vn 0.0000 1.0000 0.0000
vn 0.0000 1.0000 0.0000
vn 0.0000 1.0000 0.0000
vn 0.0000 1.0000 0.0000
vn 0.0000 1.0000 0.0000
vn 0.0000 1.0000 0.0000
vn 0.0000 1.0000 0.0000
vn 0.0000 1.0000 0.0000
vn 0.0000 1.0000 0.0000
vn 0.0000 1.0000 0.0000
vn 0.0000 1.0000 0.0000
vn 0.0000 1.0000 0.0000
vn 0.0000 1.0000 0.0000
vn 0.0000 1.0000 0.0000
vn 0.0000 1.0000 0.0000
vn 0.0000 1.0000 0.0000
vn 0.0000 1.0000 0.0000
vn 0.0000 1.0000 0.0000
vn 0.0000 1.0000 0.0000
vn 0.0000 1.0000 0.0000
vn 0.0000 1.0000 0.0000
vn 0.0000 1.0000 0.0000
vn 0.0000 1.0000 0.0000
vn 0.0000 1.0000 0.0000
vn 0.0000 1.0000 0.0000
vn 0.0000 1.0000 0.0000
vn 0.0000 1.0000 0.0000
vn 0.0000 1.0000 0.0000
vn 0.0000 1.0000 0.0000
vn 0.0000 1.0000 0.0000
vn 0.0000 1.0000 0.0000
vn 0.0000 1.0000 0.0000
vn 0.0000 1.0000 0.0000
vn 0.0000 1.0000 0.0000
vn 0.0000 1.0000 0.0000
vn 0.0000 1.0000 0.0000
vn 0.0000 1.0000 0.0000
vn 0.0000 1.0000 0.0000
vn 0.0000 1.0000 0.0000
vn 0.0000 1.0000 0.0000
vn 0.0000 1.0000 0.0000
vn 0.0000 1.0000 0.0000
vn 0.0000 1.0000 0.0000
vn 0.0000 1.0000 0.0000
vn 0.0000 1.0000 0.0000
vn 0.0000 1.0000 0.0000
vn 0.0000 1.0000 0.0000
vn 0.0000 1.0000 0.0000
vn 0.0000 1.0000 0.0000
vn 0.0000 1.0000 0.0000
vn 0.0000 1.0000 0.0000
vn 0.0000 1.0000 0.0000
vn 0.0000 1.0000 0.0000
vn 0.0000 1.0000 0.0000
vn 0.0000 1.0000 0.0000
vn 0.0000 1.0000 0.0000
vn 0.0000 1.0000 0.0000
vn 0.0000 1.0000 0.0000
vn 0.0000 1.0000 0.0000
vn 0.0000 1.0000 0.0000
vn 0.0000 1.0000 0.0000
vn 0.0000 1.0000 0.0000
vn 0.0000 1.0000 0.0000
vn 0.0000 1.0000 0.0000
vn 0.0000 1.0000 0.0000
vn 0.0000 1.0000 0.0000
vn 0.0000 1.0000 0.0000
vn 0.0000 1.0000 0.0000
vn 0.0000 1.0000 0.0000
vn 0.0000 1.0000 0.0000
vn 0.0000 1.0000 0.0000
vn 0.0000 1.0000 0.0000
vn 0.0000 1.0000 0.0000
vn 0.0000 1.0000 0.0000
vn 0.0000 1.0000 0.0000
vn 0.0000 1.0000 0.0000
vn 0.0000 1.0000 0.0000
vn 0.0000 1.0000 0.0000
vn 0.0000 1.0000 0.0000
vn 0.0000 1.0000 0.0000
vn 0.0000 1.0000 0.0000
vn 0.0000 1.0000 0.0000
vn 0.0000 1.0000 0.0000
vn 0.0000 1.0000 0.0000
vn 0.0000 1.0000 0.0000
vn 0.0000 1.0000 0.0000
vn 0.0000 1.0000 0.0000
vn 0.0000 1.0000 0.0000
vn 0.0000 1.0000 0.0000
vn 0.0000 1.0000 0.0000
vn 0.0000 1.0000 0.0000
vn 0.0000 1.0000 0.0000
vn 0.0000 1.0000 0.0000
vn 0.0000 1.0000 0.0000
vn 0.0000 1.0000 0.0000
vn 0.0000 1.0000 0.0000
vn 0.0000 1.0000 0.0000
vn 0.0000 1.0000 0.0000
vn 0.0000 1.0000 0.0000
vn 0.0000 1.0000 0.0000
vn 0.0000 1.0000 0.0000
vn 0.0000 1.0000 0.0000
vn 0.0000 1.0000 0.0000
vn 0.0000 1.0000 0.0000
vn 0.0000 1.0000 0.0000
vn 0.0000 1.0000 0.0000
vn 0.0000 1.0000 0.0000
vn 0.0000 1.0000 0.0000
vn 0.0000 1.0000 0.0000
vn 0.0000 1.0000 0.0000
vn 0.0000 1.0000 0.0000
vn 0.0000 1.0000 0.0000
vn 0.0000 1.0000 0.0000
vn 0.0000 1.0000 0.0000
vn 0.0000 1.0000 0.0000
vn 0.0000 1.0000 0.0000
vn 0.0000 1.0000 0.0000
vn 0.0000 1.0000 0.0000
vn 0.0000 1.0000 0.0000
vn 0.0000 1.0000 0.0000
vn 0.0000 1.0000 0.0000
vn 0.0000 1.0000 0.0000
vn 0.0000 1.0000 0.0000
vn 0.0000 1.0000 0.0000
vn 0.0000 1.0000 0.0000
vn 0.0000 1.0000 0.0000
vn 0.0000 1.0000 0.0000
vn 0.0000 1.0000 0.0000
vn 0.0000 1.0000 0.0000
vn 0.0000 1.0000 0.0000
vn 0.0000 1.0000 0.0000
vn 0.0000 1.0000 0.0000
vn 0.0000 1.0000 0.0000
vn 0.0000 1.0000 0.0000
vn 0.0000 1.0000 0.0000
vn 0.0000 1.0000 0.0000
vn 0.0000 1.0000 0.0000
vn 0.0000 1.0000 0.0000
vn 0.0000 1.0000 0.0000
vn 0.0000 1.0000 0.0000
vn 0.0000 1.0000 0.0000
vn 0.0000 1.0000 0.0000
vn 0.0000 1.0000 0.0000
vn 0.0000 1.0000 0.0000
vn 0.0000 1.0000 0.0000
vn 0.0000 1.0000 0.0000
vn 0.0000 1.0000 0.0000
vn 0.0000 1.0000 0.0000
vn 0.0000 1.0000 0.0000
vn 0.0000 1.0000 0.0000
vn 0.0000 1.0000 0.0000
vn 0.0000 1.0000 0.0000
vn 0.0000 1.0000 0.0000
vn 0.0000 1.0000 0.0000
vn 0.0000 1.0000 0.0000
vn 0.0000 1.0000 0.0000
vn 0.0000 1.0000 0.0000
vn 0.0000 1.0000 0.0000
vn 0.0000 1.0000 0.0000
vn 0.0000 1.0000 0.0000
vn 0.0000 1.0000 0.0000
vn 0.0000 1.0000 0.0000
vn 0.0000 1.0000 0.0000
vn 0.0000 1.0000 0.0000
vn 0.0000 1.0000 0.0000
vn 0.0000 1.0000 0.0000
vn 0.0000 1.0000 0.0000
vn 0.0000 1.0000 0.0000
vn 0.0000 1.0000 0.0000
vn 0.0000 1.0000 0.0000
vn 0.0000 1.0000 0.0000
vn 0.0000 1.0000 0.0000
vn 0.0000 1.0000 0.0000
vn 0.0000 1.0000 0.0000
vn 0.0000 1.0000 0.0000
vn 0.0000 1.0000 0.0000
vn 0.0000 1.0000 0.0000
vn 0.0000 1.0000 0.0000
vn 0.0000 1.0000 0.0000
vn 0.0000 1.0000 0.0000
vn 0.0000 1.0000 0.0000
vn 0.0000 1.0000 0.0000
vn 0.0000 1.0000 0.0000
vn 0.0000 1.0000 0.0000
vn 0.0000 1.0000 0.0000
vn 0.0000 1.0000 0.0000
vn 0.0000 1.0000 0.0000
vn 0.0000 1.0000 0.0000
vn 0.0000 1.0000 0.0000
vn 0.0000 1.0000 0.0000
vn 0.0000 1.0000 0.0000
vn 0.0000 1.0000 0.0000
vn 0.0000 1.0000 0.0000
vn 0.0000 1.0000 0.0000
vn 0.0000 1.0000 0.0000
vn 0.0000 1.0000 0.0000
vn 0.0000 1.0000 0.0000
vn 0.0000 1.0000 0.0000
vn 0.0000 1.0000 0.0000
vn 0.0000 1.0000 0.0000
vn 0.0000 1.0000 0.0000
vn 0.0000 1.0000 0.0000
vn 0.0000 1.0000 0.0000
vn 0.0000 1.0000 0.0000
vn 0.0000 1.0000 0.0000
vn 0.0000 1.0000 0.0000
vn 0.0000 1.0000 0.0000
vn 0.0000 1.0000 0.0000
vn 0.0000 1.0000 0.0000
vn 0.0000 1.0000 0.0000
vn 0.0000 1.0000 0.0000
vn 0.0000 1.0000 0.0000
vn 0.0000 1.0000 0.0000
vn 0.0000 1.0000 0.0000
vn 0.0000 1.0000 0.0000
vn 0.0000 1.0000 0.0000
vn 0.0000 1.0000 0.0000
vn 0.0000 1.0000 0.0000
vn 0.0000 1.0000 0.0000
vn 0.0000 1.0000 0.0000
vn 0.0000 1.0000 0.0000
vn 0.0000 1.0000 0.0000
vn 0.0000 1.0000 0.0000
vn 0.0000 1.0000 0.0000
vn 0.0000 1.0000 0.0000
vn 0.0000 1.0000 0.0000
vn 0.0000 1.0000 0.0000
vn 0.0000 1.0000 0.0000
vn 0.0000 1.0000 0.0000
vn 0.0000 1.0000 0.0000
vn 0.0000 1.0000 0.0000
vn 0.0000 1.0000 0.0000
vn 0.0000 1.0000 0.0000
vn 0.0000 1.0000 0.0000
vn 0.0000 1.0000 0.0000
vn 0.0000 1.0000 0.0000
vn 0.0000 1.0000 0.0000
vn 0.0000 1.0000 0.0000
vn 0.0000 1.0000 0.0000
vn 0.0000 1.0000 0.0000
vn 0.0000 1.0000 0.0000
vn 0.0000 1.0000 0.0000
vn 0.0000 1.0000 0.0000
vn 0.0000 1.0000 0.0000
vn 0.0000 1.0000 0.0000
vn 0.0000 1.0000 0.0000
vn 0.0000 1.0000 0.0000
vn 0.0000 1.0000 0.0000
vn 0.0000 1.0000 0.0000
vn 0.0000 1.0000 0.0000
vn 0.0000 1.0000 0.0000
vn 0.0000 1.0000 0.0000
vn 0.0000 1.0000 0.0000
vn 0.0000 1.0000 0.0000
vn 0.0000 1.0000 0.0000
vn 0.0000 1.0000 0.0000
vn 0.0000 1.0000 0.0000
vn 0.0000 1.0000 0.0000
vn 0.0000 1.0000 0.0000
vn 0.0000 1.0000 0.0000
vn 0.0000 1.0000 0.0000
vn 0.0000 1.0000 0.0000
vn 0.0000 1.0000 0.0000
vn 0.0000 1.0000 0.0000
vn 0.0000 1.0000 0.0000
vn 0.0000 1.0000 0.0000
vn 0.0000 1.0000 0.0000
vn 0.0000 1.0000 0.0000
vn 0.0000 1.0000 0.0000
vn 0.0000 1.0000 0.0000
vn 0.0000 1.0000 0.0000
vn 0.0000 1.0000 0.0000
vn 0.0000 1.0000 0.0000
vn 0.0000 1.0000 0.0000
vn 0.0000 1.0000 0.0000
vn 0.0000 1.0000 0.0000
vn 0.0000 1.0000 0.0000
vn 0.0000 1.0000 0.0000
vn 0.0000 1.0000 0.0000
vn 0.0000 1.0000 0.0000
vn 0.0000 1.0000 0.0000
vn 0.0000 1.0000 0.0000
vn 0.0000 1.0000 0.0000
vn 0.0000 1.0000 0.0000
vn 0.0000 1.0000 0.0000
vn 0.0000 1.0000 0.0000
vn 0.0000 1.0000 0.0000
vn 0.0000 1.0000 0.0000
vn 0.0000 1.0000 0.0000
vn 0.0000 1.0000 0.0000
vn 0.0000 1.0000 0.0000
vn 0.0000 1.0000 0.0000
vn 0.0000 1.0000 0.0000
vn 0.0000 1.0000 0.0000
vn 0.0000 1.0000 0.0000
vn 0.0000 1.0000 0.0000
vn 0.0000 1.0000 0.0000
vn 0.0000 1.0000 0.0000
vn 0.0000 1.0000 0.0000
vn 0.0000 1.0000 0.0000
vn 0.0000 1.0000 0.0000
vn 0.0000 1.0000 0.0000
vn 0.0000 1.0000 0.0000
vn 0.0000 1.0000 0.0000
vn 0.0000 1.0000 0.0000
vn 0.0000 1.0000 0.0000
vn 0.0000 1.0000 0.0000
vn 0.0000 1.0000 0.0000
vn 0.0000 1.0000 0.0000
vn 0.0000 1.0000 0.0000
vn 0.0000 1.0000 0.0000
vn 0.0000 1.0000 0.0000
vn 0.0000 1.0000 0.0000
vn 0.0000 1.0000 0.0000
vn 0.0000 1.0000 0.0000
vn 0.0000 1.0000 0.0000
vn 0.0000 1.0000 0.0000
vn 0.0000 1.0000 0.0000
vn 0.0000 1.0000 0.0000
vn 0.0000 1.0000 0.0000
vn 0.0000 1.0000 0.0000
vn 0.0000 1.0000 0.0000
vn 0.0000 1.0000 0.0000
vn 0.0000 1.0000 0.0000
vn 0.0000 1.0000 0.0000
vn 0.0000 1.0000 0.0000
vn 0.0000 1.0000 0.0000
vn 0.0000 1.0000 0.0000
vn 0.0000 1.0000 0.0000
vn 0.0000 1.0000 0.0000
vn 0.0000 1.0000 0.0000
vn 0.0000 1.0000 0.0000
vn 0.0000 1.0000 0.0000
vn 0.0000 1.0000 0.0000
vn 0.0000 1.0000 0.0000
vn 0.0000 1.0000 0.0000
vn 0.0000 1.0000 0.0000
vn 0.0000 1.0000 0.0000
vn 0.0000 1.0000 0.0000
vn 0.0000 1.0000 0.0000
vn 0.0000 1.0000 0.0000
vn 0.0000 1.0000 0.0000
vn 0.0000 1.0000 0.0000
vn 0.0000 1.0000 0.0000
vn 0.0000 1.0000 0.0000
vn 0.0000 1.0000 0.0000
vn 0.0000 1.0000 0.0000
vn 0.0000 1.0000 0.0000
vn 0.0000 1.0000 0.0000
vn 0.0000 1.0000 0.0000
vn 0.0000 1.0000 0.0000
vn 0.0000 1.0000 0.0000
vn 0.0000 1.0000 0.0000
vn 0.0000 1.0000 0.0000
vn 0.0000 1.0000 0.0000
vn 0.0000 1.0000 0.0000
vn 0.0000 1.0000 0.0000
vn 0.0000 1.0000 0.0000
vn 0.0000 1.0000 0.0000
vn 0.0000 1.0000 0.0000
vn 0.0000 1.0000 0.0000
vn 0.0000 1.0000 0.0000
vn 0.0000 1.0000 0.0000
vn 0.0000 1.0000 0.0000
vn 0.0000 1.0000 0.0000
vn 0.0000 1.0000 0.0000
vn 0.0000 1.0000 0.0000
vn 0.0000 1.0000 0.0000
vn 0.0000 1.0000 0.0000
vn 0.0000 1.0000 0.0000
vn 0.0000 1.0000 0.0000
vn 0.0000 1.0000 0.0000
vn 0.0000 1.0000 0.0000
vn 0.0000 1.0000 0.0000
vn 0.0000 1.0000 0.0000
vn 0.0000 1.0000 0.0000
vn 0.0000 1.0000 0.0000
vn 0.0000 1.0000 0.0000
vn 0.0000 1.0000 0.0000
vn 0.0000 1.0000 0.0000
vn 0.0000 1.0000 0.0000
vn 0.0000 1.0000 0.0000
vn 0.0000 1.0000 0.0000
vn 0.0000 1.0000 0.0000
vn 0.0000 1.0000 0.0000
vn 0.0000 1.0000 0.0000
vn 0.0000 1.0000 0.0000
vn 0.0000 1.0000 0.0000
vn 0.0000 1.0000 0.0000
vn 0.0000 1.0000 0.0000
vn 0.0000 1.0000 0.0000
vn 0.0000 1.0000 0.0000
vn 0.0000 1.0000 0.0000
vn 0.0000 1.0000 0.0000
vn 0.0000 1.0000 0.0000
vn 0.0000 1.0000 0.0000
vn 0.0000 1.0000 0.0000
vn 0.0000 1.0000 0.0000
vn 0.0000 1.0000 0.0000
vn 0.0000 1.0000 0.0000
vn 0.0000 1.0000 0.0000
vn 0.0000 1.0000 0.0000
vn 0.0000 1.0000 0.0000
vn 0.0000 1.0000 0.0000
vn 0.0000 1.0000 0.0000
vn 0.0000 1.0000 0.0000
vn 0.0000 1.0000 0.0000
vn 0.0000 1.0000 0.0000
vn 0.0000 1.0000 0.0000
vn 0.0000 1.0000 0.0000
vn 0.0000 1.0000 0.0000
vn 0.0000 1.0000 0.0000
vn 0.0000 1.0000 0.0000
vn 0.0000 1.0000 0.0000
vn 0.0000 1.0000 0.0000
vn 0.0000 1.0000 0.0000
vn 0.0000 1.0000 0.0000
vn 0.0000 1.0000 0.0000
vn 0.0000 1.0000 0.0000
vn 0.0000 1.0000 0.0000
vn 0.0000 1.0000 0.0000
vn 0.0000 1.0000 0.0000
vn 0.0000 1.0000 0.0000
vn 0.0000 1.0000 0.0000
vn 0.0000 1.0000 0.0000
vn 0.0000 1.0000 0.0000
vn 0.0000 1.0000 0.0000
vn 0.0000 1.0000 0.0000
vn 0.0000 1.0000 0.0000
vn 0.0000 1.0000 0.0000
vn 0.0000 1.0000 0.0000
vn 0.0000 1.0000 0.0000
vn 0.0000 1.0000 0.0000
vn 0.0000 1.0000 0.0000
vn 0.0000 1.0000 0.0000
vn 0.0000 1.0000 0.0000
vn 0.0000 1.0000 0.0000
vn 0.0000 1.0000 0.0000
vn 0.0000 1.0000 0.0000
vn 0.0000 1.0000 0.0000
vn 0.0000 1.0000 0.0000
vn 0.0000 1.0000 0.0000
vn 0.0000 1.0000 0.0000
vn 0.0000 1.0000 0.0000
vn 0.0000 1.0000 0.0000
vn 0.0000 1.0000 0.0000
vn 0.0000 1.0000 0.0000
vn 0.0000 1.0000 0.0000
vn 0.0000 1.0000 0.0000
vn 0.0000 1.0000 0.0000
vn 0.0000 1.0000 0.0000
vn 0.0000 1.0000 0.0000
vn 0.0000 1.0000 0.0000
vn 0.0000 1.0000 0.0000
vn 0.0000 1.0000 0.0000
vn 0.0000 1.0000 0.0000
vn 0.0000 1.0000 0.0000
vn 0.0000 1.0000 0.0000
vn 0.0000 1.0000 0.0000
vn 0.0000 1.0000 0.0000
vn 0.0000 1.0000 0.0000
vn 0.0000 1.0000 0.0000
vn 0.0000 1.0000 0.0000
vn 0.0000 1.0000 0.0000
vn 0.0000 1.0000 0.0000
vn 0.0000 1.0000 0.0000
vn 0.0000 1.0000 0.0000
vn 0.0000 1.0000 0.0000
vn 0.0000 1.0000 0.0000
vn 0.0000 1.0000 0.0000
vn 0.0000 1.0000 0.0000
vn 0.0000 1.0000 0.0000
vn 0.0000 1.0000 0.0000
vn 0.0000 1.0000 0.0000
vn 0.0000 1.0000 0.0000
vn 0.0000 1.0000 0.0000
vn 0.0000 1.0000 0.0000
vn 0.0000 1.0000 0.0000
vn 0.0000 1.0000 0.0000
vn 0.0000 1.0000 0.0000
vn 0.0000 1.0000 0.0000
vn 0.0000 1.0000 0.0000
vn 0.0000 1.0000 0.0000
vn 0.0000 1.0000 0.0000
vn 0.0000 1.0000 0.0000
vn 0.0000 1.0000 0.0000
vn 0.0000 1.0000 0.0000
vn 0.0000 1.0000 0.0000
vn 0.0000 1.0000 0.0000
vn 0.0000 1.0000 0.0000
vn 0.0000 1.0000 0.0000
vn 0.0000 1.0000 0.0000
vn 0.0000 1.0000 0.0000
vn 0.0000 1.0000 0.0000
vn 0.0000 1.0000 0.0000
vn 0.0000 1.0000 0.0000
vn 0.0000 1.0000 0.0000
vn 0.0000 1.0000 0.0000
vn 0.0000 1.0000 0.0000
vn 0.0000 1.0000 0.0000
vn 0.0000 1.0000 0.0000
vn 0.0000 1.0000 0.0000
vn 0.0000 1.0000 0.0000
vn 0.0000 1.0000 0.0000
vn 0.0000 1.0000 0.0000
vn 0.0000 1.0000 0.0000
vn 0.0000 1.0000 0.0000
vn 0.0000 1.0000 0.0000
vn 0.0000 1.0000 0.0000
vn 0.0000 1.0000 0.0000
vn 0.0000 1.0000 0.0000
vn 0.0000 1.0000 0.0000
vn 0.0000 1.0000 0.0000
vn 0.0000 1.0000 0.0000
vn 0.0000 1.0000 0.0000
vn 0.0000 1.0000 0.0000
vn 0.0000 1.0000 0.0000
vn 0.0000 1.0000 0.0000
vn 0.0000 1.0000 0.0000
vn 0.0000 1.0000 0.0000
vn 0.0000 1.0000 0.0000
vn 0.0000 1.0000 0.0000
vn 0.0000 1.0000 0.0000
vn 0.0000 1.0000 0.0000
vn 0.0000 1.0000 0.0000
vn 0.0000 1.0000 0.0000
vn 0.0000 1.0000 0.0000
vn 0.0000 1.0000 0.0000
vn 0.0000 1.0000 0.0000
vn 0.0000 1.0000 0.0000
vn 0.0000 1.0000 0.0000
vn 0.0000 1.0000 0.0000
vn 0.0000 1.0000 0.0000
vn 0.0000 1.0000 0.0000
vn 0.0000 1.0000 0.0000
vn 0.0000 1.0000 0.0000
vn 0.0000 1.0000 0.0000
vn 0.0000 1.0000 0.0000
vn 0.0000 1.0000 0.0000
vn 0.0000 1.0000 0.0000
vn 0.0000 1.0000 0.0000
vn 0.0000 1.0000 0.0000
vn 0.0000 1.0000 0.0000
vn 0.0000 1.0000 0.0000
vn 0.0000 1.0000 0.0000
vn 0.0000 1.0000 0.0000
vn 0.0000 1.0000 0.0000
vn 0.0000 1.0000 0.0000
vn 0.0000 1.0000 0.0000
vn 0.0000 1.0000 0.0000
vn 0.0000 1.0000 0.0000
vn 0.0000 1.0000 0.0000
vn 0.0000 1.0000 0.0000
vn 0.0000 1.0000 0.0000
vn 0.0000 1.0000 0.0000
vn 0.0000 1.0000 0.0000
vn 0.0000 1.0000 0.0000
vn 0.0000 1.0000 0.0000
vn 0.0000 1.0000 0.0000
vn 0.0000 1.0000 0.0000
vn 0.0000 1.0000 0.0000
vn 0.0000 1.0000 0.0000
vn 0.0000 1.0000 0.0000
vn 0.0000 1.0000 0.0000
vn 0.0000 1.0000 0.0000
vn 0.0000 1.0000 0.0000
vn 0.0000 1.0000 0.0000
vn 0.0000 1.0000 0.0000
vn 0.0000 1.0000 0.0000
vn 0.0000 1.0000 0.0000
vn 0.0000 1.0000 0.0000
vn 0.0000 1.0000 0.0000
vn 0.0000 1.0000 0.0000
vn 0.0000 1.0000 0.0000
vn 0.0000 1.0000 0.0000
vn 0.0000 1.0000 0.0000
vn 0.0000 1.0000 0.0000
vn 0.0000 1.0000 0.0000
vn 0.0000 1.0000 0.0000
vn 0.0000 1.0000 0.0000
vn 0.0000 1.0000 0.0000
vn 0.0000 1.0000 0.0000
vn 0.0000 1.0000 0.0000
vn 0.0000 1.0000 0.0000
vn 0.0000 1.0000 0.0000
vn 0.0000 1.0000 0.0000
vn 0.0000 1.0000 0.0000
vn 0.0000 1.0000 0.0000
vn 0.0000 1.0000 0.0000
vn 0.0000 1.0000 0.0000
vn 0.0000 1.0000 0.0000
vn 0.0000 1.0000 0.0000
vn 0.0000 1.0000 0.0000
vn 0.0000 1.0000 0.0000
vn 0.0000 1.0000 0.0000
vn 0.0000 1.0000 0.0000
vn 0.0000 1.0000 0.0000
vn 0.0000 1.0000 0.0000
vn 0.0000 1.0000 0.0000
vn 0.0000 1.0000 0.0000
vn 0.0000 1.0000 0.0000
vn 0.0000 1.0000 0.0000
vn 0.0000 1.0000 0.0000
vn 0.0000 1.0000 0.0000
vn 0.0000 1.0000 0.0000
vn 0.0000 1.0000 0.0000
vn 0.0000 1.0000 0.0000
vn 0.0000 1.0000 0.0000
vn 0.0000 1.0000 0.0000
vn 0.0000 1.0000 0.0000
vn 0.0000 1.0000 0.0000
vn 0.0000 1.0000 0.0000
vn 0.0000 1.0000 0.0000
vn 0.0000 1.0000 0.0000
vn 0.0000 1.0000 0.0000
vn 0.0000 1.0000 0.0000
vn 0.0000 1.0000 0.0000
vn 0.0000 1.0000 0.0000
vn 0.0000 1.0000 0.0000
vn 0.0000 1.0000 0.0000
vn 0.0000 1.0000 0.0000
vn 0.0000 1.0000 0.0000
vn 0.0000 1.0000 0.0000
vn 0.0000 1.0000 0.0000
vn 0.0000 1.0000 0.0000
vn 0.0000 1.0000 0.0000
vn 0.0000 1.0000 0.0000
vn 0.0000 1.0000 0.0000
vn 0.0000 1.0000 0.0000
vn 0.0000 1.0000 0.0000
vn 0.0000 1.0000 0.0000
vn 0.0000 1.0000 0.0000
vn 0.0000 1.0000 0.0000
vn 0.0000 1.0000 0.0000
vn 0.0000 1.0000 0.0000
vn 0.0000 1.0000 0.0000
vn 0.0000 1.0000 0.0000
vn 0.0000 1.0000 0.0000
vn 0.0000 1.0000 0.0000
vn 0.0000 1.0000 0.0000
vn 0.0000 1.0000 0.0000
vn 0.0000 1.0000 0.0000
vn 0.0000 1.0000 0.0000
vn 0.0000 1.0000 0.0000
vn 0.0000 1.0000 0.0000
vn 0.0000 1.0000 0.0000
vn 0.0000 1.0000 0.0000
vn 0.0000 1.0000 0.0000
vn 0.0000 1.0000 0.0000
vn 0.0000 1.0000 0.0000
vn 0.0000 1.0000 0.0000
vn 0.0000 1.0000 0.0000
vn 0.0000 1.0000 0.0000
vn 0.0000 1.0000 0.0000
vn 0.0000 1.0000 0.0000
vn 0.0000 1.0000 0.0000
vn 0.0000 1.0000 0.0000
vn 0.0000 1.0000 0.0000
vn 0.0000 1.0000 0.0000
vn 0.0000 1.0000 0.0000
vn 0.0000 1.0000 0.0000
vn 0.0000 1.0000 0.0000
vn 0.0000 1.0000 0.0000
vn 0.0000 1.0000 0.0000
vn 0.0000 1.0000 0.0000
vn 0.0000 1.0000 0.0000
vn 0.0000 1.0000 0.0000
vn 0.0000 1.0000 0.0000
vn 0.0000 1.0000 0.0000
vn 0.0000 1.0000 0.0000
vn 0.0000 1.0000 0.0000
vn 0.0000 1.0000 0.0000
vn 0.0000 1.0000 0.0000
vn 0.0000 1.0000 0.0000
vn 0.0000 1.0000 0.0000
vn 0.0000 1.0000 0.0000
vn 0.0000 1.0000 0.0000
vn 0.0000 1.0000 0.0000
vn 0.0000 1.0000 0.0000
vn 0.0000 1.0000 0.0000
vn 0.0000 1.0000 0.0000
vn 0.0000 1.0000 0.0000
vn 0.0000 1.0000 0.0000
vn 0.0000 1.0000 0.0000
vn 0.0000 1.0000 0.0000
vn 0.0000 1.0000 0.0000
vn 0.0000 1.0000 0.0000
vn 0.0000 1.0000 0.0000
vn 0.0000 1.0000 0.0000
vn 0.0000 1.0000 0.0000
vn 0.0000 1.0000 0.0000
vn 0.0000 1.0000 0.0000
vn 0.0000 1.0000 0.0000
vn 0.0000 1.0000 0.0000
vn 0.0000 1.0000 0.0000
vn 0.0000 1.0000 0.0000
vn 0.0000 1.0000 0.0000
vn 0.0000 1.0000 0.0000
vn 0.0000 1.0000 0.0000
vn 0.0000 1.0000 0.0000
vn 0.0000 1.0000 0.0000
vn 0.0000 1.0000 0.0000
vn 0.0000 1.0000 0.0000
vn 0.0000 1.0000 0.0000
vn 0.0000 1.0000 0.0000
vn 0.0000 1.0000 0.0000
vn 0.0000 1.0000 0.0000
vn 0.0000 1.0000 0.0000
vn 0.0000 1.0000 0.0000
vn 0.0000 1.0000 0.0000
vn 0.0000 1.0000 0.0000
vn 0.0000 1.0000 0.0000
vn 0.0000 1.0000 0.0000
vn 0.0000 1.0000 0.0000
vn 0.0000 1.0000 0.0000
vn 0.0000 1.0000 0.0000
vn 0.0000 1.0000 0.0000
vn 0.0000 1.0000 0.0000
vn 0.0000 1.0000 0.0000
vn 0.0000 1.0000 0.0000
vn 0.0000 1.0000 0.0000
vn 0.0000 1.0000 0.0000
vn 0.0000 1.0000 0.0000
vn 0.0000 1.0000 0.0000
vn 0.0000 1.0000 0.0000
vn 0.0000 1.0000 0.0000
vn 0.0000 1.0000 0.0000
vn 0.0000 1.0000 0.0000
vn 0.0000 1.0000 0.0000
vn 0.0000 1.0000 0.0000
vn 0.0000 1.0000 0.0000
vn 0.0000 1.0000 0.0000
vn 0.0000 1.0000 0.0000
vn 0.0000 1.0000 0.0000
vn 0.0000 1.0000 0.0000
vn 0.0000 1.0000 0.0000
vn 0.0000 1.0000 0.0000
vn 0.0000 1.0000 0.0000
vn 0.0000 1.0000 0.0000
vn 0.0000 1.0000 0.0000
vn 0.0000 1.0000 0.0000
vn 0.0000 1.0000 0.0000
vn 0.0000 1.0000 0.0000
vn 0.0000 1.0000 0.0000
vn 0.0000 1.0000 0.0000
vn 0.0000 1.0000 0.0000
vn 0.0000 1.0000 0.0000
vn 0.0000 1.0000 0.0000
vn 0.0000 1.0000 0.0000
vn 0.0000 1.0000 0.0000
vn 0.0000 1.0000 0.0000
vn 0.0000 1.0000 0.0000
vn 0.0000 1.0000 0.0000
vn 0.0000 1.0000 0.0000
vn 0.0000 1.0000 0.0000
vn 0.0000 1.0000 0.0000
vn 0.0000 1.0000 0.0000
vn 0.0000 1.0000 0.0000
vn 0.0000 1.0000 0.0000
vn 0.0000 1.0000 0.0000
vn 0.0000 1.0000 0.0000
vn 0.0000 1.0000 0.0000
vn 0.0000 1.0000 0.0000
vn 0.0000 1.0000 0.0000
vn 0.0000 1.0000 0.0000
vn 0.0000 1.0000 0.0000
vn 0.0000 1.0000 0.0000
vn 0.0000 1.0000 0.0000
vn 0.0000 1.0000 0.0000
vn 0.0000 1.0000 0.0000
vn 0.0000 1.0000 0.0000
vn 0.0000 1.0000 0.0000
vn 0.0000 1.0000 0.0000
vn 0.0000 1.0000 0.0000
vn 0.0000 1.0000 0.0000
vn 0.0000 1.0000 0.0000
vn 0.0000 1.0000 0.0000
vn 0.0000 1.0000 0.0000
vn 0.0000 1.0000 0.0000
vn 0.0000 1.0000 0.0000
vn 0.0000 1.0000 0.0000
vn 0.0000 1.0000 0.0000
vn 0.0000 1.0000 0.0000
vn 0.0000 1.0000 0.0000
vn 0.0000 1.0000 0.0000
vn 0.0000 1.0000 0.0000
vn 0.0000 1.0000 0.0000
vn 0.0000 1.0000 0.0000
vn 0.0000 1.0000 0.0000
vn 0.0000 1.0000 0.0000
vn 0.0000 1.0000 0.0000
vn 0.0000 1.0000 0.0000
vn 0.0000 1.0000 0.0000
vn 0.0000 1.0000 0.0000
vn 0.0000 1.0000 0.0000
vn 0.0000 1.0000 0.0000
vn 0.0000 1.0000 0.0000
vn 0.0000 1.0000 0.0000
vn 0.0000 1.0000 0.0000
vn 0.0000 1.0000 0.0000
vn 0.0000 1.0000 0.0000
vn 0.0000 1.0000 0.0000
vn 0.0000 1.0000 0.0000
vn 0.0000 1.0000 0.0000
vn 0.0000 1.0000 0.0000
vn 0.0000 1.0000 0.0000
vn 0.0000 1.0000 0.0000
vn 0.0000 1.0000 0.0000
vn 0.0000 1.0000 0.0000
vn 0.0000 1.0000 0.0000
vn 0.0000 1.0000 0.0000
vn 0.0000 1.0000 0.0000
vn 0.0000 1.0000 0.0000
vn 0.0000 1.0000 0.0000
vn 0.0000 1.0000 0.0000
vn 0.0000 1.0000 0.0000
vn 0.0000 1.0000 0.0000
vn 0.0000 1.0000 0.0000
vn 0.0000 1.0000 0.0000
vn 0.0000 1.0000 0.0000
vn 0.0000 1.0000 0.0000
vn 0.0000 1.0000 0.0000
vn 0.0000 1.0000 0.0000
vn 0.0000 1.0000 0.0000
vn 0.0000 1.0000 0.0000
vn 0.0000 1.0000 0.0000
vn 0.0000 1.0000 0.0000
vn 0.0000 1.0000 0.0000
vn 0.0000 1.0000 0.0000
vn 0.0000 1.0000 0.0000
vn 0.0000 1.0000 0.0000
vn 0.0000 1.0000 0.0000
vn 0.0000 1.0000 0.0000
vn 0.0000 1.0000 0.0000
vn 0.0000 1.0000 0.0000
vn 0.0000 1.0000 0.0000
vn 0.0000 1.0000 0.0000
vn 0.0000 1.0000 0.0000
vn 0.0000 1.0000 0.0000
vn 0.0000 1.0000 0.0000
vn 0.0000 1.0000 0.0000
vn 0.0000 1.0000 0.0000
vn 0.0000 1.0000 0.0000
vn 0.0000 1.0000 0.0000
vn 0.0000 1.0000 0.0000
vn 0.0000 1.0000 0.0000
vn 0.0000 1.0000 0.0000
vn 0.0000 1.0000 0.0000
vn 0.0000 1.0000 0.0000
vn 0.0000 1.0000 0.0000
vn 0.0000 1.0000 0.0000
vn 0.0000 1.0000 0.0000
vn 0.0000 1.0000 0.0000
vn 0.0000 1.0000 0.0000
vn 0.0000 1.0000 0.0000
vn 0.0000 1.0000 0.0000
vn 0.0000 1.0000 0.0000
vn 0.0000 1.0000 0.0000
vn 0.0000 1.0000 0.0000
vn 0.0000 1.0000 0.0000
vn 0.0000 1.0000 0.0000
vn 0.0000 1.0000 0.0000
vn 0.0000 1.0000 0.0000
vn 0.0000 1.0000 0.0000
vn 0.0000 1.0000 0.0000
vn 0.0000 1.0000 0.0000
vn 0.0000 1.0000 0.0000
vn 0.0000 1.0000 0.0000
vn 0.0000 1.0000 0.0000
vn 0.0000 1.0000 0.0000
vn 0.0000 1.0000 0.0000
vn 0.0000 1.0000 0.0000
vn 0.0000 1.0000 0.0000
vn 0.0000 1.0000 0.0000
vn 0.0000 1.0000 0.0000
vn 0.0000 1.0000 0.0000
vn 0.0000 1.0000 0.0000
vn 0.0000 1.0000 0.0000
vn 0.0000 1.0000 0.0000
vn 0.0000 1.0000 0.0000
vn 0.0000 1.0000 0.0000
vn 0.0000 1.0000 0.0000
vn 0.0000 1.0000 0.0000
vn 0.0000 1.0000 0.0000
vn 0.0000 1.0000 0.0000
vn 0.0000 1.0000 0.0000
vn 0.0000 1.0000 0.0000
vn 0.0000 1.0000 0.0000
vn 0.0000 1.0000 0.0000
vn 0.0000 1.0000 0.0000
vn 0.0000 1.0000 0.0000
vn 0.0000 1.0000 0.0000
vn 0.0000 1.0000 0.0000
vn 0.0000 1.0000 0.0000
vn 0.0000 1.0000 0.0000
vn 0.0000 1.0000 0.0000
vn 0.0000 1.0000 0.0000
vn 0.0000 1.0000 0.0000
vn 0.0000 1.0000 0.0000
vn 0.0000 1.0000 0.0000
vn 0.0000 1.0000 0.0000
vn 0.0000 1.0000 0.0000
vn 0.0000 1.0000 0.0000
vn 0.0000 1.0000 0.0000
vn 0.0000 1.0000 0.0000
vn 0.0000 1.0000 0.0000
vn 0.0000 1.0000 0.0000
vn 0.0000 1.0000 0.0000
vn 0.0000 1.0000 0.0000
vn 0.0000 1.0000 0.0000
vn 0.0000 1.0000 0.0000
vn 0.0000 1.0000 0.0000
vn 0.0000 1.0000 0.0000
vn 0.0000 1.0000 0.0000
vn 0.0000 1.0000 0.0000
vn 0.0000 1.0000 0.0000
vn 0.0000 1.0000 0.0000
vn 0.0000 1.0000 0.0000
vn 0.0000 1.0000 0.0000
vn 0.0000 1.0000 0.0000
vn 0.0000 1.0000 0.0000
vn 0.0000 1.0000 0.0000
vn 0.0000 1.0000 0.0000
vn 0.0000 1.0000 0.0000
vn 0.0000 1.0000 0.0000
vn 0.0000 1.0000 0.0000
vn 0.0000 1.0000 0.0000
vn 0.0000 1.0000 0.0000
vn 0.0000 1.0000 0.0000
vn 0.0000 1.0000 0.0000
vn 0.0000 1.0000 0.0000
vn 0.0000 1.0000 0.0000
vn 0.0000 1.0000 0.0000
vn 0.0000 1.0000 0.0000
vn 0.0000 1.0000 0.0000
vn 0.0000 1.0000 0.0000
vn 0.0000 1.0000 0.0000
vn 0.0000 1.0000 0.0000
vn 0.0000 1.0000 0.0000
vn 0.0000 1.0000 0.0000
vn 0.0000 1.0000 0.0000
vn 0.0000 1.0000 0.0000
vn 0.0000 1.0000 0.0000
vn 0.0000 1.0000 0.0000
vn 0.0000 1.0000 0.0000
vn 0.0000 1.0000 0.0000
vn 0.0000 1.0000 0.0000
vn 0.0000 1.0000 0.0000
vn 0.0000 1.0000 0.0000
vn 0.0000 1.0000 0.0000
vn 0.0000 1.0000 0.0000
vn 0.0000 1.0000 0.0000
vn 0.0000 1.0000 0.0000
vn 0.0000 1.0000 0.0000
vn 0.0000 1.0000 0.0000
vn 0.0000 1.0000 0.0000
vn 0.0000 1.0000 0.0000
vn 0.0000 1.0000 0.0000
vn 0.0000 1.0000 0.0000
vn 0.0000 1.0000 0.0000
vn 0.0000 1.0000 0.0000
vn 0.0000 1.0000 0.0000
vn 0.0000 1.0000 0.0000
vn 0.0000 1.0000 0.0000
vn 0.0000 1.0000 0.0000
vn 0.0000 1.0000 0.0000
vn 0.0000 1.0000 0.0000
vn 0.0000 1.0000 0.0000
vn 0.0000 1.0000 0.0000
vn 0.0000 1.0000 0.0000
vn 0.0000 1.0000 0.0000
vn 0.0000 1.0000 0.0000
vn 0.0000 1.0000 0.0000
vn 0.0000 1.0000 0.0000
vn 0.0000 1.0000 0.0000
vn 0.0000 1.0000 0.0000
vn 0.0000 1.0000 0.0000
vn 0.0000 1.0000 0.0000
vn 0.0000 1.0000 0.0000
vn 0.0000 1.0000 0.0000
vn 0.0000 1.0000 0.0000
vn 0.0000 1.0000 0.0000
vn 0.0000 1.0000 0.0000
vn 0.0000 1.0000 0.0000
vn 0.0000 1.0000 0.0000
vn 0.0000 1.0000 0.0000
vn 0.0000 1.0000 0.0000
vn 0.0000 1.0000 0.0000
vn 0.0000 1.0000 0.0000
vn 0.0000 1.0000 0.0000
vn 0.0000 1.0000 0.0000
vn 0.0000 1.0000 0.0000
vn 0.0000 1.0000 0.0000
vn 0.0000 1.0000 0.0000
vn 0.0000 1.0000 0.0000
vn 0.0000 1.0000 0.0000
vn 0.0000 1.0000 0.0000
vn 0.0000 1.0000 0.0000
vn 0.0000 1.0000 0.0000
vn 0.0000 1.0000 0.0000
vn 0.0000 1.0000 0.0000
vn 0.0000 1.0000 0.0000
vn 0.0000 1.0000 0.0000
vn 0.0000 1.0000 0.0000
vn 0.0000 1.0000 0.0000
vn 0.0000 1.0000 0.0000
vn 0.0000 1.0000 0.0000
vn 0.0000 1.0000 0.0000
vn 0.0000 1.0000 0.0000
vn 0.0000 1.0000 0.0000
vn 0.0000 1.0000 0.0000
vn 0.0000 1.0000 0.0000
vn 0.0000 1.0000 0.0000
vn 0.0000 1.0000 0.0000
vn 0.0000 1.0000 0.0000
vn 0.0000 1.0000 0.0000
vn 0.0000 1.0000 0.0000
f 1 2 3
f 4 5 6
f 7 8 9
f 10 11 12
f 13 14 15
f 16 17 18
f 19 20 21
f 22 23 24
f 25 26 27
f 28 29 30
f 31 32 33
f 34 35 36
f 37 38 39
f 40 41 42
f 43 44 45
f 46 47 48
f 49 50 51
f 52 53 54
f 55 56 57
f 58 59 60
f 61 62 63
f 64 65 66
f 67 68 69
f 70 71 72
f 73 74 75
f 76 77 78
f 79 80 81
f 82 83 84
f 85 86 87
f 88 89 90
f 91 92 93
f 94 95 96
f 97 98 99
f 100 101 102
f 103 104 105
f 106 107 108
f 109 110 111
f 112 113 114
f 115 116 117
f 118 119 120
f 121 122 123
f 124 125 126
f 127 128 129
f 130 131 132
f 133 134 135
f 136 137 138
f 139 140 141
f 142 143 144
f 145 146 147
f 148 149 150
f 151 152 153
f 154 155 156
f 157 158 159
f 160 161 162
f 163 164 165
f 166 167 168
f 169 170 171
f 172 173 174
f 175 176 177
f 178 179 180
f 181 182 183
f 184 185 186
f 187 188 189
f 190 191 192
f 193 194 195
f 196 197 198
f 199 200 201
f 202 203 204
f 205 206 207
f 208 209 210
f 211 212 213
f 214 215 216
f 217 218 219
f 220 221 222
f 223 224 225
f 226 227 228
f 229 230 231
f 232 233 234
f 235 236 237
f 238 239 240
f 241 242 243
f 244 245 246
f 247 248 249
f 250 251 252
f 253 254 255
f 256 257 258
f 259 260 261
f 262 263 264
f 265 266 267
f 268 269 270
f 271 272 273
f 274 275 276
f 277 278 279
f 280 281 282
f 283 284 285
f 286 287 288
f 289 290 291
f 292 293 294
f 295 296 297
f 298 299 300
f 301 302 303
f 304 305 306
f 307 308 309
f 310 311 312
f 313 314 315
f 316 317 318
f 319 320 321
f 322 323 324
f 325 326 327
f 328 329 330
f 331 332 333
f 334 335 336
f 337 338 339
f 340 341 342
f 343 344 345
f 346 347 348
f 349 350 351
f 352 353 354
f 355 356 357
f 358 359 360
f 361 362 363
f 364 365 366
f 367 368 369
f 370 371 372
f 373 374 375
f 376 377 378
f 379 380 381
f 382 383 384
f 385 386 387
f 388 389 390
f 391 392 393
f 394 395 396
f 397 398 399
f 400 401 402
f 403 404 405
f 406 407 408
f 409 410 411
f 412 413 414
f 415 416 417
f 418 419 420
f 421 422 423
f 424 425 426
f 427 428 429
f 430 431 432
f 433 434 435
f 436 437 438
f 439 440 441
f 442 443 444
f 445 446 447
f 448 449 450
f 451 452 453
f 454 455 456
f 457 458 459
f 460 461 462
f 463 464 465
f 466 467 468
f 469 470 471
f 472 473 474
f 475 476 477
f 478 479 480
f 481 482 483
f 484 485 486
f 487 488 489
f 490 491 492
f 493 494 495
f 496 497 498
f 499 500 501
f 502 503 504
f 505 506 507
f 508 509 510
f 511 512 513
f 514 515 516
f 517 518 519
f 520 521 522
f 523 524 525
f 526 527 528
f 529 530 531
f 532 533 534
f 535 536 537
f 538 539 540
f 541 542 543
f 544 545 546
f 547 548 549
f 550 551 552
f 553 554 555
f 556 557 558
f 559 560 561
f 562 563 564
f 565 566 567
f 568 569 570
f 571 572 573
f 574 575 576
f 577 578 579
f 580 581 582
f 583 584 585
f 586 587 588
f 589 590 591
f 592 593 594
f 595 596 597
f 598 599 600
f 601 602 603
f 604 605 606
f 607 608 609
f 610 611 612
f 613 614 615
f 616 617 618
f 619 620 621
f 622 623 624
f 625 626 627
f 628 629 630
f 631 632 633
f 634 635 636
f 637 638 639
f 640 641 642
f 643 644 645
f 646 647 648
f 649 650 651
f 652 653 654
f 655 656 657
f 658 659 660
f 661 662 663
f 664 665 666
f 667 668 669
f 670 671 672
f 673 674 675
f 676 677 678
f 679 680 681
f 682 683 684
f 685 686 687
f 688 689 690
f 691 692 693
f 694 695 696
f 697 698 699
f 700 701 702
f 703 704 705
f 706 707 708
f 709 710 711
f 712 713 714
f 715 716 717
f 718 719 720
f 721 722 723
f 724 725 726
f 727 728 729
f 730 731 732
f 733 734 735
f 736 737 738
f 739 740 741
f 742 743 744
f 745 746 747
f 748 749 750
f 751 752 753
f 754 755 756
f 757 758 759
f 760 761 762
f 763 764 765
f 766 767 768
f 769 770 771
f 772 773 774
f 775 776 777
f 778 779 780
f 781 782 783
f 784 785 786
f 787 788 789
f 790 791 792
f 793 794 795
f 796 797 798
f 799 800 801
f 802 803 804
f 805 806 807
f 808 809 810
f 811 812 813
f 814 815 816
f 817 818 819
f 820 821 822
f 823 824 825
f 826 827 828
f 829 830 831
f 832 833 834
f 835 836 837
f 838 839 840
f 841 842 843
f 844 845 846
f 847 848 849
f 850 851 852
f 853 854 855
f 856 857 858
f 859 860 861
f 862 863 864
f 865 866 867
f 868 869 870
f 871 872 873
f 874 875 876
f 877 878 879
f 880 881 882
f 883 884 885
f 886 887 888
f 889 890 891
f 892 893 894
f 895 896 897
f 898 899 900
f 901 902 903
f 904 905 906
f 907 908 909
f 910 911 912
f 913 914 915
f 916 917 918
f 919 920 921
f 922 923 924
f 925 926 927
f 928 929 930
f 931 932 933
f 934 935 936
f 937 938 939
f 940 941 942
f 943 944 945
f 946 947 948
f 949 950 951
f 952 953 954
f 955 956 957
f 958 959 960
f 961 962 963
f 964 965 966
f 967 968 969
f 970 971 972
f 973 974 975
f 976 977 978
f 979 980 981
f 982 983 984
f 985 986 987
f 988 989 990
f 991 992 993
f 994 995 996
f 997 998 999
f 1000 1001 1002
f 1003 1004 1005
f 1006 1007 1008
f 1009 1010 1011
f 1012 1013 1014
f 1015 1016 1017
