# PSO Extracted Authentic Geometry
v 850.0000 0.0000 400.0000
v 54.5403 0.0000 0.0000
v 0.0000 1975.0000 0.0000
v -75.0000 0.0000 0.0000
v 0.0000 54.5403 0.0000
v 0.0000 0.0000 1000.0000
v 0.0000 250.0000 0.0000
v 0.0000 0.0000 54.5403
v 1625.0000 0.0000 -75.0000
v 54.5403 0.0000 0.0000
v 0.0000 275.0000 0.0000
v -75.0000 0.0000 0.0000
v 0.0000 54.5403 0.0000
v 0.0000 0.0000 1300.0000
v 0.0000 -350.0000 0.0000
v 0.0000 0.0000 54.5403
v 725.0000 0.0000 -75.0000
v 54.5403 0.0000 0.0000
v 0.0000 1175.0000 0.0000
v -75.0000 0.0000 0.0000
v 0.0000 54.5403 0.0000
v 0.0000 0.0000 -50.0000
v 0.0000 250.0000 0.0000
v 0.0000 0.0000 54.5403
v 675.0000 0.0000 -75.0000
v 54.5403 0.0000 0.0000
v 0.0000 225.0000 0.0000
v -75.0000 0.0000 0.0000
v 0.0000 54.5403 0.0000
v 0.0000 0.0000 1125.0000
v 0.0000 -75.0000 0.0000
v 0.0000 0.0000 54.5403
v 1000.0000 0.0000 200.0000
v 54.5403 0.0000 0.0000
v 0.0000 1300.0000 0.0000
v -400.0000 0.0000 0.0000
v 0.0000 54.5403 0.0000
v 0.0000 0.0000 1575.0000
v 0.0000 -75.0000 0.0000
v 0.0000 0.0000 54.5403
v 1925.0000 0.0000 -75.0000
v 54.5403 0.0000 0.0000
v 0.0000 800.0000 0.0000
v 400.0000 0.0000 0.0000
v 0.0000 54.5403 0.0000
v 0.0000 0.0000 -50.0000
v 0.0000 200.0000 0.0000
v 0.0000 0.0000 54.5403
v 700.0000 0.0000 400.0000
v 108.3236 0.0000 0.0000
v 0.0000 1300.0000 0.0000
v -500.0000 0.0000 0.0000
v 0.0000 108.3236 0.0000
v 0.0000 0.0000 -50.0000
v 0.0000 350.0000 0.0000
v 0.0000 0.0000 108.3236
v 2075.0000 0.0000 -75.0000
v 108.3236 0.0000 0.0000
v 0.0000 1000.0000 0.0000
v 400.0000 0.0000 0.0000
v 0.0000 150.5199 0.0000
v 0.0000 0.0000 1775.0000
v 0.0000 -75.0000 0.0000
v 0.0000 0.0000 150.5199
v 1775.0000 0.0000 -75.0000
v 181.5909 0.0000 0.0000
v 400.0000 0.0000 0.0000
v 0.0000 181.5909 0.0000
v 0.0000 -500.0000 0.0000
v 0.0000 0.0000 52.5600
v 1300.0000 0.0000 -575.0000
v 52.5600 0.0000 0.0000
v -500.0000 0.0000 0.0000
v 0.0000 52.5600 0.0000
v 0.0000 350.0000 0.0000
v 0.0000 0.0000 52.5600
v -125.0000 0.0000 350.0000
v 52.5600 0.0000 0.0000
v 425.0000 0.0000 0.0000
v 0.0000 52.5600 0.0000
v 0.0000 325.0000 0.0000
v 0.0000 0.0000 52.5600
v 625.0000 0.0000 400.0000
v 52.5600 0.0000 0.0000
v 475.0000 0.0000 0.0000
v 0.0000 52.5600 0.0000
v 0.0000 400.0000 0.0000
v 0.0000 0.0000 52.5600
v 1775.0000 0.0000 -200.0000
v 52.5600 0.0000 0.0000
v 525.0000 0.0000 0.0000
v 0.0000 52.5600 0.0000
v 0.0000 50.0000 0.0000
v 0.0000 0.0000 52.5600
v 2150.0000 0.0000 -75.0000
v 52.5600 0.0000 0.0000
v 0.0000 52.5600 0.0000
v 0.0000 -150.0000 0.0000
v 0.0000 0.0000 52.5600
v 1000.0000 0.0000 400.0000
v 131.7915 0.0000 0.0000
v -75.0000 0.0000 0.0000
v 0.0000 131.7915 0.0000
v 0.0000 0.0000 475.0000
v 0.0000 -75.0000 0.0000
v 0.0000 0.0000 190.8042
v 475.0000 0.0000 -75.0000
v 204.1112 0.0000 0.0000
v 50.0000 0.0000 0.0000
v 0.0000 43.0872 0.0000
v 0.0000 -200.0000 0.0000
v 0.0000 0.0000 43.0872
v 475.0000 0.0000 -75.0000
v 220.7940 0.0000 0.0000
v -75.0000 0.0000 0.0000
v 0.0000 174.7720 0.0000
v 0.0000 0.0000 25.0000
v 0.0000 0.0000 221.1476
v 1375.0000 0.0000 -150.0000
v 260.0961 0.0000 0.0000
v 0.0000 260.0961 0.0000
v 0.0000 0.0000 260.0961
v 1300.0000 0.0000 25.0000
v 45.2283 0.0000 0.0000
v -175.0000 0.0000 0.0000
v 0.0000 45.2283 0.0000
v 0.0000 25.0000 0.0000
v 0.0000 0.0000 45.2283
v 200.0000 0.0000 75.0000
v 45.2283 0.0000 0.0000
v 175.0000 0.0000 0.0000
v 0.0000 45.2283 0.0000
v 0.0000 -175.0000 0.0000
v 0.0000 0.0000 45.2283
v 1200.0000 0.0000 -225.0000
v 45.2283 0.0000 0.0000
v 75.0000 0.0000 0.0000
v 0.0000 45.2283 0.0000
v 0.0000 -175.0000 0.0000
v 0.0000 0.0000 45.2283
v 1000.0000 0.0000 -175.0000
v 45.2283 0.0000 0.0000
v -325.0000 0.0000 0.0000
v 0.0000 45.2283 0.0000
v 0.0000 -225.0000 0.0000
v 0.0000 0.0000 45.2283
v 850.0000 0.0000 175.0000
v 45.2283 0.0000 0.0000
v 75.0000 0.0000 0.0000
v 0.0000 45.2283 0.0000
v 0.0000 0.0000 192.6175
v 1375.0000 0.0000 -150.0000
v 192.6175 0.0000 0.0000
v 0.0000 192.7576 0.0000
v 0.0000 0.0000 1375.0000
v 0.0000 -150.0000 0.0000
v 0.0000 0.0000 224.7360
v 925.0000 0.0000 -0.0000
v 215.8703 0.0000 0.0000
v 0.0000 800.0000 0.0000
v 0.0000 0.0000 31.5000
v 0.0000 18.6694 0.0000
v 0.0000 -34.0000 0.0000
v -10.0000 0.0000 0.0000
v 0.0000 1.0000 1.0000
v 1.0000 0.0000 0.0000
v 0.0000 31.5000 -0.0000
v 18.6694 0.0000 0.0000
v -12.0000 0.0000 -34.0000
v 1.0000 1.0000 1.0000
v 1.0000 0.0000 0.0000
v 0.0000 -74.9388 111.5660
v -52.5000 186.3906 0.0000
v 0.0000 1.0000 1.0000
v 1.0000 0.0000 0.0000
v 0.0000 -4.3176 0.0000
v 0.0000 0.0000 4.2500
v 95.0000 48.0000 653.1638
v 0.0000 0.0000 1.0000
v 1.0000 1.0000 0.0000
v 0.0000 -98.0000 76.5000
v -112.5000 363.5622 0.0000
v 0.0000 1.0000 1.0000
v 1.0000 0.0000 0.0000
v -23.0902 0.0000 0.0000
v 0.0000 -262.0000 135.0000
v -118.0000 307.6410 0.0000
v 0.0000 1.0000 1.0000
v 1.0000 0.0000 0.0000
v -262.7631 43.0000 -175.0000
v 53.9620 0.0000 0.0000
v 1.0000 1.0000 1.0000
v 6.0235 1.0000 0.0000
v 0.0000 0.0000 -100.0000
v 137.5080 -100.0000 369.3321
v 0.0000 0.0000 1.0000
v 1.0000 1.0000 0.0000
v 0.0000 0.0000 -100.0000
v 1.0039 1.0000 -50.0000
v 0.0000 1.0000 -99.9967
v 1.0039 -1.0039 -50.0014
v 0.0000 -1.0039 100.0000
v 1.0039 1.0000 50.0000
v 0.0000 1.0000 99.9967
v 1.0039 -1.0039 50.0014
v 0.0000 -1.0039 0.0000
v 0.0000 0.0000 66.9000
v 185.0000 100.0000 0.0000
v 0.0000 1.0000 1.0000
v 1.0000 0.0000 0.0000
v -82.5000 4.0000 150.0000
v -81.0000 20.0000 155.0000
v -68.5000 4.0000 150.0000
v -70.0000 20.0000 155.0000
v -78.5000 24.0000 160.0000
v -79.5000 26.0000 185.0000
v -72.5000 24.0000 160.0000
v -71.5000 26.0000 185.0000
v -82.5000 22.0000 185.0000
v -68.5000 22.0000 185.0000
v -68.5700 15.0000 175.0000
v -82.5700 15.0000 175.0000
v 82.5000 4.0000 150.0000
v 81.0000 20.0000 155.0000
v 68.5000 4.0000 150.0000
v 70.0000 20.0000 155.0000
v 78.5000 24.0000 160.0000
v 79.5000 26.0000 185.0000
v 72.5000 24.0000 160.0000
v 71.5000 26.0000 185.0000
v 82.5000 22.0000 185.0000
v 68.5000 22.0000 185.0000
v 68.5700 15.0000 175.0000
v 82.5700 15.0000 175.0000
v -10.6000 10.2156 160.3795
v -10.6000 36.8026 150.6089
v -10.6000 64.8388 145.0199
v -13.8000 65.9182 150.4563
v -10.6000 124.2595 147.2175
v -13.8000 7.4041 155.6030
v -13.8000 35.2496 145.2883
v -13.8000 63.7594 139.5834
v -13.8000 38.3556 155.9294
v -13.8000 124.8899 141.7110
v -20.2000 7.4041 155.6030
v -20.2000 35.2496 145.2884
v -20.2000 63.7594 139.5834
v -13.8000 13.0271 165.1561
v -20.2000 124.8899 141.7110
v -23.4000 10.2156 160.3795
v -23.4000 36.8026 150.6089
v -23.4000 64.8388 145.0199
v -13.8000 123.6290 152.7241
v -23.4000 124.2595 147.2175
v -20.2000 13.0271 165.1561
v -20.2000 38.3556 155.9294
v -20.2000 65.9182 150.4563
v -20.2000 123.6290 152.7241
v -7.7840 9.2587 159.8555
v -10.1648 21.9631 155.3307
v -12.3920 5.8849 154.1236
v -13.4979 20.0995 148.9460
v -13.1600 23.8267 161.7153
v -21.6080 5.8849 154.1236
v -20.5021 20.0995 148.9460
v -12.3920 12.6325 165.5873
v -26.2160 9.2587 159.8555
v -23.8352 21.9631 155.3307
v -21.6080 12.6325 165.5873
v -20.8400 23.8267 161.7153
v -10.0602 112.5516 146.6150
v -13.0600 115.4924 152.5806
v -9.2200 125.3128 145.9233
v -13.0600 109.6108 140.6494
v -13.0600 124.3320 139.3450
v -20.7400 109.6108 140.6494
v -20.7400 124.3320 139.3450
v -23.7614 112.5516 146.6151
v -13.0600 126.2935 152.5017
v -24.5800 125.3128 145.9233
v -20.7400 115.4924 152.5806
v -20.7400 126.2935 152.5017
v 10.6000 10.2156 160.3795
v 10.6000 36.8026 150.6089
v 10.6000 64.8388 145.0199
v 13.8000 65.9182 150.4563
v 10.6000 124.2595 147.2175
v 13.8000 7.4041 155.6030
v 13.8000 35.2496 145.2883
v 13.8000 63.7594 139.5834
v 13.8000 38.3556 155.9294
v 13.8000 124.8899 141.7110
v 20.2000 7.4041 155.6030
v 20.2000 35.2496 145.2884
v 20.2000 63.7594 139.5834
v 13.8000 13.0271 165.1561
v 20.2000 124.8899 141.7110
v 23.4000 10.2156 160.3795
v 23.4000 36.8026 150.6089
v 23.4000 64.8388 145.0199
v 13.8000 123.6290 152.7241
v 23.4000 124.2595 147.2175
v 20.2000 13.0271 165.1561
v 20.2000 38.3556 155.9294
v 20.2000 65.9182 150.4563
v 20.2000 123.6290 152.7241
v 7.7840 9.2587 159.8555
v 10.1648 21.9631 155.3307
v 12.3920 5.8849 154.1236
v 13.4979 20.0995 148.9460
v 13.1600 23.8267 161.7153
v 21.6080 5.8849 154.1236
v 20.5021 20.0995 148.9460
v 12.3920 12.6325 165.5873
v 26.2160 9.2587 159.8555
v 23.8352 21.9631 155.3307
v 21.6080 12.6325 165.5873
v 20.8400 23.8267 161.7153
v 10.0602 112.5516 146.6150
v 13.0600 115.4924 152.5806
v 9.2200 125.3128 145.9233
v 13.0600 109.6108 140.6494
v 13.0600 124.3320 139.3450
v 20.7400 109.6108 140.6494
v 20.7400 124.3320 139.3450
v 23.7614 112.5516 146.6151
v 13.0600 126.2935 152.5017
v 24.5800 125.3128 145.9233
v 20.7400 115.4924 152.5806
v 20.7400 126.2935 152.5017
v -98.6000 10.2156 160.3795
v -98.6000 36.8026 150.6089
v -98.6000 64.8388 145.0199
v -101.8000 65.9182 150.4563
v -98.6000 124.2595 147.2175
v -101.8000 7.4041 155.6030
v -101.8000 35.2496 145.2883
v -101.8000 63.7594 139.5834
v -101.8000 38.3556 155.9294
v -101.8000 124.8899 141.7110
v -108.2000 7.4041 155.6030
v -108.2000 35.2496 145.2884
v -108.2000 63.7594 139.5834
v -101.8000 13.0271 165.1561
v -108.2000 124.8899 141.7110
v -111.4000 10.2156 160.3795
v -111.4000 36.8026 150.6089
v -111.4000 64.8388 145.0199
v -101.8000 123.6290 152.7241
v -111.4000 124.2595 147.2175
v -108.2000 13.0271 165.1561
v -108.2000 38.3556 155.9294
v -108.2000 65.9182 150.4563
v -108.2000 123.6290 152.7241
v -95.7840 9.2587 159.8555
v -98.1648 21.9631 155.3307
v -100.3920 5.8849 154.1236
v -101.4979 20.0995 148.9460
v -101.1600 23.8267 161.7153
v -109.6080 5.8849 154.1236
v -108.5021 20.0995 148.9460
v -100.3920 12.6325 165.5873
v -114.2160 9.2587 159.8555
v -111.8352 21.9631 155.3307
v -109.6080 12.6325 165.5873
v -108.8400 23.8267 161.7153
v -98.0602 112.5516 146.6150
v -101.0600 115.4924 152.5806
v -97.2200 125.3128 145.9233
v -101.0600 109.6108 140.6494
v -101.0600 124.3320 139.3450
v -108.7400 109.6108 140.6494
v -108.7400 124.3320 139.3450
v -111.7614 112.5516 146.6151
v -101.0600 126.2935 152.5017
v -112.5800 125.3128 145.9233
v -108.7400 115.4924 152.5806
v -108.7400 126.2935 152.5017
v 98.6000 10.2156 160.3795
v 98.6000 36.8026 150.6089
v 98.6000 64.8388 145.0199
v 101.8000 65.9182 150.4563
v 98.6000 124.2595 147.2175
v 101.8000 7.4041 155.6030
v 101.8000 35.2496 145.2883
v 101.8000 63.7594 139.5834
v 101.8000 38.3556 155.9294
v 101.8000 124.8899 141.7110
v 108.2000 7.4041 155.6030
v 108.2000 35.2496 145.2884
v 108.2000 63.7594 139.5834
v 101.8000 13.0271 165.1561
v 108.2000 124.8899 141.7110
v 111.4000 10.2156 160.3795
v 111.4000 36.8026 150.6089
v 111.4000 64.8388 145.0199
v 101.8000 123.6290 152.7241
v 111.4000 124.2595 147.2175
v 108.2000 13.0271 165.1561
v 108.2000 38.3556 155.9294
v 108.2000 65.9182 150.4563
v 108.2000 123.6290 152.7241
v 95.7840 9.2587 159.8555
v 98.1648 21.9631 155.3307
v 100.3920 5.8849 154.1236
v 101.4979 20.0995 148.9460
v 101.1600 23.8267 161.7153
v 109.6080 5.8849 154.1236
v 108.5021 20.0995 148.9460
v 100.3920 12.6325 165.5873
v 114.2160 9.2587 159.8555
v 111.8352 21.9631 155.3307
v 109.6080 12.6325 165.5873
v 108.8400 23.8267 161.7153
v 98.0602 112.5516 146.6150
v 101.0600 115.4924 152.5806
v 97.2200 125.3128 145.9233
v 101.0600 109.6108 140.6494
v 101.0600 124.3320 139.3450
v 108.7400 109.6108 140.6494
v 108.7400 124.3320 139.3450
v 111.7614 112.5516 146.6151
v 101.0600 126.2935 152.5017
v 112.5800 125.3128 145.9233
v 108.7400 115.4924 152.5806
v 108.7400 126.2935 152.5017
v -98.3333 15.0000 175.0000
v -98.3333 15.0000 166.5000
v -115.0000 15.0000 166.4999
v -115.0000 15.0000 175.0000
v -98.3333 4.0000 150.0000
v -98.3333 -0.0000 150.0000
v -115.0000 -0.0000 150.0000
v -115.0000 4.0000 150.0000
v -53.0700 15.0000 175.0000
v -53.0700 15.0000 166.5000
v 98.3333 -0.0000 150.0000
v 98.3333 4.0000 150.0000
v 115.0000 4.0000 150.0000
v 115.0000 -0.0000 150.0000
v 48.2400 -0.0000 150.0000
v 48.2400 4.0000 150.0000
v 98.3333 15.0000 166.5000
v 115.0000 15.0000 166.5000
v 48.2400 15.0000 166.5000
v 98.3333 15.0000 175.0000
v 115.0000 15.0000 175.0000
v 48.2400 15.0000 175.0000
v -0.0000 4.0000 150.0000
v -0.0000 15.0000 166.5000
v -53.0700 4.0000 150.0000
v -0.0000 -0.0000 150.0000
v -53.0700 -0.0000 150.0000
v -0.0000 15.0000 175.0000
v 0.0000 -0.0000 63.1468
v 162.1725 117.2438 0.0000
v 0.0000 1.0000 1.0000
v 1.0000 0.0000 0.0000
v 0.0000 0.0000 -105.0000
v 1.6078 -1.2471 -45.0000
v 2.9843 1.0000 -45.0000
v 2.9843 0.4941 105.0000
v 6.4235 -1.2471 45.0000
v 5.0471 1.0000 -105.0000
v 1.6078 0.4941 -175.0000
v 0.0000 0.4941 -105.0000
v 1.6078 1.0000 -175.0000
v 0.0000 1.0000 105.0000
v 6.4235 0.4941 45.0000
v 5.0471 0.4941 105.0000
v 6.4235 1.0000 175.0000
v 8.0314 0.4941 175.0000
v 8.0314 1.0000 -175.0000
v 0.0000 -1.2471 45.0014
v 5.0471 -1.2471 104.9967
v 6.6588 1.0000 104.9967
v 6.6588 -0.3333 159.4367
v 8.0314 -0.3333 159.4367
v 8.0314 1.0000 104.9967
v 1.0039 -12.2353 104.9967
v 6.4235 -3.0118 159.4367
v 7.6745 -3.0118 159.4367
v 1.0039 -15.0588 175.0000
v 8.0314 -1.2471 159.4367
v 7.6745 -1.2471 45.0015
v 5.1490 1.0000 45.0015
v 5.1490 -0.3333 45.0014
v 1.0039 -9.4078 45.0014
v 5.0471 -3.0118 -104.9967
v 1.3725 1.0000 -104.9967
v 1.3725 -0.3333 -159.4367
v 0.0000 -0.3333 -159.4367
v 0.0000 1.0000 -104.9967
v 1.0039 -1.8196 -104.9967
v 1.6078 -3.0118 -159.4367
v 0.3569 -3.0118 -159.4367
v 1.0039 1.0000 -45.0014
v 2.9843 -1.2471 -159.4367
v 0.3569 -1.2471 -45.0015
v 2.8824 1.0000 -45.0015
v 2.8824 -0.3333 -45.0014
v 1.0039 -4.6471 -45.0014
v 2.9843 -3.0118 -50.0014
v 0.0000 -4.1569 -99.9967
v 0.0000 -7.0275 -100.0000
v 0.0000 -9.6000 -50.0014
v 0.0000 -1.5804 50.0014
v 0.0000 -15.2392 50.0014
v 0.0000 -13.0667 99.9967
v 0.0000 -10.1961 100.0000
v 0.0000 -8.0235 100.0000
v 0.0000 -5.0353 50.0000
v 0.0000 -2.1647 -100.0000
v 0.0000 -12.1882 -50.0000
v 0.0000 -15.0588 -33.2015
v 3.2549 -1.2471 -33.2015
v 3.2549 -2.5922 33.8014
v 4.7922 -1.2471 33.8014
v 4.7922 -2.5922 -33.2015
v 1.0039 -5.4588 -33.2015
v 3.1804 -0.3333 33.8015
v 1.0039 -8.6157 33.8015
v 4.8667 -0.3333 -33.2015
v 3.1804 1.0000 33.8015
v 4.8667 1.0000 -33.2000
v 3.2549 1.0000 -33.2000
v 3.2549 0.4941 33.8000
v 4.7922 1.0000 33.8000
v 4.7922 0.4941 159.4367
v 0.0000 -15.0588 104.9967
v 0.0000 -12.2784 45.0014
v 0.0000 -9.4980 33.8014
v 0.0000 -8.5882 -33.2015
v 0.0000 -5.4824 -45.0014
v 0.0000 -4.5569 -104.9967
v 0.0000 -1.7765 -159.4367
v 0.0000 1.0000 -159.4367
v 0.0000 1.0000 -45.0014
v 1.0039 -4.0980 -45.0014
v 1.0039 -4.0980 -104.9967
v 1.0039 -7.0275 -105.0000
v 1.0039 -9.5922 -105.0000
v 1.0039 -12.1294 -45.0000
v 1.0039 -15.0588 -45.0014
v 1.0039 -1.5333 -45.0014
v 1.0039 -4.0980 45.0014
v 1.0039 -12.6745 104.9967
v 1.0039 -9.7451 105.0000
v 1.0039 -7.1843 105.0000
v 1.0039 -4.6431 45.0000
v 1.0039 -1.7137 45.0014
v 1.0039 -15.2392 45.0014
v 1.0039 -12.6745 159.4367
v 8.0314 -2.3412 104.9967
v 6.6588 -3.0118 45.0014
v 5.1490 -3.0118 33.8015
v 4.8667 -3.0118 -33.2015
v 3.1804 -3.0118 -45.0014
v 2.8824 -3.0118 -104.9967
v 1.3725 -3.0118 -159.4367
v 0.0000 -2.3412 -159.4367
v 0.0000 -2.3412 0.0000
v 79.7499 92.5000 197.9426
v 0.0000 0.0000 1.0000
v 1.0000 1.0000 0.0000
v 0.0000 66.0892 -152.4662
v 64.4548 0.0000 0.0000
v 1.0000 1.0000 1.0000
v 1.0039 0.0000 0.0000
v -0.4200 79.7500 87.5250
v 175.2385 0.0000 0.0000
v 1.0000 1.0000 1.0000
v 0.0000 -1.0039 0.0000
v 0.0000 -0.0000 79.7499
v 87.5000 211.2850 0.0000
v 0.0000 1.0000 1.0000
v 1.0000 0.0000 0.0000
v 2.0078 0.0353 0.0000
v 0.0000 33.5506 9.0234
v 45.2264 0.0000 0.0000
v 1.0000 1.0000 1.0000
v 1.0000 0.0000 0.0000
v 0.0000 0.0000 66.0892
v 152.4662 64.4548 0.0000
v 0.0000 1.0000 1.0000
v 1.0000 0.0000 0.0000
v 145.0000 46.0000 0.0000
v 181.1646 0.0000 0.0000
v 1.0000 1.0000 1.0000
v 1.0000 0.0000 0.0000
v 0.0000 0.0000 171.7750
v 59.5000 0.0000 137.6294
v 0.0000 0.0000 1.0000
v 1.0000 1.0000 0.0000
v 4.0157 -1.6745 0.0000
v 0.0000 145.0000 46.0000
v 0.0000 181.1646 0.0000
v 0.0000 1.0000 1.0000
v 1.0000 0.0000 0.0000
v 5.0196 1.0000 0.0000
v 0.0000 110.1000 0.0000
v 221.2993 0.0000 0.0000
v 1.0000 1.0000 1.0000
v 1.0000 0.0000 0.0000
v 171.7750 59.5000 0.0000
v 137.6294 0.0000 0.0000
v 1.0000 1.0000 1.0000
v 0.0000 -0.4200 79.7500
v -87.5250 175.2385 0.0000
v 0.0000 1.0000 1.0000
v 1.0000 0.0000 0.0000
v 0.0000 -0.0000 59.2000
v 0.0000 207.6532 0.0000
v 0.0000 1.0000 1.0000
v 1.0000 0.0000 0.0000
v -1.0039 0.0000 0.0000
v -0.0000 79.7499 -87.5000
v 211.2850 0.0000 0.0000
v 1.0000 1.0000 1.0000
v -0.2902 0.0000 0.0000
v 0.0000 79.7500 0.0000
v 249.8102 0.0000 0.0000
v 1.0000 1.0000 1.0000
v 0.0000 0.0000 89.4000
v 0.0000 178.2548 0.0000
v 0.0000 0.0000 20.0000
v 0.0000 1.0000 1.0000
v 1.0000 0.0000 0.0000
v 0.1412 0.0000 0.0000
v 0.0000 0.0000 149.0000
v 0.0000 134.4102 0.0000
v 0.0000 1.0000 1.0000
v 1.0000 0.0000 0.0000
v 1.8353 -0.0039 0.0000
v 0.0000 79.7500 0.0005
v 260.0197 0.0000 0.0000
v 0.0000 -0.2000 -0.2000
v 1.0000 1.0000 1.0000
v 1.0000 0.0000 0.0000
v 0.0000 20.0000 0.0000
v 185.2944 0.0000 0.0000
v -0.0000 126.2437 -0.0000
v 1.0000 1.0000 1.0000
v 0.0000 0.0000 133.0381
v 91.4543 -0.1610 178.8061
v 0.0000 0.0000 1.0000
v 1.0000 1.0000 0.0000
v 113.5036 80.3159 -0.0000
v 117.6223 0.0000 0.0000
v 1.0000 1.0000 1.0000
v 0.6510 0.0980 0.0000
v 0.0000 0.0000 113.5036
v 80.3159 0.0051 44.1314
v 0.0000 0.0000 1.0000
v 1.0000 1.0000 0.0000
v 0.4549 0.0000 0.0000
v 0.0000 129.5150 52.5074
v 0.0000 63.3943 0.0000
v 0.0000 1.0000 1.0000
v 1.0000 0.0000 0.0000
v 0.4549 0.0000 0.0000
v 0.0000 129.5150 52.5074
v 0.0000 128.8694 0.0000
v 0.0000 1.0000 1.0000
v 1.0000 0.0000 0.0000
v -2.0078 0.0000 0.0000
v 0.0000 0.0000 -1.7574
v 36.5091 0.0000 0.0000
v 113.1000 5.0000 0.0000
v 1.0000 1.0000 1.0000
v 125.0000 125.0000 0.0000
v 152.0690 0.0000 0.0000
v 1.0000 1.0000 1.0000
v 0.0000 68.2181 59.4062
v -0.2353 74.9000 56.8333
v -0.0824 64.9000 38.5000
v 1.0000 62.6593 43.4562
v 0.7059 31.8000 56.8333
v -0.0824 41.8000 38.5000
v 1.0000 44.0407 43.4562
v 0.7059 38.4819 59.4062
v -0.2353 74.9000 71.1667
v -0.9333 70.1635 71.8762
v -0.9765 70.7193 131.7613
v -4.5294 74.9000 140.0000
v -5.0196 35.9807 131.7613
v -4.5294 31.8000 140.0000
v -5.0196 31.8000 71.1667
v -0.9333 36.5365 71.8762
v -0.9765 35.8850 0.0000
v 0.0000 45.8850 35.3333
v 0.0000 35.8850 35.3333
v 0.0000 35.8850 59.0000
v 1.0000 38.3850 0.0000
v 0.3294 45.8850 59.0000
v 1.0000 38.3850 35.3333
v 0.0000 38.3850 59.0000
v 1.0000 43.3850 0.0000
v 0.6667 45.8850 0.0000
v 1.0000 43.3850 35.3333
v 0.0000 43.3850 59.0000
v 1.0000 68.8850 0.0000
v 0.0000 58.8850 35.3333
v 0.0000 68.8850 35.3333
v 0.0000 68.8850 59.0000
v 1.0000 66.3850 0.0000
v 0.3294 58.8850 59.0000
v 1.0000 66.3850 35.3333
v 0.0000 66.3850 59.0000
v 1.0000 61.3850 0.0000
v 0.6667 58.8850 0.0000
v 1.0000 61.3850 35.3333
v 0.0000 61.3850 59.0000
v 1.0000 -68.2181 59.4062
v -0.2353 -74.9000 56.8333
v -0.0824 -64.9000 38.5000
v 1.0000 -62.6593 43.4562
v 0.7059 -31.8000 56.8333
v -0.0824 -41.8000 38.5000
v 1.0000 -44.0407 43.4562
v 0.7059 -38.4819 59.4062
v -0.2353 -74.9000 71.1667
v -0.9333 -70.1635 71.8762
v -0.9765 -70.7193 131.7613
v -4.5294 -74.9000 140.0000
v -5.0196 -35.9807 131.7613
v -4.5294 -31.8000 140.0000
v -5.0196 -31.8000 71.1667
v -0.9333 -36.5365 71.8762
v -0.9765 -35.8849 0.0000
v 0.0000 -45.8849 35.3333
v 0.0000 -35.8849 35.3333
v 0.0000 -35.8849 59.0000
v 1.0000 -38.3849 0.0000
v 0.3294 -45.8849 59.0000
v 1.0000 -38.3849 35.3333
v 0.0000 -38.3849 59.0000
v 1.0000 -43.3849 0.0000
v 0.6667 -45.8849 0.0000
v 1.0000 -43.3849 35.3333
v 0.0000 -43.3849 59.0000
v 1.0000 -68.8849 0.0000
v 0.0000 -58.8849 35.3333
v 0.0000 -68.8849 35.3333
v 0.0000 -68.8849 59.0000
v 1.0000 -66.3849 0.0000
v 0.3294 -58.8849 59.0000
v 1.0000 -66.3849 35.3333
v 0.0000 -66.3849 59.0000
v 1.0000 -61.3849 0.0000
v 0.6667 -58.8849 0.0000
v 1.0000 -61.3849 35.3333
v 0.0000 -61.3849 59.0000
v 1.0000 45.8850 35.3333
v 1.0000 43.3850 35.3333
v 0.6667 38.3850 35.3333
v 0.3294 35.8850 35.3333
v 0.0000 35.8850 35.3333
v 0.0000 58.8850 35.3333
v 1.0000 58.8850 35.3333
v 1.0000 61.3850 35.3333
v 0.6667 66.3850 35.3333
v 0.3294 68.8850 35.3333
v 0.0000 -45.8849 35.3333
v 1.0000 -45.8849 35.3333
v 1.0000 -43.3849 35.3333
v 0.6667 -38.3849 35.3333
v 0.3294 -35.8849 35.3333
v 0.0000 -58.8849 35.3333
v 1.0000 -61.3849 35.3333
v 0.6667 -66.3849 35.3333
v 0.3294 -68.8849 35.3333
v 70.0000 167.5825 75.2828
v 0.0000 0.0000 1.0000
v 1.0000 1.0000 0.0000
v 0.0000 -125.0000 3.1205
v 1.0000 -75.0000 3.1205
v 1.0000 -25.0000 3.1205
v 1.0000 25.0000 3.1205
v 1.0000 75.0000 3.1205
v 1.0000 125.0000 3.1205
v 1.0000 -125.0000 -3.1205
v 0.0000 -75.0000 -3.1205
v 0.0000 -25.0000 -3.1205
v 0.0000 25.0000 -3.1205
v 0.0000 75.0000 -3.1205
v 0.0000 125.0000 -3.1205
v 0.0000 -125.0000 -2.9330
v 0.3294 -75.0000 -2.9330
v 0.3294 -25.0000 -2.9330
v 0.3294 25.0000 -2.9330
v 0.3294 75.0000 -2.9330
v 0.3294 125.0000 -2.9330
v 0.3294 -125.0000 0.1875
v 0.6667 -75.0000 0.1875
v 0.6667 -25.0000 0.1875
v 0.6667 25.0000 0.1875
v 0.6667 75.0000 0.1875
v 0.6667 125.0000 0.1875
v 0.6667 0.0000 0.0000
v 0.0000 0.0000 -0.9549
v 125.0258 0.0000 0.0000
v 0.0000 53.6000 175.0000
v 1.0000 1.0000 1.0000
v 125.0000 20.0000 0.0000
v 75.0000 20.0000 0.0000
v 25.0000 20.0000 0.0000
v -25.0000 20.0000 0.0000
v -75.0000 20.0000 0.0000
v -125.0000 20.0000 0.0000
v 125.0000 -20.0000 0.0000
v 75.0000 -20.0000 0.0000
v 25.0000 -20.0000 0.0000
v -25.0000 -20.0000 0.0000
v -75.0000 -20.0000 0.0000
v -125.0000 -20.0000 0.0000
v 125.0000 -10.0000 17.3205
v 75.0000 -10.0000 17.3205
v 25.0000 -10.0000 17.3205
v -25.0000 -10.0000 17.3205
v -75.0000 -10.0000 17.3205
v -125.0000 -10.0000 17.3205
v 125.0000 10.0000 17.3205
v 75.0000 10.0000 17.3205
v 25.0000 10.0000 17.3205
v -25.0000 10.0000 17.3205
v -75.0000 10.0000 17.3205
v -125.0000 10.0000 17.3205
v 0.0000 8.6603 125.2996
v 35.0000 175.0000 0.0000
v 0.0000 0.0000 1.0000
v 1.0000 1.0000 0.0000
v 0.0000 0.0000 13.0000
v 0.0000 -2.5137 13.0000
v 0.0000 1.0000 13.0000
v 0.0000 0.5020 -3.5000
v 0.0000 -0.0510 13.0000
v 0.0000 -3.0118 -3.5000
v 0.0000 -1.9569 -12.0000
v 0.0000 1.0000 -12.0000
v 0.0000 -3.0118 13.0000
v 0.0000 0.8745 13.0000
v 0.0000 1.0000 -3.5000
v 0.0000 0.2588 -12.0000
v 0.0000 0.0000 -12.0000
v 2.0078 0.0000 -3.5000
v 2.0078 0.2588 13.0000
v 2.0078 0.8745 13.0000
v 2.0078 1.0000 13.0000
v 1.0039 1.0000 13.0000
v 1.0039 0.5020 -3.5000
v 1.0039 -1.9569 -12.0000
v 1.0039 -3.0118 -12.0000
v 1.0039 -3.0118 13.0000
v 1.0039 -3.0118 13.0000
v 1.0039 -3.0118 13.0000
v 1.0039 -2.5137 -3.5000
v 1.0039 -0.0510 -12.0000
v 1.0039 1.0000 0.0000
v 0.5000 2.5000 -2.1000
v 33.2399 0.0000 0.0000
v 2.1000 5.0000 163.0000
v 1.0000 1.0000 1.0000
v 0.0000 125.0000 53.1000
v 1.0000 100.0000 53.1000
v 1.0000 25.0000 53.1000
v 1.0000 -125.0000 53.1000
v 1.0000 -100.0000 53.1000
v 1.0000 -25.0000 53.1000
v 1.0000 125.0000 100.0000
v 0.0275 100.0000 100.0000
v 0.0275 25.0000 100.0000
v 0.0275 -25.0000 150.0000
v -1.0039 -125.0000 100.0000
v 0.0275 -100.0000 100.0000
v 0.0275 -25.0000 100.0000
v 0.0275 -125.0000 150.0000
v -1.0039 125.0000 150.0000
v -1.0039 100.0000 150.0000
v -1.0039 25.0000 150.0000
v -1.0039 -100.0000 150.0000
v -1.0039 0.0000 0.0000
v 0.0000 0.0000 101.5500
v 162.5000 125.6235 0.0000
v 0.0000 1.0000 1.0000
v 1.0000 0.0000 0.0000
v 0.0000 0.0000 -118.8349
v -0.0392 0.4431 -118.8349
v 0.9608 0.4431 -121.0000
v -0.0392 0.2902 -121.0000
v 0.9608 0.2902 -123.1651
v -0.0392 0.4431 -123.1651
v 0.9608 0.4431 -123.1651
v -0.0392 0.5843 -123.1651
v 0.9608 0.5843 -121.0000
v -0.0392 0.7059 -121.0000
v 0.9608 0.7059 -118.8349
v -0.0392 0.5843 -118.8349
v 0.9608 0.5843 -121.0000
v 0.2471 0.9843 -121.0000
v 0.7647 1.0000 -116.6699
v 0.8353 0.6510 -116.6699
v 0.8353 0.0000 -116.6699
v 0.8353 0.0000 -116.6699
v 0.8353 0.6980 -121.0000
v 0.6706 0.6510 -121.0000
v 0.6706 0.0000 -121.0000
v 0.6706 0.0000 -121.0000
v 0.6706 0.6980 -125.3301
v 0.5020 0.6510 -125.3301
v 0.5020 0.0000 -125.3301
v 0.5020 0.0000 -125.3301
v 0.5020 0.6980 -125.3301
v 0.3333 0.6510 -125.3301
v 0.3333 0.0000 -125.3301
v 0.3333 0.0000 -125.3301
v 0.3333 0.6980 -121.0000
v 0.1686 0.6510 -121.0000
v 0.1686 0.0000 -121.0000
v 0.1686 0.0000 -121.0000
v 0.1686 0.6980 -116.6699
v 0.0000 0.6510 -116.6699
v 1.0039 0.0000 -116.6699
v 1.0039 0.0000 -116.6699
v 1.0039 0.6980 -125.0500
v 2.0078 0.0000 -125.0500
v 1.0039 1.0000 -125.0500
v 1.0039 0.0000 -125.0500
v 0.0000 0.0000 -120.7199
v 2.0078 0.3294 -125.0500
v 0.0000 1.0000 -120.7199
v 1.0039 0.3294 -120.7199
v 0.0000 0.3294 -120.7199
v 2.0078 0.6667 -125.0500
v 2.0078 1.0000 -120.7199
v 1.0039 0.6667 -120.7199
v 0.0000 0.6667 -125.0500
v 2.0078 0.0000 -125.0500
v 1.0039 1.0000 -125.0500
v 1.0039 0.0000 -125.0500
v 0.0000 0.0000 -120.7199
v 2.0078 0.3294 -125.0500
v 0.0000 1.0000 -120.7199
v 1.0039 0.3294 -120.7199
v 0.0000 0.3294 -120.7199
v 2.0078 0.6667 -125.0500
v 2.0078 1.0000 -120.7199
v 1.0039 0.6667 -120.7199
v 0.0000 0.6667 -125.0500
v 1.0039 0.0000 -125.0500
v 0.0000 1.0000 -125.0500
v 0.0000 0.0000 -115.2199
v 1.0039 0.4000 -120.2199
v 0.0000 0.3490 -115.2199
v 1.0039 0.5961 -125.0500
v 1.0039 1.0000 -120.2199
v 0.0000 0.6471 -125.0500
v 1.0039 0.0000 -125.0500
v 0.0000 1.0000 -125.0500
v 0.0000 0.0000 -115.2199
v 1.0039 0.4000 -120.2199
v 0.0000 0.3490 -115.2199
v 1.0039 0.5961 -125.0500
v 1.0039 1.0000 -120.2199
v 0.0000 0.6471 -125.0300
v 0.0000 -7.5255 -118.5000
v 0.4510 -7.3608 -118.5000
v 0.4941 -5.9020 -125.0300
v 0.0000 -6.0118 -118.5000
v 1.5804 -5.6118 -125.0300
v 2.0078 -5.5137 -125.0300
v 2.0078 -8.6431 -118.5000
v 1.5647 -8.6353 -118.5000
v 1.5647 -11.0431 -125.0300
v 2.0078 -11.0431 -118.5000
v 1.5686 -7.0471 -118.5000
v 0.4431 -8.6196 -125.0300
v 0.0000 -8.6275 -125.0300
v 0.0000 -11.0431 -118.5000
v 0.4431 -11.0431 -125.0300
v 2.0078 -6.9333 -125.0300
v 0.0000 -2.5255 -118.5000
v 0.4510 -2.6902 -118.5000
v 0.4941 -4.1451 -125.0300
v 0.0000 -4.0392 -118.5000
v 1.5804 -4.4392 -125.0300
v 2.0078 -4.5373 -125.0300
v 2.0078 -1.4039 -118.5000
v 1.5647 -1.4118 -118.5000
v 1.5647 1.0000 -125.0300
v 2.0078 1.0000 -118.5000
v 1.5686 -3.0000 -118.5000
v 0.4431 -1.4314 -125.0300
v 0.0000 -1.4235 -125.0300
v 0.0000 1.0000 -118.5000
v 0.4431 1.0000 -125.0300
v 2.0078 -3.1176 -125.7236
v 1.0039 0.0000 -99.0463
v 0.0000 1.0000 -99.0463
v 0.0000 0.0000 -125.7236
v 1.0039 0.4000 -99.0463
v 0.0000 0.3490 -125.7236
v 1.0039 0.5961 -125.7236
v 1.0039 1.0000 -99.0463
v 0.0000 0.6471 -125.7236
v 1.0039 0.0000 -99.0463
v 0.0000 1.0000 -99.0463
v 0.0000 0.0000 -125.7236
v 1.0039 0.4000 -99.0463
v 0.0000 0.3490 -125.7236
v 1.0039 0.5961 -125.7236
v 1.0039 1.0000 -99.0463
v 0.0000 0.6471 -116.6699
v 0.0000 0.6980 -116.6699
v 0.0000 0.0000 -116.6699
v 0.0000 0.0000 -116.6699
v 1.0039 0.6510 -116.6699
v 0.0000 0.0000 -121.0000
v 0.2706 1.0000 -116.6699
v 0.0000 0.6980 -116.6699
v 0.0000 0.6980 -116.6699
v 1.0039 0.6510 -116.6699
v 1.0039 0.6510 -121.0000
v 0.7569 0.9922 -125.3301
v 0.0000 0.7490 -125.3301
v 0.0000 0.2471 -121.0000
v 0.5020 1.0000 -121.0000
v 0.5020 0.0000 -116.6699
v 1.0039 0.7490 -116.6699
v 1.0039 0.2471 -116.6699
v 1.0039 0.2471 -116.6699
v 1.0039 0.7490 -116.6699
v 1.0039 0.7490 -116.6699
v 1.0039 0.2471 -121.0000
v 0.5020 1.0000 -121.0000
v 0.5020 0.0000 -125.3301
v 0.0000 0.7490 -125.3301
v 0.0000 0.2471 -125.0500
v 0.0000 1.0000 -120.7199
v 0.0000 0.6667 -120.7199
v 0.0000 0.3294 -125.0500
v 0.0000 0.0000 -125.0500
v 0.0000 0.0000 -125.0500
v 0.0000 0.0000 -120.7199
v 0.0000 0.3294 -120.7199
v 0.0000 0.6667 -125.0500
v 0.0000 1.0000 0.0000
v 0.0000 -112.3849 54.1685
v 0.1610 183.5652 0.0000
v 0.0000 1.0000 1.0000
v 1.0000 0.0000 0.0000
v 0.0000 125.0000 0.0000
v 1.0000 125.0000 0.0000
v 1.0000 125.0000 0.0000
v 1.0000 125.0000 0.0000
v 1.0000 125.0000 0.0000
v 1.0000 125.0000 0.0000
v 1.0000 125.0000 0.0000
v 1.0000 125.0000 0.0000
v 1.0000 125.0000 50.0000
v -0.3333 125.0000 50.0000
v -0.3333 125.0000 40.0000
v -0.0667 125.0000 40.0000
v -0.0667 125.0000 50.0000
v -0.3333 125.0000 50.0000
v -0.3333 125.0000 50.0000
v -0.3333 125.0000 50.0000
v -0.3333 125.0000 100.0000
v -1.6745 125.0000 100.0000
v -1.6745 125.0000 150.0000
v -3.0118 125.0000 150.0000
v -3.0118 125.0000 100.0000
v -1.6745 125.0000 100.0000
v -1.6745 125.0000 100.0000
v -1.6745 125.0000 100.0000
v -1.6745 125.0000 150.0000
v -3.0118 125.0000 150.0000
v -3.0118 125.0000 150.0000
v -3.0118 125.0000 150.0000
v -3.0118 0.0000 0.0000
v 0.0000 0.0000 125.0000
v 75.0000 0.0000 167.7051
v 0.0000 0.0000 1.0000
v 1.0000 1.0000 0.0000
v 70.0000 166.5825 102.8633
v 0.0000 0.0000 1.0000
v 1.0000 1.0000 0.0000
v 0.4000 -3.0118 0.0000
v 75.0000 162.5000 146.3088
v 0.0000 0.0000 1.0000
v 1.0000 1.0000 0.0000
v 0.0000 0.0000 21.5000
v 2.2500 30.8434 0.0000
v 0.0000 1.0000 1.0000
v 1.0000 0.0000 0.0000
v 0.0000 0.0000 91.5000
v 134.9600 0.0000 178.8946
v 0.0000 0.0000 1.0000
v 1.0000 1.0000 0.0000
v 0.0000 0.0000 91.5000
v 134.9600 0.0000 178.8946
v 0.0000 0.0000 1.0000
v 1.0000 1.0000 0.0000
v 75.0000 -12.5000 218.3031
v 0.0000 0.0000 1.0000
v 1.0000 1.0000 0.0000
v 70.0000 -166.5000 42.9244
v -40.0000 0.0000 0.0000
v 0.0000 0.0000 1.0000
v 1.0000 1.0000 0.0000
v 2.0078 -1.2667 0.0000
v 0.0000 94.9000 0.0000
v 130.1405 0.0000 0.0000
v 0.0000 31.0000 0.0000
v 1.0000 1.0000 1.0000
v 0.0000 0.0000 -77.9000
v 46.0000 0.0000 186.9744
v 0.0000 0.0000 1.0000
v 1.0000 1.0000 0.0000
v 0.0000 70.0000 -167.5825
v 102.7863 0.0000 0.0000
v 1.0000 1.0000 1.0000
v 0.5490 0.0000 0.0000
v 0.0000 -77.9000 46.0000
v -0.0000 186.9744 0.0000
v 0.0000 1.0000 1.0000
v 1.0000 0.0000 0.0000
v 1.0000 0.0000 0.0000
v 0.0000 0.0000 -112.3849
v 54.1685 -0.1610 178.1357
v 0.0000 0.0000 1.0000
v 1.0000 1.0000 0.0000
v 0.0000 -2.0078 0.0000
v 1.7574 36.5091 0.0000
v 0.0000 1.0000 1.0000
v 1.0000 0.0000 0.0000
v -2.0078 0.0000 0.0000
v 0.0000 0.0000 -1.7574
v 36.5091 0.0000 0.0000
v 113.1000 5.0000 -75.0000
v 1.0000 1.0000 1.0000
v 0.0000 201.5565 0.0000
v 0.0000 0.0000 150.0000
v 0.0000 1.0000 1.0000
v 1.0000 0.0000 0.0000
v -0.6667 0.0000 0.0000
v 69.9500 101.0000 145.2859
v 0.0000 0.0000 1.0000
v 1.0000 1.0000 0.0000
v 0.5647 0.0000 0.0000
v 70.0000 112.2802 143.8290
v 0.0000 0.0000 1.0000
v 1.0000 1.0000 0.0000
v 0.0000 0.0000 7.5000
v 112.5000 125.8471 0.0000
v 0.0000 1.0000 1.0000
v 1.0000 0.0000 0.0000
v -1.0039 0.0000 0.0000
v 0.0000 -0.0000 39.0000
v 13.0000 55.3082 0.0000
v 0.0000 1.0000 1.0000
v 1.0000 0.0000 0.0000
v -4.3686 0.0000 0.0000
v 0.0000 0.0000 70.0000
v -1.4547 191.0911 0.0000
v 0.0000 1.0000 1.0000
v 1.0000 0.0000 0.0000
v 0.8941 0.0000 0.0000
v 0.0000 0.0000 55.0000
v 0.0702 109.8437 0.0000
v 0.0000 1.0000 1.0000
v 1.0000 0.0000 0.0000
v 1.0000 0.0000 0.0000
v 0.0000 0.0000 26.7500
v 0.0000 106.6094 0.0000
v 0.0000 1.0000 1.0000
v 1.0000 0.0000 0.0000
v 4.0157 -1.0039 0.0000
v 0.0000 0.0116 77.4916
v -0.0370 93.7361 0.0000
v 0.0000 1.0000 1.0000
v 1.0000 0.0000 0.0000
v 0.1922 0.0667 0.0000
v 0.0000 0.0000 32.6933
v 1.6000 56.8777 0.0000
v 0.0000 1.0000 1.0000
v 1.0000 0.0000 0.0000
v 1.0000 0.0000 0.0000
v 0.0000 0.0000 30.0000
v 0.0000 57.8792 0.0000
v 0.0000 1.0000 1.0000
v 1.0000 0.0000 0.0000
v -2.5000 31.5000 -2.2956
v 63.0692 0.0000 0.0000
v 1.0000 1.0000 1.0000
v 0.1608 0.2510 0.0000
v 0.0000 0.0000 31.0000
v 0.0000 72.7255 0.0000
v 0.0000 1.0000 1.0000
v 1.0000 0.0000 0.0000
v 0.9922 0.0000 0.0000
v 0.0000 -4.5000 30.0000
v -4.5000 69.0326 0.0000
v 0.0000 1.0000 1.0000
v 1.0000 0.0000 0.0000
v 0.0000 1.0000 0.0000
v 0.0000 -22.0000 22.5000
v -22.0000 42.0030 0.0000
v 0.0000 1.0000 1.0000
v 1.0000 0.0000 0.0000
v 30.0000 -0.0000 75.0000
v 0.0000 0.0000 1.0000
v 1.0000 1.0000 0.0000
v 0.9765 0.4980 0.0000
v 0.0000 54.5000 0.0000
v 20.7425 0.0000 0.0000
v 1.0000 1.0000 1.0000
v 0.6196 0.0000 0.0000
v 32.5000 2.5000 32.5000
v 17.8536 0.0000 0.0000
v 1.0000 1.0000 1.0000
v 2.0078 1.0000 0.0000
v 0.0000 30.0000 -75.0000
v 57.8792 0.0000 0.0000
v 1.0000 1.0000 1.0000
v 0.0000 0.0000 30.0000
v 75.0000 57.8792 0.0000
v 0.0000 1.0000 1.0000
v 1.0000 0.0000 0.0000
v 1.0000 0.0000 0.0000
v 30.0000 125.0000 57.8792
v 0.0000 0.0000 1.0000
v 1.0000 1.0000 0.0000
v 2.0078 1.0000 0.0000
v 0.0000 30.0000 -25.0000
v 57.8792 0.0000 0.0000
v 1.0000 1.0000 1.0000
v 0.0000 0.0000 41.1933
v 125.0000 60.1460 0.0000
v 0.0000 1.0000 1.0000
v 1.0000 0.0000 0.0000
v 0.0667 0.0000 0.0000
v 41.1933 -25.0000 60.1460
v 0.0000 0.0000 1.0000
v 1.0000 1.0000 0.0000
v 2.2000 0.0667 0.0000
v 41.1933 -125.0000 60.1460
v 0.0000 0.0000 1.0000
v 1.0000 1.0000 0.0000
v 0.0000 41.1933 25.0000
v 60.1460 0.0000 0.0000
v 1.0000 1.0000 1.0000
v 0.4627 0.0000 0.0000
v 28.5000 -75.0000 56.7032
v 0.0000 0.0000 1.0000
v 1.0000 1.0000 0.0000
v 0.1608 0.4627 0.0000
v 0.0000 28.5000 75.0000
v 56.7032 0.0000 0.0000
v 1.0000 1.0000 1.0000
v 0.0000 0.0000 30.0000
v -125.0000 57.8792 0.0000
v 0.0000 1.0000 1.0000
v 1.0000 0.0000 0.0000
v 1.0000 0.0000 0.0000
v 30.0000 25.0000 57.8792
v 0.0000 0.0000 1.0000
v 1.0000 1.0000 0.0000
v 2.0078 1.0000 0.0000
v 0.0000 30.0000 -50.0000
v 57.8792 0.0000 0.0000
v 1.0000 1.0000 1.0000
v 0.0000 0.0000 30.0000
v -0.0000 57.8792 0.0000
v 0.0000 1.0000 1.0000
v 1.0000 0.0000 0.0000
v 0.9216 0.0000 0.0000
v 0.0000 28.5000 50.0000
v 56.7032 0.0000 0.0000
v 1.0000 1.0000 1.0000
v 0.0667 0.0000 0.0000
v 41.1933 -0.0000 60.1460
v 0.0000 0.0000 1.0000
v 1.0000 1.0000 0.0000
v 2.2000 0.0667 0.0000
v 41.1933 -100.0000 60.1460
v 0.0000 0.0000 1.0000
v 1.0000 1.0000 0.0000
v 0.0000 41.1933 100.0000
v 60.1460 0.0000 0.0000
v 1.0000 1.0000 1.0000
v 0.4627 0.0000 0.0000
v 28.5000 -50.0000 56.7032
v 0.0000 0.0000 1.0000
v 1.0000 1.0000 0.0000
v 2.0078 1.0000 0.0000
v 0.0000 30.0000 50.0000
v 57.8792 0.0000 0.0000
v 1.0000 1.0000 1.0000
v 0.0000 0.0000 30.0000
v -100.0000 57.8792 0.0000
v 0.0000 1.0000 1.0000
v 1.0000 0.0000 0.0000
v 1.0000 0.0000 0.0000
v 30.0000 100.0000 57.8792
v 0.0000 0.0000 1.0000
v 1.0000 1.0000 0.0000
v 2.0078 1.0000 0.0000
v 0.0000 30.0000 -25.0000
v 57.8792 0.0000 0.0000
v 1.0000 1.0000 1.0000
v 0.0000 0.0000 30.0000
v -75.0000 57.8792 0.0000
v 0.0000 1.0000 1.0000
v 1.0000 0.0000 0.0000
v 0.9216 0.0000 0.0000
v 0.0000 28.5000 25.0000
v 56.7032 0.0000 0.0000
v 1.0000 1.0000 1.0000
v 0.0667 0.0000 0.0000
v 41.1933 -75.0000 60.1460
v 0.0000 0.0000 1.0000
v 1.0000 1.0000 0.0000
v 2.2000 0.0667 0.0000
v 41.1933 75.0000 60.1460
v 0.0000 0.0000 1.0000
v 1.0000 1.0000 0.0000
v 0.0000 0.0000 28.5000
v -25.0000 56.7032 0.0000
v 0.0000 1.0000 1.0000
v 1.0000 0.0000 0.0000
v 1.0000 0.0000 0.0000
v 30.0000 25.0000 57.8792
v 0.0000 0.0000 1.0000
v 1.0000 1.0000 0.0000
v 2.0078 1.0000 0.0000
v 0.0000 30.0000 75.0000
v 57.8792 0.0000 0.0000
v 1.0000 1.0000 1.0000
v 0.0000 0.0000 30.0000
v -50.0000 57.8792 0.0000
v 0.0000 1.0000 1.0000
v 1.0000 0.0000 0.0000
v 1.0000 0.0000 0.0000
v 30.0000 -0.0000 57.8792
v 0.0000 0.0000 1.0000
v 1.0000 1.0000 0.0000
v 0.9373 0.9216 0.0000
v 0.0000 0.0000 28.5000
v 50.0000 56.7032 0.0000
v 0.0000 1.0000 1.0000
v 1.0000 0.0000 0.0000
v 0.9882 0.9137 0.0000
v 0.0000 19.0000 50.1073
v 53.2825 0.0000 0.0000
v 1.0000 1.0000 1.0000
v 0.0000 0.0000 41.1933
v -0.0000 60.1460 0.0000
v 0.0000 1.0000 1.0000
v 1.0000 0.0000 0.0000
v 0.4627 0.0000 0.0000
v 28.5000 -50.0000 56.7032
v 0.0000 0.0000 1.0000
v 1.0000 1.0000 0.0000
v 2.0078 1.0000 0.0000
v 0.0000 30.0000 50.0000
v 57.8792 0.0000 0.0000
v 1.0000 1.0000 1.0000
v 0.0000 0.0000 30.0000
v -25.0000 57.8792 0.0000
v 0.0000 1.0000 1.0000
v 1.0000 0.0000 0.0000
v 0.9216 0.0000 0.0000
v 0.0000 28.5000 25.0000
v 56.7032 0.0000 0.0000
v 1.0000 1.0000 1.0000
v 0.4627 0.0000 0.0000
v 28.5000 -25.0000 56.7032
v 0.0000 0.0000 1.0000
v 1.0000 1.0000 0.0000
v 2.0078 1.0000 0.0000
v 0.0000 30.0000 25.0000
v 57.8792 0.0000 0.0000
v 1.0000 1.0000 1.0000
v 0.0000 0.0000 30.0000
v -0.0000 57.8792 0.0000
v 0.0000 1.0000 1.0000
v 1.0000 0.0000 0.0000
v 0.4627 0.0000 0.0000
v 28.5000 -0.0000 56.7032
v 0.0000 0.0000 1.0000
v 1.0000 1.0000 0.0000
v 0.1922 0.0667 0.0000
v 0.0000 0.0000 32.6933
v -1.6000 56.8777 0.0000
v 0.0000 1.0000 1.0000
v 1.0000 0.0000 0.0000
v 0.0000 30.0000 -0.0000
v 57.8792 0.0000 0.0000
v 1.0000 1.0000 1.0000
v -7.0275 0.0000 0.0000
v 31.5000 0.0000 17.5011
v 0.0000 0.0000 31.0000
v 0.0000 31.0000 0.0000
v 0.0000 0.0000 1.0000
v 1.0000 1.0000 0.0000
v 1.0000 0.0000 0.0000
v 0.0000 -97.5000 0.0000
v 266.0005 0.0000 0.0000
v 1.0000 1.0000 1.0000
v 0.0000 -1.0000 0.0000
v 134.3503 0.0000 0.0000
v 1.0000 1.0000 1.0000
v 0.0000 -1.0000 0.0000
v 106.0660 0.0000 0.0000
v 1.0000 1.0000 1.0000
v 1.0000 0.0000 0.0000
v 0.0000 -100.0000 0.0000
v 266.9269 0.0000 0.0000
v 1.0000 1.0000 1.0000
v 2.1804 -4.0157 0.0000
v 0.0000 0.0000 -85.0000
v 0.0000 261.6773 0.0000
v 0.0000 1.0000 1.0000
v 1.0000 0.0000 0.0000
v -3.0118 0.0000 0.0000
v -95.0000 0.0000 265.0943
v 0.0000 0.0000 1.0000
v 1.0000 1.0000 0.0000
v -100.0000 0.0000 266.9269
v 0.0000 0.0000 1.0000
v 1.0000 1.0000 0.0000
v 24.0941 -3.0118 0.0000
v 0.0000 0.0000 -95.0000
v 0.0000 265.0943 0.0000
v 0.0000 1.0000 1.0000
v 1.0000 0.0000 0.0000
v -5.6902 0.0000 0.0000
v -100.0000 -120.3750 12.5000
v 486.3346 0.0000 0.0000
v 1.0000 1.0000 1.0000
v -6.5569 0.0000 0.0000
v 247.4874 0.0000 0.0000
v 1.0000 1.0000 1.0000
v -4.0510 0.0000 0.0000
v 0.0000 0.0000 201.5565
v 0.0000 0.0000 1.0000
v 1.0000 1.0000 0.0000
v -1.9765 0.0000 0.0000
v 141.4213 0.0000 0.0000
v 1.0000 1.0000 1.0000
v -2.3529 0.0000 0.0000
v 0.0000 -15.0000 0.0000
v 142.2146 0.0000 0.0000
v 1.0000 1.0000 1.0000
v 0.0000 52.5000 -0.0000
v 118.3480 0.0000 0.0000
v 1.0000 1.0000 1.0000
v 0.0000 -0.0000 0.1000
v 0.0000 32.0782 0.0000
v 0.0000 1.0000 1.0000
v 1.0000 0.0000 0.0000
v 0.6980 0.0000 0.0000
v 0.0000 0.0000 14.9500
v 0.1000 14.9500 49.5682
v 0.0000 0.0000 1.0000
v 1.0000 1.0000 0.0000
v -5.0196 0.0000 0.0000
v 0.0000 0.1000 0.0000
v 151.3407 0.0000 0.0000
v 1.0000 1.0000 1.0000
v 0.1000 0.0000 126.6057
v 0.0000 0.0000 1.0000
v 1.0000 1.0000 0.0000
v 0.0000 -3.0118 0.0000
v 0.0000 0.0000 0.1000
v 0.0000 102.0000 0.0000
v 0.0000 1.0000 1.0000
v 1.0000 0.0000 0.0000
v -2.0078 0.0000 0.0000
v 0.0000 0.1000 0.0000
v 77.6467 0.0000 0.0000
v 1.0000 1.0000 1.0000
v 0.1000 0.0000 53.8889
v 0.0000 0.0000 1.0000
v 1.0000 1.0000 0.0000
v 0.0000 0.0000 0.1000
v 0.0000 32.0782 0.0000
v 0.0000 1.0000 1.0000
v 1.0000 0.0000 0.0000
v 0.0000 0.1000 -0.0000
v 32.0782 0.0000 0.0000
v 1.0000 1.0000 1.0000
v -98.9774 -16.6378 232.4245
v 266.5603 0.0000 0.0000
v 1.0000 1.0000 1.0000
v 1.0000 0.0000 0.0000
v 0.0000 -100.9774 -16.6378
v 231.1667 264.8260 0.0000
v 0.0000 1.0000 1.0000
v 1.0000 0.0000 0.0000
v 0.0000 1.0000 0.0000
v 0.0000 0.0000 -98.9774
v -16.6378 232.6666 264.1075
v 0.0000 0.0000 1.0000
v 1.0000 1.0000 0.0000
v 271.0582 48.8127 171.6683
v 328.1060 0.0000 0.0000
v 1.0000 1.0000 1.0000
v 1.0000 0.0000 0.0000
v 0.0000 244.9929 97.8127
v 456.3929 380.0618 0.0000
v 0.0000 1.0000 1.0000
v 1.0000 0.0000 0.0000
v 0.5020 1.0000 0.0000
v 0.0000 0.0000 244.9929
v 97.8127 456.3930 380.0618
v 0.0000 0.0000 1.0000
v 1.0000 1.0000 0.0000
v 0.0000 0.0000 1.0000
v 1.0000 1.0000 0.0000
v 0.0196 0.4980 0.0000
v 0.0000 0.0000 -1925.5786
v 360.3708 0.0000 985.4655
v 0.0000 0.0000 1.0000
v 1.0000 1.0000 0.0000
v -3.0118 0.0000 0.0000
v -2136.7898 -140.0000 0.0000
v 2125.6946 0.0000 0.0000
v 1.0000 1.0000 1.0000
v 0.0000 0.0000 1.0000
v 1.0000 1.0000 0.0000
v 1.0000 0.0000 0.0000
v 0.0000 0.0000 -2721.1724
v 301.5813 0.0000 1741.9634
v 0.0000 0.0000 1.0000
v 1.0000 1.0000 0.0000
v -2151.6125 -357.7606 -3069.3633
v 756.1476 0.0000 0.0000
v 1.0000 1.0000 1.0000
v 1.0039 0.0000 0.0000
v -1928.5712 237.7390 0.0000
v 867.1465 0.0000 0.0000
v 1.0000 1.0000 1.0000
v 1.0000 0.0000 0.0000
v 0.0000 0.0000 1.0000
v 1.0000 1.0000 0.0000
v 1.0000 0.0000 0.0000
v 0.0000 0.0000 -2640.0000
v 106.0812 0.0000 905.0700
v 0.0000 0.0000 1.0000
v 1.0000 1.0000 0.0000
v 0.9882 0.0000 0.0000
v -1633.7177 -54.8760 -277.9579
v 1360.9501 0.0000 0.0000
v 1.0000 1.0000 1.0000
v 104.9529 1505.8474 0.0000
v 0.0000 1.0000 1.0000
v 1.0000 0.0000 0.0000
v 0.0000 0.5000 117.0000
v 0.0000 132.6624 0.0000
v 0.0000 0.0000 20.0000
v 0.0000 1.0000 1.0000
v 1.0000 0.0000 0.0000
v 1.0000 0.0000 0.0000
v 0.0000 41.5000 117.7336
v 33.1097 0.0000 0.0000
v 1.0000 1.0000 1.0000
v 1.0000 0.0000 0.0000
v 0.0506 41.5000 0.0000
v 122.3908 0.0000 0.0000
v 1.0000 1.0000 1.0000
v 79.6200 0.2016 127.8973
v 0.0000 0.0000 1.0000
v 1.0000 1.0000 0.0000
v 0.0000 0.0000 40.7500
v 0.0000 85.5697 0.0000
v 0.0000 1.0000 1.0000
v 1.0000 0.0000 0.0000
v 1.0039 0.0000 0.0000
v 0.0000 51.4058 0.0000
v 51.2308 73.1844 0.0000
v 0.0000 -51.4058 11.5000
v -51.2058 0.0000 0.0000
v 0.0000 1.0000 1.0000
v 1.0000 0.0000 0.0000
v 0.0000 1.0000 0.0000
v 0.0000 0.0180 41.2330
v -0.1000 74.6505 0.0000
v 0.0000 1.0000 1.0000
v 1.0000 0.0000 0.0000
v 0.9843 0.0000 0.0000
v 0.0000 -0.0000 19.0000
v 1.6074 52.7835 0.0000
v 0.0000 1.0000 1.0000
v 1.0000 0.0000 0.0000
v 1.0000 0.0000 0.0000
v 0.0000 -2.5000 31.5000
v -2.2956 58.5809 0.0000
v 0.0000 1.0000 1.0000
v 1.0000 0.0000 0.0000
v 0.5020 0.4980 0.0000
v 0.0000 0.0000 3.1877
v 28.0000 3.1877 64.1653
v 0.0000 0.0000 1.0000
v 1.0000 1.0000 0.0000
v 0.0000 31.5000 125.8500
v 51.3191 0.0000 0.0000
v 1.0000 1.0000 1.0000
v 0.0000 31.5000 -24.1500
v 51.3191 0.0000 0.0000
v 1.0000 1.0000 1.0000
v 0.0000 0.0000 19.0000
v -124.8926 53.2825 0.0000
v 0.0000 1.0000 1.0000
v 1.0000 0.0000 0.0000
v 0.9137 0.0000 0.0000
v 19.0000 25.1074 53.2825
v 0.0000 0.0000 1.0000
v 1.0000 1.0000 0.0000
v 0.0235 0.8314 0.0000
v 31.5000 -75.1500 50.2091
v 0.0000 0.0000 1.0000
v 1.0000 1.0000 0.0000
v 0.0235 0.8314 0.0000
v 31.5000 74.8500 50.2091
v 0.0000 0.0000 1.0000
v 1.0000 1.0000 0.0000
v 0.9882 0.9137 0.0000
v 0.0000 19.0000 50.1073
v 53.2825 0.0000 0.0000
v 1.0000 1.0000 1.0000
v 0.0000 31.5000 0.8500
v 51.3191 0.0000 0.0000
v 1.0000 1.0000 1.0000
v 0.0000 0.0000 19.0000
v -99.8926 53.2825 0.0000
v 0.0000 1.0000 1.0000
v 1.0000 0.0000 0.0000
v 0.9137 0.0000 0.0000
v 19.0000 100.1073 53.2825
v 0.0000 0.0000 1.0000
v 1.0000 1.0000 0.0000
v 0.0235 0.8314 0.0000
v 31.5000 -50.1500 50.2091
v 0.0000 0.0000 1.0000
v 1.0000 1.0000 0.0000
v 0.9882 0.9137 0.0000
v 0.0000 19.0000 25.1074
v 53.2825 0.0000 0.0000
v 1.0000 1.0000 1.0000
v 0.0000 31.5000 -74.1500
v 51.3191 0.0000 0.0000
v 1.0000 1.0000 1.0000
v 0.0000 0.0000 19.0000
v 75.1073 53.2825 0.0000
v 0.0000 1.0000 1.0000
v 1.0000 0.0000 0.0000
v 0.8314 0.0000 0.0000
v 0.0000 0.0000 31.5000
v -25.1500 50.2091 0.0000
v 0.0000 1.0000 1.0000
v 1.0000 0.0000 0.0000
v 0.8314 0.0000 0.0000
v 0.0000 0.0000 31.5000
v 0.8500 51.3191 0.0000
v 0.0000 1.0000 1.0000
v 1.0000 0.0000 0.0000
v 0.8314 0.0000 0.0000
v 0.0000 0.0000 31.5000
v -50.1500 50.2091 0.0000
v 0.0000 1.0000 1.0000
v 1.0000 0.0000 0.0000
v 0.9137 0.0000 0.0000
v 19.0000 25.1074 53.2825
v 0.0000 0.0000 1.0000
v 1.0000 1.0000 0.0000
v 0.0235 0.8314 0.0000
v 31.5000 -25.1500 50.2091
v 0.0000 0.0000 1.0000
v 1.0000 1.0000 0.0000
v 0.0235 0.8314 0.0000
v 31.5000 -0.1500 50.2091
v 0.0000 0.0000 1.0000
v 1.0000 1.0000 0.0000
v 0.9176 0.9843 0.0000
v 19.0000 -1.6075 52.7835
v 0.0000 0.0000 1.0000
v 1.0000 1.0000 0.0000
v 1.0000 1.0000 1.0000
v 0.0000 0.8643 1.0000
v 0.8643 0.0000 0.8346
v 1.0000 0.8346 0.0000
v 0.8260 1.0000 0.8260
v 0.0000 0.8289 1.0000
v 0.8289 0.0000 0.9306
v 1.0000 0.9306 0.0000
v 1.0000 1.0000 1.0000
v 0.2578 0.0000 0.0000
vn 0.0000 1.0000 0.0000
vn 0.0000 1.0000 0.0000
vn 0.0000 1.0000 0.0000
vn 0.0000 1.0000 0.0000
vn 0.0000 1.0000 0.0000
vn 0.0000 1.0000 0.0000
vn 0.0000 1.0000 0.0000
vn 0.0000 1.0000 0.0000
vn 0.0000 1.0000 0.0000
vn 0.0000 1.0000 0.0000
vn 0.0000 1.0000 0.0000
vn 0.0000 1.0000 0.0000
vn 0.0000 1.0000 0.0000
vn 0.0000 1.0000 0.0000
vn 0.0000 1.0000 0.0000
vn 0.0000 1.0000 0.0000
vn 0.0000 1.0000 0.0000
vn 0.0000 1.0000 0.0000
vn 0.0000 1.0000 0.0000
vn 0.0000 1.0000 0.0000
vn 0.0000 1.0000 0.0000
vn 0.0000 1.0000 0.0000
vn 0.0000 1.0000 0.0000
vn 0.0000 1.0000 0.0000
vn 0.0000 1.0000 0.0000
vn 0.0000 1.0000 0.0000
vn 0.0000 1.0000 0.0000
vn 0.0000 1.0000 0.0000
vn 0.0000 1.0000 0.0000
vn 0.0000 1.0000 0.0000
vn 0.0000 1.0000 0.0000
vn 0.0000 1.0000 0.0000
vn 0.0000 1.0000 0.0000
vn 0.0000 1.0000 0.0000
vn 0.0000 1.0000 0.0000
vn 0.0000 1.0000 0.0000
vn 0.0000 1.0000 0.0000
vn 0.0000 1.0000 0.0000
vn 0.0000 1.0000 0.0000
vn 0.0000 1.0000 0.0000
vn 0.0000 1.0000 0.0000
vn 0.0000 1.0000 0.0000
vn 0.0000 1.0000 0.0000
vn 0.0000 1.0000 0.0000
vn 0.0000 1.0000 0.0000
vn 0.0000 1.0000 0.0000
vn 0.0000 1.0000 0.0000
vn 0.0000 1.0000 0.0000
vn 0.0000 1.0000 0.0000
vn 0.0000 1.0000 0.0000
vn 0.0000 1.0000 0.0000
vn 0.0000 1.0000 0.0000
vn 0.0000 1.0000 0.0000
vn 0.0000 1.0000 0.0000
vn 0.0000 1.0000 0.0000
vn 0.0000 1.0000 0.0000
vn 0.0000 1.0000 0.0000
vn 0.0000 1.0000 0.0000
vn 0.0000 1.0000 0.0000
vn 0.0000 1.0000 0.0000
vn 0.0000 1.0000 0.0000
vn 0.0000 1.0000 0.0000
vn 0.0000 1.0000 0.0000
vn 0.0000 1.0000 0.0000
vn 0.0000 1.0000 0.0000
vn 0.0000 1.0000 0.0000
vn 0.0000 1.0000 0.0000
vn 0.0000 1.0000 0.0000
vn 0.0000 1.0000 0.0000
vn 0.0000 1.0000 0.0000
vn 0.0000 1.0000 0.0000
vn 0.0000 1.0000 0.0000
vn 0.0000 1.0000 0.0000
vn 0.0000 1.0000 0.0000
vn 0.0000 1.0000 0.0000
vn 0.0000 1.0000 0.0000
vn 0.0000 1.0000 0.0000
vn 0.0000 1.0000 0.0000
vn 0.0000 1.0000 0.0000
vn 0.0000 1.0000 0.0000
vn 0.0000 1.0000 0.0000
vn 0.0000 1.0000 0.0000
vn 0.0000 1.0000 0.0000
vn 0.0000 1.0000 0.0000
vn 0.0000 1.0000 0.0000
vn 0.0000 1.0000 0.0000
vn 0.0000 1.0000 0.0000
vn 0.0000 1.0000 0.0000
vn 0.0000 1.0000 0.0000
vn 0.0000 1.0000 0.0000
vn 0.0000 1.0000 0.0000
vn 0.0000 1.0000 0.0000
vn 0.0000 1.0000 0.0000
vn 0.0000 1.0000 0.0000
vn 0.0000 1.0000 0.0000
vn 0.0000 1.0000 0.0000
vn 0.0000 1.0000 0.0000
vn 0.0000 1.0000 0.0000
vn 0.0000 1.0000 0.0000
vn 0.0000 1.0000 0.0000
vn 0.0000 1.0000 0.0000
vn 0.0000 1.0000 0.0000
vn 0.0000 1.0000 0.0000
vn 0.0000 1.0000 0.0000
vn 0.0000 1.0000 0.0000
vn 0.0000 1.0000 0.0000
vn 0.0000 1.0000 0.0000
vn 0.0000 1.0000 0.0000
vn 0.0000 1.0000 0.0000
vn 0.0000 1.0000 0.0000
vn 0.0000 1.0000 0.0000
vn 0.0000 1.0000 0.0000
vn 0.0000 1.0000 0.0000
vn 0.0000 1.0000 0.0000
vn 0.0000 1.0000 0.0000
vn 0.0000 1.0000 0.0000
vn 0.0000 1.0000 0.0000
vn 0.0000 1.0000 0.0000
vn 0.0000 1.0000 0.0000
vn 0.0000 1.0000 0.0000
vn 0.0000 1.0000 0.0000
vn 0.0000 1.0000 0.0000
vn 0.0000 1.0000 0.0000
vn 0.0000 1.0000 0.0000
vn 0.0000 1.0000 0.0000
vn 0.0000 1.0000 0.0000
vn 0.0000 1.0000 0.0000
vn 0.0000 1.0000 0.0000
vn 0.0000 1.0000 0.0000
vn 0.0000 1.0000 0.0000
vn 0.0000 1.0000 0.0000
vn 0.0000 1.0000 0.0000
vn 0.0000 1.0000 0.0000
vn 0.0000 1.0000 0.0000
vn 0.0000 1.0000 0.0000
vn 0.0000 1.0000 0.0000
vn 0.0000 1.0000 0.0000
vn 0.0000 1.0000 0.0000
vn 0.0000 1.0000 0.0000
vn 0.0000 1.0000 0.0000
vn 0.0000 1.0000 0.0000
vn 0.0000 1.0000 0.0000
vn 0.0000 1.0000 0.0000
vn 0.0000 1.0000 0.0000
vn 0.0000 1.0000 0.0000
vn 0.0000 1.0000 0.0000
vn 0.0000 1.0000 0.0000
vn 0.0000 1.0000 0.0000
vn 0.0000 1.0000 0.0000
vn 0.0000 1.0000 0.0000
vn 0.0000 1.0000 0.0000
vn 0.0000 1.0000 0.0000
vn 0.0000 1.0000 0.0000
vn 0.0000 1.0000 0.0000
vn 0.0000 1.0000 0.0000
vn 0.0000 1.0000 0.0000
vn 0.0000 1.0000 0.0000
vn 0.0000 1.0000 0.0000
vn 0.0000 1.0000 0.0000
vn 0.0000 1.0000 0.0000
vn 0.0000 1.0000 0.0000
vn 0.0000 1.0000 0.0000
vn 0.0000 1.0000 0.0000
vn 0.0000 1.0000 0.0000
vn 0.0000 1.0000 0.0000
vn 0.0000 1.0000 0.0000
vn 0.0000 1.0000 0.0000
vn 0.0000 1.0000 0.0000
vn 0.0000 1.0000 0.0000
vn 0.0000 1.0000 0.0000
vn 0.0000 1.0000 0.0000
vn 0.0000 1.0000 0.0000
vn 0.0000 1.0000 0.0000
vn 0.0000 1.0000 0.0000
vn 0.0000 1.0000 0.0000
vn 0.0000 1.0000 0.0000
vn 0.0000 1.0000 0.0000
vn 0.0000 1.0000 0.0000
vn 0.0000 1.0000 0.0000
vn 0.0000 1.0000 0.0000
vn 0.0000 1.0000 0.0000
vn 0.0000 1.0000 0.0000
vn 0.0000 1.0000 0.0000
vn 0.0000 1.0000 0.0000
vn 0.0000 1.0000 0.0000
vn 0.0000 1.0000 0.0000
vn 0.0000 1.0000 0.0000
vn 0.0000 1.0000 0.0000
vn 0.0000 1.0000 0.0000
vn 0.0000 1.0000 0.0000
vn 0.0000 1.0000 0.0000
vn 0.0000 1.0000 0.0000
vn 0.0000 1.0000 0.0000
vn 0.0000 1.0000 0.0000
vn 0.0000 1.0000 0.0000
vn 0.0000 1.0000 0.0000
vn 0.0000 1.0000 0.0000
vn 0.0000 1.0000 0.0000
vn 0.0000 1.0000 0.0000
vn 0.0000 1.0000 0.0000
vn 0.0000 1.0000 0.0000
vn 0.0000 1.0000 0.0000
vn 0.0000 1.0000 0.0000
vn 0.0000 1.0000 0.0000
vn 0.0000 1.0000 0.0000
vn 0.0000 1.0000 0.0000
vn 0.0000 1.0000 0.0000
vn 0.0000 1.0000 0.0000
vn 0.0000 1.0000 0.0000
vn 0.0000 1.0000 0.0000
vn 0.0000 1.0000 0.0000
vn 0.0000 1.0000 0.0000
vn 0.0000 1.0000 0.0000
vn 0.0000 1.0000 0.0000
vn 0.0000 1.0000 0.0000
vn 0.0000 1.0000 0.0000
vn 0.0000 1.0000 0.0000
vn 0.0000 1.0000 0.0000
vn 0.0000 1.0000 0.0000
vn 0.0000 1.0000 0.0000
vn 0.0000 1.0000 0.0000
vn 0.0000 1.0000 0.0000
vn 0.0000 1.0000 0.0000
vn 0.0000 1.0000 0.0000
vn 0.0000 1.0000 0.0000
vn 0.0000 1.0000 0.0000
vn 0.0000 1.0000 0.0000
vn 0.0000 1.0000 0.0000
vn 0.0000 1.0000 0.0000
vn 0.0000 1.0000 0.0000
vn 0.0000 1.0000 0.0000
vn 0.0000 1.0000 0.0000
vn 0.0000 1.0000 0.0000
vn 0.0000 1.0000 0.0000
vn 0.0000 1.0000 0.0000
vn 0.0000 1.0000 0.0000
vn 0.0000 1.0000 0.0000
vn 0.0000 1.0000 0.0000
vn 0.0000 1.0000 0.0000
vn 0.0000 1.0000 0.0000
vn 0.0000 1.0000 0.0000
vn 0.0000 1.0000 0.0000
vn 0.0000 1.0000 0.0000
vn 0.0000 1.0000 0.0000
vn 0.0000 1.0000 0.0000
vn 0.0000 1.0000 0.0000
vn 0.0000 1.0000 0.0000
vn 0.0000 1.0000 0.0000
vn 0.0000 1.0000 0.0000
vn 0.0000 1.0000 0.0000
vn 0.0000 1.0000 0.0000
vn 0.0000 1.0000 0.0000
vn 0.0000 1.0000 0.0000
vn 0.0000 1.0000 0.0000
vn 0.0000 1.0000 0.0000
vn 0.0000 1.0000 0.0000
vn 0.0000 1.0000 0.0000
vn 0.0000 1.0000 0.0000
vn 0.0000 1.0000 0.0000
vn 0.0000 1.0000 0.0000
vn 0.0000 1.0000 0.0000
vn 0.0000 1.0000 0.0000
vn 0.0000 1.0000 0.0000
vn 0.0000 1.0000 0.0000
vn 0.0000 1.0000 0.0000
vn 0.0000 1.0000 0.0000
vn 0.0000 1.0000 0.0000
vn 0.0000 1.0000 0.0000
vn 0.0000 1.0000 0.0000
vn 0.0000 1.0000 0.0000
vn 0.0000 1.0000 0.0000
vn 0.0000 1.0000 0.0000
vn 0.0000 1.0000 0.0000
vn 0.0000 1.0000 0.0000
vn 0.0000 1.0000 0.0000
vn 0.0000 1.0000 0.0000
vn 0.0000 1.0000 0.0000
vn 0.0000 1.0000 0.0000
vn 0.0000 1.0000 0.0000
vn 0.0000 1.0000 0.0000
vn 0.0000 1.0000 0.0000
vn 0.0000 1.0000 0.0000
vn 0.0000 1.0000 0.0000
vn 0.0000 1.0000 0.0000
vn 0.0000 1.0000 0.0000
vn 0.0000 1.0000 0.0000
vn 0.0000 1.0000 0.0000
vn 0.0000 1.0000 0.0000
vn 0.0000 1.0000 0.0000
vn 0.0000 1.0000 0.0000
vn 0.0000 1.0000 0.0000
vn 0.0000 1.0000 0.0000
vn 0.0000 1.0000 0.0000
vn 0.0000 1.0000 0.0000
vn 0.0000 1.0000 0.0000
vn 0.0000 1.0000 0.0000
vn 0.0000 1.0000 0.0000
vn 0.0000 1.0000 0.0000
vn 0.0000 1.0000 0.0000
vn 0.0000 1.0000 0.0000
vn 0.0000 1.0000 0.0000
vn 0.0000 1.0000 0.0000
vn 0.0000 1.0000 0.0000
vn 0.0000 1.0000 0.0000
vn 0.0000 1.0000 0.0000
vn 0.0000 1.0000 0.0000
vn 0.0000 1.0000 0.0000
vn 0.0000 1.0000 0.0000
vn 0.0000 1.0000 0.0000
vn 0.0000 1.0000 0.0000
vn 0.0000 1.0000 0.0000
vn 0.0000 1.0000 0.0000
vn 0.0000 1.0000 0.0000
vn 0.0000 1.0000 0.0000
vn 0.0000 1.0000 0.0000
vn 0.0000 1.0000 0.0000
vn 0.0000 1.0000 0.0000
vn 0.0000 1.0000 0.0000
vn 0.0000 1.0000 0.0000
vn 0.0000 1.0000 0.0000
vn 0.0000 1.0000 0.0000
vn 0.0000 1.0000 0.0000
vn 0.0000 1.0000 0.0000
vn 0.0000 1.0000 0.0000
vn 0.0000 1.0000 0.0000
vn 0.0000 1.0000 0.0000
vn 0.0000 1.0000 0.0000
vn 0.0000 1.0000 0.0000
vn 0.0000 1.0000 0.0000
vn 0.0000 1.0000 0.0000
vn 0.0000 1.0000 0.0000
vn 0.0000 1.0000 0.0000
vn 0.0000 1.0000 0.0000
vn 0.0000 1.0000 0.0000
vn 0.0000 1.0000 0.0000
vn 0.0000 1.0000 0.0000
vn 0.0000 1.0000 0.0000
vn 0.0000 1.0000 0.0000
vn 0.0000 1.0000 0.0000
vn 0.0000 1.0000 0.0000
vn 0.0000 1.0000 0.0000
vn 0.0000 1.0000 0.0000
vn 0.0000 1.0000 0.0000
vn 0.0000 1.0000 0.0000
vn 0.0000 1.0000 0.0000
vn 0.0000 1.0000 0.0000
vn 0.0000 1.0000 0.0000
vn 0.0000 1.0000 0.0000
vn 0.0000 1.0000 0.0000
vn 0.0000 1.0000 0.0000
vn 0.0000 1.0000 0.0000
vn 0.0000 1.0000 0.0000
vn 0.0000 1.0000 0.0000
vn 0.0000 1.0000 0.0000
vn 0.0000 1.0000 0.0000
vn 0.0000 1.0000 0.0000
vn 0.0000 1.0000 0.0000
vn 0.0000 1.0000 0.0000
vn 0.0000 1.0000 0.0000
vn 0.0000 1.0000 0.0000
vn 0.0000 1.0000 0.0000
vn 0.0000 1.0000 0.0000
vn 0.0000 1.0000 0.0000
vn 0.0000 1.0000 0.0000
vn 0.0000 1.0000 0.0000
vn 0.0000 1.0000 0.0000
vn 0.0000 1.0000 0.0000
vn 0.0000 1.0000 0.0000
vn 0.0000 1.0000 0.0000
vn 0.0000 1.0000 0.0000
vn 0.0000 1.0000 0.0000
vn 0.0000 1.0000 0.0000
vn 0.0000 1.0000 0.0000
vn 0.0000 1.0000 0.0000
vn 0.0000 1.0000 0.0000
vn 0.0000 1.0000 0.0000
vn 0.0000 1.0000 0.0000
vn 0.0000 1.0000 0.0000
vn 0.0000 1.0000 0.0000
vn 0.0000 1.0000 0.0000
vn 0.0000 1.0000 0.0000
vn 0.0000 1.0000 0.0000
vn 0.0000 1.0000 0.0000
vn 0.0000 1.0000 0.0000
vn 0.0000 1.0000 0.0000
vn 0.0000 1.0000 0.0000
vn 0.0000 1.0000 0.0000
vn 0.0000 1.0000 0.0000
vn 0.0000 1.0000 0.0000
vn 0.0000 1.0000 0.0000
vn 0.0000 1.0000 0.0000
vn 0.0000 1.0000 0.0000
vn 0.0000 1.0000 0.0000
vn 0.0000 1.0000 0.0000
vn 0.0000 1.0000 0.0000
vn 0.0000 1.0000 0.0000
vn 0.0000 1.0000 0.0000
vn 0.0000 1.0000 0.0000
vn 0.0000 1.0000 0.0000
vn 0.0000 1.0000 0.0000
vn 0.0000 1.0000 0.0000
vn 0.0000 1.0000 0.0000
vn 0.0000 1.0000 0.0000
vn 0.0000 1.0000 0.0000
vn 0.0000 1.0000 0.0000
vn 0.0000 1.0000 0.0000
vn 0.0000 1.0000 0.0000
vn 0.0000 1.0000 0.0000
vn 0.0000 1.0000 0.0000
vn 0.0000 1.0000 0.0000
vn 0.0000 1.0000 0.0000
vn 0.0000 1.0000 0.0000
vn 0.0000 1.0000 0.0000
vn 0.0000 1.0000 0.0000
vn 0.0000 1.0000 0.0000
vn 0.0000 1.0000 0.0000
vn 0.0000 1.0000 0.0000
vn 0.0000 1.0000 0.0000
vn 0.0000 1.0000 0.0000
vn 0.0000 1.0000 0.0000
vn 0.0000 1.0000 0.0000
vn 0.0000 1.0000 0.0000
vn 0.0000 1.0000 0.0000
vn 0.0000 1.0000 0.0000
vn 0.0000 1.0000 0.0000
vn 0.0000 1.0000 0.0000
vn 0.0000 1.0000 0.0000
vn 0.0000 1.0000 0.0000
vn 0.0000 1.0000 0.0000
vn 0.0000 1.0000 0.0000
vn 0.0000 1.0000 0.0000
vn 0.0000 1.0000 0.0000
vn 0.0000 1.0000 0.0000
vn 0.0000 1.0000 0.0000
vn 0.0000 1.0000 0.0000
vn 0.0000 1.0000 0.0000
vn 0.0000 1.0000 0.0000
vn 0.0000 1.0000 0.0000
vn 0.0000 1.0000 0.0000
vn 0.0000 1.0000 0.0000
vn 0.0000 1.0000 0.0000
vn 0.0000 1.0000 0.0000
vn 0.0000 1.0000 0.0000
vn 0.0000 1.0000 0.0000
vn 0.0000 1.0000 0.0000
vn 0.0000 1.0000 0.0000
vn 0.0000 1.0000 0.0000
vn 0.0000 1.0000 0.0000
vn 0.0000 1.0000 0.0000
vn 0.0000 1.0000 0.0000
vn 0.0000 1.0000 0.0000
vn 0.0000 1.0000 0.0000
vn 0.0000 1.0000 0.0000
vn 0.0000 1.0000 0.0000
vn 0.0000 1.0000 0.0000
vn 0.0000 1.0000 0.0000
vn 0.0000 1.0000 0.0000
vn 0.0000 1.0000 0.0000
vn 0.0000 1.0000 0.0000
vn 0.0000 1.0000 0.0000
vn 0.0000 1.0000 0.0000
vn 0.0000 1.0000 0.0000
vn 0.0000 1.0000 0.0000
vn 0.0000 1.0000 0.0000
vn 0.0000 1.0000 0.0000
vn 0.0000 1.0000 0.0000
vn 0.0000 1.0000 0.0000
vn 0.0000 1.0000 0.0000
vn 0.0000 1.0000 0.0000
vn 0.0000 1.0000 0.0000
vn 0.0000 1.0000 0.0000
vn 0.0000 1.0000 0.0000
vn 0.0000 1.0000 0.0000
vn 0.0000 1.0000 0.0000
vn 0.0000 1.0000 0.0000
vn 0.0000 1.0000 0.0000
vn 0.0000 1.0000 0.0000
vn 0.0000 1.0000 0.0000
vn 0.0000 1.0000 0.0000
vn 0.0000 1.0000 0.0000
vn 0.0000 1.0000 0.0000
vn 0.0000 1.0000 0.0000
vn 0.0000 1.0000 0.0000
vn 0.0000 1.0000 0.0000
vn 0.0000 1.0000 0.0000
vn 0.0000 1.0000 0.0000
vn 0.0000 1.0000 0.0000
vn 0.0000 1.0000 0.0000
vn 0.0000 1.0000 0.0000
vn 0.0000 1.0000 0.0000
vn 0.0000 1.0000 0.0000
vn 0.0000 1.0000 0.0000
vn 0.0000 1.0000 0.0000
vn 0.0000 1.0000 0.0000
vn 0.0000 1.0000 0.0000
vn 0.0000 1.0000 0.0000
vn 0.0000 1.0000 0.0000
vn 0.0000 1.0000 0.0000
vn 0.0000 1.0000 0.0000
vn 0.0000 1.0000 0.0000
vn 0.0000 1.0000 0.0000
vn 0.0000 1.0000 0.0000
vn 0.0000 1.0000 0.0000
vn 0.0000 1.0000 0.0000
vn 0.0000 1.0000 0.0000
vn 0.0000 1.0000 0.0000
vn 0.0000 1.0000 0.0000
vn 0.0000 1.0000 0.0000
vn 0.0000 1.0000 0.0000
vn 0.0000 1.0000 0.0000
vn 0.0000 1.0000 0.0000
vn 0.0000 1.0000 0.0000
vn 0.0000 1.0000 0.0000
vn 0.0000 1.0000 0.0000
vn 0.0000 1.0000 0.0000
vn 0.0000 1.0000 0.0000
vn 0.0000 1.0000 0.0000
vn 0.0000 1.0000 0.0000
vn 0.0000 1.0000 0.0000
vn 0.0000 1.0000 0.0000
vn 0.0000 1.0000 0.0000
vn 0.0000 1.0000 0.0000
vn 0.0000 1.0000 0.0000
vn 0.0000 1.0000 0.0000
vn 0.0000 1.0000 0.0000
vn 0.0000 1.0000 0.0000
vn 0.0000 1.0000 0.0000
vn 0.0000 1.0000 0.0000
vn 0.0000 1.0000 0.0000
vn 0.0000 1.0000 0.0000
vn 0.0000 1.0000 0.0000
vn 0.0000 1.0000 0.0000
vn 0.0000 1.0000 0.0000
vn 0.0000 1.0000 0.0000
vn 0.0000 1.0000 0.0000
vn 0.0000 1.0000 0.0000
vn 0.0000 1.0000 0.0000
vn 0.0000 1.0000 0.0000
vn 0.0000 1.0000 0.0000
vn 0.0000 1.0000 0.0000
vn 0.0000 1.0000 0.0000
vn 0.0000 1.0000 0.0000
vn 0.0000 1.0000 0.0000
vn 0.0000 1.0000 0.0000
vn 0.0000 1.0000 0.0000
vn 0.0000 1.0000 0.0000
vn 0.0000 1.0000 0.0000
vn 0.0000 1.0000 0.0000
vn 0.0000 1.0000 0.0000
vn 0.0000 1.0000 0.0000
vn 0.0000 1.0000 0.0000
vn 0.0000 1.0000 0.0000
vn 0.0000 1.0000 0.0000
vn 0.0000 1.0000 0.0000
vn 0.0000 1.0000 0.0000
vn 0.0000 1.0000 0.0000
vn 0.0000 1.0000 0.0000
vn 0.0000 1.0000 0.0000
vn 0.0000 1.0000 0.0000
vn 0.0000 1.0000 0.0000
vn 0.0000 1.0000 0.0000
vn 0.0000 1.0000 0.0000
vn 0.0000 1.0000 0.0000
vn 0.0000 1.0000 0.0000
vn 0.0000 1.0000 0.0000
vn 0.0000 1.0000 0.0000
vn 0.0000 1.0000 0.0000
vn 0.0000 1.0000 0.0000
vn 0.0000 1.0000 0.0000
vn 0.0000 1.0000 0.0000
vn 0.0000 1.0000 0.0000
vn 0.0000 1.0000 0.0000
vn 0.0000 1.0000 0.0000
vn 0.0000 1.0000 0.0000
vn 0.0000 1.0000 0.0000
vn 0.0000 1.0000 0.0000
vn 0.0000 1.0000 0.0000
vn 0.0000 1.0000 0.0000
vn 0.0000 1.0000 0.0000
vn 0.0000 1.0000 0.0000
vn 0.0000 1.0000 0.0000
vn 0.0000 1.0000 0.0000
vn 0.0000 1.0000 0.0000
vn 0.0000 1.0000 0.0000
vn 0.0000 1.0000 0.0000
vn 0.0000 1.0000 0.0000
vn 0.0000 1.0000 0.0000
vn 0.0000 1.0000 0.0000
vn 0.0000 1.0000 0.0000
vn 0.0000 1.0000 0.0000
vn 0.0000 1.0000 0.0000
vn 0.0000 1.0000 0.0000
vn 0.0000 1.0000 0.0000
vn 0.0000 1.0000 0.0000
vn 0.0000 1.0000 0.0000
vn 0.0000 1.0000 0.0000
vn 0.0000 1.0000 0.0000
vn 0.0000 1.0000 0.0000
vn 0.0000 1.0000 0.0000
vn 0.0000 1.0000 0.0000
vn 0.0000 1.0000 0.0000
vn 0.0000 1.0000 0.0000
vn 0.0000 1.0000 0.0000
vn 0.0000 1.0000 0.0000
vn 0.0000 1.0000 0.0000
vn 0.0000 1.0000 0.0000
vn 0.0000 1.0000 0.0000
vn 0.0000 1.0000 0.0000
vn 0.0000 1.0000 0.0000
vn 0.0000 1.0000 0.0000
vn 0.0000 1.0000 0.0000
vn 0.0000 1.0000 0.0000
vn 0.0000 1.0000 0.0000
vn 0.0000 1.0000 0.0000
vn 0.0000 1.0000 0.0000
vn 0.0000 1.0000 0.0000
vn 0.0000 1.0000 0.0000
vn 0.0000 1.0000 0.0000
vn 0.0000 1.0000 0.0000
vn 0.0000 1.0000 0.0000
vn 0.0000 1.0000 0.0000
vn 0.0000 1.0000 0.0000
vn 0.0000 1.0000 0.0000
vn 0.0000 1.0000 0.0000
vn 0.0000 1.0000 0.0000
vn 0.0000 1.0000 0.0000
vn 0.0000 1.0000 0.0000
vn 0.0000 1.0000 0.0000
vn 0.0000 1.0000 0.0000
vn 0.0000 1.0000 0.0000
vn 0.0000 1.0000 0.0000
vn 0.0000 1.0000 0.0000
vn 0.0000 1.0000 0.0000
vn 0.0000 1.0000 0.0000
vn 0.0000 1.0000 0.0000
vn 0.0000 1.0000 0.0000
vn 0.0000 1.0000 0.0000
vn 0.0000 1.0000 0.0000
vn 0.0000 1.0000 0.0000
vn 0.0000 1.0000 0.0000
vn 0.0000 1.0000 0.0000
vn 0.0000 1.0000 0.0000
vn 0.0000 1.0000 0.0000
vn 0.0000 1.0000 0.0000
vn 0.0000 1.0000 0.0000
vn 0.0000 1.0000 0.0000
vn 0.0000 1.0000 0.0000
vn 0.0000 1.0000 0.0000
vn 0.0000 1.0000 0.0000
vn 0.0000 1.0000 0.0000
vn 0.0000 1.0000 0.0000
vn 0.0000 1.0000 0.0000
vn 0.0000 1.0000 0.0000
vn 0.0000 1.0000 0.0000
vn 0.0000 1.0000 0.0000
vn 0.0000 1.0000 0.0000
vn 0.0000 1.0000 0.0000
vn 0.0000 1.0000 0.0000
vn 0.0000 1.0000 0.0000
vn 0.0000 1.0000 0.0000
vn 0.0000 1.0000 0.0000
vn 0.0000 1.0000 0.0000
vn 0.0000 1.0000 0.0000
vn 0.0000 1.0000 0.0000
vn 0.0000 1.0000 0.0000
vn 0.0000 1.0000 0.0000
vn 0.0000 1.0000 0.0000
vn 0.0000 1.0000 0.0000
vn 0.0000 1.0000 0.0000
vn 0.0000 1.0000 0.0000
vn 0.0000 1.0000 0.0000
vn 0.0000 1.0000 0.0000
vn 0.0000 1.0000 0.0000
vn 0.0000 1.0000 0.0000
vn 0.0000 1.0000 0.0000
vn 0.0000 1.0000 0.0000
vn 0.0000 1.0000 0.0000
vn 0.0000 1.0000 0.0000
vn 0.0000 1.0000 0.0000
vn 0.0000 1.0000 0.0000
vn 0.0000 1.0000 0.0000
vn 0.0000 1.0000 0.0000
vn 0.0000 1.0000 0.0000
vn 0.0000 1.0000 0.0000
vn 0.0000 1.0000 0.0000
vn 0.0000 1.0000 0.0000
vn 0.0000 1.0000 0.0000
vn 0.0000 1.0000 0.0000
vn 0.0000 1.0000 0.0000
vn 0.0000 1.0000 0.0000
vn 0.0000 1.0000 0.0000
vn 0.0000 1.0000 0.0000
vn 0.0000 1.0000 0.0000
vn 0.0000 1.0000 0.0000
vn 0.0000 1.0000 0.0000
vn 0.0000 1.0000 0.0000
vn 0.0000 1.0000 0.0000
vn 0.0000 1.0000 0.0000
vn 0.0000 1.0000 0.0000
vn 0.0000 1.0000 0.0000
vn 0.0000 1.0000 0.0000
vn 0.0000 1.0000 0.0000
vn 0.0000 1.0000 0.0000
vn 0.0000 1.0000 0.0000
vn 0.0000 1.0000 0.0000
vn 0.0000 1.0000 0.0000
vn 0.0000 1.0000 0.0000
vn 0.0000 1.0000 0.0000
vn 0.0000 1.0000 0.0000
vn 0.0000 1.0000 0.0000
vn 0.0000 1.0000 0.0000
vn 0.0000 1.0000 0.0000
vn 0.0000 1.0000 0.0000
vn 0.0000 1.0000 0.0000
vn 0.0000 1.0000 0.0000
vn 0.0000 1.0000 0.0000
vn 0.0000 1.0000 0.0000
vn 0.0000 1.0000 0.0000
vn 0.0000 1.0000 0.0000
vn 0.0000 1.0000 0.0000
vn 0.0000 1.0000 0.0000
vn 0.0000 1.0000 0.0000
vn 0.0000 1.0000 0.0000
vn 0.0000 1.0000 0.0000
vn 0.0000 1.0000 0.0000
vn 0.0000 1.0000 0.0000
vn 0.0000 1.0000 0.0000
vn 0.0000 1.0000 0.0000
vn 0.0000 1.0000 0.0000
vn 0.0000 1.0000 0.0000
vn 0.0000 1.0000 0.0000
vn 0.0000 1.0000 0.0000
vn 0.0000 1.0000 0.0000
vn 0.0000 1.0000 0.0000
vn 0.0000 1.0000 0.0000
vn 0.0000 1.0000 0.0000
vn 0.0000 1.0000 0.0000
vn 0.0000 1.0000 0.0000
vn 0.0000 1.0000 0.0000
vn 0.0000 1.0000 0.0000
vn 0.0000 1.0000 0.0000
vn 0.0000 1.0000 0.0000
vn 0.0000 1.0000 0.0000
vn 0.0000 1.0000 0.0000
vn 0.0000 1.0000 0.0000
vn 0.0000 1.0000 0.0000
vn 0.0000 1.0000 0.0000
vn 0.0000 1.0000 0.0000
vn 0.0000 1.0000 0.0000
vn 0.0000 1.0000 0.0000
vn 0.0000 1.0000 0.0000
vn 0.0000 1.0000 0.0000
vn 0.0000 1.0000 0.0000
vn 0.0000 1.0000 0.0000
vn 0.0000 1.0000 0.0000
vn 0.0000 1.0000 0.0000
vn 0.0000 1.0000 0.0000
vn 0.0000 1.0000 0.0000
vn 0.0000 1.0000 0.0000
vn 0.0000 1.0000 0.0000
vn 0.0000 1.0000 0.0000
vn 0.0000 1.0000 0.0000
vn 0.0000 1.0000 0.0000
vn 0.0000 1.0000 0.0000
vn 0.0000 1.0000 0.0000
vn 0.0000 1.0000 0.0000
vn 0.0000 1.0000 0.0000
vn 0.0000 1.0000 0.0000
vn 0.0000 1.0000 0.0000
vn 0.0000 1.0000 0.0000
vn 0.0000 1.0000 0.0000
vn 0.0000 1.0000 0.0000
vn 0.0000 1.0000 0.0000
vn 0.0000 1.0000 0.0000
vn 0.0000 1.0000 0.0000
vn 0.0000 1.0000 0.0000
vn 0.0000 1.0000 0.0000
vn 0.0000 1.0000 0.0000
vn 0.0000 1.0000 0.0000
vn 0.0000 1.0000 0.0000
vn 0.0000 1.0000 0.0000
vn 0.0000 1.0000 0.0000
vn 0.0000 1.0000 0.0000
vn 0.0000 1.0000 0.0000
vn 0.0000 1.0000 0.0000
vn 0.0000 1.0000 0.0000
vn 0.0000 1.0000 0.0000
vn 0.0000 1.0000 0.0000
vn 0.0000 1.0000 0.0000
vn 0.0000 1.0000 0.0000
vn 0.0000 1.0000 0.0000
vn 0.0000 1.0000 0.0000
vn 0.0000 1.0000 0.0000
vn 0.0000 1.0000 0.0000
vn 0.0000 1.0000 0.0000
vn 0.0000 1.0000 0.0000
vn 0.0000 1.0000 0.0000
vn 0.0000 1.0000 0.0000
vn 0.0000 1.0000 0.0000
vn 0.0000 1.0000 0.0000
vn 0.0000 1.0000 0.0000
vn 0.0000 1.0000 0.0000
vn 0.0000 1.0000 0.0000
vn 0.0000 1.0000 0.0000
vn 0.0000 1.0000 0.0000
vn 0.0000 1.0000 0.0000
vn 0.0000 1.0000 0.0000
vn 0.0000 1.0000 0.0000
vn 0.0000 1.0000 0.0000
vn 0.0000 1.0000 0.0000
vn 0.0000 1.0000 0.0000
vn 0.0000 1.0000 0.0000
vn 0.0000 1.0000 0.0000
vn 0.0000 1.0000 0.0000
vn 0.0000 1.0000 0.0000
vn 0.0000 1.0000 0.0000
vn 0.0000 1.0000 0.0000
vn 0.0000 1.0000 0.0000
vn 0.0000 1.0000 0.0000
vn 0.0000 1.0000 0.0000
vn 0.0000 1.0000 0.0000
vn 0.0000 1.0000 0.0000
vn 0.0000 1.0000 0.0000
vn 0.0000 1.0000 0.0000
vn 0.0000 1.0000 0.0000
vn 0.0000 1.0000 0.0000
vn 0.0000 1.0000 0.0000
vn 0.0000 1.0000 0.0000
vn 0.0000 1.0000 0.0000
vn 0.0000 1.0000 0.0000
vn 0.0000 1.0000 0.0000
vn 0.0000 1.0000 0.0000
vn 0.0000 1.0000 0.0000
vn 0.0000 1.0000 0.0000
vn 0.0000 1.0000 0.0000
vn 0.0000 1.0000 0.0000
vn 0.0000 1.0000 0.0000
vn 0.0000 1.0000 0.0000
vn 0.0000 1.0000 0.0000
vn 0.0000 1.0000 0.0000
vn 0.0000 1.0000 0.0000
vn 0.0000 1.0000 0.0000
vn 0.0000 1.0000 0.0000
vn 0.0000 1.0000 0.0000
vn 0.0000 1.0000 0.0000
vn 0.0000 1.0000 0.0000
vn 0.0000 1.0000 0.0000
vn 0.0000 1.0000 0.0000
vn 0.0000 1.0000 0.0000
vn 0.0000 1.0000 0.0000
vn 0.0000 1.0000 0.0000
vn 0.0000 1.0000 0.0000
vn 0.0000 1.0000 0.0000
vn 0.0000 1.0000 0.0000
vn 0.0000 1.0000 0.0000
vn 0.0000 1.0000 0.0000
vn 0.0000 1.0000 0.0000
vn 0.0000 1.0000 0.0000
vn 0.0000 1.0000 0.0000
vn 0.0000 1.0000 0.0000
vn 0.0000 1.0000 0.0000
vn 0.0000 1.0000 0.0000
vn 0.0000 1.0000 0.0000
vn 0.0000 1.0000 0.0000
vn 0.0000 1.0000 0.0000
vn 0.0000 1.0000 0.0000
vn 0.0000 1.0000 0.0000
vn 0.0000 1.0000 0.0000
vn 0.0000 1.0000 0.0000
vn 0.0000 1.0000 0.0000
vn 0.0000 1.0000 0.0000
vn 0.0000 1.0000 0.0000
vn 0.0000 1.0000 0.0000
vn 0.0000 1.0000 0.0000
vn 0.0000 1.0000 0.0000
vn 0.0000 1.0000 0.0000
vn 0.0000 1.0000 0.0000
vn 0.0000 1.0000 0.0000
vn 0.0000 1.0000 0.0000
vn 0.0000 1.0000 0.0000
vn 0.0000 1.0000 0.0000
vn 0.0000 1.0000 0.0000
vn 0.0000 1.0000 0.0000
vn 0.0000 1.0000 0.0000
vn 0.0000 1.0000 0.0000
vn 0.0000 1.0000 0.0000
vn 0.0000 1.0000 0.0000
vn 0.0000 1.0000 0.0000
vn 0.0000 1.0000 0.0000
vn 0.0000 1.0000 0.0000
vn 0.0000 1.0000 0.0000
vn 0.0000 1.0000 0.0000
vn 0.0000 1.0000 0.0000
vn 0.0000 1.0000 0.0000
vn 0.0000 1.0000 0.0000
vn 0.0000 1.0000 0.0000
vn 0.0000 1.0000 0.0000
vn 0.0000 1.0000 0.0000
vn 0.0000 1.0000 0.0000
vn 0.0000 1.0000 0.0000
vn 0.0000 1.0000 0.0000
vn 0.0000 1.0000 0.0000
vn 0.0000 1.0000 0.0000
vn 0.0000 1.0000 0.0000
vn 0.0000 1.0000 0.0000
vn 0.0000 1.0000 0.0000
vn 0.0000 1.0000 0.0000
vn 0.0000 1.0000 0.0000
vn 0.0000 1.0000 0.0000
vn 0.0000 1.0000 0.0000
vn 0.0000 1.0000 0.0000
vn 0.0000 1.0000 0.0000
vn 0.0000 1.0000 0.0000
vn 0.0000 1.0000 0.0000
vn 0.0000 1.0000 0.0000
vn 0.0000 1.0000 0.0000
vn 0.0000 1.0000 0.0000
vn 0.0000 1.0000 0.0000
vn 0.0000 1.0000 0.0000
vn 0.0000 1.0000 0.0000
vn 0.0000 1.0000 0.0000
vn 0.0000 1.0000 0.0000
vn 0.0000 1.0000 0.0000
vn 0.0000 1.0000 0.0000
vn 0.0000 1.0000 0.0000
vn 0.0000 1.0000 0.0000
vn 0.0000 1.0000 0.0000
vn 0.0000 1.0000 0.0000
vn 0.0000 1.0000 0.0000
vn 0.0000 1.0000 0.0000
vn 0.0000 1.0000 0.0000
vn 0.0000 1.0000 0.0000
vn 0.0000 1.0000 0.0000
vn 0.0000 1.0000 0.0000
vn 0.0000 1.0000 0.0000
vn 0.0000 1.0000 0.0000
vn 0.0000 1.0000 0.0000
vn 0.0000 1.0000 0.0000
vn 0.0000 1.0000 0.0000
vn 0.0000 1.0000 0.0000
vn 0.0000 1.0000 0.0000
vn 0.0000 1.0000 0.0000
vn 0.0000 1.0000 0.0000
vn 0.0000 1.0000 0.0000
vn 0.0000 1.0000 0.0000
vn 0.0000 1.0000 0.0000
vn 0.0000 1.0000 0.0000
vn 0.0000 1.0000 0.0000
vn 0.0000 1.0000 0.0000
vn 0.0000 1.0000 0.0000
vn 0.0000 1.0000 0.0000
vn 0.0000 1.0000 0.0000
vn 0.0000 1.0000 0.0000
vn 0.0000 1.0000 0.0000
vn 0.0000 1.0000 0.0000
vn 0.0000 1.0000 0.0000
vn 0.0000 1.0000 0.0000
vn 0.0000 1.0000 0.0000
vn 0.0000 1.0000 0.0000
vn 0.0000 1.0000 0.0000
vn 0.0000 1.0000 0.0000
vn 0.0000 1.0000 0.0000
vn 0.0000 1.0000 0.0000
vn 0.0000 1.0000 0.0000
vn 0.0000 1.0000 0.0000
vn 0.0000 1.0000 0.0000
vn 0.0000 1.0000 0.0000
vn 0.0000 1.0000 0.0000
vn 0.0000 1.0000 0.0000
vn 0.0000 1.0000 0.0000
vn 0.0000 1.0000 0.0000
vn 0.0000 1.0000 0.0000
vn 0.0000 1.0000 0.0000
vn 0.0000 1.0000 0.0000
vn 0.0000 1.0000 0.0000
vn 0.0000 1.0000 0.0000
vn 0.0000 1.0000 0.0000
vn 0.0000 1.0000 0.0000
vn 0.0000 1.0000 0.0000
vn 0.0000 1.0000 0.0000
vn 0.0000 1.0000 0.0000
vn 0.0000 1.0000 0.0000
vn 0.0000 1.0000 0.0000
vn 0.0000 1.0000 0.0000
vn 0.0000 1.0000 0.0000
vn 0.0000 1.0000 0.0000
vn 0.0000 1.0000 0.0000
vn 0.0000 1.0000 0.0000
vn 0.0000 1.0000 0.0000
vn 0.0000 1.0000 0.0000
vn 0.0000 1.0000 0.0000
vn 0.0000 1.0000 0.0000
vn 0.0000 1.0000 0.0000
vn 0.0000 1.0000 0.0000
vn 0.0000 1.0000 0.0000
vn 0.0000 1.0000 0.0000
vn 0.0000 1.0000 0.0000
vn 0.0000 1.0000 0.0000
vn 0.0000 1.0000 0.0000
vn 0.0000 1.0000 0.0000
vn 0.0000 1.0000 0.0000
vn 0.0000 1.0000 0.0000
vn 0.0000 1.0000 0.0000
vn 0.0000 1.0000 0.0000
vn 0.0000 1.0000 0.0000
vn 0.0000 1.0000 0.0000
vn 0.0000 1.0000 0.0000
vn 0.0000 1.0000 0.0000
vn 0.0000 1.0000 0.0000
vn 0.0000 1.0000 0.0000
vn 0.0000 1.0000 0.0000
vn 0.0000 1.0000 0.0000
vn 0.0000 1.0000 0.0000
vn 0.0000 1.0000 0.0000
vn 0.0000 1.0000 0.0000
vn 0.0000 1.0000 0.0000
vn 0.0000 1.0000 0.0000
vn 0.0000 1.0000 0.0000
vn 0.0000 1.0000 0.0000
vn 0.0000 1.0000 0.0000
vn 0.0000 1.0000 0.0000
vn 0.0000 1.0000 0.0000
vn 0.0000 1.0000 0.0000
vn 0.0000 1.0000 0.0000
vn 0.0000 1.0000 0.0000
vn 0.0000 1.0000 0.0000
vn 0.0000 1.0000 0.0000
vn 0.0000 1.0000 0.0000
vn 0.0000 1.0000 0.0000
vn 0.0000 1.0000 0.0000
vn 0.0000 1.0000 0.0000
vn 0.0000 1.0000 0.0000
vn 0.0000 1.0000 0.0000
vn 0.0000 1.0000 0.0000
vn 0.0000 1.0000 0.0000
vn 0.0000 1.0000 0.0000
vn 0.0000 1.0000 0.0000
vn 0.0000 1.0000 0.0000
vn 0.0000 1.0000 0.0000
vn 0.0000 1.0000 0.0000
vn 0.0000 1.0000 0.0000
vn 0.0000 1.0000 0.0000
vn 0.0000 1.0000 0.0000
vn 0.0000 1.0000 0.0000
vn 0.0000 1.0000 0.0000
vn 0.0000 1.0000 0.0000
vn 0.0000 1.0000 0.0000
vn 0.0000 1.0000 0.0000
vn 0.0000 1.0000 0.0000
vn 0.0000 1.0000 0.0000
vn 0.0000 1.0000 0.0000
vn 0.0000 1.0000 0.0000
vn 0.0000 1.0000 0.0000
vn 0.0000 1.0000 0.0000
vn 0.0000 1.0000 0.0000
vn 0.0000 1.0000 0.0000
vn 0.0000 1.0000 0.0000
vn 0.0000 1.0000 0.0000
vn 0.0000 1.0000 0.0000
vn 0.0000 1.0000 0.0000
vn 0.0000 1.0000 0.0000
vn 0.0000 1.0000 0.0000
vn 0.0000 1.0000 0.0000
vn 0.0000 1.0000 0.0000
vn 0.0000 1.0000 0.0000
vn 0.0000 1.0000 0.0000
vn 0.0000 1.0000 0.0000
vn 0.0000 1.0000 0.0000
vn 0.0000 1.0000 0.0000
vn 0.0000 1.0000 0.0000
vn 0.0000 1.0000 0.0000
vn 0.0000 1.0000 0.0000
vn 0.0000 1.0000 0.0000
vn 0.0000 1.0000 0.0000
vn 0.0000 1.0000 0.0000
vn 0.0000 1.0000 0.0000
vn 0.0000 1.0000 0.0000
vn 0.0000 1.0000 0.0000
vn 0.0000 1.0000 0.0000
vn 0.0000 1.0000 0.0000
vn 0.0000 1.0000 0.0000
vn 0.0000 1.0000 0.0000
vn 0.0000 1.0000 0.0000
vn 0.0000 1.0000 0.0000
vn 0.0000 1.0000 0.0000
vn 0.0000 1.0000 0.0000
vn 0.0000 1.0000 0.0000
vn 0.0000 1.0000 0.0000
vn 0.0000 1.0000 0.0000
vn 0.0000 1.0000 0.0000
vn 0.0000 1.0000 0.0000
vn 0.0000 1.0000 0.0000
vn 0.0000 1.0000 0.0000
vn 0.0000 1.0000 0.0000
vn 0.0000 1.0000 0.0000
vn 0.0000 1.0000 0.0000
vn 0.0000 1.0000 0.0000
vn 0.0000 1.0000 0.0000
vn 0.0000 1.0000 0.0000
vn 0.0000 1.0000 0.0000
vn 0.0000 1.0000 0.0000
vn 0.0000 1.0000 0.0000
vn 0.0000 1.0000 0.0000
vn 0.0000 1.0000 0.0000
vn 0.0000 1.0000 0.0000
vn 0.0000 1.0000 0.0000
vn 0.0000 1.0000 0.0000
vn 0.0000 1.0000 0.0000
vn 0.0000 1.0000 0.0000
vn 0.0000 1.0000 0.0000
vn 0.0000 1.0000 0.0000
vn 0.0000 1.0000 0.0000
vn 0.0000 1.0000 0.0000
vn 0.0000 1.0000 0.0000
vn 0.0000 1.0000 0.0000
vn 0.0000 1.0000 0.0000
vn 0.0000 1.0000 0.0000
vn 0.0000 1.0000 0.0000
vn 0.0000 1.0000 0.0000
vn 0.0000 1.0000 0.0000
vn 0.0000 1.0000 0.0000
vn 0.0000 1.0000 0.0000
vn 0.0000 1.0000 0.0000
vn 0.0000 1.0000 0.0000
vn 0.0000 1.0000 0.0000
vn 0.0000 1.0000 0.0000
vn 0.0000 1.0000 0.0000
vn 0.0000 1.0000 0.0000
vn 0.0000 1.0000 0.0000
vn 0.0000 1.0000 0.0000
vn 0.0000 1.0000 0.0000
vn 0.0000 1.0000 0.0000
vn 0.0000 1.0000 0.0000
vn 0.0000 1.0000 0.0000
vn 0.0000 1.0000 0.0000
vn 0.0000 1.0000 0.0000
vn 0.0000 1.0000 0.0000
vn 0.0000 1.0000 0.0000
vn 0.0000 1.0000 0.0000
vn 0.0000 1.0000 0.0000
vn 0.0000 1.0000 0.0000
vn 0.0000 1.0000 0.0000
vn 0.0000 1.0000 0.0000
vn 0.0000 1.0000 0.0000
vn 0.0000 1.0000 0.0000
vn 0.0000 1.0000 0.0000
vn 0.0000 1.0000 0.0000
vn 0.0000 1.0000 0.0000
vn 0.0000 1.0000 0.0000
vn 0.0000 1.0000 0.0000
vn 0.0000 1.0000 0.0000
vn 0.0000 1.0000 0.0000
vn 0.0000 1.0000 0.0000
vn 0.0000 1.0000 0.0000
vn 0.0000 1.0000 0.0000
vn 0.0000 1.0000 0.0000
vn 0.0000 1.0000 0.0000
vn 0.0000 1.0000 0.0000
vn 0.0000 1.0000 0.0000
vn 0.0000 1.0000 0.0000
vn 0.0000 1.0000 0.0000
vn 0.0000 1.0000 0.0000
vn 0.0000 1.0000 0.0000
vn 0.0000 1.0000 0.0000
vn 0.0000 1.0000 0.0000
vn 0.0000 1.0000 0.0000
vn 0.0000 1.0000 0.0000
vn 0.0000 1.0000 0.0000
vn 0.0000 1.0000 0.0000
vn 0.0000 1.0000 0.0000
vn 0.0000 1.0000 0.0000
vn 0.0000 1.0000 0.0000
vn 0.0000 1.0000 0.0000
vn 0.0000 1.0000 0.0000
vn 0.0000 1.0000 0.0000
vn 0.0000 1.0000 0.0000
vn 0.0000 1.0000 0.0000
vn 0.0000 1.0000 0.0000
vn 0.0000 1.0000 0.0000
vn 0.0000 1.0000 0.0000
vn 0.0000 1.0000 0.0000
vn 0.0000 1.0000 0.0000
vn 0.0000 1.0000 0.0000
vn 0.0000 1.0000 0.0000
vn 0.0000 1.0000 0.0000
vn 0.0000 1.0000 0.0000
vn 0.0000 1.0000 0.0000
vn 0.0000 1.0000 0.0000
vn 0.0000 1.0000 0.0000
vn 0.0000 1.0000 0.0000
vn 0.0000 1.0000 0.0000
vn 0.0000 1.0000 0.0000
vn 0.0000 1.0000 0.0000
vn 0.0000 1.0000 0.0000
vn 0.0000 1.0000 0.0000
vn 0.0000 1.0000 0.0000
vn 0.0000 1.0000 0.0000
vn 0.0000 1.0000 0.0000
vn 0.0000 1.0000 0.0000
vn 0.0000 1.0000 0.0000
vn 0.0000 1.0000 0.0000
vn 0.0000 1.0000 0.0000
vn 0.0000 1.0000 0.0000
vn 0.0000 1.0000 0.0000
vn 0.0000 1.0000 0.0000
vn 0.0000 1.0000 0.0000
vn 0.0000 1.0000 0.0000
vn 0.0000 1.0000 0.0000
vn 0.0000 1.0000 0.0000
vn 0.0000 1.0000 0.0000
vn 0.0000 1.0000 0.0000
vn 0.0000 1.0000 0.0000
vn 0.0000 1.0000 0.0000
vn 0.0000 1.0000 0.0000
vn 0.0000 1.0000 0.0000
vn 0.0000 1.0000 0.0000
vn 0.0000 1.0000 0.0000
vn 0.0000 1.0000 0.0000
vn 0.0000 1.0000 0.0000
vn 0.0000 1.0000 0.0000
vn 0.0000 1.0000 0.0000
vn 0.0000 1.0000 0.0000
vn 0.0000 1.0000 0.0000
vn 0.0000 1.0000 0.0000
vn 0.0000 1.0000 0.0000
vn 0.0000 1.0000 0.0000
vn 0.0000 1.0000 0.0000
vn 0.0000 1.0000 0.0000
vn 0.0000 1.0000 0.0000
vn 0.0000 1.0000 0.0000
vn 0.0000 1.0000 0.0000
vn 0.0000 1.0000 0.0000
vn 0.0000 1.0000 0.0000
vn 0.0000 1.0000 0.0000
vn 0.0000 1.0000 0.0000
vn 0.0000 1.0000 0.0000
vn 0.0000 1.0000 0.0000
vn 0.0000 1.0000 0.0000
vn 0.0000 1.0000 0.0000
vn 0.0000 1.0000 0.0000
vn 0.0000 1.0000 0.0000
vn 0.0000 1.0000 0.0000
vn 0.0000 1.0000 0.0000
vn 0.0000 1.0000 0.0000
vn 0.0000 1.0000 0.0000
vn 0.0000 1.0000 0.0000
vn 0.0000 1.0000 0.0000
vn 0.0000 1.0000 0.0000
vn 0.0000 1.0000 0.0000
vn 0.0000 1.0000 0.0000
vn 0.0000 1.0000 0.0000
vn 0.0000 1.0000 0.0000
vn 0.0000 1.0000 0.0000
vn 0.0000 1.0000 0.0000
vn 0.0000 1.0000 0.0000
vn 0.0000 1.0000 0.0000
vn 0.0000 1.0000 0.0000
vn 0.0000 1.0000 0.0000
vn 0.0000 1.0000 0.0000
vn 0.0000 1.0000 0.0000
vn 0.0000 1.0000 0.0000
vn 0.0000 1.0000 0.0000
vn 0.0000 1.0000 0.0000
vn 0.0000 1.0000 0.0000
vn 0.0000 1.0000 0.0000
vn 0.0000 1.0000 0.0000
vn 0.0000 1.0000 0.0000
vn 0.0000 1.0000 0.0000
vn 0.0000 1.0000 0.0000
vn 0.0000 1.0000 0.0000
vn 0.0000 1.0000 0.0000
vn 0.0000 1.0000 0.0000
vn 0.0000 1.0000 0.0000
vn 0.0000 1.0000 0.0000
vn 0.0000 1.0000 0.0000
vn 0.0000 1.0000 0.0000
vn 0.0000 1.0000 0.0000
vn 0.0000 1.0000 0.0000
vn 0.0000 1.0000 0.0000
vn 0.0000 1.0000 0.0000
vn 0.0000 1.0000 0.0000
vn 0.0000 1.0000 0.0000
vn 0.0000 1.0000 0.0000
vn 0.0000 1.0000 0.0000
vn 0.0000 1.0000 0.0000
vn 0.0000 1.0000 0.0000
vn 0.0000 1.0000 0.0000
vn 0.0000 1.0000 0.0000
vn 0.0000 1.0000 0.0000
vn 0.0000 1.0000 0.0000
vn 0.0000 1.0000 0.0000
vn 0.0000 1.0000 0.0000
vn 0.0000 1.0000 0.0000
vn 0.0000 1.0000 0.0000
vn 0.0000 1.0000 0.0000
vn 0.0000 1.0000 0.0000
vn 0.0000 1.0000 0.0000
vn 0.0000 1.0000 0.0000
vn 0.0000 1.0000 0.0000
vn 0.0000 1.0000 0.0000
vn 0.0000 1.0000 0.0000
vn 0.0000 1.0000 0.0000
vn 0.0000 1.0000 0.0000
vn 0.0000 1.0000 0.0000
vn 0.0000 1.0000 0.0000
vn 0.0000 1.0000 0.0000
vn 0.0000 1.0000 0.0000
vn 0.0000 1.0000 0.0000
vn 0.0000 1.0000 0.0000
vn 0.0000 1.0000 0.0000
vn 0.0000 1.0000 0.0000
vn 0.0000 1.0000 0.0000
vn 0.0000 1.0000 0.0000
vn 0.0000 1.0000 0.0000
vn 0.0000 1.0000 0.0000
vn 0.0000 1.0000 0.0000
vn 0.0000 1.0000 0.0000
vn 0.0000 1.0000 0.0000
vn 0.0000 1.0000 0.0000
vn 0.0000 1.0000 0.0000
vn 0.0000 1.0000 0.0000
vn 0.0000 1.0000 0.0000
vn 0.0000 1.0000 0.0000
vn 0.0000 1.0000 0.0000
vn 0.0000 1.0000 0.0000
vn 0.0000 1.0000 0.0000
vn 0.0000 1.0000 0.0000
vn 0.0000 1.0000 0.0000
vn 0.0000 1.0000 0.0000
vn 0.0000 1.0000 0.0000
vn 0.0000 1.0000 0.0000
vn 0.0000 1.0000 0.0000
vn 0.0000 1.0000 0.0000
vn 0.0000 1.0000 0.0000
vn 0.0000 1.0000 0.0000
vn 0.0000 1.0000 0.0000
vn 0.0000 1.0000 0.0000
vn 0.0000 1.0000 0.0000
vn 0.0000 1.0000 0.0000
vn 0.0000 1.0000 0.0000
vn 0.0000 1.0000 0.0000
vn 0.0000 1.0000 0.0000
vn 0.0000 1.0000 0.0000
vn 0.0000 1.0000 0.0000
vn 0.0000 1.0000 0.0000
vn 0.0000 1.0000 0.0000
vn 0.0000 1.0000 0.0000
vn 0.0000 1.0000 0.0000
vn 0.0000 1.0000 0.0000
vn 0.0000 1.0000 0.0000
vn 0.0000 1.0000 0.0000
vn 0.0000 1.0000 0.0000
vn 0.0000 1.0000 0.0000
vn 0.0000 1.0000 0.0000
vn 0.0000 1.0000 0.0000
vn 0.0000 1.0000 0.0000
vn 0.0000 1.0000 0.0000
vn 0.0000 1.0000 0.0000
vn 0.0000 1.0000 0.0000
vn 0.0000 1.0000 0.0000
vn 0.0000 1.0000 0.0000
vn 0.0000 1.0000 0.0000
vn 0.0000 1.0000 0.0000
vn 0.0000 1.0000 0.0000
vn 0.0000 1.0000 0.0000
vn 0.0000 1.0000 0.0000
vn 0.0000 1.0000 0.0000
vn 0.0000 1.0000 0.0000
vn 0.0000 1.0000 0.0000
vn 0.0000 1.0000 0.0000
vn 0.0000 1.0000 0.0000
vn 0.0000 1.0000 0.0000
vn 0.0000 1.0000 0.0000
vn 0.0000 1.0000 0.0000
vn 0.0000 1.0000 0.0000
vn 0.0000 1.0000 0.0000
vn 0.0000 1.0000 0.0000
vn 0.0000 1.0000 0.0000
vn 0.0000 1.0000 0.0000
vn 0.0000 1.0000 0.0000
vn 0.0000 1.0000 0.0000
vn 0.0000 1.0000 0.0000
vn 0.0000 1.0000 0.0000
vn 0.0000 1.0000 0.0000
vn 0.0000 1.0000 0.0000
vn 0.0000 1.0000 0.0000
vn 0.0000 1.0000 0.0000
vn 0.0000 1.0000 0.0000
vn 0.0000 1.0000 0.0000
vn 0.0000 1.0000 0.0000
vn 0.0000 1.0000 0.0000
vn 0.0000 1.0000 0.0000
vn 0.0000 1.0000 0.0000
vn 0.0000 1.0000 0.0000
vn 0.0000 1.0000 0.0000
vn 0.0000 1.0000 0.0000
vn 0.0000 1.0000 0.0000
vn 0.0000 1.0000 0.0000
vn 0.0000 1.0000 0.0000
vn 0.0000 1.0000 0.0000
vn 0.0000 1.0000 0.0000
vn 0.0000 1.0000 0.0000
vn 0.0000 1.0000 0.0000
vn 0.0000 1.0000 0.0000
vn 0.0000 1.0000 0.0000
vn 0.0000 1.0000 0.0000
vn 0.0000 1.0000 0.0000
vn 0.0000 1.0000 0.0000
vn 0.0000 1.0000 0.0000
vn 0.0000 1.0000 0.0000
vn 0.0000 1.0000 0.0000
vn 0.0000 1.0000 0.0000
vn 0.0000 1.0000 0.0000
vn 0.0000 1.0000 0.0000
vn 0.0000 1.0000 0.0000
vn 0.0000 1.0000 0.0000
vn 0.0000 1.0000 0.0000
vn 0.0000 1.0000 0.0000
vn 0.0000 1.0000 0.0000
vn 0.0000 1.0000 0.0000
vn 0.0000 1.0000 0.0000
vn 0.0000 1.0000 0.0000
vn 0.0000 1.0000 0.0000
vn 0.0000 1.0000 0.0000
vn 0.0000 1.0000 0.0000
vn 0.0000 1.0000 0.0000
vn 0.0000 1.0000 0.0000
vn 0.0000 1.0000 0.0000
vn 0.0000 1.0000 0.0000
vn 0.0000 1.0000 0.0000
vn 0.0000 1.0000 0.0000
vn 0.0000 1.0000 0.0000
vn 0.0000 1.0000 0.0000
vn 0.0000 1.0000 0.0000
vn 0.0000 1.0000 0.0000
vn 0.0000 1.0000 0.0000
vn 0.0000 1.0000 0.0000
vn 0.0000 1.0000 0.0000
vn 0.0000 1.0000 0.0000
vn 0.0000 1.0000 0.0000
vn 0.0000 1.0000 0.0000
vn 0.0000 1.0000 0.0000
vn 0.0000 1.0000 0.0000
vn 0.0000 1.0000 0.0000
vn 0.0000 1.0000 0.0000
vn 0.0000 1.0000 0.0000
vn 0.0000 1.0000 0.0000
vn 0.0000 1.0000 0.0000
vn 0.0000 1.0000 0.0000
vn 0.0000 1.0000 0.0000
vn 0.0000 1.0000 0.0000
vn 0.0000 1.0000 0.0000
vn 0.0000 1.0000 0.0000
vn 0.0000 1.0000 0.0000
vn 0.0000 1.0000 0.0000
vn 0.0000 1.0000 0.0000
vn 0.0000 1.0000 0.0000
vn 0.0000 1.0000 0.0000
vn 0.0000 1.0000 0.0000
vn 0.0000 1.0000 0.0000
vn 0.0000 1.0000 0.0000
vn 0.0000 1.0000 0.0000
vn 0.0000 1.0000 0.0000
vn 0.0000 1.0000 0.0000
vn 0.0000 1.0000 0.0000
vn 0.0000 1.0000 0.0000
vn 0.0000 1.0000 0.0000
vn 0.0000 1.0000 0.0000
vn 0.0000 1.0000 0.0000
vn 0.0000 1.0000 0.0000
vn 0.0000 1.0000 0.0000
vn 0.0000 1.0000 0.0000
vn 0.0000 1.0000 0.0000
vn 0.0000 1.0000 0.0000
vn 0.0000 1.0000 0.0000
vn 0.0000 1.0000 0.0000
vn 0.0000 1.0000 0.0000
vn 0.0000 1.0000 0.0000
vn 0.0000 1.0000 0.0000
vn 0.0000 1.0000 0.0000
vn 0.0000 1.0000 0.0000
vn 0.0000 1.0000 0.0000
vn 0.0000 1.0000 0.0000
vn 0.0000 1.0000 0.0000
vn 0.0000 1.0000 0.0000
vn 0.0000 1.0000 0.0000
vn 0.0000 1.0000 0.0000
vn 0.0000 1.0000 0.0000
vn 0.0000 1.0000 0.0000
vn 0.0000 1.0000 0.0000
vn 0.0000 1.0000 0.0000
vn 0.0000 1.0000 0.0000
vn 0.0000 1.0000 0.0000
vn 0.0000 1.0000 0.0000
vn 0.0000 1.0000 0.0000
vn 0.0000 1.0000 0.0000
vn 0.0000 1.0000 0.0000
vn 0.0000 1.0000 0.0000
vn 0.0000 1.0000 0.0000
vn 0.0000 1.0000 0.0000
vn 0.0000 1.0000 0.0000
vn 0.0000 1.0000 0.0000
vn 0.0000 1.0000 0.0000
vn 0.0000 1.0000 0.0000
vn 0.0000 1.0000 0.0000
vn 0.0000 1.0000 0.0000
vn 0.0000 1.0000 0.0000
vn 0.0000 1.0000 0.0000
vn 0.0000 1.0000 0.0000
vn 0.0000 1.0000 0.0000
vn 0.0000 1.0000 0.0000
vn 0.0000 1.0000 0.0000
vn 0.0000 1.0000 0.0000
vn 0.0000 1.0000 0.0000
vn 0.0000 1.0000 0.0000
vn 0.0000 1.0000 0.0000
vn 0.0000 1.0000 0.0000
vn 0.0000 1.0000 0.0000
vn 0.0000 1.0000 0.0000
vn 0.0000 1.0000 0.0000
vn 0.0000 1.0000 0.0000
vn 0.0000 1.0000 0.0000
vn 0.0000 1.0000 0.0000
vn 0.0000 1.0000 0.0000
vn 0.0000 1.0000 0.0000
vn 0.0000 1.0000 0.0000
vn 0.0000 1.0000 0.0000
vn 0.0000 1.0000 0.0000
vn 0.0000 1.0000 0.0000
vn 0.0000 1.0000 0.0000
vn 0.0000 1.0000 0.0000
vn 0.0000 1.0000 0.0000
vn 0.0000 1.0000 0.0000
vn 0.0000 1.0000 0.0000
vn 0.0000 1.0000 0.0000
vn 0.0000 1.0000 0.0000
vn 0.0000 1.0000 0.0000
vn 0.0000 1.0000 0.0000
vn 0.0000 1.0000 0.0000
vn 0.0000 1.0000 0.0000
vn 0.0000 1.0000 0.0000
vn 0.0000 1.0000 0.0000
vn 0.0000 1.0000 0.0000
vn 0.0000 1.0000 0.0000
vn 0.0000 1.0000 0.0000
vn 0.0000 1.0000 0.0000
vn 0.0000 1.0000 0.0000
vn 0.0000 1.0000 0.0000
vn 0.0000 1.0000 0.0000
vn 0.0000 1.0000 0.0000
vn 0.0000 1.0000 0.0000
vn 0.0000 1.0000 0.0000
vn 0.0000 1.0000 0.0000
vn 0.0000 1.0000 0.0000
vn 0.0000 1.0000 0.0000
vn 0.0000 1.0000 0.0000
vn 0.0000 1.0000 0.0000
vn 0.0000 1.0000 0.0000
vn 0.0000 1.0000 0.0000
vn 0.0000 1.0000 0.0000
vn 0.0000 1.0000 0.0000
vn 0.0000 1.0000 0.0000
vn 0.0000 1.0000 0.0000
vn 0.0000 1.0000 0.0000
vn 0.0000 1.0000 0.0000
vn 0.0000 1.0000 0.0000
vn 0.0000 1.0000 0.0000
vn 0.0000 1.0000 0.0000
vn 0.0000 1.0000 0.0000
vn 0.0000 1.0000 0.0000
vn 0.0000 1.0000 0.0000
vn 0.0000 1.0000 0.0000
vn 0.0000 1.0000 0.0000
vn 0.0000 1.0000 0.0000
vn 0.0000 1.0000 0.0000
vn 0.0000 1.0000 0.0000
vn 0.0000 1.0000 0.0000
vn 0.0000 1.0000 0.0000
vn 0.0000 1.0000 0.0000
vn 0.0000 1.0000 0.0000
vn 0.0000 1.0000 0.0000
vn 0.0000 1.0000 0.0000
vn 0.0000 1.0000 0.0000
vn 0.0000 1.0000 0.0000
vn 0.0000 1.0000 0.0000
vn 0.0000 1.0000 0.0000
vn 0.0000 1.0000 0.0000
vn 0.0000 1.0000 0.0000
vn 0.0000 1.0000 0.0000
vn 0.0000 1.0000 0.0000
vn 0.0000 1.0000 0.0000
vn 0.0000 1.0000 0.0000
vn 0.0000 1.0000 0.0000
vn 0.0000 1.0000 0.0000
vn 0.0000 1.0000 0.0000
vn 0.0000 1.0000 0.0000
vn 0.0000 1.0000 0.0000
vn 0.0000 1.0000 0.0000
vn 0.0000 1.0000 0.0000
vn 0.0000 1.0000 0.0000
vn 0.0000 1.0000 0.0000
vn 0.0000 1.0000 0.0000
vn 0.0000 1.0000 0.0000
vn 0.0000 1.0000 0.0000
vn 0.0000 1.0000 0.0000
vn 0.0000 1.0000 0.0000
vn 0.0000 1.0000 0.0000
vn 0.0000 1.0000 0.0000
vn 0.0000 1.0000 0.0000
vn 0.0000 1.0000 0.0000
vn 0.0000 1.0000 0.0000
vn 0.0000 1.0000 0.0000
vn 0.0000 1.0000 0.0000
vn 0.0000 1.0000 0.0000
vn 0.0000 1.0000 0.0000
vn 0.0000 1.0000 0.0000
vn 0.0000 1.0000 0.0000
vn 0.0000 1.0000 0.0000
vn 0.0000 1.0000 0.0000
vn 0.0000 1.0000 0.0000
vn 0.0000 1.0000 0.0000
vn 0.0000 1.0000 0.0000
vn 0.0000 1.0000 0.0000
vn 0.0000 1.0000 0.0000
vn 0.0000 1.0000 0.0000
vn 0.0000 1.0000 0.0000
vn 0.0000 1.0000 0.0000
vn 0.0000 1.0000 0.0000
vn 0.0000 1.0000 0.0000
vn 0.0000 1.0000 0.0000
vn 0.0000 1.0000 0.0000
vn 0.0000 1.0000 0.0000
vn 0.0000 1.0000 0.0000
vn 0.0000 1.0000 0.0000
vn 0.0000 1.0000 0.0000
vn 0.0000 1.0000 0.0000
vn 0.0000 1.0000 0.0000
vn 0.0000 1.0000 0.0000
vn 0.0000 1.0000 0.0000
vn 0.0000 1.0000 0.0000
vn 0.0000 1.0000 0.0000
vn 0.0000 1.0000 0.0000
vn 0.0000 1.0000 0.0000
vn 0.0000 1.0000 0.0000
vn 0.0000 1.0000 0.0000
vn 0.0000 1.0000 0.0000
vn 0.0000 1.0000 0.0000
vn 0.0000 1.0000 0.0000
vn 0.0000 1.0000 0.0000
vn 0.0000 1.0000 0.0000
vn 0.0000 1.0000 0.0000
vn 0.0000 1.0000 0.0000
vn 0.0000 1.0000 0.0000
vn 0.0000 1.0000 0.0000
vn 0.0000 1.0000 0.0000
vn 0.0000 1.0000 0.0000
vn 0.0000 1.0000 0.0000
vn 0.0000 1.0000 0.0000
vn 0.0000 1.0000 0.0000
vn 0.0000 1.0000 0.0000
vn 0.0000 1.0000 0.0000
vn 0.0000 1.0000 0.0000
vn 0.0000 1.0000 0.0000
vn 0.0000 1.0000 0.0000
vn 0.0000 1.0000 0.0000
vn 0.0000 1.0000 0.0000
vn 0.0000 1.0000 0.0000
vn 0.0000 1.0000 0.0000
vn 0.0000 1.0000 0.0000
vn 0.0000 1.0000 0.0000
vn 0.0000 1.0000 0.0000
vn 0.0000 1.0000 0.0000
vn 0.0000 1.0000 0.0000
vn 0.0000 1.0000 0.0000
vn 0.0000 1.0000 0.0000
vn 0.0000 1.0000 0.0000
vn 0.0000 1.0000 0.0000
vn 0.0000 1.0000 0.0000
vn 0.0000 1.0000 0.0000
vn 0.0000 1.0000 0.0000
vn 0.0000 1.0000 0.0000
vn 0.0000 1.0000 0.0000
vn 0.0000 1.0000 0.0000
vn 0.0000 1.0000 0.0000
vn 0.0000 1.0000 0.0000
vn 0.0000 1.0000 0.0000
vn 0.0000 1.0000 0.0000
vn 0.0000 1.0000 0.0000
vn 0.0000 1.0000 0.0000
vn 0.0000 1.0000 0.0000
vn 0.0000 1.0000 0.0000
vn 0.0000 1.0000 0.0000
vn 0.0000 1.0000 0.0000
vn 0.0000 1.0000 0.0000
vn 0.0000 1.0000 0.0000
vn 0.0000 1.0000 0.0000
vn 0.0000 1.0000 0.0000
vn 0.0000 1.0000 0.0000
vn 0.0000 1.0000 0.0000
f 1 2 3
f 4 5 6
f 7 8 9
f 10 11 12
f 13 14 15
f 16 17 18
f 19 20 21
f 22 23 24
f 25 26 27
f 28 29 30
f 31 32 33
f 34 35 36
f 37 38 39
f 40 41 42
f 43 44 45
f 46 47 48
f 49 50 51
f 52 53 54
f 55 56 57
f 58 59 60
f 61 62 63
f 64 65 66
f 67 68 69
f 70 71 72
f 73 74 75
f 76 77 78
f 79 80 81
f 82 83 84
f 85 86 87
f 88 89 90
f 91 92 93
f 94 95 96
f 97 98 99
f 100 101 102
f 103 104 105
f 106 107 108
f 109 110 111
f 112 113 114
f 115 116 117
f 118 119 120
f 121 122 123
f 124 125 126
f 127 128 129
f 130 131 132
f 133 134 135
f 136 137 138
f 139 140 141
f 142 143 144
f 145 146 147
f 148 149 150
f 151 152 153
f 154 155 156
f 157 158 159
f 160 161 162
f 163 164 165
f 166 167 168
f 169 170 171
f 172 173 174
f 175 176 177
f 178 179 180
f 181 182 183
f 184 185 186
f 187 188 189
f 190 191 192
f 193 194 195
f 196 197 198
f 199 200 201
f 202 203 204
f 205 206 207
f 208 209 210
f 211 212 213
f 214 215 216
f 217 218 219
f 220 221 222
f 223 224 225
f 226 227 228
f 229 230 231
f 232 233 234
f 235 236 237
f 238 239 240
f 241 242 243
f 244 245 246
f 247 248 249
f 250 251 252
f 253 254 255
f 256 257 258
f 259 260 261
f 262 263 264
f 265 266 267
f 268 269 270
f 271 272 273
f 274 275 276
f 277 278 279
f 280 281 282
f 283 284 285
f 286 287 288
f 289 290 291
f 292 293 294
f 295 296 297
f 298 299 300
f 301 302 303
f 304 305 306
f 307 308 309
f 310 311 312
f 313 314 315
f 316 317 318
f 319 320 321
f 322 323 324
f 325 326 327
f 328 329 330
f 331 332 333
f 334 335 336
f 337 338 339
f 340 341 342
f 343 344 345
f 346 347 348
f 349 350 351
f 352 353 354
f 355 356 357
f 358 359 360
f 361 362 363
f 364 365 366
f 367 368 369
f 370 371 372
f 373 374 375
f 376 377 378
f 379 380 381
f 382 383 384
f 385 386 387
f 388 389 390
f 391 392 393
f 394 395 396
f 397 398 399
f 400 401 402
f 403 404 405
f 406 407 408
f 409 410 411
f 412 413 414
f 415 416 417
f 418 419 420
f 421 422 423
f 424 425 426
f 427 428 429
f 430 431 432
f 433 434 435
f 436 437 438
f 439 440 441
f 442 443 444
f 445 446 447
f 448 449 450
f 451 452 453
f 454 455 456
f 457 458 459
f 460 461 462
f 463 464 465
f 466 467 468
f 469 470 471
f 472 473 474
f 475 476 477
f 478 479 480
f 481 482 483
f 484 485 486
f 487 488 489
f 490 491 492
f 493 494 495
f 496 497 498
f 499 500 501
f 502 503 504
f 505 506 507
f 508 509 510
f 511 512 513
f 514 515 516
f 517 518 519
f 520 521 522
f 523 524 525
f 526 527 528
f 529 530 531
f 532 533 534
f 535 536 537
f 538 539 540
f 541 542 543
f 544 545 546
f 547 548 549
f 550 551 552
f 553 554 555
f 556 557 558
f 559 560 561
f 562 563 564
f 565 566 567
f 568 569 570
f 571 572 573
f 574 575 576
f 577 578 579
f 580 581 582
f 583 584 585
f 586 587 588
f 589 590 591
f 592 593 594
f 595 596 597
f 598 599 600
f 601 602 603
f 604 605 606
f 607 608 609
f 610 611 612
f 613 614 615
f 616 617 618
f 619 620 621
f 622 623 624
f 625 626 627
f 628 629 630
f 631 632 633
f 634 635 636
f 637 638 639
f 640 641 642
f 643 644 645
f 646 647 648
f 649 650 651
f 652 653 654
f 655 656 657
f 658 659 660
f 661 662 663
f 664 665 666
f 667 668 669
f 670 671 672
f 673 674 675
f 676 677 678
f 679 680 681
f 682 683 684
f 685 686 687
f 688 689 690
f 691 692 693
f 694 695 696
f 697 698 699
f 700 701 702
f 703 704 705
f 706 707 708
f 709 710 711
f 712 713 714
f 715 716 717
f 718 719 720
f 721 722 723
f 724 725 726
f 727 728 729
f 730 731 732
f 733 734 735
f 736 737 738
f 739 740 741
f 742 743 744
f 745 746 747
f 748 749 750
f 751 752 753
f 754 755 756
f 757 758 759
f 760 761 762
f 763 764 765
f 766 767 768
f 769 770 771
f 772 773 774
f 775 776 777
f 778 779 780
f 781 782 783
f 784 785 786
f 787 788 789
f 790 791 792
f 793 794 795
f 796 797 798
f 799 800 801
f 802 803 804
f 805 806 807
f 808 809 810
f 811 812 813
f 814 815 816
f 817 818 819
f 820 821 822
f 823 824 825
f 826 827 828
f 829 830 831
f 832 833 834
f 835 836 837
f 838 839 840
f 841 842 843
f 844 845 846
f 847 848 849
f 850 851 852
f 853 854 855
f 856 857 858
f 859 860 861
f 862 863 864
f 865 866 867
f 868 869 870
f 871 872 873
f 874 875 876
f 877 878 879
f 880 881 882
f 883 884 885
f 886 887 888
f 889 890 891
f 892 893 894
f 895 896 897
f 898 899 900
f 901 902 903
f 904 905 906
f 907 908 909
f 910 911 912
f 913 914 915
f 916 917 918
f 919 920 921
f 922 923 924
f 925 926 927
f 928 929 930
f 931 932 933
f 934 935 936
f 937 938 939
f 940 941 942
f 943 944 945
f 946 947 948
f 949 950 951
f 952 953 954
f 955 956 957
f 958 959 960
f 961 962 963
f 964 965 966
f 967 968 969
f 970 971 972
f 973 974 975
f 976 977 978
f 979 980 981
f 982 983 984
f 985 986 987
f 988 989 990
f 991 992 993
f 994 995 996
f 997 998 999
f 1000 1001 1002
f 1003 1004 1005
f 1006 1007 1008
f 1009 1010 1011
f 1012 1013 1014
f 1015 1016 1017
f 1018 1019 1020
f 1021 1022 1023
f 1024 1025 1026
f 1027 1028 1029
f 1030 1031 1032
f 1033 1034 1035
f 1036 1037 1038
f 1039 1040 1041
f 1042 1043 1044
f 1045 1046 1047
f 1048 1049 1050
f 1051 1052 1053
f 1054 1055 1056
f 1057 1058 1059
f 1060 1061 1062
f 1063 1064 1065
f 1066 1067 1068
f 1069 1070 1071
f 1072 1073 1074
f 1075 1076 1077
f 1078 1079 1080
f 1081 1082 1083
f 1084 1085 1086
f 1087 1088 1089
f 1090 1091 1092
f 1093 1094 1095
f 1096 1097 1098
f 1099 1100 1101
f 1102 1103 1104
f 1105 1106 1107
f 1108 1109 1110
f 1111 1112 1113
f 1114 1115 1116
f 1117 1118 1119
f 1120 1121 1122
f 1123 1124 1125
f 1126 1127 1128
f 1129 1130 1131
f 1132 1133 1134
f 1135 1136 1137
f 1138 1139 1140
f 1141 1142 1143
f 1144 1145 1146
f 1147 1148 1149
f 1150 1151 1152
f 1153 1154 1155
f 1156 1157 1158
f 1159 1160 1161
f 1162 1163 1164
f 1165 1166 1167
f 1168 1169 1170
f 1171 1172 1173
f 1174 1175 1176
f 1177 1178 1179
f 1180 1181 1182
f 1183 1184 1185
f 1186 1187 1188
f 1189 1190 1191
f 1192 1193 1194
f 1195 1196 1197
f 1198 1199 1200
f 1201 1202 1203
f 1204 1205 1206
f 1207 1208 1209
f 1210 1211 1212
f 1213 1214 1215
f 1216 1217 1218
f 1219 1220 1221
f 1222 1223 1224
f 1225 1226 1227
f 1228 1229 1230
f 1231 1232 1233
f 1234 1235 1236
f 1237 1238 1239
f 1240 1241 1242
f 1243 1244 1245
f 1246 1247 1248
f 1249 1250 1251
f 1252 1253 1254
f 1255 1256 1257
f 1258 1259 1260
f 1261 1262 1263
f 1264 1265 1266
f 1267 1268 1269
f 1270 1271 1272
f 1273 1274 1275
f 1276 1277 1278
f 1279 1280 1281
f 1282 1283 1284
f 1285 1286 1287
f 1288 1289 1290
f 1291 1292 1293
f 1294 1295 1296
f 1297 1298 1299
f 1300 1301 1302
f 1303 1304 1305
f 1306 1307 1308
f 1309 1310 1311
f 1312 1313 1314
f 1315 1316 1317
f 1318 1319 1320
f 1321 1322 1323
f 1324 1325 1326
f 1327 1328 1329
f 1330 1331 1332
f 1333 1334 1335
f 1336 1337 1338
f 1339 1340 1341
f 1342 1343 1344
f 1345 1346 1347
f 1348 1349 1350
f 1351 1352 1353
f 1354 1355 1356
f 1357 1358 1359
f 1360 1361 1362
f 1363 1364 1365
f 1366 1367 1368
f 1369 1370 1371
f 1372 1373 1374
f 1375 1376 1377
f 1378 1379 1380
f 1381 1382 1383
f 1384 1385 1386
f 1387 1388 1389
f 1390 1391 1392
f 1393 1394 1395
f 1396 1397 1398
f 1399 1400 1401
f 1402 1403 1404
f 1405 1406 1407
f 1408 1409 1410
f 1411 1412 1413
f 1414 1415 1416
f 1417 1418 1419
f 1420 1421 1422
f 1423 1424 1425
f 1426 1427 1428
f 1429 1430 1431
f 1432 1433 1434
f 1435 1436 1437
f 1438 1439 1440
f 1441 1442 1443
f 1444 1445 1446
f 1447 1448 1449
f 1450 1451 1452
f 1453 1454 1455
f 1456 1457 1458
f 1459 1460 1461
f 1462 1463 1464
f 1465 1466 1467
f 1468 1469 1470
f 1471 1472 1473
f 1474 1475 1476
f 1477 1478 1479
f 1480 1481 1482
f 1483 1484 1485
f 1486 1487 1488
f 1489 1490 1491
f 1492 1493 1494
f 1495 1496 1497
f 1498 1499 1500
f 1501 1502 1503
f 1504 1505 1506
f 1507 1508 1509
f 1510 1511 1512
f 1513 1514 1515
f 1516 1517 1518
f 1519 1520 1521
f 1522 1523 1524
f 1525 1526 1527
f 1528 1529 1530
f 1531 1532 1533
f 1534 1535 1536
f 1537 1538 1539
f 1540 1541 1542
f 1543 1544 1545
f 1546 1547 1548
f 1549 1550 1551
f 1552 1553 1554
f 1555 1556 1557
f 1558 1559 1560
f 1561 1562 1563
f 1564 1565 1566
f 1567 1568 1569
f 1570 1571 1572
f 1573 1574 1575
f 1576 1577 1578
f 1579 1580 1581
f 1582 1583 1584
f 1585 1586 1587
f 1588 1589 1590
f 1591 1592 1593
f 1594 1595 1596
f 1597 1598 1599
f 1600 1601 1602
f 1603 1604 1605
f 1606 1607 1608
f 1609 1610 1611
f 1612 1613 1614
f 1615 1616 1617
f 1618 1619 1620
f 1621 1622 1623
f 1624 1625 1626
f 1627 1628 1629
f 1630 1631 1632
f 1633 1634 1635
f 1636 1637 1638
f 1639 1640 1641
f 1642 1643 1644
f 1645 1646 1647
f 1648 1649 1650
f 1651 1652 1653
f 1654 1655 1656
f 1657 1658 1659
f 1660 1661 1662
f 1663 1664 1665
f 1666 1667 1668
f 1669 1670 1671
f 1672 1673 1674
f 1675 1676 1677
f 1678 1679 1680
f 1681 1682 1683
f 1684 1685 1686
f 1687 1688 1689
f 1690 1691 1692
f 1693 1694 1695
f 1696 1697 1698
