# PSO Extracted Authentic Geometry
v 0.0000 134.5845 0.0000
v 0.0000 0.0000 134.5845
v 390.4180 0.0000 0.0000
v 800.0000 0.0000 0.0000
v 0.0000 -3.0118 0.0000
v 0.0000 0.0000 47.5000
v 0.0000 148.1714 0.0000
v 0.0000 1.0000 1.0000
v 1.0000 0.0000 0.0000
v 0.0000 0.0000 77.5097
v 0.0000 143.0063 0.0000
v 0.0000 1.0000 1.0000
v 1.0000 0.0000 0.0000
v 0.0000 0.4980 0.0000
v 0.0000 0.0000 21.0000
v 0.0000 150.9076 0.0000
v 0.0000 1.0000 1.0000
v 1.0000 0.0000 0.0000
v 0.0000 0.4980 0.0000
v 0.0000 21.0000 0.0000
v 150.9076 0.0000 0.0000
v 1.0000 1.0000 1.0000
v 0.5020 -2.0078 0.0000
v 1.9486 60.2642 0.0000
v 149.3908 0.0000 0.0000
v 1.0000 1.0000 1.0000
v 47.2367 0.0000 137.0030
v 0.0000 0.0000 1.0000
v 1.0000 1.0000 0.0000
v 18.8980 0.0000 0.0000
v -0.0000 47.2606 0.0000
v 137.0069 0.0000 0.0000
v 1.0000 1.0000 1.0000
v -3.0118 0.0000 0.0000
v 47.5000 0.0000 148.1714
v 0.0000 0.0000 1.0000
v 1.0000 1.0000 0.0000
v -3.0118 0.0000 0.0000
v 0.0000 47.5000 0.0000
v 148.1714 0.0000 0.0000
v 1.0000 1.0000 1.0000
v 0.0000 -3.0118 0.0000
v 47.5000 -0.0000 148.1714
v 0.0000 0.0000 1.0000
v 1.0000 1.0000 0.0000
v 27.5000 0.0000 174.8035
v 0.0000 0.0000 1.0000
v 1.0000 1.0000 0.0000
v 82.5000 -0.0000 135.5310
v 0.0000 0.0000 1.0000
v 1.0000 1.0000 0.0000
v 79.9000 -24.0000 -0.0000
v -48.0000 -0.0000 -41.5692
v 79.9000 -24.0000 -0.0000
v 41.5692 79.9000 24.0000
v 58.0000 0.0000 -50.0000
v 79.5000 28.0000 0.0000
v 0.0000 79.4000 -57.0000
v 0.0000 -50.0000 79.5000
v -28.0000 0.0000 50.0000
v 79.4000 -29.5000 0.0000
v 50.0000 79.4000 29.5000
v 79.9000 -17.3040 -0.0000
v -34.6080 -0.0000 -29.9714
v 79.9000 -17.3040 -0.0000
v 29.9714 79.9000 17.3040
v -39.7000 0.0000 -34.5000
v 79.4000 -20.0000 0.0000
v -34.5000 79.4000 20.0000
v 0.0000 0.0000 79.4000
v 39.3000 0.0000 34.5000
v 79.4000 19.5000 0.0000
v 34.5000 79.4000 -20.0000
v 79.6500 0.5000 58.3101
v 0.0000 0.0000 1.0000
v 1.0000 1.0000 0.0000
v 0.0000 1.0000 0.0000
v 0.0000 -20.0039 38.6649
v 0.0000 146.1088 0.0000
v 0.0000 1.0000 1.0000
v 1.0000 0.0000 0.0000
v 0.0000 -3.0118 0.0000
v 0.0000 0.0000 47.5000
v 0.0000 148.1714 0.0000
v 0.0000 1.0000 1.0000
v 1.0000 0.0000 0.0000
v 47.5000 0.0000 148.1714
v 0.0000 0.0000 1.0000
v 1.0000 1.0000 0.0000
v 1.0000 0.0000 0.0000
v 0.0000 58.0010 0.0000
v 147.4364 0.0000 0.0000
v 1.0000 1.0000 1.0000
v 0.0000 34.6000 0.0000
v 127.5984 0.0000 0.0000
v 1.0000 1.0000 1.0000
v 0.0000 -0.0000 27.5000
v 0.0000 156.4648 0.0000
v 0.0000 1.0000 1.0000
v 1.0000 0.0000 0.0000
v 1.0941 -1.0039 0.0000
v 0.0000 0.0000 82.5000
v -0.0000 135.5310 0.0000
v 0.0000 1.0000 1.0000
v 1.0000 0.0000 0.0000
v 1.9529 0.5725 0.0000
v -66.3866 10.0000 85.7842
v 39.6190 0.0000 0.0000
v 1.0000 1.0000 1.0000
v 0.0000 -0.9176 0.0000
v 0.0000 43.5000 23.5000
v 88.0000 41.5873 0.0000
v 0.0000 1.0000 1.0000
v 1.0000 0.0000 0.0000
v 0.8196 0.4980 0.0000
v 51.5000 -65.0000 104.6339
v 0.0000 0.0000 1.0000
v 1.0000 1.0000 0.0000
v 0.6667 0.0000 0.0000
v 0.0000 0.0000 19.0124
v 6.8165 -6.0879 56.0534
v 0.0000 0.0000 1.0000
v 1.0000 1.0000 0.0000
v 2.0078 1.0000 0.0000
v 0.0000 48.5000 48.0000
v 131.1726 0.0000 0.0000
v 1.0000 1.0000 1.0000
v 1.0000 0.0000 0.0000
v 0.0000 24.5000 272.5000
v 46.2331 0.0000 0.0000
v 1.0000 1.0000 1.0000
v 1.0078 0.0000 0.0000
v 0.0000 0.0000 51.5000
v -110.3192 144.5605 0.0000
v 0.0000 1.0000 1.0000
v 1.0000 0.0000 0.0000
v 0.7608 0.0000 0.0000
v 0.0000 0.0000 2.5000
v 50.0000 160.5000 276.0009
v 0.0000 0.0000 1.0000
v 1.0000 1.0000 0.0000
v 0.9451 0.9333 0.0000
v 0.0000 -0.2179 0.0000
v 125.6000 0.0000 0.0000
v 1.0000 1.0000 1.0000
v 0.0000 0.0000 -19.3349
v 0.0000 147.2384 0.0000
v 0.0000 1.0000 1.0000
v 1.0000 0.0000 0.0000
v 70.6000 0.0000 61.2000
v -0.1000 33.5000 0.0000
v 60.6000 -0.1000 -35.8000
v 0.0000 -0.2000 -0.1000
v -73.2000 0.0000 -63.2000
v -0.1000 -35.6000 0.0000
v -64.3000 -0.1000 34.6000
v 0.0000 0.2500 -0.1000
v 0.0500 101.5325 0.0000
v 0.0000 1.0000 1.0000
v 1.0000 0.0000 0.0000
v 6.0235 -1.0039 0.0000
v 0.0000 0.0000 -19.3349
v 0.0000 147.2384 0.0000
v 0.0000 1.0000 1.0000
v 1.0000 0.0000 0.0000
v -1.0039 0.0000 0.0000
v 0.0000 -19.3349 0.0000
v 147.2384 0.0000 0.0000
v 1.0000 1.0000 1.0000
v 0.0000 0.0000 2.0500
v 0.0000 40.8754 0.0000
v 0.0000 1.0000 1.0000
v 1.0000 0.0000 0.0000
v 0.8706 0.0000 0.0000
v 0.0000 0.0000 -20.0000
v -0.0000 69.0844 0.0000
v 0.0000 1.0000 1.0000
v 1.0000 0.0000 0.0000
v -20.0000 0.0000 151.3275
v 0.0000 0.0000 1.0000
v 1.0000 1.0000 0.0000
v -19.3349 0.0000 147.2384
v 0.0000 0.0000 1.0000
v 1.0000 1.0000 0.0000
v 6.0235 -1.0039 0.0000
v 0.0000 0.0000 -19.3349
v 0.0000 147.2384 0.0000
v 0.0000 1.0000 1.0000
v 1.0000 0.0000 0.0000
v -1.0039 0.0000 0.0000
v -19.3349 0.0000 147.2384
v 0.0000 0.0000 1.0000
v 1.0000 1.0000 0.0000
v 0.0157 0.0000 0.0000
v 0.0000 0.0000 -0.9500
v -0.5710 8.9000 139.1847
v 0.0000 0.0000 1.0000
v 1.0000 1.0000 0.0000
v 0.0510 0.9176 0.0000
v 0.0000 2.0500 0.0000
v 40.8754 0.0000 0.0000
v 1.0000 1.0000 1.0000
v 0.0000 0.0000 -20.0000
v -0.0000 69.0844 0.0000
v 0.0000 1.0000 1.0000
v 1.0000 0.0000 0.0000
v -20.0000 0.0000 151.3275
v 0.0000 0.0000 1.0000
v 1.0000 1.0000 0.0000
v 2.8000 15.0000 0.0000
v -51.7019 2.8000 15.0338
v 0.0000 -97.7297 2.8000
v -15.0847 0.0000 -51.7675
v 2.8000 -15.1298 0.0000
v -38.8200 2.8000 37.3300
v 0.0000 -61.8200 2.8000
v 77.1000 0.0000 -35.7950
v 2.8000 92.1050 0.0000
v -12.8150 2.8000 52.3350
v 0.0000 12.7765 2.8000
v 52.3988 0.0000 35.8850
v 2.8000 92.0350 0.0000
v 39.0668 2.8000 37.2589
v 0.0000 61.9097 2.8000
v 77.0632 0.0000 51.7625
v 2.8000 15.1500 0.0000
v 97.7500 2.8000 14.9900
v 0.0000 97.8494 2.8000
v -15.1145 0.0000 51.7726
v 2.8000 -15.1702 0.0000
v 38.9961 2.8000 -37.2589
v 0.0000 61.9750 2.8000
v -77.2550 0.0000 36.1688
v 2.8000 -92.4218 0.0000
v 12.8270 2.8000 -52.3180
v 0.0000 -12.8270 2.8000
v -52.3180 0.0000 -12.8270
v 2.8000 -52.3180 0.0000
v -35.8849 2.8000 -92.3422
v 0.0000 -61.8850 2.8000
v -77.1450 0.0000 -38.9860
v 2.8000 -37.2690 0.0000
v -97.7400 2.8000 15.0000
v -51.7019 2.8000 15.0338
v -97.7297 2.8000 -15.0847
v -51.7675 2.8000 -15.1298
v -38.8200 2.8000 37.3300
v -61.8200 2.8000 77.1000
v -35.7950 2.8000 92.1050
v -12.8150 2.8000 52.3350
v 12.7765 2.8000 52.3988
v 35.8850 2.8000 92.0350
v 39.0668 2.8000 37.2589
v 61.9097 2.8000 77.0632
v 51.7625 2.8000 15.1500
v 97.7500 2.8000 14.9900
v 97.8494 2.8000 -15.1145
v 51.7726 2.8000 -15.1702
v 38.9961 2.8000 -37.2589
v 61.9750 2.8000 -77.2550
v 36.1688 2.8000 -92.4218
v 12.8270 2.8000 -52.3180
v -12.8270 2.8000 -52.3180
v -12.8270 2.8000 -52.3180
v -35.8849 2.8000 -92.3422
v -61.8850 2.8000 -77.1450
v -38.9860 2.8000 -37.2690
v 0.0000 0.0000 0.0547
v 1.3500 -0.1584 99.0902
v 0.0000 0.0000 1.0000
v 1.0000 1.0000 0.0000
v 0.0000 0.0000 4.5000
v 0.5000 242.0000 115.8426
v 0.0000 0.0000 1.0000
vn 0.0000 1.0000 0.0000
vn 0.0000 1.0000 0.0000
vn 0.0000 1.0000 0.0000
vn 0.0000 1.0000 0.0000
vn 0.0000 1.0000 0.0000
vn 0.0000 1.0000 0.0000
vn 0.0000 1.0000 0.0000
vn 0.0000 1.0000 0.0000
vn 0.0000 1.0000 0.0000
vn 0.0000 1.0000 0.0000
vn 0.0000 1.0000 0.0000
vn 0.0000 1.0000 0.0000
vn 0.0000 1.0000 0.0000
vn 0.0000 1.0000 0.0000
vn 0.0000 1.0000 0.0000
vn 0.0000 1.0000 0.0000
vn 0.0000 1.0000 0.0000
vn 0.0000 1.0000 0.0000
vn 0.0000 1.0000 0.0000
vn 0.0000 1.0000 0.0000
vn 0.0000 1.0000 0.0000
vn 0.0000 1.0000 0.0000
vn 0.0000 1.0000 0.0000
vn 0.0000 1.0000 0.0000
vn 0.0000 1.0000 0.0000
vn 0.0000 1.0000 0.0000
vn 0.0000 1.0000 0.0000
vn 0.0000 1.0000 0.0000
vn 0.0000 1.0000 0.0000
vn 0.0000 1.0000 0.0000
vn 0.0000 1.0000 0.0000
vn 0.0000 1.0000 0.0000
vn 0.0000 1.0000 0.0000
vn 0.0000 1.0000 0.0000
vn 0.0000 1.0000 0.0000
vn 0.0000 1.0000 0.0000
vn 0.0000 1.0000 0.0000
vn 0.0000 1.0000 0.0000
vn 0.0000 1.0000 0.0000
vn 0.0000 1.0000 0.0000
vn 0.0000 1.0000 0.0000
vn 0.0000 1.0000 0.0000
vn 0.0000 1.0000 0.0000
vn 0.0000 1.0000 0.0000
vn 0.0000 1.0000 0.0000
vn 0.0000 1.0000 0.0000
vn 0.0000 1.0000 0.0000
vn 0.0000 1.0000 0.0000
vn 0.0000 1.0000 0.0000
vn 0.0000 1.0000 0.0000
vn 0.0000 1.0000 0.0000
vn 0.0000 1.0000 0.0000
vn 0.0000 1.0000 0.0000
vn 0.0000 1.0000 0.0000
vn 0.0000 1.0000 0.0000
vn 0.0000 1.0000 0.0000
vn 0.0000 1.0000 0.0000
vn 0.0000 1.0000 0.0000
vn 0.0000 1.0000 0.0000
vn 0.0000 1.0000 0.0000
vn 0.0000 1.0000 0.0000
vn 0.0000 1.0000 0.0000
vn 0.0000 1.0000 0.0000
vn 0.0000 1.0000 0.0000
vn 0.0000 1.0000 0.0000
vn 0.0000 1.0000 0.0000
vn 0.0000 1.0000 0.0000
vn 0.0000 1.0000 0.0000
vn 0.0000 1.0000 0.0000
vn 0.0000 1.0000 0.0000
vn 0.0000 1.0000 0.0000
vn 0.0000 1.0000 0.0000
vn 0.0000 1.0000 0.0000
vn 0.0000 1.0000 0.0000
vn 0.0000 1.0000 0.0000
vn 0.0000 1.0000 0.0000
vn 0.0000 1.0000 0.0000
vn 0.0000 1.0000 0.0000
vn 0.0000 1.0000 0.0000
vn 0.0000 1.0000 0.0000
vn 0.0000 1.0000 0.0000
vn 0.0000 1.0000 0.0000
vn 0.0000 1.0000 0.0000
vn 0.0000 1.0000 0.0000
vn 0.0000 1.0000 0.0000
vn 0.0000 1.0000 0.0000
vn 0.0000 1.0000 0.0000
vn 0.0000 1.0000 0.0000
vn 0.0000 1.0000 0.0000
vn 0.0000 1.0000 0.0000
vn 0.0000 1.0000 0.0000
vn 0.0000 1.0000 0.0000
vn 0.0000 1.0000 0.0000
vn 0.0000 1.0000 0.0000
vn 0.0000 1.0000 0.0000
vn 0.0000 1.0000 0.0000
vn 0.0000 1.0000 0.0000
vn 0.0000 1.0000 0.0000
vn 0.0000 1.0000 0.0000
vn 0.0000 1.0000 0.0000
vn 0.0000 1.0000 0.0000
vn 0.0000 1.0000 0.0000
vn 0.0000 1.0000 0.0000
vn 0.0000 1.0000 0.0000
vn 0.0000 1.0000 0.0000
vn 0.0000 1.0000 0.0000
vn 0.0000 1.0000 0.0000
vn 0.0000 1.0000 0.0000
vn 0.0000 1.0000 0.0000
vn 0.0000 1.0000 0.0000
vn 0.0000 1.0000 0.0000
vn 0.0000 1.0000 0.0000
vn 0.0000 1.0000 0.0000
vn 0.0000 1.0000 0.0000
vn 0.0000 1.0000 0.0000
vn 0.0000 1.0000 0.0000
vn 0.0000 1.0000 0.0000
vn 0.0000 1.0000 0.0000
vn 0.0000 1.0000 0.0000
vn 0.0000 1.0000 0.0000
vn 0.0000 1.0000 0.0000
vn 0.0000 1.0000 0.0000
vn 0.0000 1.0000 0.0000
vn 0.0000 1.0000 0.0000
vn 0.0000 1.0000 0.0000
vn 0.0000 1.0000 0.0000
vn 0.0000 1.0000 0.0000
vn 0.0000 1.0000 0.0000
vn 0.0000 1.0000 0.0000
vn 0.0000 1.0000 0.0000
vn 0.0000 1.0000 0.0000
vn 0.0000 1.0000 0.0000
vn 0.0000 1.0000 0.0000
vn 0.0000 1.0000 0.0000
vn 0.0000 1.0000 0.0000
vn 0.0000 1.0000 0.0000
vn 0.0000 1.0000 0.0000
vn 0.0000 1.0000 0.0000
vn 0.0000 1.0000 0.0000
vn 0.0000 1.0000 0.0000
vn 0.0000 1.0000 0.0000
vn 0.0000 1.0000 0.0000
vn 0.0000 1.0000 0.0000
vn 0.0000 1.0000 0.0000
vn 0.0000 1.0000 0.0000
vn 0.0000 1.0000 0.0000
vn 0.0000 1.0000 0.0000
vn 0.0000 1.0000 0.0000
vn 0.0000 1.0000 0.0000
vn 0.0000 1.0000 0.0000
vn 0.0000 1.0000 0.0000
vn 0.0000 1.0000 0.0000
vn 0.0000 1.0000 0.0000
vn 0.0000 1.0000 0.0000
vn 0.0000 1.0000 0.0000
vn 0.0000 1.0000 0.0000
vn 0.0000 1.0000 0.0000
vn 0.0000 1.0000 0.0000
vn 0.0000 1.0000 0.0000
vn 0.0000 1.0000 0.0000
vn 0.0000 1.0000 0.0000
vn 0.0000 1.0000 0.0000
vn 0.0000 1.0000 0.0000
vn 0.0000 1.0000 0.0000
vn 0.0000 1.0000 0.0000
vn 0.0000 1.0000 0.0000
vn 0.0000 1.0000 0.0000
vn 0.0000 1.0000 0.0000
vn 0.0000 1.0000 0.0000
vn 0.0000 1.0000 0.0000
vn 0.0000 1.0000 0.0000
vn 0.0000 1.0000 0.0000
vn 0.0000 1.0000 0.0000
vn 0.0000 1.0000 0.0000
vn 0.0000 1.0000 0.0000
vn 0.0000 1.0000 0.0000
vn 0.0000 1.0000 0.0000
vn 0.0000 1.0000 0.0000
vn 0.0000 1.0000 0.0000
vn 0.0000 1.0000 0.0000
vn 0.0000 1.0000 0.0000
vn 0.0000 1.0000 0.0000
vn 0.0000 1.0000 0.0000
vn 0.0000 1.0000 0.0000
vn 0.0000 1.0000 0.0000
vn 0.0000 1.0000 0.0000
vn 0.0000 1.0000 0.0000
vn 0.0000 1.0000 0.0000
vn 0.0000 1.0000 0.0000
vn 0.0000 1.0000 0.0000
vn 0.0000 1.0000 0.0000
vn 0.0000 1.0000 0.0000
vn 0.0000 1.0000 0.0000
vn 0.0000 1.0000 0.0000
vn 0.0000 1.0000 0.0000
vn 0.0000 1.0000 0.0000
vn 0.0000 1.0000 0.0000
vn 0.0000 1.0000 0.0000
vn 0.0000 1.0000 0.0000
vn 0.0000 1.0000 0.0000
vn 0.0000 1.0000 0.0000
vn 0.0000 1.0000 0.0000
vn 0.0000 1.0000 0.0000
vn 0.0000 1.0000 0.0000
vn 0.0000 1.0000 0.0000
vn 0.0000 1.0000 0.0000
vn 0.0000 1.0000 0.0000
vn 0.0000 1.0000 0.0000
vn 0.0000 1.0000 0.0000
vn 0.0000 1.0000 0.0000
vn 0.0000 1.0000 0.0000
vn 0.0000 1.0000 0.0000
vn 0.0000 1.0000 0.0000
vn 0.0000 1.0000 0.0000
vn 0.0000 1.0000 0.0000
vn 0.0000 1.0000 0.0000
vn 0.0000 1.0000 0.0000
vn 0.0000 1.0000 0.0000
vn 0.0000 1.0000 0.0000
vn 0.0000 1.0000 0.0000
vn 0.0000 1.0000 0.0000
vn 0.0000 1.0000 0.0000
vn 0.0000 1.0000 0.0000
vn 0.0000 1.0000 0.0000
vn 0.0000 1.0000 0.0000
vn 0.0000 1.0000 0.0000
vn 0.0000 1.0000 0.0000
vn 0.0000 1.0000 0.0000
vn 0.0000 1.0000 0.0000
vn 0.0000 1.0000 0.0000
vn 0.0000 1.0000 0.0000
vn 0.0000 1.0000 0.0000
vn 0.0000 1.0000 0.0000
vn 0.0000 1.0000 0.0000
vn 0.0000 1.0000 0.0000
vn 0.0000 1.0000 0.0000
vn 0.0000 1.0000 0.0000
vn 0.0000 1.0000 0.0000
vn 0.0000 1.0000 0.0000
vn 0.0000 1.0000 0.0000
vn 0.0000 1.0000 0.0000
vn 0.0000 1.0000 0.0000
vn 0.0000 1.0000 0.0000
vn 0.0000 1.0000 0.0000
vn 0.0000 1.0000 0.0000
vn 0.0000 1.0000 0.0000
vn 0.0000 1.0000 0.0000
vn 0.0000 1.0000 0.0000
vn 0.0000 1.0000 0.0000
vn 0.0000 1.0000 0.0000
vn 0.0000 1.0000 0.0000
vn 0.0000 1.0000 0.0000
vn 0.0000 1.0000 0.0000
vn 0.0000 1.0000 0.0000
vn 0.0000 1.0000 0.0000
vn 0.0000 1.0000 0.0000
vn 0.0000 1.0000 0.0000
vn 0.0000 1.0000 0.0000
vn 0.0000 1.0000 0.0000
vn 0.0000 1.0000 0.0000
vn 0.0000 1.0000 0.0000
vn 0.0000 1.0000 0.0000
vn 0.0000 1.0000 0.0000
vn 0.0000 1.0000 0.0000
vn 0.0000 1.0000 0.0000
vn 0.0000 1.0000 0.0000
vn 0.0000 1.0000 0.0000
vn 0.0000 1.0000 0.0000
vn 0.0000 1.0000 0.0000
vn 0.0000 1.0000 0.0000
vn 0.0000 1.0000 0.0000
vn 0.0000 1.0000 0.0000
vn 0.0000 1.0000 0.0000
vn 0.0000 1.0000 0.0000
f 1 2 3
f 4 5 6
f 7 8 9
f 10 11 12
f 13 14 15
f 16 17 18
f 19 20 21
f 22 23 24
f 25 26 27
f 28 29 30
f 31 32 33
f 34 35 36
f 37 38 39
f 40 41 42
f 43 44 45
f 46 47 48
f 49 50 51
f 52 53 54
f 55 56 57
f 58 59 60
f 61 62 63
f 64 65 66
f 67 68 69
f 70 71 72
f 73 74 75
f 76 77 78
f 79 80 81
f 82 83 84
f 85 86 87
f 88 89 90
f 91 92 93
f 94 95 96
f 97 98 99
f 100 101 102
f 103 104 105
f 106 107 108
f 109 110 111
f 112 113 114
f 115 116 117
f 118 119 120
f 121 122 123
f 124 125 126
f 127 128 129
f 130 131 132
f 133 134 135
f 136 137 138
f 139 140 141
f 142 143 144
f 145 146 147
f 148 149 150
f 151 152 153
f 154 155 156
f 157 158 159
f 160 161 162
f 163 164 165
f 166 167 168
f 169 170 171
f 172 173 174
f 175 176 177
f 178 179 180
f 181 182 183
f 184 185 186
f 187 188 189
f 190 191 192
f 193 194 195
f 196 197 198
f 199 200 201
f 202 203 204
f 205 206 207
f 208 209 210
f 211 212 213
f 214 215 216
f 217 218 219
f 220 221 222
f 223 224 225
f 226 227 228
f 229 230 231
f 232 233 234
f 235 236 237
f 238 239 240
f 241 242 243
f 244 245 246
f 247 248 249
f 250 251 252
f 253 254 255
f 256 257 258
f 259 260 261
f 262 263 264
f 265 266 267
f 268 269 270
f 271 272 273
