# PSO Extracted Authentic Geometry
v 0.0000 0.0000 0.2000
v 0.0000 0.2000 0.0000
v 1697.0562 0.0000 0.0000
v 0.0000 1697.0562 0.0000
v 0.0000 800.0000 0.0000
v 1.7882 -0.9647 0.0000
v 1663.2760 625.2993 -1589.4600
v 1867.9197 0.0000 0.0000
v 1.0000 1.0000 1.0000
v 0.0000 -1200.0000 0.0000
v 1200.0000 0.0000 -1200.0000
v 0.0000 1697.0562 0.0000
v 0.0000 1.0000 1.0000
v 0.3882 0.0000 0.0000
v 0.0000 1.0000 1.0000
v 1.0000 0.0000 0.0000
v -2162.5256 180.0000 1412.4935
v 2124.1230 0.0000 0.0000
v 1.0000 1.0000 1.0000
v 3.3843 0.0000 0.0000
v 343.5456 180.0000 3053.6562
v 2171.4424 0.0000 0.0000
v 1.0000 1.0000 1.0000
v -0.9725 0.0000 0.0000
v 0.0000 1.0000 1.0000
v 1.0000 0.0000 0.0000
v 0.0000 0.0000 1.0000
v 1.0000 1.0000 0.0000
v 6.0902 0.0000 0.0000
v -1643.9490 270.0000 -1542.9889
v 1980.5504 0.0000 0.0000
v 1.0000 1.0000 1.0000
v 0.1333 0.0000 0.0000
v -20.1622 123.5000 891.2310
v 364.7916 0.0000 0.0000
v 1.0000 1.0000 1.0000
v 0.0000 0.0000 11.8120
v 44.9936 716.9830 0.0000
v 0.0000 1.0000 1.0000
v 1.0000 0.0000 0.0000
v 0.0000 150.0000 0.0100
v -535.9235 0.0000 3100.0000
v 0.0100 -450.0000 0.0000
v 2396.0000 0.0100 -253.0000
v 0.0000 1727.0000 0.0100
v -243.0000 0.0000 1037.0000
v 0.0100 -277.0000 0.0000
v 254.0000 0.0100 -255.0000
v 0.0000 68.0000 0.0100
v -963.0000 0.0000 39.0000
v 0.0100 -1545.0000 0.0000
v 8.0000 0.0100 -2218.0000
v 0.0000 0.0000 1557.6222
v 0.0100 -1516.5000 2005.7744
v 0.0000 0.0000 1.0000
v 1.0000 1.0000 0.0000
v 2261.5884 0.0000 2036.8120
v 0.0200 1730.2911 0.0000
v 1598.7032 0.0200 1146.0302
v 0.0000 1056.0891 0.0200
v 778.8306 0.0000 539.0489
v 0.0200 130.8485 0.0000
v 999.8158 0.0200 -460.7286
v 0.0000 1548.4657 0.0200
v -767.3114 0.0000 2037.3629
v 0.0200 -1180.8085 0.0000
v 0.0000 1.0000 1.0000
v 1.0000 0.0000 0.0000
v 21.8745 -20.8706 0.0000
v 0.0000 -320.0000 0.0000
v 0.0000 0.0000 1.0000
v 1.0000 1.0000 0.0000
v 0.0000 0.0000 -2.7255
v 0.0000 0.0000 1.0000
v 1.0000 1.0000 0.0000
v 0.0000 0.0000 1.0000
v 1.0000 1.0000 0.0000
v 1.0039 0.0000 0.0000
v 0.0000 1.0000 1.0000
v 3859.6194 0.0000 3.7686
v -1554.3770 0.0000 0.0078
v 0.0000 0.0000 1.0000
v 1.0000 1.0000 0.0000
v 0.0000 0.0000 0.5569
v -2120.8967 1416.5005 1158.1763
v 0.0000 6.0235 0.0000
v -1801.4982 1416.5005 955.5800
v 0.0000 5.8275 0.0000
v -1379.7041 1416.5005 1037.4548
v 0.0000 5.6000 0.0000
v -1060.7382 1416.5005 1405.9166
v 0.0000 5.3490 0.0000
v -687.3806 1416.5005 1528.3138
v 0.0000 5.1412 0.0000
v -393.5342 1416.5005 1388.0547
v 0.0000 4.9725 0.0000
v -65.3593 1416.5005 1453.4186
v 0.0000 4.7961 0.0000
v 121.4970 1416.5005 1871.8417
v 0.0000 4.5569 0.0000
v 462.2140 1416.5005 2095.8821
v 0.0000 4.3451 0.0000
v 940.6172 1416.5005 2065.4097
v 0.0000 4.0941 0.0000
v 1661.3398 1416.5005 2167.3906
v 0.0000 3.7137 0.0000
v 1800.2969 1416.5005 2414.1782
v 0.0000 3.5686 0.0000
v 2088.0295 1416.5005 2690.6284
v 0.0000 3.3608 0.0000
v 2818.4978 1416.5005 2577.1611
v 0.0000 2.9725 0.0000
v 3180.3918 1416.5005 2762.1748
v 0.0000 2.7608 0.0000
v 3350.0828 1416.5005 3120.0879
v 0.0000 2.5529 0.0000
v 3730.0571 1416.5005 3452.2695
v 0.0000 2.2902 0.0000
v 4377.1562 1416.5005 3433.5293
v 0.0000 1.9529 0.0000
v 4695.9668 1416.5005 3628.7478
v 0.0000 1.7569 0.0000
v 4934.5098 1416.5005 4293.5034
v -2120.8967 1541.5005 1158.1763
v 0.0000 6.0235 0.0549
v 0.0000 0.0000 0.0549
v 0.0000 0.0000 1.0000
v 1.0000 1.0000 0.0000
v 0.0000 0.0000 -3258.3950
v 3264.4998 1434.4694 0.0000
v 4.0157 1.0000 -3089.1443
v 3264.4998 1772.7222 0.0000
v 3.8824 1.0000 -2685.5073
v 3264.4998 1920.0001 0.0000
v 3.7333 1.0000 -2222.2466
v 3264.4998 1768.6971 0.0000
v 3.5647 1.0000 -1839.2250
v 3264.4998 1856.2830 0.0000
v 3.2000 1.0000 -969.0178
v 3264.4998 1978.8959 0.0000
v 3.0392 1.0000 -561.5679
v 3264.4998 1962.5586 0.0000
v 0.0000 1.0000 -3258.3950
v 2334.4998 1434.4694 0.0000
v 0.0000 0.5569 -3258.3950
v 1154.4999 1434.4694 0.0000
v 4.0157 0.0000 -3089.1443
v 1154.4999 1772.7222 0.0000
v 3.8824 0.0000 -2685.5073
v 1154.4999 1920.0001 0.0000
v 3.7333 0.0000 -2222.2466
v 1154.4999 1768.6971 0.0000
v 3.5647 0.0000 -1839.2250
v 1154.4999 1856.2830 0.0000
v 3.2000 0.0000 -969.0178
v 1154.4999 1978.8959 0.0000
v 3.0392 0.0000 -561.5679
v 1154.4999 1962.5586 0.0000
v 0.0000 0.0000 -3258.3950
v 1279.4999 1434.4694 0.0000
v 0.0000 0.0549 0.0000
v 0.0000 1.0000 1.0000
v 1.0000 0.0000 0.0000
v 0.0000 -320.0000 0.0000
v 0.0000 0.0000 320.0000
v -320.0000 0.0000 0.0000
vn 0.0000 1.0000 0.0000
vn 0.0000 1.0000 0.0000
vn 0.0000 1.0000 0.0000
vn 0.0000 1.0000 0.0000
vn 0.0000 1.0000 0.0000
vn 0.0000 1.0000 0.0000
vn 0.0000 1.0000 0.0000
vn 0.0000 1.0000 0.0000
vn 0.0000 1.0000 0.0000
vn 0.0000 1.0000 0.0000
vn 0.0000 1.0000 0.0000
vn 0.0000 1.0000 0.0000
vn 0.0000 1.0000 0.0000
vn 0.0000 1.0000 0.0000
vn 0.0000 1.0000 0.0000
vn 0.0000 1.0000 0.0000
vn 0.0000 1.0000 0.0000
vn 0.0000 1.0000 0.0000
vn 0.0000 1.0000 0.0000
vn 0.0000 1.0000 0.0000
vn 0.0000 1.0000 0.0000
vn 0.0000 1.0000 0.0000
vn 0.0000 1.0000 0.0000
vn 0.0000 1.0000 0.0000
vn 0.0000 1.0000 0.0000
vn 0.0000 1.0000 0.0000
vn 0.0000 1.0000 0.0000
vn 0.0000 1.0000 0.0000
vn 0.0000 1.0000 0.0000
vn 0.0000 1.0000 0.0000
vn 0.0000 1.0000 0.0000
vn 0.0000 1.0000 0.0000
vn 0.0000 1.0000 0.0000
vn 0.0000 1.0000 0.0000
vn 0.0000 1.0000 0.0000
vn 0.0000 1.0000 0.0000
vn 0.0000 1.0000 0.0000
vn 0.0000 1.0000 0.0000
vn 0.0000 1.0000 0.0000
vn 0.0000 1.0000 0.0000
vn 0.0000 1.0000 0.0000
vn 0.0000 1.0000 0.0000
vn 0.0000 1.0000 0.0000
vn 0.0000 1.0000 0.0000
vn 0.0000 1.0000 0.0000
vn 0.0000 1.0000 0.0000
vn 0.0000 1.0000 0.0000
vn 0.0000 1.0000 0.0000
vn 0.0000 1.0000 0.0000
vn 0.0000 1.0000 0.0000
vn 0.0000 1.0000 0.0000
vn 0.0000 1.0000 0.0000
vn 0.0000 1.0000 0.0000
vn 0.0000 1.0000 0.0000
vn 0.0000 1.0000 0.0000
vn 0.0000 1.0000 0.0000
vn 0.0000 1.0000 0.0000
vn 0.0000 1.0000 0.0000
vn 0.0000 1.0000 0.0000
vn 0.0000 1.0000 0.0000
vn 0.0000 1.0000 0.0000
vn 0.0000 1.0000 0.0000
vn 0.0000 1.0000 0.0000
vn 0.0000 1.0000 0.0000
vn 0.0000 1.0000 0.0000
vn 0.0000 1.0000 0.0000
vn 0.0000 1.0000 0.0000
vn 0.0000 1.0000 0.0000
vn 0.0000 1.0000 0.0000
vn 0.0000 1.0000 0.0000
vn 0.0000 1.0000 0.0000
vn 0.0000 1.0000 0.0000
vn 0.0000 1.0000 0.0000
vn 0.0000 1.0000 0.0000
vn 0.0000 1.0000 0.0000
vn 0.0000 1.0000 0.0000
vn 0.0000 1.0000 0.0000
vn 0.0000 1.0000 0.0000
vn 0.0000 1.0000 0.0000
vn 0.0000 1.0000 0.0000
vn 0.0000 1.0000 0.0000
vn 0.0000 1.0000 0.0000
vn 0.0000 1.0000 0.0000
vn 0.0000 1.0000 0.0000
vn 0.0000 1.0000 0.0000
vn 0.0000 1.0000 0.0000
vn 0.0000 1.0000 0.0000
vn 0.0000 1.0000 0.0000
vn 0.0000 1.0000 0.0000
vn 0.0000 1.0000 0.0000
vn 0.0000 1.0000 0.0000
vn 0.0000 1.0000 0.0000
vn 0.0000 1.0000 0.0000
vn 0.0000 1.0000 0.0000
vn 0.0000 1.0000 0.0000
vn 0.0000 1.0000 0.0000
vn 0.0000 1.0000 0.0000
vn 0.0000 1.0000 0.0000
vn 0.0000 1.0000 0.0000
vn 0.0000 1.0000 0.0000
vn 0.0000 1.0000 0.0000
vn 0.0000 1.0000 0.0000
vn 0.0000 1.0000 0.0000
vn 0.0000 1.0000 0.0000
vn 0.0000 1.0000 0.0000
vn 0.0000 1.0000 0.0000
vn 0.0000 1.0000 0.0000
vn 0.0000 1.0000 0.0000
vn 0.0000 1.0000 0.0000
vn 0.0000 1.0000 0.0000
vn 0.0000 1.0000 0.0000
vn 0.0000 1.0000 0.0000
vn 0.0000 1.0000 0.0000
vn 0.0000 1.0000 0.0000
vn 0.0000 1.0000 0.0000
vn 0.0000 1.0000 0.0000
vn 0.0000 1.0000 0.0000
vn 0.0000 1.0000 0.0000
vn 0.0000 1.0000 0.0000
vn 0.0000 1.0000 0.0000
vn 0.0000 1.0000 0.0000
vn 0.0000 1.0000 0.0000
vn 0.0000 1.0000 0.0000
vn 0.0000 1.0000 0.0000
vn 0.0000 1.0000 0.0000
vn 0.0000 1.0000 0.0000
vn 0.0000 1.0000 0.0000
vn 0.0000 1.0000 0.0000
vn 0.0000 1.0000 0.0000
vn 0.0000 1.0000 0.0000
vn 0.0000 1.0000 0.0000
vn 0.0000 1.0000 0.0000
vn 0.0000 1.0000 0.0000
vn 0.0000 1.0000 0.0000
vn 0.0000 1.0000 0.0000
vn 0.0000 1.0000 0.0000
vn 0.0000 1.0000 0.0000
vn 0.0000 1.0000 0.0000
vn 0.0000 1.0000 0.0000
vn 0.0000 1.0000 0.0000
vn 0.0000 1.0000 0.0000
vn 0.0000 1.0000 0.0000
vn 0.0000 1.0000 0.0000
vn 0.0000 1.0000 0.0000
vn 0.0000 1.0000 0.0000
vn 0.0000 1.0000 0.0000
vn 0.0000 1.0000 0.0000
vn 0.0000 1.0000 0.0000
vn 0.0000 1.0000 0.0000
vn 0.0000 1.0000 0.0000
vn 0.0000 1.0000 0.0000
vn 0.0000 1.0000 0.0000
vn 0.0000 1.0000 0.0000
vn 0.0000 1.0000 0.0000
vn 0.0000 1.0000 0.0000
vn 0.0000 1.0000 0.0000
vn 0.0000 1.0000 0.0000
vn 0.0000 1.0000 0.0000
vn 0.0000 1.0000 0.0000
vn 0.0000 1.0000 0.0000
vn 0.0000 1.0000 0.0000
vn 0.0000 1.0000 0.0000
vn 0.0000 1.0000 0.0000
vn 0.0000 1.0000 0.0000
vn 0.0000 1.0000 0.0000
vn 0.0000 1.0000 0.0000
f 1 2 3
f 4 5 6
f 7 8 9
f 10 11 12
f 13 14 15
f 16 17 18
f 19 20 21
f 22 23 24
f 25 26 27
f 28 29 30
f 31 32 33
f 34 35 36
f 37 38 39
f 40 41 42
f 43 44 45
f 46 47 48
f 49 50 51
f 52 53 54
f 55 56 57
f 58 59 60
f 61 62 63
f 64 65 66
f 67 68 69
f 70 71 72
f 73 74 75
f 76 77 78
f 79 80 81
f 82 83 84
f 85 86 87
f 88 89 90
f 91 92 93
f 94 95 96
f 97 98 99
f 100 101 102
f 103 104 105
f 106 107 108
f 109 110 111
f 112 113 114
f 115 116 117
f 118 119 120
f 121 122 123
f 124 125 126
f 127 128 129
f 130 131 132
f 133 134 135
f 136 137 138
f 139 140 141
f 142 143 144
f 145 146 147
f 148 149 150
f 151 152 153
f 154 155 156
f 157 158 159
f 160 161 162
f 163 164 165
