# PSO Extracted Authentic Geometry
v 34.5000 22.0000 50.7371
v 0.0000 0.0000 200.0000
v 0.6667 0.4167 0.0000
v 0.4941 0.0000 0.0000
v 0.0000 34.5000 22.0000
v 50.7371 0.0000 0.0000
v 0.4167 0.6667 0.4167
v 34.5000 22.0000 50.7371
v 0.0000 0.0000 -200.0000
v -4.0800 83.3333 0.0000
v 0.0000 0.0000 0.4167
v 0.6667 0.4167 0.0000
v 0.0000 0.0000 34.5000
v 22.0000 50.7371 0.0000
v 0.0000 -200.0000 -4.0800
v -83.3333 0.0000 0.0000
v 0.0000 0.4167 0.6667
v 0.4167 0.0000 0.0000
v 34.5000 22.0000 50.7371
v 0.0000 0.0000 150.0000
v -4.0800 -200.0000 0.0000
v 0.0000 0.0000 0.4167
v 0.6667 0.4167 0.0000
v 34.5000 22.0000 50.7371
v 0.0000 0.0000 -83.3333
v -4.0800 200.0000 0.0000
v 0.0000 0.0000 0.4167
v 0.6667 0.4167 0.0000
v 34.5000 22.0000 50.7371
v 0.0000 0.0000 83.3333
v -4.0800 200.0000 0.0000
v 0.0000 0.0000 0.4167
v 0.6667 0.4167 0.0000
v 34.5000 22.0000 50.7371
v 0.0000 0.0000 -150.0000
v -4.0800 -200.0000 0.0000
v 0.0000 0.0000 0.4167
v 0.6667 0.4167 0.0000
v -1.9059 0.0000 0.0000
v -106.4999 2.9612 112.1011
v 0.0000 0.0000 -26.7225
v 1.0000 3.0000 0.0000
v 1.0039 -1.9059 0.0000
v -0.0000 -106.4999 2.9612
v 112.1011 0.0000 0.0000
v 3.0000 1.0000 3.0000
v -106.4999 2.9612 112.1011
v 0.0000 0.0000 162.3894
v -5.4950 232.0400 0.0000
v 0.0000 0.0000 3.0000
v 1.0000 3.0000 0.0000
v 0.0000 -0.0000 -106.4999
v 2.9612 112.1011 0.0000
v 0.0000 161.1774 -5.4950
v 265.2232 0.0000 0.0000
v 0.0000 3.0000 1.0000
v 3.0000 0.0000 0.0000
v -1.9059 0.0000 0.0000
v -106.4999 2.9612 112.1011
v 0.0000 0.0000 -215.7934
v -5.4950 52.0844 0.0000
v 0.0000 0.0000 4.0000
v 1.0000 4.0000 0.0000
v 1.0039 -1.9059 0.0000
v -0.0000 -106.4999 2.9612
v 112.1011 0.0000 0.0000
v -125.7501 -5.4950 100.8257
v 3.0000 1.0000 3.0000
v 0.0000 -0.0000 -106.4999
v 2.9612 112.1011 0.0000
v 0.0000 4.0000 1.0000
v 4.0000 0.0000 0.0000
v -1.9059 0.0000 0.0000
v -106.4999 2.9612 112.1011
v 0.0000 0.0000 146.9019
v 1.0000 4.0000 0.0000
v 1.0039 -1.9059 0.0000
v -0.0000 -106.4999 2.9612
v 112.1011 0.0000 0.0000
v 4.0000 1.0000 4.0000
v 1.0039 -1.9059 0.0000
v -0.0000 -106.4999 2.9612
v 112.1011 0.0000 0.0000
v 3.0000 1.0000 3.0000
v 0.0000 -0.0000 -106.4999
v 2.9612 112.1011 0.0000
v 0.0000 49.0846 -5.4950
v 47.7337 0.0000 0.0000
v 0.0000 3.0000 1.0000
v 3.0000 0.0000 0.0000
v -1.9059 0.0000 0.0000
v -106.4999 2.9612 112.1011
v 0.0000 0.0000 226.4582
v 1.0000 4.0000 0.0000
v 1.0039 -1.9059 0.0000
v 0.0000 -0.0000 -106.4999
v 2.9612 112.1011 0.0000
v 0.0000 4.0000 1.0000
v 4.0000 0.0000 0.0000
v 1.0039 -1.9059 0.0000
v -0.0000 -106.4999 2.9612
v 112.1011 0.0000 0.0000
v -222.6456 -5.4950 -116.6802
v 4.0000 1.0000 4.0000
v 0.0000 -0.0000 -106.4999
v 2.9612 112.1011 0.0000
v 0.0000 -135.5617 -5.4950
v -168.6009 0.0000 0.0000
v 0.0000 3.0000 1.0000
v 3.0000 0.0000 0.0000
v -1.9059 0.0000 0.0000
v -106.4999 2.9612 112.1011
v 0.0000 0.0000 152.6973
v 1.0000 4.0000 0.0000
v 1.0039 -1.9059 0.0000
v -0.0000 -106.4999 2.9612
v 112.1011 0.0000 0.0000
v 4.0000 1.0000 4.0000
v 0.0000 -0.0000 -106.4999
v 2.9612 112.1011 0.0000
v 0.0000 3.0000 1.0000
v 3.0000 0.0000 0.0000
v -1.9059 0.0000 0.0000
v -106.4999 2.9612 112.1011
v 0.0000 0.0000 55.5018
v -5.4950 -97.4626 0.0000
v 0.0000 0.0000 4.0000
v 1.0000 4.0000 0.0000
v 1.0039 -1.9059 0.0000
v -0.0000 -106.4999 2.9612
v 112.1011 0.0000 0.0000
v -21.3237 -5.4950 -28.8230
v 4.0000 1.0000 4.0000
v 0.0000 -0.0000 -106.4999
v 2.9612 112.1011 0.0000
v 0.0000 3.0000 1.0000
v 3.0000 0.0000 0.0000
v -1.9059 0.0000 0.0000
v -106.4999 2.9612 112.1011
v 0.0000 0.0000 -203.6350
v 1.0000 3.0000 0.0000
v 1.0039 -1.9059 0.0000
v -0.0000 -106.4999 2.9612
v 112.1011 0.0000 0.0000
v 20.6002 -5.4950 -47.8533
v 3.0000 1.0000 3.0000
v 0.0000 -0.0000 -106.4999
v 2.9612 112.1011 0.0000
v 0.0000 3.0000 1.0000
v 3.0000 0.0000 0.0000
v 0.0000 0.0000 -51.6156
v 1.7000 1.0000 1.7000
v 0.0000 0.0000 2.0957
v -36.1238 1.0242 324.8065
v 0.0000 0.0000 2.4000
v 1.5000 2.4000 0.0000
v 1.1250 -130.1064 0.1250
v 433.9733 0.0000 0.0000
v 1.7000 1.0000 1.7000
v 0.0000 0.0000 1.0000
v 1.0000 1.0000 0.0000
v 0.0000 1.0000 1.0000
v 1.0000 0.0000 0.0000
v 1.0000 0.3922 0.0000
v 0.0000 0.0000 158.1660
v 7.6796 113.4790 25.8370
v 0.0000 0.0000 1.0000
v 1.0000 1.0000 0.0000
v 0.0000 0.0000 96.2345
v 11.7326 170.9144 20.3900
v 0.0000 0.0000 1.0000
v 1.0000 1.0000 0.0000
v 1.0000 0.3922 0.0000
v -37.9166 5.0437 155.8184
v 17.3274 0.0000 0.0000
v 1.0000 1.0000 1.0000
v 0.3922 0.0000 0.0000
v 0.0000 -14.1510 9.4956
v 163.6908 25.3577 0.0000
v 0.0000 1.0000 1.0000
v 1.0000 0.0000 0.0000
v 0.9216 0.0000 0.0000
v 0.0000 -150.3861 3.3697
v -45.9586 4.6968 0.0000
v 0.0000 1.0000 1.0000
v 1.0000 0.0000 0.0000
v -133.0671 3.1889 -58.2770
v 4.6968 0.0000 0.0000
v 1.0000 1.0000 1.0000
v -148.9111 5.6532 -119.9337
v 4.6968 0.0000 0.0000
v 1.0000 1.0000 1.0000
v 0.0000 -148.8307 54.4877
v -120.0509 11.4942 0.0000
v 0.0000 1.0000 1.0000
v 1.0000 0.0000 0.0000
v 0.0000 -72.6504 56.9463
v -128.5206 11.4942 0.0000
v 0.0000 1.0000 1.0000
v 1.0000 0.0000 0.0000
v 0.2784 0.0000 0.0000
v 0.0000 -93.8439 56.3242
v -102.1687 11.4942 0.0000
v 0.0000 1.0000 1.0000
v 1.0000 0.0000 0.0000
v 0.6471 0.0000 0.0000
v 0.0000 -152.1182 54.4867
v -78.2709 11.4942 0.0000
v 0.0000 1.0000 1.0000
v 1.0000 0.0000 0.0000
v 133.7389 55.6437 154.4174
v 8.0290 0.0000 0.0000
v 1.0000 1.0000 1.0000
v 0.0000 0.0000 103.2390
v 8.5763 150.2035 10.8417
v 0.0000 0.0000 1.0000
v 1.0000 1.0000 0.0000
v 0.0000 0.0000 117.8664
v 57.6802 149.6172 6.6949
v 0.0000 0.0000 1.0000
v 1.0000 1.0000 0.0000
v 1.3098 0.0000 0.0000
v 105.0900 58.4709 139.2362
v 6.6949 0.0000 0.0000
v 1.0000 1.0000 1.0000
v 0.0000 97.6256 58.0720
v 154.4174 6.6949 0.0000
v 0.0000 1.0000 1.0000
v 1.0000 0.0000 0.0000
v 1.0000 0.0000 0.0000
v 0.0000 125.4612 58.5814
v 130.9013 8.0290 0.0000
v 0.0000 1.0000 1.0000
v 1.0000 0.0000 0.0000
v 0.9451 0.0000 0.0000
v 0.0000 129.6623 11.0551
v 151.9538 13.9753 0.0000
v 0.0000 1.0000 1.0000
v 1.0000 0.0000 0.0000
v 0.0000 -93.7130 8.0368
v -101.7182 10.1597 0.0000
v 0.0000 1.0000 1.0000
v 1.0000 0.0000 0.0000
v 0.3569 0.0000 0.0000
v 0.0000 161.8052 33.0532
v 91.1938 84.1320 0.0000
v 0.0000 1.0000 1.0000
v 1.0000 0.0000 0.0000
v 0.0000 43.3944 31.4593
v 173.4044 72.8487 0.0000
v 0.0000 1.0000 1.0000
v 1.0000 0.0000 0.0000
v 1.2824 0.3098 0.0000
v 0.0000 0.0000 -174.3877
v 20.0057 91.9261 63.3546
v 0.0000 0.0000 1.0000
v 1.0000 1.0000 0.0000
v 0.0000 -9.5790 32.0075
v -176.0081 59.0015 0.0000
v 0.0000 -0.0018 0.7853
v -0.0865 0.0000 0.0000
v 0.0000 1.0000 1.0000
v 1.0000 0.0000 0.0000
v 0.9765 0.0000 0.0000
v -177.6045 32.1636 -10.2963
v 55.9901 0.0000 0.0000
v 1.0000 1.0000 1.0000
v 0.2235 0.0000 0.0000
v 0.0000 0.0000 64.6259
v 36.4260 -175.8737 46.5295
v 0.0000 0.0000 1.0000
v 1.0000 1.0000 0.0000
v 0.0824 0.6353 0.0000
v 0.0000 0.0000 -159.1112
v 21.8517 -155.8844 42.4811
v 0.0000 0.0000 1.0000
v 1.0000 1.0000 0.0000
v 1.3961 0.9843 0.0000
v 0.0000 0.0000 -86.4672
v 32.3434 -176.5182 57.1481
v 0.0000 0.0000 1.0000
v 1.0000 1.0000 0.0000
v 3.9216 0.0431 0.0000
v 0.0000 0.0000 134.7834
v 32.9326 -175.7546 56.1746
v 0.0000 0.0000 1.0000
v 1.0000 1.0000 0.0000
v 3.4824 -1.7020 0.0000
v 170.1250 43.0027 5.9546
v 44.2190 0.0000 0.0000
v 1.0000 1.0000 1.0000
v 0.5294 0.0000 0.0000
v 139.9881 29.7178 172.3661
v 56.3481 0.0000 0.0000
v 1.0000 1.0000 1.0000
v 8.7137 -2.9137 0.0000
v 0.0000 0.0000 -178.7021
v 32.3970 -82.9305 57.1049
v 0.0000 0.0000 1.0000
v 1.0000 1.0000 0.0000
v 0.0000 178.0000 28.3800
v -80.0040 50.7371 0.0000
v 0.0000 1.0000 1.0000
v 1.0000 0.0000 0.0000
v -80.0000 28.3800 177.9959
v 50.7370 0.0000 0.0000
v 1.0000 1.0000 1.0000
v 0.0000 0.0000 1.0000
v 1.0000 1.0000 0.0000
v 0.0000 1.0000 1.0000
v 1.0000 0.0000 0.0000
v 8.1373 0.1961 0.0000
v 1.0084 37.3069 3.8414
v 258.1841 0.0000 0.0000
v 1.0000 1.0000 1.0000
v 0.0000 0.0000 152.0642
v 31.0861 150.8554 32.4091
v 0.0000 0.0000 1.0000
v 1.0000 1.0000 0.0000
v 0.0000 1.0000 1.0000
v 1.0000 0.0000 0.0000
v 1.0000 1.0000 1.0000
v 0.0000 0.0000 1.0000
v 1.0000 1.0000 0.0000
v 0.0000 1.0000 1.0000
v 1.0000 0.0000 0.0000
v 0.0000 0.0000 113.4790
v 7.6796 -168.1661 25.8370
v 0.0000 0.0000 1.0000
v 1.0000 1.0000 0.0000
v 0.3922 0.0000 0.0000
v 155.8184 5.0436 33.8393
v 17.3274 0.0000 0.0000
v 1.0000 1.0000 1.0000
v 1.0000 0.3922 0.0000
v 0.0000 0.0000 163.6907
v 9.4956 10.0737 25.3577
v 0.0000 0.0000 1.0000
v 1.0000 1.0000 0.0000
v 0.8039 0.6941 0.0000
v 161.9234 10.5700 -21.6631
v 20.1671 0.0000 0.0000
v 1.0000 1.0000 1.0000
v -45.9586 3.3697 146.3088
v 4.6968 0.0000 0.0000
v 1.0000 1.0000 1.0000
v 0.1020 0.0745 0.0000
v 0.0000 0.0000 -58.2770
v 3.1889 128.9898 4.6968
v 0.0000 0.0000 1.0000
v 1.0000 1.0000 0.0000
v 0.0745 0.0000 0.0000
v 0.0000 -119.9337 5.6532
v 144.8338 4.6968 0.0000
v 0.0000 1.0000 1.0000
v 1.0000 0.0000 0.0000
v 0.0627 0.0588 0.0000
v 0.0000 0.0000 -120.0510
v 54.4877 144.7534 11.4942
v 0.0000 0.0000 1.0000
v 1.0000 1.0000 0.0000
v 0.0000 1.0000 0.0000
v 0.0000 154.4174 55.6437
v -143.7390 8.0290 0.0000
v 0.0000 1.0000 1.0000
v 1.0000 0.0000 0.0000
v 0.0000 1.0000 0.0000
v 0.0000 139.2361 58.4709
v -115.0901 6.6949 0.0000
v 0.0000 1.0000 1.0000
v 1.0000 0.0000 0.0000
v 0.0000 0.0000 -128.5206
v 56.9463 68.5731 11.4942
v 0.0000 0.0000 1.0000
v 1.0000 1.0000 0.0000
v 1.2235 0.0000 0.0000
v 0.0000 0.0000 130.9012
v 58.5814 -135.4614 8.0290
v 0.0000 0.0000 1.0000
v 1.0000 1.0000 0.0000
v 0.6471 0.0000 0.0000
v 0.0000 154.4174 58.0719
v -107.6257 6.6949 0.0000
v 0.0000 1.0000 1.0000
v 1.0000 0.0000 0.0000
v 0.0000 149.6172 57.6802
v -127.8665 6.6949 0.0000
v 0.0000 1.0000 1.0000
v 1.0000 0.0000 0.0000
v 0.0000 0.0000 -102.1688
v 56.3243 89.7665 11.4942
v 0.0000 0.0000 1.0000
v 1.0000 1.0000 0.0000
v 1.0667 0.0588 0.0000
v 0.0000 0.0000 -78.2709
v 54.4867 148.0408 11.4942
v 0.0000 0.0000 1.0000
v 1.0000 1.0000 0.0000
v 0.0510 0.0510 0.0000
v 0.0000 0.0000 151.9537
v 11.0551 -139.6624 13.9753
v 0.0000 0.0000 1.0000
v 1.0000 1.0000 0.0000
v 0.0000 -101.7183 8.0368
v 89.6356 10.1597 0.0000
v 0.0000 1.0000 1.0000
v 1.0000 0.0000 0.0000
v 177.7015 49.9052 -16.0740
v 44.8570 0.0000 0.0000
v 1.0000 1.0000 1.0000
v 0.1569 0.0000 0.0000
v 0.0000 0.0000 173.0937
v 19.7039 89.8006 62.6930
v 0.0000 0.0000 1.0000
v 1.0000 1.0000 0.0000
v 0.3569 0.0000 0.0000
v 0.0000 0.0000 91.1936
v 33.0532 -171.8053 84.1320
v 0.0000 0.0000 1.0000
v 1.0000 1.0000 0.0000
v 2.2510 0.3647 0.0000
v -99.6912 20.2228 -178.6780
v 62.8659 0.0000 0.0000
v 1.0000 1.0000 1.0000
v 9.2314 0.1608 0.0000
v 0.0000 5.9546 43.0027
v -180.1252 44.2189 0.0000
v 0.0000 1.0000 1.0000
v 1.0000 0.0000 0.0000
v 3.2784 0.1882 0.0000
v 0.0000 0.0000 -176.0082
v 30.3688 8.1300 55.6990
v 0.0000 0.0000 1.0000
v 1.0000 1.0000 0.0000
v 3.9216 0.0431 0.0000
v 0.0000 0.0000 -174.4510
v 32.9326 -152.6056 56.1746
v 0.0000 0.0000 1.0000
v 1.0000 1.0000 0.0000
v 0.2196 0.0000 0.0000
v 160.0430 25.2822 149.3743
v 48.6229 0.0000 0.0000
v 1.0000 1.0000 1.0000
v 0.0000 0.0000 -4.6591
v 32.1636 174.2232 58.7970
v 0.0000 0.0000 1.0000
v 1.0000 1.0000 0.0000
v 172.3661 29.7178 -152.1224
v 54.4088 0.0000 0.0000
v 1.0000 1.0000 1.0000
v -2.5490 0.0000 0.0000
v 0.0000 0.0000 -155.8844
v 21.8517 155.0341 42.4811
v 0.0000 0.0000 1.0000
v 1.0000 1.0000 0.0000
v 1.3961 0.9843 0.0000
v 0.0000 -176.5183 30.6922
v 81.8157 60.9195 0.0000
v 0.0000 1.0000 1.0000
v 1.0000 0.0000 0.0000
v 1.0000 0.0000 0.0000
v 0.0000 0.0000 -82.9305
v 32.3970 174.6248 57.1049
v 0.0000 0.0000 1.0000
v 1.0000 1.0000 0.0000
v 0.0000 178.0006 30.9402
v -80.0000 50.7371 0.0000
v 0.0000 1.0000 1.0000
v 1.0000 0.0000 0.0000
v 0.0000 -177.9997 28.3792
v -79.9999 50.7367 0.0000
v 0.0000 1.0000 1.0000
v 1.0000 0.0000 0.0000
v 0.0000 80.0000 28.3800
v 178.0000 50.7371 0.0000
v 0.0000 1.0000 1.0000
v 1.0000 0.0000 0.0000
v 1.0000 1.0000 1.0000
v 0.2431 0.0000 0.0000
v 3.8414 38.5069 -1.9488
v 264.2686 0.0000 0.0000
v 1.0000 1.0000 1.0000
v 0.0000 0.0000 1.0000
v 1.0000 1.0000 0.0000
v 0.0000 0.0000 150.8554
v 31.0861 -162.0642 32.4091
v 0.0000 0.0000 1.0000
v 1.0000 1.0000 0.0000
v 0.0000 1.0000 1.0000
v 1.0000 0.0000 0.0000
v 1.0000 1.0000 1.0000
v 0.0000 0.0000 1.0000
v 1.0000 1.0000 0.0000
v 0.0000 1.0000 1.0000
v 1.0000 0.0000 0.0000
v 0.0000 -3.7396 -1.1150
v -0.0000 39.1457 0.0000
v 0.0000 -74.4484 29.7410
v -18.0422 0.0000 0.0000
v 0.0000 2.8380 4.0000
v 0.3179 0.0000 0.0000
v 0.6667 0.0000 0.0000
v 0.0000 -3.4559 0.4955
v 0.0000 39.7224 0.0000
v 0.0000 69.5681 28.3445
v 0.0000 2.8380 4.0000
v 1.0000 0.0000 0.0000
v 0.6667 0.0000 0.0000
v 0.0000 0.0000 -3.7396
v -1.1150 0.0000 39.1205
v 0.0000 0.0000 -74.1676
v 29.7410 11.0615 0.0000
v 0.0000 0.0000 2.8380
v 4.0000 0.6457 0.0000
v 1.0549 0.1529 0.0000
v -0.0046 20.3537 22.1308
v 76.5454 0.0000 0.0000
v 1.3000 3.0000 1.0000
v -0.0046 20.3537 22.1308
v 76.5454 0.0000 0.0000
v 1.3000 3.0000 1.0000
v 0.0000 -0.6512 -26.2384
v 0.0000 47.2466 0.0000
v 0.0000 0.0001 109.4203
v 0.0000 4.0000 3.4000
v 2.4000 0.0000 0.0000
v 34.5000 22.0000 50.7371
v -12.4579 -80.0000 0.0000
v 0.0000 0.0000 1.0000
v 1.0000 1.0000 0.0000
v 0.4941 0.0000 0.0000
v 0.0000 34.5000 22.0000
v 50.7371 0.0000 0.0000
v -0.0000 -12.4579 80.0000
v 1.0000 1.0000 1.0000
v 0.0000 -1.0039 0.0000
v -13.0446 0.0000 78.5671
v 6.3379 0.0000 0.0000
v 0.0000 0.0000 1.0000
v 1.0000 1.0000 0.0000
v 0.0000 1.0000 1.0000
v 1.0000 0.0000 0.0000
v 1.0000 1.0000 1.0000
v 0.0000 0.0000 1.0000
v 1.0000 1.0000 0.0000
v 0.0000 1.0000 1.0000
v 1.0000 0.0000 0.0000
v 654.8472 0.0000 0.0000
v 0.0000 -840.0000 0.0000
v -840.0000 0.0000 0.0000
v 0.0000 273.3130 0.0000
v 0.0000 0.0000 840.0000
v 840.0000 0.0000 840.0000
v 273.3130 0.0000 0.0000
v 0.0000 -840.0000 0.0000
v 840.0000 0.0000 0.0000
v 0.0000 273.3130 0.0000
v 0.0000 0.0000 280.0000
v 0.0000 -840.0000 0.0000
v 0.0000 0.0000 266.4583
v 266.4583 0.0000 0.0000
v 0.0000 266.4583 0.0000
v 0.0000 0.0000 -840.0000
v 0.0000 280.0000 0.0000
v 0.0000 0.0000 266.4583
v -560.0000 0.0000 -920.0000
v 91.6515 0.0000 0.0000
v -920.0000 0.0000 0.0000
v 0.0000 91.6515 0.0000
v 0.0000 0.0000 560.0000
v 0.0000 -920.0000 0.0000
v 0.0000 0.0000 91.6515
v 920.0000 0.0000 -560.0000
v 91.6515 0.0000 0.0000
v 0.0000 920.0000 0.0000
v 0.0000 91.6515 0.0000
v 0.0000 0.0000 920.0000
v 0.0000 560.0000 0.0000
v 0.0000 0.0000 91.6515
v 560.0000 0.0000 920.0000
v 91.6515 0.0000 0.0000
v 920.0000 0.0000 0.0000
v 0.0000 91.6515 0.0000
v 0.0000 0.0000 -560.0000
v 0.0000 920.0000 0.0000
v 0.0000 0.0000 91.6515
v -920.0000 0.0000 560.0000
v 91.6515 0.0000 0.0000
v 0.0000 -920.0000 0.0000
v 0.0000 91.6515 0.0000
v 0.0000 0.0000 -920.0000
v 0.0000 -560.0000 0.0000
v 0.0000 0.0000 91.6515
v -360.0000 0.0000 -560.0000
v 91.6515 0.0000 0.0000
v 0.0000 360.0000 0.0000
v -560.0000 0.0000 0.0000
v 0.0000 91.6515 0.0000
v 0.0000 0.0000 560.0000
v 0.0000 -200.0000 0.0000
v 0.0000 0.0000 91.6515
v 560.0000 0.0000 360.0000
v 91.6515 0.0000 0.0000
v 0.0000 200.0000 0.0000
v 560.0000 0.0000 0.0000
v 0.0000 91.6515 0.0000
v 0.0000 0.0000 -200.0000
v 0.0000 560.0000 0.0000
v 0.0000 0.0000 91.6515
v -560.0000 0.0000 200.0000
v 91.6515 0.0000 0.0000
v 0.0000 -560.0000 0.0000
v -200.0000 0.0000 0.0000
v 0.0000 91.6515 0.0000
v 0.0000 800.0000 0.0000
vn 0.0000 1.0000 0.0000
vn 0.0000 1.0000 0.0000
vn 0.0000 1.0000 0.0000
vn 0.0000 1.0000 0.0000
vn 0.0000 1.0000 0.0000
vn 0.0000 1.0000 0.0000
vn 0.0000 1.0000 0.0000
vn 0.0000 1.0000 0.0000
vn 0.0000 1.0000 0.0000
vn 0.0000 1.0000 0.0000
vn 0.0000 1.0000 0.0000
vn 0.0000 1.0000 0.0000
vn 0.0000 1.0000 0.0000
vn 0.0000 1.0000 0.0000
vn 0.0000 1.0000 0.0000
vn 0.0000 1.0000 0.0000
vn 0.0000 1.0000 0.0000
vn 0.0000 1.0000 0.0000
vn 0.0000 1.0000 0.0000
vn 0.0000 1.0000 0.0000
vn 0.0000 1.0000 0.0000
vn 0.0000 1.0000 0.0000
vn 0.0000 1.0000 0.0000
vn 0.0000 1.0000 0.0000
vn 0.0000 1.0000 0.0000
vn 0.0000 1.0000 0.0000
vn 0.0000 1.0000 0.0000
vn 0.0000 1.0000 0.0000
vn 0.0000 1.0000 0.0000
vn 0.0000 1.0000 0.0000
vn 0.0000 1.0000 0.0000
vn 0.0000 1.0000 0.0000
vn 0.0000 1.0000 0.0000
vn 0.0000 1.0000 0.0000
vn 0.0000 1.0000 0.0000
vn 0.0000 1.0000 0.0000
vn 0.0000 1.0000 0.0000
vn 0.0000 1.0000 0.0000
vn 0.0000 1.0000 0.0000
vn 0.0000 1.0000 0.0000
vn 0.0000 1.0000 0.0000
vn 0.0000 1.0000 0.0000
vn 0.0000 1.0000 0.0000
vn 0.0000 1.0000 0.0000
vn 0.0000 1.0000 0.0000
vn 0.0000 1.0000 0.0000
vn 0.0000 1.0000 0.0000
vn 0.0000 1.0000 0.0000
vn 0.0000 1.0000 0.0000
vn 0.0000 1.0000 0.0000
vn 0.0000 1.0000 0.0000
vn 0.0000 1.0000 0.0000
vn 0.0000 1.0000 0.0000
vn 0.0000 1.0000 0.0000
vn 0.0000 1.0000 0.0000
vn 0.0000 1.0000 0.0000
vn 0.0000 1.0000 0.0000
vn 0.0000 1.0000 0.0000
vn 0.0000 1.0000 0.0000
vn 0.0000 1.0000 0.0000
vn 0.0000 1.0000 0.0000
vn 0.0000 1.0000 0.0000
vn 0.0000 1.0000 0.0000
vn 0.0000 1.0000 0.0000
vn 0.0000 1.0000 0.0000
vn 0.0000 1.0000 0.0000
vn 0.0000 1.0000 0.0000
vn 0.0000 1.0000 0.0000
vn 0.0000 1.0000 0.0000
vn 0.0000 1.0000 0.0000
vn 0.0000 1.0000 0.0000
vn 0.0000 1.0000 0.0000
vn 0.0000 1.0000 0.0000
vn 0.0000 1.0000 0.0000
vn 0.0000 1.0000 0.0000
vn 0.0000 1.0000 0.0000
vn 0.0000 1.0000 0.0000
vn 0.0000 1.0000 0.0000
vn 0.0000 1.0000 0.0000
vn 0.0000 1.0000 0.0000
vn 0.0000 1.0000 0.0000
vn 0.0000 1.0000 0.0000
vn 0.0000 1.0000 0.0000
vn 0.0000 1.0000 0.0000
vn 0.0000 1.0000 0.0000
vn 0.0000 1.0000 0.0000
vn 0.0000 1.0000 0.0000
vn 0.0000 1.0000 0.0000
vn 0.0000 1.0000 0.0000
vn 0.0000 1.0000 0.0000
vn 0.0000 1.0000 0.0000
vn 0.0000 1.0000 0.0000
vn 0.0000 1.0000 0.0000
vn 0.0000 1.0000 0.0000
vn 0.0000 1.0000 0.0000
vn 0.0000 1.0000 0.0000
vn 0.0000 1.0000 0.0000
vn 0.0000 1.0000 0.0000
vn 0.0000 1.0000 0.0000
vn 0.0000 1.0000 0.0000
vn 0.0000 1.0000 0.0000
vn 0.0000 1.0000 0.0000
vn 0.0000 1.0000 0.0000
vn 0.0000 1.0000 0.0000
vn 0.0000 1.0000 0.0000
vn 0.0000 1.0000 0.0000
vn 0.0000 1.0000 0.0000
vn 0.0000 1.0000 0.0000
vn 0.0000 1.0000 0.0000
vn 0.0000 1.0000 0.0000
vn 0.0000 1.0000 0.0000
vn 0.0000 1.0000 0.0000
vn 0.0000 1.0000 0.0000
vn 0.0000 1.0000 0.0000
vn 0.0000 1.0000 0.0000
vn 0.0000 1.0000 0.0000
vn 0.0000 1.0000 0.0000
vn 0.0000 1.0000 0.0000
vn 0.0000 1.0000 0.0000
vn 0.0000 1.0000 0.0000
vn 0.0000 1.0000 0.0000
vn 0.0000 1.0000 0.0000
vn 0.0000 1.0000 0.0000
vn 0.0000 1.0000 0.0000
vn 0.0000 1.0000 0.0000
vn 0.0000 1.0000 0.0000
vn 0.0000 1.0000 0.0000
vn 0.0000 1.0000 0.0000
vn 0.0000 1.0000 0.0000
vn 0.0000 1.0000 0.0000
vn 0.0000 1.0000 0.0000
vn 0.0000 1.0000 0.0000
vn 0.0000 1.0000 0.0000
vn 0.0000 1.0000 0.0000
vn 0.0000 1.0000 0.0000
vn 0.0000 1.0000 0.0000
vn 0.0000 1.0000 0.0000
vn 0.0000 1.0000 0.0000
vn 0.0000 1.0000 0.0000
vn 0.0000 1.0000 0.0000
vn 0.0000 1.0000 0.0000
vn 0.0000 1.0000 0.0000
vn 0.0000 1.0000 0.0000
vn 0.0000 1.0000 0.0000
vn 0.0000 1.0000 0.0000
vn 0.0000 1.0000 0.0000
vn 0.0000 1.0000 0.0000
vn 0.0000 1.0000 0.0000
vn 0.0000 1.0000 0.0000
vn 0.0000 1.0000 0.0000
vn 0.0000 1.0000 0.0000
vn 0.0000 1.0000 0.0000
vn 0.0000 1.0000 0.0000
vn 0.0000 1.0000 0.0000
vn 0.0000 1.0000 0.0000
vn 0.0000 1.0000 0.0000
vn 0.0000 1.0000 0.0000
vn 0.0000 1.0000 0.0000
vn 0.0000 1.0000 0.0000
vn 0.0000 1.0000 0.0000
vn 0.0000 1.0000 0.0000
vn 0.0000 1.0000 0.0000
vn 0.0000 1.0000 0.0000
vn 0.0000 1.0000 0.0000
vn 0.0000 1.0000 0.0000
vn 0.0000 1.0000 0.0000
vn 0.0000 1.0000 0.0000
vn 0.0000 1.0000 0.0000
vn 0.0000 1.0000 0.0000
vn 0.0000 1.0000 0.0000
vn 0.0000 1.0000 0.0000
vn 0.0000 1.0000 0.0000
vn 0.0000 1.0000 0.0000
vn 0.0000 1.0000 0.0000
vn 0.0000 1.0000 0.0000
vn 0.0000 1.0000 0.0000
vn 0.0000 1.0000 0.0000
vn 0.0000 1.0000 0.0000
vn 0.0000 1.0000 0.0000
vn 0.0000 1.0000 0.0000
vn 0.0000 1.0000 0.0000
vn 0.0000 1.0000 0.0000
vn 0.0000 1.0000 0.0000
vn 0.0000 1.0000 0.0000
vn 0.0000 1.0000 0.0000
vn 0.0000 1.0000 0.0000
vn 0.0000 1.0000 0.0000
vn 0.0000 1.0000 0.0000
vn 0.0000 1.0000 0.0000
vn 0.0000 1.0000 0.0000
vn 0.0000 1.0000 0.0000
vn 0.0000 1.0000 0.0000
vn 0.0000 1.0000 0.0000
vn 0.0000 1.0000 0.0000
vn 0.0000 1.0000 0.0000
vn 0.0000 1.0000 0.0000
vn 0.0000 1.0000 0.0000
vn 0.0000 1.0000 0.0000
vn 0.0000 1.0000 0.0000
vn 0.0000 1.0000 0.0000
vn 0.0000 1.0000 0.0000
vn 0.0000 1.0000 0.0000
vn 0.0000 1.0000 0.0000
vn 0.0000 1.0000 0.0000
vn 0.0000 1.0000 0.0000
vn 0.0000 1.0000 0.0000
vn 0.0000 1.0000 0.0000
vn 0.0000 1.0000 0.0000
vn 0.0000 1.0000 0.0000
vn 0.0000 1.0000 0.0000
vn 0.0000 1.0000 0.0000
vn 0.0000 1.0000 0.0000
vn 0.0000 1.0000 0.0000
vn 0.0000 1.0000 0.0000
vn 0.0000 1.0000 0.0000
vn 0.0000 1.0000 0.0000
vn 0.0000 1.0000 0.0000
vn 0.0000 1.0000 0.0000
vn 0.0000 1.0000 0.0000
vn 0.0000 1.0000 0.0000
vn 0.0000 1.0000 0.0000
vn 0.0000 1.0000 0.0000
vn 0.0000 1.0000 0.0000
vn 0.0000 1.0000 0.0000
vn 0.0000 1.0000 0.0000
vn 0.0000 1.0000 0.0000
vn 0.0000 1.0000 0.0000
vn 0.0000 1.0000 0.0000
vn 0.0000 1.0000 0.0000
vn 0.0000 1.0000 0.0000
vn 0.0000 1.0000 0.0000
vn 0.0000 1.0000 0.0000
vn 0.0000 1.0000 0.0000
vn 0.0000 1.0000 0.0000
vn 0.0000 1.0000 0.0000
vn 0.0000 1.0000 0.0000
vn 0.0000 1.0000 0.0000
vn 0.0000 1.0000 0.0000
vn 0.0000 1.0000 0.0000
vn 0.0000 1.0000 0.0000
vn 0.0000 1.0000 0.0000
vn 0.0000 1.0000 0.0000
vn 0.0000 1.0000 0.0000
vn 0.0000 1.0000 0.0000
vn 0.0000 1.0000 0.0000
vn 0.0000 1.0000 0.0000
vn 0.0000 1.0000 0.0000
vn 0.0000 1.0000 0.0000
vn 0.0000 1.0000 0.0000
vn 0.0000 1.0000 0.0000
vn 0.0000 1.0000 0.0000
vn 0.0000 1.0000 0.0000
vn 0.0000 1.0000 0.0000
vn 0.0000 1.0000 0.0000
vn 0.0000 1.0000 0.0000
vn 0.0000 1.0000 0.0000
vn 0.0000 1.0000 0.0000
vn 0.0000 1.0000 0.0000
vn 0.0000 1.0000 0.0000
vn 0.0000 1.0000 0.0000
vn 0.0000 1.0000 0.0000
vn 0.0000 1.0000 0.0000
vn 0.0000 1.0000 0.0000
vn 0.0000 1.0000 0.0000
vn 0.0000 1.0000 0.0000
vn 0.0000 1.0000 0.0000
vn 0.0000 1.0000 0.0000
vn 0.0000 1.0000 0.0000
vn 0.0000 1.0000 0.0000
vn 0.0000 1.0000 0.0000
vn 0.0000 1.0000 0.0000
vn 0.0000 1.0000 0.0000
vn 0.0000 1.0000 0.0000
vn 0.0000 1.0000 0.0000
vn 0.0000 1.0000 0.0000
vn 0.0000 1.0000 0.0000
vn 0.0000 1.0000 0.0000
vn 0.0000 1.0000 0.0000
vn 0.0000 1.0000 0.0000
vn 0.0000 1.0000 0.0000
vn 0.0000 1.0000 0.0000
vn 0.0000 1.0000 0.0000
vn 0.0000 1.0000 0.0000
vn 0.0000 1.0000 0.0000
vn 0.0000 1.0000 0.0000
vn 0.0000 1.0000 0.0000
vn 0.0000 1.0000 0.0000
vn 0.0000 1.0000 0.0000
vn 0.0000 1.0000 0.0000
vn 0.0000 1.0000 0.0000
vn 0.0000 1.0000 0.0000
vn 0.0000 1.0000 0.0000
vn 0.0000 1.0000 0.0000
vn 0.0000 1.0000 0.0000
vn 0.0000 1.0000 0.0000
vn 0.0000 1.0000 0.0000
vn 0.0000 1.0000 0.0000
vn 0.0000 1.0000 0.0000
vn 0.0000 1.0000 0.0000
vn 0.0000 1.0000 0.0000
vn 0.0000 1.0000 0.0000
vn 0.0000 1.0000 0.0000
vn 0.0000 1.0000 0.0000
vn 0.0000 1.0000 0.0000
vn 0.0000 1.0000 0.0000
vn 0.0000 1.0000 0.0000
vn 0.0000 1.0000 0.0000
vn 0.0000 1.0000 0.0000
vn 0.0000 1.0000 0.0000
vn 0.0000 1.0000 0.0000
vn 0.0000 1.0000 0.0000
vn 0.0000 1.0000 0.0000
vn 0.0000 1.0000 0.0000
vn 0.0000 1.0000 0.0000
vn 0.0000 1.0000 0.0000
vn 0.0000 1.0000 0.0000
vn 0.0000 1.0000 0.0000
vn 0.0000 1.0000 0.0000
vn 0.0000 1.0000 0.0000
vn 0.0000 1.0000 0.0000
vn 0.0000 1.0000 0.0000
vn 0.0000 1.0000 0.0000
vn 0.0000 1.0000 0.0000
vn 0.0000 1.0000 0.0000
vn 0.0000 1.0000 0.0000
vn 0.0000 1.0000 0.0000
vn 0.0000 1.0000 0.0000
vn 0.0000 1.0000 0.0000
vn 0.0000 1.0000 0.0000
vn 0.0000 1.0000 0.0000
vn 0.0000 1.0000 0.0000
vn 0.0000 1.0000 0.0000
vn 0.0000 1.0000 0.0000
vn 0.0000 1.0000 0.0000
vn 0.0000 1.0000 0.0000
vn 0.0000 1.0000 0.0000
vn 0.0000 1.0000 0.0000
vn 0.0000 1.0000 0.0000
vn 0.0000 1.0000 0.0000
vn 0.0000 1.0000 0.0000
vn 0.0000 1.0000 0.0000
vn 0.0000 1.0000 0.0000
vn 0.0000 1.0000 0.0000
vn 0.0000 1.0000 0.0000
vn 0.0000 1.0000 0.0000
vn 0.0000 1.0000 0.0000
vn 0.0000 1.0000 0.0000
vn 0.0000 1.0000 0.0000
vn 0.0000 1.0000 0.0000
vn 0.0000 1.0000 0.0000
vn 0.0000 1.0000 0.0000
vn 0.0000 1.0000 0.0000
vn 0.0000 1.0000 0.0000
vn 0.0000 1.0000 0.0000
vn 0.0000 1.0000 0.0000
vn 0.0000 1.0000 0.0000
vn 0.0000 1.0000 0.0000
vn 0.0000 1.0000 0.0000
vn 0.0000 1.0000 0.0000
vn 0.0000 1.0000 0.0000
vn 0.0000 1.0000 0.0000
vn 0.0000 1.0000 0.0000
vn 0.0000 1.0000 0.0000
vn 0.0000 1.0000 0.0000
vn 0.0000 1.0000 0.0000
vn 0.0000 1.0000 0.0000
vn 0.0000 1.0000 0.0000
vn 0.0000 1.0000 0.0000
vn 0.0000 1.0000 0.0000
vn 0.0000 1.0000 0.0000
vn 0.0000 1.0000 0.0000
vn 0.0000 1.0000 0.0000
vn 0.0000 1.0000 0.0000
vn 0.0000 1.0000 0.0000
vn 0.0000 1.0000 0.0000
vn 0.0000 1.0000 0.0000
vn 0.0000 1.0000 0.0000
vn 0.0000 1.0000 0.0000
vn 0.0000 1.0000 0.0000
vn 0.0000 1.0000 0.0000
vn 0.0000 1.0000 0.0000
vn 0.0000 1.0000 0.0000
vn 0.0000 1.0000 0.0000
vn 0.0000 1.0000 0.0000
vn 0.0000 1.0000 0.0000
vn 0.0000 1.0000 0.0000
vn 0.0000 1.0000 0.0000
vn 0.0000 1.0000 0.0000
vn 0.0000 1.0000 0.0000
vn 0.0000 1.0000 0.0000
vn 0.0000 1.0000 0.0000
vn 0.0000 1.0000 0.0000
vn 0.0000 1.0000 0.0000
vn 0.0000 1.0000 0.0000
vn 0.0000 1.0000 0.0000
vn 0.0000 1.0000 0.0000
vn 0.0000 1.0000 0.0000
vn 0.0000 1.0000 0.0000
vn 0.0000 1.0000 0.0000
vn 0.0000 1.0000 0.0000
vn 0.0000 1.0000 0.0000
vn 0.0000 1.0000 0.0000
vn 0.0000 1.0000 0.0000
vn 0.0000 1.0000 0.0000
vn 0.0000 1.0000 0.0000
vn 0.0000 1.0000 0.0000
vn 0.0000 1.0000 0.0000
vn 0.0000 1.0000 0.0000
vn 0.0000 1.0000 0.0000
vn 0.0000 1.0000 0.0000
vn 0.0000 1.0000 0.0000
vn 0.0000 1.0000 0.0000
vn 0.0000 1.0000 0.0000
vn 0.0000 1.0000 0.0000
vn 0.0000 1.0000 0.0000
vn 0.0000 1.0000 0.0000
vn 0.0000 1.0000 0.0000
vn 0.0000 1.0000 0.0000
vn 0.0000 1.0000 0.0000
vn 0.0000 1.0000 0.0000
vn 0.0000 1.0000 0.0000
vn 0.0000 1.0000 0.0000
vn 0.0000 1.0000 0.0000
vn 0.0000 1.0000 0.0000
vn 0.0000 1.0000 0.0000
vn 0.0000 1.0000 0.0000
vn 0.0000 1.0000 0.0000
vn 0.0000 1.0000 0.0000
vn 0.0000 1.0000 0.0000
vn 0.0000 1.0000 0.0000
vn 0.0000 1.0000 0.0000
vn 0.0000 1.0000 0.0000
vn 0.0000 1.0000 0.0000
vn 0.0000 1.0000 0.0000
vn 0.0000 1.0000 0.0000
vn 0.0000 1.0000 0.0000
vn 0.0000 1.0000 0.0000
vn 0.0000 1.0000 0.0000
vn 0.0000 1.0000 0.0000
vn 0.0000 1.0000 0.0000
vn 0.0000 1.0000 0.0000
vn 0.0000 1.0000 0.0000
vn 0.0000 1.0000 0.0000
vn 0.0000 1.0000 0.0000
vn 0.0000 1.0000 0.0000
vn 0.0000 1.0000 0.0000
vn 0.0000 1.0000 0.0000
vn 0.0000 1.0000 0.0000
vn 0.0000 1.0000 0.0000
vn 0.0000 1.0000 0.0000
vn 0.0000 1.0000 0.0000
vn 0.0000 1.0000 0.0000
vn 0.0000 1.0000 0.0000
vn 0.0000 1.0000 0.0000
vn 0.0000 1.0000 0.0000
vn 0.0000 1.0000 0.0000
vn 0.0000 1.0000 0.0000
vn 0.0000 1.0000 0.0000
vn 0.0000 1.0000 0.0000
vn 0.0000 1.0000 0.0000
vn 0.0000 1.0000 0.0000
vn 0.0000 1.0000 0.0000
vn 0.0000 1.0000 0.0000
vn 0.0000 1.0000 0.0000
vn 0.0000 1.0000 0.0000
vn 0.0000 1.0000 0.0000
vn 0.0000 1.0000 0.0000
vn 0.0000 1.0000 0.0000
vn 0.0000 1.0000 0.0000
vn 0.0000 1.0000 0.0000
vn 0.0000 1.0000 0.0000
vn 0.0000 1.0000 0.0000
vn 0.0000 1.0000 0.0000
vn 0.0000 1.0000 0.0000
vn 0.0000 1.0000 0.0000
vn 0.0000 1.0000 0.0000
vn 0.0000 1.0000 0.0000
vn 0.0000 1.0000 0.0000
vn 0.0000 1.0000 0.0000
vn 0.0000 1.0000 0.0000
vn 0.0000 1.0000 0.0000
vn 0.0000 1.0000 0.0000
vn 0.0000 1.0000 0.0000
vn 0.0000 1.0000 0.0000
vn 0.0000 1.0000 0.0000
vn 0.0000 1.0000 0.0000
vn 0.0000 1.0000 0.0000
vn 0.0000 1.0000 0.0000
vn 0.0000 1.0000 0.0000
vn 0.0000 1.0000 0.0000
vn 0.0000 1.0000 0.0000
vn 0.0000 1.0000 0.0000
vn 0.0000 1.0000 0.0000
vn 0.0000 1.0000 0.0000
vn 0.0000 1.0000 0.0000
vn 0.0000 1.0000 0.0000
vn 0.0000 1.0000 0.0000
vn 0.0000 1.0000 0.0000
vn 0.0000 1.0000 0.0000
vn 0.0000 1.0000 0.0000
vn 0.0000 1.0000 0.0000
vn 0.0000 1.0000 0.0000
vn 0.0000 1.0000 0.0000
vn 0.0000 1.0000 0.0000
vn 0.0000 1.0000 0.0000
vn 0.0000 1.0000 0.0000
vn 0.0000 1.0000 0.0000
vn 0.0000 1.0000 0.0000
vn 0.0000 1.0000 0.0000
vn 0.0000 1.0000 0.0000
vn 0.0000 1.0000 0.0000
vn 0.0000 1.0000 0.0000
vn 0.0000 1.0000 0.0000
vn 0.0000 1.0000 0.0000
vn 0.0000 1.0000 0.0000
vn 0.0000 1.0000 0.0000
vn 0.0000 1.0000 0.0000
vn 0.0000 1.0000 0.0000
vn 0.0000 1.0000 0.0000
vn 0.0000 1.0000 0.0000
vn 0.0000 1.0000 0.0000
vn 0.0000 1.0000 0.0000
vn 0.0000 1.0000 0.0000
vn 0.0000 1.0000 0.0000
vn 0.0000 1.0000 0.0000
vn 0.0000 1.0000 0.0000
vn 0.0000 1.0000 0.0000
vn 0.0000 1.0000 0.0000
vn 0.0000 1.0000 0.0000
vn 0.0000 1.0000 0.0000
vn 0.0000 1.0000 0.0000
vn 0.0000 1.0000 0.0000
vn 0.0000 1.0000 0.0000
vn 0.0000 1.0000 0.0000
vn 0.0000 1.0000 0.0000
vn 0.0000 1.0000 0.0000
vn 0.0000 1.0000 0.0000
vn 0.0000 1.0000 0.0000
vn 0.0000 1.0000 0.0000
vn 0.0000 1.0000 0.0000
vn 0.0000 1.0000 0.0000
vn 0.0000 1.0000 0.0000
vn 0.0000 1.0000 0.0000
vn 0.0000 1.0000 0.0000
vn 0.0000 1.0000 0.0000
vn 0.0000 1.0000 0.0000
vn 0.0000 1.0000 0.0000
vn 0.0000 1.0000 0.0000
vn 0.0000 1.0000 0.0000
vn 0.0000 1.0000 0.0000
vn 0.0000 1.0000 0.0000
vn 0.0000 1.0000 0.0000
vn 0.0000 1.0000 0.0000
vn 0.0000 1.0000 0.0000
vn 0.0000 1.0000 0.0000
vn 0.0000 1.0000 0.0000
vn 0.0000 1.0000 0.0000
vn 0.0000 1.0000 0.0000
vn 0.0000 1.0000 0.0000
vn 0.0000 1.0000 0.0000
vn 0.0000 1.0000 0.0000
vn 0.0000 1.0000 0.0000
vn 0.0000 1.0000 0.0000
vn 0.0000 1.0000 0.0000
vn 0.0000 1.0000 0.0000
vn 0.0000 1.0000 0.0000
vn 0.0000 1.0000 0.0000
vn 0.0000 1.0000 0.0000
vn 0.0000 1.0000 0.0000
vn 0.0000 1.0000 0.0000
vn 0.0000 1.0000 0.0000
vn 0.0000 1.0000 0.0000
vn 0.0000 1.0000 0.0000
vn 0.0000 1.0000 0.0000
vn 0.0000 1.0000 0.0000
vn 0.0000 1.0000 0.0000
vn 0.0000 1.0000 0.0000
vn 0.0000 1.0000 0.0000
vn 0.0000 1.0000 0.0000
vn 0.0000 1.0000 0.0000
vn 0.0000 1.0000 0.0000
vn 0.0000 1.0000 0.0000
vn 0.0000 1.0000 0.0000
vn 0.0000 1.0000 0.0000
vn 0.0000 1.0000 0.0000
vn 0.0000 1.0000 0.0000
vn 0.0000 1.0000 0.0000
vn 0.0000 1.0000 0.0000
vn 0.0000 1.0000 0.0000
vn 0.0000 1.0000 0.0000
vn 0.0000 1.0000 0.0000
vn 0.0000 1.0000 0.0000
vn 0.0000 1.0000 0.0000
vn 0.0000 1.0000 0.0000
vn 0.0000 1.0000 0.0000
vn 0.0000 1.0000 0.0000
vn 0.0000 1.0000 0.0000
vn 0.0000 1.0000 0.0000
vn 0.0000 1.0000 0.0000
vn 0.0000 1.0000 0.0000
vn 0.0000 1.0000 0.0000
vn 0.0000 1.0000 0.0000
vn 0.0000 1.0000 0.0000
vn 0.0000 1.0000 0.0000
vn 0.0000 1.0000 0.0000
vn 0.0000 1.0000 0.0000
vn 0.0000 1.0000 0.0000
vn 0.0000 1.0000 0.0000
vn 0.0000 1.0000 0.0000
vn 0.0000 1.0000 0.0000
vn 0.0000 1.0000 0.0000
vn 0.0000 1.0000 0.0000
vn 0.0000 1.0000 0.0000
vn 0.0000 1.0000 0.0000
vn 0.0000 1.0000 0.0000
f 1 2 3
f 4 5 6
f 7 8 9
f 10 11 12
f 13 14 15
f 16 17 18
f 19 20 21
f 22 23 24
f 25 26 27
f 28 29 30
f 31 32 33
f 34 35 36
f 37 38 39
f 40 41 42
f 43 44 45
f 46 47 48
f 49 50 51
f 52 53 54
f 55 56 57
f 58 59 60
f 61 62 63
f 64 65 66
f 67 68 69
f 70 71 72
f 73 74 75
f 76 77 78
f 79 80 81
f 82 83 84
f 85 86 87
f 88 89 90
f 91 92 93
f 94 95 96
f 97 98 99
f 100 101 102
f 103 104 105
f 106 107 108
f 109 110 111
f 112 113 114
f 115 116 117
f 118 119 120
f 121 122 123
f 124 125 126
f 127 128 129
f 130 131 132
f 133 134 135
f 136 137 138
f 139 140 141
f 142 143 144
f 145 146 147
f 148 149 150
f 151 152 153
f 154 155 156
f 157 158 159
f 160 161 162
f 163 164 165
f 166 167 168
f 169 170 171
f 172 173 174
f 175 176 177
f 178 179 180
f 181 182 183
f 184 185 186
f 187 188 189
f 190 191 192
f 193 194 195
f 196 197 198
f 199 200 201
f 202 203 204
f 205 206 207
f 208 209 210
f 211 212 213
f 214 215 216
f 217 218 219
f 220 221 222
f 223 224 225
f 226 227 228
f 229 230 231
f 232 233 234
f 235 236 237
f 238 239 240
f 241 242 243
f 244 245 246
f 247 248 249
f 250 251 252
f 253 254 255
f 256 257 258
f 259 260 261
f 262 263 264
f 265 266 267
f 268 269 270
f 271 272 273
f 274 275 276
f 277 278 279
f 280 281 282
f 283 284 285
f 286 287 288
f 289 290 291
f 292 293 294
f 295 296 297
f 298 299 300
f 301 302 303
f 304 305 306
f 307 308 309
f 310 311 312
f 313 314 315
f 316 317 318
f 319 320 321
f 322 323 324
f 325 326 327
f 328 329 330
f 331 332 333
f 334 335 336
f 337 338 339
f 340 341 342
f 343 344 345
f 346 347 348
f 349 350 351
f 352 353 354
f 355 356 357
f 358 359 360
f 361 362 363
f 364 365 366
f 367 368 369
f 370 371 372
f 373 374 375
f 376 377 378
f 379 380 381
f 382 383 384
f 385 386 387
f 388 389 390
f 391 392 393
f 394 395 396
f 397 398 399
f 400 401 402
f 403 404 405
f 406 407 408
f 409 410 411
f 412 413 414
f 415 416 417
f 418 419 420
f 421 422 423
f 424 425 426
f 427 428 429
f 430 431 432
f 433 434 435
f 436 437 438
f 439 440 441
f 442 443 444
f 445 446 447
f 448 449 450
f 451 452 453
f 454 455 456
f 457 458 459
f 460 461 462
f 463 464 465
f 466 467 468
f 469 470 471
f 472 473 474
f 475 476 477
f 478 479 480
f 481 482 483
f 484 485 486
f 487 488 489
f 490 491 492
f 493 494 495
f 496 497 498
f 499 500 501
f 502 503 504
f 505 506 507
f 508 509 510
f 511 512 513
f 514 515 516
f 517 518 519
f 520 521 522
f 523 524 525
f 526 527 528
f 529 530 531
f 532 533 534
f 535 536 537
f 538 539 540
f 541 542 543
f 544 545 546
f 547 548 549
f 550 551 552
f 553 554 555
f 556 557 558
f 559 560 561
f 562 563 564
f 565 566 567
f 568 569 570
f 571 572 573
f 574 575 576
f 577 578 579
f 580 581 582
f 583 584 585
f 586 587 588
f 589 590 591
f 592 593 594
f 595 596 597
f 598 599 600
f 601 602 603
f 604 605 606
f 607 608 609
f 610 611 612
f 613 614 615
