# PSO Extracted Authentic Geometry
v 0.0000 0.2000 0.0000
v 0.2000 0.0000 0.0000
v 0.0000 0.0000 0.2000
v 0.0000 0.2000 0.0000
v 0.0000 0.0000 1200.0000
v 3250.0000 0.0000 0.0000
v 0.0000 800.0000 0.0000
v 3.0118 0.0000 0.0000
v 0.0000 -0.5000 0.0000
v 6.5431 0.0000 0.0000
v 107.5045 11.5000 7.7968
v 1.0000 1.0000 1.0000
v 0.7490 0.0000 0.0000
v 0.0000 -0.5000 0.0000
v 6.5431 0.0000 0.0000
v -46.9999 11.5000 -97.0001
v 1.0000 1.0000 1.0000
v 3.0118 0.0000 0.0000
v 0.0000 0.6438 -0.5000
v 0.0000 7.0616 0.0000
v 0.0000 47.0001 11.5000
v -97.0000 0.0000 0.0000
v 0.0000 1.0000 1.0000
v 1.0000 0.0000 0.0000
v 0.0000 -0.5000 -0.0000
v 6.5431 0.0000 0.0000
v -107.5045 11.5000 7.7967
v 1.0000 1.0000 1.0000
v -0.5000 0.0000 6.5431
v 0.0000 0.0000 -60.5045
v 11.5000 89.2031 0.0000
v 0.0000 0.0000 1.0000
v 1.0000 1.0000 0.0000
v 0.0000 0.0000 -0.5000
v -0.0000 6.5431 0.0000
v 0.0000 60.5045 11.5000
v 89.2032 0.0000 0.0000
v 0.0000 1.0000 1.0000
v 1.0000 0.0000 0.0000
v 1.0000 0.0000 0.0000
v 0.0000 0.0000 -3.0000
v -13.5740 130.7799 0.0000
v 0.0000 1.0000 1.0000
v 1.0000 0.0000 0.0000
v -2.0000 0.0000 100.0050
v 0.0000 0.0000 1.0000
v 1.0000 1.0000 0.0000
v 0.1647 0.4902 0.0000
v 0.0000 -3.0000 0.0000
v 35.1964 0.0000 0.0000
v 1.0000 1.0000 1.0000
v 10.0392 -9.0353 0.0000
v 1.0000 1.0000 1.0000
v 0.0000 0.0000 4.0000
v 6.5000 -4.5000 614.8353
v 0.0000 0.0000 1.0000
v 1.0000 1.0000 0.0000
v 0.0000 369.5518 0.0000
v 1043.6205 0.0000 0.0000
v 1.0000 1.0000 1.0000
v 15.3911 125.0000 -10.0000
v 767.3192 0.0000 0.0000
v 1.0000 1.0000 1.0000
v 1.0000 0.0000 0.0000
v 345.5800 0.0000 229.4695
v 0.0000 0.0000 1.0000
v 1.0000 1.0000 0.0000
v 0.0000 -0.0000 332.7901
v 0.0000 243.6477 0.0000
v 0.0000 1.0000 1.0000
v 1.0000 0.0000 0.0000
v 1.0039 0.0000 0.0000
v 0.0000 2.0626 -31.4351
v 494.0589 0.0000 0.0000
v 1.0000 1.0000 1.0000
v 32.1255 -0.1608 0.0000
v 131.0000 0.0000 927.9763
v 0.0000 0.0000 1.0000
v 1.0000 1.0000 0.0000
v -2.8411 21.9136 -44.3236
v 605.2971 0.0000 0.0000
v 1.0000 1.0000 1.0000
v -48.4508 102.2036 -21.9357
v 663.7664 0.0000 0.0000
v 1.0000 1.0000 1.0000
v 0.0000 -46.5970 133.0513
v 485.0224 530.6379 0.0000
v 0.0000 1.0000 1.0000
v 1.0000 0.0000 0.0000
v 0.3686 0.0000 0.0000
v 0.0000 305.0000 0.0000
v 562.9609 0.0000 0.0000
v 1.0000 1.0000 1.0000
v 1.0000 0.0000 0.0000
v 1059.9342 0.0000 430.4211
v 0.0000 0.0000 1.0000
v 1.0000 1.0000 0.0000
v 0.0000 1121.0518 0.0000
v 686.4477 0.0000 0.0000
v 1.0000 1.0000 1.0000
v 100.3922 0.0000 0.0000
v -0.2500 -0.0001 399.9999
v 0.0000 0.0000 1.0000
v 1.0000 1.0000 0.0000
v 0.0000 1.3500 0.7500
v 103.7340 0.0000 0.0000
v 1.0000 1.0000 1.0000
v -600.0000 6.4800 -600.0000
v -0.0000 0.0000 1.0000
v -600.0000 6.4800 -480.0000
v -0.0000 0.0000 -5.0196
v -600.0000 6.4800 -360.0000
v -0.0000 0.0000 -11.0431
v -600.0000 6.4800 -240.0000
v -0.0000 0.0000 -17.0667
v -600.0000 6.4800 240.0000
v -0.0000 0.0000 -41.1608
v -600.0000 6.4800 360.0000
v -0.0000 0.0000 -47.1843
v -600.0000 6.4800 480.0000
v -0.0000 0.0000 -53.2078
v -600.0000 6.4800 600.0000
v -0.0000 0.0000 -59.2314
v -480.0000 6.4800 -600.0000
v -0.0000 6.0235 1.0000
v -480.0000 6.4800 -360.0000
v -0.0000 6.0235 -11.0431
v -480.0000 6.4800 -120.0000
v -0.0000 6.0235 -23.0902
v -480.0000 6.4800 240.0000
v -0.0000 6.0235 -41.1608
v -480.0000 6.4800 360.0000
v -0.0000 6.0235 -47.1843
v -480.0000 6.4800 480.0000
v -0.0000 6.0235 -53.2078
v -480.0000 6.4800 600.0000
v -0.0000 6.0235 -59.2314
v -360.0000 6.4800 -600.0000
v -0.0000 12.0471 1.0000
v -360.0000 6.4800 -480.0000
v -0.0000 12.0471 -5.0196
v -360.0000 6.4800 600.0000
v -0.0000 12.0471 -59.2314
v -240.0000 6.4800 -600.0000
v -0.0000 18.0706 1.0000
v -240.0000 6.4800 -480.0000
v -0.0000 18.0706 -5.0196
v -240.0000 6.4800 -120.0000
v 179.2434 18.0706 -23.0902
v -240.0000 6.4800 120.0000
v 0.0000 18.0706 -35.1373
v -240.0000 6.4800 480.0000
v -0.0000 18.0706 -53.2078
v -240.0000 6.4800 600.0000
v -0.0000 18.0706 -59.2314
v -120.0000 6.4800 -480.0000
v -0.0000 24.0941 -5.0196
v -120.0000 6.4800 -240.0000
v 716.9736 24.0941 -17.0667
v -120.0000 6.4800 -120.0000
v 0.0002 24.0941 -23.0902
v -120.0000 6.4800 0.0000
v 0.0002 24.0941 -29.1137
v 0.0000 6.4800 0.0000
v 0.0000 30.1176 -29.1137
v 0.0000 6.4800 240.0000
v 0.0002 30.1176 -41.1608
v 120.0000 6.4800 -600.0000
v -0.0000 36.1412 1.0000
v 120.0000 6.4800 0.0000
v 0.0000 36.1412 -29.1137
v 120.0000 6.4800 120.0000
v 0.0002 36.1412 -35.1373
v 240.0000 6.4800 -600.0000
v -0.0000 42.1647 1.0000
v 240.0000 6.4800 -480.0000
v -0.0000 42.1647 -5.0196
v 360.0000 6.4800 -600.0000
v -0.0000 48.1882 1.0000
v 360.0000 6.4800 360.0000
v -0.0000 48.1882 -47.1843
v 360.0000 6.4800 480.0000
v -0.0000 48.1882 -53.2078
v 360.0000 6.4800 600.0000
v -0.0000 48.1882 -59.2314
v 480.0000 6.4800 -600.0000
v -0.0000 54.2118 1.0000
v 480.0000 6.4800 -480.0000
v -0.0000 54.2118 -5.0196
v 480.0000 6.4800 -360.0000
v -0.0000 54.2118 -11.0431
v 480.0000 6.4800 -240.0000
v -0.0000 54.2118 -17.0667
v 480.0000 6.4800 240.0000
v -0.0000 54.2118 -41.1608
v 480.0000 6.4800 360.0000
v -0.0000 54.2118 -47.1843
v 480.0000 6.4800 480.0000
v -0.0000 54.2118 -53.2078
v 480.0000 6.4800 600.0000
v -0.0000 54.2118 -59.2314
v 600.0000 6.4800 -600.0000
v -0.0000 60.2353 1.0000
v 600.0000 6.4800 -480.0000
v -0.0000 60.2353 -5.0196
v 600.0000 6.4800 -360.0000
v -0.0000 60.2353 -11.0431
v 600.0000 6.4800 -240.0000
v -0.0000 60.2353 -17.0667
v 600.0000 6.4800 120.0000
v -0.0000 60.2353 -35.1373
v 600.0000 6.4800 240.0000
v -0.0000 60.2353 -41.1608
v 600.0000 6.4800 360.0000
v -0.0000 60.2353 -47.1843
v 600.0000 6.4800 480.0000
v -0.0000 60.2353 -53.2078
v 600.0000 6.4800 600.0000
v -0.0000 60.2353 -59.2314
v 0.0000 0.0000 6.4800
v 0.0000 848.5281 0.0000
v 0.0000 1.0000 1.0000
v 1.0000 0.0000 0.0000
v 0.0000 658.8289 6.5000
v 0.0000 -0.0000 19.0745
v -21.0824 88.9419 6.5000
v -21.0824 646.1697 6.5000
v -128.5311 -0.0000 19.0745
v -19.0745 87.2329 6.5000
v -17.3517 0.0000 0.0000
v -19.0745 608.6786 6.5000
v -252.1229 -0.0000 19.0745
v -17.0667 82.1716 6.5000
v -34.0366 0.0000 0.0000
v -17.0667 547.7962 6.5000
v -366.0257 -0.0000 19.0745
v -15.0588 73.9525 6.5000
v -49.4135 0.0000 0.0000
v -15.0588 465.8623 6.5000
v -465.8624 -0.0000 19.0745
v -13.0510 62.8914 6.5000
v -62.8914 0.0000 0.0000
v -13.0510 366.0256 6.5000
v -547.7962 -0.0000 19.0745
v -11.0431 49.4135 6.5000
v -73.9525 0.0000 0.0000
v -11.0431 252.1228 6.5000
v -608.6785 -0.0000 19.0745
v -9.0353 34.0366 6.5000
v -82.1716 0.0000 0.0000
v -9.0353 128.5311 6.5000
v -646.1696 -0.0000 19.0745
v -7.0275 17.3517 6.5000
v -87.2329 0.0000 0.0000
v -7.0275 -0.0001 6.5000
v -658.8287 -0.0000 19.0745
v -5.0196 -0.0000 6.5000
v -88.9419 0.0000 0.0000
v -5.0196 -128.5312 6.5000
v -646.1695 -0.0000 19.0745
v -3.0118 -17.3517 6.5000
v -87.2329 0.0000 0.0000
v -3.0118 -252.1229 6.5000
v -608.6783 -0.0000 19.0745
v -1.0039 -34.0366 6.5000
v -82.1716 0.0000 0.0000
v -1.0039 -366.0257 6.5000
v -547.7960 -0.0000 19.0745
v -63.2471 -49.4135 6.5000
v -73.9525 0.0000 0.0000
v -63.2471 -465.8623 6.5000
v -465.8621 -0.0000 19.0745
v -61.2392 -62.8914 6.5000
v -62.8914 0.0000 0.0000
v -61.2392 -547.7961 6.5000
v -366.0255 -0.0000 19.0745
v -59.2314 -73.9525 6.5000
v -49.4135 0.0000 0.0000
v -59.2314 -608.6783 6.5000
v -252.1227 -0.0000 19.0745
v -57.2235 -82.1716 6.5000
v -34.0366 0.0000 0.0000
v -57.2235 -646.1695 6.5000
v -128.5309 -0.0000 19.0745
v -55.2157 -87.2329 6.5000
v -17.3517 0.0000 0.0000
v -55.2157 -658.8286 6.5000
v 0.0002 -0.0000 19.0745
v -53.2078 -88.9419 6.5000
v -53.2078 -646.1694 6.5000
v 128.5312 -0.0000 19.0745
v -51.2000 -87.2329 6.5000
v 17.3517 0.0000 0.0000
v -51.2000 -608.6782 6.5000
v 252.1229 -0.0000 19.0745
v -49.1922 -82.1716 6.5000
v 34.0366 0.0000 0.0000
v -49.1922 -547.7957 6.5000
v 366.0257 -0.0000 19.0745
v -47.1843 -73.9525 6.5000
v 49.4135 0.0000 0.0000
v -47.1843 -465.8620 6.5000
v 465.8622 -0.0000 19.0745
v -45.1765 -62.8914 6.5000
v 62.8914 0.0000 0.0000
v -45.1765 -366.0253 6.5000
v 547.7960 -0.0000 19.0745
v -43.1686 -49.4134 6.5000
v 73.9525 0.0000 0.0000
v -43.1686 -252.1226 6.5000
v 608.6783 -0.0000 19.0745
v -41.1608 -34.0366 6.5000
v 82.1716 0.0000 0.0000
v -41.1608 -128.5309 6.5000
v 646.1693 -0.0000 19.0745
v -39.1529 -17.3517 6.5000
v 87.2329 0.0000 0.0000
v -39.1529 0.0002 6.5000
v 658.8284 -0.0000 19.0745
v -37.1451 0.0000 6.5000
v 88.9419 0.0000 0.0000
v -37.1451 128.5312 6.5000
v 646.1691 -0.0000 19.0745
v -35.1373 17.3517 6.5000
v 87.2329 0.0000 0.0000
v -35.1373 252.1229 6.5000
v 608.6780 -0.0000 19.0745
v -33.1294 34.0366 6.5000
v 82.1715 0.0000 0.0000
v -33.1294 366.0256 6.5000
v 547.7957 -0.0000 19.0745
v -31.1216 49.4135 6.5000
v 73.9524 0.0000 0.0000
v -31.1216 465.8622 6.5000
v 465.8618 -0.0000 19.0745
v -29.1137 62.8914 6.5000
v 62.8914 0.0000 0.0000
v -29.1137 547.7958 6.5000
v 366.0253 -0.0000 19.0745
v -27.1059 73.9525 6.5000
v 49.4134 0.0000 0.0000
v -27.1059 608.6781 6.5000
v 252.1225 -0.0000 19.0745
v -25.0980 82.1716 6.5000
v 34.0365 0.0000 0.0000
v -25.0980 646.1691 6.5000
v 128.5308 -0.0000 19.0745
v -23.0902 87.2329 6.5000
v 17.3517 0.0000 0.0000
v 1.0000 -49.4135 6.5000
v -73.9525 0.0000 0.0000
v 1.0000 -49.4135 6.5000
v -73.9525 0.0000 0.0000
v -63.2471 -366.0257 6.5000
v -547.7960 -0.0000 19.0745
v -63.2471 0.0000 0.0000
v 6.5000 -0.0002 658.8287
v 0.0000 0.0000 1.0000
v 1.0000 1.0000 0.0000
v 0.0000 571.0640 6.5000
v 44.0000 0.0000 3.0118
v -55.2941 455.2033 6.5000
v 8.0000 0.0000 0.0000
v -56.1608 510.7847 6.5000
v -108.6752 0.0000 3.0118
v -57.9686 403.4560 6.5000
v -74.6611 0.0000 0.0000
v -58.1020 470.4182 6.5000
v -180.5592 0.0000 3.0118
v 1.0000 376.5113 6.5000
v -126.2992 0.0000 0.0000
v 1.0000 467.3622 6.5000
v -311.0450 0.0000 3.0118
v -0.9922 359.2513 6.5000
v -264.0077 0.0000 0.0000
v -1.6863 419.8864 6.5000
v -375.8864 0.0000 3.0118
v -2.2235 341.1078 6.5000
v -293.1078 0.0000 0.0000
v -2.3490 271.0449 6.5000
v -451.3622 0.0000 3.0118
v -4.7765 252.0077 6.5000
v -339.2513 0.0000 0.0000
v -4.2941 172.5591 6.5000
v -454.4180 0.0000 3.0118
v -6.2863 182.2992 6.5000
v -344.5112 0.0000 0.0000
v -5.6471 96.6751 6.5000
v -462.7845 0.0000 3.0118
v -7.4549 54.6610 6.5000
v -367.4559 0.0000 0.0000
v -8.1608 19.9999 6.5000
v -539.0638 0.0000 3.0118
v -9.1098 -4.0000 6.5000
v -407.2032 0.0000 0.0000
v -9.5333 -112.6753 6.5000
v -478.7844 0.0000 3.0118
v -11.4902 -82.6611 6.5000
v -375.4558 0.0000 0.0000
v -11.2627 -212.5592 6.5000
v -462.4179 0.0000 3.0118
v -13.0392 -206.2992 6.5000
v -356.5111 0.0000 0.0000
v -13.6863 -327.0449 6.5000
v -483.3621 0.0000 3.0118
v -14.8235 -320.0077 6.5000
v -355.2512 0.0000 0.0000
v -15.8902 -435.8864 6.5000
v -431.8861 0.0000 3.0118
v -16.6627 -353.1077 6.5000
v -341.1076 0.0000 0.0000
v -16.5882 -495.3621 6.5000
v -335.0447 0.0000 3.0118
v -18.4039 -375.2512 6.5000
v -308.0077 0.0000 0.0000
v -17.3608 -494.4179 6.5000
v -192.5590 0.0000 3.0118
v -20.5843 -380.5111 6.5000
v -178.2991 0.0000 0.0000
v -19.8745 -526.7844 6.5000
v -108.6750 0.0000 3.0118
v -21.9608 -411.4557 6.5000
v -82.6610 0.0000 0.0000
v -21.8196 -571.0637 6.5000
v -23.9998 0.0000 3.0118
v -23.4235 -443.2030 6.5000
v -19.9999 0.0000 0.0000
v -23.1804 -502.7843 6.5000
v 144.6753 0.0000 3.0118
v -26.2863 -391.4557 6.5000
v 102.6611 0.0000 0.0000
v -25.8392 -490.4177 6.5000
v 216.5592 0.0000 3.0118
v -27.4000 -380.5111 6.5000
v 222.2992 0.0000 0.0000
v -28.1686 -527.3618 6.5000
v 327.0449 0.0000 3.0118
v -29.1843 -399.2512 6.5000
v 316.0077 0.0000 0.0000
v -30.0196 -483.8860 6.5000
v 399.8862 0.0000 3.0118
v -30.4824 -397.1075 6.5000
v 321.1076 0.0000 0.0000
v -30.1255 -323.0446 6.5000
v 483.3621 0.0000 3.0118
v -33.2941 -312.0075 6.5000
v 359.2512 0.0000 0.0000
v -31.9686 -216.5589 6.5000
v 442.4178 0.0000 3.0118
v -35.0392 -266.2990 6.5000
v 344.5111 0.0000 0.0000
v -32.8980 -92.6749 6.5000
v 422.7843 0.0000 3.0118
v -37.1098 -26.6609 6.5000
v 351.4556 0.0000 0.0000
v -38.0745 -7.9998 6.5000
v 547.0637 0.0000 3.0118
v -39.5059 -7.9999 6.5000
v 411.2030 0.0000 0.0000
v -39.3137 80.6753 6.5000
v 414.7842 0.0000 3.0118
v -42.0588 18.6611 6.5000
v 319.4555 0.0000 0.0000
v -41.1922 200.5592 6.5000
v 414.4176 0.0000 3.0118
v -44.0902 250.2992 6.5000
v 308.5110 0.0000 0.0000
v -46.0588 379.0449 6.5000
v 483.3617 0.0000 3.0118
v -47.1137 372.0077 6.5000
v 355.2510 0.0000 0.0000
v -48.7412 483.8862 6.5000
v 419.8859 0.0000 3.0118
v -48.9882 393.1076 6.5000
v 341.1075 0.0000 0.0000
v -49.2353 527.3619 6.5000
v 339.0445 0.0000 3.0118
v -50.3961 407.2511 6.5000
v 316.0075 0.0000 0.0000
v -49.7922 494.4177 6.5000
v 192.5588 0.0000 3.0118
v -52.7059 384.5110 6.5000
v 174.2990 0.0000 0.0000
v -52.5922 518.7842 6.5000
v 116.6749 0.0000 3.0118
v -53.9255 415.4555 6.5000
v 58.6609 0.0000 0.0000
v -54.9137 -40.3377 6.5000
v -540.9241 0.0000 3.0118
v -10.0314 -25.3306 6.5000
v -411.3295 0.0000 0.0000
v -9.9529 -556.9240 6.5000
v 68.3377 0.0000 3.0118
v -24.8510 -435.3293 6.5000
v 41.3306 0.0000 0.0000
v -24.3804 455.3297 6.5000
v -7.3305 0.0000 0.0000
v -56.4549 572.9243 6.5000
v -32.3376 0.0000 3.0118
v -56.4627 267.8021 6.5000
v 466.8896 0.0000 3.0118
v -45.3922 303.1534 6.5000
v 353.8810 0.0000 0.0000
v -47.4078 54.3378 6.5000
v 498.9239 0.0000 3.0118
v -40.7098 -2.6694 6.5000
v 407.3293 0.0000 0.0000
v -39.4431 -178.6169 6.5000
v 414.6010 0.0000 3.0118
v -35.7608 -212.4800 6.5000
v 307.9834 0.0000 0.0000
v -34.1608 -64.3374 6.5000
v 502.9239 0.0000 3.0118
v -38.4118 -13.3304 6.5000
v 407.3293 0.0000 0.0000
v -39.1882 -119.5704 6.5000
v 295.7195 0.0000 0.0000
v -35.9765 -125.6459 6.5000
v 410.6927 0.0000 3.0118
v -36.5726 132.6173 6.5000
v 386.6009 0.0000 3.0118
v -42.9647 130.4801 6.5000
v 265.9833 0.0000 0.0000
v -43.5961 389.8811 6.5000
v 261.1532 0.0000 0.0000
v -50.9059 502.8898 6.5000
v 265.8016 0.0000 3.0118
v -51.5765 -405.4653 6.5000
v 457.6241 0.0000 3.0118
v -31.9725 -354.5575 6.5000
v 350.1794 0.0000 0.0000
v -13.2706 -103.6682 6.5000
v -441.1201 -0.0000 1.9294
v -9.2588 83.6681 6.5000
v -427.1202 -0.0000 1.9137
v -1.2588 437.4647 6.5000
v -161.4292 -0.0000 1.9529
v 1.0000 471.1203 6.5000
v -95.6682 -0.0000 1.8941
v -55.5490 481.1198 6.5000
v 97.6679 -0.0000 1.9412
v -54.2000 453.4643 6.5000
v 185.4289 -0.0000 1.8863
v -43.1529 59.6682 6.5000
v 377.1198 0.0245 1.8706
v -41.8431 29.8342 6.5000
v 465.1266 0.0245 1.8471
v -40.3020 -7.9999 6.5000
v 493.1333 0.0245 1.8157
v -39.5216 -40.8339 6.5000
v 463.1266 0.0245 1.7294
v -38.7843 -63.6679 6.5000
v 391.1200 0.0245 1.6824
v -27.7059 -465.1200 6.5000
v 129.6682 -0.0000 1.9843
v -23.4471 -487.1201 6.5000
v -99.6680 -0.0000 1.9765
v -15.1843 -207.8642 6.5000
v -389.9878 -0.0000 0.9529
v -13.4784 -93.1646 6.5000
v -408.2880 -0.0000 0.9647
v -9.3961 69.1646 6.5000
v -397.2880 -0.0000 0.9569
v -7.9020 179.8642 6.5000
v -378.9879 -0.0000 0.9451
v -5.8588 257.7670 6.5000
v -375.2791 -0.0000 0.9647
v -4.4706 367.8024 6.5000
v -318.8025 -0.0000 0.9765
v -2.2784 393.2791 6.5000
v -280.7670 -0.0000 0.9686
v 1.0000 437.2881 6.5000
v -85.1646 -0.0000 0.9490
v -55.8549 448.2877 6.5000
v 78.1644 -0.0000 0.9686
v -54.5569 418.9877 6.5000
v 179.8640 -0.0000 0.9451
v -52.6314 425.1332 6.5000
v 262.3153 -0.0000 0.9373
v -51.1412 444.2788 6.5000
v 322.7667 -0.0000 0.9255
v -50.0078 420.8023 6.5000
v 366.8021 -0.0000 0.9451
v -49.1412 373.7670 6.5000
v 397.2787 -0.0000 0.9882
v -48.1765 291.3156 6.5000
v 390.1332 -0.0000 0.9686
v -46.7059 234.8642 6.5000
v 341.9877 -0.0000 0.9490
v -36.2196 -202.0142 6.5000
v 342.6378 -0.0000 0.9725
v -34.7333 -250.8640 6.5000
v 375.9878 -0.0000 0.9608
v -33.6588 -315.7668 6.5000
v 400.2789 -0.0000 0.9961
v -32.4431 -371.2845 6.5000
v 385.0406 -0.0000 0.9804
v -31.4275 -423.8022 6.5000
v 344.8023 -0.0000 0.9176
v -30.2588 -438.2788 6.5000
v 318.7670 -0.0000 0.9176
v -29.7569 -414.9877 6.5000
v 219.8642 -0.0000 0.9451
v -27.9373 -428.2878 6.5000
v 116.1646 -0.0000 0.9922
v -23.3137 -449.2880 6.5000
v -91.1645 -0.0000 0.9882
v -21.9176 -416.9878 6.5000
v -182.8641 -0.0000 0.9647
v -20.1647 -413.2790 6.5000
v -316.7669 -0.0000 0.9529
v -17.7608 -379.8023 6.5000
v -370.8023 -0.0000 0.9804
v -16.6510 -321.7670 6.5000
v -398.2789 -0.0000 1.0118
v -15.5373 437.4647 6.5000
v -161.4292 -0.0000 1.9529
v -58.9961 470.4182 6.5000
v -180.5592 0.0000 3.0118
v -58.9961 470.4182 6.5000
v -180.5592 0.0000 3.0118
v -58.9961 376.5113 6.5000
v -126.2992 0.0000 0.0000
v -58.9961 437.4647 6.5000
v -161.4292 -0.0000 1.9529
v -58.9961 0.0000 0.0000
v 0.9303 6.5000 3.0698
v 637.9514 0.0000 0.0000
v 1.0000 1.0000 1.0000
v 571.0640 6.5000 44.0000
v 0.0000 3.0118 -55.2941
v 455.2033 6.5000 8.0000
v 0.0000 0.0000 -56.1608
v 510.7847 6.5000 -108.6752
v 0.0000 3.0118 -57.9686
v 403.4560 6.5000 -74.6611
v 0.0000 0.0000 -58.1020
v 470.4182 6.5000 -180.5592
v 0.0000 3.0118 1.0000
v 376.5113 6.5000 -126.2992
v 0.0000 0.0000 1.0000
v 467.3622 6.5000 -311.0450
v 0.0000 3.0118 -0.9922
v 359.2513 6.5000 -264.0077
v 0.0000 0.0000 -1.6863
v 419.8864 6.5000 -375.8864
v 0.0000 3.0118 -2.2235
v 341.1078 6.5000 -293.1078
v 0.0000 0.0000 -2.3490
v 271.0449 6.5000 -451.3622
v 0.0000 3.0118 -4.7765
v 252.0077 6.5000 -339.2513
v 0.0000 0.0000 -4.2941
v 172.5591 6.5000 -454.4180
v 0.0000 3.0118 -6.2863
v 182.2992 6.5000 -344.5112
v 0.0000 0.0000 -5.6471
v 96.6751 6.5000 -462.7845
v 0.0000 3.0118 -7.4549
v 54.6610 6.5000 -367.4559
v 0.0000 0.0000 -8.1608
v 19.9999 6.5000 -539.0638
v 0.0000 3.0118 -9.1098
v -4.0000 6.5000 -407.2032
v 0.0000 0.0000 -9.5333
v -112.6753 6.5000 -478.7844
v 0.0000 3.0118 -11.4902
v -82.6611 6.5000 -375.4558
v 0.0000 0.0000 -11.2627
v -212.5592 6.5000 -462.4179
v 0.0000 3.0118 -13.0392
v -206.2992 6.5000 -356.5111
v 0.0000 0.0000 -13.6863
v -327.0449 6.5000 -483.3621
v 0.0000 3.0118 -14.8235
v -320.0077 6.5000 -355.2512
v 0.0000 0.0000 -15.8902
v -435.8864 6.5000 -431.8861
v 0.0000 3.0118 -16.6627
v -353.1077 6.5000 -341.1076
v 0.0000 0.0000 -16.5882
v -495.3621 6.5000 -335.0447
v 0.0000 3.0118 -18.4039
v -375.2512 6.5000 -308.0077
v 0.0000 0.0000 -17.3608
v -494.4179 6.5000 -192.5590
v 0.0000 3.0118 -20.5843
v -380.5111 6.5000 -178.2991
v 0.0000 0.0000 -19.8745
v -526.7844 6.5000 -108.6750
v 0.0000 3.0118 -21.9608
v -411.4557 6.5000 -82.6610
v 0.0000 0.0000 -21.8196
v -571.0637 6.5000 -23.9998
v 0.0000 3.0118 -23.4235
v -443.2030 6.5000 -19.9999
v 0.0000 0.0000 -23.1804
v -502.7843 6.5000 144.6753
v 0.0000 3.0118 -26.2863
v -391.4557 6.5000 102.6611
v 0.0000 0.0000 -25.8392
v -490.4177 6.5000 216.5592
v 0.0000 3.0118 -27.4000
v -380.5111 6.5000 222.2992
v 0.0000 0.0000 -28.1686
v -527.3618 6.5000 327.0449
v 0.0000 3.0118 -29.1843
v -399.2512 6.5000 316.0077
v 0.0000 0.0000 -30.0196
v -483.8860 6.5000 399.8862
v 0.0000 3.0118 -30.4824
v -397.1075 6.5000 321.1076
v 0.0000 0.0000 -30.1255
v -323.0446 6.5000 483.3621
v 0.0000 3.0118 -33.2941
v -312.0075 6.5000 359.2512
v 0.0000 0.0000 -31.9686
v -216.5589 6.5000 442.4178
v 0.0000 3.0118 -35.0392
v -266.2990 6.5000 344.5111
v 0.0000 0.0000 -32.8980
v -92.6749 6.5000 422.7843
v 0.0000 3.0118 -37.1098
v -26.6609 6.5000 351.4556
v 0.0000 0.0000 -38.0745
v -7.9998 6.5000 547.0637
v 0.0000 3.0118 -39.5059
v -7.9999 6.5000 411.2030
v 0.0000 0.0000 -39.3137
v 80.6753 6.5000 414.7842
v 0.0000 3.0118 -42.0588
v 18.6611 6.5000 319.4555
v 0.0000 0.0000 -41.1922
v 200.5592 6.5000 414.4176
v 0.0000 3.0118 -44.0902
v 250.2992 6.5000 308.5110
v 0.0000 0.0000 -46.0588
v 379.0449 6.5000 483.3617
v 0.0000 3.0118 -47.1137
v 372.0077 6.5000 355.2510
v 0.0000 0.0000 -48.7412
v 483.8862 6.5000 419.8859
v 0.0000 3.0118 -48.9882
v 393.1076 6.5000 341.1075
v 0.0000 0.0000 -49.2353
v 527.3619 6.5000 339.0445
v 0.0000 3.0118 -50.3961
v 407.2511 6.5000 316.0075
v 0.0000 0.0000 -49.7922
v 494.4177 6.5000 192.5588
v 0.0000 3.0118 -52.7059
v 384.5110 6.5000 174.2990
v 0.0000 0.0000 -52.5922
v 518.7842 6.5000 116.6749
v 0.0000 3.0118 -53.9255
v 415.4555 6.5000 58.6609
v 0.0000 0.0000 -54.9137
v -40.3377 6.5000 -540.9241
v 0.0000 3.0118 -10.0314
v -25.3306 6.5000 -411.3295
v 0.0000 0.0000 -9.9529
v -556.9240 6.5000 68.3377
v 0.0000 3.0118 -24.8510
v -435.3293 6.5000 41.3306
v 0.0000 0.0000 -24.3804
v 455.3297 6.5000 -7.3305
v 0.0000 0.0000 -56.4549
v 572.9243 6.5000 -32.3376
v 0.0000 3.0118 -56.4627
v 267.8021 6.5000 466.8896
v 0.0000 3.0118 -45.3922
v 303.1534 6.5000 353.8810
v 0.0000 0.0000 -47.4078
v 54.3378 6.5000 498.9239
v 0.0000 3.0118 -40.7098
v -2.6694 6.5000 407.3293
v 0.0000 0.0000 -39.4431
v -178.6169 6.5000 414.6010
v 0.0000 3.0118 -35.7608
v -212.4800 6.5000 307.9834
v 0.0000 0.0000 -34.1608
v -64.3374 6.5000 502.9239
v 0.0000 3.0118 -38.4118
v -13.3304 6.5000 407.3293
v 0.0000 0.0000 -39.1882
v -119.5704 6.5000 295.7195
v 0.0000 0.0000 -35.9765
v -125.6459 6.5000 410.6927
v 0.0000 3.0118 -36.5726
v 132.6173 6.5000 386.6009
v 0.0000 3.0118 -42.9647
v 130.4801 6.5000 265.9833
v 0.0000 0.0000 -43.5961
v 389.8811 6.5000 261.1532
v 0.0000 0.0000 -50.9059
v 502.8898 6.5000 265.8016
v 0.0000 3.0118 -51.5765
v -405.4653 6.5000 457.6241
v 0.0000 3.0118 -31.9725
v -354.5575 6.5000 350.1794
v 0.0000 0.0000 -31.1255
v -103.6682 6.5000 -441.1201
v -0.0000 1.9294 -11.4902
v 83.6681 6.5000 -427.1202
v -0.0000 1.9137 -7.6431
v 437.4647 6.5000 -161.4292
v -0.0000 1.9529 1.0000
v 471.1203 6.5000 -95.6682
v -0.0000 1.8941 -58.0078
v 481.1198 6.5000 97.6679
v -0.0000 1.9412 -54.2000
v 453.4643 6.5000 185.4289
v -0.0000 1.8863 -52.6745
v 59.6682 6.5000 377.1198
v 0.0245 1.8706 -41.8431
v 29.8342 6.5000 465.1266
v 0.0245 1.8471 -40.3020
v -7.9999 6.5000 493.1333
v 0.0245 1.8157 -39.5216
v -40.8339 6.5000 463.1266
v 0.0245 1.7294 -38.7843
v -63.6679 6.5000 391.1200
v 0.0245 1.6824 -37.5333
v -465.1200 6.5000 129.6682
v -0.0000 1.9843 -26.2275
v -487.1201 6.5000 -99.6680
v -0.0000 1.9765 -22.0118
v -207.8642 6.5000 -389.9878
v -0.0000 0.9529 -13.4784
v -93.1646 6.5000 -408.2880
v -0.0000 0.9647 -11.3765
v 69.1646 6.5000 -397.2880
v -0.0000 0.9569 -7.9020
v 179.8642 6.5000 -378.9879
v -0.0000 0.9451 -5.8588
v 257.7670 6.5000 -375.2791
v -0.0000 0.9647 -4.4706
v 367.8024 6.5000 -318.8025
v -0.0000 0.9765 -2.2784
v 393.2791 6.5000 -280.7670
v -0.0000 0.9686 -1.4706
v 437.2881 6.5000 -85.1646
v -0.0000 0.9490 -58.0549
v 448.2877 6.5000 78.1644
v -0.0000 0.9686 -54.5569
v 418.9877 6.5000 179.8640
v -0.0000 0.9451 -52.6314
v 425.1332 6.5000 262.3153
v -0.0000 0.9373 -51.1412
v 444.2788 6.5000 322.7667
v -0.0000 0.9255 -50.0078
v 420.8023 6.5000 366.8021
v -0.0000 0.9451 -49.1412
v 373.7670 6.5000 397.2787
v -0.0000 0.9882 -48.1765
v 291.3156 6.5000 390.1332
v -0.0000 0.9686 -46.7059
v 234.8642 6.5000 341.9877
v -0.0000 0.9490 -45.3804
v -202.0142 6.5000 342.6378
v -0.0000 0.9725 -34.7333
v -250.8640 6.5000 375.9878
v -0.0000 0.9608 -33.6588
v -315.7668 6.5000 400.2789
v -0.0000 0.9961 -32.4431
v -371.2845 6.5000 385.0406
v -0.0000 0.9804 -31.4275
v -423.8022 6.5000 344.8023
v -0.0000 0.9176 -30.2588
v -438.2788 6.5000 318.7670
v -0.0000 0.9176 -29.7569
v -414.9877 6.5000 219.8642
v -0.0000 0.9451 -27.9373
v -428.2878 6.5000 116.1646
v -0.0000 0.9922 -26.0353
v -449.2880 6.5000 -91.1645
v -0.0000 0.9882 -21.9176
v -416.9878 6.5000 -182.8641
v -0.0000 0.9647 -20.1647
v -413.2790 6.5000 -316.7669
v -0.0000 0.9529 -17.7608
v -379.8023 6.5000 -370.8023
v -0.0000 0.9804 -16.6510
v -321.7670 6.5000 -398.2789
v -0.0000 1.0118 -15.5373
v 437.4647 6.5000 -161.4292
v -0.0000 1.9529 -58.9961
v 470.4182 6.5000 -180.5592
v 0.0000 3.0118 -58.9961
v 470.4182 6.5000 -180.5592
v 0.0000 3.0118 -58.9961
v 376.5113 6.5000 -126.2992
v 0.0000 0.0000 -58.9961
v 437.4647 6.5000 -161.4292
v -0.0000 1.9529 -58.9961
v 0.0000 0.0000 0.9303
v 6.5000 3.0698 637.9514
v 0.0000 0.0000 1.0000
v 1.0000 1.0000 0.0000
v 0.0000 0.0000 -600.0000
v 6.4800 -600.0000 -0.0000
v 0.0000 1.0000 -600.0000
v 6.4800 -480.0000 -0.0000
v 0.0000 -2.0078 -600.0000
v 6.4800 -360.0000 -0.0000
v 0.0000 -5.0196 -600.0000
v 6.4800 -240.0000 -0.0000
v 0.0000 -17.0667 -600.0000
v 6.4800 240.0000 -0.0000
v 0.0000 -20.0784 -600.0000
v 6.4800 360.0000 -0.0000
v 0.0000 -23.0902 -600.0000
v 6.4800 480.0000 -0.0000
v 0.0000 -26.1020 -600.0000
v 6.4800 600.0000 -0.0000
v 0.0000 -29.1137 -480.0000
v 6.4800 -600.0000 -0.0000
v 3.0118 -2.0078 -480.0000
v 6.4800 -360.0000 -0.0000
v 3.0118 -8.0314 -480.0000
v 6.4800 -120.0000 -0.0000
v 3.0118 -17.0667 -480.0000
v 6.4800 240.0000 -0.0000
v 3.0118 -20.0784 -480.0000
v 6.4800 360.0000 -0.0000
v 3.0118 -23.0902 -480.0000
v 6.4800 480.0000 -0.0000
v 3.0118 -26.1020 -480.0000
v 6.4800 600.0000 -0.0000
v 3.0118 -29.1137 -360.0000
v 6.4800 -600.0000 -0.0000
v 6.0235 1.0000 -360.0000
v 6.4800 -480.0000 -0.0000
v 6.0235 -5.0196 -360.0000
v 6.4800 -240.0000 -0.0000
v 6.0235 -8.0314 -360.0000
v 6.4800 -120.0000 -0.0000
v 6.0235 -20.0784 -360.0000
v 6.4800 360.0000 -0.0000
v 6.0235 -23.0902 -360.0000
v 6.4800 480.0000 -0.0000
v 6.0235 -26.1020 -360.0000
v 6.4800 600.0000 -0.0000
v 6.0235 -29.1137 -240.0000
v 6.4800 -600.0000 -0.0000
v 9.0353 1.0000 -240.0000
v 6.4800 -480.0000 -0.0000
v 9.0353 -2.0078 -240.0000
v 6.4800 -360.0000 -0.0000
v 9.0353 -20.0784 -240.0000
v 6.4800 360.0000 -0.0000
v 9.0353 -23.0902 -240.0000
v 6.4800 480.0000 -0.0000
v 9.0353 -26.1020 -240.0000
v 6.4800 600.0000 -0.0000
v 12.0471 1.0000 -120.0000
v 6.4800 -480.0000 -0.0000
v 12.0471 -23.0902 -120.0000
v 6.4800 480.0000 -0.0000
v 15.0588 -29.1137 120.0000
v 6.4800 -600.0000 -0.0000
v 18.0706 -20.0784 120.0000
v 6.4800 360.0000 -0.0000
v 18.0706 -23.0902 120.0000
v 6.4800 480.0000 -0.0000
v 18.0706 -29.1137 240.0000
v 6.4800 -600.0000 -0.0000
v 21.0824 1.0000 240.0000
v 6.4800 -480.0000 -0.0000
v 21.0824 -8.0314 240.0000
v 6.4800 -120.0000 -0.0000
v 21.0824 -20.0784 240.0000
v 6.4800 360.0000 -0.0000
v 21.0824 -23.0902 240.0000
v 6.4800 480.0000 -0.0000
v 21.0824 -29.1137 360.0000
v 6.4800 -600.0000 -0.0000
v 24.0941 -5.0196 360.0000
v 6.4800 -240.0000 -0.0000
v 24.0941 -8.0314 360.0000
v 6.4800 -120.0000 -0.0000
v 24.0941 -14.0549 360.0000
v 6.4800 120.0000 -0.0000
v 24.0941 -17.0667 360.0000
v 6.4800 240.0000 -0.0000
v 24.0941 -20.0784 360.0000
v 6.4800 360.0000 -0.0000
v 24.0941 -23.0902 360.0000
v 6.4800 480.0000 -0.0000
v 24.0941 -26.1020 360.0000
v 6.4800 600.0000 -0.0000
v 24.0941 -29.1137 480.0000
v 6.4800 -600.0000 -0.0000
v 27.1059 1.0000 480.0000
v 6.4800 -480.0000 -0.0000
v 27.1059 -2.0078 480.0000
v 6.4800 -360.0000 -0.0000
v 27.1059 -5.0196 480.0000
v 6.4800 -240.0000 -0.0000
v 27.1059 -14.0549 480.0000
v 6.4800 120.0000 -0.0000
v 27.1059 -17.0667 480.0000
v 6.4800 240.0000 -0.0000
v 27.1059 -20.0784 480.0000
v 6.4800 360.0000 -0.0000
v 27.1059 -23.0902 480.0000
v 6.4800 480.0000 -0.0000
v 27.1059 -26.1020 480.0000
v 6.4800 600.0000 -0.0000
v 27.1059 -29.1137 600.0000
v 6.4800 -600.0000 -0.0000
v 30.1176 1.0000 600.0000
v 6.4800 -480.0000 -0.0000
v 30.1176 -2.0078 600.0000
v 6.4800 -360.0000 -0.0000
v 30.1176 -5.0196 600.0000
v 6.4800 -240.0000 -0.0000
v 30.1176 -14.0549 600.0000
v 6.4800 120.0000 -0.0000
v 30.1176 -17.0667 600.0000
v 6.4800 240.0000 -0.0000
v 30.1176 -20.0784 600.0000
v 6.4800 360.0000 -0.0000
v 30.1176 -23.0902 600.0000
v 6.4800 480.0000 -0.0000
v 30.1176 -26.1020 600.0000
v 6.4800 600.0000 -0.0000
v 30.1176 -29.1137 0.0000
v 0.0000 6.4800 0.0000
v 848.5281 0.0000 0.0000
v 1.0000 1.0000 1.0000
v 614.5601 6.0000 -519.9997
v 0.0000 4.0157 -15.0588
v 614.5601 6.0000 -430.5206
v 0.0000 3.2549 -15.0588
v 614.5601 6.0000 -254.7214
v -0.0000 1.7647 -15.0588
v 504.3887 6.0000 -510.0082
v 0.0000 4.0157 -14.0549
v 523.3465 6.0000 -422.2483
v 0.0000 3.2549 -14.0549
v 560.5926 6.0000 -249.8269
v -0.0000 1.7647 -14.0549
v 398.4512 6.0000 -480.4171
v 0.0000 4.0157 -13.0510
v 435.6381 6.0000 -397.7492
v 0.0000 3.2549 -13.0510
v 508.6993 6.0000 -235.3319
v -0.0000 1.7647 -13.0510
v 300.8185 6.0000 -432.3640
v 0.0000 4.0157 -12.0471
v 354.8056 6.0000 -357.9648
v 0.0000 3.2549 -12.0471
v 460.8740 6.0000 -211.7931
v -0.0000 1.7647 -12.0471
v 215.2428 6.0000 -367.6954
v 0.0000 4.0157 -11.0431
v 283.9554 6.0000 -304.4240
v 0.0000 3.2549 -11.0431
v 418.9548 6.0000 -180.1152
v -0.0000 1.7647 -11.0431
v 145.0127 6.0000 -288.8964
v 0.0000 4.0157 -10.0392
v 225.8102 6.0000 -239.1845
v 0.0000 3.2549 -10.0392
v 384.5526 6.0000 -141.5156
v -0.0000 1.7647 -10.0392
v 92.8270 6.0000 -198.9953
v 0.0000 4.0157 -9.0353
v 182.6044 6.0000 -164.7532
v 0.0000 3.2549 -9.0353
v 358.9894 6.0000 -97.4776
v -0.0000 1.7647 -9.0353
v 60.6911 6.0000 -101.4469
v 0.0000 4.0157 -8.0314
v 155.9983 6.0000 -83.9904
v 0.0000 3.2549 -8.0314
v 343.2478 6.0000 -49.6936
v -0.0000 1.7647 -8.0314
v 49.8403 6.0000 0.0000
v 0.0000 4.0157 -7.0275
v 147.0145 6.0000 0.0000
v 0.0000 3.2549 -7.0275
v 337.9325 6.0000 0.0001
v -0.0000 1.7647 -7.0275
v 60.6912 6.0000 101.4470
v 0.0000 4.0157 -6.0235
v 155.9983 6.0000 83.9905
v 0.0000 3.2549 -6.0235
v 343.2478 6.0000 49.6938
v -0.0000 1.7647 -6.0235
v 92.8270 6.0000 198.9953
v 0.0000 4.0157 -5.0196
v 182.6044 6.0000 164.7532
v 0.0000 3.2549 -5.0196
v 358.9894 6.0000 97.4778
v -0.0000 1.7647 -5.0196
v 145.0128 6.0000 288.8964
v 0.0000 4.0157 -4.0157
v 225.8102 6.0000 239.1845
v 0.0000 3.2549 -4.0157
v 384.5526 6.0000 141.5158
v -0.0000 1.7647 -4.0157
v 215.2429 6.0000 367.6954
v 0.0000 4.0157 -3.0118
v 283.9554 6.0000 304.4242
v 0.0000 3.2549 -3.0118
v 418.9549 6.0000 180.1154
v -0.0000 1.7647 -3.0118
v 300.8185 6.0000 432.3640
v 0.0000 4.0157 -2.0078
v 354.8056 6.0000 357.9648
v 0.0000 3.2549 -2.0078
v 460.8739 6.0000 211.7933
v -0.0000 1.7647 -2.0078
v 398.4511 6.0000 480.4171
v 0.0000 4.0157 -1.0039
v 435.6381 6.0000 397.7491
v 0.0000 3.2549 -1.0039
v 508.6993 6.0000 235.3321
v -0.0000 1.7647 -1.0039
v 504.3886 6.0000 510.0082
v 0.0000 4.0157 0.0000
v 523.3463 6.0000 422.2484
v 0.0000 3.2549 0.0000
v 560.5926 6.0000 249.8272
v -0.0000 1.7647 0.0000
v 614.5599 6.0000 519.9998
v 0.0000 4.0157 1.0000
v 614.5599 6.0000 430.5207
v 0.0000 3.2549 1.0000
v 614.5600 6.0000 254.7216
v -0.0000 1.7647 1.0000
v 0.0000 0.0000 332.2002
v 6.0000 0.0001 591.7152
v 0.3700 0.0000 0.0000
v 0.0000 0.0000 1.0000
v 1.0000 1.0000 0.0000
v 0.0000 519.9999 6.4400
v -554.5600 0.0000 4.0157
v -15.0588 430.5208 6.4400
v -554.5600 0.0000 3.2549
v -15.0588 254.7216 6.4400
v -554.5600 -0.0000 1.7647
v -15.0588 510.0083 6.4400
v -444.3885 0.0000 4.0157
v -14.0549 422.2484 6.4400
v -463.3464 0.0000 3.2549
v -14.0549 249.8271 6.4400
v -500.5926 -0.0000 1.7647
v -14.0549 480.4172 6.4400
v -338.4510 0.0000 4.0157
v -13.0510 397.7493 6.4400
v -375.6380 0.0000 3.2549
v -13.0510 235.3320 6.4400
v -448.6992 -0.0000 1.7647
v -13.0510 432.3641 6.4400
v -240.8184 0.0000 4.0157
v -12.0471 357.9649 6.4400
v -294.8055 0.0000 3.2549
v -12.0471 211.7932 6.4400
v -400.8739 -0.0000 1.7647
v -12.0471 367.6954 6.4400
v -155.2427 0.0000 4.0157
v -11.0431 304.4241 6.4400
v -223.9554 0.0000 3.2549
v -11.0431 180.1153 6.4400
v -358.9547 -0.0000 1.7647
v -11.0431 288.8964 6.4400
v -85.0126 0.0000 4.0157
v -10.0392 239.1845 6.4400
v -165.8101 0.0000 3.2549
v -10.0392 141.5157 6.4400
v -324.5526 -0.0000 1.7647
v -10.0392 198.9953 6.4400
v -32.8269 0.0000 4.0157
v -9.0353 164.7532 6.4400
v -122.6044 0.0000 3.2549
v -9.0353 97.4777 6.4400
v -298.9894 -0.0000 1.7647
v -9.0353 101.4469 6.4400
v -0.6911 0.0000 4.0157
v -8.0314 83.9904 6.4400
v -95.9983 0.0000 3.2549
v -8.0314 49.6936 6.4400
v -283.2478 -0.0000 1.7647
v -8.0314 -0.0001 6.4400
v 10.1597 0.0000 4.0157
v -7.0275 -0.0000 6.4400
v -87.0145 0.0000 3.2549
v -7.0275 -0.0000 6.4400
v -277.9325 -0.0000 1.7647
v -7.0275 -101.4470 6.4400
v -0.6912 0.0000 4.0157
v -6.0235 -83.9904 6.4400
v -95.9983 0.0000 3.2549
v -6.0235 -49.6937 6.4400
v -283.2478 -0.0000 1.7647
v -6.0235 -198.9953 6.4400
v -32.8270 0.0000 4.0157
v -5.0196 -164.7532 6.4400
v -122.6045 0.0000 3.2549
v -5.0196 -97.4777 6.4400
v -298.9894 -0.0000 1.7647
v -5.0196 -288.8964 6.4400
v -85.0129 0.0000 4.0157
v -4.0157 -239.1845 6.4400
v -165.8102 0.0000 3.2549
v -4.0157 -141.5157 6.4400
v -324.5526 -0.0000 1.7647
v -4.0157 -367.6954 6.4400
v -155.2430 0.0000 4.0157
v -3.0118 -304.4241 6.4400
v -223.9555 0.0000 3.2549
v -3.0118 -180.1153 6.4400
v -358.9549 -0.0000 1.7647
v -3.0118 -432.3639 6.4400
v -240.8187 0.0000 4.0157
v -2.0078 -357.9648 6.4400
v -294.8057 0.0000 3.2549
v -2.0078 -211.7932 6.4400
v -400.8740 -0.0000 1.7647
v -2.0078 -480.4171 6.4400
v -338.4513 0.0000 4.0157
v -1.0039 -397.7491 6.4400
v -375.6382 0.0000 3.2549
v -1.0039 -235.3320 6.4400
v -448.6993 -0.0000 1.7647
v -1.0039 -510.0081 6.4400
v -444.3888 0.0000 4.0157
v 0.0000 -422.2483 6.4400
v -463.3464 0.0000 3.2549
v 0.0000 -249.8270 6.4400
v -500.5927 -0.0000 1.7647
v 0.0000 -519.9996 6.4400
v -554.5601 0.0000 4.0157
v 1.0000 -430.5206 6.4400
v -554.5601 0.0000 3.2549
v 1.0000 -254.7214 6.4400
v -554.5601 -0.0000 1.7647
v 1.0000 0.0000 0.0000
v 0.0001 6.4400 -272.2002
v 591.7152 0.0000 0.0000
v 0.0000 0.0600 0.0000
v 1.0000 1.0000 1.0000
v 0.0000 0.0000 519.9999
v 6.4200 549.5600 0.0000
v 4.0157 -15.0588 430.5208
v 6.4200 549.5600 0.0000
v 3.2549 -15.0588 254.7216
v 6.4200 549.5600 -0.0000
v 0.0000 -15.0588 510.0083
v 6.4200 439.3885 0.0000
v 4.0157 -14.0549 422.2484
v 6.4200 458.3464 0.0000
v 3.2549 -14.0549 249.8271
v 6.4200 495.5926 -0.0000
v 0.0000 -14.0549 480.4172
v 6.4200 333.4510 0.0000
v 4.0157 -13.0510 397.7493
v 6.4200 370.6380 0.0000
v 3.2549 -13.0510 235.3320
v 6.4200 443.6992 -0.0000
v 0.0000 -13.0510 432.3641
v 6.4200 235.8184 0.0000
v 4.0157 -12.0471 357.9649
v 6.4200 289.8055 0.0000
v 3.2549 -12.0471 211.7932
v 6.4200 395.8739 -0.0000
v 0.0000 -12.0471 367.6954
v 6.4200 150.2427 0.0000
v 4.0157 -11.0431 304.4241
v 6.4200 218.9554 0.0000
v 3.2549 -11.0431 180.1153
v 6.4200 353.9547 -0.0000
v 0.0000 -11.0431 288.8964
v 6.4200 80.0126 0.0000
v 4.0157 -10.0392 239.1845
v 6.4200 160.8101 0.0000
v 3.2549 -10.0392 141.5157
v 6.4200 319.5526 -0.0000
v 0.0000 -10.0392 198.9953
v 6.4200 27.8269 0.0000
v 4.0157 -9.0353 164.7532
v 6.4200 117.6044 0.0000
v 3.2549 -9.0353 97.4777
v 6.4200 293.9894 -0.0000
v 0.0000 -9.0353 101.4469
v 6.4200 -4.3089 0.0000
v 4.0157 -8.0314 83.9904
v 6.4200 90.9983 0.0000
v 3.2549 -8.0314 49.6936
v 6.4200 278.2478 -0.0000
v 0.0000 -8.0314 -0.0001
v 6.4200 -15.1597 0.0000
v 4.0157 -7.0275 -0.0000
v 6.4200 82.0145 0.0000
v 3.2549 -7.0275 -0.0000
v 6.4200 272.9325 -0.0000
v 0.0000 -7.0275 -101.4470
v 6.4200 -4.3088 0.0000
v 4.0157 -6.0235 -83.9904
v 6.4200 90.9983 0.0000
v 3.2549 -6.0235 -49.6937
v 6.4200 278.2478 -0.0000
v 0.0000 -6.0235 -198.9953
v 6.4200 27.8270 0.0000
v 4.0157 -5.0196 -164.7532
v 6.4200 117.6045 0.0000
v 3.2549 -5.0196 -97.4777
v 6.4200 293.9894 -0.0000
v 0.0000 -5.0196 -288.8964
v 6.4200 80.0129 0.0000
v 4.0157 -4.0157 -239.1845
v 6.4200 160.8102 0.0000
v 3.2549 -4.0157 -141.5157
v 6.4200 319.5526 -0.0000
v 0.0000 -4.0157 -367.6954
v 6.4200 150.2430 0.0000
v 4.0157 -3.0118 -304.4241
v 6.4200 218.9555 0.0000
v 3.2549 -3.0118 -180.1153
v 6.4200 353.9549 -0.0000
v 0.0000 -3.0118 -432.3639
v 6.4200 235.8187 0.0000
v 4.0157 -2.0078 -357.9648
v 6.4200 289.8057 0.0000
v 3.2549 -2.0078 -211.7932
v 6.4200 395.8740 -0.0000
v 0.0000 -2.0078 -480.4171
v 6.4200 333.4513 0.0000
v 4.0157 -1.0039 -397.7491
v 6.4200 370.6382 0.0000
v 3.2549 -1.0039 -235.3320
v 6.4200 443.6993 -0.0000
v 0.0000 -1.0039 -510.0081
v 6.4200 439.3888 0.0000
v 4.0157 0.0000 -422.2483
v 6.4200 458.3464 0.0000
v 3.2549 0.0000 -249.8270
v 6.4200 495.5927 -0.0000
v 0.0000 0.0000 -519.9996
v 6.4200 549.5601 0.0000
v 4.0157 1.0000 -430.5206
v 6.4200 549.5601 0.0000
v 3.2549 1.0000 -254.7214
v 6.4200 549.5601 -0.0000
v 0.0000 1.0000 0.0000
v 0.0000 0.0001 6.4200
v 267.2002 591.7152 0.0000
v 0.0000 0.0000 0.0700
v 0.0000 1.0000 1.0000
v 1.0000 0.0000 0.0000
v -599.5598 6.4600 -520.0000
v 0.0000 4.0157 -15.0588
v -599.5598 6.4600 -430.5209
v 0.0000 3.2549 -15.0588
v -599.5598 6.4600 -254.7217
v -0.0000 1.7647 -15.0588
v -489.3884 6.4600 -510.0084
v 0.0000 4.0157 -14.0549
v -508.3462 6.4600 -422.2486
v 0.0000 3.2549 -14.0549
v -545.5925 6.4600 -249.8272
v -0.0000 1.7647 -14.0549
v -383.4509 6.4600 -480.4173
v 0.0000 4.0157 -13.0510
v -420.6378 6.4600 -397.7494
v 0.0000 3.2549 -13.0510
v -493.6991 6.4600 -235.3321
v -0.0000 1.7647 -13.0510
v -285.8183 6.4600 -432.3641
v 0.0000 4.0157 -12.0471
v -339.8054 6.4600 -357.9650
v 0.0000 3.2549 -12.0471
v -445.8739 6.4600 -211.7933
v -0.0000 1.7647 -12.0471
v -200.2426 6.4600 -367.6954
v 0.0000 4.0157 -11.0431
v -268.9552 6.4600 -304.4242
v 0.0000 3.2549 -11.0431
v -403.9547 6.4600 -180.1154
v -0.0000 1.7647 -11.0431
v -130.0125 6.4600 -288.8964
v 0.0000 4.0157 -10.0392
v -210.8100 6.4600 -239.1845
v 0.0000 3.2549 -10.0392
v -369.5525 6.4600 -141.5158
v -0.0000 1.7647 -10.0392
v -77.8269 6.4600 -198.9953
v 0.0000 4.0157 -9.0353
v -167.6043 6.4600 -164.7532
v 0.0000 3.2549 -9.0353
v -343.9894 6.4600 -97.4778
v -0.0000 1.7647 -9.0353
v -45.6911 6.4600 -101.4469
v 0.0000 4.0157 -8.0314
v -140.9982 6.4600 -83.9904
v 0.0000 3.2549 -8.0314
v -328.2478 6.4600 -49.6937
v -0.0000 1.7647 -8.0314
v -34.8403 6.4600 0.0001
v 0.0000 4.0157 -7.0275
v -132.0145 6.4600 0.0000
v 0.0000 3.2549 -7.0275
v -322.9325 6.4600 -0.0000
v -0.0000 1.7647 -7.0275
v -45.6912 6.4600 101.4470
v 0.0000 4.0157 -6.0235
v -140.9983 6.4600 83.9904
v 0.0000 3.2549 -6.0235
v -328.2479 6.4600 49.6937
v -0.0000 1.7647 -6.0235
v -77.8271 6.4600 198.9953
v 0.0000 4.0157 -5.0196
v -167.6045 6.4600 164.7532
v 0.0000 3.2549 -5.0196
v -343.9894 6.4600 97.4776
v -0.0000 1.7647 -5.0196
v -130.0130 6.4600 288.8964
v 0.0000 4.0157 -4.0157
v -210.8103 6.4600 239.1845
v 0.0000 3.2549 -4.0157
v -369.5526 6.4600 141.5156
v -0.0000 1.7647 -4.0157
v -200.2431 6.4600 367.6954
v 0.0000 4.0157 -3.0118
v -268.9556 6.4600 304.4240
v 0.0000 3.2549 -3.0118
v -403.9549 6.4600 180.1152
v -0.0000 1.7647 -3.0118
v -285.8188 6.4600 432.3638
v 0.0000 4.0157 -2.0078
v -339.8058 6.4600 357.9647
v 0.0000 3.2549 -2.0078
v -445.8741 6.4600 211.7931
v -0.0000 1.7647 -2.0078
v -383.4514 6.4600 480.4170
v 0.0000 4.0157 -1.0039
v -420.6383 6.4600 397.7490
v 0.0000 3.2549 -1.0039
v -493.6994 6.4600 235.3319
v -0.0000 1.7647 -1.0039
v -489.3889 6.4600 510.0079
v 0.0000 4.0157 0.0000
v -508.3466 6.4600 422.2482
v 0.0000 3.2549 0.0000
v -545.5928 6.4600 249.8269
v -0.0000 1.7647 0.0000
v -599.5603 6.4600 519.9995
v 0.0000 4.0157 1.0000
v -599.5602 6.4600 430.5204
v 0.0000 3.2549 1.0000
v -599.5601 6.4600 254.7213
v -0.0000 1.7647 1.0000
v 0.0000 0.0000 -317.2003
v 6.4600 -0.0003 591.7153
v 0.0200 0.0000 0.0000
v 0.0000 0.0000 1.0000
v 1.0000 1.0000 0.0000
v -13.5882 0.0000 0.0000
v 0.0000 -390.8018 0.0000
v 1053.7667 0.0000 0.0000
v 1.0000 1.0000 1.0000
v 1.0000 0.0000 0.0000
v 0.0000 -25.9216 -84.6288
v 59.3266 724.9166 0.0000
v 0.0000 1.0000 1.0000
v 1.0000 0.0000 0.0000
v 0.0000 0.0000 -292.0000
v 0.0000 562.9609 0.0000
v 0.0000 1.0000 1.0000
v 1.0000 0.0000 0.0000
v 32.1255 -0.1765 0.0000
v 0.0000 0.0000 -117.0001
v 0.0001 928.1989 0.0000
v 0.0000 1.0000 1.0000
v 1.0000 0.0000 0.0000
v 0.0000 -0.0000 -330.0800
v 0.0001 248.2439 0.0000
v 0.0000 1.0000 1.0000
v 1.0000 0.0000 0.0000
v 0.5373 0.1216 0.0000
v 0.0000 0.0000 0.7500
v 0.0000 100.0078 0.0000
v 0.0000 1.0000 1.0000
v 1.0000 0.0000 0.0000
v 1.0000 0.0000 0.0000
v 0.0001 -50.5000 -0.0001
v 403.1750 0.0000 0.0000
v 1.0000 1.0000 1.0000
v 0.0000 1.0000 0.7500
v 103.6008 0.0000 0.0000
v 1.0000 1.0000 1.0000
v 0.0000 607.6330 182.7778
v -38.3334 -0.0000 0.0000
v -0.1294 572.0934 42.0000
v -39.3334 0.0000 0.0000
v -1.5373 639.8934 197.7778
v -38.3334 -0.0000 0.0000
v 0.2157 719.0000 214.7778
v -38.3334 -0.0000 0.0000
v 1.0000 549.5829 -0.7778
v -40.3334 0.0000 0.0000
v -2.0078 562.2896 5.6667
v -3.0000 0.0000 1.0039
v -2.0078 609.2166 178.6556
v 17.7280 -0.0000 1.0039
v -0.1765 579.4824 46.0000
v 12.7280 0.0000 1.0039
v -1.5412 719.0000 210.1556
v 24.7280 -0.0000 1.0039
v 1.0000 635.2823 197.6556
v 24.7280 -0.0000 1.0039
v -1.3725 551.0051 -0.5042
v -36.1549 0.0000 0.1098
v -1.5451 560.5281 5.3278
v -8.1753 0.0000 0.8667
v -0.0118 582.0934 68.0000
v 20.6666 0.0000 0.0000
v -0.0392 584.4824 72.0000
v 33.7280 0.0000 1.0039
v 1.0000 -478.5829 10.2222
v -6.3334 0.0000 1.0039
v -3.0118 -491.2896 8.6667
v 39.9999 0.0000 0.0000
v -0.3176 -484.9362 9.4444
v 16.8332 0.0000 0.5020
v -3.0118 30.0000 299.6666
v -720.0000 -0.0000 1.0039
v -2.4745 55.3333 -1.5555
v -443.0724 0.0000 1.0039
v -0.2980 -17.0000 295.0000
v -719.0000 -0.0000 1.0039
v 1.0000 -8.3333 291.8889
v -719.0000 -0.0000 0.6000
v -0.5333 -12.7280 66.6445
v -498.9719 -0.0000 0.0000
v -2.4353 2.0000 -1.6667
v -460.7791 0.0000 0.0000
v -1.0157 5.2720 85.0000
v -521.4824 -0.0000 0.0000
v -3.0118 5.2720 292.1556
v -718.0000 -0.0000 0.0000
v -1.4353 -21.7071 -4.5333
v -484.2155 0.0000 0.0000
v -3.0118 -24.3483 -6.0833
v -491.2904 0.0000 0.2980
v -3.0118 -36.5852 -6.2500
v -504.7366 0.0000 1.0039
v -3.0118 34.6667 -1.6111
v -445.4258 0.0000 0.0000
v -2.1529 21.3333 293.7778
v -720.0000 -0.0000 0.6118
v -0.4902 17.3333 85.0000
v -537.0934 -0.0000 0.5686
v 0.7765 18.3333 -1.6389
v -453.1024 0.0000 0.6706
v 1.0000 26.5000 -1.6250
v -449.2641 0.0000 1.0039
v -2.3922 28.5440 5.6667
v 483.6591 0.0000 0.0000
v -3.0118 12.3333 5.4444
v 489.0724 0.0000 0.5137
v -0.0824 -65.8262 -9.7111
v 470.4607 0.0000 1.0039
v -1.1961 -3.0000 5.3333
v 483.7791 0.0000 1.0039
v -3.0118 -78.4593 -9.7778
v 471.5354 0.0000 0.6863
v -2.0078 -97.8962 -10.0000
v 490.9824 0.0000 0.0000
v -1.3843 5.2720 85.0000
v -521.4824 -0.0000 0.0000
v -1.9804 0.0000 0.0000
v 0.0000 1.0000 147.3333
v 0.0000 737.5600 0.0000
v 0.0000 1.0000 1.0000
v 1.0000 0.0000 0.0000
v 0.0000 0.0000 -423.6496
v -0.4214 -220.5864 0.0000
v 1.0039 1.0000 -419.5128
v 0.5786 -238.7606 0.0000
v 0.0000 -1.6196 -494.7798
v 2.5786 -352.4265 0.0000
v 1.0039 1.0000 -420.2450
v 3.5786 -355.9722 0.0000
v 0.0000 1.0000 -482.6496
v 2.5786 -305.5864 0.0000
v 1.0039 1.0000 -474.5128
v 3.5786 -349.7605 0.0000
v 0.0000 1.0000 371.1262
v 2.5786 -369.4951 0.0000
v 1.0039 1.0000 411.3032
v 3.5786 -329.1512 0.0000
v 0.0000 1.0000 449.8855
v 2.5786 -326.0282 0.0000
v 1.0039 1.0000 412.6277
v 3.5786 -280.3205 0.0000
v 0.0000 1.0000 -255.3815
v -2.4214 440.8192 0.0000
v 1.0039 1.0000 -270.4868
v -1.4214 437.7109 0.0000
v 0.0000 -0.4549 -325.3815
v 2.5786 434.8192 0.0000
v 1.0039 -0.4627 -333.4868
v 3.5786 430.7109 0.0000
v 0.0000 -0.3569 -388.3815
v 2.5786 389.8192 0.0000
v 1.0039 -0.5529 -408.4868
v 3.5786 381.7109 0.0000
v 1.0039 1.0000 0.0000
v 0.0000 -21.3773 173.1773
v 92.4676 822.6890 0.0000
v 0.0000 1.0000 1.0000
v 1.0000 0.0000 0.0000
v 1.0039 0.0000 0.0000
v 0.0000 0.0000 10.5000
v 0.0000 6.8545 0.0000
v 0.0000 47.0000 0.0000
v -97.0000 0.0000 0.0000
v 0.0000 1.0000 1.0000
v 1.0000 0.0000 0.0000
v 10.5000 -0.0000 6.8545
v 0.0000 0.0000 -47.0000
v 0.0000 -97.0000 0.0000
v 0.0000 0.0000 1.0000
v 1.0000 1.0000 0.0000
v 0.0000 10.5000 -0.0000
v 6.8545 0.0000 0.0000
v -60.5045 0.0000 89.2032
v 1.0000 1.0000 1.0000
v 1.0039 0.0000 0.0000
v 0.0000 0.0000 10.5000
v 0.0000 6.8545 0.0000
v 0.0000 -107.5045 0.0000
v 7.7968 0.0000 0.0000
v 0.0000 1.0000 1.0000
v 1.0000 0.0000 0.0000
v 10.5000 -0.0000 6.8545
v 0.0000 0.0000 107.5045
v 0.0000 7.7968 0.0000
v 0.0000 0.0000 1.0000
v 1.0000 1.0000 0.0000
v 0.0000 10.5000 0.0000
v 6.8545 0.0000 0.0000
v 60.5045 0.0000 89.2032
v 1.0000 1.0000 1.0000
v 0.7098 0.0745 0.0000
v 0.0000 0.0000 10.7500
v -3.9567 114.3591 0.0000
v 0.0000 1.0000 1.0000
v 1.0000 0.0000 0.0000
vn 0.0000 1.0000 0.0000
vn 0.0000 1.0000 0.0000
vn 0.0000 1.0000 0.0000
vn 0.0000 1.0000 0.0000
vn 0.0000 1.0000 0.0000
vn 0.0000 1.0000 0.0000
vn 0.0000 1.0000 0.0000
vn 0.0000 1.0000 0.0000
vn 0.0000 1.0000 0.0000
vn 0.0000 1.0000 0.0000
vn 0.0000 1.0000 0.0000
vn 0.0000 1.0000 0.0000
vn 0.0000 1.0000 0.0000
vn 0.0000 1.0000 0.0000
vn 0.0000 1.0000 0.0000
vn 0.0000 1.0000 0.0000
vn 0.0000 1.0000 0.0000
vn 0.0000 1.0000 0.0000
vn 0.0000 1.0000 0.0000
vn 0.0000 1.0000 0.0000
vn 0.0000 1.0000 0.0000
vn 0.0000 1.0000 0.0000
vn 0.0000 1.0000 0.0000
vn 0.0000 1.0000 0.0000
vn 0.0000 1.0000 0.0000
vn 0.0000 1.0000 0.0000
vn 0.0000 1.0000 0.0000
vn 0.0000 1.0000 0.0000
vn 0.0000 1.0000 0.0000
vn 0.0000 1.0000 0.0000
vn 0.0000 1.0000 0.0000
vn 0.0000 1.0000 0.0000
vn 0.0000 1.0000 0.0000
vn 0.0000 1.0000 0.0000
vn 0.0000 1.0000 0.0000
vn 0.0000 1.0000 0.0000
vn 0.0000 1.0000 0.0000
vn 0.0000 1.0000 0.0000
vn 0.0000 1.0000 0.0000
vn 0.0000 1.0000 0.0000
vn 0.0000 1.0000 0.0000
vn 0.0000 1.0000 0.0000
vn 0.0000 1.0000 0.0000
vn 0.0000 1.0000 0.0000
vn 0.0000 1.0000 0.0000
vn 0.0000 1.0000 0.0000
vn 0.0000 1.0000 0.0000
vn 0.0000 1.0000 0.0000
vn 0.0000 1.0000 0.0000
vn 0.0000 1.0000 0.0000
vn 0.0000 1.0000 0.0000
vn 0.0000 1.0000 0.0000
vn 0.0000 1.0000 0.0000
vn 0.0000 1.0000 0.0000
vn 0.0000 1.0000 0.0000
vn 0.0000 1.0000 0.0000
vn 0.0000 1.0000 0.0000
vn 0.0000 1.0000 0.0000
vn 0.0000 1.0000 0.0000
vn 0.0000 1.0000 0.0000
vn 0.0000 1.0000 0.0000
vn 0.0000 1.0000 0.0000
vn 0.0000 1.0000 0.0000
vn 0.0000 1.0000 0.0000
vn 0.0000 1.0000 0.0000
vn 0.0000 1.0000 0.0000
vn 0.0000 1.0000 0.0000
vn 0.0000 1.0000 0.0000
vn 0.0000 1.0000 0.0000
vn 0.0000 1.0000 0.0000
vn 0.0000 1.0000 0.0000
vn 0.0000 1.0000 0.0000
vn 0.0000 1.0000 0.0000
vn 0.0000 1.0000 0.0000
vn 0.0000 1.0000 0.0000
vn 0.0000 1.0000 0.0000
vn 0.0000 1.0000 0.0000
vn 0.0000 1.0000 0.0000
vn 0.0000 1.0000 0.0000
vn 0.0000 1.0000 0.0000
vn 0.0000 1.0000 0.0000
vn 0.0000 1.0000 0.0000
vn 0.0000 1.0000 0.0000
vn 0.0000 1.0000 0.0000
vn 0.0000 1.0000 0.0000
vn 0.0000 1.0000 0.0000
vn 0.0000 1.0000 0.0000
vn 0.0000 1.0000 0.0000
vn 0.0000 1.0000 0.0000
vn 0.0000 1.0000 0.0000
vn 0.0000 1.0000 0.0000
vn 0.0000 1.0000 0.0000
vn 0.0000 1.0000 0.0000
vn 0.0000 1.0000 0.0000
vn 0.0000 1.0000 0.0000
vn 0.0000 1.0000 0.0000
vn 0.0000 1.0000 0.0000
vn 0.0000 1.0000 0.0000
vn 0.0000 1.0000 0.0000
vn 0.0000 1.0000 0.0000
vn 0.0000 1.0000 0.0000
vn 0.0000 1.0000 0.0000
vn 0.0000 1.0000 0.0000
vn 0.0000 1.0000 0.0000
vn 0.0000 1.0000 0.0000
vn 0.0000 1.0000 0.0000
vn 0.0000 1.0000 0.0000
vn 0.0000 1.0000 0.0000
vn 0.0000 1.0000 0.0000
vn 0.0000 1.0000 0.0000
vn 0.0000 1.0000 0.0000
vn 0.0000 1.0000 0.0000
vn 0.0000 1.0000 0.0000
vn 0.0000 1.0000 0.0000
vn 0.0000 1.0000 0.0000
vn 0.0000 1.0000 0.0000
vn 0.0000 1.0000 0.0000
vn 0.0000 1.0000 0.0000
vn 0.0000 1.0000 0.0000
vn 0.0000 1.0000 0.0000
vn 0.0000 1.0000 0.0000
vn 0.0000 1.0000 0.0000
vn 0.0000 1.0000 0.0000
vn 0.0000 1.0000 0.0000
vn 0.0000 1.0000 0.0000
vn 0.0000 1.0000 0.0000
vn 0.0000 1.0000 0.0000
vn 0.0000 1.0000 0.0000
vn 0.0000 1.0000 0.0000
vn 0.0000 1.0000 0.0000
vn 0.0000 1.0000 0.0000
vn 0.0000 1.0000 0.0000
vn 0.0000 1.0000 0.0000
vn 0.0000 1.0000 0.0000
vn 0.0000 1.0000 0.0000
vn 0.0000 1.0000 0.0000
vn 0.0000 1.0000 0.0000
vn 0.0000 1.0000 0.0000
vn 0.0000 1.0000 0.0000
vn 0.0000 1.0000 0.0000
vn 0.0000 1.0000 0.0000
vn 0.0000 1.0000 0.0000
vn 0.0000 1.0000 0.0000
vn 0.0000 1.0000 0.0000
vn 0.0000 1.0000 0.0000
vn 0.0000 1.0000 0.0000
vn 0.0000 1.0000 0.0000
vn 0.0000 1.0000 0.0000
vn 0.0000 1.0000 0.0000
vn 0.0000 1.0000 0.0000
vn 0.0000 1.0000 0.0000
vn 0.0000 1.0000 0.0000
vn 0.0000 1.0000 0.0000
vn 0.0000 1.0000 0.0000
vn 0.0000 1.0000 0.0000
vn 0.0000 1.0000 0.0000
vn 0.0000 1.0000 0.0000
vn 0.0000 1.0000 0.0000
vn 0.0000 1.0000 0.0000
vn 0.0000 1.0000 0.0000
vn 0.0000 1.0000 0.0000
vn 0.0000 1.0000 0.0000
vn 0.0000 1.0000 0.0000
vn 0.0000 1.0000 0.0000
vn 0.0000 1.0000 0.0000
vn 0.0000 1.0000 0.0000
vn 0.0000 1.0000 0.0000
vn 0.0000 1.0000 0.0000
vn 0.0000 1.0000 0.0000
vn 0.0000 1.0000 0.0000
vn 0.0000 1.0000 0.0000
vn 0.0000 1.0000 0.0000
vn 0.0000 1.0000 0.0000
vn 0.0000 1.0000 0.0000
vn 0.0000 1.0000 0.0000
vn 0.0000 1.0000 0.0000
vn 0.0000 1.0000 0.0000
vn 0.0000 1.0000 0.0000
vn 0.0000 1.0000 0.0000
vn 0.0000 1.0000 0.0000
vn 0.0000 1.0000 0.0000
vn 0.0000 1.0000 0.0000
vn 0.0000 1.0000 0.0000
vn 0.0000 1.0000 0.0000
vn 0.0000 1.0000 0.0000
vn 0.0000 1.0000 0.0000
vn 0.0000 1.0000 0.0000
vn 0.0000 1.0000 0.0000
vn 0.0000 1.0000 0.0000
vn 0.0000 1.0000 0.0000
vn 0.0000 1.0000 0.0000
vn 0.0000 1.0000 0.0000
vn 0.0000 1.0000 0.0000
vn 0.0000 1.0000 0.0000
vn 0.0000 1.0000 0.0000
vn 0.0000 1.0000 0.0000
vn 0.0000 1.0000 0.0000
vn 0.0000 1.0000 0.0000
vn 0.0000 1.0000 0.0000
vn 0.0000 1.0000 0.0000
vn 0.0000 1.0000 0.0000
vn 0.0000 1.0000 0.0000
vn 0.0000 1.0000 0.0000
vn 0.0000 1.0000 0.0000
vn 0.0000 1.0000 0.0000
vn 0.0000 1.0000 0.0000
vn 0.0000 1.0000 0.0000
vn 0.0000 1.0000 0.0000
vn 0.0000 1.0000 0.0000
vn 0.0000 1.0000 0.0000
vn 0.0000 1.0000 0.0000
vn 0.0000 1.0000 0.0000
vn 0.0000 1.0000 0.0000
vn 0.0000 1.0000 0.0000
vn 0.0000 1.0000 0.0000
vn 0.0000 1.0000 0.0000
vn 0.0000 1.0000 0.0000
vn 0.0000 1.0000 0.0000
vn 0.0000 1.0000 0.0000
vn 0.0000 1.0000 0.0000
vn 0.0000 1.0000 0.0000
vn 0.0000 1.0000 0.0000
vn 0.0000 1.0000 0.0000
vn 0.0000 1.0000 0.0000
vn 0.0000 1.0000 0.0000
vn 0.0000 1.0000 0.0000
vn 0.0000 1.0000 0.0000
vn 0.0000 1.0000 0.0000
vn 0.0000 1.0000 0.0000
vn 0.0000 1.0000 0.0000
vn 0.0000 1.0000 0.0000
vn 0.0000 1.0000 0.0000
vn 0.0000 1.0000 0.0000
vn 0.0000 1.0000 0.0000
vn 0.0000 1.0000 0.0000
vn 0.0000 1.0000 0.0000
vn 0.0000 1.0000 0.0000
vn 0.0000 1.0000 0.0000
vn 0.0000 1.0000 0.0000
vn 0.0000 1.0000 0.0000
vn 0.0000 1.0000 0.0000
vn 0.0000 1.0000 0.0000
vn 0.0000 1.0000 0.0000
vn 0.0000 1.0000 0.0000
vn 0.0000 1.0000 0.0000
vn 0.0000 1.0000 0.0000
vn 0.0000 1.0000 0.0000
vn 0.0000 1.0000 0.0000
vn 0.0000 1.0000 0.0000
vn 0.0000 1.0000 0.0000
vn 0.0000 1.0000 0.0000
vn 0.0000 1.0000 0.0000
vn 0.0000 1.0000 0.0000
vn 0.0000 1.0000 0.0000
vn 0.0000 1.0000 0.0000
vn 0.0000 1.0000 0.0000
vn 0.0000 1.0000 0.0000
vn 0.0000 1.0000 0.0000
vn 0.0000 1.0000 0.0000
vn 0.0000 1.0000 0.0000
vn 0.0000 1.0000 0.0000
vn 0.0000 1.0000 0.0000
vn 0.0000 1.0000 0.0000
vn 0.0000 1.0000 0.0000
vn 0.0000 1.0000 0.0000
vn 0.0000 1.0000 0.0000
vn 0.0000 1.0000 0.0000
vn 0.0000 1.0000 0.0000
vn 0.0000 1.0000 0.0000
vn 0.0000 1.0000 0.0000
vn 0.0000 1.0000 0.0000
vn 0.0000 1.0000 0.0000
vn 0.0000 1.0000 0.0000
vn 0.0000 1.0000 0.0000
vn 0.0000 1.0000 0.0000
vn 0.0000 1.0000 0.0000
vn 0.0000 1.0000 0.0000
vn 0.0000 1.0000 0.0000
vn 0.0000 1.0000 0.0000
vn 0.0000 1.0000 0.0000
vn 0.0000 1.0000 0.0000
vn 0.0000 1.0000 0.0000
vn 0.0000 1.0000 0.0000
vn 0.0000 1.0000 0.0000
vn 0.0000 1.0000 0.0000
vn 0.0000 1.0000 0.0000
vn 0.0000 1.0000 0.0000
vn 0.0000 1.0000 0.0000
vn 0.0000 1.0000 0.0000
vn 0.0000 1.0000 0.0000
vn 0.0000 1.0000 0.0000
vn 0.0000 1.0000 0.0000
vn 0.0000 1.0000 0.0000
vn 0.0000 1.0000 0.0000
vn 0.0000 1.0000 0.0000
vn 0.0000 1.0000 0.0000
vn 0.0000 1.0000 0.0000
vn 0.0000 1.0000 0.0000
vn 0.0000 1.0000 0.0000
vn 0.0000 1.0000 0.0000
vn 0.0000 1.0000 0.0000
vn 0.0000 1.0000 0.0000
vn 0.0000 1.0000 0.0000
vn 0.0000 1.0000 0.0000
vn 0.0000 1.0000 0.0000
vn 0.0000 1.0000 0.0000
vn 0.0000 1.0000 0.0000
vn 0.0000 1.0000 0.0000
vn 0.0000 1.0000 0.0000
vn 0.0000 1.0000 0.0000
vn 0.0000 1.0000 0.0000
vn 0.0000 1.0000 0.0000
vn 0.0000 1.0000 0.0000
vn 0.0000 1.0000 0.0000
vn 0.0000 1.0000 0.0000
vn 0.0000 1.0000 0.0000
vn 0.0000 1.0000 0.0000
vn 0.0000 1.0000 0.0000
vn 0.0000 1.0000 0.0000
vn 0.0000 1.0000 0.0000
vn 0.0000 1.0000 0.0000
vn 0.0000 1.0000 0.0000
vn 0.0000 1.0000 0.0000
vn 0.0000 1.0000 0.0000
vn 0.0000 1.0000 0.0000
vn 0.0000 1.0000 0.0000
vn 0.0000 1.0000 0.0000
vn 0.0000 1.0000 0.0000
vn 0.0000 1.0000 0.0000
vn 0.0000 1.0000 0.0000
vn 0.0000 1.0000 0.0000
vn 0.0000 1.0000 0.0000
vn 0.0000 1.0000 0.0000
vn 0.0000 1.0000 0.0000
vn 0.0000 1.0000 0.0000
vn 0.0000 1.0000 0.0000
vn 0.0000 1.0000 0.0000
vn 0.0000 1.0000 0.0000
vn 0.0000 1.0000 0.0000
vn 0.0000 1.0000 0.0000
vn 0.0000 1.0000 0.0000
vn 0.0000 1.0000 0.0000
vn 0.0000 1.0000 0.0000
vn 0.0000 1.0000 0.0000
vn 0.0000 1.0000 0.0000
vn 0.0000 1.0000 0.0000
vn 0.0000 1.0000 0.0000
vn 0.0000 1.0000 0.0000
vn 0.0000 1.0000 0.0000
vn 0.0000 1.0000 0.0000
vn 0.0000 1.0000 0.0000
vn 0.0000 1.0000 0.0000
vn 0.0000 1.0000 0.0000
vn 0.0000 1.0000 0.0000
vn 0.0000 1.0000 0.0000
vn 0.0000 1.0000 0.0000
vn 0.0000 1.0000 0.0000
vn 0.0000 1.0000 0.0000
vn 0.0000 1.0000 0.0000
vn 0.0000 1.0000 0.0000
vn 0.0000 1.0000 0.0000
vn 0.0000 1.0000 0.0000
vn 0.0000 1.0000 0.0000
vn 0.0000 1.0000 0.0000
vn 0.0000 1.0000 0.0000
vn 0.0000 1.0000 0.0000
vn 0.0000 1.0000 0.0000
vn 0.0000 1.0000 0.0000
vn 0.0000 1.0000 0.0000
vn 0.0000 1.0000 0.0000
vn 0.0000 1.0000 0.0000
vn 0.0000 1.0000 0.0000
vn 0.0000 1.0000 0.0000
vn 0.0000 1.0000 0.0000
vn 0.0000 1.0000 0.0000
vn 0.0000 1.0000 0.0000
vn 0.0000 1.0000 0.0000
vn 0.0000 1.0000 0.0000
vn 0.0000 1.0000 0.0000
vn 0.0000 1.0000 0.0000
vn 0.0000 1.0000 0.0000
vn 0.0000 1.0000 0.0000
vn 0.0000 1.0000 0.0000
vn 0.0000 1.0000 0.0000
vn 0.0000 1.0000 0.0000
vn 0.0000 1.0000 0.0000
vn 0.0000 1.0000 0.0000
vn 0.0000 1.0000 0.0000
vn 0.0000 1.0000 0.0000
vn 0.0000 1.0000 0.0000
vn 0.0000 1.0000 0.0000
vn 0.0000 1.0000 0.0000
vn 0.0000 1.0000 0.0000
vn 0.0000 1.0000 0.0000
vn 0.0000 1.0000 0.0000
vn 0.0000 1.0000 0.0000
vn 0.0000 1.0000 0.0000
vn 0.0000 1.0000 0.0000
vn 0.0000 1.0000 0.0000
vn 0.0000 1.0000 0.0000
vn 0.0000 1.0000 0.0000
vn 0.0000 1.0000 0.0000
vn 0.0000 1.0000 0.0000
vn 0.0000 1.0000 0.0000
vn 0.0000 1.0000 0.0000
vn 0.0000 1.0000 0.0000
vn 0.0000 1.0000 0.0000
vn 0.0000 1.0000 0.0000
vn 0.0000 1.0000 0.0000
vn 0.0000 1.0000 0.0000
vn 0.0000 1.0000 0.0000
vn 0.0000 1.0000 0.0000
vn 0.0000 1.0000 0.0000
vn 0.0000 1.0000 0.0000
vn 0.0000 1.0000 0.0000
vn 0.0000 1.0000 0.0000
vn 0.0000 1.0000 0.0000
vn 0.0000 1.0000 0.0000
vn 0.0000 1.0000 0.0000
vn 0.0000 1.0000 0.0000
vn 0.0000 1.0000 0.0000
vn 0.0000 1.0000 0.0000
vn 0.0000 1.0000 0.0000
vn 0.0000 1.0000 0.0000
vn 0.0000 1.0000 0.0000
vn 0.0000 1.0000 0.0000
vn 0.0000 1.0000 0.0000
vn 0.0000 1.0000 0.0000
vn 0.0000 1.0000 0.0000
vn 0.0000 1.0000 0.0000
vn 0.0000 1.0000 0.0000
vn 0.0000 1.0000 0.0000
vn 0.0000 1.0000 0.0000
vn 0.0000 1.0000 0.0000
vn 0.0000 1.0000 0.0000
vn 0.0000 1.0000 0.0000
vn 0.0000 1.0000 0.0000
vn 0.0000 1.0000 0.0000
vn 0.0000 1.0000 0.0000
vn 0.0000 1.0000 0.0000
vn 0.0000 1.0000 0.0000
vn 0.0000 1.0000 0.0000
vn 0.0000 1.0000 0.0000
vn 0.0000 1.0000 0.0000
vn 0.0000 1.0000 0.0000
vn 0.0000 1.0000 0.0000
vn 0.0000 1.0000 0.0000
vn 0.0000 1.0000 0.0000
vn 0.0000 1.0000 0.0000
vn 0.0000 1.0000 0.0000
vn 0.0000 1.0000 0.0000
vn 0.0000 1.0000 0.0000
vn 0.0000 1.0000 0.0000
vn 0.0000 1.0000 0.0000
vn 0.0000 1.0000 0.0000
vn 0.0000 1.0000 0.0000
vn 0.0000 1.0000 0.0000
vn 0.0000 1.0000 0.0000
vn 0.0000 1.0000 0.0000
vn 0.0000 1.0000 0.0000
vn 0.0000 1.0000 0.0000
vn 0.0000 1.0000 0.0000
vn 0.0000 1.0000 0.0000
vn 0.0000 1.0000 0.0000
vn 0.0000 1.0000 0.0000
vn 0.0000 1.0000 0.0000
vn 0.0000 1.0000 0.0000
vn 0.0000 1.0000 0.0000
vn 0.0000 1.0000 0.0000
vn 0.0000 1.0000 0.0000
vn 0.0000 1.0000 0.0000
vn 0.0000 1.0000 0.0000
vn 0.0000 1.0000 0.0000
vn 0.0000 1.0000 0.0000
vn 0.0000 1.0000 0.0000
vn 0.0000 1.0000 0.0000
vn 0.0000 1.0000 0.0000
vn 0.0000 1.0000 0.0000
vn 0.0000 1.0000 0.0000
vn 0.0000 1.0000 0.0000
vn 0.0000 1.0000 0.0000
vn 0.0000 1.0000 0.0000
vn 0.0000 1.0000 0.0000
vn 0.0000 1.0000 0.0000
vn 0.0000 1.0000 0.0000
vn 0.0000 1.0000 0.0000
vn 0.0000 1.0000 0.0000
vn 0.0000 1.0000 0.0000
vn 0.0000 1.0000 0.0000
vn 0.0000 1.0000 0.0000
vn 0.0000 1.0000 0.0000
vn 0.0000 1.0000 0.0000
vn 0.0000 1.0000 0.0000
vn 0.0000 1.0000 0.0000
vn 0.0000 1.0000 0.0000
vn 0.0000 1.0000 0.0000
vn 0.0000 1.0000 0.0000
vn 0.0000 1.0000 0.0000
vn 0.0000 1.0000 0.0000
vn 0.0000 1.0000 0.0000
vn 0.0000 1.0000 0.0000
vn 0.0000 1.0000 0.0000
vn 0.0000 1.0000 0.0000
vn 0.0000 1.0000 0.0000
vn 0.0000 1.0000 0.0000
vn 0.0000 1.0000 0.0000
vn 0.0000 1.0000 0.0000
vn 0.0000 1.0000 0.0000
vn 0.0000 1.0000 0.0000
vn 0.0000 1.0000 0.0000
vn 0.0000 1.0000 0.0000
vn 0.0000 1.0000 0.0000
vn 0.0000 1.0000 0.0000
vn 0.0000 1.0000 0.0000
vn 0.0000 1.0000 0.0000
vn 0.0000 1.0000 0.0000
vn 0.0000 1.0000 0.0000
vn 0.0000 1.0000 0.0000
vn 0.0000 1.0000 0.0000
vn 0.0000 1.0000 0.0000
vn 0.0000 1.0000 0.0000
vn 0.0000 1.0000 0.0000
vn 0.0000 1.0000 0.0000
vn 0.0000 1.0000 0.0000
vn 0.0000 1.0000 0.0000
vn 0.0000 1.0000 0.0000
vn 0.0000 1.0000 0.0000
vn 0.0000 1.0000 0.0000
vn 0.0000 1.0000 0.0000
vn 0.0000 1.0000 0.0000
vn 0.0000 1.0000 0.0000
vn 0.0000 1.0000 0.0000
vn 0.0000 1.0000 0.0000
vn 0.0000 1.0000 0.0000
vn 0.0000 1.0000 0.0000
vn 0.0000 1.0000 0.0000
vn 0.0000 1.0000 0.0000
vn 0.0000 1.0000 0.0000
vn 0.0000 1.0000 0.0000
vn 0.0000 1.0000 0.0000
vn 0.0000 1.0000 0.0000
vn 0.0000 1.0000 0.0000
vn 0.0000 1.0000 0.0000
vn 0.0000 1.0000 0.0000
vn 0.0000 1.0000 0.0000
vn 0.0000 1.0000 0.0000
vn 0.0000 1.0000 0.0000
vn 0.0000 1.0000 0.0000
vn 0.0000 1.0000 0.0000
vn 0.0000 1.0000 0.0000
vn 0.0000 1.0000 0.0000
vn 0.0000 1.0000 0.0000
vn 0.0000 1.0000 0.0000
vn 0.0000 1.0000 0.0000
vn 0.0000 1.0000 0.0000
vn 0.0000 1.0000 0.0000
vn 0.0000 1.0000 0.0000
vn 0.0000 1.0000 0.0000
vn 0.0000 1.0000 0.0000
vn 0.0000 1.0000 0.0000
vn 0.0000 1.0000 0.0000
vn 0.0000 1.0000 0.0000
vn 0.0000 1.0000 0.0000
vn 0.0000 1.0000 0.0000
vn 0.0000 1.0000 0.0000
vn 0.0000 1.0000 0.0000
vn 0.0000 1.0000 0.0000
vn 0.0000 1.0000 0.0000
vn 0.0000 1.0000 0.0000
vn 0.0000 1.0000 0.0000
vn 0.0000 1.0000 0.0000
vn 0.0000 1.0000 0.0000
vn 0.0000 1.0000 0.0000
vn 0.0000 1.0000 0.0000
vn 0.0000 1.0000 0.0000
vn 0.0000 1.0000 0.0000
vn 0.0000 1.0000 0.0000
vn 0.0000 1.0000 0.0000
vn 0.0000 1.0000 0.0000
vn 0.0000 1.0000 0.0000
vn 0.0000 1.0000 0.0000
vn 0.0000 1.0000 0.0000
vn 0.0000 1.0000 0.0000
vn 0.0000 1.0000 0.0000
vn 0.0000 1.0000 0.0000
vn 0.0000 1.0000 0.0000
vn 0.0000 1.0000 0.0000
vn 0.0000 1.0000 0.0000
vn 0.0000 1.0000 0.0000
vn 0.0000 1.0000 0.0000
vn 0.0000 1.0000 0.0000
vn 0.0000 1.0000 0.0000
vn 0.0000 1.0000 0.0000
vn 0.0000 1.0000 0.0000
vn 0.0000 1.0000 0.0000
vn 0.0000 1.0000 0.0000
vn 0.0000 1.0000 0.0000
vn 0.0000 1.0000 0.0000
vn 0.0000 1.0000 0.0000
vn 0.0000 1.0000 0.0000
vn 0.0000 1.0000 0.0000
vn 0.0000 1.0000 0.0000
vn 0.0000 1.0000 0.0000
vn 0.0000 1.0000 0.0000
vn 0.0000 1.0000 0.0000
vn 0.0000 1.0000 0.0000
vn 0.0000 1.0000 0.0000
vn 0.0000 1.0000 0.0000
vn 0.0000 1.0000 0.0000
vn 0.0000 1.0000 0.0000
vn 0.0000 1.0000 0.0000
vn 0.0000 1.0000 0.0000
vn 0.0000 1.0000 0.0000
vn 0.0000 1.0000 0.0000
vn 0.0000 1.0000 0.0000
vn 0.0000 1.0000 0.0000
vn 0.0000 1.0000 0.0000
vn 0.0000 1.0000 0.0000
vn 0.0000 1.0000 0.0000
vn 0.0000 1.0000 0.0000
vn 0.0000 1.0000 0.0000
vn 0.0000 1.0000 0.0000
vn 0.0000 1.0000 0.0000
vn 0.0000 1.0000 0.0000
vn 0.0000 1.0000 0.0000
vn 0.0000 1.0000 0.0000
vn 0.0000 1.0000 0.0000
vn 0.0000 1.0000 0.0000
vn 0.0000 1.0000 0.0000
vn 0.0000 1.0000 0.0000
vn 0.0000 1.0000 0.0000
vn 0.0000 1.0000 0.0000
vn 0.0000 1.0000 0.0000
vn 0.0000 1.0000 0.0000
vn 0.0000 1.0000 0.0000
vn 0.0000 1.0000 0.0000
vn 0.0000 1.0000 0.0000
vn 0.0000 1.0000 0.0000
vn 0.0000 1.0000 0.0000
vn 0.0000 1.0000 0.0000
vn 0.0000 1.0000 0.0000
vn 0.0000 1.0000 0.0000
vn 0.0000 1.0000 0.0000
vn 0.0000 1.0000 0.0000
vn 0.0000 1.0000 0.0000
vn 0.0000 1.0000 0.0000
vn 0.0000 1.0000 0.0000
vn 0.0000 1.0000 0.0000
vn 0.0000 1.0000 0.0000
vn 0.0000 1.0000 0.0000
vn 0.0000 1.0000 0.0000
vn 0.0000 1.0000 0.0000
vn 0.0000 1.0000 0.0000
vn 0.0000 1.0000 0.0000
vn 0.0000 1.0000 0.0000
vn 0.0000 1.0000 0.0000
vn 0.0000 1.0000 0.0000
vn 0.0000 1.0000 0.0000
vn 0.0000 1.0000 0.0000
vn 0.0000 1.0000 0.0000
vn 0.0000 1.0000 0.0000
vn 0.0000 1.0000 0.0000
vn 0.0000 1.0000 0.0000
vn 0.0000 1.0000 0.0000
vn 0.0000 1.0000 0.0000
vn 0.0000 1.0000 0.0000
vn 0.0000 1.0000 0.0000
vn 0.0000 1.0000 0.0000
vn 0.0000 1.0000 0.0000
vn 0.0000 1.0000 0.0000
vn 0.0000 1.0000 0.0000
vn 0.0000 1.0000 0.0000
vn 0.0000 1.0000 0.0000
vn 0.0000 1.0000 0.0000
vn 0.0000 1.0000 0.0000
vn 0.0000 1.0000 0.0000
vn 0.0000 1.0000 0.0000
vn 0.0000 1.0000 0.0000
vn 0.0000 1.0000 0.0000
vn 0.0000 1.0000 0.0000
vn 0.0000 1.0000 0.0000
vn 0.0000 1.0000 0.0000
vn 0.0000 1.0000 0.0000
vn 0.0000 1.0000 0.0000
vn 0.0000 1.0000 0.0000
vn 0.0000 1.0000 0.0000
vn 0.0000 1.0000 0.0000
vn 0.0000 1.0000 0.0000
vn 0.0000 1.0000 0.0000
vn 0.0000 1.0000 0.0000
vn 0.0000 1.0000 0.0000
vn 0.0000 1.0000 0.0000
vn 0.0000 1.0000 0.0000
vn 0.0000 1.0000 0.0000
vn 0.0000 1.0000 0.0000
vn 0.0000 1.0000 0.0000
vn 0.0000 1.0000 0.0000
vn 0.0000 1.0000 0.0000
vn 0.0000 1.0000 0.0000
vn 0.0000 1.0000 0.0000
vn 0.0000 1.0000 0.0000
vn 0.0000 1.0000 0.0000
vn 0.0000 1.0000 0.0000
vn 0.0000 1.0000 0.0000
vn 0.0000 1.0000 0.0000
vn 0.0000 1.0000 0.0000
vn 0.0000 1.0000 0.0000
vn 0.0000 1.0000 0.0000
vn 0.0000 1.0000 0.0000
vn 0.0000 1.0000 0.0000
vn 0.0000 1.0000 0.0000
vn 0.0000 1.0000 0.0000
vn 0.0000 1.0000 0.0000
vn 0.0000 1.0000 0.0000
vn 0.0000 1.0000 0.0000
vn 0.0000 1.0000 0.0000
vn 0.0000 1.0000 0.0000
vn 0.0000 1.0000 0.0000
vn 0.0000 1.0000 0.0000
vn 0.0000 1.0000 0.0000
vn 0.0000 1.0000 0.0000
vn 0.0000 1.0000 0.0000
vn 0.0000 1.0000 0.0000
vn 0.0000 1.0000 0.0000
vn 0.0000 1.0000 0.0000
vn 0.0000 1.0000 0.0000
vn 0.0000 1.0000 0.0000
vn 0.0000 1.0000 0.0000
vn 0.0000 1.0000 0.0000
vn 0.0000 1.0000 0.0000
vn 0.0000 1.0000 0.0000
vn 0.0000 1.0000 0.0000
vn 0.0000 1.0000 0.0000
vn 0.0000 1.0000 0.0000
vn 0.0000 1.0000 0.0000
vn 0.0000 1.0000 0.0000
vn 0.0000 1.0000 0.0000
vn 0.0000 1.0000 0.0000
vn 0.0000 1.0000 0.0000
vn 0.0000 1.0000 0.0000
vn 0.0000 1.0000 0.0000
vn 0.0000 1.0000 0.0000
vn 0.0000 1.0000 0.0000
vn 0.0000 1.0000 0.0000
vn 0.0000 1.0000 0.0000
vn 0.0000 1.0000 0.0000
vn 0.0000 1.0000 0.0000
vn 0.0000 1.0000 0.0000
vn 0.0000 1.0000 0.0000
vn 0.0000 1.0000 0.0000
vn 0.0000 1.0000 0.0000
vn 0.0000 1.0000 0.0000
vn 0.0000 1.0000 0.0000
vn 0.0000 1.0000 0.0000
vn 0.0000 1.0000 0.0000
vn 0.0000 1.0000 0.0000
vn 0.0000 1.0000 0.0000
vn 0.0000 1.0000 0.0000
vn 0.0000 1.0000 0.0000
vn 0.0000 1.0000 0.0000
vn 0.0000 1.0000 0.0000
vn 0.0000 1.0000 0.0000
vn 0.0000 1.0000 0.0000
vn 0.0000 1.0000 0.0000
vn 0.0000 1.0000 0.0000
vn 0.0000 1.0000 0.0000
vn 0.0000 1.0000 0.0000
vn 0.0000 1.0000 0.0000
vn 0.0000 1.0000 0.0000
vn 0.0000 1.0000 0.0000
vn 0.0000 1.0000 0.0000
vn 0.0000 1.0000 0.0000
vn 0.0000 1.0000 0.0000
vn 0.0000 1.0000 0.0000
vn 0.0000 1.0000 0.0000
vn 0.0000 1.0000 0.0000
vn 0.0000 1.0000 0.0000
vn 0.0000 1.0000 0.0000
vn 0.0000 1.0000 0.0000
vn 0.0000 1.0000 0.0000
vn 0.0000 1.0000 0.0000
vn 0.0000 1.0000 0.0000
vn 0.0000 1.0000 0.0000
vn 0.0000 1.0000 0.0000
vn 0.0000 1.0000 0.0000
vn 0.0000 1.0000 0.0000
vn 0.0000 1.0000 0.0000
vn 0.0000 1.0000 0.0000
vn 0.0000 1.0000 0.0000
vn 0.0000 1.0000 0.0000
vn 0.0000 1.0000 0.0000
vn 0.0000 1.0000 0.0000
vn 0.0000 1.0000 0.0000
vn 0.0000 1.0000 0.0000
vn 0.0000 1.0000 0.0000
vn 0.0000 1.0000 0.0000
vn 0.0000 1.0000 0.0000
vn 0.0000 1.0000 0.0000
vn 0.0000 1.0000 0.0000
vn 0.0000 1.0000 0.0000
vn 0.0000 1.0000 0.0000
vn 0.0000 1.0000 0.0000
vn 0.0000 1.0000 0.0000
vn 0.0000 1.0000 0.0000
vn 0.0000 1.0000 0.0000
vn 0.0000 1.0000 0.0000
vn 0.0000 1.0000 0.0000
vn 0.0000 1.0000 0.0000
vn 0.0000 1.0000 0.0000
vn 0.0000 1.0000 0.0000
vn 0.0000 1.0000 0.0000
vn 0.0000 1.0000 0.0000
vn 0.0000 1.0000 0.0000
vn 0.0000 1.0000 0.0000
vn 0.0000 1.0000 0.0000
vn 0.0000 1.0000 0.0000
vn 0.0000 1.0000 0.0000
vn 0.0000 1.0000 0.0000
vn 0.0000 1.0000 0.0000
vn 0.0000 1.0000 0.0000
vn 0.0000 1.0000 0.0000
vn 0.0000 1.0000 0.0000
vn 0.0000 1.0000 0.0000
vn 0.0000 1.0000 0.0000
vn 0.0000 1.0000 0.0000
vn 0.0000 1.0000 0.0000
vn 0.0000 1.0000 0.0000
vn 0.0000 1.0000 0.0000
vn 0.0000 1.0000 0.0000
vn 0.0000 1.0000 0.0000
vn 0.0000 1.0000 0.0000
vn 0.0000 1.0000 0.0000
vn 0.0000 1.0000 0.0000
vn 0.0000 1.0000 0.0000
vn 0.0000 1.0000 0.0000
vn 0.0000 1.0000 0.0000
vn 0.0000 1.0000 0.0000
vn 0.0000 1.0000 0.0000
vn 0.0000 1.0000 0.0000
vn 0.0000 1.0000 0.0000
vn 0.0000 1.0000 0.0000
vn 0.0000 1.0000 0.0000
vn 0.0000 1.0000 0.0000
vn 0.0000 1.0000 0.0000
vn 0.0000 1.0000 0.0000
vn 0.0000 1.0000 0.0000
vn 0.0000 1.0000 0.0000
vn 0.0000 1.0000 0.0000
vn 0.0000 1.0000 0.0000
vn 0.0000 1.0000 0.0000
vn 0.0000 1.0000 0.0000
vn 0.0000 1.0000 0.0000
vn 0.0000 1.0000 0.0000
vn 0.0000 1.0000 0.0000
vn 0.0000 1.0000 0.0000
vn 0.0000 1.0000 0.0000
vn 0.0000 1.0000 0.0000
vn 0.0000 1.0000 0.0000
vn 0.0000 1.0000 0.0000
vn 0.0000 1.0000 0.0000
vn 0.0000 1.0000 0.0000
vn 0.0000 1.0000 0.0000
vn 0.0000 1.0000 0.0000
vn 0.0000 1.0000 0.0000
vn 0.0000 1.0000 0.0000
vn 0.0000 1.0000 0.0000
vn 0.0000 1.0000 0.0000
vn 0.0000 1.0000 0.0000
vn 0.0000 1.0000 0.0000
vn 0.0000 1.0000 0.0000
vn 0.0000 1.0000 0.0000
vn 0.0000 1.0000 0.0000
vn 0.0000 1.0000 0.0000
vn 0.0000 1.0000 0.0000
vn 0.0000 1.0000 0.0000
vn 0.0000 1.0000 0.0000
vn 0.0000 1.0000 0.0000
vn 0.0000 1.0000 0.0000
vn 0.0000 1.0000 0.0000
vn 0.0000 1.0000 0.0000
vn 0.0000 1.0000 0.0000
vn 0.0000 1.0000 0.0000
vn 0.0000 1.0000 0.0000
vn 0.0000 1.0000 0.0000
vn 0.0000 1.0000 0.0000
vn 0.0000 1.0000 0.0000
vn 0.0000 1.0000 0.0000
vn 0.0000 1.0000 0.0000
vn 0.0000 1.0000 0.0000
vn 0.0000 1.0000 0.0000
vn 0.0000 1.0000 0.0000
vn 0.0000 1.0000 0.0000
vn 0.0000 1.0000 0.0000
vn 0.0000 1.0000 0.0000
vn 0.0000 1.0000 0.0000
vn 0.0000 1.0000 0.0000
vn 0.0000 1.0000 0.0000
vn 0.0000 1.0000 0.0000
vn 0.0000 1.0000 0.0000
vn 0.0000 1.0000 0.0000
vn 0.0000 1.0000 0.0000
vn 0.0000 1.0000 0.0000
vn 0.0000 1.0000 0.0000
vn 0.0000 1.0000 0.0000
vn 0.0000 1.0000 0.0000
vn 0.0000 1.0000 0.0000
vn 0.0000 1.0000 0.0000
vn 0.0000 1.0000 0.0000
vn 0.0000 1.0000 0.0000
vn 0.0000 1.0000 0.0000
vn 0.0000 1.0000 0.0000
vn 0.0000 1.0000 0.0000
vn 0.0000 1.0000 0.0000
vn 0.0000 1.0000 0.0000
vn 0.0000 1.0000 0.0000
vn 0.0000 1.0000 0.0000
vn 0.0000 1.0000 0.0000
vn 0.0000 1.0000 0.0000
vn 0.0000 1.0000 0.0000
vn 0.0000 1.0000 0.0000
vn 0.0000 1.0000 0.0000
vn 0.0000 1.0000 0.0000
vn 0.0000 1.0000 0.0000
vn 0.0000 1.0000 0.0000
vn 0.0000 1.0000 0.0000
vn 0.0000 1.0000 0.0000
vn 0.0000 1.0000 0.0000
vn 0.0000 1.0000 0.0000
vn 0.0000 1.0000 0.0000
vn 0.0000 1.0000 0.0000
vn 0.0000 1.0000 0.0000
vn 0.0000 1.0000 0.0000
vn 0.0000 1.0000 0.0000
vn 0.0000 1.0000 0.0000
vn 0.0000 1.0000 0.0000
vn 0.0000 1.0000 0.0000
vn 0.0000 1.0000 0.0000
vn 0.0000 1.0000 0.0000
vn 0.0000 1.0000 0.0000
vn 0.0000 1.0000 0.0000
vn 0.0000 1.0000 0.0000
vn 0.0000 1.0000 0.0000
vn 0.0000 1.0000 0.0000
vn 0.0000 1.0000 0.0000
vn 0.0000 1.0000 0.0000
vn 0.0000 1.0000 0.0000
vn 0.0000 1.0000 0.0000
vn 0.0000 1.0000 0.0000
vn 0.0000 1.0000 0.0000
vn 0.0000 1.0000 0.0000
vn 0.0000 1.0000 0.0000
vn 0.0000 1.0000 0.0000
vn 0.0000 1.0000 0.0000
vn 0.0000 1.0000 0.0000
vn 0.0000 1.0000 0.0000
vn 0.0000 1.0000 0.0000
vn 0.0000 1.0000 0.0000
vn 0.0000 1.0000 0.0000
vn 0.0000 1.0000 0.0000
vn 0.0000 1.0000 0.0000
vn 0.0000 1.0000 0.0000
vn 0.0000 1.0000 0.0000
vn 0.0000 1.0000 0.0000
vn 0.0000 1.0000 0.0000
vn 0.0000 1.0000 0.0000
vn 0.0000 1.0000 0.0000
vn 0.0000 1.0000 0.0000
vn 0.0000 1.0000 0.0000
vn 0.0000 1.0000 0.0000
vn 0.0000 1.0000 0.0000
vn 0.0000 1.0000 0.0000
vn 0.0000 1.0000 0.0000
vn 0.0000 1.0000 0.0000
vn 0.0000 1.0000 0.0000
vn 0.0000 1.0000 0.0000
vn 0.0000 1.0000 0.0000
vn 0.0000 1.0000 0.0000
vn 0.0000 1.0000 0.0000
vn 0.0000 1.0000 0.0000
vn 0.0000 1.0000 0.0000
vn 0.0000 1.0000 0.0000
vn 0.0000 1.0000 0.0000
vn 0.0000 1.0000 0.0000
vn 0.0000 1.0000 0.0000
vn 0.0000 1.0000 0.0000
vn 0.0000 1.0000 0.0000
vn 0.0000 1.0000 0.0000
vn 0.0000 1.0000 0.0000
vn 0.0000 1.0000 0.0000
vn 0.0000 1.0000 0.0000
vn 0.0000 1.0000 0.0000
vn 0.0000 1.0000 0.0000
vn 0.0000 1.0000 0.0000
vn 0.0000 1.0000 0.0000
vn 0.0000 1.0000 0.0000
vn 0.0000 1.0000 0.0000
vn 0.0000 1.0000 0.0000
vn 0.0000 1.0000 0.0000
vn 0.0000 1.0000 0.0000
vn 0.0000 1.0000 0.0000
vn 0.0000 1.0000 0.0000
vn 0.0000 1.0000 0.0000
vn 0.0000 1.0000 0.0000
vn 0.0000 1.0000 0.0000
vn 0.0000 1.0000 0.0000
vn 0.0000 1.0000 0.0000
vn 0.0000 1.0000 0.0000
vn 0.0000 1.0000 0.0000
vn 0.0000 1.0000 0.0000
vn 0.0000 1.0000 0.0000
vn 0.0000 1.0000 0.0000
vn 0.0000 1.0000 0.0000
vn 0.0000 1.0000 0.0000
vn 0.0000 1.0000 0.0000
vn 0.0000 1.0000 0.0000
vn 0.0000 1.0000 0.0000
vn 0.0000 1.0000 0.0000
vn 0.0000 1.0000 0.0000
vn 0.0000 1.0000 0.0000
vn 0.0000 1.0000 0.0000
vn 0.0000 1.0000 0.0000
vn 0.0000 1.0000 0.0000
vn 0.0000 1.0000 0.0000
vn 0.0000 1.0000 0.0000
vn 0.0000 1.0000 0.0000
vn 0.0000 1.0000 0.0000
vn 0.0000 1.0000 0.0000
vn 0.0000 1.0000 0.0000
vn 0.0000 1.0000 0.0000
vn 0.0000 1.0000 0.0000
vn 0.0000 1.0000 0.0000
vn 0.0000 1.0000 0.0000
vn 0.0000 1.0000 0.0000
vn 0.0000 1.0000 0.0000
vn 0.0000 1.0000 0.0000
vn 0.0000 1.0000 0.0000
vn 0.0000 1.0000 0.0000
vn 0.0000 1.0000 0.0000
vn 0.0000 1.0000 0.0000
vn 0.0000 1.0000 0.0000
vn 0.0000 1.0000 0.0000
vn 0.0000 1.0000 0.0000
vn 0.0000 1.0000 0.0000
vn 0.0000 1.0000 0.0000
vn 0.0000 1.0000 0.0000
vn 0.0000 1.0000 0.0000
vn 0.0000 1.0000 0.0000
vn 0.0000 1.0000 0.0000
vn 0.0000 1.0000 0.0000
vn 0.0000 1.0000 0.0000
vn 0.0000 1.0000 0.0000
vn 0.0000 1.0000 0.0000
vn 0.0000 1.0000 0.0000
vn 0.0000 1.0000 0.0000
vn 0.0000 1.0000 0.0000
vn 0.0000 1.0000 0.0000
vn 0.0000 1.0000 0.0000
vn 0.0000 1.0000 0.0000
vn 0.0000 1.0000 0.0000
vn 0.0000 1.0000 0.0000
vn 0.0000 1.0000 0.0000
vn 0.0000 1.0000 0.0000
vn 0.0000 1.0000 0.0000
vn 0.0000 1.0000 0.0000
vn 0.0000 1.0000 0.0000
vn 0.0000 1.0000 0.0000
vn 0.0000 1.0000 0.0000
vn 0.0000 1.0000 0.0000
vn 0.0000 1.0000 0.0000
vn 0.0000 1.0000 0.0000
vn 0.0000 1.0000 0.0000
vn 0.0000 1.0000 0.0000
vn 0.0000 1.0000 0.0000
vn 0.0000 1.0000 0.0000
vn 0.0000 1.0000 0.0000
vn 0.0000 1.0000 0.0000
vn 0.0000 1.0000 0.0000
vn 0.0000 1.0000 0.0000
vn 0.0000 1.0000 0.0000
vn 0.0000 1.0000 0.0000
vn 0.0000 1.0000 0.0000
vn 0.0000 1.0000 0.0000
vn 0.0000 1.0000 0.0000
vn 0.0000 1.0000 0.0000
vn 0.0000 1.0000 0.0000
vn 0.0000 1.0000 0.0000
vn 0.0000 1.0000 0.0000
vn 0.0000 1.0000 0.0000
vn 0.0000 1.0000 0.0000
vn 0.0000 1.0000 0.0000
vn 0.0000 1.0000 0.0000
vn 0.0000 1.0000 0.0000
vn 0.0000 1.0000 0.0000
vn 0.0000 1.0000 0.0000
vn 0.0000 1.0000 0.0000
vn 0.0000 1.0000 0.0000
vn 0.0000 1.0000 0.0000
vn 0.0000 1.0000 0.0000
vn 0.0000 1.0000 0.0000
vn 0.0000 1.0000 0.0000
vn 0.0000 1.0000 0.0000
vn 0.0000 1.0000 0.0000
vn 0.0000 1.0000 0.0000
vn 0.0000 1.0000 0.0000
vn 0.0000 1.0000 0.0000
vn 0.0000 1.0000 0.0000
vn 0.0000 1.0000 0.0000
vn 0.0000 1.0000 0.0000
vn 0.0000 1.0000 0.0000
vn 0.0000 1.0000 0.0000
vn 0.0000 1.0000 0.0000
vn 0.0000 1.0000 0.0000
vn 0.0000 1.0000 0.0000
vn 0.0000 1.0000 0.0000
vn 0.0000 1.0000 0.0000
vn 0.0000 1.0000 0.0000
vn 0.0000 1.0000 0.0000
vn 0.0000 1.0000 0.0000
vn 0.0000 1.0000 0.0000
vn 0.0000 1.0000 0.0000
vn 0.0000 1.0000 0.0000
vn 0.0000 1.0000 0.0000
vn 0.0000 1.0000 0.0000
vn 0.0000 1.0000 0.0000
vn 0.0000 1.0000 0.0000
vn 0.0000 1.0000 0.0000
vn 0.0000 1.0000 0.0000
vn 0.0000 1.0000 0.0000
vn 0.0000 1.0000 0.0000
vn 0.0000 1.0000 0.0000
vn 0.0000 1.0000 0.0000
vn 0.0000 1.0000 0.0000
vn 0.0000 1.0000 0.0000
vn 0.0000 1.0000 0.0000
vn 0.0000 1.0000 0.0000
vn 0.0000 1.0000 0.0000
vn 0.0000 1.0000 0.0000
vn 0.0000 1.0000 0.0000
vn 0.0000 1.0000 0.0000
vn 0.0000 1.0000 0.0000
vn 0.0000 1.0000 0.0000
vn 0.0000 1.0000 0.0000
vn 0.0000 1.0000 0.0000
vn 0.0000 1.0000 0.0000
vn 0.0000 1.0000 0.0000
vn 0.0000 1.0000 0.0000
vn 0.0000 1.0000 0.0000
vn 0.0000 1.0000 0.0000
vn 0.0000 1.0000 0.0000
vn 0.0000 1.0000 0.0000
vn 0.0000 1.0000 0.0000
vn 0.0000 1.0000 0.0000
vn 0.0000 1.0000 0.0000
vn 0.0000 1.0000 0.0000
vn 0.0000 1.0000 0.0000
vn 0.0000 1.0000 0.0000
vn 0.0000 1.0000 0.0000
vn 0.0000 1.0000 0.0000
vn 0.0000 1.0000 0.0000
vn 0.0000 1.0000 0.0000
vn 0.0000 1.0000 0.0000
vn 0.0000 1.0000 0.0000
vn 0.0000 1.0000 0.0000
vn 0.0000 1.0000 0.0000
vn 0.0000 1.0000 0.0000
vn 0.0000 1.0000 0.0000
vn 0.0000 1.0000 0.0000
vn 0.0000 1.0000 0.0000
vn 0.0000 1.0000 0.0000
vn 0.0000 1.0000 0.0000
vn 0.0000 1.0000 0.0000
vn 0.0000 1.0000 0.0000
vn 0.0000 1.0000 0.0000
vn 0.0000 1.0000 0.0000
vn 0.0000 1.0000 0.0000
vn 0.0000 1.0000 0.0000
vn 0.0000 1.0000 0.0000
vn 0.0000 1.0000 0.0000
vn 0.0000 1.0000 0.0000
vn 0.0000 1.0000 0.0000
vn 0.0000 1.0000 0.0000
vn 0.0000 1.0000 0.0000
vn 0.0000 1.0000 0.0000
vn 0.0000 1.0000 0.0000
vn 0.0000 1.0000 0.0000
vn 0.0000 1.0000 0.0000
vn 0.0000 1.0000 0.0000
vn 0.0000 1.0000 0.0000
vn 0.0000 1.0000 0.0000
vn 0.0000 1.0000 0.0000
vn 0.0000 1.0000 0.0000
vn 0.0000 1.0000 0.0000
vn 0.0000 1.0000 0.0000
vn 0.0000 1.0000 0.0000
vn 0.0000 1.0000 0.0000
vn 0.0000 1.0000 0.0000
vn 0.0000 1.0000 0.0000
vn 0.0000 1.0000 0.0000
vn 0.0000 1.0000 0.0000
vn 0.0000 1.0000 0.0000
vn 0.0000 1.0000 0.0000
vn 0.0000 1.0000 0.0000
vn 0.0000 1.0000 0.0000
vn 0.0000 1.0000 0.0000
vn 0.0000 1.0000 0.0000
vn 0.0000 1.0000 0.0000
vn 0.0000 1.0000 0.0000
vn 0.0000 1.0000 0.0000
vn 0.0000 1.0000 0.0000
vn 0.0000 1.0000 0.0000
vn 0.0000 1.0000 0.0000
vn 0.0000 1.0000 0.0000
vn 0.0000 1.0000 0.0000
vn 0.0000 1.0000 0.0000
vn 0.0000 1.0000 0.0000
vn 0.0000 1.0000 0.0000
vn 0.0000 1.0000 0.0000
vn 0.0000 1.0000 0.0000
vn 0.0000 1.0000 0.0000
vn 0.0000 1.0000 0.0000
vn 0.0000 1.0000 0.0000
vn 0.0000 1.0000 0.0000
vn 0.0000 1.0000 0.0000
vn 0.0000 1.0000 0.0000
vn 0.0000 1.0000 0.0000
vn 0.0000 1.0000 0.0000
vn 0.0000 1.0000 0.0000
vn 0.0000 1.0000 0.0000
vn 0.0000 1.0000 0.0000
vn 0.0000 1.0000 0.0000
vn 0.0000 1.0000 0.0000
vn 0.0000 1.0000 0.0000
vn 0.0000 1.0000 0.0000
vn 0.0000 1.0000 0.0000
vn 0.0000 1.0000 0.0000
vn 0.0000 1.0000 0.0000
vn 0.0000 1.0000 0.0000
vn 0.0000 1.0000 0.0000
vn 0.0000 1.0000 0.0000
vn 0.0000 1.0000 0.0000
vn 0.0000 1.0000 0.0000
vn 0.0000 1.0000 0.0000
vn 0.0000 1.0000 0.0000
vn 0.0000 1.0000 0.0000
vn 0.0000 1.0000 0.0000
vn 0.0000 1.0000 0.0000
vn 0.0000 1.0000 0.0000
vn 0.0000 1.0000 0.0000
vn 0.0000 1.0000 0.0000
vn 0.0000 1.0000 0.0000
vn 0.0000 1.0000 0.0000
vn 0.0000 1.0000 0.0000
vn 0.0000 1.0000 0.0000
vn 0.0000 1.0000 0.0000
vn 0.0000 1.0000 0.0000
vn 0.0000 1.0000 0.0000
vn 0.0000 1.0000 0.0000
vn 0.0000 1.0000 0.0000
vn 0.0000 1.0000 0.0000
vn 0.0000 1.0000 0.0000
vn 0.0000 1.0000 0.0000
vn 0.0000 1.0000 0.0000
vn 0.0000 1.0000 0.0000
vn 0.0000 1.0000 0.0000
vn 0.0000 1.0000 0.0000
vn 0.0000 1.0000 0.0000
vn 0.0000 1.0000 0.0000
vn 0.0000 1.0000 0.0000
vn 0.0000 1.0000 0.0000
vn 0.0000 1.0000 0.0000
vn 0.0000 1.0000 0.0000
vn 0.0000 1.0000 0.0000
vn 0.0000 1.0000 0.0000
vn 0.0000 1.0000 0.0000
vn 0.0000 1.0000 0.0000
vn 0.0000 1.0000 0.0000
vn 0.0000 1.0000 0.0000
vn 0.0000 1.0000 0.0000
vn 0.0000 1.0000 0.0000
vn 0.0000 1.0000 0.0000
vn 0.0000 1.0000 0.0000
vn 0.0000 1.0000 0.0000
vn 0.0000 1.0000 0.0000
vn 0.0000 1.0000 0.0000
vn 0.0000 1.0000 0.0000
vn 0.0000 1.0000 0.0000
vn 0.0000 1.0000 0.0000
vn 0.0000 1.0000 0.0000
vn 0.0000 1.0000 0.0000
vn 0.0000 1.0000 0.0000
vn 0.0000 1.0000 0.0000
vn 0.0000 1.0000 0.0000
vn 0.0000 1.0000 0.0000
vn 0.0000 1.0000 0.0000
vn 0.0000 1.0000 0.0000
vn 0.0000 1.0000 0.0000
vn 0.0000 1.0000 0.0000
vn 0.0000 1.0000 0.0000
vn 0.0000 1.0000 0.0000
vn 0.0000 1.0000 0.0000
vn 0.0000 1.0000 0.0000
vn 0.0000 1.0000 0.0000
vn 0.0000 1.0000 0.0000
vn 0.0000 1.0000 0.0000
vn 0.0000 1.0000 0.0000
vn 0.0000 1.0000 0.0000
vn 0.0000 1.0000 0.0000
vn 0.0000 1.0000 0.0000
vn 0.0000 1.0000 0.0000
vn 0.0000 1.0000 0.0000
vn 0.0000 1.0000 0.0000
vn 0.0000 1.0000 0.0000
vn 0.0000 1.0000 0.0000
vn 0.0000 1.0000 0.0000
vn 0.0000 1.0000 0.0000
vn 0.0000 1.0000 0.0000
vn 0.0000 1.0000 0.0000
vn 0.0000 1.0000 0.0000
vn 0.0000 1.0000 0.0000
vn 0.0000 1.0000 0.0000
vn 0.0000 1.0000 0.0000
vn 0.0000 1.0000 0.0000
vn 0.0000 1.0000 0.0000
vn 0.0000 1.0000 0.0000
vn 0.0000 1.0000 0.0000
vn 0.0000 1.0000 0.0000
vn 0.0000 1.0000 0.0000
vn 0.0000 1.0000 0.0000
vn 0.0000 1.0000 0.0000
vn 0.0000 1.0000 0.0000
vn 0.0000 1.0000 0.0000
vn 0.0000 1.0000 0.0000
vn 0.0000 1.0000 0.0000
vn 0.0000 1.0000 0.0000
vn 0.0000 1.0000 0.0000
vn 0.0000 1.0000 0.0000
vn 0.0000 1.0000 0.0000
vn 0.0000 1.0000 0.0000
vn 0.0000 1.0000 0.0000
vn 0.0000 1.0000 0.0000
vn 0.0000 1.0000 0.0000
vn 0.0000 1.0000 0.0000
vn 0.0000 1.0000 0.0000
vn 0.0000 1.0000 0.0000
vn 0.0000 1.0000 0.0000
vn 0.0000 1.0000 0.0000
vn 0.0000 1.0000 0.0000
vn 0.0000 1.0000 0.0000
vn 0.0000 1.0000 0.0000
vn 0.0000 1.0000 0.0000
vn 0.0000 1.0000 0.0000
vn 0.0000 1.0000 0.0000
vn 0.0000 1.0000 0.0000
vn 0.0000 1.0000 0.0000
vn 0.0000 1.0000 0.0000
vn 0.0000 1.0000 0.0000
vn 0.0000 1.0000 0.0000
vn 0.0000 1.0000 0.0000
vn 0.0000 1.0000 0.0000
vn 0.0000 1.0000 0.0000
vn 0.0000 1.0000 0.0000
vn 0.0000 1.0000 0.0000
vn 0.0000 1.0000 0.0000
vn 0.0000 1.0000 0.0000
vn 0.0000 1.0000 0.0000
vn 0.0000 1.0000 0.0000
vn 0.0000 1.0000 0.0000
vn 0.0000 1.0000 0.0000
vn 0.0000 1.0000 0.0000
vn 0.0000 1.0000 0.0000
vn 0.0000 1.0000 0.0000
vn 0.0000 1.0000 0.0000
vn 0.0000 1.0000 0.0000
vn 0.0000 1.0000 0.0000
vn 0.0000 1.0000 0.0000
vn 0.0000 1.0000 0.0000
vn 0.0000 1.0000 0.0000
vn 0.0000 1.0000 0.0000
vn 0.0000 1.0000 0.0000
vn 0.0000 1.0000 0.0000
vn 0.0000 1.0000 0.0000
vn 0.0000 1.0000 0.0000
vn 0.0000 1.0000 0.0000
vn 0.0000 1.0000 0.0000
vn 0.0000 1.0000 0.0000
vn 0.0000 1.0000 0.0000
vn 0.0000 1.0000 0.0000
vn 0.0000 1.0000 0.0000
vn 0.0000 1.0000 0.0000
vn 0.0000 1.0000 0.0000
vn 0.0000 1.0000 0.0000
vn 0.0000 1.0000 0.0000
vn 0.0000 1.0000 0.0000
vn 0.0000 1.0000 0.0000
vn 0.0000 1.0000 0.0000
vn 0.0000 1.0000 0.0000
vn 0.0000 1.0000 0.0000
vn 0.0000 1.0000 0.0000
vn 0.0000 1.0000 0.0000
vn 0.0000 1.0000 0.0000
vn 0.0000 1.0000 0.0000
vn 0.0000 1.0000 0.0000
vn 0.0000 1.0000 0.0000
vn 0.0000 1.0000 0.0000
vn 0.0000 1.0000 0.0000
vn 0.0000 1.0000 0.0000
vn 0.0000 1.0000 0.0000
vn 0.0000 1.0000 0.0000
vn 0.0000 1.0000 0.0000
vn 0.0000 1.0000 0.0000
vn 0.0000 1.0000 0.0000
vn 0.0000 1.0000 0.0000
vn 0.0000 1.0000 0.0000
vn 0.0000 1.0000 0.0000
vn 0.0000 1.0000 0.0000
vn 0.0000 1.0000 0.0000
vn 0.0000 1.0000 0.0000
vn 0.0000 1.0000 0.0000
vn 0.0000 1.0000 0.0000
vn 0.0000 1.0000 0.0000
vn 0.0000 1.0000 0.0000
vn 0.0000 1.0000 0.0000
vn 0.0000 1.0000 0.0000
vn 0.0000 1.0000 0.0000
vn 0.0000 1.0000 0.0000
vn 0.0000 1.0000 0.0000
vn 0.0000 1.0000 0.0000
vn 0.0000 1.0000 0.0000
vn 0.0000 1.0000 0.0000
vn 0.0000 1.0000 0.0000
vn 0.0000 1.0000 0.0000
vn 0.0000 1.0000 0.0000
vn 0.0000 1.0000 0.0000
vn 0.0000 1.0000 0.0000
vn 0.0000 1.0000 0.0000
vn 0.0000 1.0000 0.0000
vn 0.0000 1.0000 0.0000
vn 0.0000 1.0000 0.0000
vn 0.0000 1.0000 0.0000
vn 0.0000 1.0000 0.0000
vn 0.0000 1.0000 0.0000
vn 0.0000 1.0000 0.0000
vn 0.0000 1.0000 0.0000
vn 0.0000 1.0000 0.0000
vn 0.0000 1.0000 0.0000
vn 0.0000 1.0000 0.0000
vn 0.0000 1.0000 0.0000
vn 0.0000 1.0000 0.0000
vn 0.0000 1.0000 0.0000
vn 0.0000 1.0000 0.0000
vn 0.0000 1.0000 0.0000
vn 0.0000 1.0000 0.0000
vn 0.0000 1.0000 0.0000
vn 0.0000 1.0000 0.0000
vn 0.0000 1.0000 0.0000
vn 0.0000 1.0000 0.0000
vn 0.0000 1.0000 0.0000
vn 0.0000 1.0000 0.0000
vn 0.0000 1.0000 0.0000
vn 0.0000 1.0000 0.0000
vn 0.0000 1.0000 0.0000
vn 0.0000 1.0000 0.0000
vn 0.0000 1.0000 0.0000
vn 0.0000 1.0000 0.0000
vn 0.0000 1.0000 0.0000
vn 0.0000 1.0000 0.0000
vn 0.0000 1.0000 0.0000
vn 0.0000 1.0000 0.0000
vn 0.0000 1.0000 0.0000
vn 0.0000 1.0000 0.0000
vn 0.0000 1.0000 0.0000
vn 0.0000 1.0000 0.0000
vn 0.0000 1.0000 0.0000
vn 0.0000 1.0000 0.0000
vn 0.0000 1.0000 0.0000
vn 0.0000 1.0000 0.0000
vn 0.0000 1.0000 0.0000
vn 0.0000 1.0000 0.0000
vn 0.0000 1.0000 0.0000
vn 0.0000 1.0000 0.0000
vn 0.0000 1.0000 0.0000
vn 0.0000 1.0000 0.0000
vn 0.0000 1.0000 0.0000
vn 0.0000 1.0000 0.0000
vn 0.0000 1.0000 0.0000
vn 0.0000 1.0000 0.0000
vn 0.0000 1.0000 0.0000
vn 0.0000 1.0000 0.0000
vn 0.0000 1.0000 0.0000
vn 0.0000 1.0000 0.0000
vn 0.0000 1.0000 0.0000
vn 0.0000 1.0000 0.0000
vn 0.0000 1.0000 0.0000
vn 0.0000 1.0000 0.0000
vn 0.0000 1.0000 0.0000
vn 0.0000 1.0000 0.0000
vn 0.0000 1.0000 0.0000
vn 0.0000 1.0000 0.0000
vn 0.0000 1.0000 0.0000
vn 0.0000 1.0000 0.0000
vn 0.0000 1.0000 0.0000
vn 0.0000 1.0000 0.0000
vn 0.0000 1.0000 0.0000
vn 0.0000 1.0000 0.0000
vn 0.0000 1.0000 0.0000
vn 0.0000 1.0000 0.0000
vn 0.0000 1.0000 0.0000
vn 0.0000 1.0000 0.0000
vn 0.0000 1.0000 0.0000
vn 0.0000 1.0000 0.0000
vn 0.0000 1.0000 0.0000
vn 0.0000 1.0000 0.0000
vn 0.0000 1.0000 0.0000
vn 0.0000 1.0000 0.0000
vn 0.0000 1.0000 0.0000
vn 0.0000 1.0000 0.0000
vn 0.0000 1.0000 0.0000
vn 0.0000 1.0000 0.0000
vn 0.0000 1.0000 0.0000
vn 0.0000 1.0000 0.0000
vn 0.0000 1.0000 0.0000
vn 0.0000 1.0000 0.0000
vn 0.0000 1.0000 0.0000
vn 0.0000 1.0000 0.0000
vn 0.0000 1.0000 0.0000
vn 0.0000 1.0000 0.0000
vn 0.0000 1.0000 0.0000
vn 0.0000 1.0000 0.0000
vn 0.0000 1.0000 0.0000
vn 0.0000 1.0000 0.0000
vn 0.0000 1.0000 0.0000
vn 0.0000 1.0000 0.0000
vn 0.0000 1.0000 0.0000
vn 0.0000 1.0000 0.0000
vn 0.0000 1.0000 0.0000
vn 0.0000 1.0000 0.0000
vn 0.0000 1.0000 0.0000
vn 0.0000 1.0000 0.0000
vn 0.0000 1.0000 0.0000
vn 0.0000 1.0000 0.0000
vn 0.0000 1.0000 0.0000
vn 0.0000 1.0000 0.0000
vn 0.0000 1.0000 0.0000
vn 0.0000 1.0000 0.0000
vn 0.0000 1.0000 0.0000
vn 0.0000 1.0000 0.0000
vn 0.0000 1.0000 0.0000
vn 0.0000 1.0000 0.0000
vn 0.0000 1.0000 0.0000
vn 0.0000 1.0000 0.0000
vn 0.0000 1.0000 0.0000
vn 0.0000 1.0000 0.0000
vn 0.0000 1.0000 0.0000
vn 0.0000 1.0000 0.0000
vn 0.0000 1.0000 0.0000
vn 0.0000 1.0000 0.0000
vn 0.0000 1.0000 0.0000
vn 0.0000 1.0000 0.0000
vn 0.0000 1.0000 0.0000
vn 0.0000 1.0000 0.0000
vn 0.0000 1.0000 0.0000
vn 0.0000 1.0000 0.0000
vn 0.0000 1.0000 0.0000
vn 0.0000 1.0000 0.0000
vn 0.0000 1.0000 0.0000
vn 0.0000 1.0000 0.0000
vn 0.0000 1.0000 0.0000
vn 0.0000 1.0000 0.0000
vn 0.0000 1.0000 0.0000
vn 0.0000 1.0000 0.0000
vn 0.0000 1.0000 0.0000
vn 0.0000 1.0000 0.0000
vn 0.0000 1.0000 0.0000
vn 0.0000 1.0000 0.0000
vn 0.0000 1.0000 0.0000
vn 0.0000 1.0000 0.0000
vn 0.0000 1.0000 0.0000
vn 0.0000 1.0000 0.0000
vn 0.0000 1.0000 0.0000
vn 0.0000 1.0000 0.0000
vn 0.0000 1.0000 0.0000
vn 0.0000 1.0000 0.0000
vn 0.0000 1.0000 0.0000
vn 0.0000 1.0000 0.0000
vn 0.0000 1.0000 0.0000
vn 0.0000 1.0000 0.0000
vn 0.0000 1.0000 0.0000
vn 0.0000 1.0000 0.0000
vn 0.0000 1.0000 0.0000
vn 0.0000 1.0000 0.0000
vn 0.0000 1.0000 0.0000
vn 0.0000 1.0000 0.0000
vn 0.0000 1.0000 0.0000
vn 0.0000 1.0000 0.0000
vn 0.0000 1.0000 0.0000
vn 0.0000 1.0000 0.0000
vn 0.0000 1.0000 0.0000
vn 0.0000 1.0000 0.0000
vn 0.0000 1.0000 0.0000
vn 0.0000 1.0000 0.0000
vn 0.0000 1.0000 0.0000
vn 0.0000 1.0000 0.0000
vn 0.0000 1.0000 0.0000
vn 0.0000 1.0000 0.0000
vn 0.0000 1.0000 0.0000
vn 0.0000 1.0000 0.0000
vn 0.0000 1.0000 0.0000
vn 0.0000 1.0000 0.0000
vn 0.0000 1.0000 0.0000
vn 0.0000 1.0000 0.0000
vn 0.0000 1.0000 0.0000
vn 0.0000 1.0000 0.0000
vn 0.0000 1.0000 0.0000
vn 0.0000 1.0000 0.0000
vn 0.0000 1.0000 0.0000
vn 0.0000 1.0000 0.0000
vn 0.0000 1.0000 0.0000
vn 0.0000 1.0000 0.0000
vn 0.0000 1.0000 0.0000
vn 0.0000 1.0000 0.0000
vn 0.0000 1.0000 0.0000
vn 0.0000 1.0000 0.0000
vn 0.0000 1.0000 0.0000
vn 0.0000 1.0000 0.0000
vn 0.0000 1.0000 0.0000
vn 0.0000 1.0000 0.0000
vn 0.0000 1.0000 0.0000
vn 0.0000 1.0000 0.0000
vn 0.0000 1.0000 0.0000
vn 0.0000 1.0000 0.0000
vn 0.0000 1.0000 0.0000
vn 0.0000 1.0000 0.0000
vn 0.0000 1.0000 0.0000
vn 0.0000 1.0000 0.0000
vn 0.0000 1.0000 0.0000
vn 0.0000 1.0000 0.0000
vn 0.0000 1.0000 0.0000
vn 0.0000 1.0000 0.0000
vn 0.0000 1.0000 0.0000
vn 0.0000 1.0000 0.0000
vn 0.0000 1.0000 0.0000
vn 0.0000 1.0000 0.0000
vn 0.0000 1.0000 0.0000
vn 0.0000 1.0000 0.0000
vn 0.0000 1.0000 0.0000
vn 0.0000 1.0000 0.0000
vn 0.0000 1.0000 0.0000
vn 0.0000 1.0000 0.0000
vn 0.0000 1.0000 0.0000
vn 0.0000 1.0000 0.0000
vn 0.0000 1.0000 0.0000
vn 0.0000 1.0000 0.0000
vn 0.0000 1.0000 0.0000
f 1 2 3
f 4 5 6
f 7 8 9
f 10 11 12
f 13 14 15
f 16 17 18
f 19 20 21
f 22 23 24
f 25 26 27
f 28 29 30
f 31 32 33
f 34 35 36
f 37 38 39
f 40 41 42
f 43 44 45
f 46 47 48
f 49 50 51
f 52 53 54
f 55 56 57
f 58 59 60
f 61 62 63
f 64 65 66
f 67 68 69
f 70 71 72
f 73 74 75
f 76 77 78
f 79 80 81
f 82 83 84
f 85 86 87
f 88 89 90
f 91 92 93
f 94 95 96
f 97 98 99
f 100 101 102
f 103 104 105
f 106 107 108
f 109 110 111
f 112 113 114
f 115 116 117
f 118 119 120
f 121 122 123
f 124 125 126
f 127 128 129
f 130 131 132
f 133 134 135
f 136 137 138
f 139 140 141
f 142 143 144
f 145 146 147
f 148 149 150
f 151 152 153
f 154 155 156
f 157 158 159
f 160 161 162
f 163 164 165
f 166 167 168
f 169 170 171
f 172 173 174
f 175 176 177
f 178 179 180
f 181 182 183
f 184 185 186
f 187 188 189
f 190 191 192
f 193 194 195
f 196 197 198
f 199 200 201
f 202 203 204
f 205 206 207
f 208 209 210
f 211 212 213
f 214 215 216
f 217 218 219
f 220 221 222
f 223 224 225
f 226 227 228
f 229 230 231
f 232 233 234
f 235 236 237
f 238 239 240
f 241 242 243
f 244 245 246
f 247 248 249
f 250 251 252
f 253 254 255
f 256 257 258
f 259 260 261
f 262 263 264
f 265 266 267
f 268 269 270
f 271 272 273
f 274 275 276
f 277 278 279
f 280 281 282
f 283 284 285
f 286 287 288
f 289 290 291
f 292 293 294
f 295 296 297
f 298 299 300
f 301 302 303
f 304 305 306
f 307 308 309
f 310 311 312
f 313 314 315
f 316 317 318
f 319 320 321
f 322 323 324
f 325 326 327
f 328 329 330
f 331 332 333
f 334 335 336
f 337 338 339
f 340 341 342
f 343 344 345
f 346 347 348
f 349 350 351
f 352 353 354
f 355 356 357
f 358 359 360
f 361 362 363
f 364 365 366
f 367 368 369
f 370 371 372
f 373 374 375
f 376 377 378
f 379 380 381
f 382 383 384
f 385 386 387
f 388 389 390
f 391 392 393
f 394 395 396
f 397 398 399
f 400 401 402
f 403 404 405
f 406 407 408
f 409 410 411
f 412 413 414
f 415 416 417
f 418 419 420
f 421 422 423
f 424 425 426
f 427 428 429
f 430 431 432
f 433 434 435
f 436 437 438
f 439 440 441
f 442 443 444
f 445 446 447
f 448 449 450
f 451 452 453
f 454 455 456
f 457 458 459
f 460 461 462
f 463 464 465
f 466 467 468
f 469 470 471
f 472 473 474
f 475 476 477
f 478 479 480
f 481 482 483
f 484 485 486
f 487 488 489
f 490 491 492
f 493 494 495
f 496 497 498
f 499 500 501
f 502 503 504
f 505 506 507
f 508 509 510
f 511 512 513
f 514 515 516
f 517 518 519
f 520 521 522
f 523 524 525
f 526 527 528
f 529 530 531
f 532 533 534
f 535 536 537
f 538 539 540
f 541 542 543
f 544 545 546
f 547 548 549
f 550 551 552
f 553 554 555
f 556 557 558
f 559 560 561
f 562 563 564
f 565 566 567
f 568 569 570
f 571 572 573
f 574 575 576
f 577 578 579
f 580 581 582
f 583 584 585
f 586 587 588
f 589 590 591
f 592 593 594
f 595 596 597
f 598 599 600
f 601 602 603
f 604 605 606
f 607 608 609
f 610 611 612
f 613 614 615
f 616 617 618
f 619 620 621
f 622 623 624
f 625 626 627
f 628 629 630
f 631 632 633
f 634 635 636
f 637 638 639
f 640 641 642
f 643 644 645
f 646 647 648
f 649 650 651
f 652 653 654
f 655 656 657
f 658 659 660
f 661 662 663
f 664 665 666
f 667 668 669
f 670 671 672
f 673 674 675
f 676 677 678
f 679 680 681
f 682 683 684
f 685 686 687
f 688 689 690
f 691 692 693
f 694 695 696
f 697 698 699
f 700 701 702
f 703 704 705
f 706 707 708
f 709 710 711
f 712 713 714
f 715 716 717
f 718 719 720
f 721 722 723
f 724 725 726
f 727 728 729
f 730 731 732
f 733 734 735
f 736 737 738
f 739 740 741
f 742 743 744
f 745 746 747
f 748 749 750
f 751 752 753
f 754 755 756
f 757 758 759
f 760 761 762
f 763 764 765
f 766 767 768
f 769 770 771
f 772 773 774
f 775 776 777
f 778 779 780
f 781 782 783
f 784 785 786
f 787 788 789
f 790 791 792
f 793 794 795
f 796 797 798
f 799 800 801
f 802 803 804
f 805 806 807
f 808 809 810
f 811 812 813
f 814 815 816
f 817 818 819
f 820 821 822
f 823 824 825
f 826 827 828
f 829 830 831
f 832 833 834
f 835 836 837
f 838 839 840
f 841 842 843
f 844 845 846
f 847 848 849
f 850 851 852
f 853 854 855
f 856 857 858
f 859 860 861
f 862 863 864
f 865 866 867
f 868 869 870
f 871 872 873
f 874 875 876
f 877 878 879
f 880 881 882
f 883 884 885
f 886 887 888
f 889 890 891
f 892 893 894
f 895 896 897
f 898 899 900
f 901 902 903
f 904 905 906
f 907 908 909
f 910 911 912
f 913 914 915
f 916 917 918
f 919 920 921
f 922 923 924
f 925 926 927
f 928 929 930
f 931 932 933
f 934 935 936
f 937 938 939
f 940 941 942
f 943 944 945
f 946 947 948
f 949 950 951
f 952 953 954
f 955 956 957
f 958 959 960
f 961 962 963
f 964 965 966
f 967 968 969
f 970 971 972
f 973 974 975
f 976 977 978
f 979 980 981
f 982 983 984
f 985 986 987
f 988 989 990
f 991 992 993
f 994 995 996
f 997 998 999
f 1000 1001 1002
f 1003 1004 1005
f 1006 1007 1008
f 1009 1010 1011
f 1012 1013 1014
f 1015 1016 1017
f 1018 1019 1020
f 1021 1022 1023
f 1024 1025 1026
f 1027 1028 1029
f 1030 1031 1032
f 1033 1034 1035
f 1036 1037 1038
f 1039 1040 1041
f 1042 1043 1044
f 1045 1046 1047
f 1048 1049 1050
f 1051 1052 1053
f 1054 1055 1056
f 1057 1058 1059
f 1060 1061 1062
f 1063 1064 1065
f 1066 1067 1068
f 1069 1070 1071
f 1072 1073 1074
f 1075 1076 1077
f 1078 1079 1080
f 1081 1082 1083
f 1084 1085 1086
f 1087 1088 1089
f 1090 1091 1092
f 1093 1094 1095
f 1096 1097 1098
f 1099 1100 1101
f 1102 1103 1104
f 1105 1106 1107
f 1108 1109 1110
f 1111 1112 1113
f 1114 1115 1116
f 1117 1118 1119
f 1120 1121 1122
f 1123 1124 1125
f 1126 1127 1128
f 1129 1130 1131
f 1132 1133 1134
f 1135 1136 1137
f 1138 1139 1140
f 1141 1142 1143
f 1144 1145 1146
f 1147 1148 1149
f 1150 1151 1152
f 1153 1154 1155
f 1156 1157 1158
f 1159 1160 1161
f 1162 1163 1164
f 1165 1166 1167
f 1168 1169 1170
f 1171 1172 1173
f 1174 1175 1176
f 1177 1178 1179
f 1180 1181 1182
f 1183 1184 1185
f 1186 1187 1188
f 1189 1190 1191
f 1192 1193 1194
f 1195 1196 1197
f 1198 1199 1200
f 1201 1202 1203
f 1204 1205 1206
f 1207 1208 1209
f 1210 1211 1212
f 1213 1214 1215
f 1216 1217 1218
f 1219 1220 1221
f 1222 1223 1224
f 1225 1226 1227
f 1228 1229 1230
f 1231 1232 1233
f 1234 1235 1236
f 1237 1238 1239
f 1240 1241 1242
f 1243 1244 1245
f 1246 1247 1248
f 1249 1250 1251
f 1252 1253 1254
f 1255 1256 1257
f 1258 1259 1260
f 1261 1262 1263
f 1264 1265 1266
f 1267 1268 1269
f 1270 1271 1272
f 1273 1274 1275
f 1276 1277 1278
f 1279 1280 1281
f 1282 1283 1284
f 1285 1286 1287
f 1288 1289 1290
f 1291 1292 1293
f 1294 1295 1296
f 1297 1298 1299
f 1300 1301 1302
f 1303 1304 1305
f 1306 1307 1308
f 1309 1310 1311
f 1312 1313 1314
f 1315 1316 1317
f 1318 1319 1320
f 1321 1322 1323
f 1324 1325 1326
f 1327 1328 1329
f 1330 1331 1332
f 1333 1334 1335
f 1336 1337 1338
f 1339 1340 1341
f 1342 1343 1344
f 1345 1346 1347
f 1348 1349 1350
f 1351 1352 1353
f 1354 1355 1356
f 1357 1358 1359
f 1360 1361 1362
f 1363 1364 1365
f 1366 1367 1368
f 1369 1370 1371
f 1372 1373 1374
f 1375 1376 1377
f 1378 1379 1380
f 1381 1382 1383
f 1384 1385 1386
f 1387 1388 1389
f 1390 1391 1392
f 1393 1394 1395
f 1396 1397 1398
f 1399 1400 1401
f 1402 1403 1404
f 1405 1406 1407
f 1408 1409 1410
f 1411 1412 1413
f 1414 1415 1416
f 1417 1418 1419
f 1420 1421 1422
f 1423 1424 1425
f 1426 1427 1428
f 1429 1430 1431
f 1432 1433 1434
f 1435 1436 1437
f 1438 1439 1440
f 1441 1442 1443
f 1444 1445 1446
f 1447 1448 1449
f 1450 1451 1452
f 1453 1454 1455
f 1456 1457 1458
f 1459 1460 1461
f 1462 1463 1464
f 1465 1466 1467
f 1468 1469 1470
f 1471 1472 1473
f 1474 1475 1476
f 1477 1478 1479
f 1480 1481 1482
f 1483 1484 1485
f 1486 1487 1488
f 1489 1490 1491
f 1492 1493 1494
f 1495 1496 1497
f 1498 1499 1500
f 1501 1502 1503
f 1504 1505 1506
f 1507 1508 1509
f 1510 1511 1512
f 1513 1514 1515
f 1516 1517 1518
f 1519 1520 1521
f 1522 1523 1524
f 1525 1526 1527
f 1528 1529 1530
f 1531 1532 1533
f 1534 1535 1536
f 1537 1538 1539
f 1540 1541 1542
f 1543 1544 1545
f 1546 1547 1548
f 1549 1550 1551
f 1552 1553 1554
f 1555 1556 1557
f 1558 1559 1560
f 1561 1562 1563
f 1564 1565 1566
f 1567 1568 1569
f 1570 1571 1572
f 1573 1574 1575
f 1576 1577 1578
f 1579 1580 1581
f 1582 1583 1584
f 1585 1586 1587
f 1588 1589 1590
f 1591 1592 1593
f 1594 1595 1596
f 1597 1598 1599
f 1600 1601 1602
f 1603 1604 1605
f 1606 1607 1608
f 1609 1610 1611
f 1612 1613 1614
f 1615 1616 1617
f 1618 1619 1620
f 1621 1622 1623
f 1624 1625 1626
f 1627 1628 1629
f 1630 1631 1632
f 1633 1634 1635
f 1636 1637 1638
f 1639 1640 1641
f 1642 1643 1644
f 1645 1646 1647
f 1648 1649 1650
f 1651 1652 1653
