# PSO Extracted Authentic Geometry
v 0.0000 -250.0000 0.0000
v -200.0000 0.0000 0.0000
v 0.0000 54.5403 0.0000
v 0.0000 0.0000 -375.0000
v 0.0000 575.0000 0.0000
v 0.0000 0.0000 54.5403
v -125.0000 0.0000 725.0000
v 54.5403 0.0000 0.0000
v 0.0000 -375.0000 0.0000
v 925.0000 0.0000 0.0000
v 0.0000 54.5403 0.0000
v 0.0000 0.0000 375.0000
v 0.0000 -825.0000 0.0000
v 0.0000 0.0000 54.5403
v 400.0000 0.0000 400.0000
v 54.5403 0.0000 0.0000
v 0.0000 1075.0000 0.0000
v -975.0000 0.0000 0.0000
v 0.0000 54.5403 0.0000
v 0.0000 0.0000 325.0000
v 0.0000 875.0000 0.0000
v 0.0000 0.0000 54.5403
v -500.0000 0.0000 -400.0000
v 54.5403 0.0000 0.0000
v 0.0000 -350.0000 0.0000
v -850.0000 0.0000 0.0000
v 0.0000 54.5403 0.0000
v 0.0000 0.0000 -350.0000
v 0.0000 -1300.0000 0.0000
v 0.0000 0.0000 54.5403
v -100.0000 0.0000 -1150.0000
v 54.5403 0.0000 0.0000
v 0.0000 225.0000 0.0000
v 125.0000 0.0000 0.0000
v 0.0000 54.5403 0.0000
v 0.0000 0.0000 175.0000
v 0.0000 -975.0000 0.0000
v 0.0000 0.0000 54.5403
v 350.0000 0.0000 -1300.0000
v 54.5403 0.0000 0.0000
v 0.0000 800.0000 0.0000
v -1300.0000 0.0000 0.0000
v 0.0000 54.5403 0.0000
v 0.0000 0.0000 1325.0000
v 0.0000 -825.0000 0.0000
v 0.0000 0.0000 54.5403
v 1075.0000 0.0000 -1425.0000
v 54.5403 0.0000 0.0000
v 0.0000 -175.0000 0.0000
v -575.0000 0.0000 0.0000
v 0.0000 54.5403 0.0000
v 0.0000 0.0000 175.0000
v 0.0000 -1425.0000 0.0000
v 0.0000 0.0000 54.5403
v 1275.0000 0.0000 -1625.0000
v 54.5403 0.0000 0.0000
v 0.0000 350.0000 0.0000
v -1150.0000 0.0000 0.0000
v 0.0000 54.5403 0.0000
v 0.0000 0.0000 -50.0000
v 0.0000 250.0000 0.0000
v 0.0000 0.0000 54.5403
v 800.0000 0.0000 -1150.0000
v 54.5403 0.0000 0.0000
v 0.0000 -150.0000 0.0000
v -1150.0000 0.0000 0.0000
v 0.0000 49.8898 0.0000
v 0.0000 0.0000 -300.0000
v 0.0000 -200.0000 0.0000
v 0.0000 0.0000 49.8898
v -350.0000 0.0000 -950.0000
v 49.8898 0.0000 0.0000
v 0.0000 -350.0000 0.0000
v -900.0000 0.0000 0.0000
v 0.0000 49.8898 0.0000
v 0.0000 0.0000 -350.0000
v 0.0000 -200.0000 0.0000
v 0.0000 0.0000 54.5403
v -375.0000 0.0000 525.0000
v 54.5403 0.0000 0.0000
v 0.0000 -175.0000 0.0000
v 725.0000 0.0000 0.0000
v 0.0000 54.5403 0.0000
v 0.0000 0.0000 -375.0000
v 0.0000 875.0000 0.0000
v 0.0000 0.0000 54.5403
v 325.0000 0.0000 -825.0000
v 54.5403 0.0000 0.0000
v 0.0000 -100.0000 0.0000
v 250.0000 0.0000 0.0000
v 0.0000 54.5403 0.0000
v 0.0000 0.0000 350.0000
v 0.0000 400.0000 0.0000
v 0.0000 0.0000 54.5403
v 1075.0000 0.0000 -1025.0000
v 54.5403 0.0000 0.0000
v 0.0000 275.0000 0.0000
v 875.0000 0.0000 0.0000
v 0.0000 54.5403 0.0000
v 0.0000 0.0000 -500.0000
v 0.0000 -450.0000 0.0000
v 0.0000 0.0000 54.5403
v -350.0000 0.0000 -1000.0000
v 54.5403 0.0000 0.0000
v 0.0000 -350.0000 0.0000
v -1350.0000 0.0000 0.0000
v 0.0000 54.5403 0.0000
v 0.0000 0.0000 -200.0000
v 0.0000 -1150.0000 0.0000
v 0.0000 0.0000 54.5403
v 225.0000 0.0000 75.0000
v 54.5403 0.0000 0.0000
v 0.0000 175.0000 0.0000
v -1025.0000 0.0000 0.0000
v 0.0000 54.5403 0.0000
v 0.0000 0.0000 300.0000
v 0.0000 -1300.0000 0.0000
v 0.0000 0.0000 54.5403
v 750.0000 0.0000 -1300.0000
v 54.5403 0.0000 0.0000
v 0.0000 1075.0000 0.0000
v -1475.0000 0.0000 0.0000
v 0.0000 54.5403 0.0000
v 0.0000 0.0000 1275.0000
v 0.0000 -825.0000 0.0000
v 0.0000 0.0000 54.5403
v -225.0000 0.0000 -575.0000
v 54.5403 0.0000 0.0000
v 0.0000 175.0000 0.0000
v -1475.0000 0.0000 0.0000
v 0.0000 54.5403 0.0000
v 0.0000 0.0000 1225.0000
v 0.0000 -1625.0000 0.0000
v 0.0000 0.0000 54.5403
v 300.0000 0.0000 -1150.0000
v 54.5403 0.0000 0.0000
v 0.0000 750.0000 0.0000
v -1150.0000 0.0000 0.0000
v 0.0000 54.5403 0.0000
v 0.0000 0.0000 475.0000
v 0.0000 -825.0000 0.0000
v 0.0000 0.0000 112.6676
v 425.0000 0.0000 875.0000
v 112.6676 0.0000 0.0000
v 0.0000 1425.0000 0.0000
v -825.0000 0.0000 0.0000
v 0.0000 112.6676 0.0000
v 0.0000 0.0000 175.0000
v 0.0000 -1575.0000 0.0000
v 0.0000 0.0000 112.6676
v -375.0000 0.0000 1025.0000
v 112.6676 0.0000 0.0000
v 0.0000 1375.0000 0.0000
v -1625.0000 0.0000 0.0000
v 0.0000 112.6676 0.0000
v 0.0000 0.0000 -75.0000
v 0.0000 -575.0000 0.0000
v 0.0000 0.0000 112.6676
v 500.0000 0.0000 400.0000
v 112.6676 0.0000 0.0000
v 0.0000 1075.0000 0.0000
v -1625.0000 0.0000 0.0000
v 0.0000 176.7767 0.0000
v 0.0000 0.0000 175.0000
v 0.0000 -825.0000 0.0000
v 0.0000 0.0000 176.7767
v -350.0000 0.0000 -1150.0000
v 176.7767 0.0000 0.0000
v -825.0000 0.0000 0.0000
v 0.0000 181.5909 0.0000
v 0.0000 -1150.0000 0.0000
v 0.0000 0.0000 181.5909
v 1075.0000 0.0000 -1625.0000
v 181.5909 0.0000 0.0000
v -1700.0000 0.0000 0.0000
v 0.0000 52.2873 0.0000
v 0.0000 325.0000 0.0000
v 0.0000 0.0000 52.2873
v -0.0000 0.0000 -575.0000
v 52.2873 0.0000 0.0000
v -500.0000 0.0000 0.0000
v 0.0000 52.2873 0.0000
v 0.0000 -650.0000 0.0000
v 0.0000 0.0000 52.2873
v -475.0000 0.0000 -1150.0000
v 52.2873 0.0000 0.0000
v -1575.0000 0.0000 0.0000
v 0.0000 52.2873 0.0000
v 0.0000 -1575.0000 0.0000
v 0.0000 0.0000 52.2873
v 175.0000 0.0000 -1650.0000
v 52.2873 0.0000 0.0000
v -825.0000 0.0000 0.0000
v 0.0000 52.2873 0.0000
v 0.0000 -825.0000 0.0000
v 0.0000 0.0000 52.2873
v -450.0000 0.0000 1025.0000
v 52.2873 0.0000 0.0000
v -900.0000 0.0000 0.0000
v 0.0000 52.2873 0.0000
v 0.0000 -700.0000 0.0000
v 0.0000 0.0000 52.2873
v 475.0000 0.0000 -750.0000
v 52.2873 0.0000 0.0000
v -825.0000 0.0000 0.0000
v 0.0000 52.2873 0.0000
v 0.0000 -900.0000 0.0000
v 0.0000 0.0000 52.2873
v 950.0000 0.0000 -1625.0000
v 52.2873 0.0000 0.0000
v -750.0000 0.0000 0.0000
v 0.0000 52.2873 0.0000
v 0.0000 -1625.0000 0.0000
v 0.0000 0.0000 52.2873
v 1375.0000 0.0000 -1550.0000
v 52.2873 0.0000 0.0000
v -1750.0000 0.0000 0.0000
v 0.0000 52.2873 0.0000
v 0.0000 1100.0000 0.0000
v 0.0000 0.0000 52.2873
v -300.0000 0.0000 1025.0000
v 52.2873 0.0000 0.0000
v 950.0000 0.0000 0.0000
v 0.0000 52.2873 0.0000
v 0.0000 800.0000 0.0000
v 0.0000 0.0000 52.2873
v 500.0000 0.0000 875.0000
v 52.2873 0.0000 0.0000
v 475.0000 0.0000 0.0000
v 0.0000 52.2873 0.0000
v 0.0000 400.0000 0.0000
v 0.0000 0.0000 52.2873
v 175.0000 0.0000 -825.0000
v 131.7915 0.0000 0.0000
v -1150.0000 0.0000 0.0000
v 0.0000 131.7915 0.0000
v 0.0000 -1625.0000 0.0000
v 0.0000 0.0000 131.7915
v -375.0000 0.0000 725.0000
v 215.0581 0.0000 0.0000
v 0.0000 -500.0000 0.0000
v -200.0000 0.0000 0.0000
v 0.0000 215.0581 0.0000
v 0.0000 0.0000 1075.0000
v 0.0000 -825.0000 0.0000
v 0.0000 0.0000 215.0581
v 1075.0000 0.0000 -825.0000
v 204.1112 0.0000 0.0000
v -200.0000 0.0000 0.0000
v 0.0000 204.1112 0.0000
v 0.0000 725.0000 0.0000
v 0.0000 0.0000 204.1112
v 900.0000 0.0000 -825.0000
v 35.4436 0.0000 0.0000
v -700.0000 0.0000 0.0000
v 0.0000 35.4436 0.0000
v 0.0000 -25.0000 0.0000
v 0.0000 0.0000 35.4436
v -500.0000 0.0000 -200.0000
v 220.7940 0.0000 0.0000
v -825.0000 0.0000 0.0000
v 0.0000 220.7940 0.0000
v 0.0000 -825.0000 0.0000
v 0.0000 0.0000 174.7720
v -375.0000 0.0000 725.0000
v 174.7720 0.0000 0.0000
v 725.0000 0.0000 0.0000
v 0.0000 220.7940 0.0000
v 0.0000 -200.0000 0.0000
v 0.0000 0.0000 183.8534
v 1000.0000 0.0000 -1225.0000
v 247.4874 0.0000 0.0000
v 0.0000 -425.0000 0.0000
v -650.0000 0.0000 0.0000
v 0.0000 247.4874 0.0000
v 0.0000 0.0000 -300.0000
v 0.0000 325.0000 0.0000
v 0.0000 0.0000 247.4874
v 75.0000 0.0000 800.0000
v 247.4874 0.0000 0.0000
v 325.0000 0.0000 0.0000
v 0.0000 260.0961 0.0000
v 0.0000 -650.0000 0.0000
v 0.0000 0.0000 260.0961
v 1000.0000 0.0000 -1225.0000
v 260.0961 0.0000 0.0000
v -1550.0000 0.0000 0.0000
v 0.0000 260.0961 0.0000
v 0.0000 800.0000 0.0000
v 0.0000 0.0000 260.0961
v 100.0000 0.0000 -1225.0000
v 260.0961 0.0000 0.0000
v -1225.0000 0.0000 0.0000
v 0.0000 260.0961 0.0000
v 0.0000 325.0000 0.0000
v 0.0000 0.0000 260.0961
v -125.0000 0.0000 400.0000
v 42.9418 0.0000 0.0000
v 250.0000 0.0000 0.0000
v 0.0000 42.9418 0.0000
v 0.0000 400.0000 0.0000
v 0.0000 0.0000 42.9418
v -475.0000 0.0000 400.0000
v 42.9418 0.0000 0.0000
v 250.0000 0.0000 0.0000
v 0.0000 42.9418 0.0000
v 0.0000 150.0000 0.0000
v 0.0000 0.0000 42.9418
v -225.0000 0.0000 150.0000
v 42.9418 0.0000 0.0000
v 150.0000 0.0000 0.0000
v 0.0000 42.9418 0.0000
v 0.0000 -1725.0000 0.0000
v 0.0000 0.0000 42.9418
v -500.0000 0.0000 -1725.0000
v 42.9418 0.0000 0.0000
v 875.0000 0.0000 0.0000
v 0.0000 42.9418 0.0000
v 0.0000 625.0000 0.0000
v 0.0000 0.0000 42.9418
v -600.0000 0.0000 -1475.0000
v 42.9418 0.0000 0.0000
v -1625.0000 0.0000 0.0000
v 0.0000 42.9418 0.0000
v 0.0000 -1625.0000 0.0000
v 0.0000 0.0000 42.9418
v -250.0000 0.0000 -1475.0000
v 42.9418 0.0000 0.0000
v -725.0000 0.0000 0.0000
v 0.0000 42.9418 0.0000
v 0.0000 -825.0000 0.0000
v 0.0000 0.0000 42.9418
v -350.0000 0.0000 -475.0000
v 42.9418 0.0000 0.0000
v -1300.0000 0.0000 0.0000
v 0.0000 42.9418 0.0000
v 0.0000 -1050.0000 0.0000
v 0.0000 0.0000 42.9418
v 250.0000 0.0000 725.0000
v 42.9418 0.0000 0.0000
v -1400.0000 0.0000 0.0000
v 0.0000 42.9418 0.0000
v 0.0000 -1400.0000 0.0000
v 0.0000 0.0000 42.9418
v 475.0000 0.0000 -1050.0000
v 42.9418 0.0000 0.0000
v -1400.0000 0.0000 0.0000
v 0.0000 42.9418 0.0000
v 0.0000 -1050.0000 0.0000
v 0.0000 0.0000 42.9418
v 625.0000 0.0000 -1050.0000
v 42.9418 0.0000 0.0000
v -1300.0000 0.0000 0.0000
v 0.0000 42.9418 0.0000
v 0.0000 -1400.0000 0.0000
v 0.0000 0.0000 42.9418
v -500.0000 0.0000 -1375.0000
v 42.9418 0.0000 0.0000
v 625.0000 0.0000 0.0000
v 0.0000 42.9418 0.0000
v 0.0000 975.0000 0.0000
v 0.0000 0.0000 42.9418
v 150.0000 0.0000 975.0000
v 42.9418 0.0000 0.0000
v 500.0000 0.0000 0.0000
v 0.0000 42.9418 0.0000
v 0.0000 500.0000 0.0000
v 0.0000 0.0000 42.9418
v 1175.0000 0.0000 -1150.0000
v 42.9418 0.0000 0.0000
v 500.0000 0.0000 0.0000
v 0.0000 42.9418 0.0000
v 0.0000 -1225.0000 0.0000
v 0.0000 0.0000 192.6175
v 100.0000 0.0000 -1225.0000
v 192.6175 0.0000 0.0000
v -1550.0000 0.0000 0.0000
v 0.0000 192.6175 0.0000
v 0.0000 325.0000 0.0000
v 0.0000 0.0000 192.6175
v 75.0000 0.0000 800.0000
v 192.6175 0.0000 0.0000
v -1225.0000 0.0000 0.0000
v 0.0000 192.6175 0.0000
v 0.0000 325.0000 0.0000
v 0.0000 0.0000 192.6175
v -425.0000 0.0000 -650.0000
v 192.7576 0.0000 0.0000
v 0.0000 200.0000 0.0000
v -225.0000 0.0000 0.0000
v 0.0000 486.3346 0.0000
v 0.0000 0.0000 100.0000
v 0.0000 -1225.0000 0.0000
v 0.0000 0.0000 250.6990
v 550.0000 0.0000 -1225.0000
v 250.3123 0.0000 0.0000
v 0.0000 150.0000 0.0000
v 325.0000 0.0000 0.0000
v 0.0000 249.2990 0.0000
v 0.0000 0.0000 -425.0000
v 0.0000 -1550.0000 0.0000
v 0.0000 0.0000 250.3123
v 800.0000 0.0000 0.0000
v 0.0000 30.0000 -0.0000
v 57.8792 0.0000 0.0000
v 1.0000 1.0000 1.0000
v 0.0667 0.0000 0.0000
v 0.0000 32.6933 -1.6000
v 56.8777 0.0000 0.0000
v 1.0000 1.0000 1.0000
v 0.1608 0.4627 0.0000
v 0.0000 28.5000 -0.0000
v 56.7032 0.0000 0.0000
v 1.0000 1.0000 1.0000
v 0.0000 0.0000 30.0000
v -0.0000 57.8792 0.0000
v 0.0000 1.0000 1.0000
v 1.0000 0.0000 0.0000
v 1.0000 0.0000 0.0000
v 30.0000 25.0000 57.8792
v 0.0000 0.0000 1.0000
v 1.0000 1.0000 0.0000
v 0.1608 0.4627 0.0000
v 0.0000 28.5000 -25.0000
v 56.7032 0.0000 0.0000
v 1.0000 1.0000 1.0000
v 28.5000 25.0000 56.7032
v 0.0000 0.0000 1.0000
v 1.0000 1.0000 0.0000
v 0.0000 0.0000 30.0000
v -25.0000 57.8792 0.0000
v 0.0000 1.0000 1.0000
v 1.0000 0.0000 0.0000
v 1.0000 0.0000 0.0000
v 30.0000 50.0000 57.8792
v 0.0000 0.0000 1.0000
v 1.0000 1.0000 0.0000
v 0.1608 0.4627 0.0000
v 0.0000 28.5000 -50.0000
v 56.7032 0.0000 0.0000
v 1.0000 1.0000 1.0000
v 0.0000 0.0000 41.1933
v -0.0000 60.1460 0.0000
v 0.0000 1.0000 1.0000
v 1.0000 0.0000 0.0000
v 0.9137 0.0000 0.0000
v 19.0000 50.1073 53.2825
v 0.0000 0.0000 1.0000
v 1.0000 1.0000 0.0000
v 0.9373 0.9216 0.0000
v 0.0000 0.0000 28.5000
v 50.0000 56.7032 0.0000
v 0.0000 1.0000 1.0000
v 1.0000 0.0000 0.0000
v 2.0078 1.0000 0.0000
v 0.0000 30.0000 -0.0000
v 57.8792 0.0000 0.0000
v 1.0000 1.0000 1.0000
v 0.0000 0.0000 30.0000
v -50.0000 57.8792 0.0000
v 0.0000 1.0000 1.0000
v 1.0000 0.0000 0.0000
v 1.0000 0.0000 0.0000
v 30.0000 75.0000 57.8792
v 0.0000 0.0000 1.0000
v 1.0000 1.0000 0.0000
v 2.0078 1.0000 0.0000
v 0.0000 30.0000 25.0000
v 57.8792 0.0000 0.0000
v 1.0000 1.0000 1.0000
v 0.0000 0.0000 28.5000
v -25.0000 56.7032 0.0000
v 0.0000 1.0000 1.0000
v 1.0000 0.0000 0.0000
v 0.0667 0.0000 0.0000
v 0.0000 0.0000 41.1933
v 75.0000 60.1460 0.0000
v 0.0000 1.0000 1.0000
v 1.0000 0.0000 0.0000
v 2.2000 0.0667 0.0000
v 0.0000 41.1933 -75.0000
v 60.1460 0.0000 0.0000
v 1.0000 1.0000 1.0000
v 28.5000 25.0000 56.7032
v 0.0000 0.0000 1.0000
v 1.0000 1.0000 0.0000
v 0.0000 0.0000 30.0000
v -75.0000 57.8792 0.0000
v 0.0000 1.0000 1.0000
v 1.0000 0.0000 0.0000
v 1.0000 0.0000 0.0000
v 30.0000 -25.0000 57.8792
v 0.0000 0.0000 1.0000
v 1.0000 1.0000 0.0000
v 2.0078 1.0000 0.0000
v 0.0000 30.0000 100.0000
v 57.8792 0.0000 0.0000
v 1.0000 1.0000 1.0000
v 0.0000 0.0000 30.0000
v -100.0000 57.8792 0.0000
v 0.0000 1.0000 1.0000
v 1.0000 0.0000 0.0000
v 1.0000 0.0000 0.0000
v 30.0000 50.0000 57.8792
v 0.0000 0.0000 1.0000
v 1.0000 1.0000 0.0000
v 0.1608 0.4627 0.0000
v 0.0000 28.5000 -50.0000
v 56.7032 0.0000 0.0000
v 1.0000 1.0000 1.0000
v 0.0000 41.1933 100.0000
v 60.1460 0.0000 0.0000
v 1.0000 1.0000 1.0000
v 0.0667 0.0000 0.0000
v 0.0000 0.0000 41.1933
v -100.0000 60.1460 0.0000
v 0.0000 1.0000 1.0000
v 1.0000 0.0000 0.0000
v 2.2000 0.0667 0.0000
v 0.0000 41.1933 -0.0000
v 60.1460 0.0000 0.0000
v 1.0000 1.0000 1.0000
v 28.5000 50.0000 56.7032
v 0.0000 0.0000 1.0000
v 1.0000 1.0000 0.0000
v 0.0000 0.0000 30.0000
v -0.0000 57.8792 0.0000
v 0.0000 1.0000 1.0000
v 1.0000 0.0000 0.0000
v 1.0000 0.0000 0.0000
v 30.0000 -50.0000 57.8792
v 0.0000 0.0000 1.0000
v 1.0000 1.0000 0.0000
v 2.0078 1.0000 0.0000
v 0.0000 30.0000 25.0000
v 57.8792 0.0000 0.0000
v 1.0000 1.0000 1.0000
v 0.0000 0.0000 30.0000
v -125.0000 57.8792 0.0000
v 0.0000 1.0000 1.0000
v 1.0000 0.0000 0.0000
v 0.4627 0.0000 0.0000
v 28.5000 75.0000 56.7032
v 0.0000 0.0000 1.0000
v 1.0000 1.0000 0.0000
v 0.1608 0.4627 0.0000
v 0.0000 28.5000 -75.0000
v 56.7032 0.0000 0.0000
v 1.0000 1.0000 1.0000
v 0.0000 41.1933 25.0000
v 60.1460 0.0000 0.0000
v 1.0000 1.0000 1.0000
v 0.0667 0.0000 0.0000
v 0.0000 0.0000 41.1933
v -125.0000 60.1460 0.0000
v 0.0000 1.0000 1.0000
v 1.0000 0.0000 0.0000
v 2.2000 0.0667 0.0000
v 0.0000 41.1933 -25.0000
v 60.1460 0.0000 0.0000
v 1.0000 1.0000 1.0000
v 0.0000 0.0000 41.1933
v 125.0000 60.1460 0.0000
v 0.0000 1.0000 1.0000
v 1.0000 0.0000 0.0000
v 1.0000 0.0000 0.0000
v 30.0000 -25.0000 57.8792
v 0.0000 0.0000 1.0000
v 1.0000 1.0000 0.0000
v 2.0078 1.0000 0.0000
v 0.0000 30.0000 125.0000
v 57.8792 0.0000 0.0000
v 1.0000 1.0000 1.0000
v 0.0000 0.0000 30.0000
v 75.0000 57.8792 0.0000
v 0.0000 1.0000 1.0000
v 1.0000 0.0000 0.0000
v 1.0000 0.0000 0.0000
v 30.0000 -75.0000 57.8792
v 0.0000 0.0000 1.0000
v 1.0000 1.0000 0.0000
v 0.0000 0.6196 0.0000
v 0.0000 32.5000 2.5000
v 32.5000 17.8536 0.0000
v 0.0000 1.0000 1.0000
v 1.0000 0.0000 0.0000
v 0.0000 0.0000 54.5000
v 0.0000 20.7425 0.0000
v 0.0000 1.0000 1.0000
v 1.0000 0.0000 0.0000
v 0.1451 0.6980 0.0000
v 0.0000 -0.0000 30.0000
v -0.0000 75.0000 0.0000
v 0.0000 1.0000 1.0000
v 1.0000 0.0000 0.0000
v 1.0000 0.0000 0.0000
v -22.0000 22.5000 -22.0000
v 42.0030 0.0000 0.0000
v 1.0000 1.0000 1.0000
v 0.0118 0.9922 0.0000
v 0.0000 0.0000 -4.5000
v 30.0000 -4.5000 69.0326
v 0.0000 0.0000 1.0000
v 1.0000 1.0000 0.0000
v 31.0000 0.0000 72.7255
v 0.0000 0.0000 1.0000
v 1.0000 1.0000 0.0000
v -2.5000 31.5000 -2.2956
v 63.0692 0.0000 0.0000
v 1.0000 1.0000 1.0000
v 10.0392 1.0000 0.0000
v 30.0000 0.0000 57.8792
v 0.0000 0.0000 1.0000
v 1.0000 1.0000 0.0000
v 32.6933 1.6000 56.8777
v 0.0000 0.0000 1.0000
v 1.0000 1.0000 0.0000
v 4.0157 -1.0039 0.0000
v 0.0000 0.0116 77.4916
v -0.0370 93.7361 0.0000
v 0.0000 1.0000 1.0000
v 1.0000 0.0000 0.0000
v 8.0314 1.0000 0.0000
v 26.7500 0.0000 106.6094
v 0.0000 0.0000 1.0000
v 1.0000 1.0000 0.0000
v 0.0000 55.0000 0.0702
v 109.8437 0.0000 0.0000
v 1.0000 1.0000 1.0000
v 0.0000 70.0000 -1.4547
v 191.0911 0.0000 0.0000
v 1.0000 1.0000 1.0000
v -0.0000 39.0000 13.0000
v 55.3082 0.0000 0.0000
v 1.0000 1.0000 1.0000
v 0.0000 0.0000 7.5000
v 112.5000 125.8471 0.0000
v 0.0000 1.0000 1.0000
v 1.0000 0.0000 0.0000
v 0.5647 0.0000 0.0000
v 70.0000 112.2802 143.8290
v 0.0000 0.0000 1.0000
v 1.0000 1.0000 0.0000
v 0.0000 0.0000 69.9500
v 101.0000 145.2859 0.0000
v 0.0000 1.0000 1.0000
v 1.0000 0.0000 0.0000
v 0.0000 201.5565 0.0000
v 0.0000 0.0000 150.0000
v 0.0000 1.0000 1.0000
v 1.0000 0.0000 0.0000
v -2.0078 0.0000 0.0000
v 0.0000 0.0000 -1.7574
v 36.5091 0.0000 0.0000
v 113.1000 5.0000 -75.0000
v 1.0000 1.0000 1.0000
v 0.0000 1.7574 36.5091
v 0.0000 0.0000 1.0000
v 1.0000 1.0000 0.0000
v 0.0000 1.0000 0.0000
v -112.3849 54.1685 -0.1610
v 178.1357 0.0000 0.0000
v 1.0000 1.0000 1.0000
v -77.9000 46.0000 -0.0000
v 186.9744 0.0000 0.0000
v 1.0000 1.0000 1.0000
v 0.0000 0.0000 70.0000
v -167.5825 102.7863 0.0000
v 0.0000 1.0000 1.0000
v 1.0000 0.0000 0.0000
v 1.0000 -0.6000 0.0000
v 0.0000 -77.9000 46.0000
v 0.0000 186.9744 0.0000
v 0.0000 1.0000 1.0000
v 1.0000 0.0000 0.0000
v -1.2667 0.0000 0.0000
v 94.9000 0.0000 130.1405
v 31.0000 0.0000 0.0000
v 0.0000 0.0000 1.0000
v 1.0000 1.0000 0.0000
v 1.0039 0.0000 0.0000
v -0.0000 70.0000 -166.5000
v 42.9244 0.0000 0.0000
v 0.0000 -40.0000 0.0000
v 1.0000 1.0000 1.0000
v 75.0000 -12.5000 218.3031
v 0.0000 0.0000 1.0000
v 1.0000 1.0000 0.0000
v 0.6196 0.0000 0.0000
v 91.5000 134.9600 0.0000
v 178.8946 0.0000 0.0000
v 1.0000 1.0000 1.0000
v 0.6196 0.0000 0.0000
v 91.5000 134.9600 0.0000
v 178.8946 0.0000 0.0000
v 1.0000 1.0000 1.0000
v 0.2471 0.0000 0.0000
v 21.5000 2.2500 30.8434
v 0.0000 0.0000 1.0000
v 1.0000 1.0000 0.0000
v -3.0118 0.0000 0.0000
v 0.0000 0.0000 75.0000
v 162.5000 146.3088 0.0000
v 0.0000 1.0000 1.0000
v 1.0000 0.0000 0.0000
v 1.0039 0.0000 0.0000
v 0.0000 70.0000 166.5825
v 102.8633 0.0000 0.0000
v 1.0000 1.0000 1.0000
v 0.0000 0.0000 125.0000
v 75.0000 0.0000 167.7051
v 0.0000 0.0000 1.0000
v 1.0000 1.0000 0.0000
v 112.3849 54.1685 -0.1610
v 178.1357 0.0000 0.0000
v 1.0000 1.0000 1.0000
v 0.0000 0.0000 101.5500
v 162.5000 134.6427 0.0000
v 0.0000 1.0000 1.0000
v 1.0000 0.0000 0.0000
v 1.0039 1.0000 0.0000
v 0.0000 0.0000 7.5000
v 162.5000 34.0755 0.0000
v 0.0000 1.0000 1.0000
v 1.0000 0.0000 0.0000
v 6.0235 0.6667 0.0000
v 0.0000 0.0000 35.0000
v 183.6602 126.8858 0.0000
v 0.0000 1.0000 1.0000
v 1.0000 0.0000 0.0000
v 0.6667 0.0000 0.0000
v 0.0000 53.6000 174.0451
v 125.0647 0.0000 0.0000
v 1.0000 1.0000 1.0000
v 70.0000 167.5825 102.7863
v 0.0000 0.0000 1.0000
v 1.0000 1.0000 0.0000
v 0.0000 125.0000 125.0000
v 0.0000 152.0690 0.0000
v 0.0000 1.0000 1.0000
v 1.0000 0.0000 0.0000
v 0.0000 -2.0078 0.0000
v -1.7574 36.5091 0.0000
v 0.0000 113.1000 5.0000
v 0.0000 1.0000 1.0000
v 1.0000 0.0000 0.0000
v 0.4549 0.0000 0.0000
v 0.0000 129.5150 52.5074
v 0.0000 128.8694 0.0000
v 0.0000 1.0000 1.0000
v 1.0000 0.0000 0.0000
v 0.4549 0.0000 0.0000
v 0.0000 129.5150 52.5074
v 0.0000 63.3943 0.0000
v 0.0000 1.0000 1.0000
v 1.0000 0.0000 0.0000
v 0.0980 0.0000 0.0000
v 0.0000 113.5036 80.3159
v 0.0051 44.1314 0.0000
v 0.0000 1.0000 1.0000
v 1.0000 0.0000 0.0000
v 113.5036 80.3159 -0.0000
v 117.6223 0.0000 0.0000
v 1.0000 1.0000 1.0000
v 1.0039 1.0000 0.0000
v 0.0000 133.0381 91.4543
v -0.1610 178.8061 0.0000
v 0.0000 1.0000 1.0000
v 1.0000 0.0000 0.0000
v 0.0000 1.0000 0.0000
v 0.0000 0.0000 20.0000
v 0.0000 185.2944 0.0000
v 0.0000 -0.0000 126.2437
v 0.0000 1.0000 1.0000
v 1.0000 0.0000 0.0000
v 79.7500 0.0005 260.0197
v -0.2000 -0.2000 0.0000
v 0.0000 0.0000 1.0000
v 1.0000 1.0000 0.0000
v 0.0000 149.0000 0.0000
v 134.4102 0.0000 0.0000
v 1.0000 1.0000 1.0000
v -1.2667 0.0000 0.0000
v 89.4000 0.0000 178.2548
v 20.0000 0.0000 0.0000
v 0.0000 0.0000 1.0000
v 1.0000 1.0000 0.0000
v 0.9529 -0.2902 0.0000
v 0.0000 0.0000 79.7500
v 0.0000 249.8102 0.0000
v 0.0000 1.0000 1.0000
v 1.0000 0.0000 0.0000
v -1.0039 0.0000 0.0000
v -0.0000 79.7499 -87.5000
v 211.2850 0.0000 0.0000
v 1.0000 1.0000 1.0000
v 0.2510 0.0000 0.0000
v 59.2000 0.0000 207.6532
v 0.0000 0.0000 1.0000
v 1.0000 1.0000 0.0000
v 1.0039 0.0000 0.0000
v -0.4200 79.7500 -87.5250
v 175.2385 0.0000 0.0000
v 1.0000 1.0000 1.0000
v 0.0000 1.0000 0.0000
v 0.0000 171.7750 59.5000
v 0.0000 137.6294 0.0000
v 0.0000 1.0000 1.0000
v 1.0000 0.0000 0.0000
v 1.0000 0.0000 0.0000
v 110.1000 0.0000 221.2993
v 0.0000 0.0000 1.0000
v 1.0000 1.0000 0.0000
v 0.0000 0.0000 145.0000
v 46.0000 0.0000 181.1646
v 0.0000 0.0000 1.0000
v 1.0000 1.0000 0.0000
v 0.0000 171.7750 59.5000
v 0.0000 137.6294 0.0000
v 0.0000 1.0000 1.0000
v 1.0000 0.0000 0.0000
v 1.0000 0.0000 0.0000
v 0.0000 145.0000 46.0000
v 0.0000 181.1646 0.0000
v 0.0000 1.0000 1.0000
v 1.0000 0.0000 0.0000
v 0.0000 1.0000 0.0000
v 66.0892 152.4662 64.4548
v 0.0000 0.0000 1.0000
v 1.0000 1.0000 0.0000
v 0.0353 0.0000 0.0000
v 33.5506 9.0234 45.2264
v 0.0000 0.0000 1.0000
v 1.0000 1.0000 0.0000
v 79.7499 87.5000 211.2850
v 0.0000 0.0000 1.0000
v 1.0000 1.0000 0.0000
v 0.0000 -0.4200 79.7500
v 87.5250 175.2385 0.0000
v 0.0000 1.0000 1.0000
v 1.0000 0.0000 0.0000
v 0.0000 66.0892 -152.4662
v 64.4548 0.0000 0.0000
v 1.0000 1.0000 1.0000
v 0.0000 -2.3412 0.0000
v 79.7499 92.5000 209.2638
v 0.0000 0.0000 1.0000
v 1.0000 1.0000 0.0000
v 63.1468 162.1725 131.7600
v 0.0000 0.0000 1.0000
v 1.0000 1.0000 0.0000
v 66.9000 185.0000 109.6176
v 0.0000 0.0000 1.0000
v 1.0000 1.0000 0.0000
v 1.0000 0.0000 0.0000
v 0.0000 -100.0000 137.5080
v -100.0000 369.3321 0.0000
v 0.0000 1.0000 1.0000
v 1.0000 0.0000 0.0000
v -2.0078 0.0000 0.0000
v 0.0000 -262.7631 43.0000
v -175.0000 53.9620 0.0000
v 0.0000 1.0000 1.0000
v 1.0000 0.0000 0.0000
v -262.0000 135.0000 -118.0000
v 307.6410 0.0000 0.0000
v 1.0000 1.0000 1.0000
v 0.0000 -98.0000 76.5000
v -112.5000 363.5622 0.0000
v 0.0000 1.0000 1.0000
v 1.0000 0.0000 0.0000
v -4.3176 0.0000 0.0000
v 0.0000 4.2500 95.0000
v 48.0000 653.1638 0.0000
v 0.0000 1.0000 1.0000
v 1.0000 0.0000 0.0000
v 1.0000 0.0000 0.0000
v 0.0000 -74.9388 111.5660
v -52.5000 186.3906 0.0000
v 0.0000 1.0000 1.0000
v 1.0000 0.0000 0.0000
v 0.0000 1.0000 0.0000
v 31.5000 -0.0000 18.6694
v 0.0000 0.0000 -12.0000
v 0.0000 -34.0000 0.0000
v 0.0000 0.0000 1.0000
v 1.0000 1.0000 0.0000
v 0.0000 0.0000 31.5000
v 0.0000 18.6694 0.0000
v 0.0000 -34.0000 0.0000
v -10.0000 0.0000 0.0000
v 0.0000 1.0000 1.0000
v 1.0000 0.0000 0.0000
v 0.0000 0.0000 31.5000
v 0.0000 17.5011 0.0000
v 0.0000 31.0000 0.0000
v 31.0000 0.0000 0.0000
v 0.0000 1.0000 1.0000
v 1.0000 0.0000 0.0000
v 0.1000 -0.0000 32.0782
v 0.0000 0.0000 1.0000
v 1.0000 1.0000 0.0000
v 0.0000 0.0000 0.1000
v 0.0000 32.0782 0.0000
v 0.0000 1.0000 1.0000
v 1.0000 0.0000 0.0000
v -1.0039 0.0000 0.0000
v 0.0000 0.1000 0.0000
v 53.8889 0.0000 0.0000
v 1.0000 1.0000 1.0000
v 0.1000 0.0000 77.6467
v 0.0000 0.0000 1.0000
v 1.0000 1.0000 0.0000
v 0.0000 -3.0118 0.0000
v 0.0000 0.0000 0.1000
v 0.0000 102.0000 0.0000
v 0.0000 1.0000 1.0000
v 1.0000 0.0000 0.0000
v -4.0157 0.0000 0.0000
v 0.0000 0.1000 0.0000
v 126.6057 0.0000 0.0000
v 1.0000 1.0000 1.0000
v 0.1000 0.0000 151.3407
v 0.0000 0.0000 1.0000
v 1.0000 1.0000 0.0000
v -0.0118 0.6980 0.0000
v 14.9500 0.1000 14.9500
v 49.5682 0.0000 0.0000
v 1.0000 1.0000 1.0000
v 0.0000 -0.0000 0.1000
v 0.0000 32.0782 0.0000
v 0.0000 1.0000 1.0000
v 1.0000 0.0000 0.0000
v 0.0000 52.5000 -0.0000
v 118.3480 0.0000 0.0000
v 1.0000 1.0000 1.0000
v 1.9765 -2.3529 0.0000
v 0.0000 0.0000 -15.0000
v 0.0000 142.2146 0.0000
v 0.0000 1.0000 1.0000
v 1.0000 0.0000 0.0000
v 2.9725 -1.9765 0.0000
v 0.0000 141.4213 0.0000
v 0.0000 1.0000 1.0000
v 1.0000 0.0000 0.0000
v 2.0078 -4.0510 0.0000
v 201.5565 0.0000 0.0000
v 1.0000 1.0000 1.0000
v 0.4706 -6.5569 0.0000
v 0.0000 247.4874 0.0000
v 0.0000 1.0000 1.0000
v 1.0000 0.0000 0.0000
v 1.1961 -5.6902 0.0000
v 0.0000 -100.0000 -120.3750
v 12.5000 486.3346 0.0000
v 0.0000 1.0000 1.0000
v 1.0000 0.0000 0.0000
v 24.0941 -3.0118 0.0000
v 0.0000 0.0000 -95.0000
v 0.0000 265.0943 0.0000
v 0.0000 1.0000 1.0000
v 1.0000 0.0000 0.0000
v 0.0000 -100.0000 0.0000
v 266.9269 0.0000 0.0000
v 1.0000 1.0000 1.0000
v 0.0000 0.0000 -95.0000
v 0.0000 265.0943 0.0000
v 0.0000 1.0000 1.0000
v 1.0000 0.0000 0.0000
v 2.6667 1.0000 0.0000
v 0.0000 0.0000 -97.5000
v 0.0000 266.0005 0.0000
v 0.0000 1.0000 1.0000
v 1.0000 0.0000 0.0000
v 2.1804 -4.0157 0.0000
v 0.0000 0.0000 -85.0000
v 0.0000 261.6773 0.0000
v 0.0000 1.0000 1.0000
v 1.0000 0.0000 0.0000
v 1.0000 0.0000 0.0000
v 0.0000 -100.0000 0.0000
v 266.9269 0.0000 0.0000
v 1.0000 1.0000 1.0000
v 0.3412 0.0000 0.0000
v 0.0000 0.0000 -1.0000
v 0.0000 106.0660 0.0000
v 0.0000 1.0000 1.0000
v 1.0000 0.0000 0.0000
v 0.3686 0.0000 0.0000
v 0.0000 0.0000 -1.0000
v 0.0000 134.3503 0.0000
v 0.0000 1.0000 1.0000
v 1.0000 0.0000 0.0000
v 10.0392 -3.0118 0.0000
v 0.0000 1.0000 1.0000
v 1.0000 0.0000 0.0000
v 0.0196 0.4980 0.0000
v 0.0000 0.0000 -1925.5786
v 360.3708 0.0000 985.4655
v 0.0000 0.0000 1.0000
v 1.0000 1.0000 0.0000
v 0.8314 0.0000 0.0000
v 0.0000 0.0000 31.5000
v 0.8500 51.3191 0.0000
v 0.0000 1.0000 1.0000
v 0.7647 0.0000 0.0000
v -2247.7336 -177.1896 -3061.1211
v 870.1963 0.0000 0.0000
v 1.0000 1.0000 1.0000
v 244.9929 97.8127 456.3930
v 380.0618 0.0000 0.0000
v 1.0000 1.0000 1.0000
v 0.8314 0.0000 0.0000
v 0.0000 0.0000 31.5000
v -0.1500 50.2091 0.0000
v 0.0000 1.0000 1.0000
v 1.0000 0.0000 0.0000
v 1.0000 0.0000 0.0000
v 0.0000 244.9929 97.8127
v 456.3929 380.0618 0.0000
v 0.0000 1.0000 1.0000
v 1.0000 0.0000 0.0000
v 0.5020 1.0000 0.0000
v 0.0000 0.0000 271.0582
v 48.8127 171.6683 328.1060
v 0.0000 0.0000 1.0000
v 1.0000 1.0000 0.0000
v 0.0000 31.5000 -25.1500
v 50.2091 0.0000 0.0000
v 1.0000 1.0000 1.0000
v -98.9774 -16.6378 232.6666
v 264.1075 0.0000 0.0000
v 1.0000 1.0000 1.0000
v 1.0000 0.0000 0.0000
v 0.0000 -100.9774 -16.6378
v 231.1667 264.8260 0.0000
v 0.0000 1.0000 1.0000
v 1.0000 0.0000 0.0000
v 0.9882 0.9137 0.0000
v 0.0000 19.0000 25.1074
v 53.2825 0.0000 0.0000
v 1.0000 1.0000 1.0000
v -98.9774 -16.6378 232.4245
v 266.5603 0.0000 0.0000
v 1.0000 1.0000 1.0000
v 0.8314 0.0000 0.0000
v 0.0000 0.0000 31.5000
v -50.1500 50.2091 0.0000
v 0.0000 1.0000 1.0000
v 1.0000 0.0000 0.0000
v 0.9843 0.0000 0.0000
v 0.0000 -0.0000 19.0000
v -1.6075 52.7835 0.0000
v 0.0000 1.0000 1.0000
v 1.0000 0.0000 0.0000
v 0.8314 0.0000 0.0000
v 0.0000 0.0000 31.5000
v -25.1500 50.2091 0.0000
v 0.0000 1.0000 1.0000
v 1.0000 0.0000 0.0000
v 0.9137 0.0000 0.0000
v 19.0000 75.1073 53.2825
v 0.0000 0.0000 1.0000
v 1.0000 1.0000 0.0000
v 0.0235 0.8314 0.0000
v 31.5000 -74.1500 51.3191
v 0.0000 0.0000 1.0000
v 1.0000 1.0000 0.0000
v 0.9882 0.9137 0.0000
v 0.0000 19.0000 25.1074
v 53.2825 0.0000 0.0000
v 1.0000 1.0000 1.0000
v 0.0000 31.5000 -50.1500
v 50.2091 0.0000 0.0000
v 1.0000 1.0000 1.0000
v 0.0000 0.0000 19.0000
v 100.1073 53.2825 0.0000
v 0.0000 1.0000 1.0000
v 1.0000 0.0000 0.0000
v 0.9137 0.0000 0.0000
v 19.0000 -99.8926 53.2825
v 0.0000 0.0000 1.0000
v 1.0000 1.0000 0.0000
v 0.0235 0.8314 0.0000
v 31.5000 0.8500 51.3191
v 0.0000 0.0000 1.0000
v 1.0000 1.0000 0.0000
v 0.9882 0.9137 0.0000
v 0.0000 19.0000 50.1073
v 53.2825 0.0000 0.0000
v 1.0000 1.0000 1.0000
v 0.0000 31.5000 74.8500
v 50.2091 0.0000 0.0000
v 1.0000 1.0000 1.0000
v 0.0000 31.5000 -75.1500
v 50.2091 0.0000 0.0000
v 1.0000 1.0000 1.0000
v 0.0000 0.0000 19.0000
v 25.1074 53.2825 0.0000
v 0.0000 1.0000 1.0000
v 1.0000 0.0000 0.0000
v 0.9137 0.0000 0.0000
v 19.0000 -124.8926 53.2825
v 0.0000 0.0000 1.0000
v 1.0000 1.0000 0.0000
v 0.0235 0.8314 0.0000
v 31.5000 -24.1500 51.3191
v 0.0000 0.0000 1.0000
v 1.0000 1.0000 0.0000
v 0.0235 0.8314 0.0000
v 31.5000 125.8500 51.3191
v 0.0000 0.0000 1.0000
v 1.0000 1.0000 0.0000
v 0.5020 0.4980 0.0000
v 0.0000 0.0000 3.1877
v 28.0000 3.1877 64.1653
v 0.0000 0.0000 1.0000
v 1.0000 1.0000 0.0000
v -2.5000 31.5000 -2.2956
v 58.5809 0.0000 0.0000
v 1.0000 1.0000 1.0000
v 0.9843 0.0000 0.0000
v 0.0000 -0.0000 19.0000
v 1.6074 52.7835 0.0000
v 0.0000 1.0000 1.0000
v 1.0000 0.0000 0.0000
v 1.0000 0.0000 0.0000
v 0.0180 41.2330 -0.1000
v 74.6505 0.0000 0.0000
v 1.0000 1.0000 1.0000
v 0.0000 0.0000 51.4058
v 0.0000 51.2308 73.1844
v 0.0000 0.0000 -51.4058
v 11.5000 -51.2058 0.0000
v 0.0000 0.0000 1.0000
v 1.0000 1.0000 0.0000
v 0.0000 0.0000 40.7500
v 0.0000 85.5697 0.0000
v 0.0000 1.0000 1.0000
v 1.0000 0.0000 0.0000
v 1.0039 1.0000 0.0000
v 0.0000 0.0000 79.6200
v 0.2016 127.8973 0.0000
v 0.0000 1.0000 1.0000
v 1.0000 0.0000 0.0000
v 0.0000 1.0000 0.0000
v 0.0000 0.0506 41.5000
v 0.0000 122.3908 0.0000
v 0.0000 1.0000 1.0000
v 1.0000 0.0000 0.0000
v 1.0000 0.0000 0.0000
v 0.0000 41.5000 117.7336
v 33.1097 0.0000 0.0000
v 1.0000 1.0000 1.0000
v 0.0000 0.5000 117.0000
v 0.0000 132.6624 0.0000
v 0.0000 0.0000 20.0000
v 0.0000 1.0000 1.0000
v 1.0000 0.0000 0.0000
v 104.9529 1505.8474 0.0000
v 0.0000 1.0000 1.0000
v 0.9882 0.0000 0.0000
v -1633.7177 -54.8760 -277.9579
v 1360.9501 0.0000 0.0000
v 1.0000 1.0000 1.0000
v 1.0000 0.0000 0.0000
v 0.0000 0.0000 -840.0001
v 106.0812 0.0000 905.0700
v 0.0000 0.0000 -1800.0000
v 0.0000 0.0000 1.0000
v 1.0000 1.0000 0.0000
v 1.0000 0.0000 0.0000
v 0.0000 0.0000 -840.0001
v -591.8398 -0.8987 912.5521
v 0.0000 0.0000 1.0000
v 1.0000 1.0000 0.0000
v 0.0000 0.0000 -123.5713
v 237.7390 0.0000 864.0442
v 0.0000 0.0000 -1800.0000
v 0.0000 0.0000 1.0000
v 1.0000 1.0000 0.0000
v 0.0000 0.0000 -348.6125
v -357.7606 -69.3635 754.8968
v 0.0000 0.0000 1.0000
v 1.0000 1.0000 0.0000
v 1.0000 0.0000 0.0000
v 0.0000 0.0000 -2721.1724
v 301.5813 0.0000 1741.9634
v 0.0000 0.0000 1.0000
v 1.0000 1.0000 0.0000
v 0.0000 0.0000 1.0000
v 1.0000 1.0000 0.0000
v 1.0000 1.0000 1.0000
v 0.0000 0.8643 1.0000
v 0.8643 0.0000 0.8346
v 1.0000 0.8346 0.0000
v 0.8260 1.0000 0.8260
v 0.0000 0.8289 1.0000
v 0.8289 0.0000 0.9306
v 1.0000 0.9306 0.0000
v 1.0000 1.0000 1.0000
v 0.0000 0.0000 0.2559
vn 0.0000 1.0000 0.0000
vn 0.0000 1.0000 0.0000
vn 0.0000 1.0000 0.0000
vn 0.0000 1.0000 0.0000
vn 0.0000 1.0000 0.0000
vn 0.0000 1.0000 0.0000
vn 0.0000 1.0000 0.0000
vn 0.0000 1.0000 0.0000
vn 0.0000 1.0000 0.0000
vn 0.0000 1.0000 0.0000
vn 0.0000 1.0000 0.0000
vn 0.0000 1.0000 0.0000
vn 0.0000 1.0000 0.0000
vn 0.0000 1.0000 0.0000
vn 0.0000 1.0000 0.0000
vn 0.0000 1.0000 0.0000
vn 0.0000 1.0000 0.0000
vn 0.0000 1.0000 0.0000
vn 0.0000 1.0000 0.0000
vn 0.0000 1.0000 0.0000
vn 0.0000 1.0000 0.0000
vn 0.0000 1.0000 0.0000
vn 0.0000 1.0000 0.0000
vn 0.0000 1.0000 0.0000
vn 0.0000 1.0000 0.0000
vn 0.0000 1.0000 0.0000
vn 0.0000 1.0000 0.0000
vn 0.0000 1.0000 0.0000
vn 0.0000 1.0000 0.0000
vn 0.0000 1.0000 0.0000
vn 0.0000 1.0000 0.0000
vn 0.0000 1.0000 0.0000
vn 0.0000 1.0000 0.0000
vn 0.0000 1.0000 0.0000
vn 0.0000 1.0000 0.0000
vn 0.0000 1.0000 0.0000
vn 0.0000 1.0000 0.0000
vn 0.0000 1.0000 0.0000
vn 0.0000 1.0000 0.0000
vn 0.0000 1.0000 0.0000
vn 0.0000 1.0000 0.0000
vn 0.0000 1.0000 0.0000
vn 0.0000 1.0000 0.0000
vn 0.0000 1.0000 0.0000
vn 0.0000 1.0000 0.0000
vn 0.0000 1.0000 0.0000
vn 0.0000 1.0000 0.0000
vn 0.0000 1.0000 0.0000
vn 0.0000 1.0000 0.0000
vn 0.0000 1.0000 0.0000
vn 0.0000 1.0000 0.0000
vn 0.0000 1.0000 0.0000
vn 0.0000 1.0000 0.0000
vn 0.0000 1.0000 0.0000
vn 0.0000 1.0000 0.0000
vn 0.0000 1.0000 0.0000
vn 0.0000 1.0000 0.0000
vn 0.0000 1.0000 0.0000
vn 0.0000 1.0000 0.0000
vn 0.0000 1.0000 0.0000
vn 0.0000 1.0000 0.0000
vn 0.0000 1.0000 0.0000
vn 0.0000 1.0000 0.0000
vn 0.0000 1.0000 0.0000
vn 0.0000 1.0000 0.0000
vn 0.0000 1.0000 0.0000
vn 0.0000 1.0000 0.0000
vn 0.0000 1.0000 0.0000
vn 0.0000 1.0000 0.0000
vn 0.0000 1.0000 0.0000
vn 0.0000 1.0000 0.0000
vn 0.0000 1.0000 0.0000
vn 0.0000 1.0000 0.0000
vn 0.0000 1.0000 0.0000
vn 0.0000 1.0000 0.0000
vn 0.0000 1.0000 0.0000
vn 0.0000 1.0000 0.0000
vn 0.0000 1.0000 0.0000
vn 0.0000 1.0000 0.0000
vn 0.0000 1.0000 0.0000
vn 0.0000 1.0000 0.0000
vn 0.0000 1.0000 0.0000
vn 0.0000 1.0000 0.0000
vn 0.0000 1.0000 0.0000
vn 0.0000 1.0000 0.0000
vn 0.0000 1.0000 0.0000
vn 0.0000 1.0000 0.0000
vn 0.0000 1.0000 0.0000
vn 0.0000 1.0000 0.0000
vn 0.0000 1.0000 0.0000
vn 0.0000 1.0000 0.0000
vn 0.0000 1.0000 0.0000
vn 0.0000 1.0000 0.0000
vn 0.0000 1.0000 0.0000
vn 0.0000 1.0000 0.0000
vn 0.0000 1.0000 0.0000
vn 0.0000 1.0000 0.0000
vn 0.0000 1.0000 0.0000
vn 0.0000 1.0000 0.0000
vn 0.0000 1.0000 0.0000
vn 0.0000 1.0000 0.0000
vn 0.0000 1.0000 0.0000
vn 0.0000 1.0000 0.0000
vn 0.0000 1.0000 0.0000
vn 0.0000 1.0000 0.0000
vn 0.0000 1.0000 0.0000
vn 0.0000 1.0000 0.0000
vn 0.0000 1.0000 0.0000
vn 0.0000 1.0000 0.0000
vn 0.0000 1.0000 0.0000
vn 0.0000 1.0000 0.0000
vn 0.0000 1.0000 0.0000
vn 0.0000 1.0000 0.0000
vn 0.0000 1.0000 0.0000
vn 0.0000 1.0000 0.0000
vn 0.0000 1.0000 0.0000
vn 0.0000 1.0000 0.0000
vn 0.0000 1.0000 0.0000
vn 0.0000 1.0000 0.0000
vn 0.0000 1.0000 0.0000
vn 0.0000 1.0000 0.0000
vn 0.0000 1.0000 0.0000
vn 0.0000 1.0000 0.0000
vn 0.0000 1.0000 0.0000
vn 0.0000 1.0000 0.0000
vn 0.0000 1.0000 0.0000
vn 0.0000 1.0000 0.0000
vn 0.0000 1.0000 0.0000
vn 0.0000 1.0000 0.0000
vn 0.0000 1.0000 0.0000
vn 0.0000 1.0000 0.0000
vn 0.0000 1.0000 0.0000
vn 0.0000 1.0000 0.0000
vn 0.0000 1.0000 0.0000
vn 0.0000 1.0000 0.0000
vn 0.0000 1.0000 0.0000
vn 0.0000 1.0000 0.0000
vn 0.0000 1.0000 0.0000
vn 0.0000 1.0000 0.0000
vn 0.0000 1.0000 0.0000
vn 0.0000 1.0000 0.0000
vn 0.0000 1.0000 0.0000
vn 0.0000 1.0000 0.0000
vn 0.0000 1.0000 0.0000
vn 0.0000 1.0000 0.0000
vn 0.0000 1.0000 0.0000
vn 0.0000 1.0000 0.0000
vn 0.0000 1.0000 0.0000
vn 0.0000 1.0000 0.0000
vn 0.0000 1.0000 0.0000
vn 0.0000 1.0000 0.0000
vn 0.0000 1.0000 0.0000
vn 0.0000 1.0000 0.0000
vn 0.0000 1.0000 0.0000
vn 0.0000 1.0000 0.0000
vn 0.0000 1.0000 0.0000
vn 0.0000 1.0000 0.0000
vn 0.0000 1.0000 0.0000
vn 0.0000 1.0000 0.0000
vn 0.0000 1.0000 0.0000
vn 0.0000 1.0000 0.0000
vn 0.0000 1.0000 0.0000
vn 0.0000 1.0000 0.0000
vn 0.0000 1.0000 0.0000
vn 0.0000 1.0000 0.0000
vn 0.0000 1.0000 0.0000
vn 0.0000 1.0000 0.0000
vn 0.0000 1.0000 0.0000
vn 0.0000 1.0000 0.0000
vn 0.0000 1.0000 0.0000
vn 0.0000 1.0000 0.0000
vn 0.0000 1.0000 0.0000
vn 0.0000 1.0000 0.0000
vn 0.0000 1.0000 0.0000
vn 0.0000 1.0000 0.0000
vn 0.0000 1.0000 0.0000
vn 0.0000 1.0000 0.0000
vn 0.0000 1.0000 0.0000
vn 0.0000 1.0000 0.0000
vn 0.0000 1.0000 0.0000
vn 0.0000 1.0000 0.0000
vn 0.0000 1.0000 0.0000
vn 0.0000 1.0000 0.0000
vn 0.0000 1.0000 0.0000
vn 0.0000 1.0000 0.0000
vn 0.0000 1.0000 0.0000
vn 0.0000 1.0000 0.0000
vn 0.0000 1.0000 0.0000
vn 0.0000 1.0000 0.0000
vn 0.0000 1.0000 0.0000
vn 0.0000 1.0000 0.0000
vn 0.0000 1.0000 0.0000
vn 0.0000 1.0000 0.0000
vn 0.0000 1.0000 0.0000
vn 0.0000 1.0000 0.0000
vn 0.0000 1.0000 0.0000
vn 0.0000 1.0000 0.0000
vn 0.0000 1.0000 0.0000
vn 0.0000 1.0000 0.0000
vn 0.0000 1.0000 0.0000
vn 0.0000 1.0000 0.0000
vn 0.0000 1.0000 0.0000
vn 0.0000 1.0000 0.0000
vn 0.0000 1.0000 0.0000
vn 0.0000 1.0000 0.0000
vn 0.0000 1.0000 0.0000
vn 0.0000 1.0000 0.0000
vn 0.0000 1.0000 0.0000
vn 0.0000 1.0000 0.0000
vn 0.0000 1.0000 0.0000
vn 0.0000 1.0000 0.0000
vn 0.0000 1.0000 0.0000
vn 0.0000 1.0000 0.0000
vn 0.0000 1.0000 0.0000
vn 0.0000 1.0000 0.0000
vn 0.0000 1.0000 0.0000
vn 0.0000 1.0000 0.0000
vn 0.0000 1.0000 0.0000
vn 0.0000 1.0000 0.0000
vn 0.0000 1.0000 0.0000
vn 0.0000 1.0000 0.0000
vn 0.0000 1.0000 0.0000
vn 0.0000 1.0000 0.0000
vn 0.0000 1.0000 0.0000
vn 0.0000 1.0000 0.0000
vn 0.0000 1.0000 0.0000
vn 0.0000 1.0000 0.0000
vn 0.0000 1.0000 0.0000
vn 0.0000 1.0000 0.0000
vn 0.0000 1.0000 0.0000
vn 0.0000 1.0000 0.0000
vn 0.0000 1.0000 0.0000
vn 0.0000 1.0000 0.0000
vn 0.0000 1.0000 0.0000
vn 0.0000 1.0000 0.0000
vn 0.0000 1.0000 0.0000
vn 0.0000 1.0000 0.0000
vn 0.0000 1.0000 0.0000
vn 0.0000 1.0000 0.0000
vn 0.0000 1.0000 0.0000
vn 0.0000 1.0000 0.0000
vn 0.0000 1.0000 0.0000
vn 0.0000 1.0000 0.0000
vn 0.0000 1.0000 0.0000
vn 0.0000 1.0000 0.0000
vn 0.0000 1.0000 0.0000
vn 0.0000 1.0000 0.0000
vn 0.0000 1.0000 0.0000
vn 0.0000 1.0000 0.0000
vn 0.0000 1.0000 0.0000
vn 0.0000 1.0000 0.0000
vn 0.0000 1.0000 0.0000
vn 0.0000 1.0000 0.0000
vn 0.0000 1.0000 0.0000
vn 0.0000 1.0000 0.0000
vn 0.0000 1.0000 0.0000
vn 0.0000 1.0000 0.0000
vn 0.0000 1.0000 0.0000
vn 0.0000 1.0000 0.0000
vn 0.0000 1.0000 0.0000
vn 0.0000 1.0000 0.0000
vn 0.0000 1.0000 0.0000
vn 0.0000 1.0000 0.0000
vn 0.0000 1.0000 0.0000
vn 0.0000 1.0000 0.0000
vn 0.0000 1.0000 0.0000
vn 0.0000 1.0000 0.0000
vn 0.0000 1.0000 0.0000
vn 0.0000 1.0000 0.0000
vn 0.0000 1.0000 0.0000
vn 0.0000 1.0000 0.0000
vn 0.0000 1.0000 0.0000
vn 0.0000 1.0000 0.0000
vn 0.0000 1.0000 0.0000
vn 0.0000 1.0000 0.0000
vn 0.0000 1.0000 0.0000
vn 0.0000 1.0000 0.0000
vn 0.0000 1.0000 0.0000
vn 0.0000 1.0000 0.0000
vn 0.0000 1.0000 0.0000
vn 0.0000 1.0000 0.0000
vn 0.0000 1.0000 0.0000
vn 0.0000 1.0000 0.0000
vn 0.0000 1.0000 0.0000
vn 0.0000 1.0000 0.0000
vn 0.0000 1.0000 0.0000
vn 0.0000 1.0000 0.0000
vn 0.0000 1.0000 0.0000
vn 0.0000 1.0000 0.0000
vn 0.0000 1.0000 0.0000
vn 0.0000 1.0000 0.0000
vn 0.0000 1.0000 0.0000
vn 0.0000 1.0000 0.0000
vn 0.0000 1.0000 0.0000
vn 0.0000 1.0000 0.0000
vn 0.0000 1.0000 0.0000
vn 0.0000 1.0000 0.0000
vn 0.0000 1.0000 0.0000
vn 0.0000 1.0000 0.0000
vn 0.0000 1.0000 0.0000
vn 0.0000 1.0000 0.0000
vn 0.0000 1.0000 0.0000
vn 0.0000 1.0000 0.0000
vn 0.0000 1.0000 0.0000
vn 0.0000 1.0000 0.0000
vn 0.0000 1.0000 0.0000
vn 0.0000 1.0000 0.0000
vn 0.0000 1.0000 0.0000
vn 0.0000 1.0000 0.0000
vn 0.0000 1.0000 0.0000
vn 0.0000 1.0000 0.0000
vn 0.0000 1.0000 0.0000
vn 0.0000 1.0000 0.0000
vn 0.0000 1.0000 0.0000
vn 0.0000 1.0000 0.0000
vn 0.0000 1.0000 0.0000
vn 0.0000 1.0000 0.0000
vn 0.0000 1.0000 0.0000
vn 0.0000 1.0000 0.0000
vn 0.0000 1.0000 0.0000
vn 0.0000 1.0000 0.0000
vn 0.0000 1.0000 0.0000
vn 0.0000 1.0000 0.0000
vn 0.0000 1.0000 0.0000
vn 0.0000 1.0000 0.0000
vn 0.0000 1.0000 0.0000
vn 0.0000 1.0000 0.0000
vn 0.0000 1.0000 0.0000
vn 0.0000 1.0000 0.0000
vn 0.0000 1.0000 0.0000
vn 0.0000 1.0000 0.0000
vn 0.0000 1.0000 0.0000
vn 0.0000 1.0000 0.0000
vn 0.0000 1.0000 0.0000
vn 0.0000 1.0000 0.0000
vn 0.0000 1.0000 0.0000
vn 0.0000 1.0000 0.0000
vn 0.0000 1.0000 0.0000
vn 0.0000 1.0000 0.0000
vn 0.0000 1.0000 0.0000
vn 0.0000 1.0000 0.0000
vn 0.0000 1.0000 0.0000
vn 0.0000 1.0000 0.0000
vn 0.0000 1.0000 0.0000
vn 0.0000 1.0000 0.0000
vn 0.0000 1.0000 0.0000
vn 0.0000 1.0000 0.0000
vn 0.0000 1.0000 0.0000
vn 0.0000 1.0000 0.0000
vn 0.0000 1.0000 0.0000
vn 0.0000 1.0000 0.0000
vn 0.0000 1.0000 0.0000
vn 0.0000 1.0000 0.0000
vn 0.0000 1.0000 0.0000
vn 0.0000 1.0000 0.0000
vn 0.0000 1.0000 0.0000
vn 0.0000 1.0000 0.0000
vn 0.0000 1.0000 0.0000
vn 0.0000 1.0000 0.0000
vn 0.0000 1.0000 0.0000
vn 0.0000 1.0000 0.0000
vn 0.0000 1.0000 0.0000
vn 0.0000 1.0000 0.0000
vn 0.0000 1.0000 0.0000
vn 0.0000 1.0000 0.0000
vn 0.0000 1.0000 0.0000
vn 0.0000 1.0000 0.0000
vn 0.0000 1.0000 0.0000
vn 0.0000 1.0000 0.0000
vn 0.0000 1.0000 0.0000
vn 0.0000 1.0000 0.0000
vn 0.0000 1.0000 0.0000
vn 0.0000 1.0000 0.0000
vn 0.0000 1.0000 0.0000
vn 0.0000 1.0000 0.0000
vn 0.0000 1.0000 0.0000
vn 0.0000 1.0000 0.0000
vn 0.0000 1.0000 0.0000
vn 0.0000 1.0000 0.0000
vn 0.0000 1.0000 0.0000
vn 0.0000 1.0000 0.0000
vn 0.0000 1.0000 0.0000
vn 0.0000 1.0000 0.0000
vn 0.0000 1.0000 0.0000
vn 0.0000 1.0000 0.0000
vn 0.0000 1.0000 0.0000
vn 0.0000 1.0000 0.0000
vn 0.0000 1.0000 0.0000
vn 0.0000 1.0000 0.0000
vn 0.0000 1.0000 0.0000
vn 0.0000 1.0000 0.0000
vn 0.0000 1.0000 0.0000
vn 0.0000 1.0000 0.0000
vn 0.0000 1.0000 0.0000
vn 0.0000 1.0000 0.0000
vn 0.0000 1.0000 0.0000
vn 0.0000 1.0000 0.0000
vn 0.0000 1.0000 0.0000
vn 0.0000 1.0000 0.0000
vn 0.0000 1.0000 0.0000
vn 0.0000 1.0000 0.0000
vn 0.0000 1.0000 0.0000
vn 0.0000 1.0000 0.0000
vn 0.0000 1.0000 0.0000
vn 0.0000 1.0000 0.0000
vn 0.0000 1.0000 0.0000
vn 0.0000 1.0000 0.0000
vn 0.0000 1.0000 0.0000
vn 0.0000 1.0000 0.0000
vn 0.0000 1.0000 0.0000
vn 0.0000 1.0000 0.0000
vn 0.0000 1.0000 0.0000
vn 0.0000 1.0000 0.0000
vn 0.0000 1.0000 0.0000
vn 0.0000 1.0000 0.0000
vn 0.0000 1.0000 0.0000
vn 0.0000 1.0000 0.0000
vn 0.0000 1.0000 0.0000
vn 0.0000 1.0000 0.0000
vn 0.0000 1.0000 0.0000
vn 0.0000 1.0000 0.0000
vn 0.0000 1.0000 0.0000
vn 0.0000 1.0000 0.0000
vn 0.0000 1.0000 0.0000
vn 0.0000 1.0000 0.0000
vn 0.0000 1.0000 0.0000
vn 0.0000 1.0000 0.0000
vn 0.0000 1.0000 0.0000
vn 0.0000 1.0000 0.0000
vn 0.0000 1.0000 0.0000
vn 0.0000 1.0000 0.0000
vn 0.0000 1.0000 0.0000
vn 0.0000 1.0000 0.0000
vn 0.0000 1.0000 0.0000
vn 0.0000 1.0000 0.0000
vn 0.0000 1.0000 0.0000
vn 0.0000 1.0000 0.0000
vn 0.0000 1.0000 0.0000
vn 0.0000 1.0000 0.0000
vn 0.0000 1.0000 0.0000
vn 0.0000 1.0000 0.0000
vn 0.0000 1.0000 0.0000
vn 0.0000 1.0000 0.0000
vn 0.0000 1.0000 0.0000
vn 0.0000 1.0000 0.0000
vn 0.0000 1.0000 0.0000
vn 0.0000 1.0000 0.0000
vn 0.0000 1.0000 0.0000
vn 0.0000 1.0000 0.0000
vn 0.0000 1.0000 0.0000
vn 0.0000 1.0000 0.0000
vn 0.0000 1.0000 0.0000
vn 0.0000 1.0000 0.0000
vn 0.0000 1.0000 0.0000
vn 0.0000 1.0000 0.0000
vn 0.0000 1.0000 0.0000
vn 0.0000 1.0000 0.0000
vn 0.0000 1.0000 0.0000
vn 0.0000 1.0000 0.0000
vn 0.0000 1.0000 0.0000
vn 0.0000 1.0000 0.0000
vn 0.0000 1.0000 0.0000
vn 0.0000 1.0000 0.0000
vn 0.0000 1.0000 0.0000
vn 0.0000 1.0000 0.0000
vn 0.0000 1.0000 0.0000
vn 0.0000 1.0000 0.0000
vn 0.0000 1.0000 0.0000
vn 0.0000 1.0000 0.0000
vn 0.0000 1.0000 0.0000
vn 0.0000 1.0000 0.0000
vn 0.0000 1.0000 0.0000
vn 0.0000 1.0000 0.0000
vn 0.0000 1.0000 0.0000
vn 0.0000 1.0000 0.0000
vn 0.0000 1.0000 0.0000
vn 0.0000 1.0000 0.0000
vn 0.0000 1.0000 0.0000
vn 0.0000 1.0000 0.0000
vn 0.0000 1.0000 0.0000
vn 0.0000 1.0000 0.0000
vn 0.0000 1.0000 0.0000
vn 0.0000 1.0000 0.0000
vn 0.0000 1.0000 0.0000
vn 0.0000 1.0000 0.0000
vn 0.0000 1.0000 0.0000
vn 0.0000 1.0000 0.0000
vn 0.0000 1.0000 0.0000
vn 0.0000 1.0000 0.0000
vn 0.0000 1.0000 0.0000
vn 0.0000 1.0000 0.0000
vn 0.0000 1.0000 0.0000
vn 0.0000 1.0000 0.0000
vn 0.0000 1.0000 0.0000
vn 0.0000 1.0000 0.0000
vn 0.0000 1.0000 0.0000
vn 0.0000 1.0000 0.0000
vn 0.0000 1.0000 0.0000
vn 0.0000 1.0000 0.0000
vn 0.0000 1.0000 0.0000
vn 0.0000 1.0000 0.0000
vn 0.0000 1.0000 0.0000
vn 0.0000 1.0000 0.0000
vn 0.0000 1.0000 0.0000
vn 0.0000 1.0000 0.0000
vn 0.0000 1.0000 0.0000
vn 0.0000 1.0000 0.0000
vn 0.0000 1.0000 0.0000
vn 0.0000 1.0000 0.0000
vn 0.0000 1.0000 0.0000
vn 0.0000 1.0000 0.0000
vn 0.0000 1.0000 0.0000
vn 0.0000 1.0000 0.0000
vn 0.0000 1.0000 0.0000
vn 0.0000 1.0000 0.0000
vn 0.0000 1.0000 0.0000
vn 0.0000 1.0000 0.0000
vn 0.0000 1.0000 0.0000
vn 0.0000 1.0000 0.0000
vn 0.0000 1.0000 0.0000
vn 0.0000 1.0000 0.0000
vn 0.0000 1.0000 0.0000
vn 0.0000 1.0000 0.0000
vn 0.0000 1.0000 0.0000
vn 0.0000 1.0000 0.0000
vn 0.0000 1.0000 0.0000
vn 0.0000 1.0000 0.0000
vn 0.0000 1.0000 0.0000
vn 0.0000 1.0000 0.0000
vn 0.0000 1.0000 0.0000
vn 0.0000 1.0000 0.0000
vn 0.0000 1.0000 0.0000
vn 0.0000 1.0000 0.0000
vn 0.0000 1.0000 0.0000
vn 0.0000 1.0000 0.0000
vn 0.0000 1.0000 0.0000
vn 0.0000 1.0000 0.0000
vn 0.0000 1.0000 0.0000
vn 0.0000 1.0000 0.0000
vn 0.0000 1.0000 0.0000
vn 0.0000 1.0000 0.0000
vn 0.0000 1.0000 0.0000
vn 0.0000 1.0000 0.0000
vn 0.0000 1.0000 0.0000
vn 0.0000 1.0000 0.0000
vn 0.0000 1.0000 0.0000
vn 0.0000 1.0000 0.0000
vn 0.0000 1.0000 0.0000
vn 0.0000 1.0000 0.0000
vn 0.0000 1.0000 0.0000
vn 0.0000 1.0000 0.0000
vn 0.0000 1.0000 0.0000
vn 0.0000 1.0000 0.0000
vn 0.0000 1.0000 0.0000
vn 0.0000 1.0000 0.0000
vn 0.0000 1.0000 0.0000
vn 0.0000 1.0000 0.0000
vn 0.0000 1.0000 0.0000
vn 0.0000 1.0000 0.0000
vn 0.0000 1.0000 0.0000
vn 0.0000 1.0000 0.0000
vn 0.0000 1.0000 0.0000
vn 0.0000 1.0000 0.0000
vn 0.0000 1.0000 0.0000
vn 0.0000 1.0000 0.0000
vn 0.0000 1.0000 0.0000
vn 0.0000 1.0000 0.0000
vn 0.0000 1.0000 0.0000
vn 0.0000 1.0000 0.0000
vn 0.0000 1.0000 0.0000
vn 0.0000 1.0000 0.0000
vn 0.0000 1.0000 0.0000
vn 0.0000 1.0000 0.0000
vn 0.0000 1.0000 0.0000
vn 0.0000 1.0000 0.0000
vn 0.0000 1.0000 0.0000
vn 0.0000 1.0000 0.0000
vn 0.0000 1.0000 0.0000
vn 0.0000 1.0000 0.0000
vn 0.0000 1.0000 0.0000
vn 0.0000 1.0000 0.0000
vn 0.0000 1.0000 0.0000
vn 0.0000 1.0000 0.0000
vn 0.0000 1.0000 0.0000
vn 0.0000 1.0000 0.0000
vn 0.0000 1.0000 0.0000
vn 0.0000 1.0000 0.0000
vn 0.0000 1.0000 0.0000
vn 0.0000 1.0000 0.0000
vn 0.0000 1.0000 0.0000
vn 0.0000 1.0000 0.0000
vn 0.0000 1.0000 0.0000
vn 0.0000 1.0000 0.0000
vn 0.0000 1.0000 0.0000
vn 0.0000 1.0000 0.0000
vn 0.0000 1.0000 0.0000
vn 0.0000 1.0000 0.0000
vn 0.0000 1.0000 0.0000
vn 0.0000 1.0000 0.0000
vn 0.0000 1.0000 0.0000
vn 0.0000 1.0000 0.0000
vn 0.0000 1.0000 0.0000
vn 0.0000 1.0000 0.0000
vn 0.0000 1.0000 0.0000
vn 0.0000 1.0000 0.0000
vn 0.0000 1.0000 0.0000
vn 0.0000 1.0000 0.0000
vn 0.0000 1.0000 0.0000
vn 0.0000 1.0000 0.0000
vn 0.0000 1.0000 0.0000
vn 0.0000 1.0000 0.0000
vn 0.0000 1.0000 0.0000
vn 0.0000 1.0000 0.0000
vn 0.0000 1.0000 0.0000
vn 0.0000 1.0000 0.0000
vn 0.0000 1.0000 0.0000
vn 0.0000 1.0000 0.0000
vn 0.0000 1.0000 0.0000
vn 0.0000 1.0000 0.0000
vn 0.0000 1.0000 0.0000
vn 0.0000 1.0000 0.0000
vn 0.0000 1.0000 0.0000
vn 0.0000 1.0000 0.0000
vn 0.0000 1.0000 0.0000
vn 0.0000 1.0000 0.0000
vn 0.0000 1.0000 0.0000
vn 0.0000 1.0000 0.0000
vn 0.0000 1.0000 0.0000
vn 0.0000 1.0000 0.0000
vn 0.0000 1.0000 0.0000
vn 0.0000 1.0000 0.0000
vn 0.0000 1.0000 0.0000
vn 0.0000 1.0000 0.0000
vn 0.0000 1.0000 0.0000
vn 0.0000 1.0000 0.0000
vn 0.0000 1.0000 0.0000
vn 0.0000 1.0000 0.0000
vn 0.0000 1.0000 0.0000
vn 0.0000 1.0000 0.0000
vn 0.0000 1.0000 0.0000
vn 0.0000 1.0000 0.0000
vn 0.0000 1.0000 0.0000
vn 0.0000 1.0000 0.0000
vn 0.0000 1.0000 0.0000
vn 0.0000 1.0000 0.0000
vn 0.0000 1.0000 0.0000
vn 0.0000 1.0000 0.0000
vn 0.0000 1.0000 0.0000
vn 0.0000 1.0000 0.0000
vn 0.0000 1.0000 0.0000
vn 0.0000 1.0000 0.0000
vn 0.0000 1.0000 0.0000
vn 0.0000 1.0000 0.0000
vn 0.0000 1.0000 0.0000
vn 0.0000 1.0000 0.0000
vn 0.0000 1.0000 0.0000
vn 0.0000 1.0000 0.0000
vn 0.0000 1.0000 0.0000
vn 0.0000 1.0000 0.0000
vn 0.0000 1.0000 0.0000
vn 0.0000 1.0000 0.0000
vn 0.0000 1.0000 0.0000
vn 0.0000 1.0000 0.0000
vn 0.0000 1.0000 0.0000
vn 0.0000 1.0000 0.0000
vn 0.0000 1.0000 0.0000
vn 0.0000 1.0000 0.0000
vn 0.0000 1.0000 0.0000
vn 0.0000 1.0000 0.0000
vn 0.0000 1.0000 0.0000
vn 0.0000 1.0000 0.0000
vn 0.0000 1.0000 0.0000
vn 0.0000 1.0000 0.0000
vn 0.0000 1.0000 0.0000
vn 0.0000 1.0000 0.0000
vn 0.0000 1.0000 0.0000
vn 0.0000 1.0000 0.0000
vn 0.0000 1.0000 0.0000
vn 0.0000 1.0000 0.0000
vn 0.0000 1.0000 0.0000
vn 0.0000 1.0000 0.0000
vn 0.0000 1.0000 0.0000
vn 0.0000 1.0000 0.0000
vn 0.0000 1.0000 0.0000
vn 0.0000 1.0000 0.0000
vn 0.0000 1.0000 0.0000
vn 0.0000 1.0000 0.0000
vn 0.0000 1.0000 0.0000
vn 0.0000 1.0000 0.0000
vn 0.0000 1.0000 0.0000
vn 0.0000 1.0000 0.0000
vn 0.0000 1.0000 0.0000
vn 0.0000 1.0000 0.0000
vn 0.0000 1.0000 0.0000
vn 0.0000 1.0000 0.0000
vn 0.0000 1.0000 0.0000
vn 0.0000 1.0000 0.0000
vn 0.0000 1.0000 0.0000
vn 0.0000 1.0000 0.0000
vn 0.0000 1.0000 0.0000
vn 0.0000 1.0000 0.0000
vn 0.0000 1.0000 0.0000
vn 0.0000 1.0000 0.0000
vn 0.0000 1.0000 0.0000
vn 0.0000 1.0000 0.0000
vn 0.0000 1.0000 0.0000
vn 0.0000 1.0000 0.0000
vn 0.0000 1.0000 0.0000
vn 0.0000 1.0000 0.0000
vn 0.0000 1.0000 0.0000
vn 0.0000 1.0000 0.0000
vn 0.0000 1.0000 0.0000
vn 0.0000 1.0000 0.0000
vn 0.0000 1.0000 0.0000
vn 0.0000 1.0000 0.0000
vn 0.0000 1.0000 0.0000
vn 0.0000 1.0000 0.0000
vn 0.0000 1.0000 0.0000
vn 0.0000 1.0000 0.0000
vn 0.0000 1.0000 0.0000
vn 0.0000 1.0000 0.0000
vn 0.0000 1.0000 0.0000
vn 0.0000 1.0000 0.0000
vn 0.0000 1.0000 0.0000
vn 0.0000 1.0000 0.0000
vn 0.0000 1.0000 0.0000
vn 0.0000 1.0000 0.0000
vn 0.0000 1.0000 0.0000
vn 0.0000 1.0000 0.0000
vn 0.0000 1.0000 0.0000
vn 0.0000 1.0000 0.0000
vn 0.0000 1.0000 0.0000
vn 0.0000 1.0000 0.0000
vn 0.0000 1.0000 0.0000
vn 0.0000 1.0000 0.0000
vn 0.0000 1.0000 0.0000
vn 0.0000 1.0000 0.0000
vn 0.0000 1.0000 0.0000
vn 0.0000 1.0000 0.0000
vn 0.0000 1.0000 0.0000
vn 0.0000 1.0000 0.0000
vn 0.0000 1.0000 0.0000
vn 0.0000 1.0000 0.0000
vn 0.0000 1.0000 0.0000
vn 0.0000 1.0000 0.0000
vn 0.0000 1.0000 0.0000
vn 0.0000 1.0000 0.0000
vn 0.0000 1.0000 0.0000
vn 0.0000 1.0000 0.0000
vn 0.0000 1.0000 0.0000
vn 0.0000 1.0000 0.0000
vn 0.0000 1.0000 0.0000
vn 0.0000 1.0000 0.0000
vn 0.0000 1.0000 0.0000
vn 0.0000 1.0000 0.0000
vn 0.0000 1.0000 0.0000
vn 0.0000 1.0000 0.0000
vn 0.0000 1.0000 0.0000
vn 0.0000 1.0000 0.0000
vn 0.0000 1.0000 0.0000
vn 0.0000 1.0000 0.0000
vn 0.0000 1.0000 0.0000
vn 0.0000 1.0000 0.0000
vn 0.0000 1.0000 0.0000
vn 0.0000 1.0000 0.0000
vn 0.0000 1.0000 0.0000
vn 0.0000 1.0000 0.0000
vn 0.0000 1.0000 0.0000
vn 0.0000 1.0000 0.0000
vn 0.0000 1.0000 0.0000
vn 0.0000 1.0000 0.0000
vn 0.0000 1.0000 0.0000
vn 0.0000 1.0000 0.0000
vn 0.0000 1.0000 0.0000
vn 0.0000 1.0000 0.0000
vn 0.0000 1.0000 0.0000
vn 0.0000 1.0000 0.0000
vn 0.0000 1.0000 0.0000
vn 0.0000 1.0000 0.0000
vn 0.0000 1.0000 0.0000
vn 0.0000 1.0000 0.0000
vn 0.0000 1.0000 0.0000
vn 0.0000 1.0000 0.0000
vn 0.0000 1.0000 0.0000
vn 0.0000 1.0000 0.0000
vn 0.0000 1.0000 0.0000
vn 0.0000 1.0000 0.0000
vn 0.0000 1.0000 0.0000
vn 0.0000 1.0000 0.0000
vn 0.0000 1.0000 0.0000
vn 0.0000 1.0000 0.0000
vn 0.0000 1.0000 0.0000
vn 0.0000 1.0000 0.0000
vn 0.0000 1.0000 0.0000
vn 0.0000 1.0000 0.0000
vn 0.0000 1.0000 0.0000
vn 0.0000 1.0000 0.0000
vn 0.0000 1.0000 0.0000
vn 0.0000 1.0000 0.0000
vn 0.0000 1.0000 0.0000
vn 0.0000 1.0000 0.0000
vn 0.0000 1.0000 0.0000
vn 0.0000 1.0000 0.0000
vn 0.0000 1.0000 0.0000
vn 0.0000 1.0000 0.0000
vn 0.0000 1.0000 0.0000
vn 0.0000 1.0000 0.0000
vn 0.0000 1.0000 0.0000
vn 0.0000 1.0000 0.0000
vn 0.0000 1.0000 0.0000
vn 0.0000 1.0000 0.0000
vn 0.0000 1.0000 0.0000
vn 0.0000 1.0000 0.0000
vn 0.0000 1.0000 0.0000
vn 0.0000 1.0000 0.0000
vn 0.0000 1.0000 0.0000
vn 0.0000 1.0000 0.0000
vn 0.0000 1.0000 0.0000
vn 0.0000 1.0000 0.0000
vn 0.0000 1.0000 0.0000
vn 0.0000 1.0000 0.0000
vn 0.0000 1.0000 0.0000
vn 0.0000 1.0000 0.0000
vn 0.0000 1.0000 0.0000
vn 0.0000 1.0000 0.0000
vn 0.0000 1.0000 0.0000
vn 0.0000 1.0000 0.0000
vn 0.0000 1.0000 0.0000
vn 0.0000 1.0000 0.0000
vn 0.0000 1.0000 0.0000
vn 0.0000 1.0000 0.0000
vn 0.0000 1.0000 0.0000
vn 0.0000 1.0000 0.0000
vn 0.0000 1.0000 0.0000
vn 0.0000 1.0000 0.0000
vn 0.0000 1.0000 0.0000
vn 0.0000 1.0000 0.0000
vn 0.0000 1.0000 0.0000
vn 0.0000 1.0000 0.0000
vn 0.0000 1.0000 0.0000
vn 0.0000 1.0000 0.0000
vn 0.0000 1.0000 0.0000
vn 0.0000 1.0000 0.0000
vn 0.0000 1.0000 0.0000
vn 0.0000 1.0000 0.0000
vn 0.0000 1.0000 0.0000
vn 0.0000 1.0000 0.0000
vn 0.0000 1.0000 0.0000
vn 0.0000 1.0000 0.0000
vn 0.0000 1.0000 0.0000
vn 0.0000 1.0000 0.0000
vn 0.0000 1.0000 0.0000
vn 0.0000 1.0000 0.0000
vn 0.0000 1.0000 0.0000
vn 0.0000 1.0000 0.0000
vn 0.0000 1.0000 0.0000
vn 0.0000 1.0000 0.0000
vn 0.0000 1.0000 0.0000
vn 0.0000 1.0000 0.0000
vn 0.0000 1.0000 0.0000
vn 0.0000 1.0000 0.0000
vn 0.0000 1.0000 0.0000
vn 0.0000 1.0000 0.0000
vn 0.0000 1.0000 0.0000
vn 0.0000 1.0000 0.0000
vn 0.0000 1.0000 0.0000
vn 0.0000 1.0000 0.0000
vn 0.0000 1.0000 0.0000
vn 0.0000 1.0000 0.0000
vn 0.0000 1.0000 0.0000
vn 0.0000 1.0000 0.0000
vn 0.0000 1.0000 0.0000
vn 0.0000 1.0000 0.0000
vn 0.0000 1.0000 0.0000
vn 0.0000 1.0000 0.0000
vn 0.0000 1.0000 0.0000
vn 0.0000 1.0000 0.0000
vn 0.0000 1.0000 0.0000
vn 0.0000 1.0000 0.0000
vn 0.0000 1.0000 0.0000
vn 0.0000 1.0000 0.0000
vn 0.0000 1.0000 0.0000
vn 0.0000 1.0000 0.0000
vn 0.0000 1.0000 0.0000
vn 0.0000 1.0000 0.0000
vn 0.0000 1.0000 0.0000
vn 0.0000 1.0000 0.0000
vn 0.0000 1.0000 0.0000
vn 0.0000 1.0000 0.0000
vn 0.0000 1.0000 0.0000
vn 0.0000 1.0000 0.0000
vn 0.0000 1.0000 0.0000
vn 0.0000 1.0000 0.0000
vn 0.0000 1.0000 0.0000
vn 0.0000 1.0000 0.0000
vn 0.0000 1.0000 0.0000
vn 0.0000 1.0000 0.0000
vn 0.0000 1.0000 0.0000
vn 0.0000 1.0000 0.0000
vn 0.0000 1.0000 0.0000
vn 0.0000 1.0000 0.0000
vn 0.0000 1.0000 0.0000
vn 0.0000 1.0000 0.0000
vn 0.0000 1.0000 0.0000
vn 0.0000 1.0000 0.0000
vn 0.0000 1.0000 0.0000
vn 0.0000 1.0000 0.0000
vn 0.0000 1.0000 0.0000
vn 0.0000 1.0000 0.0000
vn 0.0000 1.0000 0.0000
vn 0.0000 1.0000 0.0000
vn 0.0000 1.0000 0.0000
vn 0.0000 1.0000 0.0000
vn 0.0000 1.0000 0.0000
vn 0.0000 1.0000 0.0000
vn 0.0000 1.0000 0.0000
vn 0.0000 1.0000 0.0000
vn 0.0000 1.0000 0.0000
vn 0.0000 1.0000 0.0000
vn 0.0000 1.0000 0.0000
vn 0.0000 1.0000 0.0000
vn 0.0000 1.0000 0.0000
vn 0.0000 1.0000 0.0000
vn 0.0000 1.0000 0.0000
vn 0.0000 1.0000 0.0000
vn 0.0000 1.0000 0.0000
vn 0.0000 1.0000 0.0000
vn 0.0000 1.0000 0.0000
vn 0.0000 1.0000 0.0000
vn 0.0000 1.0000 0.0000
vn 0.0000 1.0000 0.0000
vn 0.0000 1.0000 0.0000
vn 0.0000 1.0000 0.0000
vn 0.0000 1.0000 0.0000
vn 0.0000 1.0000 0.0000
vn 0.0000 1.0000 0.0000
vn 0.0000 1.0000 0.0000
vn 0.0000 1.0000 0.0000
vn 0.0000 1.0000 0.0000
vn 0.0000 1.0000 0.0000
vn 0.0000 1.0000 0.0000
vn 0.0000 1.0000 0.0000
vn 0.0000 1.0000 0.0000
vn 0.0000 1.0000 0.0000
vn 0.0000 1.0000 0.0000
vn 0.0000 1.0000 0.0000
vn 0.0000 1.0000 0.0000
vn 0.0000 1.0000 0.0000
vn 0.0000 1.0000 0.0000
vn 0.0000 1.0000 0.0000
vn 0.0000 1.0000 0.0000
vn 0.0000 1.0000 0.0000
vn 0.0000 1.0000 0.0000
vn 0.0000 1.0000 0.0000
vn 0.0000 1.0000 0.0000
vn 0.0000 1.0000 0.0000
vn 0.0000 1.0000 0.0000
vn 0.0000 1.0000 0.0000
vn 0.0000 1.0000 0.0000
vn 0.0000 1.0000 0.0000
vn 0.0000 1.0000 0.0000
vn 0.0000 1.0000 0.0000
vn 0.0000 1.0000 0.0000
vn 0.0000 1.0000 0.0000
vn 0.0000 1.0000 0.0000
vn 0.0000 1.0000 0.0000
vn 0.0000 1.0000 0.0000
vn 0.0000 1.0000 0.0000
vn 0.0000 1.0000 0.0000
vn 0.0000 1.0000 0.0000
vn 0.0000 1.0000 0.0000
vn 0.0000 1.0000 0.0000
vn 0.0000 1.0000 0.0000
vn 0.0000 1.0000 0.0000
vn 0.0000 1.0000 0.0000
vn 0.0000 1.0000 0.0000
vn 0.0000 1.0000 0.0000
vn 0.0000 1.0000 0.0000
vn 0.0000 1.0000 0.0000
vn 0.0000 1.0000 0.0000
vn 0.0000 1.0000 0.0000
vn 0.0000 1.0000 0.0000
vn 0.0000 1.0000 0.0000
vn 0.0000 1.0000 0.0000
vn 0.0000 1.0000 0.0000
vn 0.0000 1.0000 0.0000
vn 0.0000 1.0000 0.0000
vn 0.0000 1.0000 0.0000
vn 0.0000 1.0000 0.0000
vn 0.0000 1.0000 0.0000
vn 0.0000 1.0000 0.0000
vn 0.0000 1.0000 0.0000
vn 0.0000 1.0000 0.0000
vn 0.0000 1.0000 0.0000
vn 0.0000 1.0000 0.0000
vn 0.0000 1.0000 0.0000
vn 0.0000 1.0000 0.0000
vn 0.0000 1.0000 0.0000
vn 0.0000 1.0000 0.0000
vn 0.0000 1.0000 0.0000
vn 0.0000 1.0000 0.0000
vn 0.0000 1.0000 0.0000
vn 0.0000 1.0000 0.0000
vn 0.0000 1.0000 0.0000
vn 0.0000 1.0000 0.0000
vn 0.0000 1.0000 0.0000
vn 0.0000 1.0000 0.0000
vn 0.0000 1.0000 0.0000
vn 0.0000 1.0000 0.0000
vn 0.0000 1.0000 0.0000
vn 0.0000 1.0000 0.0000
vn 0.0000 1.0000 0.0000
vn 0.0000 1.0000 0.0000
vn 0.0000 1.0000 0.0000
vn 0.0000 1.0000 0.0000
vn 0.0000 1.0000 0.0000
vn 0.0000 1.0000 0.0000
vn 0.0000 1.0000 0.0000
vn 0.0000 1.0000 0.0000
vn 0.0000 1.0000 0.0000
vn 0.0000 1.0000 0.0000
vn 0.0000 1.0000 0.0000
vn 0.0000 1.0000 0.0000
vn 0.0000 1.0000 0.0000
vn 0.0000 1.0000 0.0000
vn 0.0000 1.0000 0.0000
vn 0.0000 1.0000 0.0000
vn 0.0000 1.0000 0.0000
vn 0.0000 1.0000 0.0000
vn 0.0000 1.0000 0.0000
vn 0.0000 1.0000 0.0000
vn 0.0000 1.0000 0.0000
vn 0.0000 1.0000 0.0000
vn 0.0000 1.0000 0.0000
vn 0.0000 1.0000 0.0000
vn 0.0000 1.0000 0.0000
vn 0.0000 1.0000 0.0000
vn 0.0000 1.0000 0.0000
vn 0.0000 1.0000 0.0000
vn 0.0000 1.0000 0.0000
vn 0.0000 1.0000 0.0000
vn 0.0000 1.0000 0.0000
vn 0.0000 1.0000 0.0000
vn 0.0000 1.0000 0.0000
vn 0.0000 1.0000 0.0000
vn 0.0000 1.0000 0.0000
vn 0.0000 1.0000 0.0000
vn 0.0000 1.0000 0.0000
vn 0.0000 1.0000 0.0000
vn 0.0000 1.0000 0.0000
vn 0.0000 1.0000 0.0000
vn 0.0000 1.0000 0.0000
vn 0.0000 1.0000 0.0000
vn 0.0000 1.0000 0.0000
vn 0.0000 1.0000 0.0000
vn 0.0000 1.0000 0.0000
vn 0.0000 1.0000 0.0000
vn 0.0000 1.0000 0.0000
vn 0.0000 1.0000 0.0000
vn 0.0000 1.0000 0.0000
vn 0.0000 1.0000 0.0000
vn 0.0000 1.0000 0.0000
vn 0.0000 1.0000 0.0000
vn 0.0000 1.0000 0.0000
vn 0.0000 1.0000 0.0000
vn 0.0000 1.0000 0.0000
vn 0.0000 1.0000 0.0000
vn 0.0000 1.0000 0.0000
vn 0.0000 1.0000 0.0000
vn 0.0000 1.0000 0.0000
vn 0.0000 1.0000 0.0000
vn 0.0000 1.0000 0.0000
vn 0.0000 1.0000 0.0000
vn 0.0000 1.0000 0.0000
vn 0.0000 1.0000 0.0000
vn 0.0000 1.0000 0.0000
vn 0.0000 1.0000 0.0000
vn 0.0000 1.0000 0.0000
vn 0.0000 1.0000 0.0000
vn 0.0000 1.0000 0.0000
vn 0.0000 1.0000 0.0000
vn 0.0000 1.0000 0.0000
vn 0.0000 1.0000 0.0000
vn 0.0000 1.0000 0.0000
vn 0.0000 1.0000 0.0000
vn 0.0000 1.0000 0.0000
vn 0.0000 1.0000 0.0000
vn 0.0000 1.0000 0.0000
vn 0.0000 1.0000 0.0000
vn 0.0000 1.0000 0.0000
vn 0.0000 1.0000 0.0000
vn 0.0000 1.0000 0.0000
vn 0.0000 1.0000 0.0000
vn 0.0000 1.0000 0.0000
vn 0.0000 1.0000 0.0000
vn 0.0000 1.0000 0.0000
vn 0.0000 1.0000 0.0000
vn 0.0000 1.0000 0.0000
vn 0.0000 1.0000 0.0000
vn 0.0000 1.0000 0.0000
vn 0.0000 1.0000 0.0000
vn 0.0000 1.0000 0.0000
vn 0.0000 1.0000 0.0000
vn 0.0000 1.0000 0.0000
vn 0.0000 1.0000 0.0000
vn 0.0000 1.0000 0.0000
vn 0.0000 1.0000 0.0000
vn 0.0000 1.0000 0.0000
vn 0.0000 1.0000 0.0000
vn 0.0000 1.0000 0.0000
vn 0.0000 1.0000 0.0000
vn 0.0000 1.0000 0.0000
vn 0.0000 1.0000 0.0000
vn 0.0000 1.0000 0.0000
vn 0.0000 1.0000 0.0000
vn 0.0000 1.0000 0.0000
vn 0.0000 1.0000 0.0000
vn 0.0000 1.0000 0.0000
vn 0.0000 1.0000 0.0000
vn 0.0000 1.0000 0.0000
vn 0.0000 1.0000 0.0000
vn 0.0000 1.0000 0.0000
vn 0.0000 1.0000 0.0000
vn 0.0000 1.0000 0.0000
vn 0.0000 1.0000 0.0000
vn 0.0000 1.0000 0.0000
vn 0.0000 1.0000 0.0000
vn 0.0000 1.0000 0.0000
vn 0.0000 1.0000 0.0000
vn 0.0000 1.0000 0.0000
vn 0.0000 1.0000 0.0000
vn 0.0000 1.0000 0.0000
vn 0.0000 1.0000 0.0000
vn 0.0000 1.0000 0.0000
vn 0.0000 1.0000 0.0000
vn 0.0000 1.0000 0.0000
vn 0.0000 1.0000 0.0000
vn 0.0000 1.0000 0.0000
vn 0.0000 1.0000 0.0000
vn 0.0000 1.0000 0.0000
vn 0.0000 1.0000 0.0000
vn 0.0000 1.0000 0.0000
vn 0.0000 1.0000 0.0000
vn 0.0000 1.0000 0.0000
vn 0.0000 1.0000 0.0000
vn 0.0000 1.0000 0.0000
vn 0.0000 1.0000 0.0000
vn 0.0000 1.0000 0.0000
vn 0.0000 1.0000 0.0000
vn 0.0000 1.0000 0.0000
vn 0.0000 1.0000 0.0000
vn 0.0000 1.0000 0.0000
vn 0.0000 1.0000 0.0000
vn 0.0000 1.0000 0.0000
vn 0.0000 1.0000 0.0000
vn 0.0000 1.0000 0.0000
vn 0.0000 1.0000 0.0000
vn 0.0000 1.0000 0.0000
vn 0.0000 1.0000 0.0000
vn 0.0000 1.0000 0.0000
vn 0.0000 1.0000 0.0000
vn 0.0000 1.0000 0.0000
vn 0.0000 1.0000 0.0000
vn 0.0000 1.0000 0.0000
vn 0.0000 1.0000 0.0000
vn 0.0000 1.0000 0.0000
vn 0.0000 1.0000 0.0000
vn 0.0000 1.0000 0.0000
vn 0.0000 1.0000 0.0000
vn 0.0000 1.0000 0.0000
vn 0.0000 1.0000 0.0000
vn 0.0000 1.0000 0.0000
vn 0.0000 1.0000 0.0000
vn 0.0000 1.0000 0.0000
vn 0.0000 1.0000 0.0000
vn 0.0000 1.0000 0.0000
vn 0.0000 1.0000 0.0000
vn 0.0000 1.0000 0.0000
vn 0.0000 1.0000 0.0000
vn 0.0000 1.0000 0.0000
vn 0.0000 1.0000 0.0000
vn 0.0000 1.0000 0.0000
vn 0.0000 1.0000 0.0000
vn 0.0000 1.0000 0.0000
vn 0.0000 1.0000 0.0000
vn 0.0000 1.0000 0.0000
vn 0.0000 1.0000 0.0000
vn 0.0000 1.0000 0.0000
vn 0.0000 1.0000 0.0000
vn 0.0000 1.0000 0.0000
vn 0.0000 1.0000 0.0000
vn 0.0000 1.0000 0.0000
vn 0.0000 1.0000 0.0000
vn 0.0000 1.0000 0.0000
vn 0.0000 1.0000 0.0000
vn 0.0000 1.0000 0.0000
vn 0.0000 1.0000 0.0000
vn 0.0000 1.0000 0.0000
vn 0.0000 1.0000 0.0000
vn 0.0000 1.0000 0.0000
vn 0.0000 1.0000 0.0000
vn 0.0000 1.0000 0.0000
f 1 2 3
f 4 5 6
f 7 8 9
f 10 11 12
f 13 14 15
f 16 17 18
f 19 20 21
f 22 23 24
f 25 26 27
f 28 29 30
f 31 32 33
f 34 35 36
f 37 38 39
f 40 41 42
f 43 44 45
f 46 47 48
f 49 50 51
f 52 53 54
f 55 56 57
f 58 59 60
f 61 62 63
f 64 65 66
f 67 68 69
f 70 71 72
f 73 74 75
f 76 77 78
f 79 80 81
f 82 83 84
f 85 86 87
f 88 89 90
f 91 92 93
f 94 95 96
f 97 98 99
f 100 101 102
f 103 104 105
f 106 107 108
f 109 110 111
f 112 113 114
f 115 116 117
f 118 119 120
f 121 122 123
f 124 125 126
f 127 128 129
f 130 131 132
f 133 134 135
f 136 137 138
f 139 140 141
f 142 143 144
f 145 146 147
f 148 149 150
f 151 152 153
f 154 155 156
f 157 158 159
f 160 161 162
f 163 164 165
f 166 167 168
f 169 170 171
f 172 173 174
f 175 176 177
f 178 179 180
f 181 182 183
f 184 185 186
f 187 188 189
f 190 191 192
f 193 194 195
f 196 197 198
f 199 200 201
f 202 203 204
f 205 206 207
f 208 209 210
f 211 212 213
f 214 215 216
f 217 218 219
f 220 221 222
f 223 224 225
f 226 227 228
f 229 230 231
f 232 233 234
f 235 236 237
f 238 239 240
f 241 242 243
f 244 245 246
f 247 248 249
f 250 251 252
f 253 254 255
f 256 257 258
f 259 260 261
f 262 263 264
f 265 266 267
f 268 269 270
f 271 272 273
f 274 275 276
f 277 278 279
f 280 281 282
f 283 284 285
f 286 287 288
f 289 290 291
f 292 293 294
f 295 296 297
f 298 299 300
f 301 302 303
f 304 305 306
f 307 308 309
f 310 311 312
f 313 314 315
f 316 317 318
f 319 320 321
f 322 323 324
f 325 326 327
f 328 329 330
f 331 332 333
f 334 335 336
f 337 338 339
f 340 341 342
f 343 344 345
f 346 347 348
f 349 350 351
f 352 353 354
f 355 356 357
f 358 359 360
f 361 362 363
f 364 365 366
f 367 368 369
f 370 371 372
f 373 374 375
f 376 377 378
f 379 380 381
f 382 383 384
f 385 386 387
f 388 389 390
f 391 392 393
f 394 395 396
f 397 398 399
f 400 401 402
f 403 404 405
f 406 407 408
f 409 410 411
f 412 413 414
f 415 416 417
f 418 419 420
f 421 422 423
f 424 425 426
f 427 428 429
f 430 431 432
f 433 434 435
f 436 437 438
f 439 440 441
f 442 443 444
f 445 446 447
f 448 449 450
f 451 452 453
f 454 455 456
f 457 458 459
f 460 461 462
f 463 464 465
f 466 467 468
f 469 470 471
f 472 473 474
f 475 476 477
f 478 479 480
f 481 482 483
f 484 485 486
f 487 488 489
f 490 491 492
f 493 494 495
f 496 497 498
f 499 500 501
f 502 503 504
f 505 506 507
f 508 509 510
f 511 512 513
f 514 515 516
f 517 518 519
f 520 521 522
f 523 524 525
f 526 527 528
f 529 530 531
f 532 533 534
f 535 536 537
f 538 539 540
f 541 542 543
f 544 545 546
f 547 548 549
f 550 551 552
f 553 554 555
f 556 557 558
f 559 560 561
f 562 563 564
f 565 566 567
f 568 569 570
f 571 572 573
f 574 575 576
f 577 578 579
f 580 581 582
f 583 584 585
f 586 587 588
f 589 590 591
f 592 593 594
f 595 596 597
f 598 599 600
f 601 602 603
f 604 605 606
f 607 608 609
f 610 611 612
f 613 614 615
f 616 617 618
f 619 620 621
f 622 623 624
f 625 626 627
f 628 629 630
f 631 632 633
f 634 635 636
f 637 638 639
f 640 641 642
f 643 644 645
f 646 647 648
f 649 650 651
f 652 653 654
f 655 656 657
f 658 659 660
f 661 662 663
f 664 665 666
f 667 668 669
f 670 671 672
f 673 674 675
f 676 677 678
f 679 680 681
f 682 683 684
f 685 686 687
f 688 689 690
f 691 692 693
f 694 695 696
f 697 698 699
f 700 701 702
f 703 704 705
f 706 707 708
f 709 710 711
f 712 713 714
f 715 716 717
f 718 719 720
f 721 722 723
f 724 725 726
f 727 728 729
f 730 731 732
f 733 734 735
f 736 737 738
f 739 740 741
f 742 743 744
f 745 746 747
f 748 749 750
f 751 752 753
f 754 755 756
f 757 758 759
f 760 761 762
f 763 764 765
f 766 767 768
f 769 770 771
f 772 773 774
f 775 776 777
f 778 779 780
f 781 782 783
f 784 785 786
f 787 788 789
f 790 791 792
f 793 794 795
f 796 797 798
f 799 800 801
f 802 803 804
f 805 806 807
f 808 809 810
f 811 812 813
f 814 815 816
f 817 818 819
f 820 821 822
f 823 824 825
f 826 827 828
f 829 830 831
f 832 833 834
f 835 836 837
f 838 839 840
f 841 842 843
f 844 845 846
f 847 848 849
f 850 851 852
f 853 854 855
f 856 857 858
f 859 860 861
f 862 863 864
f 865 866 867
f 868 869 870
f 871 872 873
f 874 875 876
f 877 878 879
f 880 881 882
f 883 884 885
f 886 887 888
f 889 890 891
f 892 893 894
f 895 896 897
f 898 899 900
f 901 902 903
f 904 905 906
f 907 908 909
f 910 911 912
f 913 914 915
f 916 917 918
f 919 920 921
f 922 923 924
f 925 926 927
f 928 929 930
f 931 932 933
f 934 935 936
f 937 938 939
f 940 941 942
f 943 944 945
f 946 947 948
f 949 950 951
f 952 953 954
f 955 956 957
f 958 959 960
f 961 962 963
f 964 965 966
f 967 968 969
f 970 971 972
f 973 974 975
f 976 977 978
f 979 980 981
f 982 983 984
f 985 986 987
f 988 989 990
f 991 992 993
f 994 995 996
f 997 998 999
f 1000 1001 1002
f 1003 1004 1005
f 1006 1007 1008
f 1009 1010 1011
f 1012 1013 1014
f 1015 1016 1017
f 1018 1019 1020
f 1021 1022 1023
f 1024 1025 1026
f 1027 1028 1029
f 1030 1031 1032
f 1033 1034 1035
f 1036 1037 1038
f 1039 1040 1041
f 1042 1043 1044
f 1045 1046 1047
f 1048 1049 1050
f 1051 1052 1053
f 1054 1055 1056
f 1057 1058 1059
f 1060 1061 1062
f 1063 1064 1065
f 1066 1067 1068
f 1069 1070 1071
f 1072 1073 1074
f 1075 1076 1077
f 1078 1079 1080
f 1081 1082 1083
f 1084 1085 1086
f 1087 1088 1089
f 1090 1091 1092
f 1093 1094 1095
f 1096 1097 1098
f 1099 1100 1101
f 1102 1103 1104
f 1105 1106 1107
f 1108 1109 1110
f 1111 1112 1113
f 1114 1115 1116
f 1117 1118 1119
f 1120 1121 1122
f 1123 1124 1125
f 1126 1127 1128
f 1129 1130 1131
f 1132 1133 1134
f 1135 1136 1137
f 1138 1139 1140
f 1141 1142 1143
f 1144 1145 1146
f 1147 1148 1149
f 1150 1151 1152
f 1153 1154 1155
f 1156 1157 1158
f 1159 1160 1161
f 1162 1163 1164
f 1165 1166 1167
f 1168 1169 1170
f 1171 1172 1173
f 1174 1175 1176
f 1177 1178 1179
f 1180 1181 1182
f 1183 1184 1185
f 1186 1187 1188
f 1189 1190 1191
f 1192 1193 1194
f 1195 1196 1197
f 1198 1199 1200
