# PSO Extracted Authentic Geometry
v 0.0000 0.0000 1.0000
v 1.0000 1.0000 0.0000
v -1.6523 0.0000 0.0000
v 0.0000 1.0000 1.0000
v 1.0000 0.0000 0.0000
v 0.0000 0.0000 1.0000
v 1.0000 1.0000 0.0000
v 0.3867 0.0000 0.0000
v 0.0000 0.0000 1.0000
v 1.0000 1.0000 0.0000
v 0.9961 0.0000 0.0000
v 1.0000 1.0000 1.0000
v 0.1250 0.9961 0.0000
v 0.0000 1.0000 1.0000
v 1.0000 0.0000 0.0000
v 1.0000 1.0000 1.0000
v 0.0000 0.3047 0.0000
v 0.0000 0.0000 1.0000
v 1.0000 1.0000 0.0000
v 0.0000 0.0000 1.0000
v 1.0000 1.0000 0.0000
v 1.0000 0.0000 0.0000
v 0.0000 0.0000 1.0000
v 1.0000 1.0000 0.0000
v 0.6953 0.0000 0.0000
v 0.0000 1.0000 1.0000
v 1.0000 0.0000 0.0000
v 0.0000 0.0000 -102.4256
v 330.0000 -660.2341 0.0000
v 0.0000 0.0000 1.0000
v 1.0000 1.0000 0.0000
v -4479.5166 -0.0000 0.5000
v -1.0508 1758.1986 27.1488
v 3543.6426 0.0000 0.5000
v -1.4648 1859.4653 1597.9369
v 3876.3560 0.0000 1.0000
v -1.0508 1487.8596 879.0918
v -4805.7744 0.0000 0.5000
v -1.4648 1940.9780 27.1488
v -4879.1284 0.0000 0.0000
v -1.4648 930.0392 1774.6145
v -4453.3994 0.0000 1.0000
v -1.4648 212.1472 1394.7413
v -4877.1997 0.0000 1.0000
v -0.1172 -1271.8322 266.1157
v -4115.0605 0.0000 1.0000
v -4479.9531 -0.0000 0.5000
v -0.6328 -1294.0537 377.7274
v -4167.4097 -0.0000 0.5000
v -1.0508 -1216.7186 1052.7239
v -4613.9609 0.0000 0.0000
v -1.0508 -1927.9733 1555.4548
v -3905.9993 0.0000 0.5000
v -1.4648 -1070.4828 1597.9369
v -4277.4375 0.0000 1.0000
v -0.1172 812.3882 -1474.5363
v 4836.2271 0.0000 0.0000
v -0.1172 426.3457 -34.3270
v 4909.9614 -0.0000 0.5000
v -0.6328 -29.0951 -886.2702
v 4967.1484 0.0000 0.0000
v -0.6328 -215.8795 506.0328
v 4745.0415 -0.0000 0.5000
v -1.0508 -671.3201 -345.9105
v 4802.2271 0.0000 0.0000
v -1.0508 -1013.1075 879.0918
v 4481.2739 0.0000 0.5000
v -1.4648 -1468.5486 27.1488
v 4538.4614 0.0000 0.0000
v -1.4648 -443.1041 1774.6145
v 4148.9668 0.0000 1.0000
v -1.4648 259.2565 1394.7413
v 4598.0381 0.0000 1.0000
v -1.0508 901.4822 854.3818
v 4762.9600 0.0000 1.0000
v -0.6328 1267.8291 -622.5932
v 4779.0396 0.0000 0.5000
v -0.1172 1742.9655 266.1157
v -496.6916 0.0000 0.0000
v -0.1172 -1284.7308 27.1488
v 3692.1074 0.0000 1.0000
v -1.0508 -1605.4366 879.0918
v 4184.1523 0.0000 0.5000
v -1.4648 -1868.1986 1657.5035
v 3332.3262 0.0000 0.0000
v 0.9648 0.0000 0.0000
v 0.0000 1.0000 1.0000
v 1.0000 0.0000 0.0000
v 0.0000 1.0000 1.0000
v 1.0000 0.0000 0.0000
v 1.3000 0.8500 1.0000
v 0.0000 0.0000 1.0000
v 1.0000 1.0000 0.0000
v 0.0000 1.0000 1.0000
v 1.0000 0.0000 0.0000
v 1.0000 1.0000 1.0000
v 0.0000 0.0000 -88.8833
v 1.0000 1.0000 0.0000
v 0.5039 0.0000 0.0000
v 0.0000 1.0000 1.0000
v 1.0000 0.0000 0.0000
v 0.0000 0.0000 1.0000
v 1.0000 1.0000 0.0000
v 0.7461 0.0000 0.0000
v 0.0000 -102.4257 330.0000
v -660.2341 0.0000 0.0000
v 0.0000 1.0000 1.0000
v 1.0000 0.0000 0.0000
v 0.0000 -102.4257 330.0000
v -660.2341 0.0000 0.0000
v 0.0000 1.0000 1.0000
v 1.0000 0.0000 0.0000
v 1.0000 1.0000 1.0000
v 1.0000 0.9961 0.0000
v 0.0000 0.0000 1.0000
v 1.0000 1.0000 0.0000
v 0.9961 0.0000 0.0000
v 0.0000 0.0000 1.0000
v 1.0000 1.0000 0.0000
v 0.0000 1.0000 1.0000
v 1.0000 0.0000 0.0000
v 0.0000 1.0000 1.0000
v 1.0000 0.0000 0.0000
v 0.0000 1.0000 1.0000
v 1.0000 0.0000 0.0000
v 1.0000 1.0000 1.0000
v -0.0234 0.3477 0.0000
v 0.0000 1.0000 1.0000
v 1.0000 0.0000 0.0000
v 0.0000 0.0000 181.0000
v 1.0000 1.0000 1.0000
v 0.0000 181.1000 0.0000
v 0.0000 0.0000 1.0000
v 1.0000 1.0000 0.0000
v 0.0000 8.3700 18.0000
v 2.0000 -0.0000 0.0742
v 0.5039 6.7320 18.0000
v 2.0000 -0.0000 0.0664
v 0.5039 7.2486 22.1850
v 2.0000 -0.0000 0.0703
v 0.3281 5.8301 21.3660
v 2.0000 -0.0000 0.0625
v 0.3594 4.1850 25.2486
v 2.0000 -0.0000 0.0586
v 0.1953 3.3660 23.8301
v 2.0000 -0.0000 0.0547
v 0.2578 0.0000 26.3700
v 2.0000 -0.0000 0.0430
v 0.1484 0.0000 24.7320
v 2.0000 -0.0000 0.0430
v 0.2188 -4.1850 25.2486
v 2.0000 -0.0000 0.0273
v 0.1953 -3.3660 23.8301
v 2.0000 -0.0000 0.0312
v 0.2578 -7.2486 22.1850
v 2.0000 -0.0000 0.0156
v 0.3281 -5.8301 21.3660
v 2.0000 -0.0000 0.0195
v 0.3594 -8.3700 18.0000
v 2.0000 -0.0000 0.0117
v 0.5039 -6.7320 18.0000
v 2.0000 -0.0000 0.0195
v 0.5039 6.1200 9.3000
v 1.0000 -0.0000 0.0664
v 0.8672 6.7320 15.8250
v 2.0000 -0.0000 0.0664
v 0.5938 6.7320 9.3000
v 2.0000 -0.0000 0.0664
v 0.8672 8.3700 15.8250
v 2.0000 -0.0000 0.0742
v 0.5938 8.3700 9.3000
v 2.0000 -0.0000 0.0742
v 0.8672 9.0000 15.8250
v 1.0000 -0.0000 0.0742
v 0.5938 9.0000 9.3000
v 1.0000 -0.0000 0.0742
v 0.8672 7.7942 22.5000
v 1.0000 -0.0000 0.0703
v 0.3125 4.5000 25.7942
v 1.0000 -0.0000 0.0586
v 0.1758 0.0000 27.0000
v 1.0000 -0.0000 0.0430
v 0.1250 -4.5000 25.7942
v 1.0000 -0.0000 0.0273
v 0.1758 -7.7942 22.5000
v 1.0000 -0.0000 0.0156
v 0.3125 -9.0000 9.3000
v 1.0000 -0.0000 0.0078
v 0.8672 -8.3700 15.8250
v 2.0000 -0.0000 0.0117
v 0.5938 -8.3700 9.3000
v 2.0000 -0.0000 0.0117
v 0.8672 -6.7320 15.8250
v 2.0000 -0.0000 0.0195
v 0.5938 -6.7320 9.3000
v 2.0000 -0.0000 0.0195
v 0.8672 -6.1200 15.8250
v 1.0000 -0.0000 0.0195
v 0.5938 -6.1200 9.3000
v 1.0000 -0.0000 0.0195
v 0.8672 -5.3001 21.0600
v 1.0000 -0.0000 0.0234
v 0.3750 -3.0600 23.3001
v 1.0000 -0.0000 0.0312
v 0.2773 0.0000 24.1200
v 1.0000 -0.0000 0.0430
v 0.2461 3.0600 23.3001
v 1.0000 -0.0000 0.0547
v 0.2773 5.3001 21.0600
v 1.0000 -0.0000 0.0625
v 0.3750 6.1200 18.0000
v 1.0000 -0.0000 0.0664
v 0.5039 6.1200 15.8250
v 1.0000 -0.0000 0.0664
v 0.5938 9.0000 18.0000
v 1.0000 -0.0000 0.0742
v 0.5039 -9.0000 18.0000
v 1.0000 -0.0000 0.0078
v 0.5039 -9.0000 15.8250
v 1.0000 -0.0000 0.0078
v 0.5938 -6.1200 18.0000
v 1.0000 -0.0000 0.0195
v 0.5039 0.0000 0.0000
v 181.0000 0.0000 0.0000
v 0.0000 1.0000 1.0000
v 1.0000 0.0000 0.0000
v 0.0000 1.0000 1.0000
v 1.0000 0.0000 0.0000
v 0.0000 0.0000 1.0000
v 1.0000 1.0000 0.0000
v 0.3555 0.0000 0.0000
v 1.0000 1.0000 1.0000
v 12.5000 0.0000 0.0000
v 1.0000 1.0000 0.0000
v 0.2617 0.0000 0.0000
v 0.0000 1.0000 1.0000
v 1.0000 0.0000 0.0000
v 1.0000 1.0000 1.0000
v 1.0000 1.0000 0.0000
v 0.9961 -661.1448 76.3333
v -661.1447 -0.0000 9.0000
v 0.9961 -833.0906 76.3333
v -424.4808 -0.0000 3.0000
v 0.9961 -833.0909 76.3333
v 424.4812 -0.0000 9.0000
v 0.9961 -661.1443 76.3333
v 661.1445 -0.0000 3.0000
v -1.2461 661.1442 76.3333
v -661.1446 -0.0000 3.0000
v -1.2461 833.0908 76.3333
v -424.4814 -0.0000 9.0000
v -3.3008 146.2661 76.3333
v -923.4880 -0.0000 3.0000
v 0.9961 424.4810 76.3333
v -833.0910 -0.0000 9.0000
v -1.2461 -424.4808 76.3333
v -833.0905 -0.0000 3.0000
v 0.9961 -146.2663 76.3333
v -923.4885 -0.0000 9.0000
v -1.2461 -923.4880 76.3333
v 146.2662 -0.0000 3.0000
v 0.9961 -923.4885 76.3333
v -146.2661 -0.0000 9.0000
v -3.3008 -146.2660 76.3333
v 923.4880 -0.0000 3.0000
v 0.9961 -424.4809 76.3333
v 833.0911 -0.0000 9.0000
v -1.2461 424.4810 76.3333
v 833.0905 -0.0000 3.0000
v 0.9961 146.2664 76.3333
v 923.4884 -0.0000 9.0000
v -1.2461 833.0906 76.3333
v 424.4806 -0.0000 3.0000
v 0.9961 661.1450 76.3333
v 661.1445 -0.0000 9.0000
v -1.2461 923.4879 76.3333
v -146.2664 -0.0000 3.0000
v 0.9961 923.4885 76.3333
v 146.2659 -0.0000 9.0000
v 0.9961 0.0000 0.0000
v 1.0000 1.0000 1.0000
v 0.0000 0.0000 0.2000
v 0.0000 0.2000 0.0000
v 0.2000 0.0000 0.0000
v 0.0000 0.0000 0.2000
v 0.0000 0.2000 0.0000
v 0.2000 0.0000 0.0000
v 0.0000 0.0000 0.2000
v 0.0000 0.2000 0.0000
v 707.1068 0.0000 0.0000
v 800.0000 0.0000 0.0000
vn 0.0000 1.0000 0.0000
vn 0.0000 1.0000 0.0000
vn 0.0000 1.0000 0.0000
vn 0.0000 1.0000 0.0000
vn 0.0000 1.0000 0.0000
vn 0.0000 1.0000 0.0000
vn 0.0000 1.0000 0.0000
vn 0.0000 1.0000 0.0000
vn 0.0000 1.0000 0.0000
vn 0.0000 1.0000 0.0000
vn 0.0000 1.0000 0.0000
vn 0.0000 1.0000 0.0000
vn 0.0000 1.0000 0.0000
vn 0.0000 1.0000 0.0000
vn 0.0000 1.0000 0.0000
vn 0.0000 1.0000 0.0000
vn 0.0000 1.0000 0.0000
vn 0.0000 1.0000 0.0000
vn 0.0000 1.0000 0.0000
vn 0.0000 1.0000 0.0000
vn 0.0000 1.0000 0.0000
vn 0.0000 1.0000 0.0000
vn 0.0000 1.0000 0.0000
vn 0.0000 1.0000 0.0000
vn 0.0000 1.0000 0.0000
vn 0.0000 1.0000 0.0000
vn 0.0000 1.0000 0.0000
vn 0.0000 1.0000 0.0000
vn 0.0000 1.0000 0.0000
vn 0.0000 1.0000 0.0000
vn 0.0000 1.0000 0.0000
vn 0.0000 1.0000 0.0000
vn 0.0000 1.0000 0.0000
vn 0.0000 1.0000 0.0000
vn 0.0000 1.0000 0.0000
vn 0.0000 1.0000 0.0000
vn 0.0000 1.0000 0.0000
vn 0.0000 1.0000 0.0000
vn 0.0000 1.0000 0.0000
vn 0.0000 1.0000 0.0000
vn 0.0000 1.0000 0.0000
vn 0.0000 1.0000 0.0000
vn 0.0000 1.0000 0.0000
vn 0.0000 1.0000 0.0000
vn 0.0000 1.0000 0.0000
vn 0.0000 1.0000 0.0000
vn 0.0000 1.0000 0.0000
vn 0.0000 1.0000 0.0000
vn 0.0000 1.0000 0.0000
vn 0.0000 1.0000 0.0000
vn 0.0000 1.0000 0.0000
vn 0.0000 1.0000 0.0000
vn 0.0000 1.0000 0.0000
vn 0.0000 1.0000 0.0000
vn 0.0000 1.0000 0.0000
vn 0.0000 1.0000 0.0000
vn 0.0000 1.0000 0.0000
vn 0.0000 1.0000 0.0000
vn 0.0000 1.0000 0.0000
vn 0.0000 1.0000 0.0000
vn 0.0000 1.0000 0.0000
vn 0.0000 1.0000 0.0000
vn 0.0000 1.0000 0.0000
vn 0.0000 1.0000 0.0000
vn 0.0000 1.0000 0.0000
vn 0.0000 1.0000 0.0000
vn 0.0000 1.0000 0.0000
vn 0.0000 1.0000 0.0000
vn 0.0000 1.0000 0.0000
vn 0.0000 1.0000 0.0000
vn 0.0000 1.0000 0.0000
vn 0.0000 1.0000 0.0000
vn 0.0000 1.0000 0.0000
vn 0.0000 1.0000 0.0000
vn 0.0000 1.0000 0.0000
vn 0.0000 1.0000 0.0000
vn 0.0000 1.0000 0.0000
vn 0.0000 1.0000 0.0000
vn 0.0000 1.0000 0.0000
vn 0.0000 1.0000 0.0000
vn 0.0000 1.0000 0.0000
vn 0.0000 1.0000 0.0000
vn 0.0000 1.0000 0.0000
vn 0.0000 1.0000 0.0000
vn 0.0000 1.0000 0.0000
vn 0.0000 1.0000 0.0000
vn 0.0000 1.0000 0.0000
vn 0.0000 1.0000 0.0000
vn 0.0000 1.0000 0.0000
vn 0.0000 1.0000 0.0000
vn 0.0000 1.0000 0.0000
vn 0.0000 1.0000 0.0000
vn 0.0000 1.0000 0.0000
vn 0.0000 1.0000 0.0000
vn 0.0000 1.0000 0.0000
vn 0.0000 1.0000 0.0000
vn 0.0000 1.0000 0.0000
vn 0.0000 1.0000 0.0000
vn 0.0000 1.0000 0.0000
vn 0.0000 1.0000 0.0000
vn 0.0000 1.0000 0.0000
vn 0.0000 1.0000 0.0000
vn 0.0000 1.0000 0.0000
vn 0.0000 1.0000 0.0000
vn 0.0000 1.0000 0.0000
vn 0.0000 1.0000 0.0000
vn 0.0000 1.0000 0.0000
vn 0.0000 1.0000 0.0000
vn 0.0000 1.0000 0.0000
vn 0.0000 1.0000 0.0000
vn 0.0000 1.0000 0.0000
vn 0.0000 1.0000 0.0000
vn 0.0000 1.0000 0.0000
vn 0.0000 1.0000 0.0000
vn 0.0000 1.0000 0.0000
vn 0.0000 1.0000 0.0000
vn 0.0000 1.0000 0.0000
vn 0.0000 1.0000 0.0000
vn 0.0000 1.0000 0.0000
vn 0.0000 1.0000 0.0000
vn 0.0000 1.0000 0.0000
vn 0.0000 1.0000 0.0000
vn 0.0000 1.0000 0.0000
vn 0.0000 1.0000 0.0000
vn 0.0000 1.0000 0.0000
vn 0.0000 1.0000 0.0000
vn 0.0000 1.0000 0.0000
vn 0.0000 1.0000 0.0000
vn 0.0000 1.0000 0.0000
vn 0.0000 1.0000 0.0000
vn 0.0000 1.0000 0.0000
vn 0.0000 1.0000 0.0000
vn 0.0000 1.0000 0.0000
vn 0.0000 1.0000 0.0000
vn 0.0000 1.0000 0.0000
vn 0.0000 1.0000 0.0000
vn 0.0000 1.0000 0.0000
vn 0.0000 1.0000 0.0000
vn 0.0000 1.0000 0.0000
vn 0.0000 1.0000 0.0000
vn 0.0000 1.0000 0.0000
vn 0.0000 1.0000 0.0000
vn 0.0000 1.0000 0.0000
vn 0.0000 1.0000 0.0000
vn 0.0000 1.0000 0.0000
vn 0.0000 1.0000 0.0000
vn 0.0000 1.0000 0.0000
vn 0.0000 1.0000 0.0000
vn 0.0000 1.0000 0.0000
vn 0.0000 1.0000 0.0000
vn 0.0000 1.0000 0.0000
vn 0.0000 1.0000 0.0000
vn 0.0000 1.0000 0.0000
vn 0.0000 1.0000 0.0000
vn 0.0000 1.0000 0.0000
vn 0.0000 1.0000 0.0000
vn 0.0000 1.0000 0.0000
vn 0.0000 1.0000 0.0000
vn 0.0000 1.0000 0.0000
vn 0.0000 1.0000 0.0000
vn 0.0000 1.0000 0.0000
vn 0.0000 1.0000 0.0000
vn 0.0000 1.0000 0.0000
vn 0.0000 1.0000 0.0000
vn 0.0000 1.0000 0.0000
vn 0.0000 1.0000 0.0000
vn 0.0000 1.0000 0.0000
vn 0.0000 1.0000 0.0000
vn 0.0000 1.0000 0.0000
vn 0.0000 1.0000 0.0000
vn 0.0000 1.0000 0.0000
vn 0.0000 1.0000 0.0000
vn 0.0000 1.0000 0.0000
vn 0.0000 1.0000 0.0000
vn 0.0000 1.0000 0.0000
vn 0.0000 1.0000 0.0000
vn 0.0000 1.0000 0.0000
vn 0.0000 1.0000 0.0000
vn 0.0000 1.0000 0.0000
vn 0.0000 1.0000 0.0000
vn 0.0000 1.0000 0.0000
vn 0.0000 1.0000 0.0000
vn 0.0000 1.0000 0.0000
vn 0.0000 1.0000 0.0000
vn 0.0000 1.0000 0.0000
vn 0.0000 1.0000 0.0000
vn 0.0000 1.0000 0.0000
vn 0.0000 1.0000 0.0000
vn 0.0000 1.0000 0.0000
vn 0.0000 1.0000 0.0000
vn 0.0000 1.0000 0.0000
vn 0.0000 1.0000 0.0000
vn 0.0000 1.0000 0.0000
vn 0.0000 1.0000 0.0000
vn 0.0000 1.0000 0.0000
vn 0.0000 1.0000 0.0000
vn 0.0000 1.0000 0.0000
vn 0.0000 1.0000 0.0000
vn 0.0000 1.0000 0.0000
vn 0.0000 1.0000 0.0000
vn 0.0000 1.0000 0.0000
vn 0.0000 1.0000 0.0000
vn 0.0000 1.0000 0.0000
vn 0.0000 1.0000 0.0000
vn 0.0000 1.0000 0.0000
vn 0.0000 1.0000 0.0000
vn 0.0000 1.0000 0.0000
vn 0.0000 1.0000 0.0000
vn 0.0000 1.0000 0.0000
vn 0.0000 1.0000 0.0000
vn 0.0000 1.0000 0.0000
vn 0.0000 1.0000 0.0000
vn 0.0000 1.0000 0.0000
vn 0.0000 1.0000 0.0000
vn 0.0000 1.0000 0.0000
vn 0.0000 1.0000 0.0000
vn 0.0000 1.0000 0.0000
vn 0.0000 1.0000 0.0000
vn 0.0000 1.0000 0.0000
vn 0.0000 1.0000 0.0000
vn 0.0000 1.0000 0.0000
vn 0.0000 1.0000 0.0000
vn 0.0000 1.0000 0.0000
vn 0.0000 1.0000 0.0000
vn 0.0000 1.0000 0.0000
vn 0.0000 1.0000 0.0000
vn 0.0000 1.0000 0.0000
vn 0.0000 1.0000 0.0000
vn 0.0000 1.0000 0.0000
vn 0.0000 1.0000 0.0000
vn 0.0000 1.0000 0.0000
vn 0.0000 1.0000 0.0000
vn 0.0000 1.0000 0.0000
vn 0.0000 1.0000 0.0000
vn 0.0000 1.0000 0.0000
vn 0.0000 1.0000 0.0000
vn 0.0000 1.0000 0.0000
vn 0.0000 1.0000 0.0000
vn 0.0000 1.0000 0.0000
vn 0.0000 1.0000 0.0000
vn 0.0000 1.0000 0.0000
vn 0.0000 1.0000 0.0000
vn 0.0000 1.0000 0.0000
vn 0.0000 1.0000 0.0000
vn 0.0000 1.0000 0.0000
vn 0.0000 1.0000 0.0000
vn 0.0000 1.0000 0.0000
vn 0.0000 1.0000 0.0000
vn 0.0000 1.0000 0.0000
vn 0.0000 1.0000 0.0000
vn 0.0000 1.0000 0.0000
vn 0.0000 1.0000 0.0000
vn 0.0000 1.0000 0.0000
vn 0.0000 1.0000 0.0000
vn 0.0000 1.0000 0.0000
vn 0.0000 1.0000 0.0000
vn 0.0000 1.0000 0.0000
vn 0.0000 1.0000 0.0000
vn 0.0000 1.0000 0.0000
vn 0.0000 1.0000 0.0000
vn 0.0000 1.0000 0.0000
vn 0.0000 1.0000 0.0000
vn 0.0000 1.0000 0.0000
vn 0.0000 1.0000 0.0000
vn 0.0000 1.0000 0.0000
vn 0.0000 1.0000 0.0000
vn 0.0000 1.0000 0.0000
vn 0.0000 1.0000 0.0000
vn 0.0000 1.0000 0.0000
vn 0.0000 1.0000 0.0000
vn 0.0000 1.0000 0.0000
vn 0.0000 1.0000 0.0000
vn 0.0000 1.0000 0.0000
vn 0.0000 1.0000 0.0000
vn 0.0000 1.0000 0.0000
vn 0.0000 1.0000 0.0000
vn 0.0000 1.0000 0.0000
vn 0.0000 1.0000 0.0000
vn 0.0000 1.0000 0.0000
vn 0.0000 1.0000 0.0000
vn 0.0000 1.0000 0.0000
vn 0.0000 1.0000 0.0000
vn 0.0000 1.0000 0.0000
vn 0.0000 1.0000 0.0000
vn 0.0000 1.0000 0.0000
vn 0.0000 1.0000 0.0000
vn 0.0000 1.0000 0.0000
vn 0.0000 1.0000 0.0000
vn 0.0000 1.0000 0.0000
vn 0.0000 1.0000 0.0000
vn 0.0000 1.0000 0.0000
f 1 2 3
f 4 5 6
f 7 8 9
f 10 11 12
f 13 14 15
f 16 17 18
f 19 20 21
f 22 23 24
f 25 26 27
f 28 29 30
f 31 32 33
f 34 35 36
f 37 38 39
f 40 41 42
f 43 44 45
f 46 47 48
f 49 50 51
f 52 53 54
f 55 56 57
f 58 59 60
f 61 62 63
f 64 65 66
f 67 68 69
f 70 71 72
f 73 74 75
f 76 77 78
f 79 80 81
f 82 83 84
f 85 86 87
f 88 89 90
f 91 92 93
f 94 95 96
f 97 98 99
f 100 101 102
f 103 104 105
f 106 107 108
f 109 110 111
f 112 113 114
f 115 116 117
f 118 119 120
f 121 122 123
f 124 125 126
f 127 128 129
f 130 131 132
f 133 134 135
f 136 137 138
f 139 140 141
f 142 143 144
f 145 146 147
f 148 149 150
f 151 152 153
f 154 155 156
f 157 158 159
f 160 161 162
f 163 164 165
f 166 167 168
f 169 170 171
f 172 173 174
f 175 176 177
f 178 179 180
f 181 182 183
f 184 185 186
f 187 188 189
f 190 191 192
f 193 194 195
f 196 197 198
f 199 200 201
f 202 203 204
f 205 206 207
f 208 209 210
f 211 212 213
f 214 215 216
f 217 218 219
f 220 221 222
f 223 224 225
f 226 227 228
f 229 230 231
f 232 233 234
f 235 236 237
f 238 239 240
f 241 242 243
f 244 245 246
f 247 248 249
f 250 251 252
f 253 254 255
f 256 257 258
f 259 260 261
f 262 263 264
f 265 266 267
f 268 269 270
f 271 272 273
f 274 275 276
f 277 278 279
f 280 281 282
f 283 284 285
f 286 287 288
f 289 290 291
