# Phantasy Star Online Authentic Sky Geometry
mtllib sky-ruins-02.mtl

v 0.0000 -2210.0012 0.0000
v 0.0000 3929.9990 0.0000
v 3058.9438 2865.2231 5298.2461
v 5890.2275 -1571.4933 -3400.7246
v 6360.8188 -864.2503 -3672.4207
v 6495.1904 -29.9999 -3750.0000
v 6180.7959 1450.9867 -3568.4841
v 5298.2461 2865.2231 -3058.9438
v 3749.9993 -29.9999 6495.1890
v 6801.4482 -1571.4933 -0.0014
v 3400.7256 -1571.4933 -5890.2285
v 3672.4199 -864.2503 -6360.8188
v 3749.9995 -29.9999 -6495.1899
v 3568.4841 1450.9867 -6180.7959
v 3058.9434 2865.2231 -5298.2456
v 3672.4199 -864.2503 6360.8179
v 7344.8398 -864.2503 -0.0000
v -0.0007 -1571.4933 -6801.4502
v -0.0001 -864.2503 -7344.8403
v 0.0000 -29.9999 -7499.9995
v -0.0003 1450.9867 -7136.9683
v 0.0002 2865.2231 -6117.8872
v 3400.7241 -1571.4933 5890.2256
v 7499.9985 -29.9999 -0.0002
v -3400.7246 -1571.4933 -5890.2275
v -3672.4204 -864.2503 -6360.8179
v -3750.0000 -29.9999 -6495.1899
v -3568.4841 1450.9867 -6180.7954
v -3058.9438 2865.2231 -5298.2461
v 6180.7949 1450.9867 3568.4841
v 7136.9673 1450.9867 -0.0005
v -5890.2280 -1571.4933 -3400.7246
v -6360.8179 -864.2503 -3672.4197
v -6495.1899 -29.9999 -3749.9990
v -6180.7954 1450.9867 -3568.4839
v -5298.2456 2865.2231 -3058.9434
v 5890.2275 -1571.4933 3400.7244
v 6117.8872 2865.2231 0.0002
v -6801.4487 -1571.4933 0.0010
v -7344.8398 -864.2503 0.0000
v -7499.9985 -29.9999 0.0002
v -7136.9673 1450.9867 0.0005
v -6117.8872 2865.2231 -0.0002
v -0.0002 2865.2231 6117.8872
v 3568.4834 1450.9867 6180.7944
v -5890.2261 -1571.4933 3400.7239
v -6360.8179 -864.2503 3672.4199
v -6495.1890 -29.9999 3749.9993
v -6180.7944 1450.9867 3568.4834
v -5298.2461 2865.2231 3058.9438
v 0.0005 1450.9867 7136.9673
v 6360.8179 -864.2503 3672.4199
v -3400.7244 -1571.4933 5890.2275
v -3672.4199 -864.2503 6360.8179
v -3749.9993 -29.9999 6495.1895
v -3568.4841 1450.9867 6180.7949
v -3058.9434 2865.2231 5298.2456
v 5298.2456 2865.2231 3058.9434
v 6495.1895 -29.9999 3749.9993
v 0.0012 -1571.4933 6801.4487
v 0.0000 -864.2503 7344.8398
v 0.0002 -29.9999 7499.9985
vn 0.0000 1.0000 0.0000
vn 0.0000 1.0000 0.0000
vn 0.0000 1.0000 0.0000
vn 0.0000 1.0000 0.0000
vn 0.0000 1.0000 0.0000
vn 0.0000 1.0000 0.0000
vn 0.0000 1.0000 0.0000
vn 0.0000 1.0000 0.0000
vn 0.0000 1.0000 0.0000
vn 0.0000 1.0000 0.0000
vn 0.0000 1.0000 0.0000
vn 0.0000 1.0000 0.0000
vn 0.0000 1.0000 0.0000
vn 0.0000 1.0000 0.0000
vn 0.0000 1.0000 0.0000
vn 0.0000 1.0000 0.0000
vn 0.0000 1.0000 0.0000
vn 0.0000 1.0000 0.0000
vn 0.0000 1.0000 0.0000
vn 0.0000 1.0000 0.0000
vn 0.0000 1.0000 0.0000
vn 0.0000 1.0000 0.0000
vn 0.0000 1.0000 0.0000
vn 0.0000 1.0000 0.0000
vn 0.0000 1.0000 0.0000
vn 0.0000 1.0000 0.0000
vn 0.0000 1.0000 0.0000
vn 0.0000 1.0000 0.0000
vn 0.0000 1.0000 0.0000
vn 0.0000 1.0000 0.0000
vn 0.0000 1.0000 0.0000
vn 0.0000 1.0000 0.0000
vn 0.0000 1.0000 0.0000
vn 0.0000 1.0000 0.0000
vn 0.0000 1.0000 0.0000
vn 0.0000 1.0000 0.0000
vn 0.0000 1.0000 0.0000
vn 0.0000 1.0000 0.0000
vn 0.0000 1.0000 0.0000
vn 0.0000 1.0000 0.0000
vn 0.0000 1.0000 0.0000
vn 0.0000 1.0000 0.0000
vn 0.0000 1.0000 0.0000
vn 0.0000 1.0000 0.0000
vn 0.0000 1.0000 0.0000
vn 0.0000 1.0000 0.0000
vn 0.0000 1.0000 0.0000
vn 0.0000 1.0000 0.0000
vn 0.0000 1.0000 0.0000
vn 0.0000 1.0000 0.0000
vn 0.0000 1.0000 0.0000
vn 0.0000 1.0000 0.0000
vn 0.0000 1.0000 0.0000
vn 0.0000 1.0000 0.0000
vn 0.0000 1.0000 0.0000
vn 0.0000 1.0000 0.0000
vn 0.0000 1.0000 0.0000
vn 0.0000 1.0000 0.0000
vn 0.0000 1.0000 0.0000
vn 0.0000 1.0000 0.0000
vn 0.0000 1.0000 0.0000
vn 0.0000 1.0000 0.0000
vt 0.0156 -7.0000
vt 0.0195 -7.0000
vt 0.0430 -6.3320
vt 0.0195 -7.0000
vt 0.0469 -6.3320
vt 0.0430 -6.3320
vt 6.6680 0.4180
vt 6.6680 0.0352
vt 6.0000 0.4180
vt 6.6680 0.0352
vt 6.0000 0.0352
vt 6.0000 0.4180
vt 6.0000 0.4180
vt 6.0000 0.0352
vt 5.3320 0.4180
vt 6.0000 0.0352
vt 5.3320 0.0352
vt 5.3320 0.4180
vt 5.3320 0.4180
vt 5.3320 0.0352
vt 4.6680 0.4180
vt 5.3320 0.0352
vt 4.6680 0.0352
vt 4.6680 0.4180
vt 4.6680 0.4180
vt 4.6680 0.0352
vt 4.0000 0.4180
vt 4.6680 0.0352
vt 4.0000 0.0352
vt 4.0000 0.4180
vt 4.0000 0.4180
vt 4.0000 0.0352
vt 3.3320 0.4180
vt 4.0000 0.0352
vt 3.3320 0.0352
vt 3.3320 0.4180
vt 3.3320 0.4180
vt 3.3320 0.0352
vt 2.6680 0.4180
vt 3.3320 0.0352
vt 2.6680 0.0352
vt 2.6680 0.4180
vt 2.6680 0.4180
vt 2.6680 0.0352
vt 2.0000 0.4180
vt 2.6680 0.0352
vt 2.0000 0.0352
vt 2.0000 0.4180
vt 2.0000 0.4180
vt 2.0000 0.0352
vt 1.3320 0.4180
vt 2.0000 0.0352
vt 1.3320 0.0352
vt 1.3320 0.4180
vt 1.3320 0.4180
vt 1.3320 0.0352
vt 0.6680 0.4180
vt 1.3320 0.0352
vt 0.6680 0.0352
vt 0.6680 0.4180
vt 0.6680 0.4180
vt 0.6680 0.0352
vt 0.0000 0.4180
vt 0.6680 0.0352
vt 0.0000 0.0352
vt 0.0000 0.4180
vt 0.0000 0.4180
vt 0.0000 0.0352
vt 0.0234 -7.0000
vt 0.0000 0.0352
vt 0.0273 -7.0000
vt 0.0234 -7.0000
vt 0.0234 -7.0000
vt 0.0273 -7.0000
vt 0.0508 -6.3320
vt 0.0273 -7.0000
vt 0.0547 -6.3320
vt 0.0508 -6.3320
vt 0.0508 -6.3320
vt 0.0547 -6.3320
vt 0.0781 -5.6680
vt 0.0547 -6.3320
vt 0.0820 -5.6680
vt 0.0781 -5.6680
vt 0.0781 -5.6680
vt 0.0820 -5.6680
vt 0.1055 -5.0000
vt 0.0820 -5.6680
vt 0.1094 -5.0000
vt 0.1055 -5.0000
vt 0.1055 -5.0000
vt 0.1094 -5.0000
vt 0.1328 -4.3320
vt 0.1094 -5.0000
vt 0.1367 -4.3320
vt 0.1328 -4.3320
vt 0.1328 -4.3320
vt 0.1367 -4.3320
vt 0.1602 -3.6680
vt 0.1367 -4.3320
vt 0.1641 -3.6680
vt 0.1602 -3.6680
vt 0.1602 -3.6680
vt 0.1641 -3.6680
vt 0.1875 -3.0000
vt 0.1641 -3.6680
vt 0.1914 -3.0000
vt 0.1875 -3.0000
vt 0.1875 -3.0000
vt 0.1914 -3.0000
vt 0.2148 -2.3320
vt 0.1914 -3.0000
vt 0.2188 -2.3320
vt 0.2148 -2.3320
vt 0.2148 -2.3320
vt 0.2188 -2.3320
vt 0.1953 -1.6680
vt 0.2188 -2.3320
vt 0.1680 -1.6680
vt 0.1953 -1.6680
vt 0.1953 -1.6680
vt 0.1680 -1.6680
vt 0.1719 -1.0000
vt 0.1680 -1.6680
vt 0.0078 -1.0000
vt 0.1719 -1.0000
vt 0.1719 -1.0000
vt 0.0078 -1.0000
vt 0.1133 -0.3320
vt 0.0078 -1.0000
vt 0.2227 -0.3320
vt 0.1133 -0.3320
vt 0.1133 -0.3320
vt 0.2227 -0.3320
vt 0.1172 0.3320
vt 0.2227 -0.3320
vt 0.1445 0.3320
vt 0.1172 0.3320
vt 0.1172 0.3320
vt 0.1445 0.3320
vt 0.0234 1.0000
vt 0.1445 0.3320
vt 0.0273 1.0000
vt 0.0234 1.0000
vt 0.0234 1.0000
vt 0.0273 1.0000
vt -0.1016 0.9844
vt 0.0273 1.0000
vt 0.5820 0.9883
vt -0.1016 0.9844
vt -0.1016 0.9844
vt 0.5820 0.9883
vt 0.0000 0.9375
vt 0.5820 0.9883
vt 0.5820 0.9648
vt 0.0000 0.9375
vt 0.0000 0.9375
vt 0.5820 0.9648
vt 0.0000 0.8008
vt 0.5820 0.9648
vt 0.5820 0.8594
vt 0.0000 0.8008
vt 0.0000 0.8008
vt 0.5820 0.8594
vt 0.0000 0.9414
vt 0.5820 0.8594
vt 0.5820 0.9141
vt 0.0000 0.9414
vt 0.0000 0.9414
vt 0.5820 0.9141
vt 0.0000 0.7656
vt 0.5820 0.9141
vt 0.5820 0.7695
vt 0.0000 0.7656
vt 0.0000 0.7656
vt 0.5820 0.7695
vt 0.0000 0.7930
vt 0.5820 0.7695
vt 0.5820 0.7969
vt 0.0000 0.7930
vt 0.0000 0.7930
vt 0.5820 0.7969
vt 0.0000 0.8203
vt 0.5820 0.7969
vt 0.5820 0.8242
vt 0.0000 0.8203
vt 0.0000 0.8203
vt 0.5820 0.8242
vt 0.0000 0.8477
vt 0.5820 0.8242
vt 0.5820 0.8516
vt 0.0000 0.8477
vt 0.0000 0.8477
vt 0.5820 0.8516
vt 0.0000 0.8750
vt 0.5820 0.8516
vt 0.5820 0.8789
vt 0.0000 0.8750
vt 0.0000 0.8750
vt 0.5820 0.8789
vt 0.0000 0.9023
vt 0.5820 0.8789
vt 0.5820 0.9062
vt 0.0000 0.9023
vt 0.0000 0.9023
vt 0.5820 0.9062
vt 0.0000 0.9297
vt 0.5820 0.9062
vt 0.5820 0.9336
vt 0.0000 0.9297
vt 0.0000 0.9297
vt 0.5820 0.9336
vt 0.0000 0.9570
vt 0.5820 0.9336
vt 0.5820 0.9609
vt 0.0000 0.9570
vt 0.0000 0.9570
vt 0.5820 0.9609
vt 0.0000 0.9844
vt 0.5820 0.9609
vt 0.5820 0.9883
vt 0.0000 0.9844
vt 0.0000 0.9844
vt 0.5820 0.9883
vt 0.0000 1.1016
vt 0.5820 0.9883
vt 0.0000 0.4922
vt 0.0000 1.1016
vt 0.0000 1.1016
vt 0.0000 0.4922
vt 0.0000 0.0039
vt 0.0000 0.4922
vt 0.6680 0.4922
vt 0.0000 0.0039
vt 0.0000 0.0039
vt 0.6680 0.4922
vt 0.6680 0.0039
vt 0.6680 0.4922
vt 1.3320 0.4922
vt 0.6680 0.0039
vt 0.6680 0.0039
vt 1.3320 0.4922
vt 1.3320 0.0039
vt 1.3320 0.4922
vt 2.0000 0.4922
vt 1.3320 0.0039
vt 1.3320 0.0039
vt 2.0000 0.4922
vt 2.0000 0.0039
vt 2.0000 0.4922
vt 2.6680 0.4922
vt 2.0000 0.0039
vt 2.0000 0.0039
vt 2.6680 0.4922
vt 2.6680 0.0039
vt 2.6680 0.4922
vt 3.3320 0.4922
vt 2.6680 0.0039
vt 2.6680 0.0039
vt 3.3320 0.4922
vt 3.3320 0.0039
vt 3.3320 0.4922
vt 4.0000 0.4922
vt 3.3320 0.0039
vt 3.3320 0.0039
vt 4.0000 0.4922
vt 4.0000 0.0039
vt 4.0000 0.4922
vt 4.6680 0.4922
vt 4.0000 0.0039
vt 4.0000 0.0039
vt 4.6680 0.4922
vt 4.6680 0.0039
vt 4.6680 0.4922
vt 5.3320 0.4922
vt 4.6680 0.0039
vt 4.6680 0.0039
vt 5.3320 0.4922
vt 5.3320 0.0039
vt 5.3320 0.4922
vt 6.0000 0.4922
vt 5.3320 0.0039
vt 5.3320 0.0039
vt 6.0000 0.4922
vt 6.0000 0.0039
vt 6.0000 0.4922
vt 6.6680 0.4922
vt 6.0000 0.0039
vt 6.0000 0.0039
vt 6.6680 0.4922
vt 6.6680 0.0039
vt 6.6680 0.4922
vt 7.3320 0.4922
vt 6.6680 0.0039
vt 6.6680 0.0039
vt 7.3320 0.4922
vt 7.3320 0.0039
vt 7.3320 0.4922
vt 8.0000 0.4922
vt 7.3320 0.0039
vt 7.3320 0.0039
vt 8.0000 0.4922
vt 8.0000 0.0039
vt 8.0000 0.4922
vt 52.0312 -63.0039
vt 8.0000 0.0039
vt 8.0000 0.0039
vt 52.0312 -63.0039
vt 0.5625 0.9609
vt 52.0312 -63.0039
vt 0.0547 0.1484
vt 0.5625 0.9609
vt 0.5625 0.9609
vt 0.0547 0.1484
vt 0.0039 0.5000
vt 0.0547 0.1484
vt 0.0273 0.0938
vt 0.0039 0.5000
vt 0.0039 0.5000
vt 0.0273 0.0938
vt 0.1445 0.1484
vt 0.0273 0.0938
vt 0.0156 0.9336
vt 0.1445 0.1484
vt 0.1445 0.1484
vt 0.0156 0.9336
vt 0.8906 0.9609
vt 0.0156 0.9336
vt 0.7227 1.0000
vt 0.8906 0.9609
vt 0.8906 0.9609
vt 0.7227 1.0000
vt 0.4961 0.9883
vt 0.7227 1.0000
vt 0.4961 1.0195
vt 0.4961 0.9883
vt 0.4961 0.9883
vt 0.4961 1.0195
vt 0.7266 0.1094
vt 0.4961 1.0195
vt 0.5000 0.0508
vt 0.7266 0.1094
vt 0.7266 0.1094
vt 0.5000 0.0508
vt 0.5000 0.5039
vt 0.5000 0.0508
vt 0.2734 0.1094
vt 0.5000 0.5039
vt 0.5000 0.5039
vt 0.2734 0.1094
vt 0.1055 0.2773
vt 0.2734 0.1094
vt 0.1367 0.7031
vt 0.1055 0.2773
vt 0.1055 0.2773
vt 0.1367 0.7031
vt 0.1094 0.5000
vt 0.1367 0.7031
vt 0.0039 0.5000
vt 0.1094 0.5000
vt 0.1094 0.5000
vt 0.0039 0.5000
vt 0.0820 0.2969
vt 0.0039 0.5000
vt 0.0547 0.1484
vt 0.0820 0.2969
vt 0.0820 0.2969
vt 0.0547 0.1484
vt 0.0117 0.8633
vt 0.0547 0.1484
vt 0.8477 0.8359
vt 0.0117 0.8633
vt 0.0117 0.8633
vt 0.8477 0.8359
vt 0.6992 0.9961
vt 0.8477 0.8359
vt 0.4961 1.0195
vt 0.6992 0.9961
vt 0.6992 0.9961
vt 0.4961 1.0195
vt 0.1055 0.2773
vt 0.4961 1.0195
vt 0.0469 0.5039
vt 0.1055 0.2773
vt 0.1055 0.2773
vt 0.0469 0.5039
vt 0.5000 0.5039
vt 0.0469 0.5039
vt 0.1055 0.7305
vt 0.5000 0.5039
vt 0.5000 0.5039
vt 0.1055 0.7305
vt 0.2734 0.8984
vt 0.1055 0.7305
vt 0.1680 0.7031
vt 0.2734 0.8984
vt 0.2734 0.8984
vt 0.1680 0.7031
vt 0.2188 0.8516
vt 0.1680 0.7031
vt 0.0039 0.5000
vt 0.2188 0.8516
vt 0.2188 0.8516
vt 0.0039 0.5000
vt 0.1914 0.9062
vt 0.0039 0.5000
vt 0.1641 0.8516
vt 0.1914 0.9062
vt 0.1914 0.9062
vt 0.1641 0.8516
vt 0.0117 1.0000
vt 0.1641 0.8516
vt 0.4961 0.9141
vt 0.0117 1.0000
vt 0.0117 1.0000
vt 0.4961 0.9141
vt 0.0430 0.7695
vt 0.4961 0.9141
vt 0.1016 1.0195
vt 0.0430 0.7695
vt 0.0430 0.7695
vt 0.1016 1.0195
vt 0.8516 0.7070
vt 0.1016 1.0195
vt 0.7031 0.8555
vt 0.8516 0.7070
vt 0.8516 0.7070
vt 0.7031 0.8555
vt 0.5000 0.5039
vt 0.7031 0.8555
vt 0.5000 0.9102
vt 0.5000 0.5039
vt 0.5000 0.5039
vt 0.5000 0.9102
vt 0.2969 0.8555
vt 0.5000 0.9102
vt 0.0117 0.0469
vt 0.2969 0.8555
vt 0.2969 0.8555
vt 0.0117 0.0469
vt 0.0352 0.1055
vt 0.0117 0.0469
vt 0.0000 0.5000
vt 0.0352 0.1055
vt 0.0352 0.1055
vt 0.0000 0.5000
vt 0.1406 0.2734
vt 0.0000 0.5000
vt 0.0859 0.5000
vt 0.1406 0.2734
vt 0.1406 0.2734
vt 0.0859 0.5000
vt 0.0000 0.0039
vt 0.0859 0.5000
vt 0.1367 0.0273
vt 0.0000 0.0039
vt 0.0000 0.0039
vt 0.1367 0.0273
vt 0.2422 1.0000
vt 0.1367 0.0273
vt 32.0195 59.9609
vt 0.2422 1.0000
vt 0.2422 1.0000
vt 32.0195 59.9609
vt 0.0000 78.3047
vt 32.0195 59.9609
vt 0.0000 1.0000
vt 0.0000 78.3047
vt 0.0000 78.3047
vt 0.0000 1.0000
vt 69.4570 1.0000
vt 0.0000 1.0000
vt -77.3047 1.3047
vt 69.4570 1.0000
vt 69.4570 1.0000
vt -77.3047 1.3047
vt 69.2461 -18.5703
vt -77.3047 1.3047
vt -110.0312 -68.6445
vt 69.2461 -18.5703
vt 69.2461 -18.5703
vt -110.0312 -68.6445
vt -0.3047 -16.8203
vt -110.0312 -68.6445
vt 111.7852 60.2344
vt -0.3047 -16.8203
vt -0.3047 -16.8203
vt 111.7852 60.2344
vt -58.6719 78.3047
vt 111.7852 60.2344
vt -57.4492 -68.7734
vt -58.6719 78.3047
vt -58.6719 78.3047
vt -57.4492 -68.7734
vt -59.6562 122.2695
vt -57.4492 -68.7734
vt -77.3047 1.3047
vt -59.6562 122.2695
vt -59.6562 122.2695
vt -77.3047 1.3047
vt 69.7891 1.1445
vt -77.3047 1.3047
vt 96.0000 59.5859
vt 69.7891 1.1445
vt 69.7891 1.1445
vt 96.0000 59.5859
vt -0.3047 -37.3672
vt 96.0000 59.5859
vt 95.5742 -67.7070
vt -0.3047 -37.3672
vt -0.3047 -37.3672
vt 95.5742 -67.7070
vt -58.6289 78.3047
vt 95.5742 -67.7070
vt -110.0312 -68.6445
vt -58.6289 78.3047
vt -58.6289 78.3047
vt -110.0312 -68.6445
vt 69.1992 -46.1016
vt -110.0312 -68.6445
vt -77.3047 1.3047
vt 69.1992 -46.1016
vt 69.1992 -46.1016
vt -77.3047 1.3047
vt 69.4141 1.1445
vt -77.3047 1.3047
vt -6.4883 -68.7891
vt 69.4141 1.1445
vt 69.4141 1.1445
vt -6.4883 -68.7891
vt -0.3047 117.4141
vt -6.4883 -68.7891
vt 111.7852 60.2344
vt -0.3047 117.4141
vt -0.3047 117.4141
vt 111.7852 60.2344
vt -69.2852 78.3047
vt 111.7852 60.2344
vt -116.3906 -68.3281
vt -69.2852 78.3047
vt -69.2852 78.3047
vt -116.3906 -68.3281
vt -59.2344 -16.8281
vt -116.3906 -68.3281
vt -77.3047 1.3047
vt -59.2344 -16.8281
vt -59.2344 -16.8281
vt -77.3047 1.3047
vt 69.3945 -15.0195
vt -77.3047 1.3047
vt -57.4492 59.2266
vt 69.3945 -15.0195
vt 69.3945 -15.0195
vt -57.4492 59.2266
vt -0.3047 -94.9922
vt -57.4492 59.2266
vt -0.1445 63.0664
vt -0.3047 -94.9922
vt -0.3047 -94.9922
vt -0.1445 63.0664
vt -58.2109 78.3047
vt -0.1445 63.0664
vt 7.7461 -68.3711
vt -58.2109 78.3047
vt -58.2109 78.3047
vt 7.7461 -68.3711
vt 68.7070 -37.3672
vt 7.7461 -68.3711
vt -77.3047 1.3047
vt 68.7070 -37.3672
vt 68.7070 -37.3672
vt -77.3047 1.3047
vt 69.2461 -18.5703
vt -77.3047 1.3047
vt -110.0352 59.3555
vt 69.2461 -18.5703
vt 69.2461 -18.5703
vt -110.0352 59.3555
vt -0.3047 122.2812
vt -110.0352 59.3555
vt 16.0195 60.6562
vt -0.3047 122.2812
vt -0.3047 122.2812
vt 16.0195 60.6562
vt 69.7734 78.3047
vt 16.0195 60.6562
vt -121.2812 -68.8945
vt 69.7734 78.3047
vt 69.7734 78.3047
vt -121.2812 -68.8945
vt -59.6562 51.1250
vt -121.2812 -68.8945
vt -77.3047 1.3047
vt -59.6562 51.1250
vt -59.6562 51.1250
vt -77.3047 1.3047
vt -69.8359 -110.7852
vt -77.3047 1.3047
vt -116.3984 59.1719
vt -69.8359 -110.7852
vt -69.8359 -110.7852
vt -116.3984 59.1719
vt -0.3047 1.7422
vt -116.3984 59.1719
vt 16.0195 60.6562
vt -0.3047 1.7422
vt -0.3047 1.7422
vt 16.0195 60.6562
vt -58.1055 78.3047
vt 16.0195 60.6562
vt 97.2812 -54.7773
vt -58.1055 78.3047
vt -58.1055 78.3047
vt 97.2812 -54.7773
vt -62.0664 -94.9961
vt 97.2812 -54.7773
vt -77.3047 1.3047
vt -62.0664 -94.9961
vt -62.0664 -94.9961
vt -77.3047 1.3047
vt -70.3750 -94.5742
vt -77.3047 1.3047
vt 7.7461 59.1289
vt -70.3750 -94.5742
vt -70.3750 -94.5742
vt 7.7461 59.1289
vt -0.3047 68.1641
vt 7.7461 59.1289
vt 19.5703 -68.1992
vt -0.3047 68.1641
vt -0.3047 68.1641
vt 19.5703 -68.1992
vt -58.2539 78.3047
vt 19.5703 -68.1992
vt -116.4141 -68.3281
vt -58.2539 78.3047
vt -58.2539 78.3047
vt -116.4141 -68.3281
vt -59.2344 -16.8047
vt -116.4141 -68.3281
vt -77.3047 1.3047
vt -59.2344 -16.8047
vt -59.2344 -16.8047
vt -77.3047 1.3047
vt 69.9141 1.1445
vt -77.3047 1.3047
vt 123.5195 71.8672
vt 69.9141 1.1445
vt 69.9141 1.1445
vt 123.5195 71.8672
vt -0.3047 117.4062
vt 123.5195 71.8672
vt 111.7852 60.2344
vt -0.3047 117.4062
vt -0.3047 117.4062
vt 111.7852 60.2344
vt -58.2812 78.3047
vt 111.7852 60.2344
vt -121.2734 59.6055
vt -58.2812 78.3047
vt -58.2812 78.3047
vt -121.2734 59.6055
vt -59.6562 58.4570
vt -121.2734 59.6055
vt -77.3047 1.3047
vt -59.6562 58.4570
vt -59.6562 58.4570
vt -77.3047 1.3047
vt -58.5859 1.1445
vt -77.3047 1.3047
vt -6.4805 59.2109
vt -58.5859 1.1445
vt -58.5859 1.1445
vt -6.4805 59.2109
vt -0.3047 -6.7461
vt -6.4805 59.2109
vt 95.5742 -67.7070
vt -0.3047 -6.7461
vt -0.3047 -6.7461
vt 95.5742 -67.7070
vt -58.2461 78.3047
vt 95.5742 -67.7070
vt 47.1016 59.7539
vt -58.2461 78.3047
vt -58.2461 78.3047
vt 47.1016 59.7539
vt 69.1992 111.0312
vt 47.1016 59.7539
vt -77.3047 1.3047
vt 69.1992 111.0312
vt 69.1992 111.0312
vt -77.3047 1.3047
vt 69.7539 -94.5742
vt -77.3047 1.3047
vt 7.7461 -68.3711
vt 69.7539 -94.5742
vt 69.7539 -94.5742
vt 7.7461 -68.3711
vt -0.3047 -6.7383
vt 7.7461 -68.3711
vt 95.5742 -67.7070
vt -0.3047 -6.7383
vt -0.3047 -6.7383
vt 95.5742 -67.7070
vt -70.0078 78.3047
vt 95.5742 -67.7070
vt 17.8242 59.2812
vt -70.0078 78.3047
vt -70.0078 78.3047
vt 17.8242 59.2812
vt -59.2344 117.4062
vt 17.8242 59.2812
vt -77.3047 1.3047
vt -59.2344 117.4062
vt -59.2344 117.4062
vt -77.3047 1.3047
vt -58.2266 -15.0195
vt -77.3047 1.3047
vt -121.2852 59.6055
vt -58.2266 -15.0195
vt -58.2266 -15.0195
vt -121.2852 59.6055
vt -0.3047 7.4805
vt -121.2852 59.6055
vt -0.1445 63.0664
vt -0.3047 7.4805
vt -0.3047 7.4805
vt -0.1445 63.0664
vt -58.5859 78.3047
vt -0.1445 63.0664
vt 38.3633 59.2461
vt -58.5859 78.3047
vt -58.5859 78.3047
vt 38.3633 59.2461
vt 68.7070 -6.7422
vt 38.3633 59.2461
vt -77.3047 1.3047
vt 68.7070 -6.7422
vt 68.7070 -6.7422
vt -77.3047 1.3047
vt -58.3555 -18.5703
vt -58.7539 78.3047
vt 17.8203 -68.7188
vt -59.2344 117.4102
vt 17.8203 -68.7188
vt -77.3047 1.3047
vt -59.2344 117.4102
vt -59.2344 117.4102
vt -77.3047 1.3047
vt 69.7461 -18.5703
vt -77.3047 1.3047
vt -67.1641 -56.4414
vt 69.7461 -18.5703
vt 69.7461 -18.5703
vt -67.1641 -56.4414
vt -0.3047 117.4102
vt -67.1641 -56.4414
vt 111.7852 60.2344
vt -0.3047 117.4102
vt -0.3047 117.4102
vt 111.7852 60.2344
vt 58.5156 78.3047
vt 111.7852 60.2344
vt -121.2812 59.1055
vt 58.5156 78.3047
vt 58.5156 78.3047
vt -121.2812 59.1055
vt -59.6562 51.1250
vt -121.2812 59.1055
vt -77.3047 1.3047
vt -59.6562 51.1250
vt -59.6562 51.1250
vt -77.3047 1.3047
vt -58.0859 1.1445
vt -77.3047 1.3047
vt 123.5195 -56.1328
vt -58.0859 1.1445
vt -58.0859 1.1445
vt 123.5195 -56.1328
vt -0.3047 -6.7383
vt 123.5195 -56.1328
vt 95.5742 -67.7070
vt -0.3047 -6.7383
vt -0.3047 -6.7383
vt 95.5742 -67.7070
vt 57.9922 78.3047
vt 95.5742 -67.7070
vt 47.0977 59.2539
vt 57.9922 78.3047
vt 57.9922 78.3047
vt 47.0977 59.2539
vt 69.1992 68.1641
vt 47.0977 59.2539
vt -77.3047 1.3047
vt 69.1992 68.1641
vt 69.1992 68.1641
vt -77.3047 1.3047
vt -70.5586 -18.5703
vt -77.3047 1.3047
vt 47.0977 -68.7461
vt -70.5586 -18.5703
vt -70.5586 -18.5703
vt 47.0977 -68.7461
vt -0.3047 -6.7344
vt 47.0977 -68.7461
vt 95.5742 -67.7070
vt -0.3047 -6.7344
vt -0.3047 -6.7344
vt 95.5742 -67.7070
vt 69.7539 78.3047
vt 95.5742 -67.7070
vt 17.8086 59.2812
vt 69.7539 78.3047
vt 69.7539 78.3047
vt 17.8086 59.2812
vt -59.2344 117.4180
vt 17.8086 59.2812
vt -77.3047 1.3047
vt -59.2344 117.4180
vt -59.2344 117.4180
vt -77.3047 1.3047
vt -58.2266 -15.0195
vt -77.3047 1.3047
vt -121.2812 -68.3945
vt -58.2266 -15.0195
vt -58.2266 -15.0195
vt -121.2812 -68.3945
vt -0.3047 7.4883
vt -121.2812 -68.3945
vt -0.1445 63.0664
vt -0.3047 7.4883
vt -0.3047 7.4883
vt -0.1445 63.0664
vt 69.4141 78.3047
vt -0.1445 63.0664
vt 38.3555 59.2461
vt 69.4141 78.3047
vt 69.4141 78.3047
vt 38.3555 59.2461
vt 68.7070 -6.7344
vt 38.3555 59.2461
vt -77.3047 1.3047
vt 68.7070 -6.7344
vt 68.7070 -6.7344
vt -77.3047 1.3047
vt -58.3555 -18.5703
vt -77.3047 1.3047
vt 47.1016 -68.2461
vt -58.3555 -18.5703
vt -58.3555 -18.5703
vt 47.1016 -68.2461
vt -0.3047 -5.5547
vt 47.1016 -68.2461
vt 95.5742 -67.7070
vt -0.3047 -5.5547
vt -0.3047 -5.5547
vt 95.5742 -67.7070
vt 69.8711 78.3047
vt 95.5742 -67.7070
vt -57.4570 -68.7734
vt 69.8711 78.3047
vt 69.8711 78.3047
vt -57.4570 -68.7734
vt -59.6562 122.2812
vt -57.4570 -68.7734
vt -77.3047 1.3047
vt -59.6562 122.2812
vt -59.6562 122.2812
vt -77.3047 1.3047
vt -58.6719 -110.7852
vt -77.3047 1.3047
vt 17.8203 -68.7188
vt -58.6719 -110.7852
vt -58.6719 -110.7852
vt 17.8203 -68.7188
vt -0.3047 122.2812
vt 17.8203 -68.7188
vt 16.0195 60.6562
vt -0.3047 122.2812
vt -0.3047 122.2812
vt 16.0195 60.6562
vt 69.7734 78.3047
vt 16.0195 60.6562
vt 95.9883 59.5859
vt 69.7734 78.3047
vt 69.7734 78.3047
vt 95.9883 59.5859
vt -62.0664 7.4844
vt 95.9883 59.5859
vt -77.3047 1.3047
vt -62.0664 7.4844
vt -62.0664 7.4844
vt -77.3047 1.3047
vt -58.6289 -94.5742
vt -77.3047 1.3047
vt 38.3594 -68.7539
vt -58.6289 -94.5742
vt -58.6289 -94.5742
vt 38.3594 -68.7539
vt -0.3047 -46.0938
vt 38.3594 -68.7539
vt 19.5703 -68.1992
vt -0.3047 -46.0938
vt -0.3047 -46.0938
vt 19.5703 -68.1992
vt 69.6445 78.3047
vt 19.5703 -68.1992
vt -110.0352 -68.6445
vt 69.6445 78.3047
vt 69.6445 78.3047
vt -110.0352 -68.6445
vt 69.1992 -46.0938
vt -110.0352 -68.6445
vt -77.3047 1.3047
vt 69.1992 -46.0938
vt 69.1992 -46.0938
vt -77.3047 1.3047
vt 69.7891 1.1445
vt -77.3047 1.3047
vt 95.9883 -68.4141
vt 69.7891 1.1445
vt 69.7891 1.1445
vt 95.9883 -68.4141
vt -0.3047 1.1836
vt 95.9883 -68.4141
vt 111.7852 60.2344
vt -0.3047 1.1836
vt -0.3047 1.1836
vt 111.7852 60.2344
vt 69.8281 78.3047
vt 111.7852 60.2344
vt -50.1250 -55.2656
vt 69.8281 78.3047
vt 69.8281 78.3047
vt -50.1250 -55.2656
vt -59.6562 122.2812
vt -50.1250 -55.2656
vt -77.3047 1.3047
vt -59.6562 122.2812
vt -59.6562 122.2812
vt -77.3047 1.3047
vt 57.1328 1.1445
vt -77.3047 1.3047
vt 95.9883 -68.9141
vt 57.1328 1.1445
vt 57.1328 1.1445
vt 95.9883 -68.9141
vt -0.3047 0.0039
vt 95.9883 -68.9141
vt 3.9375 1.0000
vt -0.3047 0.0039
vt -0.3047 0.0039
vt 3.9375 1.0000
vt 0.0000 1.0000
vt 3.9375 1.0000
vt -0.0703 -67.3359
vt 0.0000 1.0000
vt 0.0000 1.0000
vt -0.0703 -67.3359
vt -70.0000 -3.9727
vt -0.0703 -67.3359
vt 79.3125 -47.2734
vt -70.0000 -3.9727
vt -70.0000 -3.9727
vt 79.3125 -47.2734
vt 0.0000 127.7461
vt 79.3125 -47.2734
vt 0.0000 0.0000
vt 0.0000 127.7461

g mesh_sky_0
usemtl mat_sky_00
f 65511/1/65511 150/2/150 248/3/248
f 150/4/150 150/5/150 248/6/248
f 19/7/19 20/8/20 26/9/26
f 20/10/20 27/11/27 26/12/26
f 26/13/26 27/14/27 33/15/33
f 27/16/27 34/17/34 33/18/33
f 33/19/33 34/20/34 40/21/40
f 34/22/34 41/23/41 40/24/40
f 40/25/40 41/26/41 47/27/47
f 41/28/41 48/29/48 47/30/47
f 47/31/47 48/32/48 54/33/54
f 48/34/48 55/35/55 54/36/54
f 54/37/54 55/38/55 61/39/61
f 55/40/55 62/41/62 61/42/61
f 61/43/61 62/44/62 16/45/16
f 62/46/62 9/47/9 16/48/16
f 16/49/16 9/50/9 52/51/52
f 9/52/9 59/53/59 52/54/52
f 52/55/52 59/56/59 17/57/17
f 59/58/59 24/59/24 17/60/17
f 17/61/17 24/62/24 5/63/5
f 24/64/24 6/65/6 5/66/5
f 5/67/5 6/68/6 65511/69/65511
f 6/70/6 131/71/131 65511/72/65511
f 65511/73/65511 131/74/131 1/75/1
f 131/76/131 131/77/131 1/78/1
f 1/79/1 131/80/131 1/81/1
f 131/82/131 131/83/131 1/84/1
f 1/85/1 131/86/131 1/87/1
f 131/88/131 131/89/131 1/90/1
f 1/91/1 131/92/131 1/93/1
f 131/94/131 131/95/131 1/96/1
f 1/97/1 131/98/131 1/99/1
f 131/100/131 131/101/131 1/102/1
f 1/103/1 131/104/131 1/105/1
f 131/106/131 131/107/131 1/108/1
f 1/109/1 131/110/131 1/111/1
f 131/112/131 131/113/131 1/114/1
f 1/115/1 131/116/131 1/117/1
f 131/118/131 131/119/131 1/120/1
f 1/121/1 131/122/131 1/123/1
f 131/124/131 131/125/131 1/126/1
f 1/127/1 131/128/131 1/129/1
f 131/130/131 131/131/131 1/132/1
f 1/133/1 131/134/131 1/135/1
f 131/136/131 131/137/131 1/138/1
f 1/139/1 131/140/131 1/141/1
f 131/142/131 131/143/131 1/144/1
f 1/145/1 131/146/131 1/147/1
f 131/148/131 1/149/1 1/150/1
f 1/151/1 1/152/1 1/153/1
f 1/154/1 172/155/172 1/156/1
f 1/157/1 172/158/172 172/159/172
f 172/160/172 342/161/342 172/162/172
f 172/163/172 342/164/342 342/165/342
f 342/166/342 513/167/513 342/168/342
f 342/169/342 513/170/513 513/171/513
f 513/172/513 684/173/684 513/174/513
f 513/175/513 684/176/684 684/177/684
f 684/178/684 854/179/854 684/180/684
f 684/181/684 854/182/854 854/183/854
f 854/184/854 1025/185/1025 854/186/854
f 854/187/854 1025/188/1025 1025/189/1025
f 1025/190/1025 1196/191/1196 1025/192/1025
f 1025/193/1025 1196/194/1196 1196/195/1196
f 1196/196/1196 1366/197/1366 1196/198/1196
f 1196/199/1196 1366/200/1366 1366/201/1366
f 1366/202/1366 1537/203/1537 1366/204/1366
f 1366/205/1366 1537/206/1537 1537/207/1537
f 1537/208/1537 1708/209/1708 1537/210/1537
f 1537/211/1537 1708/212/1708 1708/213/1708
f 1708/214/1708 1878/215/1878 1708/216/1708
f 1708/217/1708 1878/218/1878 1878/219/1878
f 1878/220/1878 2049/221/2049 1878/222/1878
f 1878/223/1878 2049/224/2049 2049/225/2049
f 2049/226/2049 7/227/7 2049/228/2049
f 2049/229/2049 7/230/7 6/231/6
f 7/232/7 31/233/31 6/234/6
f 6/235/6 31/236/31 24/237/24
f 31/238/31 30/239/30 24/240/24
f 24/241/24 30/242/30 59/243/59
f 30/244/30 45/245/45 59/246/59
f 59/247/59 45/248/45 9/249/9
f 45/250/45 51/251/51 9/252/9
f 9/253/9 51/254/51 62/255/62
f 51/256/51 56/257/56 62/258/62
f 62/259/62 56/260/56 55/261/55
f 56/262/56 49/263/49 55/264/55
f 55/265/55 49/266/49 48/267/48
f 49/268/49 42/269/42 48/270/48
f 48/271/48 42/272/42 41/273/41
f 42/274/42 35/275/35 41/276/41
f 41/277/41 35/278/35 34/279/34
f 35/280/35 28/281/28 34/282/34
f 34/283/34 28/284/28 27/285/27
f 28/286/28 21/287/21 27/288/27
f 27/289/27 21/290/21 20/291/20
f 21/292/21 14/293/14 20/294/20
f 20/295/20 14/296/14 13/297/13
f 14/298/14 7/299/7 13/300/13
f 13/301/13 7/302/7 6/303/6
f 7/304/7 1/305/1 6/306/6
f 6/307/6 1/308/1 834/309/834
f 1/310/1 5/311/5 834/312/834
f 834/313/834 5/314/5 180/315/180
f 5/316/5 128/317/128 180/318/180
f 180/319/180 128/320/128 128/321/128
f 128/322/128 76/323/76 128/324/128
f 128/325/128 76/326/76 187/327/187
f 76/328/76 230/329/230 187/330/187
f 187/331/187 230/332/230 129/333/129
f 230/334/230 245/335/245 129/336/129
f 129/337/129 245/338/245 18/339/18
f 245/340/245 25/341/25 18/342/18
f 18/343/18 25/344/25 1/345/1
f 25/346/25 32/347/32 1/348/1
f 1/349/1 32/350/32 39/351/39
f 32/352/32 65532/353/65532 39/354/39
f 39/355/39 65532/356/65532 218/357/218
f 65532/358/65532 232/359/232 218/360/218
f 218/361/218 232/362/232 128/363/128
f 232/364/232 218/365/218 128/366/128
f 128/367/128 218/368/218 180/369/180
f 218/370/218 77/371/77 180/372/180
f 180/373/180 77/374/77 39/375/39
f 77/376/77 129/377/129 39/378/39
f 39/379/39 129/380/129 39/381/39
f 129/382/129 46/383/46 39/384/39
f 39/385/39 46/386/46 1/387/1
f 46/388/46 53/389/53 1/390/1
f 1/391/1 53/392/53 60/393/60
f 53/394/53 65532/395/65532 60/396/60
f 60/397/60 65532/398/65532 38/399/38
f 65532/400/65532 76/401/76 38/402/38
f 38/403/38 76/404/76 128/405/128
f 76/406/76 128/407/128 128/408/128
f 128/409/128 128/410/128 180/411/180
f 128/412/128 129/413/129 180/414/180
f 180/415/180 129/416/129 129/417/129
f 129/418/129 71/419/71 129/420/129
f 129/421/129 71/422/71 38/423/38
f 71/424/71 58/425/58 38/426/38
f 38/427/38 58/428/58 2/429/2
f 58/430/58 3/431/3 2/432/2
f 2/433/2 3/434/3 44/435/44
f 3/436/3 6/437/6 44/438/44
f 44/439/44 6/440/6 128/441/128
f 6/442/6 70/443/70 128/444/128
f 128/445/128 70/446/70 128/447/128
f 70/448/70 27/449/27 128/450/128
f 128/451/128 27/452/27 12/453/12
f 27/454/27 1/455/1 12/456/12
f 12/457/12 1/458/1 1/459/1
f 1/460/1 1/461/1 1/462/1
f 1/463/1 1/464/1 1/465/1
f 1/466/1 65459/467/65459 1/468/1
f 1/469/1 65459/470/65459 40957/471/40957
f 65459/472/65459 1/473/1 40957/474/40957
f 40957/475/40957 1/476/1 12059/477/12059
f 1/478/1 17716/479/17716 12059/480/12059
f 12059/481/12059 17716/482/17716 45747/483/45747
f 17716/484/17716 17849/485/17849 45747/486/45747
f 45747/487/45747 17849/488/17849 35737/489/35737
f 17849/490/17849 65459/491/65459 35737/492/35737
f 35737/493/35737 65459/494/65459 4102/495/4102
f 65459/496/65459 50534/497/50534 4102/498/4102
f 4102/499/4102 50534/500/50534 63879/501/63879
f 50534/502/50534 49648/503/49648 63879/504/63879
f 63879/505/63879 49648/506/49648 45747/507/45747
f 49648/508/49648 17858/509/17858 45747/510/45747
f 45747/511/45747 17858/512/17858 1984/513/1984
f 17858/514/17858 65459/515/65459 1984/516/1984
f 1984/517/1984 65459/518/65459 5011/519/5011
f 65459/520/65459 50496/521/50496 5011/522/5011
f 5011/523/5011 50496/524/50496 24574/525/24574
f 50496/526/50496 49648/527/49648 24574/528/24574
f 24574/529/24574 49648/530/49648 45747/531/45747
f 49648/532/49648 17877/533/17877 45747/534/45747
f 45747/535/45747 17877/536/17877 27848/537/27848
f 17877/538/17877 65459/539/65459 27848/540/27848
f 27848/541/27848 65459/542/65459 28618/543/28618
f 65459/544/65459 50617/545/50617 28618/546/28618
f 28618/547/28618 50617/548/50617 34489/549/34489
f 50617/550/50617 50265/551/50265 34489/552/34489
f 34489/553/34489 50265/554/50265 45747/555/45747
f 50265/556/50265 17771/557/17771 45747/558/45747
f 45747/559/45747 17771/560/17771 63878/561/63878
f 17771/562/17771 65459/563/65459 63878/564/63878
f 63878/565/63878 65459/566/65459 24468/567/24468
f 65459/568/65459 50626/569/50626 24468/570/24468
f 24468/571/24468 50626/572/50626 12057/573/12057
f 50626/574/50626 17716/575/17716 12057/576/12057
f 12057/577/12057 17716/578/17716 45747/579/45747
f 17716/580/17716 17766/581/17766 45747/582/45747
f 45747/583/45747 17766/584/17766 50828/585/50828
f 17766/586/17766 65459/587/65459 50828/588/50828
f 50828/589/50828 65459/590/65459 4102/591/4102
f 65459/592/65459 47173/593/47173 4102/594/4102
f 4102/595/4102 47173/596/47173 57047/597/57047
f 47173/598/47173 50373/599/50373 57047/600/57047
f 57047/601/57047 50373/602/50373 45747/603/45747
f 50373/604/50373 47271/605/47271 45747/606/45747
f 45747/607/45747 47271/608/47271 34490/609/34490
f 47271/610/47271 65459/611/65459 34490/612/34490
f 34490/613/34490 65459/614/65459 65500/615/65500
f 65459/616/65459 50667/617/50667 65500/618/65500
f 65500/619/65500 50667/620/50667 21176/621/21176
f 50667/622/50667 17590/623/17590 21176/624/21176
f 21176/625/21176 17590/626/17590 45747/627/45747
f 17590/628/17590 14706/629/14706 45747/630/45747
f 45747/631/45747 14706/632/14706 12058/633/12058
f 14706/634/14706 65459/635/65459 12058/636/12058
f 12058/637/12058 65459/638/65459 28618/639/28618
f 65459/640/65459 17849/641/17849 28618/642/28618
f 28618/643/28618 17849/644/17849 24574/645/24574
f 17849/646/17849 49648/647/49648 24574/648/24574
f 24574/649/24574 49648/650/49648 45747/651/45747
f 49648/652/49648 50517/653/50517 45747/654/45747
f 45747/655/45747 50517/656/50517 4563/657/4563
f 50517/658/50517 65459/659/65459 4563/660/4563
f 4563/661/4563 65459/662/65459 4102/663/4102
f 65459/664/65459 50631/665/50631 4102/666/4102
f 4102/667/4102 50631/668/50631 24577/669/24577
f 50631/670/50631 49648/671/49648 24577/672/24577
f 24577/673/24577 49648/674/49648 45747/675/45747
f 49648/676/49648 50528/677/50528 45747/678/45747
f 45747/679/45747 50528/680/50528 9822/681/9822
f 50528/682/50528 65459/683/65459 9822/684/9822
f 9822/685/9822 65459/686/65459 5011/687/5011
f 65459/688/65459 50598/689/50598 5011/690/5011
f 5011/691/5011 50598/692/50598 9821/693/9821
f 50598/694/50598 17590/695/17590 9821/696/9821
f 9821/697/9821 17590/698/17590 45747/699/45747
f 17590/700/17590 17888/701/17888 45747/702/45747
f 45747/703/45747 17888/704/17888 1679/705/1679
f 17888/706/17888 65459/707/65459 1679/708/1679
f 1679/709/1679 65459/710/65459 28618/711/28618
f 65459/712/65459 50517/713/50517 28618/714/28618
f 28618/715/28618 50517/716/50517 50828/717/50828
f 50517/718/50517 50265/719/50265 50828/720/50828
f 50828/721/50828 50265/722/50265 45747/723/45747
f 50265/724/50265 50635/725/50635 45747/726/45747
f 45747/727/45747 50635/728/50635 24573/729/24573
f 50635/730/50635 65459/731/65459 24573/732/24573
f 24573/733/24573 65459/734/65459 24468/735/24468
f 65459/736/65459 50528/737/50528 24468/738/24468
f 24468/739/24468 50528/740/50528 37368/741/37368
f 12057/742/12057 65459/743/65459 28618/744/28618
f 65459/745/65459 17749/746/17749 28618/747/28618
f 28618/748/28618 17749/749/17749 12058/750/12058
f 17749/751/17749 17716/752/17716 12058/753/12058
f 12058/754/12058 17716/755/17716 45747/756/45747
f 17716/757/17716 50645/758/50645 45747/759/45747
f 45747/760/45747 50645/761/50645 18775/762/18775
f 50645/763/50645 65459/764/65459 18775/765/18775
f 18775/766/18775 65459/767/65459 4102/768/4102
f 65459/769/65459 14405/770/14405 4102/771/4102
f 4102/772/4102 14405/773/14405 24574/774/24574
f 14405/775/14405 49648/776/49648 24574/777/24574
f 24574/778/24574 49648/779/49648 45747/780/45747
f 49648/781/49648 50656/782/50656 45747/783/45747
f 45747/784/45747 50656/785/50656 1679/786/1679
f 50656/787/50656 65459/788/65459 1679/789/1679
f 1679/790/1679 65459/791/65459 5011/792/5011
f 65459/793/65459 47474/794/47474 5011/795/5011
f 5011/796/5011 47474/797/47474 48343/798/48343
f 47474/799/47474 17716/800/17716 48343/801/48343
f 48343/802/48343 17716/803/17716 45747/804/45747
f 17716/805/17716 17760/806/17760 45747/807/45747
f 45747/808/45747 17760/809/17760 9820/810/9820
f 17760/811/17760 65459/812/65459 9820/813/9820
f 9820/814/9820 65459/815/65459 28618/816/28618
f 65459/817/65459 17749/818/17749 28618/819/28618
f 28618/820/28618 17749/821/17749 50828/822/50828
f 17749/823/17749 50265/824/50265 50828/825/50828
f 50828/826/50828 50265/827/50265 45747/828/45747
f 50265/829/50265 50635/830/50635 45747/831/45747
f 45747/832/45747 50635/833/50635 24574/834/24574
f 50635/835/50635 65459/836/65459 24574/837/24574
f 24574/838/24574 65459/839/65459 24468/840/24468
f 65459/841/65459 17760/842/17760 24468/843/24468
f 24468/844/24468 17760/845/17760 37369/846/37369
f 17760/847/17760 17716/848/17716 37369/849/37369
f 37369/850/37369 17716/851/17716 45747/852/45747
f 17716/853/17716 14847/854/14847 45747/855/45747
f 45747/856/45747 14847/857/14847 1982/858/1982
f 14847/859/14847 65459/860/65459 1982/861/1982
f 1982/862/1982 65459/863/65459 4102/864/4102
f 65459/865/65459 17766/866/17766 4102/867/4102
f 4102/868/4102 17766/869/17766 35736/870/35736
f 17766/871/17766 50373/872/50373 35736/873/35736
f 35736/874/35736 50373/875/50373 45747/876/45747
f 50373/877/50373 50534/878/50534 45747/879/45747
f 45747/880/45747 50534/881/50534 50828/882/50828
f 50534/883/50534 65459/884/65459 50828/885/50828
f 50828/886/50828 65459/887/65459 65500/888/65500
f 65459/889/65459 17867/890/17867 65500/891/65500
f 65500/892/65500 17867/893/17867 1984/894/1984
f 17867/895/17867 17590/896/17590 1984/897/1984
f 1984/898/1984 17590/899/17590 45747/900/45747
f 17590/901/17590 50496/902/50496 45747/903/45747
f 45747/904/45747 50496/905/50496 37368/906/37368
f 50496/907/50496 65459/908/65459 37368/909/37368
f 37368/910/37368 65459/911/65459 5011/912/5011
f 65459/913/65459 17728/914/17728 5011/915/5011
f 5011/916/5011 17728/917/17728 63877/918/63877
f 17728/919/17728 49648/920/49648 63877/921/63877
f 63877/922/63877 49648/923/49648 45747/924/45747
f 49648/925/49648 15008/926/15008 45747/927/45747
f 45747/928/45747 15008/929/15008 35736/930/35736
f 15008/931/15008 65459/932/65459 35736/933/35736
f 35736/934/35736 65459/935/65459 4102/936/4102
f 65459/937/65459 17894/938/17894 4102/939/4102
f 4102/940/4102 17894/941/17894 31622/942/31622
f 17894/943/17894 49648/944/49648 31622/945/31622
f 31622/946/31622 49648/947/49648 45747/948/45747
f 49648/949/49648 1/950/1 45747/951/45747
f 45747/952/45747 1/953/1 53/954/53
f 1/955/1 1/956/1 53/957/53
f 53/958/53 1/959/1 1/960/1
f 1/961/1 17901/962/17901 1/963/1
f 1/964/1 17901/965/17901 5/966/5
f 17901/967/17901 16887/968/16887 5/969/5
