# Phantasy Star Online Authentic Sky Geometry
mtllib sky-visual-lobby-festive.mtl

v 5200.0000 -1069.9999 0.0000
v 4804.1733 460.7339 0.0000
v 3676.9551 1758.4272 0.0000
v 1989.9535 2625.5181 0.0000
v 4804.1733 -1069.9999 -1989.9540
v 4438.4775 460.7339 -1838.4777
v 3397.0630 1758.4272 -1407.1099
v 1838.4772 2625.5181 -761.5223
v 3676.9551 -1069.9999 -3676.9553
v 3397.0632 460.7339 -3397.0637
v 2599.9995 1758.4272 -2600.0000
v 1407.1095 2625.5181 -1407.1095
v 1989.9532 -1069.9999 -4804.1733
v 1838.4772 460.7339 -4438.4775
v 1407.1091 1758.4272 -3397.0632
v 761.5220 2625.5181 -1838.4772
v -0.0007 -1069.9999 -5199.9990
v -0.0005 460.7339 -4804.1733
v -0.0006 1758.4272 -3676.9546
v -0.0002 2625.5181 -1989.9534
v -1989.9543 -1069.9999 -4804.1724
v -1838.4781 460.7339 -4438.4771
v -1407.1104 1758.4272 -3397.0627
v -761.5224 2625.5181 -1838.4771
v -3676.9553 -1069.9999 -3676.9541
v -3397.0640 460.7339 -3397.0627
v -2600.0002 1758.4272 -2599.9985
v -1407.1096 2625.5181 -1407.1091
v -4804.1733 -1069.9999 -1989.9524
v -4438.4775 460.7339 -1838.4763
v -3397.0632 1758.4272 -1407.1084
v -1838.4772 2625.5181 -761.5218
v -5199.9990 -1069.9999 0.0015
v -4804.1729 460.7339 0.0012
v -3676.9543 1758.4272 0.0013
v -1989.9532 2625.5181 0.0004
v -4804.1724 -1069.9999 1989.9551
v -4438.4766 460.7339 1838.4786
v -3397.0620 1758.4272 1407.1107
v -1838.4768 2625.5181 761.5226
v -3676.9534 -1069.9999 3676.9563
v -3397.0620 460.7339 3397.0642
v -2599.9980 1758.4272 2600.0005
v -1407.1090 2625.5181 1407.1099
v -1989.9517 -1069.9999 4804.1738
v -1838.4760 460.7339 4438.4775
v -1407.1079 1758.4272 3397.0632
v -761.5215 2625.5181 1838.4772
v 0.0024 -1069.9999 5199.9990
v 0.0018 460.7339 4804.1729
v 0.0019 1758.4272 3676.9541
v 0.0007 2625.5181 1989.9530
v 1989.9559 -1069.9999 4804.1719
v 1838.4791 460.7339 4438.4761
v 1407.1112 1758.4272 3397.0620
v 761.5228 2625.5181 1838.4766
v 3676.9565 -1069.9999 3676.9526
v 3397.0642 460.7339 3397.0615
v 2600.0007 1758.4272 2599.9978
v 1407.1099 2625.5181 1407.1088
v 4804.1738 -1069.9999 1989.9508
v 4438.4775 460.7339 1838.4751
v 3397.0632 1758.4272 1407.1073
v 1838.4772 2625.5181 761.5212
v 0.0001 3075.5181 0.0002
v 4939.9995 -1069.9999 0.0000
v 4050.7141 393.5147 0.0000
v 4563.9644 -1069.9999 -1890.4562
v 3742.3735 393.5147 -1550.1410
v 3493.1069 -1069.9999 -3493.1074
v 2864.2861 393.5147 -2864.2861
v 1890.4554 -1069.9999 -4563.9644
v 1550.1409 393.5147 -3742.3735
v -0.0006 -1069.9999 -4939.9990
v -0.0004 393.5147 -4050.7141
v -1890.4565 -1069.9999 -4563.9634
v -1550.1414 393.5147 -3742.3723
v -3493.1074 -1069.9999 -3493.1062
v -2864.2861 393.5147 -2864.2852
v -4563.9644 -1069.9999 -1890.4547
v -3742.3735 393.5147 -1550.1406
v -4939.9990 -1069.9999 0.0014
v -4050.7141 393.5147 0.0010
v -4563.9634 -1069.9999 1890.4573
v -3742.3721 393.5147 1550.1418
v -3493.1055 -1069.9999 3493.1082
v -2864.2852 393.5147 2864.2866
v -1890.4540 -1069.9999 4563.9648
v -1550.1399 393.5147 3742.3735
v 0.0022 -1069.9999 4939.9990
v 0.0015 393.5147 4050.7141
v 1890.4580 -1069.9999 4563.9634
v 1550.1422 393.5147 3742.3716
v 3493.1086 -1069.9999 3493.1050
v 2864.2866 393.5147 2864.2852
v 4563.9648 -1069.9999 1890.4531
v 3742.3735 393.5147 1550.1387
vn 0.0000 1.0000 0.0000
vn 0.0000 1.0000 0.0000
vn 0.0000 1.0000 0.0000
vn 0.0000 1.0000 0.0000
vn 0.0000 1.0000 0.0000
vn 0.0000 1.0000 0.0000
vn 0.0000 1.0000 0.0000
vn 0.0000 1.0000 0.0000
vn 0.0000 1.0000 0.0000
vn 0.0000 1.0000 0.0000
vn 0.0000 1.0000 0.0000
vn 0.0000 1.0000 0.0000
vn 0.0000 1.0000 0.0000
vn 0.0000 1.0000 0.0000
vn 0.0000 1.0000 0.0000
vn 0.0000 1.0000 0.0000
vn 0.0000 1.0000 0.0000
vn 0.0000 1.0000 0.0000
vn 0.0000 1.0000 0.0000
vn 0.0000 1.0000 0.0000
vn 0.0000 1.0000 0.0000
vn 0.0000 1.0000 0.0000
vn 0.0000 1.0000 0.0000
vn 0.0000 1.0000 0.0000
vn 0.0000 1.0000 0.0000
vn 0.0000 1.0000 0.0000
vn 0.0000 1.0000 0.0000
vn 0.0000 1.0000 0.0000
vn 0.0000 1.0000 0.0000
vn 0.0000 1.0000 0.0000
vn 0.0000 1.0000 0.0000
vn 0.0000 1.0000 0.0000
vn 0.0000 1.0000 0.0000
vn 0.0000 1.0000 0.0000
vn 0.0000 1.0000 0.0000
vn 0.0000 1.0000 0.0000
vn 0.0000 1.0000 0.0000
vn 0.0000 1.0000 0.0000
vn 0.0000 1.0000 0.0000
vn 0.0000 1.0000 0.0000
vn 0.0000 1.0000 0.0000
vn 0.0000 1.0000 0.0000
vn 0.0000 1.0000 0.0000
vn 0.0000 1.0000 0.0000
vn 0.0000 1.0000 0.0000
vn 0.0000 1.0000 0.0000
vn 0.0000 1.0000 0.0000
vn 0.0000 1.0000 0.0000
vn 0.0000 1.0000 0.0000
vn 0.0000 1.0000 0.0000
vn 0.0000 1.0000 0.0000
vn 0.0000 1.0000 0.0000
vn 0.0000 1.0000 0.0000
vn 0.0000 1.0000 0.0000
vn 0.0000 1.0000 0.0000
vn 0.0000 1.0000 0.0000
vn 0.0000 1.0000 0.0000
vn 0.0000 1.0000 0.0000
vn 0.0000 1.0000 0.0000
vn 0.0000 1.0000 0.0000
vn 0.0000 1.0000 0.0000
vn 0.0000 1.0000 0.0000
vn 0.0000 1.0000 0.0000
vn 0.0000 1.0000 0.0000
vn 0.0000 1.0000 0.0000
vn 0.0000 1.0000 0.0000
vn 0.0000 1.0000 0.0000
vn 0.0000 1.0000 0.0000
vn 0.0000 1.0000 0.0000
vn 0.0000 1.0000 0.0000
vn 0.0000 1.0000 0.0000
vn 0.0000 1.0000 0.0000
vn 0.0000 1.0000 0.0000
vn 0.0000 1.0000 0.0000
vn 0.0000 1.0000 0.0000
vn 0.0000 1.0000 0.0000
vn 0.0000 1.0000 0.0000
vn 0.0000 1.0000 0.0000
vn 0.0000 1.0000 0.0000
vn 0.0000 1.0000 0.0000
vn 0.0000 1.0000 0.0000
vn 0.0000 1.0000 0.0000
vn 0.0000 1.0000 0.0000
vn 0.0000 1.0000 0.0000
vn 0.0000 1.0000 0.0000
vn 0.0000 1.0000 0.0000
vn 0.0000 1.0000 0.0000
vn 0.0000 1.0000 0.0000
vn 0.0000 1.0000 0.0000
vn 0.0000 1.0000 0.0000
vn 0.0000 1.0000 0.0000
vn 0.0000 1.0000 0.0000
vn 0.0000 1.0000 0.0000
vn 0.0000 1.0000 0.0000
vn 0.0000 1.0000 0.0000
vn 0.0000 1.0000 0.0000
vn 0.0000 1.0000 0.0000
vt 0.1484 -9.0000
vt 0.1445 -9.0000
vt 0.1641 -8.3750
vt 0.1445 -9.0000
vt 0.1602 -8.3750
vt 0.1641 -8.3750
vt 0.1641 -8.3750
vt 0.1602 -8.3750
vt 0.1797 -7.7500
vt 0.1602 -8.3750
vt 0.1758 -7.7500
vt 0.1797 -7.7500
vt 0.1797 -7.7500
vt 0.1758 -7.7500
vt 0.1953 -7.1250
vt 0.1758 -7.7500
vt 0.1914 -7.1250
vt 0.1953 -7.1250
vt 0.1953 -7.1250
vt 0.1914 -7.1250
vt 0.2109 -6.5000
vt 0.1914 -7.1250
vt 0.2070 -6.5000
vt 0.2109 -6.5000
vt 0.2109 -6.5000
vt 0.2070 -6.5000
vt 0.2266 -5.8750
vt 0.2070 -6.5000
vt 0.2227 -5.8750
vt 0.2266 -5.8750
vt 0.2266 -5.8750
vt 0.2227 -5.8750
vt 0.2422 -5.2500
vt 0.2227 -5.8750
vt 0.2383 -5.2500
vt 0.2422 -5.2500
vt 0.2422 -5.2500
vt 0.2383 -5.2500
vt 0.0078 -4.6250
vt 0.2383 -5.2500
vt 0.0039 -4.6250
vt 0.0078 -4.6250
vt 0.0078 -4.6250
vt 0.0039 -4.6250
vt 0.0234 -4.0000
vt 0.0039 -4.6250
vt 0.0195 -4.0000
vt 0.0234 -4.0000
vt 0.0234 -4.0000
vt 0.0195 -4.0000
vt 0.0391 -3.3750
vt 4.3750 1.0000
vt 3.7500 1.0000
vt 3.7500 2.0000
vt 3.7500 1.0000
vt 3.1250 2.0000
vt 3.7500 2.0000
vt 3.7500 1.0000
vt 3.1250 1.0000
vt 3.1250 2.0000
vt 3.1250 1.0000
vt 2.5000 2.0000
vt 3.1250 2.0000
vt 3.1250 1.0000
vt 2.5000 1.0000
vt 2.5000 2.0000
vt 2.5000 1.0000
vt 1.8750 2.0000
vt 2.5000 2.0000
vt 2.5000 1.0000
vt 1.8750 1.0000
vt 1.8750 2.0000
vt 1.8750 1.0000
vt 1.2500 2.0000
vt 1.8750 2.0000
vt 1.8750 1.0000
vt 1.2500 1.0000
vt 1.2500 2.0000
vt 1.2500 1.0000
vt 0.6250 2.0000
vt 1.2500 2.0000
vt 1.2500 1.0000
vt 0.6250 1.0000
vt 0.6250 2.0000
vt 0.6250 1.0000
vt 0.0000 2.0000
vt 0.6250 2.0000
vt 0.6250 1.0000
vt 0.0000 0.9922
vt 0.0000 2.0000
vt 0.0000 0.9922
vt 0.1445 -9.0000
vt 0.0000 2.0000
vt 0.0000 0.9922
vt 0.1406 -9.0000
vt 0.1445 -9.0000
vt 0.1406 -9.0000
vt 0.1602 -8.3750
vt 0.1445 -9.0000
vt 0.1406 -9.0000
vt 0.1562 -8.3750
vt 0.1602 -8.3750
vt 0.1562 -8.3750
vt 0.1758 -7.7500
vt 0.1602 -8.3750
vt 0.1562 -8.3750
vt 0.1719 -7.7500
vt 0.1758 -7.7500
vt 0.1719 -7.7500
vt 0.1914 -7.1250
vt 0.1758 -7.7500
vt 0.1719 -7.7500
vt 0.1875 -7.1250
vt 0.1914 -7.1250
vt 0.1875 -7.1250
vt 0.2070 -6.5000
vt 0.1914 -7.1250
vt 0.1875 -7.1250
vt 0.2031 -6.5000
vt 0.2070 -6.5000
vt 0.2031 -6.5000
vt 0.2227 -5.8750
vt 0.2070 -6.5000
vt 0.2031 -6.5000
vt 0.2188 -5.8750
vt 0.2227 -5.8750
vt 0.2188 -5.8750
vt 0.2383 -5.2500
vt 0.2227 -5.8750
vt 0.2188 -5.8750
vt 0.2344 -5.2500
vt 0.2383 -5.2500
vt 0.2344 -5.2500
vt 0.0039 -4.6250
vt 0.2383 -5.2500
vt 0.2344 -5.2500
vt 0.0000 -4.6250
vt 0.0039 -4.6250
vt 0.0000 -4.6250
vt 0.0195 -4.0000
vt 0.0039 -4.6250
vt 0.0000 -4.6250
vt 0.0156 -4.0000
vt 0.0195 -4.0000
vt 0.0156 -4.0000
vt 0.0352 -3.3750
vt 0.0195 -4.0000
vt 0.0156 -4.0000
vt 0.0312 -3.3750
vt 0.0352 -3.3750
vt 0.0312 -3.3750
vt 0.0508 -2.7500
vt 0.0352 -3.3750
vt 0.0312 -3.3750
vt 0.0469 -2.7500
vt 0.0508 -2.7500
vt 0.0469 -2.7500
vt 0.0664 -2.1250
vt 0.0508 -2.7500
vt 0.0469 -2.7500
vt 0.0625 -2.1250
vt 0.0664 -2.1250
vt 0.0625 -2.1250
vt 0.0820 -1.5000
vt 0.0664 -2.1250
vt 0.0625 -2.1250
vt 0.0781 -1.5000
vt 0.0820 -1.5000
vt 0.0781 -1.5000
vt 0.0977 -0.8750
vt 0.0820 -1.5000
vt 0.0781 -1.5000
vt 0.0938 -0.8750
vt 0.0977 -0.8750
vt 0.0938 -0.8750
vt 0.1133 -0.2500
vt 0.0977 -0.8750
vt 0.0938 -0.8750
vt 0.1094 -0.2500
vt 0.1133 -0.2500
vt 0.1094 -0.2500
vt 0.1289 0.3750
vt 0.1133 -0.2500
vt 0.1094 -0.2500
vt 0.1250 0.3750
vt 0.1289 0.3750
vt 0.1250 0.3750
vt 0.1445 1.0000
vt 0.1289 0.3750
vt 0.1250 0.3750
vt 0.1406 1.0000
vt 0.1445 1.0000
vt 0.1406 1.0000
vt -0.1328 0.8516
vt 0.1445 1.0000
vt 0.1406 1.0000
vt -1.0000 0.8477
vt -0.1328 0.8516
vt -1.0000 0.8477
vt -2.0000 0.8672
vt -0.1328 0.8516
vt -1.0000 0.8477
vt -1.0000 0.8633
vt -2.0000 0.8672
vt -1.0000 0.8633
vt -2.0000 0.8828
vt -2.0000 0.8672
vt -1.0000 0.8633
vt -1.0000 0.8789
vt -2.0000 0.8828
vt -1.0000 0.8789
vt -2.0000 0.8984
vt -2.0000 0.8828
vt -1.0000 0.8789
vt -1.0000 0.8945
vt -2.0000 0.8984
vt -1.0000 0.8945
vt -2.0000 0.9141
vt -2.0000 0.8984
vt -1.0000 0.8945
vt -1.0000 0.9102
vt -2.0000 0.9141
vt -1.0000 0.9102
vt -2.0000 0.9297
vt -2.0000 0.9141
vt -1.0000 0.9102
vt -1.0000 0.9258
vt -2.0000 0.9297
vt -1.0000 0.9258
vt -2.0000 0.9453
vt -2.0000 0.9297
vt -1.0000 0.9258
vt -1.0000 0.9414
vt -2.0000 0.9453
vt -1.0000 0.9414
vt -2.0000 0.9609
vt -2.0000 0.9453
vt -1.0000 0.9414
vt -1.0000 0.9570
vt -2.0000 0.9609
vt -1.0000 0.9570
vt -2.0000 0.9766
vt -2.0000 0.9609
vt -1.0000 0.9570
vt -1.0000 0.9727
vt -2.0000 0.9766
vt -1.0000 0.9727
vt -2.0000 0.9922
vt -2.0000 0.9766
vt -1.0000 0.9727
vt -1.0000 0.9883
vt -2.0000 0.9922
vt -1.0000 0.9883
vt -2.0000 0.7578
vt -2.0000 0.9922
vt -1.0000 0.9883
vt -1.0000 0.7539
vt -2.0000 0.7578
vt -1.0000 0.7539
vt -2.0000 0.7734
vt -2.0000 0.7578
vt -1.0000 0.7539
vt -1.0000 0.7695
vt -2.0000 0.7734
vt -1.0000 0.7695
vt -2.0000 0.7891
vt -2.0000 0.7734
vt -1.0000 0.7695
vt -1.0000 0.7852
vt -2.0000 0.7891
vt -1.0000 0.7852
vt -2.0000 0.8047
vt -2.0000 0.7891
vt -1.0000 0.7852
vt -1.0000 0.8008
vt -2.0000 0.8047
vt -1.0000 0.8008
vt -2.0000 0.8203
vt -2.0000 0.8047
vt -1.0000 0.8008
vt -1.0000 0.8164
vt -2.0000 0.8203
vt -1.0000 0.8164
vt -2.0000 0.8359
vt -2.0000 0.8203
vt -1.0000 0.8164
vt -1.0000 0.8320
vt -2.0000 0.8359
vt -1.0000 0.8320
vt -2.0000 0.8516
vt -2.0000 0.8359
vt -1.0000 0.8320
vt -1.0000 0.8477
vt -2.0000 0.8516
vt -1.0000 0.8477
vt -2.0000 0.9883
vt -2.0000 0.8516
vt -1.0000 0.8477
vt 4.3750 2.0000
vt -2.0000 0.9883
vt 4.3750 2.0000
vt 5.0000 3.0000
vt -2.0000 0.9883
vt 4.3750 2.0000
vt 4.3750 3.0000
vt 5.0000 3.0000
vt 4.3750 3.0000
vt 0.2500 -3.3750
vt 5.0000 3.0000
vt 4.3750 3.0000
vt 0.0117 -4.0000
vt 0.2500 -3.3750
vt 0.0117 -4.0000
vt 0.2461 -3.3750
vt 0.2500 -3.3750
vt 0.0117 -4.0000
vt 0.0117 0.8477
vt 0.2461 -3.3750
vt 0.0117 0.8477
vt -2.0000 0.8633
vt 0.2461 -3.3750
vt 0.0117 0.8477
vt -2.0000 0.7500
vt -2.0000 0.8633
vt -2.0000 0.7500
vt -1.0000 0.9883
vt -2.0000 0.8633
vt -2.0000 0.7500
vt 5.0000 3.0000
vt -1.0000 0.9883
vt 5.0000 3.0000
vt 4.3750 3.0000
vt -1.0000 0.9883
vt 5.0000 3.0000
vt 4.3750 2.0000
vt 4.3750 3.0000
vt 4.3750 2.0000
vt 0.1992 -4.0000
vt 4.3750 3.0000
vt 4.3750 2.0000
vt 0.1836 -3.3750
vt 0.1992 -4.0000
vt 0.1836 -3.3750
vt 0.2500 -3.3750
vt 0.1992 -4.0000
vt 0.1836 -3.3750
vt 0.0117 0.7852
vt 0.2500 -3.3750
vt 0.0117 0.7852
vt -2.0000 0.8008
vt 0.2500 -3.3750
vt 0.0117 0.7852
vt -2.0000 0.7500
vt -2.0000 0.8008
vt -2.0000 0.7500
vt -1.0000 0.9883
vt -2.0000 0.8008
vt -2.0000 0.7500
vt 5.0000 3.0000
vt -1.0000 0.9883
vt 5.0000 3.0000
vt 4.3750 3.0000
vt -1.0000 0.9883
vt 5.0000 3.0000
vt 4.3750 2.0000
vt 4.3750 3.0000
vt 4.3750 2.0000
vt 0.2461 -4.0000
vt 4.3750 3.0000
vt 4.3750 2.0000
vt 0.2305 -3.3750
vt 0.2461 -4.0000
vt 0.2305 -3.3750
vt 0.2500 -3.3750
vt 0.2461 -4.0000
vt 0.2305 -3.3750
vt 0.0117 0.7500
vt 0.2500 -3.3750
vt 0.0117 0.7500
vt -1.0000 0.8320
vt 0.2500 -3.3750
vt 0.0117 0.7500
vt -2.0000 0.8477
vt -1.0000 0.8320
vt -2.0000 0.8477
vt -2.0000 0.9883
vt -1.0000 0.8320
vt -2.0000 0.8477
vt 5.0000 3.0000
vt -2.0000 0.9883
vt 5.0000 3.0000
vt 4.3750 3.0000
vt -2.0000 0.9883
vt 5.0000 3.0000
vt 4.3750 2.0000
vt 4.3750 3.0000
vt 4.3750 2.0000
vt 0.2500 -3.3750
vt 4.3750 3.0000
vt 4.3750 2.0000
vt 0.1211 -4.0000
vt 0.2500 -3.3750
vt 0.1211 -4.0000
vt 0.1055 -3.3750
vt 0.2500 -3.3750
vt 0.1211 -4.0000
vt 0.0117 0.7500
vt 0.1055 -3.3750
vt 0.0117 0.7500
vt -1.0000 0.8945
vt 0.1055 -3.3750
vt 0.0117 0.7500
vt -2.0000 0.9102
vt -1.0000 0.8945
vt -2.0000 0.9102
vt -2.0000 0.9883
vt -1.0000 0.8945
vt -2.0000 0.9102
vt 4.3750 2.0000
vt -2.0000 0.9883
vt 4.3750 2.0000
vt 5.0000 3.0000
vt -2.0000 0.9883
vt 4.3750 2.0000
vt 4.3750 3.0000
vt 5.0000 3.0000
vt 4.3750 3.0000
vt 0.2500 -3.3750
vt 5.0000 3.0000
vt 4.3750 3.0000
vt 0.0742 -4.0000
vt 0.2500 -3.3750
vt 0.0742 -4.0000
vt 0.0586 -3.3750
vt 0.2500 -3.3750
vt 0.0742 -4.0000
vt 0.0117 0.7500
vt 0.0586 -3.3750
vt 0.0117 0.7500
vt -1.0000 0.9414
vt 0.0586 -3.3750
vt 0.0117 0.7500
vt -2.0000 0.9570
vt -1.0000 0.9414
vt -2.0000 0.9570
vt -2.0000 0.9883
vt -1.0000 0.9414
vt -2.0000 0.9570
vt 4.3750 2.0000
vt -2.0000 0.9883
vt 4.3750 2.0000
vt 5.0000 3.0000
vt -2.0000 0.9883
vt 4.3750 2.0000
vt 4.3750 3.0000
vt 5.0000 3.0000
vt 4.3750 3.0000
vt 0.0000 -51.0312
vt 5.0000 3.0000
vt 4.3750 3.0000
vt 10.2539 0.5938
vt 0.0000 -51.0312
vt 10.2539 0.5938
vt -0.1328 0.6523
vt 0.0000 -51.0312
vt 10.2539 0.5938
vt 0.9805 0.6484
vt -0.1328 0.6523
vt 0.9805 0.6484
vt 0.0117 0.6602
vt -0.1328 0.6523
vt 0.9805 0.6484
vt 0.9805 0.6562
vt 0.0117 0.6602
vt 0.9805 0.6562
vt 0.0117 0.6680
vt 0.0117 0.6602
vt 0.9805 0.6562
vt 0.9805 0.6641
vt 0.0117 0.6680
vt 0.9805 0.6641
vt 0.0117 0.6758
vt 0.0117 0.6680
vt 0.9805 0.6641
vt 0.9805 0.6719
vt 0.0117 0.6758
vt 0.9805 0.6719
vt 0.0117 0.6836
vt 0.0117 0.6758
vt 0.9805 0.6719
vt 0.9805 0.6797
vt 0.0117 0.6836
vt 0.9805 0.6797
vt 0.0117 0.6914
vt 0.0117 0.6836
vt 0.9805 0.6797
vt 0.9805 0.6875
vt 0.0117 0.6914
vt 0.9805 0.6875
vt 0.0117 0.6992
vt 0.0117 0.6914
vt 0.9805 0.6875
vt 0.9805 0.6953
vt 0.0117 0.6992
vt 0.9805 0.6953
vt 0.0117 0.7070
vt 0.0117 0.6992
vt 0.9805 0.6953
vt 0.9805 0.7031
vt 0.0117 0.7070
vt 0.9805 0.7031
vt 0.0117 0.7148
vt 0.0117 0.7070
vt 0.9805 0.7031
vt 0.9805 0.7109
vt 0.0117 0.7148
vt 0.9805 0.7109
vt 0.0117 0.7227
vt 0.0117 0.7148
vt 0.9805 0.7109
vt 0.9805 0.7188
vt 0.0117 0.7227
vt 0.9805 0.7188
vt 0.0117 0.7305
vt 0.0117 0.7227
vt 0.9805 0.7188
vt 0.9805 0.7266
vt 0.0117 0.7305
vt 0.9805 0.7266
vt 0.0117 0.7383
vt 0.0117 0.7305
vt 0.9805 0.7266
vt 0.9805 0.7344
vt 0.0117 0.7383
vt 0.9805 0.7344
vt 0.0117 0.7461
vt 0.0117 0.7383
vt 0.9805 0.7344
vt 0.9805 0.7422
vt 0.0117 0.7461
vt 0.9805 0.7422
vt 0.0117 0.6289
vt 0.0117 0.7461
vt 0.9805 0.7422
vt 0.9805 0.6250
vt 0.0117 0.6289
vt 0.9805 0.6250
vt 0.0117 0.6367
vt 0.0117 0.6289
vt 0.9805 0.6250
vt 0.9805 0.6328
vt 0.0117 0.6367
vt 0.9805 0.6328
vt 0.0117 0.6445
vt 0.0117 0.6367
vt 0.9805 0.6328
vt 0.9805 0.6406
vt 0.0117 0.6445
vt 0.9805 0.6406
vt 0.0117 0.6523
vt 0.0117 0.6445
vt 0.9805 0.6406
vt 0.9805 0.6484
vt 0.0117 0.6523
vt 0.9805 0.6484
vt 0.0117 0.0039
vt 0.0117 0.6523
vt 0.9805 0.6484
vt 0.1367 -0.5195
vt 0.0117 0.0039
vt 0.1367 -0.5195
vt 0.3789 129.0000
vt 0.0117 0.0039
vt 0.1367 -0.5195
vt -64.0039 60.4805
vt 0.3789 129.0000
vt -64.0039 60.4805
vt 0.0000 -108.2578
vt 0.3789 129.0000
vt -64.0039 60.4805
vt 33.3867 -68.5859
vt 0.0000 -108.2578
vt 33.3867 -68.5859
vt 67.8984 1.0000
vt 0.0000 -108.2578
vt 33.3867 -68.5859
vt 75.2070 1.6172
vt 67.8984 1.0000
vt 75.2070 1.6172
vt 69.3945 51.3281
vt 67.8984 1.0000
vt 75.2070 1.6172
vt 0.0000 1.0000
vt 69.3945 51.3281
vt 0.0000 1.0000
vt -0.7656 66.4883
vt 69.3945 51.3281
vt 0.0000 1.0000
vt 24.2891 -68.1406
vt -0.7656 66.4883
vt 24.2891 -68.1406
vt 0.0000 -45.1250
vt -0.7656 66.4883
vt 24.2891 -68.1406
vt 33.3867 -68.5859
vt 0.0000 -45.1250
vt 33.3867 -68.5859
vt -59.4805 66.4727
vt 0.0000 -45.1250
vt 33.3867 -68.5859
vt 109.2578 1.5195
vt -59.4805 66.4727
vt 109.2578 1.5195
vt 69.5391 -92.9375
vt -59.4805 66.4727
vt 109.2578 1.5195
vt -48.7148 60.1055
vt 69.5391 -92.9375
vt -48.7148 60.1055
vt -0.6172 -80.0078
vt 69.5391 -92.9375
vt -48.7148 60.1055
vt -50.3281 -67.8555
vt -0.6172 -80.0078
vt -50.3281 -67.8555
vt -59.3164 -45.1250
vt -0.6172 -80.0078
vt -50.3281 -67.8555
vt -48.7305 -67.8945
vt -59.3164 -45.1250
vt -48.7305 -67.8945
vt 69.1406 -96.4258
vt -59.3164 -45.1250
vt -48.7305 -67.8945
vt 46.1250 1.7656
vt 69.1406 -96.4258
vt 46.1250 1.7656
vt 69.3945 65.0039
vt 69.1406 -96.4258
vt 46.1250 1.7656
vt -48.7148 59.6055
vt 69.3945 65.0039
vt -48.7148 59.6055
vt -0.5195 -80.0117
vt 69.3945 65.0039
vt -48.7148 59.6055
vt 93.9375 -66.8984
vt -0.5195 -80.0117
vt 93.9375 -66.8984
vt -58.6719 -74.2070
vt -0.5195 -80.0117
vt 93.9375 -66.8984
vt 127.9922 -68.1328
vt -58.6719 -74.2070
vt 127.9922 -68.1328
vt 68.8555 129.0000
vt -58.6719 -74.2070
vt 127.9922 -68.1328
vt 46.1250 1.7656
vt 68.8555 129.0000
vt 46.1250 1.7656
vt 68.6836 -23.2891
vt 68.8555 129.0000
vt 46.1250 1.7656
vt -28.4961 60.3164
vt 68.6836 -23.2891
vt -28.4961 60.3164
vt -0.7656 66.4961
vt 68.6836 -23.2891
vt -28.4961 60.3164
vt -64.0039 60.4805
vt -0.7656 66.4961
vt -64.0039 60.4805
vt -58.4141 -108.2578
vt -0.7656 66.4961
vt -64.0039 60.4805
vt -48.7305 -67.8945
vt -58.4141 -108.2578
vt -48.7305 -67.8945
vt 67.8984 77.1797
vt -58.4141 -108.2578
vt -48.7305 -67.8945
vt 75.2070 1.6172
vt 67.8984 77.1797
vt 75.2070 1.6172
vt 68.6836 51.3281
vt 67.8984 77.1797
vt 75.2070 1.6172
vt 81.0117 59.6719
vt 68.6836 51.3281
vt 81.0117 59.6719
vt -0.7656 -96.4102
vt 68.6836 51.3281
vt 81.0117 59.6719
vt 24.2891 -68.1406
vt -0.7656 -96.4102
vt 24.2891 -68.1406
vt -59.1055 -45.1250
vt -0.7656 -96.4102
vt 24.2891 -68.1406
vt -107.3477 70.8086
vt -59.1055 -45.1250
vt -107.3477 70.8086
vt -59.4805 -126.9922
vt -59.1055 -45.1250
vt -107.3477 70.8086
vt 109.2578 1.5195
vt -59.4805 -126.9922
vt 109.2578 1.5195
vt -69.9883 -92.9375
vt -59.4805 -126.9922
vt 109.2578 1.5195
vt 33.3867 59.4141
vt -69.9883 -92.9375
vt 33.3867 59.4141
vt -0.6172 19.0000
vt -69.9883 -92.9375
vt 33.3867 59.4141
vt -50.3281 -67.8555
vt -0.6172 19.0000
vt -50.3281 -67.8555
vt -58.6055 -45.1250
vt -0.6172 19.0000
vt -50.3281 -67.8555
vt 110.0156 71.6484
vt -58.6055 -45.1250
vt 110.0156 71.6484
vt 69.1406 66.4922
vt -58.6055 -45.1250
vt 110.0156 71.6484
vt 46.1250 1.7656
vt 69.1406 66.4922
vt 46.1250 1.7656
vt -59.0312 65.0039
vt 69.1406 66.4922
vt 46.1250 1.7656
vt 33.3789 59.4141
vt -59.0312 65.0039
vt 33.3789 59.4141
vt -0.5195 49.6992
vt -59.0312 65.0039
vt 33.3789 59.4141
vt 93.9375 -66.8984
vt -0.5195 49.6992
vt 93.9375 -66.8984
vt -58.4609 -74.2070
vt -0.5195 49.6992
vt 93.9375 -66.8984
vt -28.4688 60.3164
vt -58.4609 -74.2070
vt -28.4688 60.3164
vt 68.8555 -80.0039
vt -58.4609 -74.2070
vt -28.4688 60.3164
vt 46.1250 1.7656
vt 68.8555 -80.0039
vt 46.1250 1.7656
vt -59.7578 -23.2891
vt 68.8555 -80.0039
vt 46.1250 1.7656
vt -48.7344 60.1055
vt -59.7578 -23.2891
vt -48.7344 60.1055
vt -0.7656 49.7148
vt -59.7578 -23.2891
vt -48.7344 60.1055
vt -64.0039 60.4805
vt -0.7656 49.7148
vt -64.0039 60.4805
vt -58.6055 -108.2578
vt -0.7656 49.7148
vt -64.0039 60.4805
vt 81.0234 59.6719
vt -58.6055 -108.2578
vt 81.0234 59.6719
vt 67.8984 -80.0039
vt -58.6055 -108.2578
vt 81.0234 59.6719
vt 75.2070 1.6172
vt 67.8984 -80.0039
vt 75.2070 1.6172
vt -58.8672 51.3281
vt 67.8984 -80.0039
vt 75.2070 1.6172
vt 127.9766 59.8672
vt -58.8672 51.3281
vt 127.9766 59.8672
vt -0.7656 29.4922
vt -58.8672 51.3281
vt 127.9766 59.8672
vt 24.2891 -68.1406
vt -0.7656 29.4922
vt 24.2891 -68.1406
vt -59.3164 -45.1250
vt -0.7656 29.4922
vt 24.2891 -68.1406
vt 33.3867 59.4141
vt -59.3164 -45.1250
vt 33.3867 59.4141
vt -59.4805 66.5234
vt -59.3164 -45.1250
vt 33.3867 59.4141
vt 109.2578 1.5195
vt -59.4805 66.5234
vt 109.2578 1.5195
vt -58.4609 -92.9375
vt -59.4805 66.5234
vt 109.2578 1.5195
vt -48.7578 60.1055
vt -58.4609 -92.9375
vt -48.7578 60.1055
vt -0.6172 -80.0117
vt -58.4609 -92.9375
vt 68.8555 29.5312
vt -59.1055 -23.2891
vt 46.1250 1.7656
vt -59.1055 -23.2891
vt 97.3945 60.7578
vt 46.1250 1.7656
vt -59.1055 -23.2891
vt -0.7656 -126.9922
vt 97.3945 60.7578
vt -0.7656 -126.9922
vt -64.0039 60.4805
vt 97.3945 60.7578
vt -0.7656 -126.9922
vt 58.7539 -108.2578
vt -64.0039 60.4805
vt 58.7539 -108.2578
vt 33.3828 59.4141
vt -64.0039 60.4805
vt 58.7539 -108.2578
vt 67.8984 80.5273
vt 33.3828 59.4141
vt 67.8984 80.5273
vt 75.2070 1.6172
vt 33.3828 59.4141
vt 67.8984 80.5273
vt -58.6055 51.3281
vt 75.2070 1.6172
vt -58.6055 51.3281
vt 11.0312 -57.6641
vt 75.2070 1.6172
vt -58.6055 51.3281
vt -0.7656 66.4961
vt 11.0312 -57.6641
vt -0.7656 66.4961
vt 24.2891 -68.1406
vt 11.0312 -57.6641
vt -0.7656 66.4961
vt 57.8945 -45.1250
vt 24.2891 -68.1406
vt 57.8945 -45.1250
vt 33.3789 59.4141
vt 24.2891 -68.1406
vt 57.8945 -45.1250
vt -59.4805 66.4375
vt 33.3789 59.4141
vt -59.4805 66.4375
vt 109.2578 1.5195
vt 33.3789 59.4141
vt -59.4805 66.4375
vt -58.4609 -92.9375
vt 109.2578 1.5195
vt -58.4609 -92.9375
vt -48.6836 -67.8945
vt 109.2578 1.5195
vt -58.4609 -92.9375
vt -0.6172 -79.9922
vt -48.6836 -67.8945
vt -0.6172 -79.9922
vt -50.3281 -67.8555
vt -48.6836 -67.8945
vt -0.6172 -79.9922
vt 68.6836 -45.1250
vt -50.3281 -67.8555
vt 68.6836 -45.1250
vt -48.7422 60.1055
vt -50.3281 -67.8555
vt 68.6836 -45.1250
vt 69.1406 -96.4453
vt -48.7422 60.1055
vt 69.1406 -96.4453
vt 46.1250 1.7656
vt -48.7422 60.1055
vt 69.1406 -96.4453
vt -58.6055 65.0039
vt 46.1250 1.7656
vt -58.6055 65.0039
vt -48.6992 -68.3945
vt 46.1250 1.7656
vt -58.6055 65.0039
vt -0.5195 -79.9922
vt -48.6992 -68.3945
vt -0.5195 -79.9922
vt 93.9375 -66.8984
vt -48.6992 -68.3945
vt -0.5195 -79.9922
vt 69.3281 -74.2070
vt 93.9375 -66.8984
vt 69.3281 -74.2070
vt 127.9688 59.8672
vt 93.9375 -66.8984
vt 69.3281 -74.2070
vt 68.8555 128.9922
vt 127.9688 59.8672
vt 68.8555 128.9922
vt 46.1250 1.7656
vt 127.9688 59.8672
vt 68.8555 128.9922
vt -59.3164 -23.2891
vt 46.1250 1.7656
vt -59.3164 -23.2891
vt -28.4844 -67.6836
vt 46.1250 1.7656
vt -59.3164 -23.2891
vt -0.7656 66.5469
vt -28.4844 -67.6836
vt -0.7656 66.5469
vt -64.0039 60.4805
vt -28.4844 -67.6836
vt -0.7656 66.5469
vt 69.5859 -108.2578
vt -64.0039 60.4805
vt 69.5859 -108.2578
vt -48.7695 60.1055
vt -64.0039 60.4805
vt 69.5859 -108.2578
vt 67.8984 77.1797
vt -48.7695 60.1055
vt 67.8984 77.1797
vt 75.2070 1.6172
vt -48.7695 60.1055
vt 67.8984 77.1797
vt -59.3164 51.3281
vt 75.2070 1.6172
vt -59.3164 51.3281
vt 81.0117 -68.3281
vt 75.2070 1.6172
vt -59.3164 51.3281
vt -0.7656 -96.3750
vt 81.0117 -68.3281
vt -0.7656 -96.3750
vt 24.2891 -68.1406
vt 81.0117 -68.3281
vt -0.7656 -96.3750
vt 68.8945 -45.1250
vt 24.2891 -68.1406
vt 68.8945 -45.1250
vt 106.7891 -58.1016
vt 24.2891 -68.1406
vt 68.8945 -45.1250
vt -59.4805 -126.9922
vt 106.7891 -58.1016
vt -59.4805 -126.9922
vt 109.2578 1.5195
vt 106.7891 -58.1016
vt -59.4805 -126.9922
vt 58.8984 -92.9375
vt 109.2578 1.5195
vt 58.8984 -92.9375
vt 33.3828 -68.5859
vt 109.2578 1.5195
vt 58.8984 -92.9375
vt -0.6172 -26.7227
vt 33.3828 -68.5859
vt -0.6172 -26.7227
vt -50.3281 -67.8555
vt 33.3828 -68.5859
vt -0.6172 -26.7227
vt 69.3945 -45.1250
vt -50.3281 -67.8555
vt 69.3945 -45.1250
vt -70.4492 -57.2383
vt -50.3281 -67.8555
vt 69.3945 -45.1250
vt 69.1406 66.5039
vt -70.4492 -57.2383
vt 69.1406 66.5039
vt 46.1250 1.7656
vt -70.4492 -57.2383
vt 69.1406 66.5039
vt 68.9688 65.0039
vt 46.1250 1.7656
vt 68.9688 65.0039
vt 33.3750 -68.5859
vt 46.1250 1.7656
vt 68.9688 65.0039
vt -0.5195 49.6680
vt 33.3750 -68.5859
vt -0.5195 49.6680
vt 93.9375 -66.8984
vt 33.3750 -68.5859
vt -0.5195 49.6680
vt 69.5391 -74.2070
vt 93.9375 -66.8984
vt 69.5391 -74.2070
vt -28.4414 -67.6836
vt 93.9375 -66.8984
vt 69.5391 -74.2070
vt 68.8555 -79.9922
vt -28.4414 -67.6836
vt 68.8555 -79.9922
vt 46.1250 1.7656
vt -28.4414 -67.6836
vt 68.8555 -79.9922
vt 68.2422 -23.2891
vt 46.1250 1.7656
vt 68.2422 -23.2891
vt -48.7500 -67.8945
vt 46.1250 1.7656
vt 68.2422 -23.2891
vt -0.7656 49.6953
vt -48.7500 -67.8945
vt -0.7656 49.6953
vt -64.0039 60.4805
vt -48.7500 -67.8945
vt -0.7656 49.6953
vt 69.3945 -108.2578
vt -64.0039 60.4805
vt 69.3945 -108.2578
vt 81.0273 -68.3281
vt -64.0039 60.4805
vt 69.3945 -108.2578
vt 67.8984 -79.9844
vt 81.0273 -68.3281
vt 67.8984 -79.9844
vt 75.2070 1.6172
vt 81.0273 -68.3281
vt 67.8984 -79.9844
vt 69.1328 51.3281
vt 75.2070 1.6172
vt 69.1328 51.3281
vt 127.9648 -68.1328
vt 75.2070 1.6172
vt 69.1328 51.3281
vt -0.7656 29.4844
vt 127.9648 -68.1328
vt -0.7656 29.4844
vt 24.2891 -68.1406
vt 127.9648 -68.1328
vt -0.7656 29.4844
vt 68.6836 -45.1250
vt 24.2891 -68.1406
vt 68.6836 -45.1250
vt 33.3906 -68.5859
vt 24.2891 -68.1406
vt 68.6836 -45.1250
vt -59.4805 66.5742
vt 33.3906 -68.5859
vt -59.4805 66.5742
vt 109.2578 1.5195
vt 33.3906 -68.5859
vt -59.4805 66.5742
vt 69.5391 -92.9375
vt 109.2578 1.5195
vt 69.5391 -92.9375
vt -48.7969 -67.8945
vt 109.2578 1.5195
vt 69.5391 -92.9375
vt -0.6172 -80.0117
vt -48.7969 -67.8945
vt -0.6172 -80.0117
vt -50.3281 -67.8555
vt -48.7969 -67.8945
vt -0.6172 -80.0117
vt 68.6836 -45.1250
vt -50.3281 -67.8555
vt 68.6836 -45.1250
vt -48.7305 -67.8945
vt -50.3281 -67.8555
vt 68.6836 -45.1250
vt 69.1406 -96.3594
vt -48.7305 -67.8945
vt 69.1406 -96.3594
vt 46.1250 1.7656
vt -48.7305 -67.8945
vt 69.1406 -96.3594
vt 57.0000 -55.2891
vt 46.1250 1.7656
vt 57.0000 -55.2891
vt 81.7188 -56.3945
vt 46.1250 1.7656
vt 57.0000 -55.2891
vt -0.7656 -94.9961
vt 81.7188 -56.3945
vt -0.7656 -94.9961
vt -64.0039 60.4805
vt 81.7188 -56.3945
vt -0.7656 -94.9961
vt 0.0000 -95.3750
vt -64.0039 60.4805
vt 0.0000 -95.3750
vt 43.4258 -68.4883
vt -64.0039 60.4805
vt 0.0000 -95.3750
vt 67.7656 1.0000
vt 43.4258 -68.4883
vt 67.7656 1.0000
vt 96.3750 1.6250
vt 43.4258 -68.4883
vt 67.7656 1.0000
vt 69.5547 65.0039
vt 96.3750 1.6250
vt 69.5547 65.0039
vt 78.5977 60.0781
vt 96.3750 1.6250
vt 69.5547 65.0039
vt -0.6250 27.0234
vt 78.5977 60.0781
vt -0.6250 27.0234
vt -62.1211 -66.7656
vt 78.5977 60.0781
vt -0.6250 27.0234
vt -59.2461 -95.3750
vt -62.1211 -66.7656
vt -59.2461 -95.3750
vt 81.7109 -68.3516
vt -62.1211 -66.7656
vt -59.2461 -95.3750
vt -59.4805 -80.7188
vt 81.7109 -68.3516
vt -59.4805 -80.7188
vt 96.3750 1.6250
vt 81.7109 -68.3516
vt -59.4805 -80.7188
vt 69.1992 63.1211
vt 96.3750 1.6250
vt 69.1992 63.1211
vt 4.5781 59.8008
vt 96.3750 1.6250
vt 69.1992 63.1211
vt -0.6250 -77.5742
vt 4.5781 59.8008
vt -0.6250 -77.5742
vt -64.0039 60.4805
vt 4.5781 59.8008
vt -0.6250 -77.5742
vt -58.4453 -95.3750
vt -64.0039 60.4805
vt -58.4453 -95.3750
vt -59.4922 -67.7539
vt -64.0039 60.4805
vt -58.4453 -95.3750
vt 67.7656 27.0234
vt -59.4922 -67.7539
vt 67.7656 27.0234
vt 96.3750 1.6250
vt -59.4922 -67.7539
vt 67.7656 27.0234
vt -69.8438 65.0039
vt 96.3750 1.6250
vt -69.8438 65.0039
vt 95.9922 59.3984
vt 96.3750 1.6250
vt -69.8438 65.0039
vt -0.6250 -71.7305
vt 95.9922 59.3984
vt -0.6250 -71.7305
vt -62.1211 -66.7656
vt 95.9922 59.3984
vt -0.6250 -71.7305
vt -58.5117 -95.3750
vt -62.1211 -66.7656
vt -58.5117 -95.3750
vt 78.6094 60.0781
vt -62.1211 -66.7656
vt -58.5117 -95.3750
vt -59.4805 97.2930
vt 78.6094 60.0781
vt -59.4805 97.2930
vt 96.3750 1.6250
vt 78.6094 60.0781
vt -59.4805 97.2930
vt -59.2461 63.1211
vt 96.3750 1.6250
vt -59.2461 63.1211
vt -26.0430 59.5898
vt 96.3750 1.6250
vt -59.2461 63.1211
vt -0.6250 -80.7188
vt -26.0430 59.5898
vt -0.6250 -80.7188
vt -64.0039 60.4805
vt -26.0430 59.5898
vt -0.6250 -80.7188
vt -58.6484 -95.3750
vt -64.0039 60.4805
vt -58.6484 -95.3750
vt 4.5781 59.8008
vt -64.0039 60.4805
vt -58.6484 -95.3750
vt 67.7656 -3.5625
vt 4.5781 59.8008
vt 67.7656 -3.5625
vt 96.3750 1.6250
vt 4.5781 59.8008
vt 67.7656 -3.5625
vt -58.4453 65.0039
vt 96.3750 1.6250
vt -58.4453 65.0039
vt 78.5508 60.0781
vt 96.3750 1.6250
vt -58.4453 65.0039
vt -0.6250 27.0234
vt 78.5508 60.0781
vt -0.6250 27.0234
vt -62.1211 -66.7656
vt 78.5508 60.0781
vt -0.6250 27.0234
vt -59.2461 -95.3750
vt -62.1211 -66.7656
vt -59.2461 -95.3750
vt 95.9922 59.3984
vt -62.1211 -66.7656
vt -59.2461 -95.3750
vt -59.4805 -47.0078
vt 95.9922 59.3984
vt -59.4805 -47.0078
vt 96.3750 1.6250
vt 95.9922 59.3984
vt -59.4805 -47.0078
vt -58.5117 63.1211
vt 96.3750 1.6250
vt -58.5117 63.1211
vt 69.6055 -57.5117
vt 96.3750 1.6250
vt -58.5117 63.1211
vt -0.6250 97.2930
vt 69.6055 -57.5117
vt -0.6250 97.2930
vt -64.0039 60.4805
vt 69.6055 -57.5117
vt -0.6250 97.2930
vt 68.9219 -95.3750
vt -64.0039 60.4805
vt 68.9219 -95.3750
vt -26.0469 59.5898
vt -64.0039 60.4805
vt 68.9219 -95.3750
vt 67.7656 60.4609
vt -26.0469 59.5898
vt 67.7656 60.4609
vt 96.3750 1.6250
vt -26.0469 59.5898
vt 67.7656 60.4609
vt -58.6484 65.0039
vt 96.3750 1.6250
vt -58.6484 65.0039
vt 81.7305 -68.3516
vt 96.3750 1.6250
vt -58.6484 65.0039
vt -0.6250 -3.5625
vt 81.7305 -68.3516
vt -0.6250 -3.5625
vt -62.1211 -66.7656
vt 81.7305 -68.3516
vt -0.6250 -3.5625
vt 69.1992 -95.3750
vt -62.1211 -66.7656
vt 69.1992 -95.3750
vt 78.5273 60.0781
vt -62.1211 -66.7656
vt 69.1992 -95.3750
vt -59.4805 97.2812
vt 78.5273 60.0781
vt -59.4805 97.2812
vt 96.3750 1.6250
vt 78.5273 60.0781
vt -59.4805 97.2812
vt -59.2461 63.1211
vt 96.3750 1.6250
vt -59.2461 63.1211
vt -26.0234 -68.4102
vt 96.3750 1.6250
vt -59.2461 63.1211
vt -0.6250 78.7500
vt -26.0234 -68.4102
vt -0.6250 78.7500
vt -64.0039 60.4805
vt -26.0234 -68.4102
vt -0.6250 78.7500
vt 69.6016 -95.3750
vt -64.0039 60.4805
vt 69.6016 -95.3750
vt -111.5859 -57.7578
vt -64.0039 60.4805
vt 69.6016 -95.3750
vt 67.7656 -42.4258
vt -111.5859 -57.7578
vt 67.7656 -42.4258
vt 96.3750 1.6250
vt -111.5859 -57.7578
vt 67.7656 -42.4258
vt 68.9219 65.0039
vt 96.3750 1.6250
vt 68.9219 65.0039
vt -96.2930 -68.5547
vt 96.3750 1.6250
vt 68.9219 65.0039
vt -0.6250 60.4492
vt -96.2930 -68.5547
vt -0.6250 60.4492
vt -62.1211 -66.7656
vt -96.2930 -68.5547
vt -0.6250 60.4492
vt 69.4102 -95.3750
vt -62.1211 -66.7656
vt 69.4102 -95.3750
vt 81.7383 -68.3516
vt -62.1211 -66.7656
vt 69.4102 -95.3750
vt -59.4805 -80.6797
vt 81.7383 -68.3516
vt -59.4805 -80.6797
vt 96.3750 1.6250
vt 81.7383 -68.3516
vt -59.4805 -80.6797
vt 69.1992 63.1211
vt 96.3750 1.6250
vt 69.1992 63.1211
vt 4.5625 -68.1992
vt 96.3750 1.6250
vt 69.1992 63.1211
vt -0.6250 97.2812
vt 4.5625 -68.1992
vt -0.6250 97.2812
vt -64.0039 60.4805
vt 4.5625 -68.1992
vt -0.6250 97.2812
vt 68.9219 -95.3750
vt -64.0039 60.4805
vt 68.9219 -95.3750
vt -26.0234 -68.4102
vt -64.0039 60.4805
vt 68.9219 -95.3750
vt 67.7656 60.5625
vt -26.0234 -68.4102
vt 67.7656 60.5625
vt 96.3750 1.6250
vt -26.0234 -68.4102
vt 67.7656 60.5625
vt 0.0000 -3.8281
vt 96.3750 1.6250
vt 0.0000 -3.8281
vt 0.2031 1.0000
vt 96.3750 1.6250
vt 0.0000 -3.8281
vt 58.0000 80.4180
vt 0.2031 1.0000
vt 58.0000 80.4180
vt 0.0000 1.0000
vt 0.2031 1.0000
vt 58.0000 80.4180
vt 69.6797 -78.3125
vt 0.0000 1.0000
vt 69.6797 -78.3125
vt 0.0156 1.0000
vt 0.0000 1.0000
vt 69.6797 -78.3125
vt 0.0000 0.0000
vt 0.0156 1.0000
vt 0.0000 0.0000
vt 0.0000 0.0000
vt 0.0156 1.0000

g mesh_sky_0
usemtl mat_sky_00
f 65503/1/65503 65281/2/65281 1/3/1
f 65281/4/65281 65281/5/65281 1/6/1
f 1/7/1 65281/8/65281 1/9/1
f 65281/10/65281 65281/11/65281 1/12/1
f 1/13/1 65281/14/65281 1/15/1
f 65281/16/65281 65281/17/65281 1/18/1
f 1/19/1 65281/20/65281 1/21/1
f 65281/22/65281 65281/23/65281 1/24/1
f 1/25/1 65281/26/65281 1/27/1
f 65281/28/65281 65281/29/65281 1/30/1
f 1/31/1 65281/32/65281 1/33/1
f 65281/34/65281 65281/35/65281 1/36/1
f 1/37/1 65281/38/65281 1/39/1
f 65281/40/65281 65281/41/65281 1/42/1
f 1/43/1 65281/44/65281 1/45/1
f 65281/46/65281 65281/47/65281 1/48/1
f 1/49/1 65281/50/65281 1/51/1
f 10/52/10 14/53/14 15/54/15
f 14/55/14 19/56/19 15/57/15
f 14/58/14 18/59/18 19/60/19
f 18/61/18 23/62/23 19/63/19
f 18/64/18 22/65/22 23/66/23
f 22/67/22 27/68/27 23/69/23
f 22/70/22 26/71/26 27/72/27
f 26/73/26 31/74/31 27/75/27
f 26/76/26 30/77/30 31/78/31
f 30/79/30 35/80/35 31/81/31
f 30/82/30 34/83/34 35/84/35
f 34/85/34 39/86/39 35/87/35
f 34/88/34 38/89/38 39/90/39
f 38/91/38 65503/92/65503 39/93/39
f 38/94/38 1/95/1 65503/96/65503
f 1/97/1 256/98/256 65503/99/65503
f 1/100/1 1/101/1 256/102/256
f 1/103/1 256/104/256 256/105/256
f 1/106/1 1/107/1 256/108/256
f 1/109/1 256/110/256 256/111/256
f 1/112/1 1/113/1 256/114/256
f 1/115/1 256/116/256 256/117/256
f 1/118/1 1/119/1 256/120/256
f 1/121/1 256/122/256 256/123/256
f 1/124/1 1/125/1 256/126/256
f 1/127/1 256/128/256 256/129/256
f 1/130/1 1/131/1 256/132/256
f 1/133/1 256/134/256 256/135/256
f 1/136/1 1/137/1 256/138/256
f 1/139/1 256/140/256 256/141/256
f 1/142/1 1/143/1 256/144/256
f 1/145/1 256/146/256 256/147/256
f 1/148/1 1/149/1 256/150/256
f 1/151/1 256/152/256 256/153/256
f 1/154/1 1/155/1 256/156/256
f 1/157/1 256/158/256 256/159/256
f 1/160/1 1/161/1 256/162/256
f 1/163/1 256/164/256 256/165/256
f 1/166/1 1/167/1 256/168/256
f 1/169/1 256/170/256 256/171/256
f 1/172/1 1/173/1 256/174/256
f 1/175/1 256/176/256 256/177/256
f 1/178/1 1/179/1 256/180/256
f 1/181/1 256/182/256 256/183/256
f 1/184/1 1/185/1 256/186/256
f 1/187/1 256/188/256 256/189/256
f 1/190/1 3/191/3 256/192/256
f 3/193/3 256/194/256 256/195/256
f 3/196/3 1/197/1 256/198/256
f 1/199/1 1/200/1 256/201/256
f 1/202/1 161/203/161 1/204/1
f 161/205/161 161/206/161 1/207/1
f 161/208/161 321/209/321 161/210/161
f 321/211/321 321/212/321 161/213/161
f 321/214/321 481/215/481 321/216/321
f 481/217/481 481/218/481 321/219/321
f 481/220/481 641/221/641 481/222/481
f 641/223/641 641/224/641 481/225/481
f 641/226/641 801/227/801 641/228/641
f 801/229/801 801/230/801 641/231/641
f 801/232/801 961/233/961 801/234/801
f 961/235/961 961/236/961 801/237/801
f 961/238/961 1121/239/1121 961/240/961
f 1121/241/1121 1121/242/1121 961/243/961
f 1121/244/1121 1281/245/1281 1121/246/1121
f 1281/247/1281 1281/248/1281 1121/249/1121
f 1281/250/1281 1441/251/1441 1281/252/1281
f 1441/253/1441 1441/254/1441 1281/255/1281
f 1441/256/1441 1601/257/1601 1441/258/1441
f 1601/259/1601 1601/260/1601 1441/261/1441
f 1601/262/1601 1761/263/1761 1601/264/1601
f 1761/265/1761 1761/266/1761 1601/267/1601
f 1761/268/1761 1921/269/1921 1761/270/1761
f 1921/271/1921 1921/272/1921 1761/273/1761
f 1921/274/1921 2081/275/2081 1921/276/1921
f 2081/277/2081 2081/278/2081 1921/279/1921
f 2081/280/2081 2241/281/2241 2081/282/2081
f 2241/283/2241 2241/284/2241 2081/285/2081
f 2241/286/2241 2401/287/2401 2241/288/2241
f 2401/289/2401 2401/290/2401 2241/291/2241
f 2401/292/2401 2561/293/2561 2401/294/2401
f 2561/295/2561 2561/296/2561 2401/297/2401
f 2561/298/2561 65/299/65 2561/300/2561
f 65/301/65 36/302/36 2561/303/2561
f 65/304/65 32/305/32 36/306/36
f 32/307/32 4/308/4 36/309/36
f 32/310/32 65281/311/65281 4/312/4
f 65281/313/65281 65025/314/65025 4/315/4
f 65281/316/65281 65025/317/65025 65025/318/65025
f 65025/319/65025 1281/320/1281 65025/321/65025
f 65025/322/65025 1121/323/1121 1281/324/1281
f 1121/325/1121 1121/326/1121 1281/327/1281
f 1121/328/1121 48/329/48 1121/330/1121
f 48/331/48 44/332/44 1121/333/1121
f 48/334/48 65/335/65 44/336/44
f 65/337/65 4/338/4 44/339/44
f 65/340/65 65025/341/65025 4/342/4
f 65025/343/65025 65025/344/65025 4/345/4
f 65025/346/65025 65281/347/65281 65025/348/65025
f 65281/349/65281 1281/350/1281 65025/351/65025
f 65281/352/65281 1121/353/1121 1281/354/1281
f 1121/355/1121 1121/356/1121 1281/357/1281
f 1121/358/1121 60/359/60 1121/360/1121
f 60/361/60 56/362/56 1121/363/1121
f 60/364/60 65/365/65 56/366/56
f 65/367/65 4/368/4 56/369/56
f 65/370/65 65025/371/65025 4/372/4
f 65025/373/65025 65025/374/65025 4/375/4
f 65025/376/65025 65281/377/65281 65025/378/65025
f 65281/379/65281 1121/380/1121 65025/381/65025
f 65281/382/65281 1281/383/1281 1121/384/1121
f 1281/385/1281 1121/386/1121 1121/387/1121
f 1281/388/1281 8/389/8 1121/390/1121
f 8/391/8 4/392/4 1121/393/1121
f 8/394/8 65/395/65 4/396/4
f 65/397/65 4/398/4 4/399/4
f 65/400/65 65281/401/65281 4/402/4
f 65281/403/65281 65025/404/65025 4/405/4
f 65281/406/65281 65025/407/65025 65025/408/65025
f 65025/409/65025 1121/410/1121 65025/411/65025
f 65025/412/65025 1281/413/1281 1121/414/1121
f 1281/415/1281 1121/416/1121 1121/417/1121
f 1281/418/1281 65/419/65 1121/420/1121
f 65/421/65 24/422/24 1121/423/1121
f 65/424/65 20/425/20 24/426/24
f 20/427/20 4/428/4 24/429/24
f 20/430/20 65281/431/65281 4/432/4
f 65281/433/65281 65025/434/65025 4/435/4
f 65281/436/65281 65025/437/65025 65025/438/65025
f 65025/439/65025 1121/440/1121 65025/441/65025
f 65025/442/65025 1281/443/1281 1121/444/1121
f 1281/445/1281 1121/446/1121 1121/447/1121
f 1281/448/1281 65/449/65 1121/450/1121
f 65/451/65 12/452/12 1121/453/1121
f 65/454/65 8/455/8 12/456/12
f 8/457/8 8450/458/8450 12/459/12
f 8/460/8 16386/461/16386 8450/462/8450
f 16386/463/16386 2/464/2 8450/465/8450
f 16386/466/16386 5/467/5 2/468/2
f 5/469/5 5/470/5 2/471/2
f 5/472/5 21/473/21 5/474/5
f 21/475/21 21/476/21 5/477/5
f 21/478/21 37/479/37 21/480/21
f 37/481/37 37/482/37 21/483/21
f 37/484/37 53/485/53 37/486/37
f 53/487/53 53/488/53 37/489/37
f 53/490/53 69/491/69 53/492/53
f 69/493/69 69/494/69 53/495/53
f 69/496/69 85/497/85 69/498/69
f 85/499/85 85/500/85 69/501/69
f 85/502/85 101/503/101 85/504/85
f 101/505/101 101/506/101 85/507/85
f 101/508/101 117/509/117 101/510/101
f 117/511/117 117/512/117 101/513/101
f 117/514/117 133/515/133 117/516/117
f 133/517/133 133/518/133 117/519/117
f 133/520/133 149/521/149 133/522/133
f 149/523/149 149/524/149 133/525/133
f 149/526/149 165/527/165 149/528/149
f 165/529/165 165/530/165 149/531/149
f 165/532/165 181/533/181 165/534/165
f 181/535/181 181/536/181 165/537/165
f 181/538/181 197/539/197 181/540/181
f 197/541/197 197/542/197 181/543/181
f 197/544/197 213/545/213 197/546/197
f 213/547/213 213/548/213 197/549/197
f 213/550/213 229/551/229 213/552/213
f 229/553/229 229/554/229 213/555/213
f 229/556/229 245/557/245 229/558/229
f 245/559/245 245/560/245 229/561/229
f 245/562/245 257/563/257 245/564/245
f 257/565/257 257/566/257 245/567/245
f 257/568/257 1/569/1 257/570/257
f 1/571/1 1/572/1 257/573/257
f 1/574/1 17827/575/17827 1/576/1
f 17827/577/17827 1/578/1 1/579/1
f 17827/580/17827 65404/581/65404 1/582/1
f 65404/583/65404 24049/584/24049 1/585/1
f 65404/586/65404 1/587/1 24049/588/24049
f 1/589/1 53065/590/53065 24049/591/24049
f 1/592/1 17628/593/17628 53065/594/53065
f 17628/595/17628 11809/596/11809 53065/597/53065
f 17628/598/17628 17657/599/17657 11809/600/11809
f 17657/601/17657 1/602/1 11809/603/11809
f 17657/604/17657 65341/605/65341 1/606/1
f 65341/607/65341 49152/608/49152 1/609/1
f 65341/610/65341 50425/611/50425 49152/612/49152
f 50425/613/50425 46035/614/46035 49152/615/49152
f 50425/616/50425 17383/617/17383 46035/618/46035
f 17383/619/17383 19254/620/19254 46035/621/46035
f 17383/622/17383 17749/623/17749 19254/624/19254
f 17749/625/17749 58245/626/58245 19254/627/19254
f 17749/628/17749 65341/629/65341 58245/630/58245
f 65341/631/65341 6219/632/6219 58245/633/58245
f 65341/634/65341 50239/635/50239 6219/636/6219
f 50239/637/50239 53065/638/53065 6219/639/6219
f 50239/640/50239 50310/641/50310 53065/642/53065
f 50310/643/50310 27971/644/27971 53065/645/53065
f 50310/646/50310 17749/647/17749 27971/648/27971
f 17749/649/17749 20742/650/20742 27971/651/27971
f 17749/652/17749 65379/653/65379 20742/654/20742
f 65379/655/65379 52653/656/52653 20742/657/20742
f 65379/658/65379 50467/659/50467 52653/660/52653
f 50467/661/50467 58242/662/58242 52653/663/52653
f 50467/664/50467 17701/665/17701 58242/666/58242
f 17701/667/17701 11809/668/11809 58242/669/58242
f 17701/670/17701 17657/671/17657 11809/672/11809
f 17657/673/17657 8548/674/8548 11809/675/11809
f 17657/676/17657 65404/677/65404 8548/678/8548
f 65404/679/65404 24049/680/24049 8548/681/8548
f 65404/682/65404 50571/683/50571 24049/684/24049
f 50571/685/50571 58239/686/58239 24049/687/24049
f 50571/688/50571 17628/689/17628 58239/690/58239
f 17628/691/17628 11809/692/11809 58239/693/58239
f 17628/694/17628 17471/695/17471 11809/696/11809
f 17471/697/17471 53062/698/53062 11809/699/11809
f 17471/700/17471 65341/701/65341 53062/702/53062
f 65341/703/65341 49152/704/49152 53062/705/53062
f 65341/706/65341 50595/707/50595 49152/708/49152
f 50595/709/50595 14562/710/14562 49152/711/49152
f 50595/712/50595 17383/713/17383 14562/714/14562
f 17383/715/17383 19254/716/19254 14562/717/14562
f 17383/718/17383 47648/719/47648 19254/720/19254
f 47648/721/47648 53063/722/53063 19254/723/19254
f 47648/724/47648 65341/725/65341 53063/726/53063
f 65341/727/65341 6219/728/6219 53063/729/53063
f 65341/730/65341 50425/731/50425 6219/732/6219
f 50425/733/50425 48779/734/48779 6219/735/6219
f 50425/736/50425 50310/737/50310 48779/738/48779
f 50310/739/50310 27971/740/27971 48779/741/48779
f 50310/742/50310 50406/743/50406 27971/744/27971
f 50406/745/50406 46034/746/46034 27971/747/27971
f 50406/748/50406 65379/749/65379 46034/750/46034
f 65379/751/65379 52653/752/52653 46034/753/46034
f 65379/754/65379 50517/755/50517 52653/756/52653
f 50517/757/50517 24944/758/24944 52653/759/52653
f 50517/760/50517 17701/761/17701 24944/762/24944
f 17701/763/17701 11809/764/11809 24944/765/24944
f 17701/766/17701 50534/767/50534 11809/768/11809
f 50534/769/50534 53061/770/53061 11809/771/11809
f 50534/772/50534 65404/773/65404 53061/774/53061
f 65404/775/65404 24049/776/24049 53061/777/53061
f 65404/778/65404 50517/779/50517 24049/780/24049
f 50517/781/50517 32770/782/32770 24049/783/24049
f 50517/784/50517 17628/785/17628 32770/786/32770
f 17628/787/17628 11809/788/11809 32770/789/32770
f 17628/790/17628 50352/791/50352 11809/792/11809
f 50352/793/50352 58239/794/58239 11809/795/11809
f 50352/796/50352 65341/797/65341 58239/798/58239
f 65341/799/65341 49152/800/49152 58239/801/58239
f 65341/802/65341 50425/803/50425 49152/804/49152
f 50425/805/50425 46035/806/46035 49152/807/49152
f 50425/808/50425 17383/809/17383 46035/810/46035
f 17383/811/17383 19254/812/19254 46035/813/46035
f 52653/814/52653 53062/815/53062 50352/816/50352
f 53062/817/53062 17701/818/17701 50352/819/50352
f 53062/820/53062 11809/821/11809 17701/822/17701
f 11809/823/11809 50595/824/50595 17701/825/17701
f 11809/826/11809 57779/827/57779 50595/828/50595
f 57779/829/57779 65404/830/65404 50595/831/50595
f 57779/832/57779 24049/833/24049 65404/834/65404
f 24049/835/24049 15004/836/15004 65404/837/65404
f 24049/838/24049 53062/839/53062 15004/840/15004
f 53062/841/53062 17628/842/17628 15004/843/15004
f 53062/844/53062 11809/845/11809 17628/846/17628
f 11809/847/11809 50425/848/50425 17628/849/17628
f 11809/850/11809 20921/851/20921 50425/852/50425
f 20921/853/20921 65341/854/65341 50425/855/50425
f 20921/856/20921 49152/857/49152 65341/858/65341
f 49152/859/49152 17657/860/17657 65341/861/65341
f 49152/862/49152 46033/863/46033 17657/864/17657
f 46033/865/46033 17383/866/17383 17657/867/17657
f 46033/868/46033 19254/869/19254 17383/870/17383
f 19254/871/19254 50517/872/50517 17383/873/17383
f 19254/874/19254 58252/875/58252 50517/876/50517
f 58252/877/58252 65341/878/65341 50517/879/50517
f 58252/880/58252 6219/881/6219 65341/882/65341
f 6219/883/6219 17471/884/17471 65341/885/65341
f 6219/886/6219 53058/887/53058 17471/888/17471
f 53058/889/53058 50310/890/50310 17471/891/17471
f 53058/892/53058 27971/893/27971 50310/894/50310
f 27971/895/27971 50517/896/50517 50310/897/50310
f 27971/898/27971 20744/899/20744 50517/900/50517
f 20744/901/20744 65379/902/65379 50517/903/50517
f 20744/904/20744 52653/905/52653 65379/906/65379
f 52653/907/52653 17699/908/17699 65379/909/65379
f 52653/910/52653 58238/911/58238 17699/912/17699
f 58238/913/58238 17701/914/17701 17699/915/17699
f 58238/916/58238 11809/917/11809 17701/918/17701
f 11809/919/11809 50425/920/50425 17701/921/17701
f 11809/922/11809 8549/923/8549 50425/924/50425
f 8549/925/8549 65404/926/65404 50425/927/50425
f 8549/928/8549 24049/929/24049 65404/930/65404
f 24049/931/24049 17803/932/17803 65404/933/65404
f 24049/934/24049 58229/935/58229 17803/936/17803
f 58229/937/58229 17628/938/17628 17803/939/17803
f 58229/940/58229 11809/941/11809 17628/942/17628
f 11809/943/11809 50239/944/50239 17628/945/17628
f 11809/946/11809 53062/947/53062 50239/948/50239
f 53062/949/53062 65341/950/65341 50239/951/50239
f 53062/952/53062 49152/953/49152 65341/954/65341
f 49152/955/49152 17827/956/17827 65341/957/65341
f 49152/958/49152 49451/959/49451 17827/960/17827
f 49451/961/49451 17383/962/17383 17827/963/17827
f 49451/964/49451 19254/965/19254 17383/966/17383
f 19254/967/19254 15094/968/15094 17383/969/17383
f 19254/970/19254 53061/971/53061 15094/972/15094
f 53061/973/53061 65341/974/65341 15094/975/15094
f 53061/976/53061 6219/977/6219 65341/978/65341
f 6219/979/6219 17657/980/17657 65341/981/65341
f 6219/982/6219 48792/983/48792 17657/984/17657
f 48792/985/48792 50310/986/50310 17657/987/17657
f 48792/988/48792 27971/989/27971 50310/990/50310
f 27971/991/27971 17638/992/17638 50310/993/50310
f 27971/994/27971 46032/995/46032 17638/996/17638
f 46032/997/46032 65379/998/65379 17638/999/17638
f 46032/1000/46032 52653/1001/52653 65379/1002/65379
f 52653/1003/52653 17749/1004/17749 65379/1005/65379
f 52653/1006/52653 24950/1007/24950 17749/1008/17749
f 24950/1009/24950 17701/1010/17701 17749/1011/17749
f 24950/1012/24950 11809/1013/11809 17701/1014/17701
f 11809/1015/11809 17766/1016/17766 17701/1017/17701
f 11809/1018/11809 53055/1019/53055 17766/1020/17766
f 53055/1021/53055 65404/1022/65404 17766/1023/17766
f 53055/1024/53055 24049/1025/24049 65404/1026/65404
f 24049/1027/24049 17749/1028/17749 65404/1029/65404
f 24049/1030/24049 32772/1031/32772 17749/1032/17749
f 32772/1033/32772 17628/1034/17628 17749/1035/17749
f 32772/1036/32772 11809/1037/11809 17628/1038/17628
f 11809/1039/11809 17584/1040/17584 17628/1041/17628
f 11809/1042/11809 58236/1043/58236 17584/1044/17584
f 58236/1045/58236 65341/1046/65341 17584/1047/17584
f 58236/1048/58236 49152/1049/49152 65341/1050/65341
f 49152/1051/49152 17657/1052/17657 65341/1053/65341
f 49152/1054/49152 46035/1055/46035 17657/1056/17657
f 46035/1057/46035 17383/1058/17383 17657/1059/17657
f 46035/1060/46035 19254/1061/19254 17383/1062/17383
f 19254/1063/19254 17749/1064/17749 17383/1065/17383
f 19254/1066/19254 58224/1067/58224 17749/1068/17749
f 58224/1069/58224 65341/1070/65341 17749/1071/17749
f 58224/1072/58224 6219/1073/6219 65341/1074/65341
f 6219/1075/6219 17471/1076/17471 65341/1077/65341
f 6219/1078/6219 1/1079/1 17471/1080/17471
f 1/1081/1 17729/1082/17729 17471/1083/17471
f 1/1084/1 11809/1085/11809 17729/1086/17729
f 11809/1087/11809 17819/1088/17819 17729/1089/17729
f 11809/1090/11809 1/1091/1 17819/1092/17819
f 1/1093/1 65377/1094/65377 17819/1095/17819
f 1/1096/1 49634/1097/49634 65377/1098/65377
f 49634/1099/49634 1/1100/1 65377/1101/65377
f 49634/1102/49634 40888/1103/40888 1/1104/1
f 40888/1105/40888 50310/1106/50310 1/1107/1
f 40888/1108/40888 24673/1109/24673 50310/1110/50310
f 24673/1111/24673 17770/1112/17770 50310/1113/50310
f 24673/1114/24673 50308/1115/50308 17770/1116/17770
f 50308/1117/50308 65377/1118/65377 17770/1119/17770
f 50308/1120/50308 49152/1121/49152 65377/1122/65377
f 49152/1123/49152 50523/1124/50523 65377/1125/65377
f 49152/1126/49152 1173/1127/1173 50523/1128/50523
f 1173/1129/1173 17349/1130/17349 50523/1131/50523
f 1173/1132/1173 24673/1133/24673 17349/1134/17349
f 24673/1135/24673 17645/1136/17645 17349/1137/17349
f 24673/1138/24673 40888/1139/40888 17645/1140/17645
f 40888/1141/40888 65377/1142/65377 17645/1143/17645
f 40888/1144/40888 49634/1145/49634 65377/1146/65377
f 49634/1147/49634 50538/1148/50538 65377/1149/65377
f 49634/1150/49634 45983/1151/45983 50538/1152/50538
f 45983/1153/45983 50310/1154/50310 50538/1155/50538
f 45983/1156/45983 24673/1157/24673 50310/1158/50310
f 24673/1159/24673 47582/1160/47582 50310/1161/50310
f 24673/1162/24673 11118/1163/11118 47582/1164/47582
f 11118/1165/11118 65377/1166/65377 47582/1167/47582
f 11118/1168/11118 49152/1169/49152 65377/1170/65377
f 49152/1171/49152 50575/1172/50575 65377/1173/65377
f 49152/1174/49152 50311/1175/50311 50575/1176/50575
f 50311/1177/50311 17349/1178/17349 50575/1179/50575
f 50311/1180/50311 24673/1181/24673 17349/1182/17349
f 24673/1183/24673 50523/1184/50523 17349/1185/17349
f 24673/1186/24673 20916/1187/20916 50523/1188/50523
f 20916/1189/20916 65377/1190/65377 50523/1191/50523
f 20916/1192/20916 49634/1193/49634 65377/1194/65377
f 49634/1195/49634 50484/1196/50484 65377/1197/65377
f 49634/1198/49634 40888/1199/40888 50484/1200/50484
f 40888/1201/40888 50310/1202/50310 50484/1203/50484
f 40888/1204/40888 24673/1205/24673 50310/1206/50310
f 24673/1207/24673 50538/1208/50538 50310/1209/50310
f 24673/1210/24673 50305/1211/50305 50538/1212/50538
f 50305/1213/50305 65377/1214/65377 50538/1215/50538
f 50305/1216/50305 49152/1217/49152 65377/1218/65377
f 49152/1219/49152 15033/1220/15033 65377/1221/65377
f 49152/1222/49152 11118/1223/11118 15033/1224/15033
f 11118/1225/11118 17349/1226/17349 15033/1227/15033
f 11118/1228/11118 24673/1229/24673 17349/1230/17349
f 24673/1231/24673 50575/1232/50575 17349/1233/17349
f 24673/1234/24673 20131/1235/20131 50575/1236/50575
f 20131/1237/20131 65377/1238/65377 50575/1239/50575
f 20131/1240/20131 49634/1241/49634 65377/1242/65377
f 49634/1243/49634 17602/1244/17602 65377/1245/65377
f 49634/1246/49634 20913/1247/20913 17602/1248/17602
f 20913/1249/20913 50310/1250/50310 17602/1251/17602
f 20913/1252/20913 24673/1253/24673 50310/1254/50310
f 24673/1255/24673 50484/1256/50484 50310/1257/50310
f 24673/1258/24673 1175/1259/1175 50484/1260/50484
f 1175/1261/1175 65377/1262/65377 50484/1263/50484
f 1175/1264/1175 49152/1265/49152 65377/1266/65377
f 49152/1267/49152 17807/1268/17807 65377/1269/65377
f 49152/1270/49152 50299/1271/50299 17807/1272/17807
f 50299/1273/50299 17349/1274/17349 17807/1275/17807
f 50299/1276/50299 24673/1277/24673 17349/1278/17349
f 24673/1279/24673 15123/1280/15123 17349/1281/17349
f 24673/1282/24673 24575/1283/24575 15123/1284/15123
f 24575/1285/24575 65377/1286/65377 15123/1287/15123
f 24575/1288/24575 49634/1289/49634 65377/1290/65377
f 49634/1291/49634 17790/1292/17790 65377/1293/65377
f 49634/1294/49634 20137/1295/20137 17790/1296/17790
f 20137/1297/20137 50310/1298/50310 17790/1299/17790
f 20137/1300/20137 24673/1301/24673 50310/1302/50310
f 24673/1303/24673 17602/1304/17602 50310/1305/50310
f 24673/1306/24673 58867/1307/58867 17602/1308/17602
f 58867/1309/58867 65377/1310/65377 17602/1311/17602
f 58867/1312/58867 49152/1313/49152 65377/1314/65377
f 49152/1315/49152 17755/1316/17755 65377/1317/65377
f 49152/1318/49152 1175/1319/1175 17755/1320/17755
f 1175/1321/1175 17349/1322/17349 17755/1323/17755
f 1175/1324/1175 24673/1325/24673 17349/1326/17349
f 24673/1327/24673 17807/1328/17807 17349/1329/17349
f 24673/1330/24673 20097/1331/20097 17807/1332/17807
f 20097/1333/20097 65377/1334/65377 17807/1335/17807
f 20097/1336/20097 49634/1337/49634 65377/1338/65377
f 49634/1339/49634 17602/1340/17602 65377/1341/65377
f 49634/1342/49634 256/1343/256 17602/1344/17602
f 256/1345/256 1/1346/1 17602/1347/17602
f 256/1348/256 1/1349/1 1/1350/1
f 1/1351/1 17531/1352/17531 1/1353/1
f 1/1354/1 61208/1355/61208 17531/1356/17531
f 61208/1357/61208 12359/1358/12359 17531/1359/17531
f 61208/1360/61208 33346/1361/33346 12359/1362/12359
f 33346/1363/33346 16828/1364/16828 12359/1365/12359
